%TF.GenerationSoftware,KiCad,Pcbnew,6.0.11-2627ca5db0~126~ubuntu22.04.1*%
%TF.CreationDate,2024-01-28T01:11:03-06:00*%
%TF.ProjectId,mp_highdriver_carrier,6d705f68-6967-4686-9472-697665725f63,rev?*%
%TF.SameCoordinates,Original*%
%TF.FileFunction,Copper,L2,Bot*%
%TF.FilePolarity,Positive*%
%FSLAX46Y46*%
G04 Gerber Fmt 4.6, Leading zero omitted, Abs format (unit mm)*
G04 Created by KiCad (PCBNEW 6.0.11-2627ca5db0~126~ubuntu22.04.1) date 2024-01-28 01:11:03*
%MOMM*%
%LPD*%
G01*
G04 APERTURE LIST*
%TA.AperFunction,ComponentPad*%
%ADD10C,1.300000*%
%TD*%
%TA.AperFunction,ComponentPad*%
%ADD11R,1.300000X1.300000*%
%TD*%
%TA.AperFunction,ComponentPad*%
%ADD12C,5.400000*%
%TD*%
%TA.AperFunction,ComponentPad*%
%ADD13C,1.700000*%
%TD*%
%TA.AperFunction,ComponentPad*%
%ADD14O,1.700000X1.700000*%
%TD*%
%TA.AperFunction,ComponentPad*%
%ADD15R,1.700000X1.700000*%
%TD*%
%TA.AperFunction,ViaPad*%
%ADD16C,0.800000*%
%TD*%
%TA.AperFunction,Conductor*%
%ADD17C,0.250000*%
%TD*%
G04 APERTURE END LIST*
D10*
%TO.P,J2,4,4*%
%TO.N,/P2-*%
X149124999Y-124700000D03*
D11*
%TO.P,J2,1,1*%
%TO.N,/P1-*%
X145374999Y-129700000D03*
D10*
%TO.P,J2,2,2*%
%TO.N,/P1+*%
X146624999Y-124700000D03*
%TO.P,J2,3,3*%
%TO.N,/P2+*%
X147874999Y-129700000D03*
%TD*%
D12*
%TO.P,H4,1,1*%
%TO.N,unconnected-(H4-Pad1)*%
X136050000Y-90100000D03*
%TD*%
D13*
%TO.P,J5,1,Pin_1*%
%TO.N,/SCL*%
X157650000Y-111690000D03*
D14*
%TO.P,J5,2,Pin_2*%
%TO.N,/SDA*%
X157650000Y-109150000D03*
%TO.P,J5,3,Pin_3*%
%TO.N,Net-(J5-Pad3)*%
X157650000Y-106610000D03*
%TD*%
D13*
%TO.P,J3,1,Pin_1*%
%TO.N,VDD*%
X150740000Y-93120000D03*
D14*
%TO.P,J3,2,Pin_2*%
%TO.N,GND*%
X148200000Y-93120000D03*
%TO.P,J3,3,Pin_3*%
%TO.N,/AMP*%
X145660000Y-93120000D03*
%TO.P,J3,4,Pin_4*%
%TO.N,Net-(J3-Pad4)*%
X143120000Y-93120000D03*
%TD*%
D12*
%TO.P,H2,1,1*%
%TO.N,unconnected-(H2-Pad1)*%
X158800000Y-128300000D03*
%TD*%
D13*
%TO.P,JP1,1,A*%
%TO.N,/CLK_INT*%
X137860000Y-111745000D03*
D14*
%TO.P,JP1,2,C*%
%TO.N,/CLK*%
X137860000Y-109205000D03*
%TO.P,JP1,3,B*%
%TO.N,Net-(J3-Pad4)*%
X137860000Y-106665000D03*
%TD*%
D12*
%TO.P,H3,1,1*%
%TO.N,unconnected-(H3-Pad1)*%
X136050000Y-128300000D03*
%TD*%
D15*
%TO.P,J4,1,Pin_1*%
%TO.N,unconnected-(J4-Pad1)*%
X150770000Y-99050000D03*
D14*
%TO.P,J4,2,Pin_2*%
%TO.N,unconnected-(J4-Pad2)*%
X150770000Y-101590000D03*
%TO.P,J4,3,Pin_3*%
%TO.N,VDD*%
X150770000Y-104130000D03*
%TO.P,J4,4,Pin_4*%
%TO.N,/{slash}RST*%
X150770000Y-106670000D03*
%TO.P,J4,5,Pin_5*%
%TO.N,/SDA*%
X150770000Y-109210000D03*
%TO.P,J4,6,Pin_6*%
%TO.N,/SCL*%
X150770000Y-111750000D03*
%TO.P,J4,7,Pin_7*%
%TO.N,GND*%
X150770000Y-114290000D03*
%TO.P,J4,8,Pin_8*%
%TO.N,/P2+*%
X150770000Y-116830000D03*
%TO.P,J4,9,Pin_9*%
%TO.N,/P2-*%
X150770000Y-119370000D03*
%TD*%
D12*
%TO.P,H1,1,1*%
%TO.N,unconnected-(H1-Pad1)*%
X158950000Y-90100000D03*
%TD*%
D15*
%TO.P,J1,1,Pin_1*%
%TO.N,/P1-*%
X143150000Y-119370000D03*
D14*
%TO.P,J1,2,Pin_2*%
%TO.N,/P1+*%
X143150000Y-116830000D03*
%TO.P,J1,3,Pin_3*%
%TO.N,GND*%
X143150000Y-114290000D03*
%TO.P,J1,4,Pin_4*%
%TO.N,/AMP*%
X143150000Y-111750000D03*
%TO.P,J1,5,Pin_5*%
%TO.N,/CLK_INT*%
X143150000Y-109210000D03*
%TO.P,J1,6,Pin_6*%
%TO.N,/CLK*%
X143150000Y-106670000D03*
%TO.P,J1,7,Pin_7*%
%TO.N,GND*%
X143150000Y-104130000D03*
%TO.P,J1,8,Pin_8*%
%TO.N,unconnected-(J1-Pad8)*%
X143150000Y-101590000D03*
%TO.P,J1,9,Pin_9*%
%TO.N,unconnected-(J1-Pad9)*%
X143150000Y-99050000D03*
%TD*%
D15*
%TO.P,JP2,1,A*%
%TO.N,VDD*%
X157670000Y-97650000D03*
D14*
%TO.P,JP2,2,C*%
%TO.N,/{slash}RST*%
X157670000Y-100190000D03*
%TO.P,JP2,3,B*%
%TO.N,Net-(J5-Pad3)*%
X157670000Y-102730000D03*
%TD*%
D16*
%TO.N,/AMP*%
X145900000Y-103000000D03*
X145900000Y-105400000D03*
%TO.N,VDD*%
X153270000Y-110360000D03*
X153290000Y-107810000D03*
%TO.N,/{slash}RST*%
X152180000Y-106930000D03*
X154020000Y-105080000D03*
%TD*%
D17*
%TO.N,/AMP*%
X145900000Y-105400000D02*
X145900000Y-103000000D01*
%TO.N,VDD*%
X153270000Y-110360000D02*
X153270000Y-107830000D01*
X153270000Y-107830000D02*
X153290000Y-107810000D01*
%TO.N,/{slash}RST*%
X152180000Y-106930000D02*
X154020000Y-105090000D01*
X154020000Y-105090000D02*
X154020000Y-105080000D01*
%TD*%
M02*
