M48
; DRILL file {KiCad 6.0.11-2627ca5db0~126~ubuntu22.04.1} date Sun 28 Jan 2024 01:11:02 AM CST
; FORMAT={-:-/ absolute / metric / decimal}
; #@! TF.CreationDate,2024-01-28T01:11:02-06:00
; #@! TF.GenerationSoftware,Kicad,Pcbnew,6.0.11-2627ca5db0~126~ubuntu22.04.1
; #@! TF.FileFunction,Plated,1,2,PTH
FMAT,2
METRIC
; #@! TA.AperFunction,Plated,PTH,ViaDrill
T1C0.400
; #@! TA.AperFunction,Plated,PTH,ComponentDrill
T2C0.800
; #@! TA.AperFunction,Plated,PTH,ComponentDrill
T3C1.000
; #@! TA.AperFunction,Plated,PTH,ComponentDrill
T4C2.700
%
G90
G05
T1
X145.9Y-103.0
X145.9Y-105.4
X152.18Y-106.93
X153.27Y-110.36
X153.29Y-107.81
X154.02Y-105.08
T2
X145.375Y-129.7
X146.625Y-124.7
X147.875Y-129.7
X149.125Y-124.7
T3
X137.86Y-106.665
X137.86Y-109.205
X137.86Y-111.745
X143.12Y-93.12
X143.15Y-99.05
X143.15Y-101.59
X143.15Y-104.13
X143.15Y-106.67
X143.15Y-109.21
X143.15Y-111.75
X143.15Y-114.29
X143.15Y-116.83
X143.15Y-119.37
X145.66Y-93.12
X148.2Y-93.12
X150.74Y-93.12
X150.77Y-99.05
X150.77Y-101.59
X150.77Y-104.13
X150.77Y-106.67
X150.77Y-109.21
X150.77Y-111.75
X150.77Y-114.29
X150.77Y-116.83
X150.77Y-119.37
X157.65Y-106.61
X157.65Y-109.15
X157.65Y-111.69
X157.67Y-97.65
X157.67Y-100.19
X157.67Y-102.73
T4
X136.05Y-90.1
X136.05Y-128.3
X158.8Y-128.3
X158.95Y-90.1
T0
M30
