%TF.GenerationSoftware,KiCad,Pcbnew,8.0.4*%
%TF.CreationDate,2025-01-22T16:43:02-08:00*%
%TF.ProjectId,acdc_stimulator,61636463-5f73-4746-996d-756c61746f72,rev?*%
%TF.SameCoordinates,PX43b5fc0PY92dda80*%
%TF.FileFunction,Legend,Top*%
%TF.FilePolarity,Positive*%
%FSLAX46Y46*%
G04 Gerber Fmt 4.6, Leading zero omitted, Abs format (unit mm)*
G04 Created by KiCad (PCBNEW 8.0.4) date 2025-01-22 16:43:02*
%MOMM*%
%LPD*%
G01*
G04 APERTURE LIST*
%ADD10C,0.300000*%
%ADD11C,0.187500*%
%ADD12C,0.200000*%
%ADD13C,0.120000*%
%ADD14C,0.100000*%
%ADD15C,0.152400*%
%ADD16C,0.000000*%
%ADD17C,0.508000*%
G04 APERTURE END LIST*
D10*
X-35766918Y99627743D02*
X-35052632Y99627743D01*
X-35909775Y99199172D02*
X-35409775Y100699172D01*
X-35409775Y100699172D02*
X-34909775Y99199172D01*
X-33552633Y99342029D02*
X-33624061Y99270600D01*
X-33624061Y99270600D02*
X-33838347Y99199172D01*
X-33838347Y99199172D02*
X-33981204Y99199172D01*
X-33981204Y99199172D02*
X-34195490Y99270600D01*
X-34195490Y99270600D02*
X-34338347Y99413458D01*
X-34338347Y99413458D02*
X-34409776Y99556315D01*
X-34409776Y99556315D02*
X-34481204Y99842029D01*
X-34481204Y99842029D02*
X-34481204Y100056315D01*
X-34481204Y100056315D02*
X-34409776Y100342029D01*
X-34409776Y100342029D02*
X-34338347Y100484886D01*
X-34338347Y100484886D02*
X-34195490Y100627743D01*
X-34195490Y100627743D02*
X-33981204Y100699172D01*
X-33981204Y100699172D02*
X-33838347Y100699172D01*
X-33838347Y100699172D02*
X-33624061Y100627743D01*
X-33624061Y100627743D02*
X-33552633Y100556315D01*
X-31838347Y100770600D02*
X-33124061Y98842029D01*
X-31338347Y99199172D02*
X-31338347Y100699172D01*
X-31338347Y100699172D02*
X-30981204Y100699172D01*
X-30981204Y100699172D02*
X-30766918Y100627743D01*
X-30766918Y100627743D02*
X-30624061Y100484886D01*
X-30624061Y100484886D02*
X-30552632Y100342029D01*
X-30552632Y100342029D02*
X-30481204Y100056315D01*
X-30481204Y100056315D02*
X-30481204Y99842029D01*
X-30481204Y99842029D02*
X-30552632Y99556315D01*
X-30552632Y99556315D02*
X-30624061Y99413458D01*
X-30624061Y99413458D02*
X-30766918Y99270600D01*
X-30766918Y99270600D02*
X-30981204Y99199172D01*
X-30981204Y99199172D02*
X-31338347Y99199172D01*
X-28981204Y99342029D02*
X-29052632Y99270600D01*
X-29052632Y99270600D02*
X-29266918Y99199172D01*
X-29266918Y99199172D02*
X-29409775Y99199172D01*
X-29409775Y99199172D02*
X-29624061Y99270600D01*
X-29624061Y99270600D02*
X-29766918Y99413458D01*
X-29766918Y99413458D02*
X-29838347Y99556315D01*
X-29838347Y99556315D02*
X-29909775Y99842029D01*
X-29909775Y99842029D02*
X-29909775Y100056315D01*
X-29909775Y100056315D02*
X-29838347Y100342029D01*
X-29838347Y100342029D02*
X-29766918Y100484886D01*
X-29766918Y100484886D02*
X-29624061Y100627743D01*
X-29624061Y100627743D02*
X-29409775Y100699172D01*
X-29409775Y100699172D02*
X-29266918Y100699172D01*
X-29266918Y100699172D02*
X-29052632Y100627743D01*
X-29052632Y100627743D02*
X-28981204Y100556315D01*
X-27266918Y99270600D02*
X-27052632Y99199172D01*
X-27052632Y99199172D02*
X-26695490Y99199172D01*
X-26695490Y99199172D02*
X-26552632Y99270600D01*
X-26552632Y99270600D02*
X-26481204Y99342029D01*
X-26481204Y99342029D02*
X-26409775Y99484886D01*
X-26409775Y99484886D02*
X-26409775Y99627743D01*
X-26409775Y99627743D02*
X-26481204Y99770600D01*
X-26481204Y99770600D02*
X-26552632Y99842029D01*
X-26552632Y99842029D02*
X-26695490Y99913458D01*
X-26695490Y99913458D02*
X-26981204Y99984886D01*
X-26981204Y99984886D02*
X-27124061Y100056315D01*
X-27124061Y100056315D02*
X-27195490Y100127743D01*
X-27195490Y100127743D02*
X-27266918Y100270600D01*
X-27266918Y100270600D02*
X-27266918Y100413458D01*
X-27266918Y100413458D02*
X-27195490Y100556315D01*
X-27195490Y100556315D02*
X-27124061Y100627743D01*
X-27124061Y100627743D02*
X-26981204Y100699172D01*
X-26981204Y100699172D02*
X-26624061Y100699172D01*
X-26624061Y100699172D02*
X-26409775Y100627743D01*
X-25981204Y100199172D02*
X-25409776Y100199172D01*
X-25766919Y100699172D02*
X-25766919Y99413458D01*
X-25766919Y99413458D02*
X-25695490Y99270600D01*
X-25695490Y99270600D02*
X-25552633Y99199172D01*
X-25552633Y99199172D02*
X-25409776Y99199172D01*
X-24909776Y99199172D02*
X-24909776Y100199172D01*
X-24909776Y100699172D02*
X-24981204Y100627743D01*
X-24981204Y100627743D02*
X-24909776Y100556315D01*
X-24909776Y100556315D02*
X-24838347Y100627743D01*
X-24838347Y100627743D02*
X-24909776Y100699172D01*
X-24909776Y100699172D02*
X-24909776Y100556315D01*
X-24195490Y99199172D02*
X-24195490Y100199172D01*
X-24195490Y100056315D02*
X-24124061Y100127743D01*
X-24124061Y100127743D02*
X-23981204Y100199172D01*
X-23981204Y100199172D02*
X-23766918Y100199172D01*
X-23766918Y100199172D02*
X-23624061Y100127743D01*
X-23624061Y100127743D02*
X-23552632Y99984886D01*
X-23552632Y99984886D02*
X-23552632Y99199172D01*
X-23552632Y99984886D02*
X-23481204Y100127743D01*
X-23481204Y100127743D02*
X-23338347Y100199172D01*
X-23338347Y100199172D02*
X-23124061Y100199172D01*
X-23124061Y100199172D02*
X-22981204Y100127743D01*
X-22981204Y100127743D02*
X-22909775Y99984886D01*
X-22909775Y99984886D02*
X-22909775Y99199172D01*
X-21552632Y100199172D02*
X-21552632Y99199172D01*
X-22195490Y100199172D02*
X-22195490Y99413458D01*
X-22195490Y99413458D02*
X-22124061Y99270600D01*
X-22124061Y99270600D02*
X-21981204Y99199172D01*
X-21981204Y99199172D02*
X-21766918Y99199172D01*
X-21766918Y99199172D02*
X-21624061Y99270600D01*
X-21624061Y99270600D02*
X-21552632Y99342029D01*
X-20624061Y99199172D02*
X-20766918Y99270600D01*
X-20766918Y99270600D02*
X-20838347Y99413458D01*
X-20838347Y99413458D02*
X-20838347Y100699172D01*
X-19409775Y99199172D02*
X-19409775Y99984886D01*
X-19409775Y99984886D02*
X-19481204Y100127743D01*
X-19481204Y100127743D02*
X-19624061Y100199172D01*
X-19624061Y100199172D02*
X-19909775Y100199172D01*
X-19909775Y100199172D02*
X-20052633Y100127743D01*
X-19409775Y99270600D02*
X-19552633Y99199172D01*
X-19552633Y99199172D02*
X-19909775Y99199172D01*
X-19909775Y99199172D02*
X-20052633Y99270600D01*
X-20052633Y99270600D02*
X-20124061Y99413458D01*
X-20124061Y99413458D02*
X-20124061Y99556315D01*
X-20124061Y99556315D02*
X-20052633Y99699172D01*
X-20052633Y99699172D02*
X-19909775Y99770600D01*
X-19909775Y99770600D02*
X-19552633Y99770600D01*
X-19552633Y99770600D02*
X-19409775Y99842029D01*
X-18909775Y100199172D02*
X-18338347Y100199172D01*
X-18695490Y100699172D02*
X-18695490Y99413458D01*
X-18695490Y99413458D02*
X-18624061Y99270600D01*
X-18624061Y99270600D02*
X-18481204Y99199172D01*
X-18481204Y99199172D02*
X-18338347Y99199172D01*
X-17624061Y99199172D02*
X-17766918Y99270600D01*
X-17766918Y99270600D02*
X-17838347Y99342029D01*
X-17838347Y99342029D02*
X-17909775Y99484886D01*
X-17909775Y99484886D02*
X-17909775Y99913458D01*
X-17909775Y99913458D02*
X-17838347Y100056315D01*
X-17838347Y100056315D02*
X-17766918Y100127743D01*
X-17766918Y100127743D02*
X-17624061Y100199172D01*
X-17624061Y100199172D02*
X-17409775Y100199172D01*
X-17409775Y100199172D02*
X-17266918Y100127743D01*
X-17266918Y100127743D02*
X-17195489Y100056315D01*
X-17195489Y100056315D02*
X-17124061Y99913458D01*
X-17124061Y99913458D02*
X-17124061Y99484886D01*
X-17124061Y99484886D02*
X-17195489Y99342029D01*
X-17195489Y99342029D02*
X-17266918Y99270600D01*
X-17266918Y99270600D02*
X-17409775Y99199172D01*
X-17409775Y99199172D02*
X-17624061Y99199172D01*
X-16481204Y99199172D02*
X-16481204Y100199172D01*
X-16481204Y99913458D02*
X-16409775Y100056315D01*
X-16409775Y100056315D02*
X-16338346Y100127743D01*
X-16338346Y100127743D02*
X-16195489Y100199172D01*
X-16195489Y100199172D02*
X-16052632Y100199172D01*
D11*
X-35686169Y97027790D02*
X-35209979Y97027790D01*
X-35781407Y96742075D02*
X-35448074Y97742075D01*
X-35448074Y97742075D02*
X-35114741Y96742075D01*
X-34781407Y97408742D02*
X-34781407Y96742075D01*
X-34781407Y97313504D02*
X-34733788Y97361123D01*
X-34733788Y97361123D02*
X-34638550Y97408742D01*
X-34638550Y97408742D02*
X-34495693Y97408742D01*
X-34495693Y97408742D02*
X-34400455Y97361123D01*
X-34400455Y97361123D02*
X-34352836Y97265885D01*
X-34352836Y97265885D02*
X-34352836Y96742075D01*
X-33448074Y97408742D02*
X-33448074Y96742075D01*
X-33876645Y97408742D02*
X-33876645Y96884933D01*
X-33876645Y96884933D02*
X-33829026Y96789694D01*
X-33829026Y96789694D02*
X-33733788Y96742075D01*
X-33733788Y96742075D02*
X-33590931Y96742075D01*
X-33590931Y96742075D02*
X-33495693Y96789694D01*
X-33495693Y96789694D02*
X-33448074Y96837314D01*
X-33019502Y96789694D02*
X-32924264Y96742075D01*
X-32924264Y96742075D02*
X-32733788Y96742075D01*
X-32733788Y96742075D02*
X-32638550Y96789694D01*
X-32638550Y96789694D02*
X-32590931Y96884933D01*
X-32590931Y96884933D02*
X-32590931Y96932552D01*
X-32590931Y96932552D02*
X-32638550Y97027790D01*
X-32638550Y97027790D02*
X-32733788Y97075409D01*
X-32733788Y97075409D02*
X-32876645Y97075409D01*
X-32876645Y97075409D02*
X-32971883Y97123028D01*
X-32971883Y97123028D02*
X-33019502Y97218266D01*
X-33019502Y97218266D02*
X-33019502Y97265885D01*
X-33019502Y97265885D02*
X-32971883Y97361123D01*
X-32971883Y97361123D02*
X-32876645Y97408742D01*
X-32876645Y97408742D02*
X-32733788Y97408742D01*
X-32733788Y97408742D02*
X-32638550Y97361123D01*
X-32162359Y96742075D02*
X-32162359Y97742075D01*
X-31733788Y96742075D02*
X-31733788Y97265885D01*
X-31733788Y97265885D02*
X-31781407Y97361123D01*
X-31781407Y97361123D02*
X-31876645Y97408742D01*
X-31876645Y97408742D02*
X-32019502Y97408742D01*
X-32019502Y97408742D02*
X-32114740Y97361123D01*
X-32114740Y97361123D02*
X-32162359Y97313504D01*
X-30495692Y96742075D02*
X-30495692Y97742075D01*
X-30495692Y97742075D02*
X-30162359Y97027790D01*
X-30162359Y97027790D02*
X-29829026Y97742075D01*
X-29829026Y97742075D02*
X-29829026Y96742075D01*
X-28924264Y97408742D02*
X-28924264Y96742075D01*
X-29352835Y97408742D02*
X-29352835Y96884933D01*
X-29352835Y96884933D02*
X-29305216Y96789694D01*
X-29305216Y96789694D02*
X-29209978Y96742075D01*
X-29209978Y96742075D02*
X-29067121Y96742075D01*
X-29067121Y96742075D02*
X-28971883Y96789694D01*
X-28971883Y96789694D02*
X-28924264Y96837314D01*
X-28590930Y97408742D02*
X-28209978Y97408742D01*
X-28448073Y97742075D02*
X-28448073Y96884933D01*
X-28448073Y96884933D02*
X-28400454Y96789694D01*
X-28400454Y96789694D02*
X-28305216Y96742075D01*
X-28305216Y96742075D02*
X-28209978Y96742075D01*
X-27971882Y97408742D02*
X-27733787Y96742075D01*
X-27495692Y97408742D02*
X-27733787Y96742075D01*
X-27733787Y96742075D02*
X-27829025Y96503980D01*
X-27829025Y96503980D02*
X-27876644Y96456361D01*
X-27876644Y96456361D02*
X-27971882Y96408742D01*
X-26686168Y96742075D02*
X-26686168Y97265885D01*
X-26686168Y97265885D02*
X-26733787Y97361123D01*
X-26733787Y97361123D02*
X-26829025Y97408742D01*
X-26829025Y97408742D02*
X-27019501Y97408742D01*
X-27019501Y97408742D02*
X-27114739Y97361123D01*
X-26686168Y96789694D02*
X-26781406Y96742075D01*
X-26781406Y96742075D02*
X-27019501Y96742075D01*
X-27019501Y96742075D02*
X-27114739Y96789694D01*
X-27114739Y96789694D02*
X-27162358Y96884933D01*
X-27162358Y96884933D02*
X-27162358Y96980171D01*
X-27162358Y96980171D02*
X-27114739Y97075409D01*
X-27114739Y97075409D02*
X-27019501Y97123028D01*
X-27019501Y97123028D02*
X-26781406Y97123028D01*
X-26781406Y97123028D02*
X-26686168Y97170647D01*
X-26067120Y96742075D02*
X-26162358Y96789694D01*
X-26162358Y96789694D02*
X-26209977Y96884933D01*
X-26209977Y96884933D02*
X-26209977Y97742075D01*
X-25257596Y96742075D02*
X-25257596Y97265885D01*
X-25257596Y97265885D02*
X-25305215Y97361123D01*
X-25305215Y97361123D02*
X-25400453Y97408742D01*
X-25400453Y97408742D02*
X-25590929Y97408742D01*
X-25590929Y97408742D02*
X-25686167Y97361123D01*
X-25257596Y96789694D02*
X-25352834Y96742075D01*
X-25352834Y96742075D02*
X-25590929Y96742075D01*
X-25590929Y96742075D02*
X-25686167Y96789694D01*
X-25686167Y96789694D02*
X-25733786Y96884933D01*
X-25733786Y96884933D02*
X-25733786Y96980171D01*
X-25733786Y96980171D02*
X-25686167Y97075409D01*
X-25686167Y97075409D02*
X-25590929Y97123028D01*
X-25590929Y97123028D02*
X-25352834Y97123028D01*
X-25352834Y97123028D02*
X-25257596Y97170647D01*
X-35448074Y96132131D02*
X-35352836Y96132131D01*
X-35352836Y96132131D02*
X-35257598Y96084512D01*
X-35257598Y96084512D02*
X-35209979Y96036893D01*
X-35209979Y96036893D02*
X-35162360Y95941655D01*
X-35162360Y95941655D02*
X-35114741Y95751179D01*
X-35114741Y95751179D02*
X-35114741Y95513084D01*
X-35114741Y95513084D02*
X-35162360Y95322608D01*
X-35162360Y95322608D02*
X-35209979Y95227370D01*
X-35209979Y95227370D02*
X-35257598Y95179750D01*
X-35257598Y95179750D02*
X-35352836Y95132131D01*
X-35352836Y95132131D02*
X-35448074Y95132131D01*
X-35448074Y95132131D02*
X-35543312Y95179750D01*
X-35543312Y95179750D02*
X-35590931Y95227370D01*
X-35590931Y95227370D02*
X-35638550Y95322608D01*
X-35638550Y95322608D02*
X-35686169Y95513084D01*
X-35686169Y95513084D02*
X-35686169Y95751179D01*
X-35686169Y95751179D02*
X-35638550Y95941655D01*
X-35638550Y95941655D02*
X-35590931Y96036893D01*
X-35590931Y96036893D02*
X-35543312Y96084512D01*
X-35543312Y96084512D02*
X-35448074Y96132131D01*
X-34162360Y95132131D02*
X-34733788Y95132131D01*
X-34448074Y95132131D02*
X-34448074Y96132131D01*
X-34448074Y96132131D02*
X-34543312Y95989274D01*
X-34543312Y95989274D02*
X-34638550Y95894036D01*
X-34638550Y95894036D02*
X-34733788Y95846417D01*
X-33019503Y96179750D02*
X-33876645Y94894036D01*
X-32495693Y96132131D02*
X-32400455Y96132131D01*
X-32400455Y96132131D02*
X-32305217Y96084512D01*
X-32305217Y96084512D02*
X-32257598Y96036893D01*
X-32257598Y96036893D02*
X-32209979Y95941655D01*
X-32209979Y95941655D02*
X-32162360Y95751179D01*
X-32162360Y95751179D02*
X-32162360Y95513084D01*
X-32162360Y95513084D02*
X-32209979Y95322608D01*
X-32209979Y95322608D02*
X-32257598Y95227370D01*
X-32257598Y95227370D02*
X-32305217Y95179750D01*
X-32305217Y95179750D02*
X-32400455Y95132131D01*
X-32400455Y95132131D02*
X-32495693Y95132131D01*
X-32495693Y95132131D02*
X-32590931Y95179750D01*
X-32590931Y95179750D02*
X-32638550Y95227370D01*
X-32638550Y95227370D02*
X-32686169Y95322608D01*
X-32686169Y95322608D02*
X-32733788Y95513084D01*
X-32733788Y95513084D02*
X-32733788Y95751179D01*
X-32733788Y95751179D02*
X-32686169Y95941655D01*
X-32686169Y95941655D02*
X-32638550Y96036893D01*
X-32638550Y96036893D02*
X-32590931Y96084512D01*
X-32590931Y96084512D02*
X-32495693Y96132131D01*
X-31209979Y95132131D02*
X-31781407Y95132131D01*
X-31495693Y95132131D02*
X-31495693Y96132131D01*
X-31495693Y96132131D02*
X-31590931Y95989274D01*
X-31590931Y95989274D02*
X-31686169Y95894036D01*
X-31686169Y95894036D02*
X-31781407Y95846417D01*
X-30067122Y96179750D02*
X-30924264Y94894036D01*
X-29781407Y96036893D02*
X-29733788Y96084512D01*
X-29733788Y96084512D02*
X-29638550Y96132131D01*
X-29638550Y96132131D02*
X-29400455Y96132131D01*
X-29400455Y96132131D02*
X-29305217Y96084512D01*
X-29305217Y96084512D02*
X-29257598Y96036893D01*
X-29257598Y96036893D02*
X-29209979Y95941655D01*
X-29209979Y95941655D02*
X-29209979Y95846417D01*
X-29209979Y95846417D02*
X-29257598Y95703560D01*
X-29257598Y95703560D02*
X-29829026Y95132131D01*
X-29829026Y95132131D02*
X-29209979Y95132131D01*
X-28305217Y96132131D02*
X-28781407Y96132131D01*
X-28781407Y96132131D02*
X-28829026Y95655941D01*
X-28829026Y95655941D02*
X-28781407Y95703560D01*
X-28781407Y95703560D02*
X-28686169Y95751179D01*
X-28686169Y95751179D02*
X-28448074Y95751179D01*
X-28448074Y95751179D02*
X-28352836Y95703560D01*
X-28352836Y95703560D02*
X-28305217Y95655941D01*
X-28305217Y95655941D02*
X-28257598Y95560703D01*
X-28257598Y95560703D02*
X-28257598Y95322608D01*
X-28257598Y95322608D02*
X-28305217Y95227370D01*
X-28305217Y95227370D02*
X-28352836Y95179750D01*
X-28352836Y95179750D02*
X-28448074Y95132131D01*
X-28448074Y95132131D02*
X-28686169Y95132131D01*
X-28686169Y95132131D02*
X-28781407Y95179750D01*
X-28781407Y95179750D02*
X-28829026Y95227370D01*
D12*
%TO.C,L8*%
X48400000Y-14775000D02*
X48400000Y-6775000D01*
X40400000Y-6775000D02*
X40400000Y-14775000D01*
%TO.C,IC7*%
X18537500Y38437500D02*
X18537500Y39037500D01*
X18537500Y39037500D02*
X21437500Y39037500D01*
X21437500Y39037500D02*
X21437500Y38437500D01*
X21437500Y38437500D02*
X18537500Y38437500D01*
X18437500Y36887500D02*
X18437500Y38087500D01*
%TO.C,D5*%
X49902000Y-15227000D02*
X55098000Y-15227000D01*
X55098000Y-12623000D02*
X49575000Y-12623000D01*
%TO.C,IC3*%
X49962500Y12000000D02*
X48512500Y12000000D01*
D13*
%TO.C,C27*%
X41377500Y13027836D02*
X41377500Y12812164D01*
X42097500Y13027836D02*
X42097500Y12812164D01*
%TO.C,C42*%
X26929664Y26260000D02*
X27145336Y26260000D01*
X26929664Y25540000D02*
X27145336Y25540000D01*
D12*
%TO.C,J9*%
X-22800001Y-13287700D02*
G75*
G02*
X-23000001Y-13287700I-100000J0D01*
G01*
X-23000001Y-13287700D02*
G75*
G02*
X-22800001Y-13287700I100000J0D01*
G01*
X-15075001Y-15317700D02*
X-24925001Y-15317700D01*
X-15075001Y-12187700D02*
X-15075001Y-15317700D01*
X-16500001Y-11247700D02*
X-18395001Y-11247700D01*
X-18395001Y-11247700D02*
X-18395001Y-10747700D01*
X-18395001Y-10747700D02*
X-19495001Y-10747700D01*
X-19495001Y-10747700D02*
X-19499501Y-11247700D01*
X-19499501Y-11247700D02*
X-20505001Y-11247700D01*
X-20505001Y-11247700D02*
X-20505001Y-10747700D01*
X-20505001Y-10747700D02*
X-21605001Y-10747700D01*
X-21605001Y-11247700D02*
X-23500001Y-11247700D01*
X-21605001Y-10747700D02*
X-21605001Y-11247700D01*
X-24925001Y-15317700D02*
X-24925001Y-12187700D01*
D13*
%TO.C,R17*%
X52065000Y20587742D02*
X52065000Y21062258D01*
X53110000Y20587742D02*
X53110000Y21062258D01*
%TO.C,R1*%
X-6943641Y48580000D02*
X-6636359Y48580000D01*
X-6943641Y47820000D02*
X-6636359Y47820000D01*
D12*
%TO.C,Q9*%
X27123000Y88643000D02*
X27123000Y89073000D01*
D14*
X29600000Y82033000D02*
X29600000Y82033000D01*
X29600000Y81933000D02*
X29600000Y81933000D01*
D12*
X37177000Y89073000D02*
X37177000Y88643000D01*
X37177000Y88643000D02*
X27123000Y88643000D01*
D14*
X29600000Y82033000D02*
G75*
G02*
X29600000Y81933000I0J-50000D01*
G01*
X29600000Y81933000D02*
G75*
G02*
X29600000Y82033000I0J50000D01*
G01*
D13*
%TO.C,R3*%
X-2913641Y42140000D02*
X-2606359Y42140000D01*
X-2913641Y41380000D02*
X-2606359Y41380000D01*
%TO.C,C38*%
X45852500Y39510000D02*
X49602500Y39510000D01*
X45852500Y30054437D02*
X45852500Y39510000D01*
X46916937Y28990000D02*
X45852500Y30054437D01*
X46916937Y28990000D02*
X49602500Y28990000D01*
X47727500Y28125000D02*
X48977500Y28125000D01*
X48352500Y27500000D02*
X48352500Y28750000D01*
X55308063Y28990000D02*
X52622500Y28990000D01*
X55308063Y28990000D02*
X56372500Y30054437D01*
X56372500Y39510000D02*
X52622500Y39510000D01*
X56372500Y30054437D02*
X56372500Y39510000D01*
%TO.C,C33*%
X36095000Y691252D02*
X36095000Y-731252D01*
X37915000Y691252D02*
X37915000Y-731252D01*
%TO.C,C3*%
X3690000Y36645563D02*
X3690000Y32190000D01*
X3690000Y32190000D02*
X5390000Y32190000D01*
X4754437Y37710000D02*
X3690000Y36645563D01*
X4754437Y37710000D02*
X5390000Y37710000D01*
X8135000Y38575000D02*
X8135000Y37950000D01*
X8145563Y37710000D02*
X7510000Y37710000D01*
X8145563Y37710000D02*
X9210000Y36645563D01*
X8447500Y38262500D02*
X7822500Y38262500D01*
X9210000Y36645563D02*
X9210000Y32190000D01*
X9210000Y32190000D02*
X7510000Y32190000D01*
%TO.C,R7*%
X27701900Y52073641D02*
X27701900Y51766359D01*
X28461900Y52073641D02*
X28461900Y51766359D01*
%TO.C,R28*%
X39672500Y-7762742D02*
X39672500Y-8237258D01*
X38627500Y-7762742D02*
X38627500Y-8237258D01*
%TO.C,C30*%
X43015000Y691252D02*
X43015000Y-731252D01*
X44835000Y691252D02*
X44835000Y-731252D01*
%TO.C,U1*%
X-10210000Y62785000D02*
X-10210000Y61835000D01*
X-10210000Y52565000D02*
X-10210000Y53515000D01*
X-9260000Y62785000D02*
X-10210000Y62785000D01*
X-9260000Y52565000D02*
X-10210000Y52565000D01*
X-940000Y62785000D02*
X10000Y62785000D01*
X-940000Y52565000D02*
X10000Y52565000D01*
X10000Y62785000D02*
X10000Y61835000D01*
X10000Y52565000D02*
X10000Y53515000D01*
X965000Y53045000D02*
X285000Y53045000D01*
X625000Y53515000D01*
X965000Y53045000D01*
G36*
X965000Y53045000D02*
G01*
X285000Y53045000D01*
X625000Y53515000D01*
X965000Y53045000D01*
G37*
%TO.C,C54*%
X50513748Y-11885000D02*
X51936252Y-11885000D01*
X50513748Y-10065000D02*
X51936252Y-10065000D01*
%TO.C,C13*%
X-10210000Y63922164D02*
X-10210000Y64137836D01*
X-9490000Y63922164D02*
X-9490000Y64137836D01*
%TO.C,C20*%
X-7427836Y71135000D02*
X-7212164Y71135000D01*
X-7427836Y70415000D02*
X-7212164Y70415000D01*
%TO.C,R20*%
X55535436Y13465000D02*
X56989564Y13465000D01*
X55535436Y11645000D02*
X56989564Y11645000D01*
%TO.C,R10*%
X35535436Y55659640D02*
X35989564Y55659640D01*
X35535436Y54189640D02*
X35989564Y54189640D01*
%TO.C,C6*%
X9490000Y39622164D02*
X9490000Y39837836D01*
X10210000Y39622164D02*
X10210000Y39837836D01*
%TO.C,C15*%
X-1222164Y50610000D02*
X-1437836Y50610000D01*
X-1222164Y49890000D02*
X-1437836Y49890000D01*
%TO.C,C26*%
X41377500Y20672164D02*
X41377500Y20887836D01*
X42097500Y20672164D02*
X42097500Y20887836D01*
%TO.C,J1*%
X27727500Y43785000D02*
X27727500Y31185000D01*
X27727500Y31185000D02*
X38077500Y31185000D01*
X38077500Y38985000D02*
X38577500Y38685000D01*
X38077500Y33585000D02*
X38077500Y38985000D01*
X38077500Y32135000D02*
X38577500Y31885000D01*
X38077500Y31185000D02*
X38077500Y32135000D01*
X38577500Y43785000D02*
X27727500Y43785000D01*
X38577500Y38685000D02*
X38577500Y43785000D01*
X38577500Y33835000D02*
X38077500Y33585000D01*
X38577500Y33785000D02*
X38577500Y33835000D01*
X38577500Y31885000D02*
X38577500Y33785000D01*
D15*
%TO.C,MOSFET1*%
X-2505600Y-499700D02*
X-2505600Y3157900D01*
X-2505600Y3157900D02*
X-2820560Y3157900D01*
X-2820560Y-499700D02*
X-2505600Y-499700D01*
X-5848240Y3157900D02*
X-6163200Y3157900D01*
X-6163200Y-499700D02*
X-5848240Y-499700D01*
X-6163200Y3157900D02*
X-6163200Y-499700D01*
D13*
%TO.C,C4*%
X9490000Y37722164D02*
X9490000Y37937836D01*
X10210000Y37722164D02*
X10210000Y37937836D01*
%TO.C,C44*%
X26949664Y21960000D02*
X27165336Y21960000D01*
X26949664Y21240000D02*
X27165336Y21240000D01*
%TO.C,C45*%
X55386252Y20390000D02*
X54863748Y20390000D01*
X55386252Y18920000D02*
X54863748Y18920000D01*
%TO.C,C32*%
X38415000Y691252D02*
X38415000Y-731252D01*
X40235000Y691252D02*
X40235000Y-731252D01*
%TO.C,R21*%
X53845000Y17461359D02*
X53845000Y17768641D01*
X54605000Y17461359D02*
X54605000Y17768641D01*
%TO.C,R9*%
X32010436Y55659640D02*
X32464564Y55659640D01*
X32010436Y54189640D02*
X32464564Y54189640D01*
%TO.C,C16*%
X-30586252Y58685000D02*
X-30063748Y58685000D01*
X-30586252Y57215000D02*
X-30063748Y57215000D01*
D14*
%TO.C,Q1*%
X40067500Y54174640D02*
X40067500Y54024640D01*
X40067500Y50874640D02*
X40067500Y51024640D01*
X43367500Y54174640D02*
X40067500Y54174640D01*
X43367500Y54024640D02*
X43367500Y54174640D01*
X43367500Y51024640D02*
X43367500Y50874640D01*
X43367500Y50874640D02*
X40067500Y50874640D01*
D12*
X44517500Y51624640D02*
X44517500Y51624640D01*
X44517500Y51424640D02*
X44517500Y51424640D01*
X44517500Y51624640D02*
G75*
G02*
X44517500Y51424640I0J-100000D01*
G01*
X44517500Y51424640D02*
G75*
G02*
X44517500Y51624640I0J100000D01*
G01*
D13*
%TO.C,C5*%
X-5775336Y67125000D02*
X-5559664Y67125000D01*
X-5775336Y66405000D02*
X-5559664Y66405000D01*
D12*
%TO.C,L4*%
X37087500Y10650000D02*
X37087500Y8600000D01*
X37087500Y5400000D02*
X37087500Y3350000D01*
X37087500Y3350000D02*
X44387500Y3350000D01*
X44387500Y10650000D02*
X37087500Y10650000D01*
X44387500Y8600000D02*
X44387500Y10650000D01*
X44387500Y3350000D02*
X44387500Y5400000D01*
D14*
X45137500Y7000000D02*
X45137500Y7000000D01*
X45237500Y7000000D02*
X45237500Y7000000D01*
X45137500Y7000000D02*
G75*
G02*
X45237500Y7000000I50000J0D01*
G01*
X45237500Y7000000D02*
G75*
G02*
X45137500Y7000000I-50000J0D01*
G01*
D13*
%TO.C,Y1*%
X5500000Y57825000D02*
X5500000Y54525000D01*
X5500000Y54525000D02*
X9500000Y54525000D01*
%TO.C,F1*%
X-33862779Y59860000D02*
X-33537221Y59860000D01*
X-33862779Y58840000D02*
X-33537221Y58840000D01*
%TO.C,C9*%
X2040000Y54387164D02*
X2040000Y54602836D01*
X2760000Y54387164D02*
X2760000Y54602836D01*
%TO.C,C35*%
X47238748Y4350000D02*
X48661252Y4350000D01*
X47238748Y2530000D02*
X48661252Y2530000D01*
%TO.C,SW2*%
X-8950000Y38500000D02*
X-8950000Y37710000D01*
X-8350000Y36700000D02*
X-2650000Y36700000D01*
X-7100000Y39550000D02*
X-5400000Y39550000D01*
X-6900000Y36700000D02*
X-6900000Y35410000D01*
X-6900000Y35410000D02*
X-6700000Y35200000D01*
X-6700000Y35200000D02*
X-5800000Y35200000D01*
X-5600000Y35410000D02*
X-5800000Y35200000D01*
X-5600000Y35410000D02*
X-5600000Y36700000D01*
X-4100000Y39550000D02*
X-3900000Y39550000D01*
X-2050000Y37710000D02*
X-2050000Y38500000D01*
D14*
%TO.C,Q11*%
X27700000Y79930000D02*
X27850000Y79930000D01*
X27700000Y76630000D02*
X27700000Y79930000D01*
X27850000Y76630000D02*
X27700000Y76630000D01*
D12*
X28250000Y75480000D02*
X28250000Y75480000D01*
X28450000Y75480000D02*
X28450000Y75480000D01*
D14*
X30850000Y76630000D02*
X31000000Y76630000D01*
X31000000Y79930000D02*
X30850000Y79930000D01*
X31000000Y76630000D02*
X31000000Y79930000D01*
D12*
X28250000Y75480000D02*
G75*
G02*
X28450000Y75480000I100000J0D01*
G01*
X28450000Y75480000D02*
G75*
G02*
X28250000Y75480000I-100000J0D01*
G01*
D13*
%TO.C,R13*%
X41743100Y61912936D02*
X41743100Y62367064D01*
X43213100Y61912936D02*
X43213100Y62367064D01*
%TO.C,R4*%
X-35538641Y65430000D02*
X-35231359Y65430000D01*
X-35538641Y64670000D02*
X-35231359Y64670000D01*
D15*
%TO.C,J7*%
X-28737002Y-15316700D02*
X-28737002Y-8966700D01*
X-28737002Y-8966700D02*
X-36103002Y-8966700D01*
X-36103002Y-15316700D02*
X-28737002Y-15316700D01*
X-36103002Y-8966700D02*
X-36103002Y-15316700D01*
D13*
%TO.C,C51*%
X-12372164Y15000D02*
X-12587836Y15000D01*
X-12372164Y735000D02*
X-12587836Y735000D01*
%TO.C,R16*%
X51640000Y11177936D02*
X51640000Y12632064D01*
X53460000Y11177936D02*
X53460000Y12632064D01*
%TO.C,R23*%
X33318641Y81165000D02*
X33011359Y81165000D01*
X33318641Y80405000D02*
X33011359Y80405000D01*
%TO.C,C40*%
X44402500Y36602097D02*
X44402500Y36883257D01*
X45422500Y36602097D02*
X45422500Y36883257D01*
D14*
%TO.C,IC4*%
X39395000Y-14375000D02*
G75*
G02*
X39295000Y-14375000I-50000J0D01*
G01*
X39295000Y-14375000D02*
G75*
G02*
X39395000Y-14375000I50000J0D01*
G01*
X39395000Y-14375000D02*
X39395000Y-14375000D01*
X39295000Y-14375000D02*
X39295000Y-14375000D01*
D12*
X37495000Y-14645000D02*
X34895000Y-14645000D01*
X34895000Y-10606000D02*
X37495000Y-10625000D01*
%TO.C,J8*%
X-3900001Y-13290500D02*
G75*
G02*
X-4100001Y-13290500I-100000J0D01*
G01*
X-4100001Y-13290500D02*
G75*
G02*
X-3900001Y-13290500I100000J0D01*
G01*
X3824999Y-15320500D02*
X-6025001Y-15320500D01*
X3824999Y-12190500D02*
X3824999Y-15320500D01*
X2399999Y-11250500D02*
X504999Y-11250500D01*
X504999Y-11250500D02*
X504999Y-10750500D01*
X504999Y-10750500D02*
X-595001Y-10750500D01*
X-595001Y-10750500D02*
X-599501Y-11250500D01*
X-599501Y-11250500D02*
X-1605001Y-11250500D01*
X-1605001Y-11250500D02*
X-1605001Y-10750500D01*
X-1605001Y-10750500D02*
X-2705001Y-10750500D01*
X-2705001Y-11250500D02*
X-4600001Y-11250500D01*
X-2705001Y-10750500D02*
X-2705001Y-11250500D01*
X-6025001Y-15320500D02*
X-6025001Y-12190500D01*
D13*
%TO.C,U3*%
X-33075000Y56710000D02*
X-33875000Y56710000D01*
X-33075000Y56710000D02*
X-32275000Y56710000D01*
X-33075000Y53590000D02*
X-33875000Y53590000D01*
X-33075000Y53590000D02*
X-32275000Y53590000D01*
X-34375000Y56660000D02*
X-34615000Y56990000D01*
X-34135000Y56990000D01*
X-34375000Y56660000D01*
G36*
X-34375000Y56660000D02*
G01*
X-34615000Y56990000D01*
X-34135000Y56990000D01*
X-34375000Y56660000D01*
G37*
%TO.C,C37*%
X47238748Y8950000D02*
X48661252Y8950000D01*
X47238748Y7130000D02*
X48661252Y7130000D01*
%TO.C,SW1*%
X-14250000Y42350000D02*
X-14250000Y37950000D01*
X-12750000Y42350000D02*
X-12650000Y42350000D01*
X-12750000Y37950000D02*
X-12650000Y37950000D01*
X-11150000Y37950000D02*
X-11150000Y42350000D01*
%TO.C,C24*%
X33271900Y60245000D02*
X33271900Y62985000D01*
X41011900Y62985000D02*
X33271900Y62985000D01*
X41011900Y60245000D02*
X33271900Y60245000D01*
X41011900Y60245000D02*
X41011900Y62985000D01*
%TO.C,C41*%
X51890000Y16593748D02*
X51890000Y17116252D01*
X53360000Y16593748D02*
X53360000Y17116252D01*
D14*
%TO.C,Q7*%
X-600000Y83850000D02*
X-450000Y83850000D01*
X-600000Y80550000D02*
X-600000Y83850000D01*
X-450000Y80550000D02*
X-600000Y80550000D01*
D12*
X-50000Y79400000D02*
X-50000Y79400000D01*
X150000Y79400000D02*
X150000Y79400000D01*
D14*
X2550000Y80550000D02*
X2700000Y80550000D01*
X2700000Y83850000D02*
X2550000Y83850000D01*
X2700000Y80550000D02*
X2700000Y83850000D01*
D12*
X-50000Y79400000D02*
G75*
G02*
X150000Y79400000I100000J0D01*
G01*
X150000Y79400000D02*
G75*
G02*
X-50000Y79400000I-100000J0D01*
G01*
D16*
%TO.C,U7*%
G36*
X-13134503Y1543900D02*
G01*
X-13515503Y1543900D01*
X-13515503Y1797900D01*
X-13134503Y1797900D01*
X-13134503Y1543900D01*
G37*
G36*
X-16384501Y9621100D02*
G01*
X-16765501Y9621100D01*
X-16765501Y9875100D01*
X-16384501Y9875100D01*
X-16384501Y9621100D01*
G37*
D15*
X-10223302Y3601285D02*
X-10223302Y7817715D01*
X-18376702Y7817715D02*
X-18376702Y3601285D01*
%TO.C,U4*%
X14020300Y74288643D02*
X14020300Y70611357D01*
X19379700Y70611357D02*
X19379700Y74288643D01*
D16*
G36*
X18516100Y76260000D02*
G01*
X18135100Y76260000D01*
X18135100Y76514000D01*
X18516100Y76514000D01*
X18516100Y76260000D01*
G37*
D13*
%TO.C,FB1*%
X-9710000Y69824721D02*
X-9710000Y70150279D01*
X-8690000Y69824721D02*
X-8690000Y70150279D01*
%TO.C,Q2*%
X-28935001Y7120500D02*
X-29265001Y7360500D01*
X-28935001Y7600500D01*
X-28935001Y7120500D01*
G36*
X-28935001Y7120500D02*
G01*
X-29265001Y7360500D01*
X-28935001Y7600500D01*
X-28935001Y7120500D01*
G37*
X-29165001Y2320500D02*
X-30425001Y2320500D01*
X-29165001Y6080500D02*
X-29165001Y2320500D01*
X-35985001Y2320500D02*
X-34725001Y2320500D01*
X-35985001Y6080500D02*
X-35985001Y2320500D01*
%TO.C,C8*%
X3084420Y53085000D02*
X3365580Y53085000D01*
X3084420Y52065000D02*
X3365580Y52065000D01*
D15*
%TO.C,U5*%
X32043257Y48320300D02*
X35720543Y48320300D01*
X35720543Y53679700D02*
X32043257Y53679700D01*
D16*
G36*
X37945900Y49183900D02*
G01*
X37691900Y49183900D01*
X37691900Y49564900D01*
X37945900Y49564900D01*
X37945900Y49183900D01*
G37*
D13*
%TO.C,C19*%
X-7427836Y69535000D02*
X-7212164Y69535000D01*
X-7427836Y68815000D02*
X-7212164Y68815000D01*
%TO.C,J6*%
X4500000Y113300000D02*
X4500000Y100700000D01*
X4500000Y100700000D02*
X14850000Y100700000D01*
X14850000Y108500000D02*
X15350000Y108200000D01*
X14850000Y103100000D02*
X14850000Y108500000D01*
X14850000Y101650000D02*
X15350000Y101400000D01*
X14850000Y100700000D02*
X14850000Y101650000D01*
X15350000Y113300000D02*
X4500000Y113300000D01*
X15350000Y108200000D02*
X15350000Y113300000D01*
X15350000Y103350000D02*
X14850000Y103100000D01*
X15350000Y103300000D02*
X15350000Y103350000D01*
X15350000Y101400000D02*
X15350000Y103300000D01*
%TO.C,L1*%
X32598100Y61644760D02*
G75*
G02*
X25358100Y61644760I-3620000J0D01*
G01*
X25358100Y61644760D02*
G75*
G02*
X32598100Y61644760I3620000J0D01*
G01*
%TO.C,C18*%
X-34010000Y63538748D02*
X-34010000Y64061252D01*
X-32540000Y63538748D02*
X-32540000Y64061252D01*
%TO.C,C50*%
X-10372164Y15000D02*
X-10587836Y15000D01*
X-10372164Y735000D02*
X-10587836Y735000D01*
%TO.C,C25*%
X42780000Y109370000D02*
X42780000Y101630000D01*
X45520000Y109370000D02*
X42780000Y109370000D01*
X45520000Y109370000D02*
X45520000Y101630000D01*
X45520000Y101630000D02*
X42780000Y101630000D01*
%TO.C,J3*%
X-44002500Y60730000D02*
X-42297500Y60730000D01*
X-44002500Y51570000D02*
X-44002500Y60730000D01*
X-42297500Y51570000D02*
X-44002500Y51570000D01*
X-40287500Y51570000D02*
X-38367500Y51570000D01*
X-38367500Y60730000D02*
X-40287500Y60730000D01*
%TO.C,C23*%
X13637836Y-5485000D02*
X13422164Y-5485000D01*
X13637836Y-4765000D02*
X13422164Y-4765000D01*
D14*
%TO.C,Q10*%
X21100000Y87130000D02*
X21250000Y87130000D01*
X21100000Y83830000D02*
X21100000Y87130000D01*
X21250000Y83830000D02*
X21100000Y83830000D01*
D12*
X21650000Y82680000D02*
X21650000Y82680000D01*
X21850000Y82680000D02*
X21850000Y82680000D01*
D14*
X24250000Y83830000D02*
X24400000Y83830000D01*
X24400000Y87130000D02*
X24250000Y87130000D01*
X24400000Y83830000D02*
X24400000Y87130000D01*
D12*
X21650000Y82680000D02*
G75*
G02*
X21850000Y82680000I100000J0D01*
G01*
X21850000Y82680000D02*
G75*
G02*
X21650000Y82680000I-100000J0D01*
G01*
D13*
%TO.C,R11*%
X43552064Y58350000D02*
X43097936Y58350000D01*
X43552064Y56880000D02*
X43097936Y56880000D01*
%TO.C,R34*%
X56989564Y10965000D02*
X55535436Y10965000D01*
X56989564Y9145000D02*
X55535436Y9145000D01*
%TO.C,C48*%
X-23217164Y5970500D02*
X-23432836Y5970500D01*
X-23217164Y6690500D02*
X-23432836Y6690500D01*
D15*
%TO.C,J5*%
X27612998Y-15495999D02*
X27612998Y-9145999D01*
X27612998Y-9145999D02*
X20246998Y-9145999D01*
X20246998Y-15495999D02*
X27612998Y-15495999D01*
X20246998Y-9145999D02*
X20246998Y-15495999D01*
D14*
%TO.C,Q5*%
X28325000Y13050000D02*
X34545000Y13050000D01*
X34545000Y19550000D02*
X28325000Y19550000D01*
X34545000Y13050000D02*
X34545000Y19550000D01*
D12*
X37825000Y14100000D02*
X37825000Y14100000D01*
X37825000Y13900000D02*
X37825000Y13900000D01*
X37825000Y14100000D02*
G75*
G02*
X37825000Y13900000I0J-100000D01*
G01*
X37825000Y13900000D02*
G75*
G02*
X37825000Y14100000I0J100000D01*
G01*
D13*
%TO.C,R8*%
X28057500Y49878281D02*
X28057500Y49570999D01*
X28817500Y49878281D02*
X28817500Y49570999D01*
%TO.C,R22*%
X9570000Y76831359D02*
X9570000Y77138641D01*
X10330000Y76831359D02*
X10330000Y77138641D01*
%TO.C,C36*%
X48177500Y23457836D02*
X48177500Y23242164D01*
X48897500Y23457836D02*
X48897500Y23242164D01*
%TO.C,C46*%
X39215000Y18668748D02*
X39215000Y20091252D01*
X41035000Y18668748D02*
X41035000Y20091252D01*
%TO.C,C28*%
X19821920Y36347500D02*
X20103080Y36347500D01*
X19821920Y35327500D02*
X20103080Y35327500D01*
%TO.C,C17*%
X-7760000Y65447164D02*
X-7760000Y65662836D01*
X-7040000Y65447164D02*
X-7040000Y65662836D01*
%TO.C,C52*%
X-19400000Y1045500D02*
X-20025000Y1045500D01*
X-19712500Y733000D02*
X-19712500Y1358000D01*
X-20265000Y1034937D02*
X-20265000Y1670500D01*
X-20265000Y1034937D02*
X-21329437Y-29500D01*
X-20265000Y4426063D02*
X-20265000Y3790500D01*
X-20265000Y4426063D02*
X-21329437Y5490500D01*
X-21329437Y-29500D02*
X-25785000Y-29500D01*
X-21329437Y5490500D02*
X-25785000Y5490500D01*
X-25785000Y-29500D02*
X-25785000Y1670500D01*
X-25785000Y5490500D02*
X-25785000Y3790500D01*
D12*
%TO.C,Q8*%
X5273000Y85268000D02*
X5273000Y85698000D01*
D14*
X7750000Y78658000D02*
X7750000Y78658000D01*
X7750000Y78558000D02*
X7750000Y78558000D01*
D12*
X15327000Y85698000D02*
X15327000Y85268000D01*
X15327000Y85268000D02*
X5273000Y85268000D01*
D14*
X7750000Y78658000D02*
G75*
G02*
X7750000Y78558000I0J-50000D01*
G01*
X7750000Y78558000D02*
G75*
G02*
X7750000Y78658000I0J50000D01*
G01*
%TO.C,Q4*%
X27375000Y2860000D02*
X33525000Y2860000D01*
X27375000Y-2460000D02*
X33525000Y-2460000D01*
D12*
X34450000Y-1705000D02*
X34450000Y-1705000D01*
X34650000Y-1705000D02*
X34650000Y-1705000D01*
X34450000Y-1705000D02*
G75*
G02*
X34650000Y-1705000I100000J0D01*
G01*
X34650000Y-1705000D02*
G75*
G02*
X34450000Y-1705000I-100000J0D01*
G01*
D13*
%TO.C,R19*%
X54731359Y14685000D02*
X55038641Y14685000D01*
X54731359Y13925000D02*
X55038641Y13925000D01*
%TO.C,C12*%
X1940000Y61002836D02*
X1940000Y60787164D01*
X2660000Y61002836D02*
X2660000Y60787164D01*
%TO.C,C49*%
X-23237164Y7070500D02*
X-23452836Y7070500D01*
X-23237164Y7790500D02*
X-23452836Y7790500D01*
D16*
%TO.C,G\u002A\u002A\u002A*%
G36*
X-32109525Y93260799D02*
G01*
X-31999310Y93232180D01*
X-31879385Y93190850D01*
X-31754295Y93138184D01*
X-31633541Y93078219D01*
X-31505476Y93001336D01*
X-31402849Y92920621D01*
X-31322322Y92832820D01*
X-31260559Y92734684D01*
X-31242915Y92697650D01*
X-31220586Y92620914D01*
X-31211995Y92530177D01*
X-31217206Y92436765D01*
X-31236280Y92352000D01*
X-31240929Y92339207D01*
X-31257726Y92302949D01*
X-31287422Y92246098D01*
X-31327745Y92172520D01*
X-31376422Y92086081D01*
X-31431182Y91990647D01*
X-31489751Y91890084D01*
X-31549857Y91788257D01*
X-31609229Y91689032D01*
X-31665592Y91596276D01*
X-31716675Y91513853D01*
X-31760206Y91445631D01*
X-31793911Y91395473D01*
X-31803480Y91382210D01*
X-31849548Y91325090D01*
X-31908272Y91259044D01*
X-31970586Y91194030D01*
X-32006471Y91159150D01*
X-32090889Y91079427D01*
X-32156744Y91015853D01*
X-32206869Y90965329D01*
X-32244098Y90924755D01*
X-32271266Y90891030D01*
X-32291207Y90861055D01*
X-32306754Y90831729D01*
X-32307779Y90829561D01*
X-32347440Y90718839D01*
X-32360351Y90608913D01*
X-32347560Y90493334D01*
X-32332657Y90434032D01*
X-32312876Y90371778D01*
X-32290718Y90312737D01*
X-32268686Y90263075D01*
X-32249282Y90228957D01*
X-32235207Y90216544D01*
X-32217300Y90223529D01*
X-32181999Y90242000D01*
X-32136347Y90268233D01*
X-32127747Y90273387D01*
X-31963943Y90358583D01*
X-31792521Y90422382D01*
X-31618514Y90463558D01*
X-31446950Y90480886D01*
X-31299585Y90475166D01*
X-31153830Y90450529D01*
X-31021607Y90409205D01*
X-30893596Y90347721D01*
X-30796893Y90287733D01*
X-30760246Y90260513D01*
X-30714694Y90222939D01*
X-30664597Y90179100D01*
X-30614320Y90133081D01*
X-30568222Y90088969D01*
X-30530668Y90050852D01*
X-30506019Y90022816D01*
X-30498636Y90008948D01*
X-30498923Y90008573D01*
X-30513613Y90011214D01*
X-30550484Y90021486D01*
X-30604428Y90037871D01*
X-30670337Y90058854D01*
X-30690935Y90065575D01*
X-30848226Y90113005D01*
X-30988219Y90145716D01*
X-31117640Y90164839D01*
X-31243216Y90171508D01*
X-31312842Y90170287D01*
X-31400053Y90163274D01*
X-31483737Y90150285D01*
X-31557557Y90132816D01*
X-31615176Y90112362D01*
X-31649938Y90090743D01*
X-31641394Y90086088D01*
X-31609629Y90082320D01*
X-31560202Y90079929D01*
X-31521259Y90079348D01*
X-31448830Y90077815D01*
X-31394750Y90072634D01*
X-31348650Y90062050D01*
X-31300158Y90044306D01*
X-31290526Y90040281D01*
X-31219379Y90005201D01*
X-31135897Y89956314D01*
X-31048864Y89899364D01*
X-30967065Y89840099D01*
X-30899604Y89784554D01*
X-30834844Y89726181D01*
X-30892408Y89749745D01*
X-31092388Y89822011D01*
X-31279880Y89870136D01*
X-31454366Y89894150D01*
X-31615329Y89894084D01*
X-31762252Y89869971D01*
X-31894620Y89821841D01*
X-32011913Y89749726D01*
X-32092571Y89676884D01*
X-32166992Y89586442D01*
X-32221631Y89494713D01*
X-32254718Y89405752D01*
X-32264483Y89323610D01*
X-32261009Y89291061D01*
X-32234580Y89224336D01*
X-32185078Y89168127D01*
X-32117272Y89125652D01*
X-32035930Y89100130D01*
X-31969165Y89094051D01*
X-31925230Y89097542D01*
X-31908557Y89108549D01*
X-31918422Y89127878D01*
X-31929504Y89138012D01*
X-31966195Y89185487D01*
X-31988875Y89250472D01*
X-31996650Y89324856D01*
X-31988623Y89400529D01*
X-31965688Y89465952D01*
X-31917072Y89530527D01*
X-31847154Y89578622D01*
X-31758895Y89609237D01*
X-31655256Y89621376D01*
X-31539196Y89614042D01*
X-31530172Y89612694D01*
X-31418053Y89586679D01*
X-31317180Y89543509D01*
X-31221150Y89479699D01*
X-31123560Y89391764D01*
X-31122663Y89390860D01*
X-31007536Y89274780D01*
X-31115975Y89264520D01*
X-31253667Y89239541D01*
X-31373123Y89192303D01*
X-31474526Y89122664D01*
X-31558058Y89030483D01*
X-31623900Y88915619D01*
X-31650325Y88849405D01*
X-31662839Y88810756D01*
X-31671725Y88773619D01*
X-31677579Y88731947D01*
X-31680995Y88679691D01*
X-31682569Y88610804D01*
X-31682895Y88519238D01*
X-31682894Y88518414D01*
X-31680862Y88399452D01*
X-31674194Y88293254D01*
X-31661655Y88191983D01*
X-31642009Y88087803D01*
X-31614022Y87972881D01*
X-31576457Y87839379D01*
X-31575122Y87834844D01*
X-31532704Y87690935D01*
X-31590963Y87639619D01*
X-31683539Y87569444D01*
X-31793635Y87504467D01*
X-31895762Y87457059D01*
X-31975301Y87433400D01*
X-32068905Y87418696D01*
X-32165768Y87413653D01*
X-32255082Y87418977D01*
X-32309915Y87429994D01*
X-32399858Y87464163D01*
X-32492301Y87512784D01*
X-32527842Y87535520D01*
X-32543093Y87546556D01*
X-32547775Y87553905D01*
X-32538135Y87558315D01*
X-32510424Y87560537D01*
X-32460892Y87561321D01*
X-32398323Y87561417D01*
X-32295036Y87564735D01*
X-32213109Y87576381D01*
X-32145709Y87598889D01*
X-32086001Y87634797D01*
X-32027154Y87686639D01*
X-32008139Y87706213D01*
X-31973530Y87747391D01*
X-31939849Y87795113D01*
X-31910747Y87843051D01*
X-31889873Y87884879D01*
X-31880879Y87914271D01*
X-31882811Y87923416D01*
X-31898032Y87921667D01*
X-31929884Y87910911D01*
X-31944335Y87905065D01*
X-31995741Y87890709D01*
X-32061785Y87882389D01*
X-32096371Y87881173D01*
X-32158315Y87883753D01*
X-32204888Y87893817D01*
X-32249152Y87914402D01*
X-32255819Y87918244D01*
X-32308582Y87951241D01*
X-32335978Y87974612D01*
X-32338897Y87990511D01*
X-32318230Y88001096D01*
X-32292189Y88006205D01*
X-32206461Y88029034D01*
X-32123508Y88068982D01*
X-32049500Y88121508D01*
X-31990605Y88182070D01*
X-31952993Y88246126D01*
X-31948479Y88259251D01*
X-31940357Y88298456D01*
X-31942868Y88337060D01*
X-31956934Y88388044D01*
X-31957814Y88390718D01*
X-32012697Y88538520D01*
X-32074809Y88673593D01*
X-32142232Y88793029D01*
X-32213047Y88893923D01*
X-32285335Y88973366D01*
X-32357178Y89028452D01*
X-32389472Y89044780D01*
X-32468218Y89063480D01*
X-32548006Y89053991D01*
X-32629270Y89016163D01*
X-32712448Y88949848D01*
X-32735443Y88926881D01*
X-32772333Y88887170D01*
X-32799841Y88855051D01*
X-32813083Y88836294D01*
X-32813598Y88834491D01*
X-32801343Y88831968D01*
X-32770000Y88837613D01*
X-32745241Y88844479D01*
X-32664087Y88858695D01*
X-32593137Y88849329D01*
X-32551524Y88828750D01*
X-32532078Y88813976D01*
X-32533725Y88807685D01*
X-32559823Y88806255D01*
X-32572406Y88806233D01*
X-32660150Y88792833D01*
X-32748038Y88754839D01*
X-32829151Y88695561D01*
X-32853255Y88671890D01*
X-32897349Y88621370D01*
X-32934745Y88571358D01*
X-32961041Y88528332D01*
X-32971836Y88498772D01*
X-32971898Y88497210D01*
X-32961651Y88498156D01*
X-32936932Y88511881D01*
X-32936246Y88512329D01*
X-32864962Y88543446D01*
X-32786220Y88552337D01*
X-32734448Y88544613D01*
X-32676884Y88528761D01*
X-32748839Y88511777D01*
X-32829946Y88486594D01*
X-32900238Y88449563D01*
X-32970543Y88394640D01*
X-32989043Y88377731D01*
X-33040672Y88321935D01*
X-33093176Y88252549D01*
X-33141104Y88178026D01*
X-33179006Y88106818D01*
X-33201002Y88049037D01*
X-33220333Y88001119D01*
X-33247980Y87958910D01*
X-33253571Y87952847D01*
X-33275611Y87924461D01*
X-33278899Y87897512D01*
X-33261755Y87866745D01*
X-33222497Y87826903D01*
X-33209635Y87815440D01*
X-33156562Y87776941D01*
X-33103203Y87758841D01*
X-33038046Y87757708D01*
X-33021410Y87759347D01*
X-32983202Y87762643D01*
X-32960365Y87762662D01*
X-32957507Y87761492D01*
X-32968880Y87752256D01*
X-32996965Y87735893D01*
X-33004278Y87732012D01*
X-33057805Y87715290D01*
X-33129940Y87708262D01*
X-33212251Y87710765D01*
X-33296305Y87722637D01*
X-33359378Y87738849D01*
X-33451844Y87768637D01*
X-33499954Y87726396D01*
X-33538274Y87697782D01*
X-33574971Y87678109D01*
X-33583777Y87675192D01*
X-33610025Y87665365D01*
X-33616760Y87650458D01*
X-33603484Y87625342D01*
X-33575647Y87591633D01*
X-33514286Y87539332D01*
X-33439610Y87508834D01*
X-33348300Y87499056D01*
X-33299025Y87501281D01*
X-33241783Y87506895D01*
X-33191530Y87513232D01*
X-33159095Y87518926D01*
X-33158980Y87518954D01*
X-33123003Y87527890D01*
X-33158943Y87498733D01*
X-33225828Y87460537D01*
X-33312541Y87435989D01*
X-33412829Y87426560D01*
X-33460683Y87427640D01*
X-33567964Y87444052D01*
X-33676119Y87481766D01*
X-33787997Y87542221D01*
X-33906449Y87626858D01*
X-33984674Y87692315D01*
X-34032007Y87729632D01*
X-34089093Y87768848D01*
X-34123173Y87789650D01*
X-34192069Y87839604D01*
X-34232777Y87894833D01*
X-34245319Y87955565D01*
X-34229718Y88022027D01*
X-34185997Y88094446D01*
X-34157264Y88128917D01*
X-34119883Y88168436D01*
X-34086680Y88199983D01*
X-34065706Y88216152D01*
X-34053152Y88220510D01*
X-34050760Y88211791D01*
X-34059112Y88185314D01*
X-34074253Y88147396D01*
X-34100115Y88072833D01*
X-34107364Y88019386D01*
X-34095899Y87986133D01*
X-34065618Y87972151D01*
X-34054858Y87971558D01*
X-34032072Y87978105D01*
X-33999532Y87999208D01*
X-33954434Y88037064D01*
X-33893971Y88093868D01*
X-33875532Y88111870D01*
X-33786974Y88201249D01*
X-33715933Y88279010D01*
X-33657297Y88351324D01*
X-33605957Y88424362D01*
X-33572481Y88477796D01*
X-33523323Y88559501D01*
X-33551356Y88664878D01*
X-33565920Y88731941D01*
X-33574780Y88805843D01*
X-33578779Y88895217D01*
X-33578961Y88918011D01*
X-33274108Y88918011D01*
X-33217193Y88969430D01*
X-33171749Y89006082D01*
X-33123187Y89038834D01*
X-33104993Y89049054D01*
X-33055003Y89070212D01*
X-33003604Y89085751D01*
X-32996023Y89087329D01*
X-32958549Y89100619D01*
X-32930570Y89121329D01*
X-32918690Y89143243D01*
X-32923289Y89155773D01*
X-32928944Y89173089D01*
X-32936126Y89210839D01*
X-32943259Y89260694D01*
X-32948392Y89364252D01*
X-32941649Y89481160D01*
X-32924346Y89599185D01*
X-32897800Y89706097D01*
X-32894108Y89717443D01*
X-32859459Y89820793D01*
X-32894790Y89777621D01*
X-32972437Y89674541D01*
X-33045922Y89561506D01*
X-33112972Y89443334D01*
X-33171313Y89324841D01*
X-33218670Y89210847D01*
X-33252770Y89106170D01*
X-33271339Y89015627D01*
X-33274108Y88973941D01*
X-33274108Y88918011D01*
X-33578961Y88918011D01*
X-33579218Y88950142D01*
X-33577879Y88973941D01*
X-33569447Y89123797D01*
X-33539073Y89286157D01*
X-33485986Y89446596D01*
X-33447660Y89534608D01*
X-33423345Y89589123D01*
X-33405848Y89633527D01*
X-33397437Y89661752D01*
X-33397658Y89668360D01*
X-33412196Y89664518D01*
X-33438175Y89642655D01*
X-33470751Y89608483D01*
X-33505083Y89567714D01*
X-33536329Y89526059D01*
X-33559645Y89489231D01*
X-33569759Y89465347D01*
X-33580200Y89417847D01*
X-33594137Y89453825D01*
X-33599714Y89486009D01*
X-33601997Y89540806D01*
X-33601274Y89612270D01*
X-33597834Y89694454D01*
X-33591965Y89781414D01*
X-33583955Y89867204D01*
X-33574093Y89945878D01*
X-33568592Y89980493D01*
X-33525251Y90174379D01*
X-33465450Y90346845D01*
X-33387464Y90501192D01*
X-33289573Y90640722D01*
X-33170052Y90768737D01*
X-33145614Y90791258D01*
X-33016455Y90922575D01*
X-32910025Y91062106D01*
X-32827112Y91207550D01*
X-32768505Y91356602D01*
X-32734995Y91506960D01*
X-32727371Y91656322D01*
X-32746421Y91802385D01*
X-32770425Y91885893D01*
X-32795451Y91962388D01*
X-32808893Y92018476D01*
X-32811274Y92059864D01*
X-32803115Y92092257D01*
X-32791196Y92112945D01*
X-32758952Y92139157D01*
X-32719904Y92141664D01*
X-32678705Y92123166D01*
X-32640009Y92086361D01*
X-32608469Y92033948D01*
X-32595932Y91999696D01*
X-32587694Y91954191D01*
X-32581725Y91883903D01*
X-32578280Y91792761D01*
X-32577503Y91713201D01*
X-32579295Y91601729D01*
X-32585753Y91505281D01*
X-32598662Y91419068D01*
X-32619806Y91338301D01*
X-32650969Y91258191D01*
X-32693935Y91173949D01*
X-32750490Y91080786D01*
X-32822418Y90973913D01*
X-32886963Y90882664D01*
X-32977774Y90752645D01*
X-33050023Y90641037D01*
X-33104720Y90545142D01*
X-33142871Y90462265D01*
X-33165485Y90389711D01*
X-33173568Y90324782D01*
X-33168130Y90264782D01*
X-33150177Y90207017D01*
X-33144422Y90193846D01*
X-33111926Y90123003D01*
X-33092729Y90212869D01*
X-33051510Y90351516D01*
X-32985082Y90501341D01*
X-32894256Y90661221D01*
X-32779842Y90830033D01*
X-32642652Y91006654D01*
X-32483497Y91189961D01*
X-32303188Y91378830D01*
X-32129108Y91547390D01*
X-31990972Y91677711D01*
X-31872959Y91791574D01*
X-31773229Y91891128D01*
X-31689945Y91978521D01*
X-31621268Y92055900D01*
X-31565360Y92125415D01*
X-31520382Y92189211D01*
X-31484497Y92249439D01*
X-31455866Y92308244D01*
X-31436659Y92356509D01*
X-31408265Y92468437D01*
X-31407134Y92574077D01*
X-31420712Y92639747D01*
X-31446584Y92692413D01*
X-31491884Y92751001D01*
X-31550092Y92808985D01*
X-31614686Y92859839D01*
X-31676714Y92895923D01*
X-31719763Y92914410D01*
X-31762345Y92928652D01*
X-31809876Y92939559D01*
X-31867769Y92948041D01*
X-31941437Y92955007D01*
X-32036294Y92961368D01*
X-32081509Y92963954D01*
X-32162769Y92968934D01*
X-32221548Y92974188D01*
X-32264132Y92980910D01*
X-32296804Y92990289D01*
X-32325852Y93003520D01*
X-32344063Y93013748D01*
X-32405285Y93060428D01*
X-32439311Y93110078D01*
X-32446978Y93159144D01*
X-32429124Y93204073D01*
X-32386587Y93241312D01*
X-32320202Y93267309D01*
X-32282643Y93274410D01*
X-32205485Y93275334D01*
X-32109525Y93260799D01*
G37*
G36*
X-31082904Y91820650D02*
G01*
X-31069517Y91650510D01*
X-31045794Y91506950D01*
X-31011593Y91389632D01*
X-30966768Y91298220D01*
X-30911176Y91232377D01*
X-30844673Y91191765D01*
X-30809934Y91181368D01*
X-30723179Y91174028D01*
X-30636797Y91186579D01*
X-30561059Y91217147D01*
X-30540609Y91230530D01*
X-30474482Y91292778D01*
X-30424201Y91371410D01*
X-30388941Y91468762D01*
X-30367880Y91587171D01*
X-30360196Y91728972D01*
X-30360132Y91742727D01*
X-30359944Y91923357D01*
X-30307486Y91859943D01*
X-30201619Y91751172D01*
X-30086710Y91669612D01*
X-29963221Y91615419D01*
X-29831617Y91588750D01*
X-29692360Y91589762D01*
X-29571417Y91611704D01*
X-29439262Y91655677D01*
X-29301625Y91720000D01*
X-29167650Y91800234D01*
X-29131767Y91825140D01*
X-29081819Y91860646D01*
X-29051123Y91880748D01*
X-29035641Y91886953D01*
X-29031334Y91880765D01*
X-29034162Y91863689D01*
X-29034713Y91861308D01*
X-29045518Y91828899D01*
X-29065359Y91780615D01*
X-29090194Y91726222D01*
X-29093426Y91719525D01*
X-29164625Y91605262D01*
X-29258492Y91507605D01*
X-29373762Y91427177D01*
X-29509167Y91364600D01*
X-29663439Y91320497D01*
X-29835312Y91295492D01*
X-29967733Y91289672D01*
X-30036603Y91288612D01*
X-30093687Y91286431D01*
X-30133586Y91283433D01*
X-30150902Y91279921D01*
X-30151217Y91279376D01*
X-30139140Y91264517D01*
X-30106778Y91241354D01*
X-30060120Y91213344D01*
X-30005150Y91183943D01*
X-29947854Y91156608D01*
X-29913451Y91142080D01*
X-29871655Y91126284D01*
X-29835084Y91115326D01*
X-29796952Y91108336D01*
X-29750468Y91104445D01*
X-29688844Y91102782D01*
X-29605292Y91102477D01*
X-29604419Y91102478D01*
X-29519098Y91103027D01*
X-29455052Y91105112D01*
X-29404783Y91109659D01*
X-29360790Y91117596D01*
X-29315576Y91129850D01*
X-29273428Y91143404D01*
X-29101802Y91211645D01*
X-28931141Y91300619D01*
X-28900684Y91318871D01*
X-28837345Y91357656D01*
X-28847190Y91296089D01*
X-28876568Y91195650D01*
X-28930303Y91095727D01*
X-29004313Y91001259D01*
X-29094515Y90917191D01*
X-29196827Y90848462D01*
X-29232009Y90830251D01*
X-29376470Y90773007D01*
X-29539533Y90729803D01*
X-29713894Y90702138D01*
X-29892248Y90691514D01*
X-29907562Y90691445D01*
X-29972272Y90688667D01*
X-30035878Y90681390D01*
X-30083852Y90671380D01*
X-30176569Y90629393D01*
X-30260330Y90564619D01*
X-30329089Y90482905D01*
X-30376799Y90390099D01*
X-30377913Y90387004D01*
X-30393191Y90347993D01*
X-30405509Y90323576D01*
X-30410092Y90319203D01*
X-30422424Y90329668D01*
X-30450600Y90356783D01*
X-30490483Y90396482D01*
X-30537934Y90444702D01*
X-30539830Y90446647D01*
X-30642768Y90541112D01*
X-30747176Y90612312D01*
X-30861231Y90664970D01*
X-30979151Y90700479D01*
X-31119777Y90722807D01*
X-31276259Y90726202D01*
X-31443215Y90711151D01*
X-31615258Y90678142D01*
X-31787002Y90627661D01*
X-31787957Y90627329D01*
X-31921360Y90580850D01*
X-31921360Y90662631D01*
X-31916422Y90725370D01*
X-31899060Y90784752D01*
X-31877665Y90831853D01*
X-31835496Y90902477D01*
X-31782329Y90963646D01*
X-31712439Y91020909D01*
X-31624618Y91077172D01*
X-31517413Y91152256D01*
X-31422235Y91245259D01*
X-31337869Y91358145D01*
X-31263097Y91492879D01*
X-31196703Y91651423D01*
X-31137469Y91835742D01*
X-31123815Y91885410D01*
X-31091309Y92007250D01*
X-31082904Y91820650D01*
G37*
G36*
X-25922911Y85972127D02*
G01*
X-25913022Y85938661D01*
X-25900289Y85886050D01*
X-25885762Y85818898D01*
X-25870495Y85741810D01*
X-25856534Y85665129D01*
X-25819898Y85371922D01*
X-25810906Y85075391D01*
X-25829104Y84778450D01*
X-25874036Y84484009D01*
X-25945250Y84194983D01*
X-26042290Y83914282D01*
X-26164702Y83644821D01*
X-26174710Y83625496D01*
X-26328180Y83362121D01*
X-26503288Y83116920D01*
X-26698589Y82890875D01*
X-26912638Y82684967D01*
X-27143988Y82500180D01*
X-27391195Y82337495D01*
X-27652812Y82197895D01*
X-27927396Y82082363D01*
X-28213499Y81991879D01*
X-28509677Y81927428D01*
X-28715212Y81899065D01*
X-28806390Y81892123D01*
X-28917314Y81887956D01*
X-29039086Y81886543D01*
X-29162807Y81887863D01*
X-29279577Y81891894D01*
X-29380498Y81898616D01*
X-29402217Y81900715D01*
X-29653733Y81938941D01*
X-29911018Y82000610D01*
X-30167085Y82083366D01*
X-30414946Y82184851D01*
X-30647611Y82302708D01*
X-30720888Y82345410D01*
X-30904390Y82466869D01*
X-31089352Y82609149D01*
X-31268213Y82765741D01*
X-31433413Y82930135D01*
X-31542024Y83052506D01*
X-31648181Y83189380D01*
X-31754588Y83344802D01*
X-31855113Y83509258D01*
X-31943625Y83673230D01*
X-31949306Y83684633D01*
X-31985018Y83759492D01*
X-32021137Y83840051D01*
X-32055924Y83921855D01*
X-32087642Y84000450D01*
X-32114553Y84071382D01*
X-32134917Y84130198D01*
X-32146998Y84172444D01*
X-32149057Y84193665D01*
X-32148389Y84194765D01*
X-32139035Y84187946D01*
X-32125292Y84161797D01*
X-32122421Y84154824D01*
X-32097472Y84097366D01*
X-32061824Y84022596D01*
X-32019350Y83938021D01*
X-31973923Y83851150D01*
X-31929416Y83769489D01*
X-31889703Y83700547D01*
X-31878987Y83682957D01*
X-31718423Y83449731D01*
X-31534449Y83228471D01*
X-31330467Y83022263D01*
X-31109882Y82834193D01*
X-30876095Y82667344D01*
X-30632512Y82524802D01*
X-30562361Y82489347D01*
X-30293493Y82370917D01*
X-30026404Y82279592D01*
X-29756732Y82214358D01*
X-29480118Y82174202D01*
X-29192200Y82158108D01*
X-29136337Y82157687D01*
X-28935743Y82161612D01*
X-28754129Y82174418D01*
X-28582683Y82197490D01*
X-28412596Y82232212D01*
X-28235059Y82279970D01*
X-28110865Y82318864D01*
X-27829287Y82426122D01*
X-27560204Y82558885D01*
X-27304925Y82716141D01*
X-27064758Y82896877D01*
X-26841008Y83100081D01*
X-26634983Y83324740D01*
X-26447992Y83569841D01*
X-26395677Y83647395D01*
X-26349749Y83722764D01*
X-26297265Y83817463D01*
X-26241973Y83923943D01*
X-26187620Y84034660D01*
X-26137952Y84142066D01*
X-26096717Y84238617D01*
X-26077845Y84287479D01*
X-26038628Y84405649D01*
X-25999818Y84542158D01*
X-25963985Y84686647D01*
X-25933700Y84828755D01*
X-25911641Y84957377D01*
X-25899386Y85068050D01*
X-25891264Y85196868D01*
X-25887278Y85335912D01*
X-25887432Y85477265D01*
X-25891731Y85613011D01*
X-25900179Y85735232D01*
X-25911176Y85826127D01*
X-25920329Y85888268D01*
X-25926676Y85938998D01*
X-25929517Y85972167D01*
X-25928902Y85981844D01*
X-25922911Y85972127D01*
G37*
G36*
X-34570226Y83368513D02*
G01*
X-34553187Y83334507D01*
X-34528550Y83283338D01*
X-34498500Y83219513D01*
X-34481533Y83182975D01*
X-34444867Y83102224D01*
X-34419074Y83040873D01*
X-34402113Y82992605D01*
X-34391938Y82951099D01*
X-34386507Y82910036D01*
X-34384706Y82883570D01*
X-34382855Y82828345D01*
X-34385876Y82792288D01*
X-34395870Y82765919D01*
X-34414939Y82739758D01*
X-34417165Y82737097D01*
X-34477831Y82686087D01*
X-34551055Y82658000D01*
X-34629905Y82654577D01*
X-34688017Y82669031D01*
X-34705572Y82670860D01*
X-34712443Y82653542D01*
X-34713201Y82633346D01*
X-34726810Y82561617D01*
X-34764658Y82494433D01*
X-34822280Y82438430D01*
X-34860135Y82415126D01*
X-34918419Y82396464D01*
X-34990389Y82388774D01*
X-35062980Y82392408D01*
X-35123129Y82407720D01*
X-35123832Y82408023D01*
X-35166071Y82431691D01*
X-35205754Y82466358D01*
X-35245461Y82515518D01*
X-35287774Y82582667D01*
X-35335273Y82671298D01*
X-35369367Y82740453D01*
X-35403346Y82812663D01*
X-35424703Y82860493D01*
X-35249900Y82860493D01*
X-35238878Y82824336D01*
X-35219667Y82776604D01*
X-35195261Y82724031D01*
X-35168656Y82673356D01*
X-35142846Y82631312D01*
X-35135243Y82620781D01*
X-35088637Y82572382D01*
X-35040409Y82550925D01*
X-34985158Y82554817D01*
X-34951309Y82566560D01*
X-34897802Y82601210D01*
X-34866536Y82648767D01*
X-34860606Y82704364D01*
X-34861206Y82708353D01*
X-34870669Y82741971D01*
X-34889449Y82792782D01*
X-34914234Y82852117D01*
X-34926907Y82880249D01*
X-34984837Y83005654D01*
X-35111654Y82947375D01*
X-35167330Y82921243D01*
X-35213091Y82898745D01*
X-35242597Y82883052D01*
X-35249740Y82878338D01*
X-35249900Y82860493D01*
X-35424703Y82860493D01*
X-35431519Y82875759D01*
X-35452014Y82925273D01*
X-35462958Y82956739D01*
X-35463835Y82965751D01*
X-35449547Y82973360D01*
X-35412916Y82991292D01*
X-35357644Y83017814D01*
X-35287431Y83051193D01*
X-35265518Y83061551D01*
X-34840626Y83061551D01*
X-34833973Y83037146D01*
X-34815922Y82996693D01*
X-34792707Y82949828D01*
X-34751364Y82877148D01*
X-34712274Y82830816D01*
X-34672186Y82808929D01*
X-34627844Y82809584D01*
X-34582968Y82827169D01*
X-34552908Y82852813D01*
X-34540970Y82891126D01*
X-34547235Y82944825D01*
X-34571788Y83016630D01*
X-34590031Y83058190D01*
X-34639552Y83165372D01*
X-34723147Y83127876D01*
X-34769732Y83107079D01*
X-34807021Y83090610D01*
X-34824731Y83082970D01*
X-34837130Y83075096D01*
X-34840626Y83061551D01*
X-35265518Y83061551D01*
X-35205977Y83089696D01*
X-35116983Y83131589D01*
X-35024150Y83175140D01*
X-34931179Y83218615D01*
X-34841770Y83260281D01*
X-34759623Y83298405D01*
X-34688440Y83331255D01*
X-34631921Y83357097D01*
X-34593767Y83374197D01*
X-34577679Y83380823D01*
X-34577482Y83380850D01*
X-34570226Y83368513D01*
G37*
G36*
X-22552783Y88280397D02*
G01*
X-22534513Y88245919D01*
X-22511035Y88192806D01*
X-22484365Y88125369D01*
X-22477985Y88108272D01*
X-22449950Y88030978D01*
X-22430869Y87973282D01*
X-22419183Y87927989D01*
X-22413335Y87887904D01*
X-22411766Y87845831D01*
X-22412540Y87806063D01*
X-22416101Y87742330D01*
X-22423388Y87698296D01*
X-22436510Y87664919D01*
X-22450693Y87642499D01*
X-22499323Y87595068D01*
X-22566575Y87556901D01*
X-22642689Y87532494D01*
X-22703966Y87525896D01*
X-22757214Y87531505D01*
X-22813555Y87545899D01*
X-22863552Y87565786D01*
X-22897769Y87587870D01*
X-22904513Y87595896D01*
X-22921733Y87610827D01*
X-22926465Y87611785D01*
X-22937014Y87599815D01*
X-22958897Y87566567D01*
X-22989679Y87516035D01*
X-23026918Y87452215D01*
X-23064827Y87385128D01*
X-23106548Y87310490D01*
X-23144409Y87243277D01*
X-23175801Y87188077D01*
X-23198117Y87149479D01*
X-23208110Y87132990D01*
X-23217843Y87123496D01*
X-23227795Y87129003D01*
X-23240637Y87153373D01*
X-23259040Y87200470D01*
X-23263888Y87213683D01*
X-23302611Y87319856D01*
X-23172774Y87543558D01*
X-23042938Y87767261D01*
X-23066216Y87837030D01*
X-23080035Y87877459D01*
X-23089935Y87904603D01*
X-23092703Y87910892D01*
X-23106607Y87907773D01*
X-23142489Y87896371D01*
X-23195326Y87878367D01*
X-23260094Y87855440D01*
X-23278987Y87848619D01*
X-23346256Y87824678D01*
X-23403109Y87805288D01*
X-23444473Y87792116D01*
X-23465275Y87786827D01*
X-23466703Y87786962D01*
X-23473930Y87801914D01*
X-23487756Y87835618D01*
X-23500305Y87867995D01*
X-23529265Y87944317D01*
X-23503733Y87954202D01*
X-22935301Y87954202D01*
X-22933657Y87926608D01*
X-22919747Y87883399D01*
X-22894557Y87822305D01*
X-22853717Y87755430D01*
X-22800674Y87714244D01*
X-22737121Y87699458D01*
X-22664750Y87711782D01*
X-22647099Y87718499D01*
X-22597213Y87751081D01*
X-22571604Y87798402D01*
X-22567044Y87837496D01*
X-22571284Y87874229D01*
X-22582561Y87922075D01*
X-22598268Y87973405D01*
X-22615797Y88020593D01*
X-22632541Y88056012D01*
X-22645891Y88072034D01*
X-22647314Y88072295D01*
X-22668861Y88067347D01*
X-22711133Y88053907D01*
X-22768093Y88034076D01*
X-22833703Y88009957D01*
X-22901928Y87983653D01*
X-22902858Y87983285D01*
X-22924945Y87971366D01*
X-22935301Y87954202D01*
X-23503733Y87954202D01*
X-23490780Y87959217D01*
X-23459896Y87970802D01*
X-23408151Y87989794D01*
X-23339411Y88014806D01*
X-23257538Y88044451D01*
X-23166398Y88077342D01*
X-23069855Y88112091D01*
X-22971773Y88147311D01*
X-22876017Y88181617D01*
X-22786451Y88213619D01*
X-22706939Y88241933D01*
X-22641346Y88265170D01*
X-22593536Y88281943D01*
X-22567374Y88290865D01*
X-22563830Y88291927D01*
X-22552783Y88280397D01*
G37*
G36*
X-32744168Y88082154D02*
G01*
X-32740080Y88067497D01*
X-32732971Y88027308D01*
X-32726128Y87963336D01*
X-32719760Y87880580D01*
X-32714076Y87784039D01*
X-32709287Y87678712D01*
X-32705602Y87569597D01*
X-32703230Y87461694D01*
X-32702381Y87360001D01*
X-32703264Y87269517D01*
X-32704687Y87223309D01*
X-32718156Y86994026D01*
X-32739050Y86789102D01*
X-32768170Y86604887D01*
X-32806317Y86437730D01*
X-32854294Y86283982D01*
X-32912901Y86139991D01*
X-32965990Y86033073D01*
X-33037197Y85878242D01*
X-33081957Y85726707D01*
X-33100491Y85574881D01*
X-33093023Y85419180D01*
X-33059774Y85256020D01*
X-33021676Y85136544D01*
X-32984816Y85041282D01*
X-32945792Y84956640D01*
X-32899328Y84872328D01*
X-32840145Y84778053D01*
X-32829821Y84762380D01*
X-32794446Y84708867D01*
X-32764302Y84663137D01*
X-32743423Y84631315D01*
X-32736754Y84621028D01*
X-32736302Y84611656D01*
X-32755361Y84617902D01*
X-32790595Y84637884D01*
X-32838666Y84669717D01*
X-32893607Y84709540D01*
X-33015432Y84818715D01*
X-33121438Y84950002D01*
X-33210492Y85100759D01*
X-33281462Y85268345D01*
X-33333213Y85450117D01*
X-33364614Y85643434D01*
X-33374559Y85830907D01*
X-33375545Y85897889D01*
X-33378612Y85940601D01*
X-33384418Y85963519D01*
X-33393621Y85971121D01*
X-33395175Y85971218D01*
X-33418450Y85960460D01*
X-33454573Y85931259D01*
X-33499164Y85888227D01*
X-33547840Y85835978D01*
X-33596222Y85779122D01*
X-33639926Y85722273D01*
X-33661720Y85690639D01*
X-33740750Y85552402D01*
X-33805610Y85400420D01*
X-33857087Y85231839D01*
X-33895967Y85043802D01*
X-33923037Y84833454D01*
X-33933333Y84704816D01*
X-33944071Y84539320D01*
X-33974191Y84596884D01*
X-34007069Y84666328D01*
X-34043571Y84754161D01*
X-34080123Y84850904D01*
X-34113148Y84947079D01*
X-34139071Y85033208D01*
X-34139775Y85035808D01*
X-34152109Y85085175D01*
X-34160989Y85131732D01*
X-34166963Y85181782D01*
X-34170579Y85241626D01*
X-34172385Y85317569D01*
X-34172929Y85415911D01*
X-34172930Y85417167D01*
X-34172778Y85510883D01*
X-34171740Y85581656D01*
X-34169192Y85635322D01*
X-34164509Y85677719D01*
X-34157068Y85714684D01*
X-34146245Y85752054D01*
X-34132930Y85791332D01*
X-34096698Y85883666D01*
X-34053814Y85968856D01*
X-34000607Y86052404D01*
X-33933404Y86139809D01*
X-33848535Y86236572D01*
X-33803790Y86284435D01*
X-33605449Y86505671D01*
X-33422175Y86734818D01*
X-33255986Y86968692D01*
X-33108899Y87204107D01*
X-32982930Y87437878D01*
X-32880096Y87666820D01*
X-32815662Y87844921D01*
X-32795212Y87911916D01*
X-32777362Y87975977D01*
X-32764722Y88027484D01*
X-32761027Y88046394D01*
X-32754556Y88083345D01*
X-32749789Y88094407D01*
X-32744168Y88082154D01*
G37*
G36*
X-32765519Y80954488D02*
G01*
X-32728276Y80930983D01*
X-32679073Y80896485D01*
X-32622894Y80854818D01*
X-32564722Y80809808D01*
X-32509540Y80765281D01*
X-32462332Y80725062D01*
X-32428080Y80692977D01*
X-32415651Y80678999D01*
X-32372116Y80600617D01*
X-32356570Y80519258D01*
X-32368884Y80438072D01*
X-32408926Y80360211D01*
X-32430040Y80333674D01*
X-32497256Y80276720D01*
X-32577133Y80240712D01*
X-32651700Y80229551D01*
X-32690047Y80227992D01*
X-32707624Y80219716D01*
X-32712441Y80198530D01*
X-32712575Y80182465D01*
X-32710936Y80150812D01*
X-32706657Y80097559D01*
X-32700356Y80029705D01*
X-32692652Y79954246D01*
X-32691275Y79941417D01*
X-32681427Y79848337D01*
X-32674874Y79780156D01*
X-32671464Y79733202D01*
X-32671043Y79703797D01*
X-32673458Y79688269D01*
X-32678555Y79682943D01*
X-32680482Y79682780D01*
X-32697278Y79691066D01*
X-32728170Y79711762D01*
X-32748839Y79727010D01*
X-32785828Y79754549D01*
X-32815004Y79775176D01*
X-32823881Y79780862D01*
X-32832962Y79799701D01*
X-32842206Y79843782D01*
X-32850985Y79909576D01*
X-32856231Y79963289D01*
X-32865127Y80066599D01*
X-32872282Y80145208D01*
X-32878669Y80203066D01*
X-32885262Y80244126D01*
X-32893033Y80272340D01*
X-32902955Y80291659D01*
X-32916003Y80306036D01*
X-32933148Y80319421D01*
X-32946283Y80328971D01*
X-33005076Y80372208D01*
X-33111263Y80221571D01*
X-33151711Y80165002D01*
X-33186314Y80118124D01*
X-33211719Y80085374D01*
X-33224570Y80071188D01*
X-33225198Y80070935D01*
X-33240414Y80078438D01*
X-33271263Y80097728D01*
X-33296995Y80115003D01*
X-33335453Y80145743D01*
X-33351469Y80168829D01*
X-33350541Y80176164D01*
X-33332030Y80204408D01*
X-33300700Y80250121D01*
X-33258923Y80310000D01*
X-33209069Y80380742D01*
X-33153506Y80459044D01*
X-33127991Y80494808D01*
X-32914334Y80494808D01*
X-32903158Y80484112D01*
X-32873662Y80462502D01*
X-32831897Y80434380D01*
X-32825758Y80430395D01*
X-32757113Y80391629D01*
X-32701448Y80374614D01*
X-32653264Y80379031D01*
X-32607061Y80404565D01*
X-32592050Y80416921D01*
X-32547961Y80468023D01*
X-32531395Y80520218D01*
X-32542568Y80574035D01*
X-32581695Y80630002D01*
X-32648989Y80688648D01*
X-32722264Y80737252D01*
X-32738239Y80730697D01*
X-32766865Y80701771D01*
X-32805996Y80652790D01*
X-32826598Y80624630D01*
X-32862791Y80573389D01*
X-32891724Y80531206D01*
X-32909888Y80503271D01*
X-32914334Y80494808D01*
X-33127991Y80494808D01*
X-33094607Y80541603D01*
X-33034740Y80625115D01*
X-32976276Y80706278D01*
X-32921585Y80781788D01*
X-32873037Y80848343D01*
X-32833003Y80902640D01*
X-32803851Y80941375D01*
X-32787954Y80961246D01*
X-32785819Y80963173D01*
X-32765519Y80954488D01*
G37*
G36*
X-26056563Y91980252D02*
G01*
X-26021845Y91964033D01*
X-25970532Y91938236D01*
X-25906854Y91905154D01*
X-25835041Y91867079D01*
X-25759323Y91826305D01*
X-25683930Y91785124D01*
X-25613093Y91745831D01*
X-25551040Y91710717D01*
X-25502003Y91682075D01*
X-25470212Y91662200D01*
X-25459830Y91653598D01*
X-25466655Y91627496D01*
X-25483416Y91592943D01*
X-25504548Y91559045D01*
X-25524481Y91534906D01*
X-25536139Y91528807D01*
X-25554069Y91536780D01*
X-25592788Y91555994D01*
X-25647710Y91584109D01*
X-25714249Y91618785D01*
X-25767815Y91647051D01*
X-25846366Y91688503D01*
X-25903489Y91717742D01*
X-25943093Y91736207D01*
X-25969090Y91745335D01*
X-25985391Y91746561D01*
X-25995905Y91741323D01*
X-26002815Y91733397D01*
X-26021773Y91704299D01*
X-26044004Y91664901D01*
X-26065479Y91623177D01*
X-26082169Y91587105D01*
X-26090042Y91564661D01*
X-26089789Y91561253D01*
X-26076025Y91553120D01*
X-26041025Y91533745D01*
X-25988961Y91505402D01*
X-25924010Y91470365D01*
X-25860342Y91436248D01*
X-25636071Y91316421D01*
X-25670550Y91248579D01*
X-25691684Y91210621D01*
X-25708862Y91186133D01*
X-25715545Y91181031D01*
X-25731125Y91187587D01*
X-25767657Y91205559D01*
X-25820754Y91232713D01*
X-25886029Y91266813D01*
X-25941386Y91296158D01*
X-26013012Y91334039D01*
X-26075817Y91366655D01*
X-26125414Y91391774D01*
X-26157418Y91407169D01*
X-26167290Y91410992D01*
X-26177538Y91399311D01*
X-26197508Y91368524D01*
X-26223556Y91325012D01*
X-26252035Y91275159D01*
X-26279301Y91225346D01*
X-26301707Y91181956D01*
X-26315608Y91151372D01*
X-26315663Y91151226D01*
X-26312728Y91139581D01*
X-26294911Y91122718D01*
X-26259660Y91098971D01*
X-26204419Y91066673D01*
X-26126636Y91024158D01*
X-26095050Y91007319D01*
X-25865936Y90885727D01*
X-25900576Y90817368D01*
X-25921736Y90779235D01*
X-25938962Y90754550D01*
X-25945767Y90749298D01*
X-25960963Y90755878D01*
X-25997796Y90774168D01*
X-26052552Y90802254D01*
X-26121514Y90838219D01*
X-26200969Y90880148D01*
X-26247359Y90904824D01*
X-26330993Y90949614D01*
X-26406035Y90990145D01*
X-26468776Y91024386D01*
X-26515507Y91050307D01*
X-26542518Y91065874D01*
X-26547597Y91069259D01*
X-26542560Y91082806D01*
X-26525802Y91118257D01*
X-26499143Y91172120D01*
X-26464404Y91240902D01*
X-26423406Y91321110D01*
X-26377969Y91409252D01*
X-26329914Y91501835D01*
X-26281062Y91595365D01*
X-26233233Y91686352D01*
X-26188248Y91771300D01*
X-26147927Y91846719D01*
X-26114092Y91909115D01*
X-26088563Y91954996D01*
X-26073160Y91980869D01*
X-26070455Y91984600D01*
X-26056563Y91980252D01*
G37*
G36*
X-27489097Y92491978D02*
G01*
X-27365858Y92470852D01*
X-27244217Y92429668D01*
X-27150765Y92382030D01*
X-27093266Y92347033D01*
X-27056693Y92320950D01*
X-27037394Y92297725D01*
X-27031711Y92271301D01*
X-27035992Y92235622D01*
X-27042727Y92202994D01*
X-27054259Y92155914D01*
X-27065610Y92121312D01*
X-27073193Y92107977D01*
X-27088454Y92113670D01*
X-27118781Y92135216D01*
X-27158544Y92168465D01*
X-27173350Y92181825D01*
X-27272083Y92259351D01*
X-27371220Y92311967D01*
X-27468489Y92339385D01*
X-27561616Y92341317D01*
X-27648327Y92317472D01*
X-27726348Y92267563D01*
X-27741238Y92253917D01*
X-27803315Y92174142D01*
X-27845627Y92076268D01*
X-27866545Y91964547D01*
X-27868524Y91921870D01*
X-27857762Y91820709D01*
X-27823534Y91735863D01*
X-27766475Y91667913D01*
X-27687220Y91617445D01*
X-27586406Y91585040D01*
X-27487537Y91572324D01*
X-27378189Y91565847D01*
X-27354061Y91661902D01*
X-27342907Y91711569D01*
X-27336716Y91750026D01*
X-27336803Y91769070D01*
X-27336866Y91769178D01*
X-27353201Y91776985D01*
X-27390919Y91788263D01*
X-27443139Y91801054D01*
X-27467518Y91806360D01*
X-27531884Y91821471D01*
X-27570027Y91834564D01*
X-27584357Y91846559D01*
X-27584110Y91850890D01*
X-27576770Y91876938D01*
X-27568271Y91915999D01*
X-27567315Y91921007D01*
X-27557898Y91956968D01*
X-27547280Y91978575D01*
X-27545636Y91979977D01*
X-27528701Y91979010D01*
X-27490144Y91972073D01*
X-27436145Y91960650D01*
X-27372884Y91946225D01*
X-27306539Y91930282D01*
X-27243288Y91914306D01*
X-27189312Y91899779D01*
X-27150789Y91888187D01*
X-27133988Y91881108D01*
X-27134104Y91864823D01*
X-27140269Y91826685D01*
X-27151085Y91772644D01*
X-27165152Y91708648D01*
X-27181071Y91640645D01*
X-27197443Y91574584D01*
X-27212869Y91516415D01*
X-27225949Y91472085D01*
X-27235284Y91447544D01*
X-27236386Y91445784D01*
X-27257508Y91435857D01*
X-27300594Y91427594D01*
X-27358857Y91421355D01*
X-27425509Y91417500D01*
X-27493762Y91416392D01*
X-27556828Y91418389D01*
X-27607919Y91423854D01*
X-27616912Y91425564D01*
X-27687296Y91446618D01*
X-27765308Y91479504D01*
X-27839690Y91518778D01*
X-27899185Y91558999D01*
X-27907742Y91566180D01*
X-27976667Y91645481D01*
X-28023010Y91741713D01*
X-28045844Y91852847D01*
X-28047228Y91871426D01*
X-28043713Y92001033D01*
X-28019109Y92122486D01*
X-27975339Y92232316D01*
X-27914326Y92327056D01*
X-27837994Y92403237D01*
X-27748267Y92457390D01*
X-27715181Y92470124D01*
X-27607637Y92492063D01*
X-27489097Y92491978D01*
G37*
G36*
X-31352446Y80133246D02*
G01*
X-31297602Y80113553D01*
X-31264490Y80097378D01*
X-31247050Y80080758D01*
X-31239222Y80059733D01*
X-31239104Y80059153D01*
X-31235264Y80036471D01*
X-31228092Y79990926D01*
X-31218299Y79927276D01*
X-31206595Y79850277D01*
X-31193691Y79764687D01*
X-31180299Y79675263D01*
X-31167127Y79586764D01*
X-31154889Y79503945D01*
X-31144294Y79431566D01*
X-31136052Y79374382D01*
X-31130876Y79337152D01*
X-31129421Y79324992D01*
X-31126314Y79321481D01*
X-31117641Y79336356D01*
X-31102712Y79371350D01*
X-31080838Y79428194D01*
X-31051330Y79508622D01*
X-31013498Y79614365D01*
X-31007241Y79632012D01*
X-30976967Y79717382D01*
X-30949340Y79795096D01*
X-30926034Y79860460D01*
X-30908725Y79908777D01*
X-30899087Y79935350D01*
X-30898413Y79937153D01*
X-30889953Y79955392D01*
X-30877557Y79961808D01*
X-30852993Y79957286D01*
X-30817465Y79945862D01*
X-30776909Y79931815D01*
X-30749356Y79921300D01*
X-30742893Y79918137D01*
X-30745975Y79903934D01*
X-30757490Y79866499D01*
X-30776113Y79809612D01*
X-30800518Y79737050D01*
X-30829381Y79652592D01*
X-30861375Y79560017D01*
X-30895175Y79463104D01*
X-30929456Y79365630D01*
X-30962893Y79271375D01*
X-30994159Y79184117D01*
X-31021931Y79107634D01*
X-31044882Y79045705D01*
X-31061687Y79002110D01*
X-31071020Y78980625D01*
X-31072295Y78979031D01*
X-31088623Y78984447D01*
X-31123515Y78997025D01*
X-31158640Y79010026D01*
X-31201644Y79026301D01*
X-31231986Y79038165D01*
X-31241784Y79042392D01*
X-31244822Y79056768D01*
X-31251475Y79096080D01*
X-31261188Y79156785D01*
X-31273406Y79235339D01*
X-31287571Y79328201D01*
X-31303130Y79431827D01*
X-31308033Y79464804D01*
X-31324028Y79571265D01*
X-31338986Y79668270D01*
X-31352322Y79752225D01*
X-31363452Y79819536D01*
X-31371791Y79866610D01*
X-31376754Y79889853D01*
X-31377487Y79891633D01*
X-31383978Y79880601D01*
X-31398601Y79845831D01*
X-31420041Y79790774D01*
X-31446983Y79718880D01*
X-31478111Y79633599D01*
X-31511390Y79540414D01*
X-31638095Y79181998D01*
X-31711371Y79207190D01*
X-31758022Y79227168D01*
X-31779915Y79245952D01*
X-31781117Y79252864D01*
X-31775718Y79270440D01*
X-31762087Y79311087D01*
X-31741641Y79370761D01*
X-31715801Y79445419D01*
X-31685985Y79531016D01*
X-31653613Y79623509D01*
X-31620105Y79718854D01*
X-31586879Y79813007D01*
X-31555355Y79901924D01*
X-31526953Y79981562D01*
X-31503090Y80047876D01*
X-31485188Y80096822D01*
X-31480612Y80109051D01*
X-31458054Y80168754D01*
X-31352446Y80133246D01*
G37*
G36*
X-28260837Y90754136D02*
G01*
X-28310399Y90567946D01*
X-28379476Y90383570D01*
X-28465180Y90206381D01*
X-28564625Y90041746D01*
X-28674924Y89895039D01*
X-28784749Y89779363D01*
X-28924940Y89664241D01*
X-29078344Y89564572D01*
X-29237910Y89484401D01*
X-29396585Y89427775D01*
X-29398485Y89427246D01*
X-29451580Y89413094D01*
X-29488638Y89406732D01*
X-29521357Y89408255D01*
X-29561431Y89417757D01*
X-29598990Y89428865D01*
X-29681569Y89446610D01*
X-29783916Y89457795D01*
X-29897777Y89462436D01*
X-30014898Y89460545D01*
X-30127026Y89452138D01*
X-30225907Y89437228D01*
X-30266402Y89427722D01*
X-30389485Y89386903D01*
X-30520304Y89330924D01*
X-30646730Y89265448D01*
X-30744901Y89204343D01*
X-30842040Y89137415D01*
X-30842040Y89202652D01*
X-30856285Y89287488D01*
X-30898655Y89369042D01*
X-30968601Y89446537D01*
X-31065070Y89518875D01*
X-31126441Y89553354D01*
X-31200734Y89588503D01*
X-31277439Y89619880D01*
X-31346047Y89643039D01*
X-31376941Y89650748D01*
X-31406407Y89659096D01*
X-31408611Y89666546D01*
X-31385067Y89672869D01*
X-31337287Y89677835D01*
X-31266784Y89681213D01*
X-31175070Y89682775D01*
X-31165836Y89682818D01*
X-31023862Y89679597D01*
X-30905093Y89668260D01*
X-30804907Y89648056D01*
X-30718686Y89618232D01*
X-30691456Y89605631D01*
X-30651581Y89587049D01*
X-30623674Y89576180D01*
X-30615398Y89574933D01*
X-30617541Y89589721D01*
X-30627820Y89623355D01*
X-30640492Y89658990D01*
X-30675082Y89725995D01*
X-30729134Y89800079D01*
X-30796817Y89874591D01*
X-30872299Y89942877D01*
X-30922126Y89980321D01*
X-30964515Y90011753D01*
X-30982308Y90031705D01*
X-30974755Y90041025D01*
X-30941105Y90040559D01*
X-30880605Y90031156D01*
X-30877537Y90030591D01*
X-30771918Y89999527D01*
X-30663811Y89946993D01*
X-30562459Y89877799D01*
X-30528628Y89849034D01*
X-30444289Y89772712D01*
X-30387725Y89798178D01*
X-30320875Y89841799D01*
X-30254588Y89910607D01*
X-30191351Y90001069D01*
X-30133652Y90109655D01*
X-30086323Y90226124D01*
X-30071858Y90263202D01*
X-30055428Y90290100D01*
X-30031677Y90310236D01*
X-29995251Y90327028D01*
X-29940794Y90343894D01*
X-29874556Y90361294D01*
X-29727180Y90392488D01*
X-29565320Y90415707D01*
X-29402576Y90429274D01*
X-29300497Y90432127D01*
X-29097680Y90445394D01*
X-28900160Y90483562D01*
X-28711545Y90545307D01*
X-28535439Y90629304D01*
X-28375448Y90734231D01*
X-28294356Y90801530D01*
X-28240750Y90849960D01*
X-28260837Y90754136D01*
G37*
G36*
X-24208639Y82194200D02*
G01*
X-24170706Y82164612D01*
X-24144379Y82140746D01*
X-24135864Y82128970D01*
X-24147927Y82117500D01*
X-24179669Y82098428D01*
X-24224420Y82075729D01*
X-24227984Y82074053D01*
X-24317703Y82021224D01*
X-24394506Y81954791D01*
X-24451795Y81880903D01*
X-24467814Y81850539D01*
X-24489897Y81789792D01*
X-24492171Y81743542D01*
X-24474327Y81705117D01*
X-24460314Y81689261D01*
X-24421848Y81660957D01*
X-24381226Y81654023D01*
X-24334416Y81669233D01*
X-24277387Y81707360D01*
X-24250471Y81729490D01*
X-24174599Y81793818D01*
X-24116322Y81841759D01*
X-24071847Y81876182D01*
X-24037380Y81899958D01*
X-24009125Y81915958D01*
X-23996015Y81921994D01*
X-23918697Y81940359D01*
X-23841124Y81931882D01*
X-23767811Y81898106D01*
X-23703273Y81840572D01*
X-23683783Y81815377D01*
X-23659740Y81777240D01*
X-23646674Y81742054D01*
X-23641403Y81698079D01*
X-23640647Y81656206D01*
X-23650263Y81563981D01*
X-23680672Y81476461D01*
X-23734217Y81388294D01*
X-23785984Y81324162D01*
X-23821358Y81288347D01*
X-23866992Y81248221D01*
X-23916828Y81208380D01*
X-23964806Y81173418D01*
X-24004866Y81147928D01*
X-24030949Y81136506D01*
X-24033761Y81136301D01*
X-24048976Y81144522D01*
X-24079673Y81165391D01*
X-24110680Y81188048D01*
X-24151958Y81223511D01*
X-24175114Y81252962D01*
X-24178239Y81272919D01*
X-24161048Y81279914D01*
X-24125109Y81288701D01*
X-24074875Y81311727D01*
X-24017993Y81344603D01*
X-23962109Y81382941D01*
X-23918073Y81419339D01*
X-23856366Y81487081D01*
X-23815190Y81554401D01*
X-23795009Y81617965D01*
X-23796290Y81674444D01*
X-23819499Y81720504D01*
X-23865103Y81752815D01*
X-23871084Y81755227D01*
X-23898919Y81761655D01*
X-23927872Y81757506D01*
X-23962345Y81740416D01*
X-24006742Y81708019D01*
X-24065464Y81657953D01*
X-24085496Y81640065D01*
X-24166162Y81571049D01*
X-24233623Y81522383D01*
X-24292704Y81491979D01*
X-24348227Y81477748D01*
X-24405014Y81477604D01*
X-24445545Y81484216D01*
X-24516794Y81512843D01*
X-24578742Y81562692D01*
X-24623855Y81626672D01*
X-24639043Y81666352D01*
X-24648272Y81754231D01*
X-24632073Y81847360D01*
X-24592382Y81942076D01*
X-24531139Y82034714D01*
X-24450279Y82121612D01*
X-24360379Y82193235D01*
X-24281413Y82247621D01*
X-24208639Y82194200D01*
G37*
G36*
X-23180072Y89466320D02*
G01*
X-22985525Y89174714D01*
X-23046219Y89134444D01*
X-23083045Y89111300D01*
X-23110002Y89096709D01*
X-23117651Y89094113D01*
X-23128734Y89105486D01*
X-23152805Y89137069D01*
X-23187085Y89184991D01*
X-23228796Y89245381D01*
X-23267415Y89302720D01*
X-23313354Y89370612D01*
X-23354394Y89429269D01*
X-23387710Y89474814D01*
X-23410478Y89503369D01*
X-23419364Y89511388D01*
X-23436886Y89503811D01*
X-23470868Y89483869D01*
X-23514218Y89455743D01*
X-23517755Y89453348D01*
X-23603223Y89395308D01*
X-23459402Y89180265D01*
X-23413343Y89111099D01*
X-23373396Y89050542D01*
X-23342101Y89002494D01*
X-23322001Y88970853D01*
X-23315581Y88959594D01*
X-23326622Y88948354D01*
X-23353708Y88928828D01*
X-23387783Y88906812D01*
X-23419793Y88888105D01*
X-23440680Y88878504D01*
X-23442736Y88878187D01*
X-23454483Y88889599D01*
X-23479039Y88921201D01*
X-23513540Y88969047D01*
X-23555119Y89029187D01*
X-23589482Y89080374D01*
X-23634640Y89147819D01*
X-23674845Y89206669D01*
X-23707208Y89252785D01*
X-23728835Y89282029D01*
X-23736232Y89290377D01*
X-23751671Y89285743D01*
X-23784706Y89268742D01*
X-23829149Y89243218D01*
X-23878813Y89213011D01*
X-23927508Y89181964D01*
X-23969048Y89153917D01*
X-23997243Y89132714D01*
X-24006102Y89122833D01*
X-23998571Y89109126D01*
X-23977530Y89075464D01*
X-23945515Y89025786D01*
X-23905061Y88964032D01*
X-23862942Y88900493D01*
X-23719574Y88685348D01*
X-23780212Y88645115D01*
X-23816994Y88621987D01*
X-23843874Y88607410D01*
X-23851464Y88604821D01*
X-23862115Y88616262D01*
X-23886263Y88648401D01*
X-23921557Y88697911D01*
X-23965647Y88761462D01*
X-24016184Y88835727D01*
X-24049339Y88885114D01*
X-24102271Y88964835D01*
X-24149372Y89036684D01*
X-24188416Y89097190D01*
X-24217175Y89142881D01*
X-24233425Y89170286D01*
X-24236243Y89176531D01*
X-24224705Y89186237D01*
X-24192347Y89209686D01*
X-24142345Y89244728D01*
X-24077876Y89289215D01*
X-24002116Y89340998D01*
X-23918242Y89397928D01*
X-23829431Y89457856D01*
X-23738859Y89518634D01*
X-23649703Y89578111D01*
X-23565139Y89634140D01*
X-23488344Y89684572D01*
X-23422495Y89727257D01*
X-23415418Y89731796D01*
X-23374620Y89757927D01*
X-23180072Y89466320D01*
G37*
G36*
X-26637514Y80260603D02*
G01*
X-26622319Y80232328D01*
X-26607497Y80198293D01*
X-26597966Y80169208D01*
X-26596714Y80160408D01*
X-26608465Y80147093D01*
X-26637737Y80128923D01*
X-26648459Y80123545D01*
X-26680320Y80103592D01*
X-26693415Y80085164D01*
X-26692889Y80081304D01*
X-26680833Y80053096D01*
X-26660309Y80005853D01*
X-26633272Y79944010D01*
X-26601678Y79872003D01*
X-26567482Y79794265D01*
X-26532640Y79715231D01*
X-26499107Y79639336D01*
X-26468839Y79571014D01*
X-26443791Y79514701D01*
X-26425919Y79474830D01*
X-26417178Y79455836D01*
X-26416658Y79454880D01*
X-26402325Y79457066D01*
X-26371268Y79467925D01*
X-26359062Y79472868D01*
X-26324519Y79486940D01*
X-26303692Y79494742D01*
X-26301505Y79495298D01*
X-26292984Y79483186D01*
X-26280588Y79453934D01*
X-26268025Y79418169D01*
X-26259002Y79386514D01*
X-26257226Y79369595D01*
X-26257506Y79369199D01*
X-26272971Y79360769D01*
X-26308812Y79343790D01*
X-26359015Y79320907D01*
X-26417568Y79294768D01*
X-26478456Y79268021D01*
X-26535666Y79243311D01*
X-26583185Y79223287D01*
X-26614998Y79210595D01*
X-26624906Y79207479D01*
X-26635342Y79219550D01*
X-26650152Y79249672D01*
X-26654913Y79261445D01*
X-26669113Y79297798D01*
X-26678713Y79321509D01*
X-26679989Y79324402D01*
X-26670693Y79334625D01*
X-26642270Y79349793D01*
X-26626916Y79356336D01*
X-26569575Y79379280D01*
X-26675101Y79620773D01*
X-26725358Y79735699D01*
X-26765363Y79826919D01*
X-26796341Y79897122D01*
X-26819516Y79948998D01*
X-26836112Y79985234D01*
X-26847354Y80008521D01*
X-26854465Y80021548D01*
X-26858671Y80027003D01*
X-26860397Y80027762D01*
X-26876400Y80022732D01*
X-26908488Y80010220D01*
X-26918997Y80005881D01*
X-26953080Y79992860D01*
X-26970521Y79993471D01*
X-26981119Y80009976D01*
X-26985525Y80021240D01*
X-27001633Y80059683D01*
X-27013658Y80084591D01*
X-27016621Y80096130D01*
X-27010065Y80107932D01*
X-26990354Y80122270D01*
X-26953853Y80141420D01*
X-26896928Y80167658D01*
X-26842767Y80191554D01*
X-26775406Y80220727D01*
X-26717597Y80245219D01*
X-26674376Y80262937D01*
X-26650779Y80271789D01*
X-26648160Y80272408D01*
X-26637514Y80260603D01*
G37*
G36*
X-29564844Y79723444D02*
G01*
X-29471099Y79716473D01*
X-29387515Y79710180D01*
X-29318174Y79704878D01*
X-29267158Y79700883D01*
X-29238550Y79698506D01*
X-29233853Y79698005D01*
X-29231821Y79684288D01*
X-29230517Y79650476D01*
X-29230255Y79622759D01*
X-29230255Y79548747D01*
X-29377762Y79558317D01*
X-29454731Y79563529D01*
X-29534710Y79569302D01*
X-29604601Y79574678D01*
X-29627959Y79576601D01*
X-29730648Y79585315D01*
X-29741035Y79481890D01*
X-29745217Y79430417D01*
X-29746556Y79391204D01*
X-29744810Y79372019D01*
X-29744449Y79371493D01*
X-29728461Y79368154D01*
X-29688690Y79363369D01*
X-29630072Y79357635D01*
X-29557541Y79351446D01*
X-29501855Y79347161D01*
X-29266233Y79329802D01*
X-29261811Y79252190D01*
X-29257390Y79174578D01*
X-29362548Y79183516D01*
X-29425918Y79188583D01*
X-29504453Y79194407D01*
X-29584588Y79199993D01*
X-29612954Y79201868D01*
X-29758203Y79211282D01*
X-29767554Y79112242D01*
X-29772467Y79052498D01*
X-29775892Y78996146D01*
X-29777008Y78960379D01*
X-29776183Y78936615D01*
X-29770838Y78919381D01*
X-29756832Y78907301D01*
X-29730022Y78898998D01*
X-29686266Y78893092D01*
X-29621423Y78888208D01*
X-29546856Y78883843D01*
X-29477293Y78879451D01*
X-29412636Y78874554D01*
X-29362003Y78869881D01*
X-29341785Y78867436D01*
X-29287819Y78859567D01*
X-29287819Y78788877D01*
X-29287819Y78718187D01*
X-29370567Y78720071D01*
X-29412983Y78721841D01*
X-29477229Y78725527D01*
X-29556451Y78730690D01*
X-29643792Y78736890D01*
X-29703727Y78741428D01*
X-29785136Y78747955D01*
X-29855791Y78753996D01*
X-29911027Y78759120D01*
X-29946180Y78762899D01*
X-29956784Y78764728D01*
X-29956413Y78779476D01*
X-29954100Y78819408D01*
X-29950084Y78881012D01*
X-29944604Y78960772D01*
X-29937897Y79055175D01*
X-29930202Y79160707D01*
X-29926735Y79207479D01*
X-29918491Y79319408D01*
X-29910950Y79424160D01*
X-29904389Y79517708D01*
X-29899084Y79596024D01*
X-29895311Y79655078D01*
X-29893348Y79690844D01*
X-29893141Y79697025D01*
X-29892238Y79747647D01*
X-29564844Y79723444D01*
G37*
G36*
X-22587811Y86482320D02*
G01*
X-22469329Y86451957D01*
X-22359749Y86423583D01*
X-22262173Y86398023D01*
X-22179707Y86376104D01*
X-22115452Y86358650D01*
X-22072513Y86346488D01*
X-22053992Y86340443D01*
X-22053551Y86340161D01*
X-22049250Y86324697D01*
X-22043213Y86290245D01*
X-22036626Y86245603D01*
X-22030674Y86199567D01*
X-22026543Y86160936D01*
X-22025419Y86138506D01*
X-22026044Y86136052D01*
X-22039698Y86129573D01*
X-22075532Y86112458D01*
X-22129774Y86086513D01*
X-22198651Y86053546D01*
X-22278391Y86015364D01*
X-22365220Y85973774D01*
X-22455367Y85930583D01*
X-22545058Y85887598D01*
X-22630521Y85846626D01*
X-22707983Y85809474D01*
X-22773672Y85777949D01*
X-22779519Y85775142D01*
X-23027762Y85655942D01*
X-23027762Y85703849D01*
X-23030714Y85753972D01*
X-23036783Y85796858D01*
X-23039982Y85817384D01*
X-23036991Y85833023D01*
X-23023450Y85847506D01*
X-22995004Y85864566D01*
X-22947294Y85887935D01*
X-22910067Y85905389D01*
X-22774331Y85968819D01*
X-22792278Y86139112D01*
X-22799429Y86208752D01*
X-22805380Y86270062D01*
X-22809479Y86316117D01*
X-22810322Y86328415D01*
X-22656125Y86328415D01*
X-22647070Y86239760D01*
X-22640735Y86181584D01*
X-22634056Y86126099D01*
X-22630204Y86097452D01*
X-22622392Y86043800D01*
X-22576834Y86063543D01*
X-22544831Y86078003D01*
X-22494676Y86101335D01*
X-22434136Y86129904D01*
X-22389957Y86150968D01*
X-22333388Y86178658D01*
X-22288501Y86201776D01*
X-22260362Y86217635D01*
X-22253374Y86223383D01*
X-22268275Y86228404D01*
X-22306000Y86238976D01*
X-22361435Y86253722D01*
X-22429468Y86271265D01*
X-22457117Y86278266D01*
X-22656125Y86328415D01*
X-22810322Y86328415D01*
X-22811061Y86339190D01*
X-22814935Y86353691D01*
X-22828914Y86365721D01*
X-22857922Y86377459D01*
X-22906886Y86391085D01*
X-22954288Y86402588D01*
X-23096677Y86436201D01*
X-23105234Y86487931D01*
X-23111249Y86534976D01*
X-23113942Y86577070D01*
X-23113949Y86578088D01*
X-23114108Y86616516D01*
X-22587811Y86482320D01*
G37*
G36*
X-25400189Y88999147D02*
G01*
X-25218539Y88810226D01*
X-25059795Y88625999D01*
X-24925093Y88447926D01*
X-24815568Y88277469D01*
X-24761914Y88178469D01*
X-24722208Y88102151D01*
X-24687850Y88044455D01*
X-24653212Y87997397D01*
X-24612666Y87952991D01*
X-24581975Y87923180D01*
X-24507030Y87856305D01*
X-24429440Y87795693D01*
X-24342197Y87736396D01*
X-24238295Y87673466D01*
X-24186233Y87643766D01*
X-24107390Y87601935D01*
X-24009704Y87553927D01*
X-23901364Y87503443D01*
X-23790559Y87454185D01*
X-23685480Y87409854D01*
X-23594316Y87374151D01*
X-23571020Y87365717D01*
X-23523484Y87347852D01*
X-23488866Y87332779D01*
X-23474015Y87323511D01*
X-23473881Y87323021D01*
X-23487476Y87316113D01*
X-23525555Y87306162D01*
X-23584061Y87293837D01*
X-23658938Y87279811D01*
X-23746130Y87264755D01*
X-23841579Y87249339D01*
X-23941228Y87234235D01*
X-24041022Y87220113D01*
X-24136902Y87207645D01*
X-24224813Y87197502D01*
X-24245835Y87195331D01*
X-24339236Y87187786D01*
X-24451192Y87181644D01*
X-24574701Y87177031D01*
X-24702760Y87174074D01*
X-24828366Y87172898D01*
X-24944516Y87173631D01*
X-25044208Y87176398D01*
X-25103768Y87179869D01*
X-25374561Y87209701D01*
X-25622700Y87255211D01*
X-25850124Y87317122D01*
X-26058771Y87396158D01*
X-26250579Y87493041D01*
X-26427485Y87608495D01*
X-26575750Y87729048D01*
X-26632968Y87775563D01*
X-26711063Y87832171D01*
X-26805249Y87895933D01*
X-26910741Y87963908D01*
X-27022752Y88033157D01*
X-27136499Y88100739D01*
X-27247194Y88163717D01*
X-27350052Y88219148D01*
X-27440288Y88264095D01*
X-27465933Y88275880D01*
X-27550998Y88313970D01*
X-27466009Y88330553D01*
X-27237192Y88379020D01*
X-27009973Y88434433D01*
X-26792270Y88494675D01*
X-26592000Y88557634D01*
X-26512679Y88585206D01*
X-26347132Y88649433D01*
X-26181663Y88722508D01*
X-26021579Y88801617D01*
X-25872186Y88883948D01*
X-25738792Y88966690D01*
X-25626704Y89047029D01*
X-25599074Y89069366D01*
X-25529648Y89127302D01*
X-25400189Y88999147D01*
G37*
G36*
X-24631480Y91081270D02*
G01*
X-24605485Y91061992D01*
X-24565648Y91025177D01*
X-24553965Y91013863D01*
X-24466655Y90928895D01*
X-24567915Y90534767D01*
X-24593867Y90432932D01*
X-24617012Y90340514D01*
X-24636490Y90261080D01*
X-24651442Y90198191D01*
X-24661007Y90155413D01*
X-24664327Y90136308D01*
X-24664205Y90135668D01*
X-24653610Y90144489D01*
X-24626418Y90171911D01*
X-24585270Y90215130D01*
X-24532811Y90271343D01*
X-24471686Y90337748D01*
X-24418062Y90396612D01*
X-24341692Y90480806D01*
X-24282034Y90545594D01*
X-24236242Y90592681D01*
X-24201467Y90623775D01*
X-24174861Y90640582D01*
X-24153577Y90644808D01*
X-24134767Y90638161D01*
X-24115582Y90622348D01*
X-24093177Y90599073D01*
X-24088485Y90594121D01*
X-24048301Y90551885D01*
X-24352712Y90215121D01*
X-24429860Y90129889D01*
X-24502880Y90049436D01*
X-24568976Y89976826D01*
X-24625351Y89915124D01*
X-24669210Y89867392D01*
X-24697755Y89836696D01*
X-24704462Y89829666D01*
X-24751800Y89780974D01*
X-24823867Y89848384D01*
X-24895933Y89915794D01*
X-24782917Y90357173D01*
X-24755442Y90465131D01*
X-24730650Y90563803D01*
X-24709361Y90649831D01*
X-24692393Y90719857D01*
X-24680565Y90770524D01*
X-24674694Y90798473D01*
X-24674280Y90802930D01*
X-24684635Y90793830D01*
X-24711663Y90765950D01*
X-24752868Y90721983D01*
X-24805755Y90664617D01*
X-24867826Y90596544D01*
X-24936587Y90520453D01*
X-24943324Y90512963D01*
X-25012993Y90435887D01*
X-25076614Y90366274D01*
X-25131609Y90306885D01*
X-25175397Y90260481D01*
X-25205399Y90229823D01*
X-25219035Y90217671D01*
X-25219339Y90217581D01*
X-25235321Y90226085D01*
X-25264410Y90249073D01*
X-25288358Y90270510D01*
X-25346025Y90324476D01*
X-25013124Y90691445D01*
X-24934043Y90778583D01*
X-24860549Y90859497D01*
X-24795021Y90931573D01*
X-24739840Y90992195D01*
X-24697385Y91038747D01*
X-24670037Y91068616D01*
X-24660749Y91078622D01*
X-24648334Y91085863D01*
X-24631480Y91081270D01*
G37*
G36*
X-25494771Y85818088D02*
G01*
X-25465458Y85793173D01*
X-25424735Y85756684D01*
X-25390022Y85724640D01*
X-25234762Y85589726D01*
X-25062764Y85458149D01*
X-24879437Y85333163D01*
X-24690187Y85218025D01*
X-24500420Y85115987D01*
X-24315543Y85030306D01*
X-24140963Y84964236D01*
X-24110897Y84954629D01*
X-24056161Y84937765D01*
X-24017438Y84923189D01*
X-23992903Y84906086D01*
X-23980733Y84881641D01*
X-23979102Y84845040D01*
X-23986187Y84791469D01*
X-24000164Y84716113D01*
X-24006978Y84680362D01*
X-24027951Y84574661D01*
X-24047705Y84489187D01*
X-24068812Y84415638D01*
X-24093847Y84345711D01*
X-24125382Y84271104D01*
X-24151387Y84214454D01*
X-24183328Y84140810D01*
X-24212629Y84063516D01*
X-24235349Y83993466D01*
X-24245054Y83955417D01*
X-24254327Y83894657D01*
X-24262219Y83810983D01*
X-24268576Y83710238D01*
X-24273244Y83598266D01*
X-24276071Y83480907D01*
X-24276903Y83364005D01*
X-24275586Y83253401D01*
X-24271967Y83154940D01*
X-24267705Y83093194D01*
X-24262432Y83027458D01*
X-24259100Y82972991D01*
X-24258000Y82935721D01*
X-24259239Y82921686D01*
X-24270585Y82929813D01*
X-24299432Y82955866D01*
X-24343092Y82997259D01*
X-24398873Y83051408D01*
X-24464086Y83115728D01*
X-24536041Y83187635D01*
X-24536161Y83187756D01*
X-24702664Y83360023D01*
X-24846862Y83519978D01*
X-24970929Y83670448D01*
X-25077039Y83814263D01*
X-25167366Y83954250D01*
X-25244083Y84093236D01*
X-25265352Y84136374D01*
X-25307432Y84225986D01*
X-25339215Y84300431D01*
X-25362070Y84366370D01*
X-25377366Y84430466D01*
X-25386472Y84499381D01*
X-25390756Y84579777D01*
X-25391587Y84678317D01*
X-25391009Y84747989D01*
X-25391499Y84933833D01*
X-25397056Y85111492D01*
X-25407347Y85277688D01*
X-25422038Y85429145D01*
X-25440797Y85562586D01*
X-25463290Y85674732D01*
X-25489184Y85762307D01*
X-25495789Y85779116D01*
X-25506927Y85810363D01*
X-25508986Y85826643D01*
X-25507942Y85827309D01*
X-25494771Y85818088D01*
G37*
G36*
X-33433589Y85584667D02*
G01*
X-33432390Y85558328D01*
X-33425294Y85479198D01*
X-33404663Y85377792D01*
X-33371416Y85256722D01*
X-33326471Y85118602D01*
X-33270744Y84966046D01*
X-33205155Y84801667D01*
X-33130621Y84628079D01*
X-33048059Y84447895D01*
X-33026503Y84402606D01*
X-32988031Y84321215D01*
X-32950165Y84239055D01*
X-32916457Y84163972D01*
X-32890460Y84103814D01*
X-32883145Y84086006D01*
X-32836034Y83982802D01*
X-32772157Y83863912D01*
X-32694895Y83734211D01*
X-32607623Y83598572D01*
X-32513720Y83461869D01*
X-32416564Y83328976D01*
X-32319533Y83204765D01*
X-32226005Y83094111D01*
X-32139358Y83001887D01*
X-32116193Y82979467D01*
X-32081513Y82945277D01*
X-32060780Y82921759D01*
X-32057130Y82912621D01*
X-32060382Y82913468D01*
X-32136137Y82942806D01*
X-32223937Y82971023D01*
X-32310127Y82994020D01*
X-32367479Y83005699D01*
X-32520612Y83019374D01*
X-32687345Y83014583D01*
X-32860292Y82992557D01*
X-33032064Y82954525D01*
X-33195274Y82901719D01*
X-33319723Y82847158D01*
X-33375309Y82820099D01*
X-33409319Y82806129D01*
X-33425240Y82804187D01*
X-33426560Y82813212D01*
X-33425956Y82814848D01*
X-33417712Y82842263D01*
X-33406574Y82887555D01*
X-33396260Y82934731D01*
X-33372894Y83088964D01*
X-33365510Y83250246D01*
X-33374452Y83421298D01*
X-33400065Y83604841D01*
X-33442693Y83803598D01*
X-33502679Y84020289D01*
X-33553652Y84179547D01*
X-33592543Y84296706D01*
X-33622827Y84392034D01*
X-33645553Y84470812D01*
X-33661775Y84538323D01*
X-33672542Y84599847D01*
X-33678907Y84660666D01*
X-33681921Y84726063D01*
X-33682635Y84801318D01*
X-33682555Y84827139D01*
X-33674932Y84997972D01*
X-33652689Y85149825D01*
X-33614119Y85289442D01*
X-33557518Y85423563D01*
X-33509118Y85512925D01*
X-33475917Y85567014D01*
X-33453472Y85596285D01*
X-33439967Y85601811D01*
X-33433589Y85584667D01*
G37*
G36*
X-25255777Y81082825D02*
G01*
X-25223667Y81057852D01*
X-25191119Y81024715D01*
X-25164441Y80990354D01*
X-25149946Y80961711D01*
X-25150376Y80948862D01*
X-25169118Y80939931D01*
X-25205425Y80934842D01*
X-25220942Y80934391D01*
X-25309519Y80923644D01*
X-25398264Y80894063D01*
X-25479269Y80849635D01*
X-25544620Y80794347D01*
X-25573678Y80756575D01*
X-25606959Y80676980D01*
X-25613049Y80592004D01*
X-25592503Y80503927D01*
X-25545874Y80415032D01*
X-25473715Y80327598D01*
X-25468285Y80322150D01*
X-25395238Y80258856D01*
X-25326153Y80219864D01*
X-25255314Y80202371D01*
X-25220710Y80200770D01*
X-25153785Y80214318D01*
X-25084468Y80250801D01*
X-25018120Y80305435D01*
X-24960106Y80373436D01*
X-24915785Y80450022D01*
X-24902064Y80485028D01*
X-24885156Y80528610D01*
X-24869017Y80558476D01*
X-24858976Y80567422D01*
X-24842526Y80556785D01*
X-24815792Y80529194D01*
X-24790946Y80498786D01*
X-24738539Y80430150D01*
X-24792976Y80340486D01*
X-24875799Y80227324D01*
X-24972436Y80138637D01*
X-25043744Y80093185D01*
X-25090310Y80070482D01*
X-25134633Y80056597D01*
X-25187787Y80048887D01*
X-25243966Y80045395D01*
X-25307204Y80043640D01*
X-25351978Y80046163D01*
X-25388493Y80054696D01*
X-25426954Y80070971D01*
X-25443731Y80079307D01*
X-25529415Y80135525D01*
X-25611315Y80212809D01*
X-25682241Y80303646D01*
X-25719678Y80367631D01*
X-25743852Y80417738D01*
X-25758563Y80458127D01*
X-25766112Y80499423D01*
X-25768801Y80552254D01*
X-25769036Y80595536D01*
X-25766466Y80674269D01*
X-25756735Y80734695D01*
X-25736396Y80787051D01*
X-25702002Y80841571D01*
X-25673510Y80879167D01*
X-25625551Y80927628D01*
X-25560447Y80976433D01*
X-25485769Y81021461D01*
X-25409089Y81058593D01*
X-25337978Y81083708D01*
X-25281137Y81092691D01*
X-25255777Y81082825D01*
G37*
G36*
X-35371642Y86446951D02*
G01*
X-35245185Y86416662D01*
X-35140129Y86367600D01*
X-35056958Y86300295D01*
X-34996159Y86215278D01*
X-34958217Y86113078D01*
X-34943617Y85994227D01*
X-34943456Y85979390D01*
X-34951339Y85880347D01*
X-34973042Y85779753D01*
X-35005650Y85689000D01*
X-35029351Y85643825D01*
X-35051466Y85613797D01*
X-35076065Y85600898D01*
X-35115680Y85598900D01*
X-35119534Y85599014D01*
X-35166566Y85601739D01*
X-35206371Y85606043D01*
X-35213286Y85607210D01*
X-35237483Y85615971D01*
X-35242872Y85632137D01*
X-35228679Y85659801D01*
X-35195413Y85701557D01*
X-35160180Y85751139D01*
X-35127930Y85810179D01*
X-35116263Y85837500D01*
X-35091484Y85936805D01*
X-35093065Y86027461D01*
X-35119346Y86107385D01*
X-35168663Y86174497D01*
X-35239356Y86226715D01*
X-35329762Y86261958D01*
X-35438220Y86278144D01*
X-35468725Y86278972D01*
X-35562119Y86272818D01*
X-35636776Y86251684D01*
X-35700018Y86212811D01*
X-35737640Y86177607D01*
X-35776931Y86125384D01*
X-35799956Y86065448D01*
X-35809488Y85989477D01*
X-35810143Y85960066D01*
X-35807014Y85899101D01*
X-35794639Y85846110D01*
X-35769387Y85786305D01*
X-35765538Y85778414D01*
X-35743158Y85730787D01*
X-35727052Y85692380D01*
X-35720578Y85671226D01*
X-35720567Y85670840D01*
X-35733299Y85662246D01*
X-35765134Y85656764D01*
X-35806534Y85654689D01*
X-35847957Y85656319D01*
X-35879863Y85661950D01*
X-35888213Y85665631D01*
X-35909146Y85692661D01*
X-35928073Y85742099D01*
X-35943507Y85807574D01*
X-35953959Y85882717D01*
X-35957939Y85961157D01*
X-35957943Y85964023D01*
X-35951548Y86075704D01*
X-35931175Y86167506D01*
X-35894829Y86245719D01*
X-35849146Y86307056D01*
X-35769628Y86376061D01*
X-35672459Y86424139D01*
X-35560640Y86450410D01*
X-35437173Y86453996D01*
X-35371642Y86446951D01*
G37*
G36*
X-26120698Y87275734D02*
G01*
X-25994221Y87225930D01*
X-25846522Y87177912D01*
X-25685163Y87133642D01*
X-25517703Y87095082D01*
X-25351703Y87064196D01*
X-25247416Y87049069D01*
X-25142929Y87039254D01*
X-25020127Y87033307D01*
X-24885543Y87031072D01*
X-24745708Y87032392D01*
X-24607156Y87037110D01*
X-24476419Y87045069D01*
X-24360030Y87056112D01*
X-24264520Y87070081D01*
X-24249298Y87073048D01*
X-24234759Y87075183D01*
X-24223202Y87072138D01*
X-24212769Y87059975D01*
X-24201605Y87034756D01*
X-24187851Y86992545D01*
X-24169650Y86929404D01*
X-24152474Y86867779D01*
X-24095072Y86648972D01*
X-24050837Y86452619D01*
X-24019271Y86275845D01*
X-23999874Y86115774D01*
X-23992145Y85969530D01*
X-23991955Y85943733D01*
X-23986377Y85828044D01*
X-23967571Y85728574D01*
X-23932426Y85634752D01*
X-23877830Y85536005D01*
X-23866899Y85518759D01*
X-23816913Y85450586D01*
X-23748782Y85371319D01*
X-23667915Y85286403D01*
X-23579722Y85201284D01*
X-23489613Y85121406D01*
X-23404639Y85053444D01*
X-23358264Y85017106D01*
X-23325282Y84988061D01*
X-23309260Y84969687D01*
X-23311098Y84964941D01*
X-23334565Y84968441D01*
X-23379761Y84977208D01*
X-23440390Y84989957D01*
X-23510155Y85005402D01*
X-23517054Y85006969D01*
X-23842239Y85090985D01*
X-24150467Y85190894D01*
X-24440004Y85305911D01*
X-24709116Y85435245D01*
X-24956067Y85578109D01*
X-25179122Y85733716D01*
X-25261193Y85799290D01*
X-25391392Y85920538D01*
X-25499373Y86048520D01*
X-25583105Y86180407D01*
X-25640557Y86313372D01*
X-25648236Y86338187D01*
X-25701069Y86497773D01*
X-25766547Y86658551D01*
X-25841677Y86814869D01*
X-25923467Y86961076D01*
X-26008925Y87091522D01*
X-26095057Y87200554D01*
X-26118346Y87225910D01*
X-26198733Y87310187D01*
X-26120698Y87275734D01*
G37*
G36*
X-33807993Y82017527D02*
G01*
X-33780548Y81987877D01*
X-33740237Y81942269D01*
X-33689793Y81883818D01*
X-33631948Y81815639D01*
X-33598609Y81775889D01*
X-33387910Y81523676D01*
X-33433868Y81484473D01*
X-33466845Y81457338D01*
X-33492347Y81438061D01*
X-33496824Y81435141D01*
X-33512642Y81441983D01*
X-33543973Y81470486D01*
X-33589307Y81519101D01*
X-33647131Y81586282D01*
X-33662590Y81604863D01*
X-33713562Y81666046D01*
X-33758602Y81719282D01*
X-33794337Y81760649D01*
X-33817390Y81786221D01*
X-33823966Y81792508D01*
X-33840268Y81787685D01*
X-33871416Y81767695D01*
X-33910958Y81736731D01*
X-33914804Y81733467D01*
X-33993033Y81666634D01*
X-33834069Y81476802D01*
X-33675105Y81286969D01*
X-33728845Y81240199D01*
X-33762034Y81213097D01*
X-33786650Y81196215D01*
X-33793584Y81193428D01*
X-33805968Y81203964D01*
X-33833317Y81233141D01*
X-33872385Y81277308D01*
X-33919928Y81332817D01*
X-33959216Y81379720D01*
X-34113850Y81566013D01*
X-34222114Y81475458D01*
X-34268895Y81435287D01*
X-34306606Y81400942D01*
X-34330152Y81377170D01*
X-34335360Y81369955D01*
X-34328183Y81354510D01*
X-34305157Y81321235D01*
X-34269257Y81274076D01*
X-34223459Y81216976D01*
X-34185545Y81171353D01*
X-34030747Y80987699D01*
X-34086553Y80939459D01*
X-34119817Y80912061D01*
X-34143874Y80894734D01*
X-34150755Y80891539D01*
X-34161939Y80902232D01*
X-34188710Y80932044D01*
X-34228384Y80977852D01*
X-34278274Y81036539D01*
X-34335695Y81104983D01*
X-34369667Y81145843D01*
X-34580185Y81399826D01*
X-34205278Y81713964D01*
X-34116374Y81788207D01*
X-34034387Y81856194D01*
X-33961935Y81915788D01*
X-33901638Y81964858D01*
X-33856114Y82001267D01*
X-33827982Y82022882D01*
X-33819840Y82028102D01*
X-33807993Y82017527D01*
G37*
G36*
X-25999690Y82686038D02*
G01*
X-26004617Y82650134D01*
X-26012626Y82600380D01*
X-26014222Y82591060D01*
X-26036689Y82410185D01*
X-26044834Y82217917D01*
X-26038156Y82028109D01*
X-26035717Y81999320D01*
X-26027588Y81923729D01*
X-26016595Y81839253D01*
X-26003767Y81752178D01*
X-25990127Y81668787D01*
X-25976703Y81595367D01*
X-25964521Y81538202D01*
X-25954914Y81504365D01*
X-25963583Y81488719D01*
X-25994804Y81462636D01*
X-26045124Y81428006D01*
X-26111087Y81386722D01*
X-26189238Y81340673D01*
X-26276122Y81291751D01*
X-26368285Y81241846D01*
X-26462271Y81192850D01*
X-26554625Y81146654D01*
X-26641893Y81105148D01*
X-26720619Y81070223D01*
X-26787349Y81043770D01*
X-26811855Y81035355D01*
X-26935426Y80982705D01*
X-27057825Y80906757D01*
X-27173865Y80812434D01*
X-27278360Y80704660D01*
X-27366124Y80588359D01*
X-27431971Y80468454D01*
X-27446566Y80432807D01*
X-27466003Y80376840D01*
X-27482746Y80321462D01*
X-27489692Y80293995D01*
X-27493983Y80285457D01*
X-27496851Y80305069D01*
X-27498275Y80352231D01*
X-27498237Y80426346D01*
X-27496908Y80517054D01*
X-27488318Y80719902D01*
X-27470124Y80901117D01*
X-27441249Y81066556D01*
X-27400620Y81222075D01*
X-27347161Y81373530D01*
X-27333652Y81406693D01*
X-27259406Y81559346D01*
X-27170785Y81692276D01*
X-27064021Y81809783D01*
X-26935346Y81916163D01*
X-26819774Y81992704D01*
X-26751633Y82034782D01*
X-26684997Y82077054D01*
X-26627758Y82114448D01*
X-26589519Y82140659D01*
X-26479826Y82223451D01*
X-26371201Y82312780D01*
X-26268425Y82404232D01*
X-26176278Y82493396D01*
X-26099541Y82575860D01*
X-26047482Y82640875D01*
X-26021896Y82675221D01*
X-26004044Y82696777D01*
X-25998858Y82700855D01*
X-25999690Y82686038D01*
G37*
G36*
X-28715040Y89537381D02*
G01*
X-28735447Y89424715D01*
X-28782072Y89304328D01*
X-28853876Y89177737D01*
X-28949817Y89046457D01*
X-29068854Y88912004D01*
X-29209948Y88775895D01*
X-29279222Y88715472D01*
X-29331830Y88671732D01*
X-29369491Y88643682D01*
X-29398753Y88627871D01*
X-29426164Y88620846D01*
X-29458273Y88619159D01*
X-29461969Y88619150D01*
X-29520641Y88616416D01*
X-29600166Y88608878D01*
X-29693204Y88597534D01*
X-29792416Y88583383D01*
X-29890465Y88567422D01*
X-29980011Y88550650D01*
X-30006467Y88545102D01*
X-30224227Y88487511D01*
X-30434919Y88411489D01*
X-30631922Y88319755D01*
X-30807403Y88215847D01*
X-30884574Y88158600D01*
X-30968205Y88087250D01*
X-31052127Y88007894D01*
X-31130166Y87926632D01*
X-31196153Y87849563D01*
X-31241241Y87787082D01*
X-31298598Y87696147D01*
X-31373984Y87879496D01*
X-31432122Y88030155D01*
X-31474714Y88162980D01*
X-31503107Y88283438D01*
X-31518651Y88396998D01*
X-31522705Y88482436D01*
X-31518388Y88589110D01*
X-31501444Y88674967D01*
X-31469643Y88746030D01*
X-31420751Y88808323D01*
X-31391742Y88835836D01*
X-31327703Y88881945D01*
X-31254004Y88913904D01*
X-31165252Y88933263D01*
X-31056053Y88941573D01*
X-31021927Y88942126D01*
X-30878017Y88942980D01*
X-30753249Y89011858D01*
X-30606680Y89084015D01*
X-30445286Y89148426D01*
X-30282368Y89200120D01*
X-30187252Y89223428D01*
X-30093234Y89239346D01*
X-29981305Y89251768D01*
X-29859637Y89260352D01*
X-29736402Y89264756D01*
X-29619773Y89264641D01*
X-29517922Y89259663D01*
X-29463484Y89253654D01*
X-29347249Y89236659D01*
X-29241982Y89289501D01*
X-29072179Y89385113D01*
X-28891788Y89506725D01*
X-28822158Y89558482D01*
X-28708115Y89645296D01*
X-28715040Y89537381D01*
G37*
G36*
X-27543249Y90427923D02*
G01*
X-27395411Y90387359D01*
X-27240707Y90326515D01*
X-27093217Y90248335D01*
X-26945306Y90148617D01*
X-26902749Y90116243D01*
X-26787920Y90028275D01*
X-26689748Y89956352D01*
X-26603542Y89897217D01*
X-26524611Y89847609D01*
X-26474391Y89818598D01*
X-26295941Y89728837D01*
X-26126391Y89663464D01*
X-25966680Y89622624D01*
X-25817748Y89606467D01*
X-25680535Y89615140D01*
X-25555980Y89648791D01*
X-25513796Y89667354D01*
X-25471500Y89687212D01*
X-25441673Y89699507D01*
X-25431048Y89701629D01*
X-25438938Y89678487D01*
X-25459973Y89638522D01*
X-25490198Y89588064D01*
X-25525661Y89533442D01*
X-25562408Y89480986D01*
X-25595815Y89437829D01*
X-25700618Y89328596D01*
X-25832307Y89219458D01*
X-25988995Y89111291D01*
X-26168798Y89004973D01*
X-26369830Y88901378D01*
X-26590204Y88801383D01*
X-26828036Y88705865D01*
X-27081439Y88615698D01*
X-27348529Y88531759D01*
X-27627418Y88454925D01*
X-27805553Y88411210D01*
X-27827814Y88414197D01*
X-27869177Y88426455D01*
X-27922379Y88445698D01*
X-27948881Y88456290D01*
X-28136671Y88524391D01*
X-28342042Y88582542D01*
X-28554832Y88628458D01*
X-28764880Y88659857D01*
X-28910074Y88672269D01*
X-29071990Y88681119D01*
X-29010811Y88732246D01*
X-28943586Y88791401D01*
X-28866463Y88864050D01*
X-28785653Y88943906D01*
X-28707367Y89024680D01*
X-28637816Y89100087D01*
X-28583213Y89163839D01*
X-28578040Y89170305D01*
X-28433480Y89371312D01*
X-28315842Y89575107D01*
X-28225551Y89780682D01*
X-28163033Y89987024D01*
X-28128711Y90193123D01*
X-28124186Y90251078D01*
X-28114958Y90409020D01*
X-28044970Y90426835D01*
X-27885895Y90452924D01*
X-27717601Y90453223D01*
X-27543249Y90427923D01*
G37*
G36*
X-34951603Y84901053D02*
G01*
X-34945301Y84886076D01*
X-34943518Y84863116D01*
X-34940991Y84834654D01*
X-34935356Y84794544D01*
X-34934797Y84791125D01*
X-34932408Y84771613D01*
X-34934479Y84754405D01*
X-34943999Y84735842D01*
X-34963958Y84712264D01*
X-34997349Y84680010D01*
X-35047160Y84635421D01*
X-35099419Y84589651D01*
X-35157287Y84538033D01*
X-35205698Y84492776D01*
X-35241231Y84457252D01*
X-35260462Y84434831D01*
X-35262622Y84428902D01*
X-35246337Y84420522D01*
X-35208196Y84404061D01*
X-35153267Y84381616D01*
X-35086616Y84355284D01*
X-35058584Y84344432D01*
X-34987972Y84316592D01*
X-34926432Y84291096D01*
X-34879275Y84270237D01*
X-34851812Y84256307D01*
X-34847713Y84253377D01*
X-34836474Y84230551D01*
X-34825903Y84189988D01*
X-34821179Y84161558D01*
X-34816832Y84116032D01*
X-34819683Y84093044D01*
X-34830426Y84087091D01*
X-34830576Y84087099D01*
X-34849163Y84092727D01*
X-34890068Y84107826D01*
X-34949063Y84130749D01*
X-35021921Y84159842D01*
X-35104414Y84193456D01*
X-35130538Y84204229D01*
X-35411162Y84320264D01*
X-35612635Y84287409D01*
X-35686327Y84275166D01*
X-35750308Y84264114D01*
X-35798968Y84255251D01*
X-35826696Y84249581D01*
X-35830331Y84248568D01*
X-35839040Y84258519D01*
X-35848691Y84287772D01*
X-35857454Y84326979D01*
X-35863502Y84366794D01*
X-35865006Y84397870D01*
X-35861903Y84409976D01*
X-35846710Y84414148D01*
X-35808427Y84422185D01*
X-35752324Y84433045D01*
X-35683673Y84445684D01*
X-35660326Y84449861D01*
X-35463695Y84484799D01*
X-35216637Y84705036D01*
X-35133545Y84778609D01*
X-35069185Y84833988D01*
X-35021185Y84872548D01*
X-34987171Y84895663D01*
X-34964768Y84904707D01*
X-34951603Y84901053D01*
G37*
G36*
X-30358851Y81683148D02*
G01*
X-30297591Y81680550D01*
X-30247002Y81674076D01*
X-30198774Y81661931D01*
X-30144597Y81642320D01*
X-30076160Y81613449D01*
X-30039349Y81597332D01*
X-29815960Y81511469D01*
X-29590059Y81448396D01*
X-29366449Y81409193D01*
X-29149934Y81394940D01*
X-29138442Y81394901D01*
X-28965355Y81394901D01*
X-29077302Y81321409D01*
X-29218684Y81214231D01*
X-29353596Y81084259D01*
X-29476808Y80937457D01*
X-29583089Y80779785D01*
X-29634688Y80686148D01*
X-29660306Y80636340D01*
X-29680694Y80598302D01*
X-29692717Y80577813D01*
X-29694523Y80575831D01*
X-29709171Y80579018D01*
X-29745579Y80586554D01*
X-29797290Y80597108D01*
X-29827479Y80603225D01*
X-30004819Y80642690D01*
X-30183138Y80689154D01*
X-30357523Y80740964D01*
X-30523057Y80796470D01*
X-30674827Y80854022D01*
X-30807919Y80911970D01*
X-30917416Y80968663D01*
X-30919802Y80970046D01*
X-30973912Y80994853D01*
X-31048194Y81019840D01*
X-31134147Y81042710D01*
X-31223266Y81061165D01*
X-31296172Y81071776D01*
X-31371294Y81073181D01*
X-31450024Y81063278D01*
X-31523223Y81044136D01*
X-31581753Y81017827D01*
X-31603120Y81002217D01*
X-31626489Y80982938D01*
X-31633141Y80982212D01*
X-31625471Y80997073D01*
X-31605875Y81024555D01*
X-31576748Y81061690D01*
X-31540486Y81105512D01*
X-31499483Y81153056D01*
X-31456137Y81201354D01*
X-31412842Y81247439D01*
X-31372344Y81288008D01*
X-31242869Y81400736D01*
X-31107115Y81493715D01*
X-30967323Y81568415D01*
X-30844266Y81620778D01*
X-30726485Y81655944D01*
X-30603854Y81676121D01*
X-30466248Y81683519D01*
X-30439094Y81683664D01*
X-30358851Y81683148D01*
G37*
G36*
X-27702900Y79870714D02*
G01*
X-27695599Y79852518D01*
X-27687585Y79816162D01*
X-27684298Y79795697D01*
X-27674807Y79729127D01*
X-27835615Y79699062D01*
X-27899790Y79686787D01*
X-27952540Y79676174D01*
X-27988050Y79668428D01*
X-28000473Y79664895D01*
X-27999071Y79650244D01*
X-27993106Y79610890D01*
X-27983184Y79550445D01*
X-27969913Y79472518D01*
X-27953900Y79380721D01*
X-27935751Y79278664D01*
X-27932396Y79259990D01*
X-27914187Y79156113D01*
X-27898521Y79061454D01*
X-27885934Y78979703D01*
X-27876963Y78914553D01*
X-27872145Y78869694D01*
X-27872016Y78848819D01*
X-27872486Y78847933D01*
X-27893080Y78839348D01*
X-27931255Y78830491D01*
X-27952582Y78826991D01*
X-27993936Y78822353D01*
X-28015319Y78825612D01*
X-28025052Y78839359D01*
X-28028040Y78850493D01*
X-28032582Y78873316D01*
X-28041422Y78920282D01*
X-28053790Y78987202D01*
X-28068916Y79069887D01*
X-28086029Y79164148D01*
X-28101636Y79250652D01*
X-28119789Y79349925D01*
X-28136776Y79439737D01*
X-28151820Y79516229D01*
X-28164145Y79575542D01*
X-28172977Y79613816D01*
X-28177283Y79627071D01*
X-28194504Y79628388D01*
X-28233759Y79624687D01*
X-28288882Y79616705D01*
X-28342284Y79607353D01*
X-28405511Y79596131D01*
X-28457564Y79588115D01*
X-28492432Y79584150D01*
X-28504035Y79584564D01*
X-28508438Y79601450D01*
X-28512522Y79637327D01*
X-28514159Y79661471D01*
X-28517904Y79731999D01*
X-28114958Y79805581D01*
X-28010931Y79824235D01*
X-27916234Y79840562D01*
X-27834521Y79853984D01*
X-27769448Y79863923D01*
X-27724669Y79869802D01*
X-27703840Y79871042D01*
X-27702900Y79870714D01*
G37*
G36*
X-25366353Y84051379D02*
G01*
X-25277954Y83816937D01*
X-25179524Y83607127D01*
X-25069310Y83419017D01*
X-24945560Y83249674D01*
X-24806521Y83096164D01*
X-24779882Y83070129D01*
X-24639148Y82935050D01*
X-24735353Y82801774D01*
X-24846930Y82651964D01*
X-24971560Y82492956D01*
X-25101122Y82335049D01*
X-25135558Y82294334D01*
X-25181191Y82239336D01*
X-25223617Y82185715D01*
X-25256717Y82141321D01*
X-25269220Y82122908D01*
X-25328992Y82016705D01*
X-25389568Y81887257D01*
X-25448931Y81739966D01*
X-25505062Y81580231D01*
X-25555943Y81413451D01*
X-25599557Y81245026D01*
X-25603218Y81229269D01*
X-25619379Y81160566D01*
X-25633693Y81102612D01*
X-25644763Y81060865D01*
X-25651189Y81040782D01*
X-25651737Y81039897D01*
X-25657123Y81050802D01*
X-25667734Y81085121D01*
X-25682281Y81138233D01*
X-25699471Y81205518D01*
X-25709503Y81246553D01*
X-25750359Y81421274D01*
X-25783190Y81574598D01*
X-25808779Y81712532D01*
X-25827908Y81841079D01*
X-25841360Y81966245D01*
X-25849919Y82094036D01*
X-25854368Y82230454D01*
X-25855505Y82366289D01*
X-25854455Y82505191D01*
X-25850790Y82620507D01*
X-25843635Y82717379D01*
X-25832115Y82800949D01*
X-25815355Y82876361D01*
X-25792480Y82948757D01*
X-25762614Y83023279D01*
X-25732518Y83089113D01*
X-25673342Y83225796D01*
X-25615814Y83381196D01*
X-25562306Y83547206D01*
X-25515192Y83715717D01*
X-25476842Y83878623D01*
X-25449632Y84027816D01*
X-25442688Y84079385D01*
X-25425342Y84225421D01*
X-25366353Y84051379D01*
G37*
G36*
X-23038726Y84984102D02*
G01*
X-22998730Y84979657D01*
X-22936675Y84972244D01*
X-22855799Y84962264D01*
X-22759339Y84950113D01*
X-22650534Y84936193D01*
X-22542068Y84922135D01*
X-22034788Y84855992D01*
X-22034788Y84810985D01*
X-22037686Y84762532D01*
X-22043172Y84724058D01*
X-22051556Y84682138D01*
X-22456911Y84735944D01*
X-22562997Y84749912D01*
X-22660857Y84762582D01*
X-22746542Y84773458D01*
X-22816107Y84782047D01*
X-22865604Y84787856D01*
X-22891087Y84790390D01*
X-22892535Y84790456D01*
X-22905034Y84788784D01*
X-22914598Y84780127D01*
X-22922514Y84760029D01*
X-22930070Y84724037D01*
X-22938554Y84667695D01*
X-22947456Y84600482D01*
X-22960349Y84501033D01*
X-22970293Y84426556D01*
X-22978061Y84373482D01*
X-22984425Y84338242D01*
X-22990158Y84317268D01*
X-22996034Y84306992D01*
X-23002826Y84303844D01*
X-23011306Y84304257D01*
X-23011613Y84304289D01*
X-23041142Y84307363D01*
X-23082844Y84311717D01*
X-23088924Y84312353D01*
X-23123616Y84318432D01*
X-23142003Y84326430D01*
X-23142890Y84328400D01*
X-23141048Y84347733D01*
X-23135968Y84389737D01*
X-23128313Y84449524D01*
X-23118751Y84522208D01*
X-23107947Y84602902D01*
X-23096565Y84686721D01*
X-23085273Y84768776D01*
X-23074736Y84844182D01*
X-23065618Y84908052D01*
X-23058587Y84955500D01*
X-23054306Y84981638D01*
X-23053425Y84985180D01*
X-23038726Y84984102D01*
G37*
G36*
X-27364595Y81629322D02*
G01*
X-27436961Y81511211D01*
X-27503519Y81370125D01*
X-27562390Y81211601D01*
X-27611696Y81041174D01*
X-27649557Y80864383D01*
X-27669259Y80731387D01*
X-27678834Y80650705D01*
X-27817746Y80620055D01*
X-27926028Y80596976D01*
X-28022078Y80578708D01*
X-28111812Y80564675D01*
X-28201145Y80554303D01*
X-28295993Y80547015D01*
X-28402271Y80542238D01*
X-28525895Y80539395D01*
X-28661813Y80537982D01*
X-29064759Y80535311D01*
X-29235480Y80475200D01*
X-29370133Y80424797D01*
X-29478098Y80377661D01*
X-29561172Y80332932D01*
X-29617022Y80293291D01*
X-29662696Y80254859D01*
X-29611295Y80367968D01*
X-29551825Y80489638D01*
X-29481510Y80618719D01*
X-29406659Y80744224D01*
X-29333582Y80855168D01*
X-29322463Y80870852D01*
X-29208897Y81017735D01*
X-29097006Y81138177D01*
X-28983970Y81234164D01*
X-28866969Y81307684D01*
X-28743183Y81360723D01*
X-28609791Y81395269D01*
X-28568272Y81402206D01*
X-28410886Y81426963D01*
X-28251936Y81454619D01*
X-28094904Y81484383D01*
X-27943273Y81515464D01*
X-27800525Y81547071D01*
X-27670145Y81578414D01*
X-27555613Y81608700D01*
X-27460413Y81637141D01*
X-27388028Y81662944D01*
X-27355452Y81677621D01*
X-27315492Y81698247D01*
X-27364595Y81629322D01*
G37*
G36*
X-32408548Y82864845D02*
G01*
X-32303967Y82849616D01*
X-32206844Y82825198D01*
X-32111987Y82789518D01*
X-32014202Y82740500D01*
X-31908297Y82676072D01*
X-31789080Y82594158D01*
X-31741473Y82559675D01*
X-31528381Y82408007D01*
X-31311113Y82261575D01*
X-31095511Y82124086D01*
X-30887417Y81999250D01*
X-30692672Y81890777D01*
X-30664881Y81876098D01*
X-30523700Y81802109D01*
X-30664881Y81785676D01*
X-30853861Y81751329D01*
X-31032217Y81692903D01*
X-31202487Y81609183D01*
X-31367208Y81498951D01*
X-31505753Y81382584D01*
X-31601024Y81295038D01*
X-31793571Y81425811D01*
X-32018820Y81585566D01*
X-32217219Y81740585D01*
X-32388481Y81890606D01*
X-32532317Y82035370D01*
X-32648440Y82174613D01*
X-32701959Y82251162D01*
X-32785491Y82368259D01*
X-32869725Y82459860D01*
X-32959443Y82528958D01*
X-33059427Y82578548D01*
X-33174459Y82611625D01*
X-33308703Y82631124D01*
X-33410822Y82640787D01*
X-33310085Y82692563D01*
X-33114885Y82779156D01*
X-32919953Y82837670D01*
X-32722803Y82868678D01*
X-32525779Y82872960D01*
X-32408548Y82864845D01*
G37*
G36*
X-34037657Y87460551D02*
G01*
X-33877943Y87359307D01*
X-33724100Y87282728D01*
X-33577595Y87231395D01*
X-33439895Y87205886D01*
X-33385726Y87203019D01*
X-33329567Y87201090D01*
X-33286306Y87197100D01*
X-33262464Y87191766D01*
X-33259805Y87189204D01*
X-33267870Y87165504D01*
X-33289792Y87124598D01*
X-33321877Y87072093D01*
X-33360435Y87013596D01*
X-33401774Y86954714D01*
X-33442201Y86901055D01*
X-33476985Y86859372D01*
X-33527023Y86809541D01*
X-33591056Y86753621D01*
X-33658551Y86700578D01*
X-33689433Y86678534D01*
X-33824942Y86571979D01*
X-33938567Y86451799D01*
X-34032849Y86314572D01*
X-34110324Y86156873D01*
X-34145668Y86063157D01*
X-34192478Y85926973D01*
X-34221946Y86053430D01*
X-34279062Y86359009D01*
X-34309545Y86668900D01*
X-34314700Y86849065D01*
X-34311768Y87002853D01*
X-34301574Y87132901D01*
X-34283192Y87243544D01*
X-34255693Y87339119D01*
X-34218150Y87423962D01*
X-34177263Y87491444D01*
X-34146418Y87536598D01*
X-34037657Y87460551D01*
G37*
G36*
X-25939528Y86038376D02*
G01*
X-25937806Y86021297D01*
X-25939528Y86019188D01*
X-25948083Y86021164D01*
X-25949122Y86028782D01*
X-25943857Y86040627D01*
X-25939528Y86038376D01*
G37*
G36*
X-32156412Y84239509D02*
G01*
X-32154690Y84222431D01*
X-32156412Y84220321D01*
X-32164967Y84222297D01*
X-32166006Y84229915D01*
X-32160740Y84241761D01*
X-32156412Y84239509D01*
G37*
G36*
X-32170803Y84282682D02*
G01*
X-32169081Y84265603D01*
X-32170803Y84263494D01*
X-32179358Y84265470D01*
X-32180397Y84273088D01*
X-32175131Y84284933D01*
X-32170803Y84282682D01*
G37*
G36*
X-28942436Y81402097D02*
G01*
X-28949632Y81394901D01*
X-28956827Y81402097D01*
X-28949632Y81409292D01*
X-28942436Y81402097D01*
G37*
D13*
%TO.C,C2*%
X8490000Y38662164D02*
X8490000Y38877836D01*
X9210000Y38662164D02*
X9210000Y38877836D01*
D14*
%TO.C,D1*%
X-34925000Y64340000D02*
G75*
G02*
X-35025000Y64340000I-50000J0D01*
G01*
X-35025000Y64340000D02*
G75*
G02*
X-34925000Y64340000I50000J0D01*
G01*
D17*
%TO.C,J4*%
X7162699Y-7874999D02*
G75*
G02*
X6400699Y-7874999I-381000J0D01*
G01*
X6400699Y-7874999D02*
G75*
G02*
X7162699Y-7874999I381000J0D01*
G01*
D15*
X19583299Y-11590460D02*
X19583299Y-7403400D01*
X19583299Y-7403400D02*
X17328038Y-7403400D01*
X15671958Y-7403400D02*
X15328040Y-7403400D01*
X13671960Y-7403400D02*
X13328038Y-7403400D01*
X11671958Y-7403400D02*
X11328040Y-7403400D01*
X9671960Y-7403400D02*
X7416699Y-7403400D01*
X9232040Y-15252000D02*
X17767958Y-15252000D01*
X7416699Y-7403400D02*
X7416699Y-11590460D01*
D13*
%TO.C,C59*%
X19824664Y34947500D02*
X20040336Y34947500D01*
X19824664Y34227500D02*
X20040336Y34227500D01*
%TO.C,C31*%
X40715000Y691252D02*
X40715000Y-731252D01*
X42535000Y691252D02*
X42535000Y-731252D01*
%TO.C,R18*%
X49415000Y24162258D02*
X49415000Y23687742D01*
X50460000Y24162258D02*
X50460000Y23687742D01*
%TO.C,C10*%
X2827164Y57573442D02*
X3042836Y57573442D01*
X2827164Y56853442D02*
X3042836Y56853442D01*
%TO.C,C47*%
X-10365000Y10958336D02*
X-10365000Y10742664D01*
X-11085000Y10958336D02*
X-11085000Y10742664D01*
%TO.C,C34*%
X47238748Y6650000D02*
X48661252Y6650000D01*
X47238748Y4830000D02*
X48661252Y4830000D01*
%TO.C,R2*%
X-4843641Y48580000D02*
X-4536359Y48580000D01*
X-4843641Y47820000D02*
X-4536359Y47820000D01*
%TO.C,L2*%
X3420000Y91425000D02*
G75*
G02*
X-3820000Y91425000I-3620000J0D01*
G01*
X-3820000Y91425000D02*
G75*
G02*
X3420000Y91425000I3620000J0D01*
G01*
%TO.C,C53*%
X32410000Y-14009420D02*
X32410000Y-14290580D01*
X31390000Y-14009420D02*
X31390000Y-14290580D01*
%TO.C,J2*%
X-14323474Y48600000D02*
X-13688474Y48600000D01*
X-14323474Y47965000D02*
X-14323474Y48600000D01*
%TO.C,U2*%
X-29475000Y66060000D02*
X-25715000Y66060000D01*
X-29475000Y59240000D02*
X-25715000Y59240000D01*
X-25715000Y66060000D02*
X-25715000Y64800000D01*
X-25715000Y59240000D02*
X-25715000Y60500000D01*
X-30755000Y65960000D02*
X-30995000Y66290000D01*
X-30515000Y66290000D01*
X-30755000Y65960000D01*
G36*
X-30755000Y65960000D02*
G01*
X-30995000Y66290000D01*
X-30515000Y66290000D01*
X-30755000Y65960000D01*
G37*
D14*
%TO.C,Q6*%
X4900000Y76540000D02*
X5050000Y76540000D01*
X4900000Y73240000D02*
X4900000Y76540000D01*
X5050000Y73240000D02*
X4900000Y73240000D01*
D12*
X5450000Y72090000D02*
X5450000Y72090000D01*
X5650000Y72090000D02*
X5650000Y72090000D01*
D14*
X8050000Y73240000D02*
X8200000Y73240000D01*
X8200000Y76540000D02*
X8050000Y76540000D01*
X8200000Y73240000D02*
X8200000Y76540000D01*
D12*
X5450000Y72090000D02*
G75*
G02*
X5650000Y72090000I100000J0D01*
G01*
X5650000Y72090000D02*
G75*
G02*
X5450000Y72090000I-100000J0D01*
G01*
D13*
%TO.C,C39*%
X26929664Y24290000D02*
X27145336Y24290000D01*
X26929664Y23570000D02*
X27145336Y23570000D01*
%TO.C,R29*%
X32422500Y-10837742D02*
X32422500Y-11312258D01*
X31377500Y-10837742D02*
X31377500Y-11312258D01*
%TO.C,R35*%
X12377500Y74287742D02*
X12377500Y74762258D01*
X13422500Y74287742D02*
X13422500Y74762258D01*
D12*
%TO.C,IC1*%
X11200000Y40250000D02*
X12650000Y40250000D01*
X13000000Y40250000D02*
X15300000Y40250000D01*
X13000000Y37250000D02*
X13000000Y40250000D01*
X15300000Y40250000D02*
X15300000Y37250000D01*
X15300000Y37250000D02*
X13000000Y37250000D01*
D13*
%TO.C,C1*%
X-5795336Y66025000D02*
X-5579664Y66025000D01*
X-5795336Y65305000D02*
X-5579664Y65305000D01*
%TO.C,R15*%
X21143639Y-8654999D02*
X20836357Y-8654999D01*
X21143639Y-7894999D02*
X20836357Y-7894999D01*
%TO.C,R14*%
X12377500Y71237742D02*
X12377500Y71712258D01*
X13422500Y71237742D02*
X13422500Y71712258D01*
%TO.C,L3*%
X25120000Y92975000D02*
G75*
G02*
X17880000Y92975000I-3620000J0D01*
G01*
X17880000Y92975000D02*
G75*
G02*
X25120000Y92975000I3620000J0D01*
G01*
%TO.C,R12*%
X15970000Y66225759D02*
X15970000Y66533041D01*
X16730000Y66225759D02*
X16730000Y66533041D01*
%TO.C,C29*%
X45315000Y691252D02*
X45315000Y-731252D01*
X47135000Y691252D02*
X47135000Y-731252D01*
%TO.C,C14*%
X-11472164Y53135000D02*
X-11687836Y53135000D01*
X-11472164Y52415000D02*
X-11687836Y52415000D01*
%TO.C,C43*%
X41402500Y36627097D02*
X41402500Y36908257D01*
X42422500Y36627097D02*
X42422500Y36908257D01*
D14*
%TO.C,Q3*%
X27375000Y10660000D02*
X33525000Y10660000D01*
X27375000Y5340000D02*
X33525000Y5340000D01*
D12*
X34450000Y6095000D02*
X34450000Y6095000D01*
X34650000Y6095000D02*
X34650000Y6095000D01*
X34450000Y6095000D02*
G75*
G02*
X34650000Y6095000I100000J0D01*
G01*
X34650000Y6095000D02*
G75*
G02*
X34450000Y6095000I-100000J0D01*
G01*
%TD*%
M02*
