%TF.GenerationSoftware,KiCad,Pcbnew,8.0.4*%
%TF.CreationDate,2025-01-22T16:43:02-08:00*%
%TF.ProjectId,acdc_stimulator,61636463-5f73-4746-996d-756c61746f72,rev?*%
%TF.SameCoordinates,PX43b5fc0PY92dda80*%
%TF.FileFunction,Copper,L1,Top*%
%TF.FilePolarity,Positive*%
%FSLAX46Y46*%
G04 Gerber Fmt 4.6, Leading zero omitted, Abs format (unit mm)*
G04 Created by KiCad (PCBNEW 8.0.4) date 2025-01-22 16:43:02*
%MOMM*%
%LPD*%
G01*
G04 APERTURE LIST*
G04 Aperture macros list*
%AMRoundRect*
0 Rectangle with rounded corners*
0 $1 Rounding radius*
0 $2 $3 $4 $5 $6 $7 $8 $9 X,Y pos of 4 corners*
0 Add a 4 corners polygon primitive as box body*
4,1,4,$2,$3,$4,$5,$6,$7,$8,$9,$2,$3,0*
0 Add four circle primitives for the rounded corners*
1,1,$1+$1,$2,$3*
1,1,$1+$1,$4,$5*
1,1,$1+$1,$6,$7*
1,1,$1+$1,$8,$9*
0 Add four rect primitives between the rounded corners*
20,1,$1+$1,$2,$3,$4,$5,0*
20,1,$1+$1,$4,$5,$6,$7,0*
20,1,$1+$1,$6,$7,$8,$9,0*
20,1,$1+$1,$8,$9,$2,$3,0*%
%AMFreePoly0*
4,1,9,-0.101600,0.190500,0.508000,0.190500,0.508000,-0.190500,-0.101600,-0.190500,-0.101600,-2.184400,-2.006600,-2.184400,-2.006600,0.203200,-0.101600,0.203200,-0.101600,0.190500,-0.101600,0.190500,$1*%
%AMFreePoly1*
4,1,7,0.508000,-1.511300,-0.101600,-1.511300,-0.101600,-0.190500,-0.508000,-0.190500,-0.508000,0.190500,0.508000,0.190500,0.508000,-1.511300,0.508000,-1.511300,$1*%
G04 Aperture macros list end*
%TA.AperFunction,SMDPad,CuDef*%
%ADD10R,6.500000X3.050000*%
%TD*%
%TA.AperFunction,SMDPad,CuDef*%
%ADD11R,0.450000X1.200000*%
%TD*%
%TA.AperFunction,SMDPad,CuDef*%
%ADD12R,2.350000X1.550000*%
%TD*%
%TA.AperFunction,SMDPad,CuDef*%
%ADD13R,1.450000X0.300000*%
%TD*%
%TA.AperFunction,SMDPad,CuDef*%
%ADD14R,2.740000X4.750000*%
%TD*%
%TA.AperFunction,SMDPad,CuDef*%
%ADD15RoundRect,0.140000X-0.170000X0.140000X-0.170000X-0.140000X0.170000X-0.140000X0.170000X0.140000X0*%
%TD*%
%TA.AperFunction,SMDPad,CuDef*%
%ADD16RoundRect,0.140000X-0.140000X-0.170000X0.140000X-0.170000X0.140000X0.170000X-0.140000X0.170000X0*%
%TD*%
%TA.AperFunction,ComponentPad*%
%ADD17C,1.530000*%
%TD*%
%TA.AperFunction,SMDPad,CuDef*%
%ADD18RoundRect,0.200000X0.275000X-0.200000X0.275000X0.200000X-0.275000X0.200000X-0.275000X-0.200000X0*%
%TD*%
%TA.AperFunction,SMDPad,CuDef*%
%ADD19RoundRect,0.135000X-0.135000X-0.185000X0.135000X-0.185000X0.135000X0.185000X-0.135000X0.185000X0*%
%TD*%
%TA.AperFunction,SMDPad,CuDef*%
%ADD20R,1.350000X4.600000*%
%TD*%
%TA.AperFunction,SMDPad,CuDef*%
%ADD21R,10.800000X9.400000*%
%TD*%
%TA.AperFunction,SMDPad,CuDef*%
%ADD22RoundRect,0.250000X1.000000X-1.750000X1.000000X1.750000X-1.000000X1.750000X-1.000000X-1.750000X0*%
%TD*%
%TA.AperFunction,SMDPad,CuDef*%
%ADD23RoundRect,0.250000X-0.650000X0.325000X-0.650000X-0.325000X0.650000X-0.325000X0.650000X0.325000X0*%
%TD*%
%TA.AperFunction,SMDPad,CuDef*%
%ADD24RoundRect,0.250000X-0.550000X1.250000X-0.550000X-1.250000X0.550000X-1.250000X0.550000X1.250000X0*%
%TD*%
%TA.AperFunction,SMDPad,CuDef*%
%ADD25RoundRect,0.135000X-0.185000X0.135000X-0.185000X-0.135000X0.185000X-0.135000X0.185000X0.135000X0*%
%TD*%
%TA.AperFunction,SMDPad,CuDef*%
%ADD26RoundRect,0.200000X-0.275000X0.200000X-0.275000X-0.200000X0.275000X-0.200000X0.275000X0.200000X0*%
%TD*%
%TA.AperFunction,SMDPad,CuDef*%
%ADD27RoundRect,0.075000X0.700000X0.075000X-0.700000X0.075000X-0.700000X-0.075000X0.700000X-0.075000X0*%
%TD*%
%TA.AperFunction,SMDPad,CuDef*%
%ADD28RoundRect,0.075000X0.075000X0.700000X-0.075000X0.700000X-0.075000X-0.700000X0.075000X-0.700000X0*%
%TD*%
%TA.AperFunction,SMDPad,CuDef*%
%ADD29RoundRect,0.250000X-0.325000X-0.650000X0.325000X-0.650000X0.325000X0.650000X-0.325000X0.650000X0*%
%TD*%
%TA.AperFunction,SMDPad,CuDef*%
%ADD30RoundRect,0.140000X0.170000X-0.140000X0.170000X0.140000X-0.170000X0.140000X-0.170000X-0.140000X0*%
%TD*%
%TA.AperFunction,SMDPad,CuDef*%
%ADD31RoundRect,0.100000X-0.100000X0.120000X-0.100000X-0.120000X0.100000X-0.120000X0.100000X0.120000X0*%
%TD*%
%TA.AperFunction,SMDPad,CuDef*%
%ADD32RoundRect,0.100000X-0.100000X0.130000X-0.100000X-0.130000X0.100000X-0.130000X0.100000X0.130000X0*%
%TD*%
%TA.AperFunction,SMDPad,CuDef*%
%ADD33RoundRect,0.250000X-0.312500X-0.625000X0.312500X-0.625000X0.312500X0.625000X-0.312500X0.625000X0*%
%TD*%
%TA.AperFunction,SMDPad,CuDef*%
%ADD34RoundRect,0.250000X-0.262500X-0.450000X0.262500X-0.450000X0.262500X0.450000X-0.262500X0.450000X0*%
%TD*%
%TA.AperFunction,SMDPad,CuDef*%
%ADD35RoundRect,0.140000X0.140000X0.170000X-0.140000X0.170000X-0.140000X-0.170000X0.140000X-0.170000X0*%
%TD*%
%TA.AperFunction,ComponentPad*%
%ADD36R,1.980000X3.960000*%
%TD*%
%TA.AperFunction,ComponentPad*%
%ADD37O,1.980000X3.960000*%
%TD*%
%TA.AperFunction,SMDPad,CuDef*%
%ADD38FreePoly0,270.000000*%
%TD*%
%TA.AperFunction,SMDPad,CuDef*%
%ADD39R,0.381000X1.016000*%
%TD*%
%TA.AperFunction,SMDPad,CuDef*%
%ADD40FreePoly1,270.000000*%
%TD*%
%TA.AperFunction,SMDPad,CuDef*%
%ADD41RoundRect,0.250000X0.250000X0.475000X-0.250000X0.475000X-0.250000X-0.475000X0.250000X-0.475000X0*%
%TD*%
%TA.AperFunction,SMDPad,CuDef*%
%ADD42RoundRect,0.135000X0.185000X-0.135000X0.185000X0.135000X-0.185000X0.135000X-0.185000X-0.135000X0*%
%TD*%
%TA.AperFunction,SMDPad,CuDef*%
%ADD43RoundRect,0.250000X-0.250000X-0.475000X0.250000X-0.475000X0.250000X0.475000X-0.250000X0.475000X0*%
%TD*%
%TA.AperFunction,SMDPad,CuDef*%
%ADD44R,1.000000X0.340000*%
%TD*%
%TA.AperFunction,SMDPad,CuDef*%
%ADD45R,0.500000X0.340000*%
%TD*%
%TA.AperFunction,SMDPad,CuDef*%
%ADD46R,0.800000X0.340000*%
%TD*%
%TA.AperFunction,SMDPad,CuDef*%
%ADD47R,1.710000X2.290000*%
%TD*%
%TA.AperFunction,SMDPad,CuDef*%
%ADD48R,1.500000X2.400000*%
%TD*%
%TA.AperFunction,SMDPad,CuDef*%
%ADD49R,1.400000X1.200000*%
%TD*%
%TA.AperFunction,SMDPad,CuDef*%
%ADD50RoundRect,0.218750X-0.218750X-0.256250X0.218750X-0.256250X0.218750X0.256250X-0.218750X0.256250X0*%
%TD*%
%TA.AperFunction,SMDPad,CuDef*%
%ADD51R,1.000000X0.800000*%
%TD*%
%TA.AperFunction,SMDPad,CuDef*%
%ADD52R,0.700000X1.500000*%
%TD*%
%TA.AperFunction,SMDPad,CuDef*%
%ADD53R,0.340000X1.000000*%
%TD*%
%TA.AperFunction,SMDPad,CuDef*%
%ADD54R,0.340000X0.500000*%
%TD*%
%TA.AperFunction,SMDPad,CuDef*%
%ADD55R,0.340000X0.800000*%
%TD*%
%TA.AperFunction,SMDPad,CuDef*%
%ADD56R,2.290000X1.710000*%
%TD*%
%TA.AperFunction,SMDPad,CuDef*%
%ADD57RoundRect,0.250000X0.450000X-0.262500X0.450000X0.262500X-0.450000X0.262500X-0.450000X-0.262500X0*%
%TD*%
%TA.AperFunction,ComponentPad*%
%ADD58C,1.524000*%
%TD*%
%TA.AperFunction,SMDPad,CuDef*%
%ADD59RoundRect,0.250000X0.625000X-0.312500X0.625000X0.312500X-0.625000X0.312500X-0.625000X-0.312500X0*%
%TD*%
%TA.AperFunction,SMDPad,CuDef*%
%ADD60RoundRect,0.135000X0.135000X0.185000X-0.135000X0.185000X-0.135000X-0.185000X0.135000X-0.185000X0*%
%TD*%
%TA.AperFunction,SMDPad,CuDef*%
%ADD61RoundRect,0.225000X0.250000X-0.225000X0.250000X0.225000X-0.250000X0.225000X-0.250000X-0.225000X0*%
%TD*%
%TA.AperFunction,SMDPad,CuDef*%
%ADD62RoundRect,0.100000X-0.130000X-0.100000X0.130000X-0.100000X0.130000X0.100000X-0.130000X0.100000X0*%
%TD*%
%TA.AperFunction,SMDPad,CuDef*%
%ADD63R,1.651000X2.845000*%
%TD*%
%TA.AperFunction,SMDPad,CuDef*%
%ADD64R,0.889000X0.305000*%
%TD*%
%TA.AperFunction,SMDPad,CuDef*%
%ADD65RoundRect,0.150000X-0.512500X-0.150000X0.512500X-0.150000X0.512500X0.150000X-0.512500X0.150000X0*%
%TD*%
%TA.AperFunction,SMDPad,CuDef*%
%ADD66R,1.000000X0.900000*%
%TD*%
%TA.AperFunction,ComponentPad*%
%ADD67C,2.000000*%
%TD*%
%TA.AperFunction,SMDPad,CuDef*%
%ADD68RoundRect,0.250000X0.475000X-0.250000X0.475000X0.250000X-0.475000X0.250000X-0.475000X-0.250000X0*%
%TD*%
%TA.AperFunction,SMDPad,CuDef*%
%ADD69R,0.355600X1.473200*%
%TD*%
%TA.AperFunction,SMDPad,CuDef*%
%ADD70R,5.283200X2.413000*%
%TD*%
%TA.AperFunction,SMDPad,CuDef*%
%ADD71RoundRect,0.218750X0.256250X-0.218750X0.256250X0.218750X-0.256250X0.218750X-0.256250X-0.218750X0*%
%TD*%
%TA.AperFunction,SMDPad,CuDef*%
%ADD72RoundRect,0.375000X-0.375000X0.625000X-0.375000X-0.625000X0.375000X-0.625000X0.375000X0.625000X0*%
%TD*%
%TA.AperFunction,SMDPad,CuDef*%
%ADD73RoundRect,0.500000X-1.400000X0.500000X-1.400000X-0.500000X1.400000X-0.500000X1.400000X0.500000X0*%
%TD*%
%TA.AperFunction,SMDPad,CuDef*%
%ADD74RoundRect,0.225000X-0.225000X-0.250000X0.225000X-0.250000X0.225000X0.250000X-0.225000X0.250000X0*%
%TD*%
%TA.AperFunction,SMDPad,CuDef*%
%ADD75R,1.473200X0.355600*%
%TD*%
%TA.AperFunction,ComponentPad*%
%ADD76C,2.600000*%
%TD*%
%TA.AperFunction,SMDPad,CuDef*%
%ADD77R,1.150000X0.300000*%
%TD*%
%TA.AperFunction,ComponentPad*%
%ADD78O,2.100000X1.000000*%
%TD*%
%TA.AperFunction,ComponentPad*%
%ADD79O,1.600000X1.000000*%
%TD*%
%TA.AperFunction,SMDPad,CuDef*%
%ADD80RoundRect,0.250000X0.262500X0.450000X-0.262500X0.450000X-0.262500X-0.450000X0.262500X-0.450000X0*%
%TD*%
%TA.AperFunction,SMDPad,CuDef*%
%ADD81RoundRect,0.250000X0.312500X0.625000X-0.312500X0.625000X-0.312500X-0.625000X0.312500X-0.625000X0*%
%TD*%
%TA.AperFunction,SMDPad,CuDef*%
%ADD82R,2.200000X1.200000*%
%TD*%
%TA.AperFunction,SMDPad,CuDef*%
%ADD83R,6.400000X5.800000*%
%TD*%
%TA.AperFunction,SMDPad,CuDef*%
%ADD84RoundRect,0.100000X0.130000X0.100000X-0.130000X0.100000X-0.130000X-0.100000X0.130000X-0.100000X0*%
%TD*%
%TA.AperFunction,SMDPad,CuDef*%
%ADD85RoundRect,0.250000X0.650000X-0.325000X0.650000X0.325000X-0.650000X0.325000X-0.650000X-0.325000X0*%
%TD*%
%TA.AperFunction,SMDPad,CuDef*%
%ADD86RoundRect,0.250000X1.250000X0.550000X-1.250000X0.550000X-1.250000X-0.550000X1.250000X-0.550000X0*%
%TD*%
%TA.AperFunction,SMDPad,CuDef*%
%ADD87R,0.925000X0.500000*%
%TD*%
%TA.AperFunction,SMDPad,CuDef*%
%ADD88R,0.800000X0.600000*%
%TD*%
%TA.AperFunction,SMDPad,CuDef*%
%ADD89R,3.655000X4.410000*%
%TD*%
%TA.AperFunction,SMDPad,CuDef*%
%ADD90RoundRect,0.147500X-0.172500X0.147500X-0.172500X-0.147500X0.172500X-0.147500X0.172500X0.147500X0*%
%TD*%
%TA.AperFunction,SMDPad,CuDef*%
%ADD91R,1.498600X3.403600*%
%TD*%
%TA.AperFunction,SMDPad,CuDef*%
%ADD92R,0.990600X3.505200*%
%TD*%
%TA.AperFunction,SMDPad,CuDef*%
%ADD93RoundRect,0.225000X-0.250000X0.225000X-0.250000X-0.225000X0.250000X-0.225000X0.250000X0.225000X0*%
%TD*%
%TA.AperFunction,ConnectorPad*%
%ADD94C,0.787400*%
%TD*%
%TA.AperFunction,SMDPad,CuDef*%
%ADD95RoundRect,0.375000X-0.625000X-0.375000X0.625000X-0.375000X0.625000X0.375000X-0.625000X0.375000X0*%
%TD*%
%TA.AperFunction,SMDPad,CuDef*%
%ADD96RoundRect,0.500000X-0.500000X-1.400000X0.500000X-1.400000X0.500000X1.400000X-0.500000X1.400000X0*%
%TD*%
%TA.AperFunction,ViaPad*%
%ADD97C,0.650000*%
%TD*%
%TA.AperFunction,Conductor*%
%ADD98C,0.200000*%
%TD*%
%TA.AperFunction,Conductor*%
%ADD99C,0.500000*%
%TD*%
%TA.AperFunction,Conductor*%
%ADD100C,1.000000*%
%TD*%
%TA.AperFunction,Conductor*%
%ADD101C,0.300000*%
%TD*%
%TA.AperFunction,Conductor*%
%ADD102C,2.000000*%
%TD*%
%TA.AperFunction,Conductor*%
%ADD103C,0.160000*%
%TD*%
G04 APERTURE END LIST*
D10*
%TO.P,L8,2,2*%
%TO.N,+12V*%
X44400000Y-7675000D03*
%TO.P,L8,1,1*%
%TO.N,Net-(D5-K)*%
X44400000Y-13875000D03*
%TD*%
D11*
%TO.P,IC7,1,W*%
%TO.N,/POT_OUT*%
X19012500Y37487500D03*
%TO.P,IC7,2,VDD*%
%TO.N,+3.3V*%
X19662500Y37487500D03*
%TO.P,IC7,3,GND*%
%TO.N,GND*%
X20312500Y37487500D03*
%TO.P,IC7,4,CLK*%
%TO.N,/SPI_CLK*%
X20962500Y37487500D03*
%TO.P,IC7,5,SDI*%
%TO.N,/SPI_DI*%
X20962500Y39987500D03*
%TO.P,IC7,6,~{CS}*%
%TO.N,/POT_CS*%
X20312500Y39987500D03*
%TO.P,IC7,7,B*%
%TO.N,GND*%
X19662500Y39987500D03*
%TO.P,IC7,8,A*%
%TO.N,/FG_OUT*%
X19012500Y39987500D03*
%TD*%
D12*
%TO.P,D5,2,A*%
%TO.N,GND*%
X54650000Y-13925000D03*
%TO.P,D5,1,K*%
%TO.N,Net-(D5-K)*%
X50350000Y-13925000D03*
%TD*%
D13*
%TO.P,IC3,1,OVLO*%
%TO.N,-60V*%
X49237500Y12500000D03*
%TO.P,IC3,2,VPRG*%
%TO.N,unconnected-(IC3-VPRG-Pad2)*%
X49237500Y13000000D03*
%TO.P,IC3,3,SENSE+*%
%TO.N,/DCDC_inverter/SENSE+*%
X49237500Y13500000D03*
%TO.P,IC3,4,SENSE-*%
%TO.N,GND*%
X49237500Y14000000D03*
%TO.P,IC3,5,SS*%
%TO.N,Net-(IC3-SS)*%
X49237500Y14500000D03*
%TO.P,IC3,6,VFB*%
%TO.N,/DCDC_inverter/VFB*%
X49237500Y15000000D03*
%TO.P,IC3,7,ITH*%
%TO.N,/DCDC_inverter/ITH*%
X49237500Y15500000D03*
%TO.P,IC3,8,MODE*%
%TO.N,/DCDC_inverter/INTVCC*%
X49237500Y16000000D03*
%TO.P,IC3,9,VOUT-_1*%
%TO.N,-60V*%
X49237500Y16500000D03*
%TO.P,IC3,10,VOUT-_2*%
X49237500Y17000000D03*
%TO.P,IC3,11,CLKOUT*%
%TO.N,unconnected-(IC3-CLKOUT-Pad11)*%
X49237500Y17500000D03*
%TO.P,IC3,12,GND_1*%
%TO.N,GND*%
X49237500Y18000000D03*
%TO.P,IC3,13,PLLIN*%
X49237500Y18500000D03*
%TO.P,IC3,14,PGOOD*%
%TO.N,Net-(IC3-PGOOD)*%
X49237500Y19000000D03*
%TO.P,IC3,15,VOUT-_3*%
%TO.N,-60V*%
X49237500Y19500000D03*
%TO.P,IC3,16,NC*%
%TO.N,unconnected-(IC3-NC-Pad16)*%
X49237500Y20000000D03*
%TO.P,IC3,17,FREQ*%
%TO.N,-60V*%
X49237500Y20500000D03*
%TO.P,IC3,18,DRVSET*%
%TO.N,/DCDC_inverter/INTVCC*%
X49237500Y21000000D03*
%TO.P,IC3,19,DRVUV*%
X49237500Y21500000D03*
%TO.P,IC3,20,TG*%
%TO.N,/DCDC_inverter/TG*%
X43387500Y21500000D03*
%TO.P,IC3,21,SW*%
%TO.N,/DCDC_inverter/SW*%
X43387500Y21000000D03*
%TO.P,IC3,22,BOOST*%
%TO.N,/DCDC_inverter/BOOST*%
X43387500Y20500000D03*
%TO.P,IC3,23,NP_1*%
%TO.N,unconnected-(IC3-NP_1-Pad23)*%
X43387500Y20000000D03*
%TO.P,IC3,24,BG*%
%TO.N,/DCDC_inverter/BG*%
X43387500Y19500000D03*
%TO.P,IC3,25,NP_2*%
%TO.N,unconnected-(IC3-NP_2-Pad25)*%
X43387500Y19000000D03*
%TO.P,IC3,26,DRVCC*%
%TO.N,/DCDC_inverter/DRVCC*%
X43387500Y18500000D03*
%TO.P,IC3,27,NP_3*%
%TO.N,unconnected-(IC3-NP_3-Pad27)*%
X43387500Y18000000D03*
%TO.P,IC3,28,NDRV*%
%TO.N,/DCDC_inverter/NDRV*%
X43387500Y17500000D03*
%TO.P,IC3,29,NP_4*%
%TO.N,unconnected-(IC3-NP_4-Pad29)*%
X43387500Y17000000D03*
%TO.P,IC3,30,VIN*%
%TO.N,+60V*%
X43387500Y16500000D03*
%TO.P,IC3,31,NP_5*%
%TO.N,unconnected-(IC3-NP_5-Pad31)*%
X43387500Y16000000D03*
%TO.P,IC3,32,EXTVCC*%
%TO.N,-60V*%
X43387500Y15500000D03*
%TO.P,IC3,33,NP_6*%
%TO.N,unconnected-(IC3-NP_6-Pad33)*%
X43387500Y15000000D03*
%TO.P,IC3,34,RUN*%
%TO.N,+60V*%
X43387500Y14500000D03*
%TO.P,IC3,35,NP_7*%
%TO.N,unconnected-(IC3-NP_7-Pad35)*%
X43387500Y14000000D03*
%TO.P,IC3,36,PHASMD*%
%TO.N,unconnected-(IC3-PHASMD-Pad36)*%
X43387500Y13500000D03*
%TO.P,IC3,37,ILIM*%
%TO.N,unconnected-(IC3-ILIM-Pad37)*%
X43387500Y13000000D03*
%TO.P,IC3,38,INTVCC*%
%TO.N,/DCDC_inverter/INTVCC*%
X43387500Y12500000D03*
D14*
%TO.P,IC3,39,GND_2*%
%TO.N,GND*%
X46312500Y17000000D03*
%TD*%
D15*
%TO.P,C27,1*%
%TO.N,-60V*%
X41737500Y13400000D03*
%TO.P,C27,2*%
%TO.N,/DCDC_inverter/INTVCC*%
X41737500Y12440000D03*
%TD*%
D16*
%TO.P,C42,1*%
%TO.N,+60V*%
X26557500Y25900000D03*
%TO.P,C42,2*%
%TO.N,-60V*%
X27517500Y25900000D03*
%TD*%
D17*
%TO.P,J9,2*%
%TO.N,/pelt_cooler/OUT1*%
X-18500001Y-13287700D03*
%TO.P,J9,1*%
%TO.N,/pelt_cooler/OUT2*%
X-21500001Y-13287700D03*
%TD*%
D18*
%TO.P,R17,1*%
%TO.N,Net-(IC3-PGOOD)*%
X52587500Y20000000D03*
%TO.P,R17,2*%
%TO.N,+5V*%
X52587500Y21650000D03*
%TD*%
D19*
%TO.P,R1,1*%
%TO.N,/I2C_SCL*%
X-7300000Y48200000D03*
%TO.P,R1,2*%
%TO.N,+3.3V*%
X-6280000Y48200000D03*
%TD*%
D20*
%TO.P,Q9,1,G*%
%TO.N,Net-(Q11-D_1)*%
X29600000Y84850000D03*
D21*
%TO.P,Q9,2,D*%
%TO.N,/V_DC2*%
X32150000Y94000000D03*
D20*
%TO.P,Q9,3,S*%
%TO.N,/V_DC*%
X34700000Y84850000D03*
%TD*%
D19*
%TO.P,R3,1*%
%TO.N,Net-(SW2-B)*%
X-3270000Y41760000D03*
%TO.P,R3,2*%
%TO.N,/BOOT0*%
X-2250000Y41760000D03*
%TD*%
D22*
%TO.P,C38,1*%
%TO.N,+60V*%
X51112500Y30250000D03*
%TO.P,C38,2*%
%TO.N,GND*%
X51112500Y38250000D03*
%TD*%
D23*
%TO.P,C33,1*%
%TO.N,-60V*%
X37005000Y1455000D03*
%TO.P,C33,2*%
%TO.N,GND*%
X37005000Y-1495000D03*
%TD*%
D24*
%TO.P,C3,1*%
%TO.N,+5V*%
X6450000Y37150000D03*
%TO.P,C3,2*%
%TO.N,GND*%
X6450000Y32750000D03*
%TD*%
D25*
%TO.P,R7,1*%
%TO.N,/DAC_AC*%
X28081900Y52430000D03*
%TO.P,R7,2*%
%TO.N,/LTC6090_AC/+IN*%
X28081900Y51410000D03*
%TD*%
D26*
%TO.P,R28,2*%
%TO.N,Net-(IC4-VFB)*%
X39150000Y-8825000D03*
%TO.P,R28,1*%
%TO.N,+12V*%
X39150000Y-7175000D03*
%TD*%
D23*
%TO.P,C30,1*%
%TO.N,-60V*%
X43925000Y1455000D03*
%TO.P,C30,2*%
%TO.N,GND*%
X43925000Y-1495000D03*
%TD*%
D27*
%TO.P,U1,1,VBAT*%
%TO.N,+3.3V*%
X575000Y53925000D03*
%TO.P,U1,2,PC13*%
%TO.N,/VAC_ON*%
X575000Y54425000D03*
%TO.P,U1,3,PC14*%
%TO.N,/H_Bridge_IN1*%
X575000Y54925000D03*
%TO.P,U1,4,PC15*%
%TO.N,/H_Bridge_IN2*%
X575000Y55425000D03*
%TO.P,U1,5,PF0*%
%TO.N,/HSE_IN*%
X575000Y55925000D03*
%TO.P,U1,6,PF1*%
%TO.N,/HSE_OUT*%
X575000Y56425000D03*
%TO.P,U1,7,PG10*%
%TO.N,/NRST*%
X575000Y56925000D03*
%TO.P,U1,8,PC0*%
%TO.N,/THERM_FB*%
X575000Y57425000D03*
%TO.P,U1,9,PC1*%
%TO.N,/H_BRIDGE_FAULT*%
X575000Y57925000D03*
%TO.P,U1,10,PC2*%
%TO.N,/INCUBATOR_PELT_OUT*%
X575000Y58425000D03*
%TO.P,U1,11,PC3*%
%TO.N,/H_BRIDGE_IN1*%
X575000Y58925000D03*
%TO.P,U1,12,PA0*%
%TO.N,/ADC_IN*%
X575000Y59425000D03*
%TO.P,U1,13,PA1*%
%TO.N,unconnected-(U1-PA1-Pad13)*%
X575000Y59925000D03*
%TO.P,U1,14,PA2*%
%TO.N,unconnected-(U1-PA2-Pad14)*%
X575000Y60425000D03*
%TO.P,U1,15,VSS*%
%TO.N,GND*%
X575000Y60925000D03*
%TO.P,U1,16,VDD*%
%TO.N,+3.3V*%
X575000Y61425000D03*
D28*
%TO.P,U1,17,PA3*%
%TO.N,unconnected-(U1-PA3-Pad17)*%
X-1350000Y63350000D03*
%TO.P,U1,18,PA4*%
%TO.N,/DAC_DC*%
X-1850000Y63350000D03*
%TO.P,U1,19,PA5*%
%TO.N,/DAC_AC*%
X-2350000Y63350000D03*
%TO.P,U1,20,PA6*%
%TO.N,/DAC_FB*%
X-2850000Y63350000D03*
%TO.P,U1,21,PA7*%
%TO.N,unconnected-(U1-PA7-Pad21)*%
X-3350000Y63350000D03*
%TO.P,U1,22,PC4*%
%TO.N,/H_BRIDGE_IN2*%
X-3850000Y63350000D03*
%TO.P,U1,23,PC5*%
%TO.N,/SOLEN_OUT*%
X-4350000Y63350000D03*
%TO.P,U1,24,PB0*%
%TO.N,unconnected-(U1-PB0-Pad24)*%
X-4850000Y63350000D03*
%TO.P,U1,25,PB1*%
%TO.N,unconnected-(U1-PB1-Pad25)*%
X-5350000Y63350000D03*
%TO.P,U1,26,PB2*%
%TO.N,unconnected-(U1-PB2-Pad26)*%
X-5850000Y63350000D03*
%TO.P,U1,27,VSSA*%
%TO.N,GND*%
X-6350000Y63350000D03*
%TO.P,U1,28,VREF+*%
%TO.N,/VREF*%
X-6850000Y63350000D03*
%TO.P,U1,29,VDDA*%
%TO.N,+3.3VA*%
X-7350000Y63350000D03*
%TO.P,U1,30,PB10*%
%TO.N,unconnected-(U1-PB10-Pad30)*%
X-7850000Y63350000D03*
%TO.P,U1,31,VSS*%
%TO.N,GND*%
X-8350000Y63350000D03*
%TO.P,U1,32,VDD*%
%TO.N,+3.3V*%
X-8850000Y63350000D03*
D27*
%TO.P,U1,33,PB11*%
%TO.N,unconnected-(U1-PB11-Pad33)*%
X-10775000Y61425000D03*
%TO.P,U1,34,PB12*%
%TO.N,unconnected-(U1-PB12-Pad34)*%
X-10775000Y60925000D03*
%TO.P,U1,35,PB13*%
%TO.N,unconnected-(U1-PB13-Pad35)*%
X-10775000Y60425000D03*
%TO.P,U1,36,PB14*%
%TO.N,unconnected-(U1-PB14-Pad36)*%
X-10775000Y59925000D03*
%TO.P,U1,37,PB15*%
%TO.N,unconnected-(U1-PB15-Pad37)*%
X-10775000Y59425000D03*
%TO.P,U1,38,PC6*%
%TO.N,unconnected-(U1-PC6-Pad38)*%
X-10775000Y58925000D03*
%TO.P,U1,39,PC7*%
%TO.N,unconnected-(U1-PC7-Pad39)*%
X-10775000Y58425000D03*
%TO.P,U1,40,PC8*%
%TO.N,unconnected-(U1-PC8-Pad40)*%
X-10775000Y57925000D03*
%TO.P,U1,41,PC9*%
%TO.N,unconnected-(U1-PC9-Pad41)*%
X-10775000Y57425000D03*
%TO.P,U1,42,PA8*%
%TO.N,/FG_CS*%
X-10775000Y56925000D03*
%TO.P,U1,43,PA9*%
%TO.N,/POT_CS*%
X-10775000Y56425000D03*
%TO.P,U1,44,PA10*%
%TO.N,unconnected-(U1-PA10-Pad44)*%
X-10775000Y55925000D03*
%TO.P,U1,45,PA11*%
%TO.N,/USB_D-*%
X-10775000Y55425000D03*
%TO.P,U1,46,PA12*%
%TO.N,/USB_D+*%
X-10775000Y54925000D03*
%TO.P,U1,47,VSS*%
%TO.N,GND*%
X-10775000Y54425000D03*
%TO.P,U1,48,VDD*%
%TO.N,+3.3V*%
X-10775000Y53925000D03*
D28*
%TO.P,U1,49,PA13*%
%TO.N,/SWDIO*%
X-8850000Y52000000D03*
%TO.P,U1,50,PA14*%
%TO.N,/SWCLK*%
X-8350000Y52000000D03*
%TO.P,U1,51,PA15*%
%TO.N,/I2C_SCL*%
X-7850000Y52000000D03*
%TO.P,U1,52,PC10*%
%TO.N,/SPI_CLK*%
X-7350000Y52000000D03*
%TO.P,U1,53,PC11*%
%TO.N,/SPI_DI*%
X-6850000Y52000000D03*
%TO.P,U1,54,PC12*%
%TO.N,/SPI_DO*%
X-6350000Y52000000D03*
%TO.P,U1,55,PD2*%
%TO.N,unconnected-(U1-PD2-Pad55)*%
X-5850000Y52000000D03*
%TO.P,U1,56,PB3*%
%TO.N,/SWO*%
X-5350000Y52000000D03*
%TO.P,U1,57,PB4*%
%TO.N,unconnected-(U1-PB4-Pad57)*%
X-4850000Y52000000D03*
%TO.P,U1,58,PB5*%
%TO.N,unconnected-(U1-PB5-Pad58)*%
X-4350000Y52000000D03*
%TO.P,U1,59,PB6*%
%TO.N,unconnected-(U1-PB6-Pad59)*%
X-3850000Y52000000D03*
%TO.P,U1,60,PB7*%
%TO.N,/I2C_SDA*%
X-3350000Y52000000D03*
%TO.P,U1,61,PB8*%
%TO.N,/BOOT0*%
X-2850000Y52000000D03*
%TO.P,U1,62,PB9*%
%TO.N,unconnected-(U1-PB9-Pad62)*%
X-2350000Y52000000D03*
%TO.P,U1,63,VSS*%
%TO.N,GND*%
X-1850000Y52000000D03*
%TO.P,U1,64,VDD*%
%TO.N,+3.3V*%
X-1350000Y52000000D03*
%TD*%
D29*
%TO.P,C54,2*%
%TO.N,GND*%
X52700000Y-10975000D03*
%TO.P,C54,1*%
%TO.N,+12V*%
X49750000Y-10975000D03*
%TD*%
D30*
%TO.P,C13,1*%
%TO.N,+3.3V*%
X-9850000Y63550000D03*
%TO.P,C13,2*%
%TO.N,GND*%
X-9850000Y64510000D03*
%TD*%
D31*
%TO.P,R27,2*%
%TO.N,Net-(U7-IPROPI2)*%
X-17850000Y10590500D03*
D32*
%TO.P,R27,1*%
%TO.N,GND*%
X-17850000Y11250500D03*
%TD*%
D16*
%TO.P,C20,1*%
%TO.N,+3.3V*%
X-7800000Y70775000D03*
%TO.P,C20,2*%
%TO.N,GND*%
X-6840000Y70775000D03*
%TD*%
D33*
%TO.P,R20,1*%
%TO.N,/DCDC_inverter/VFB*%
X54800000Y12555000D03*
%TO.P,R20,2*%
%TO.N,Net-(R20-Pad2)*%
X57725000Y12555000D03*
%TD*%
D34*
%TO.P,R10,1*%
%TO.N,Net-(R10-Pad1)*%
X34850000Y54924640D03*
%TO.P,R10,2*%
%TO.N,/LTC6090_AC/OUT*%
X36675000Y54924640D03*
%TD*%
D30*
%TO.P,C6,1*%
%TO.N,+5V*%
X9850000Y39250000D03*
%TO.P,C6,2*%
%TO.N,Net-(IC1-COMP)*%
X9850000Y40210000D03*
%TD*%
D35*
%TO.P,C15,1*%
%TO.N,+3.3V*%
X-850000Y50250000D03*
%TO.P,C15,2*%
%TO.N,GND*%
X-1810000Y50250000D03*
%TD*%
D30*
%TO.P,C26,1*%
%TO.N,/DCDC_inverter/BOOST*%
X41737500Y20300000D03*
%TO.P,C26,2*%
%TO.N,/DCDC_inverter/SW*%
X41737500Y21260000D03*
%TD*%
D36*
%TO.P,J1,1,Pin_1*%
%TO.N,+60V*%
X30377500Y37485000D03*
D37*
%TO.P,J1,2,Pin_2*%
%TO.N,GND*%
X35377500Y37485000D03*
%TD*%
D38*
%TO.P,MOSFET1,8,8*%
%TO.N,/pelt_cooler/Incubator Peltier Cooler*%
X-3343800Y-169500D03*
D39*
%TO.P,MOSFET1,7,7*%
X-4004200Y-169500D03*
%TO.P,MOSFET1,6,6*%
X-4664600Y-169500D03*
%TO.P,MOSFET1,5,5*%
X-5325000Y-169500D03*
%TO.P,MOSFET1,4,4*%
%TO.N,/INCUBATOR_PELT_OUT*%
X-5325000Y2827700D03*
%TO.P,MOSFET1,3,3*%
%TO.N,GND*%
X-4664600Y2827700D03*
%TO.P,MOSFET1,2,2*%
X-4004200Y2827700D03*
D40*
%TO.P,MOSFET1,1,1*%
X-3343800Y2827700D03*
%TD*%
D30*
%TO.P,C4,1*%
%TO.N,GND*%
X9850000Y37350000D03*
%TO.P,C4,2*%
%TO.N,Net-(IC1-CAP{slash}2.5V)*%
X9850000Y38310000D03*
%TD*%
D16*
%TO.P,C44,1*%
%TO.N,+60V*%
X26577500Y21600000D03*
%TO.P,C44,2*%
%TO.N,-60V*%
X27537500Y21600000D03*
%TD*%
D41*
%TO.P,C45,1*%
%TO.N,Net-(C45-Pad1)*%
X56075000Y19655000D03*
%TO.P,C45,2*%
%TO.N,-60V*%
X54175000Y19655000D03*
%TD*%
D23*
%TO.P,C32,1*%
%TO.N,-60V*%
X39325000Y1455000D03*
%TO.P,C32,2*%
%TO.N,GND*%
X39325000Y-1495000D03*
%TD*%
D42*
%TO.P,R21,1*%
%TO.N,/DCDC_inverter/ITH*%
X54225000Y17105000D03*
%TO.P,R21,2*%
%TO.N,Net-(C45-Pad1)*%
X54225000Y18125000D03*
%TD*%
D34*
%TO.P,R9,1*%
%TO.N,/POT_OUT*%
X31325000Y54924640D03*
%TO.P,R9,2*%
%TO.N,Net-(R10-Pad1)*%
X33150000Y54924640D03*
%TD*%
D43*
%TO.P,C16,1*%
%TO.N,+5V*%
X-31275000Y57950000D03*
%TO.P,C16,2*%
%TO.N,GND*%
X-29375000Y57950000D03*
%TD*%
D44*
%TO.P,Q1,1,S_1*%
%TO.N,/V_AC*%
X43102500Y53499640D03*
%TO.P,Q1,2,S_2*%
X43102500Y52849640D03*
D45*
X42852500Y53174640D03*
D44*
%TO.P,Q1,3,S_3*%
X43102500Y52199640D03*
D45*
X42852500Y52524640D03*
D44*
%TO.P,Q1,4,G*%
%TO.N,/VAC_ON*%
X43102500Y51549640D03*
D46*
%TO.P,Q1,5,D_1*%
%TO.N,/LTC6090_AC/OUT*%
X40112500Y51549640D03*
%TO.P,Q1,6,D_2*%
X40112500Y52199640D03*
%TO.P,Q1,7,D_3*%
X40112500Y52849640D03*
D47*
%TO.P,Q1,8,D_4*%
X41362500Y52524640D03*
D46*
X40112500Y53499640D03*
%TD*%
D16*
%TO.P,C5,1*%
%TO.N,/VREF*%
X-6147500Y66765000D03*
%TO.P,C5,2*%
%TO.N,GND*%
X-5187500Y66765000D03*
%TD*%
D48*
%TO.P,L4,1,1*%
%TO.N,/DCDC_inverter/SENSE+*%
X43887500Y7000000D03*
%TO.P,L4,2,2*%
%TO.N,/DCDC_inverter/SW*%
X37587500Y7000000D03*
%TD*%
D49*
%TO.P,Y1,1,1*%
%TO.N,/HSE_IN*%
X6400000Y55325000D03*
%TO.P,Y1,2,2*%
%TO.N,Net-(Y1-Pad2)*%
X8600000Y55325000D03*
%TO.P,Y1,3,3*%
%TO.N,/HSE_OUT*%
X8600000Y57025000D03*
%TO.P,Y1,4,4*%
%TO.N,Net-(Y1-Pad2)*%
X6400000Y57025000D03*
%TD*%
D50*
%TO.P,F1,1*%
%TO.N,Net-(F1-Pad1)*%
X-34487500Y59350000D03*
%TO.P,F1,2*%
%TO.N,+5V*%
X-32912500Y59350000D03*
%TD*%
D30*
%TO.P,C9,1*%
%TO.N,+3.3V*%
X2400000Y54015000D03*
%TO.P,C9,2*%
%TO.N,GND*%
X2400000Y54975000D03*
%TD*%
D29*
%TO.P,C35,1*%
%TO.N,-60V*%
X46475000Y3440000D03*
%TO.P,C35,2*%
%TO.N,GND*%
X49425000Y3440000D03*
%TD*%
D51*
%TO.P,SW2,*%
%TO.N,*%
X-9150000Y39210000D03*
X-9150000Y37000000D03*
X-1850000Y39210000D03*
X-1850000Y37000000D03*
D52*
%TO.P,SW2,1,A*%
%TO.N,GND*%
X-7750000Y39860000D03*
%TO.P,SW2,2,B*%
%TO.N,Net-(SW2-B)*%
X-4750000Y39860000D03*
%TO.P,SW2,3,C*%
%TO.N,+3.3V*%
X-3250000Y39860000D03*
%TD*%
D53*
%TO.P,Q11,1,S_1*%
%TO.N,GND*%
X30325000Y76895000D03*
%TO.P,Q11,2,S_2*%
X29675000Y76895000D03*
D54*
X30000000Y77145000D03*
D53*
%TO.P,Q11,3,S_3*%
X29025000Y76895000D03*
D54*
X29350000Y77145000D03*
D53*
%TO.P,Q11,4,G*%
%TO.N,/H_Bridge_IN2*%
X28375000Y76895000D03*
D55*
%TO.P,Q11,5,D_1*%
%TO.N,Net-(Q11-D_1)*%
X28375000Y79885000D03*
%TO.P,Q11,6,D_2*%
X29025000Y79885000D03*
%TO.P,Q11,7,D_3*%
X29675000Y79885000D03*
D56*
%TO.P,Q11,8,D_4*%
X29350000Y78635000D03*
D55*
X30325000Y79885000D03*
%TD*%
D57*
%TO.P,R13,1*%
%TO.N,Net-(C24-Pad1)*%
X42478100Y61227500D03*
%TO.P,R13,2*%
%TO.N,GND*%
X42478100Y63052500D03*
%TD*%
D19*
%TO.P,R4,1*%
%TO.N,/PWR_LED_K*%
X-35895000Y65050000D03*
%TO.P,R4,2*%
%TO.N,GND*%
X-34875000Y65050000D03*
%TD*%
D58*
%TO.P,J7,2,2*%
%TO.N,+12V*%
X-31150002Y-11887700D03*
%TO.P,J7,1,1*%
%TO.N,/CO2 Solenoid*%
X-33690002Y-11887700D03*
%TD*%
D35*
%TO.P,C51,2*%
%TO.N,+12V*%
X-12960000Y375000D03*
%TO.P,C51,1*%
%TO.N,/pelt_cooler/VCP*%
X-12000000Y375000D03*
%TD*%
D59*
%TO.P,R16,1*%
%TO.N,/DCDC_inverter/SENSE+*%
X52550000Y10442500D03*
%TO.P,R16,2*%
%TO.N,GND*%
X52550000Y13367500D03*
%TD*%
D60*
%TO.P,R23,1*%
%TO.N,/V_DC*%
X33675000Y80785000D03*
%TO.P,R23,2*%
%TO.N,Net-(Q11-D_1)*%
X32655000Y80785000D03*
%TD*%
D61*
%TO.P,C40,1*%
%TO.N,+60V*%
X44912500Y35967677D03*
%TO.P,C40,2*%
%TO.N,GND*%
X44912500Y37517677D03*
%TD*%
D62*
%TO.P,R6,1*%
%TO.N,Net-(J3-CC2)*%
X-34007500Y52550000D03*
%TO.P,R6,2*%
%TO.N,GND*%
X-33367500Y52550000D03*
%TD*%
D63*
%TO.P,IC4,17,GND_3*%
%TO.N,GND*%
X36295000Y-12625000D03*
D64*
%TO.P,IC4,16,GND_2*%
X34190000Y-14375000D03*
%TO.P,IC4,14,RUN*%
%TO.N,+60V*%
X34190000Y-13375000D03*
%TO.P,IC4,12,OVLO*%
%TO.N,GND*%
X34190000Y-12375000D03*
%TO.P,IC4,11,ISET*%
%TO.N,unconnected-(IC4-ISET-Pad11)*%
X34190000Y-11875000D03*
%TO.P,IC4,10,SS*%
%TO.N,Net-(IC4-SS)*%
X34190000Y-11375000D03*
%TO.P,IC4,9,VFB*%
%TO.N,Net-(IC4-VFB)*%
X34190000Y-10875000D03*
%TO.P,IC4,8,GND_1*%
%TO.N,GND*%
X38400000Y-10875000D03*
%TO.P,IC4,7,VPRG1*%
%TO.N,Net-(IC4-SS)*%
X38400000Y-11375000D03*
%TO.P,IC4,6,VPRG2*%
X38400000Y-11875000D03*
%TO.P,IC4,5,FBO*%
%TO.N,unconnected-(IC4-FBO-Pad5)*%
X38400000Y-12375000D03*
%TO.P,IC4,3,VIN*%
%TO.N,+60V*%
X38400000Y-13375000D03*
%TO.P,IC4,1,SW*%
%TO.N,Net-(D5-K)*%
X38400000Y-14375000D03*
%TD*%
D17*
%TO.P,J8,2*%
%TO.N,+12V*%
X399999Y-13290500D03*
%TO.P,J8,1*%
%TO.N,/pelt_cooler/Incubator Peltier Cooler*%
X-2600001Y-13290500D03*
%TD*%
D65*
%TO.P,U3,1,I/O1*%
%TO.N,Net-(J3-D--PadA7)*%
X-34212500Y56100000D03*
%TO.P,U3,2,GND*%
%TO.N,GND*%
X-34212500Y55150000D03*
%TO.P,U3,3,I/O2*%
%TO.N,Net-(J3-D+-PadA6)*%
X-34212500Y54200000D03*
%TO.P,U3,4,I/O2*%
%TO.N,/USB_D+*%
X-31937500Y54200000D03*
%TO.P,U3,5,VBUS*%
%TO.N,+5V*%
X-31937500Y55150000D03*
%TO.P,U3,6,I/O1*%
%TO.N,/USB_D-*%
X-31937500Y56100000D03*
%TD*%
D29*
%TO.P,C37,1*%
%TO.N,-60V*%
X46475000Y8040000D03*
%TO.P,C37,2*%
%TO.N,GND*%
X49425000Y8040000D03*
%TD*%
D66*
%TO.P,SW1,1,1*%
%TO.N,GND*%
X-11900000Y42200000D03*
X-11900000Y38100000D03*
%TO.P,SW1,2,2*%
%TO.N,/NRST*%
X-13500000Y42200000D03*
X-13500000Y38100000D03*
%TD*%
D67*
%TO.P,C24,1*%
%TO.N,Net-(C24-Pad1)*%
X39641900Y61615000D03*
%TO.P,C24,2*%
%TO.N,/ADC_IN*%
X34641900Y61615000D03*
%TD*%
D68*
%TO.P,C41,1*%
%TO.N,/DCDC_inverter/ITH*%
X52625000Y15905000D03*
%TO.P,C41,2*%
%TO.N,-60V*%
X52625000Y17805000D03*
%TD*%
D53*
%TO.P,Q7,1,S_1*%
%TO.N,GND*%
X2025000Y80815000D03*
%TO.P,Q7,2,S_2*%
X1375000Y80815000D03*
D54*
X1700000Y81065000D03*
D53*
%TO.P,Q7,3,S_3*%
X725000Y80815000D03*
D54*
X1050000Y81065000D03*
D53*
%TO.P,Q7,4,G*%
%TO.N,/H_Bridge_IN2*%
X75000Y80815000D03*
D55*
%TO.P,Q7,5,D_1*%
%TO.N,/V_DC1*%
X75000Y83805000D03*
%TO.P,Q7,6,D_2*%
X725000Y83805000D03*
%TO.P,Q7,7,D_3*%
X1375000Y83805000D03*
D56*
%TO.P,Q7,8,D_4*%
X1050000Y82555000D03*
D55*
X2025000Y83805000D03*
%TD*%
D69*
%TO.P,U7,24,GND*%
%TO.N,GND*%
X-10725003Y2788500D03*
D70*
X-14300002Y5709500D03*
D69*
%TO.P,U7,23,CPL*%
%TO.N,/pelt_cooler/CPL*%
X-11375004Y2788500D03*
%TO.P,U7,22,CPH*%
%TO.N,/pelt_cooler/CPH*%
X-12025003Y2788500D03*
%TO.P,U7,21,VCP*%
%TO.N,/pelt_cooler/VCP*%
X-12675004Y2788500D03*
%TO.P,U7,20,VM*%
%TO.N,+12V*%
X-13325003Y2788500D03*
%TO.P,U7,19,OUT1*%
%TO.N,/pelt_cooler/OUT1*%
X-13975004Y2788500D03*
%TO.P,U7,18,OUT1*%
X-14625003Y2788500D03*
%TO.P,U7,17,SRC*%
%TO.N,GND*%
X-15275001Y2788500D03*
%TO.P,U7,16,SRC*%
X-15925003Y2788500D03*
%TO.P,U7,15,OUT2*%
%TO.N,/pelt_cooler/OUT2*%
X-16575001Y2788500D03*
%TO.P,U7,14,OUT2*%
X-17225002Y2788500D03*
%TO.P,U7,13,VM*%
%TO.N,+12V*%
X-17875001Y2788500D03*
%TO.P,U7,12,IPROPI2*%
%TO.N,Net-(U7-IPROPI2)*%
X-17875001Y8630500D03*
%TO.P,U7,11,NSLEEP*%
%TO.N,/pelt_cooler/NSLEEP*%
X-17225000Y8630500D03*
%TO.P,U7,10,IPROPI1*%
%TO.N,Net-(U7-IPROPI1)*%
X-16575001Y8630500D03*
%TO.P,U7,9,DISABLE*%
%TO.N,Net-(U7-DISABLE)*%
X-15925000Y8630500D03*
%TO.P,U7,8,PH/IN2*%
%TO.N,/H_BRIDGE_IN1*%
X-15275001Y8630500D03*
%TO.P,U7,7,EN/IN1*%
%TO.N,/H_BRIDGE_IN2*%
X-14625000Y8630500D03*
%TO.P,U7,6,NOL*%
%TO.N,/pelt_cooler/DVDD*%
X-13975001Y8630500D03*
%TO.P,U7,5,NITRIP*%
X-13325000Y8630500D03*
%TO.P,U7,4,SR*%
%TO.N,GND*%
X-12675001Y8630500D03*
%TO.P,U7,3,MODE*%
%TO.N,/pelt_cooler/DVDD*%
X-12025000Y8630500D03*
%TO.P,U7,2,NFAULT*%
%TO.N,/H_BRIDGE_FAULT*%
X-11375002Y8630500D03*
%TO.P,U7,1,DVDD*%
%TO.N,/pelt_cooler/DVDD*%
X-10725003Y8630500D03*
%TD*%
%TO.P,U4,1,COM*%
%TO.N,unconnected-(U4-COM-Pad1)*%
X14424160Y69630600D03*
%TO.P,U4,2,GUARD*%
%TO.N,unconnected-(U4-GUARD-Pad2)*%
X15074400Y69630600D03*
%TO.P,U4,3,GUARD*%
%TO.N,unconnected-(U4-GUARD-Pad3)*%
X15724640Y69630600D03*
%TO.P,U4,4,-IN*%
%TO.N,/LTC6090_DC/-IN*%
X16374880Y69630600D03*
%TO.P,U4,5,+IN*%
%TO.N,/DAC_DC*%
X17025120Y69630600D03*
%TO.P,U4,6,GUARD*%
%TO.N,unconnected-(U4-GUARD-Pad6)*%
X17675360Y69630600D03*
%TO.P,U4,7,GUARD*%
%TO.N,unconnected-(U4-GUARD-Pad7)*%
X18325600Y69630600D03*
%TO.P,U4,8,V-*%
%TO.N,-60V*%
X18975840Y69630600D03*
%TO.P,U4,9,\u002ATFLAG*%
%TO.N,unconnected-(U4-\u002ATFLAG-Pad9)*%
X18975840Y75269400D03*
%TO.P,U4,10,GUARD*%
%TO.N,unconnected-(U4-GUARD-Pad10)*%
X18325600Y75269400D03*
%TO.P,U4,11,GUARD*%
%TO.N,unconnected-(U4-GUARD-Pad11)*%
X17675360Y75269400D03*
%TO.P,U4,12,OUT*%
%TO.N,/V_DC*%
X17025120Y75269400D03*
%TO.P,U4,13,GUARD*%
%TO.N,unconnected-(U4-GUARD-Pad13)*%
X16374880Y75269400D03*
%TO.P,U4,14,V+*%
%TO.N,+60V*%
X15724640Y75269400D03*
%TO.P,U4,15,GUARD*%
%TO.N,unconnected-(U4-GUARD-Pad15)*%
X15074400Y75269400D03*
%TO.P,U4,16,\u002AOD*%
%TO.N,unconnected-(U4-\u002AOD-Pad16)*%
X14424160Y75269400D03*
%TD*%
D71*
%TO.P,FB1,1*%
%TO.N,+3.3VA*%
X-9200000Y69200000D03*
%TO.P,FB1,2*%
%TO.N,+3.3V*%
X-9200000Y70775000D03*
%TD*%
D72*
%TO.P,Q2,3,S*%
%TO.N,GND*%
X-34875001Y7380500D03*
D73*
%TO.P,Q2,2,D*%
%TO.N,/CO2 Solenoid*%
X-32575001Y1080500D03*
D72*
X-32575001Y7380500D03*
%TO.P,Q2,1,G*%
%TO.N,/SOLEN_OUT*%
X-30275001Y7380500D03*
%TD*%
D74*
%TO.P,C8,1*%
%TO.N,+3.3V*%
X2450000Y52575000D03*
%TO.P,C8,2*%
%TO.N,GND*%
X4000000Y52575000D03*
%TD*%
D75*
%TO.P,U5,1,COM*%
%TO.N,unconnected-(U5-COM-Pad1)*%
X31062500Y53275840D03*
%TO.P,U5,2,GUARD*%
%TO.N,unconnected-(U5-GUARD-Pad2)*%
X31062500Y52625600D03*
%TO.P,U5,3,GUARD*%
%TO.N,unconnected-(U5-GUARD-Pad3)*%
X31062500Y51975360D03*
%TO.P,U5,4,-IN*%
%TO.N,/POT_OUT*%
X31062500Y51325120D03*
%TO.P,U5,5,+IN*%
%TO.N,/LTC6090_AC/+IN*%
X31062500Y50674880D03*
%TO.P,U5,6,GUARD*%
%TO.N,unconnected-(U5-GUARD-Pad6)*%
X31062500Y50024640D03*
%TO.P,U5,7,GUARD*%
%TO.N,unconnected-(U5-GUARD-Pad7)*%
X31062500Y49374400D03*
%TO.P,U5,8,V-*%
%TO.N,-60V*%
X31062500Y48724160D03*
%TO.P,U5,9,\u002ATFLAG*%
%TO.N,unconnected-(U5-\u002ATFLAG-Pad9)*%
X36701300Y48724160D03*
%TO.P,U5,10,GUARD*%
%TO.N,unconnected-(U5-GUARD-Pad10)*%
X36701300Y49374400D03*
%TO.P,U5,11,GUARD*%
%TO.N,unconnected-(U5-GUARD-Pad11)*%
X36701300Y50024640D03*
%TO.P,U5,12,OUT*%
%TO.N,/LTC6090_AC/OUT*%
X36701300Y50674880D03*
%TO.P,U5,13,GUARD*%
%TO.N,unconnected-(U5-GUARD-Pad13)*%
X36701300Y51325120D03*
%TO.P,U5,14,V+*%
%TO.N,+60V*%
X36701300Y51975360D03*
%TO.P,U5,15,GUARD*%
%TO.N,unconnected-(U5-GUARD-Pad15)*%
X36701300Y52625600D03*
%TO.P,U5,16,\u002AOD*%
%TO.N,unconnected-(U5-\u002AOD-Pad16)*%
X36701300Y53275840D03*
%TD*%
D16*
%TO.P,C19,1*%
%TO.N,+3.3VA*%
X-7800000Y69175000D03*
%TO.P,C19,2*%
%TO.N,GND*%
X-6840000Y69175000D03*
%TD*%
D36*
%TO.P,J6,1,Pin_1*%
%TO.N,Net-(J6-Pin_1)*%
X7150000Y107000000D03*
D37*
%TO.P,J6,2,Pin_2*%
%TO.N,Net-(J6-Pin_2)*%
X12150000Y107000000D03*
%TD*%
D76*
%TO.P,L1,1,1*%
%TO.N,/DAC_FB*%
X27478100Y61644760D03*
%TO.P,L1,2,2*%
%TO.N,/ADC_IN*%
X30478100Y61644760D03*
%TD*%
D68*
%TO.P,C18,1*%
%TO.N,+3.3V*%
X-33275000Y62850000D03*
%TO.P,C18,2*%
%TO.N,GND*%
X-33275000Y64750000D03*
%TD*%
D35*
%TO.P,C50,2*%
%TO.N,/pelt_cooler/CPH*%
X-10960000Y375000D03*
%TO.P,C50,1*%
%TO.N,/pelt_cooler/CPL*%
X-10000000Y375000D03*
%TD*%
D67*
%TO.P,C25,1*%
%TO.N,Net-(J6-Pin_2)*%
X44150000Y108000000D03*
%TO.P,C25,2*%
%TO.N,/V_AC*%
X44150000Y103000000D03*
%TD*%
D77*
%TO.P,J3,A1,GND*%
%TO.N,GND*%
X-36547500Y59500000D03*
%TO.P,J3,A4,VBUS*%
%TO.N,Net-(F1-Pad1)*%
X-36547500Y58700000D03*
%TO.P,J3,A5,CC1*%
%TO.N,Net-(J3-CC1)*%
X-36547500Y57400000D03*
%TO.P,J3,A6,D+*%
%TO.N,Net-(J3-D+-PadA6)*%
X-36547500Y56400000D03*
%TO.P,J3,A7,D-*%
%TO.N,Net-(J3-D--PadA7)*%
X-36547500Y55900000D03*
%TO.P,J3,A8*%
%TO.N,N/C*%
X-36547500Y54900000D03*
%TO.P,J3,A9,VBUS*%
%TO.N,Net-(F1-Pad1)*%
X-36547500Y53600000D03*
%TO.P,J3,A12,GND*%
%TO.N,GND*%
X-36547500Y52800000D03*
%TO.P,J3,B1,GND*%
X-36547500Y53100000D03*
%TO.P,J3,B4,VBUS*%
%TO.N,Net-(F1-Pad1)*%
X-36547500Y53900000D03*
%TO.P,J3,B5,CC2*%
%TO.N,Net-(J3-CC2)*%
X-36547500Y54400000D03*
%TO.P,J3,B6,D+*%
%TO.N,Net-(J3-D+-PadA6)*%
X-36547500Y55400000D03*
%TO.P,J3,B7,D-*%
%TO.N,Net-(J3-D--PadA7)*%
X-36547500Y56900000D03*
%TO.P,J3,B8*%
%TO.N,N/C*%
X-36547500Y57900000D03*
%TO.P,J3,B9,VBUS*%
%TO.N,Net-(F1-Pad1)*%
X-36547500Y58400000D03*
%TO.P,J3,B12,GND*%
%TO.N,GND*%
X-36547500Y59200000D03*
D78*
%TO.P,J3,S1,SHIELD*%
X-37112500Y60470000D03*
D79*
X-41292500Y60470000D03*
D78*
X-37112500Y51830000D03*
D79*
X-41292500Y51830000D03*
%TD*%
D35*
%TO.P,C23,2*%
%TO.N,GND*%
X13050000Y-5125000D03*
%TO.P,C23,1*%
%TO.N,+3.3V*%
X14010000Y-5125000D03*
%TD*%
D53*
%TO.P,Q10,1,S_1*%
%TO.N,GND*%
X23725000Y84095000D03*
%TO.P,Q10,2,S_2*%
X23075000Y84095000D03*
D54*
X23400000Y84345000D03*
D53*
%TO.P,Q10,3,S_3*%
X22425000Y84095000D03*
D54*
X22750000Y84345000D03*
D53*
%TO.P,Q10,4,G*%
%TO.N,/H_Bridge_IN1*%
X21775000Y84095000D03*
D55*
%TO.P,Q10,5,D_1*%
%TO.N,/V_DC2*%
X21775000Y87085000D03*
%TO.P,Q10,6,D_2*%
X22425000Y87085000D03*
%TO.P,Q10,7,D_3*%
X23075000Y87085000D03*
D56*
%TO.P,Q10,8,D_4*%
X22750000Y85835000D03*
D55*
X23725000Y87085000D03*
%TD*%
D80*
%TO.P,R11,1*%
%TO.N,/V_AC*%
X44237500Y57615000D03*
%TO.P,R11,2*%
%TO.N,Net-(C24-Pad1)*%
X42412500Y57615000D03*
%TD*%
D81*
%TO.P,R34,1*%
%TO.N,Net-(R20-Pad2)*%
X57725000Y10055000D03*
%TO.P,R34,2*%
%TO.N,GND*%
X54800000Y10055000D03*
%TD*%
D35*
%TO.P,C48,2*%
%TO.N,GND*%
X-23805000Y6330500D03*
%TO.P,C48,1*%
%TO.N,+12V*%
X-22845000Y6330500D03*
%TD*%
D58*
%TO.P,J5,2,2*%
%TO.N,/THERM_FB*%
X22659998Y-12574999D03*
%TO.P,J5,1,1*%
%TO.N,GND*%
X25199998Y-12574999D03*
%TD*%
D82*
%TO.P,Q5,1,G*%
%TO.N,/DCDC_inverter/NDRV*%
X36325000Y14020000D03*
D83*
%TO.P,Q5,2,D*%
%TO.N,+60V*%
X30025000Y16300000D03*
D82*
%TO.P,Q5,3,S*%
%TO.N,/DCDC_inverter/DRVCC*%
X36325000Y18580000D03*
%TD*%
D84*
%TO.P,C11,1*%
%TO.N,/HSE_OUT*%
X9020000Y58675000D03*
%TO.P,C11,2*%
%TO.N,GND*%
X8380000Y58675000D03*
%TD*%
D25*
%TO.P,R8,1*%
%TO.N,/LTC6090_AC/+IN*%
X28437500Y50234640D03*
%TO.P,R8,2*%
%TO.N,GND*%
X28437500Y49214640D03*
%TD*%
D42*
%TO.P,R22,1*%
%TO.N,/V_DC*%
X9950000Y76475000D03*
%TO.P,R22,2*%
%TO.N,Net-(Q6-D_1)*%
X9950000Y77495000D03*
%TD*%
D31*
%TO.P,R26,2*%
%TO.N,Net-(U7-IPROPI1)*%
X-16625000Y10570500D03*
D32*
%TO.P,R26,1*%
%TO.N,GND*%
X-16625000Y11230500D03*
%TD*%
D15*
%TO.P,C36,1*%
%TO.N,-60V*%
X48537500Y23830000D03*
%TO.P,C36,2*%
%TO.N,/DCDC_inverter/INTVCC*%
X48537500Y22870000D03*
%TD*%
D85*
%TO.P,C46,1*%
%TO.N,/DCDC_inverter/DRVCC*%
X40125000Y17905000D03*
%TO.P,C46,2*%
%TO.N,-60V*%
X40125000Y20855000D03*
%TD*%
D74*
%TO.P,C28,1*%
%TO.N,+3.3V*%
X19187500Y35837500D03*
%TO.P,C28,2*%
%TO.N,GND*%
X20737500Y35837500D03*
%TD*%
D30*
%TO.P,C17,1*%
%TO.N,+3.3VA*%
X-7400000Y65075000D03*
%TO.P,C17,2*%
%TO.N,GND*%
X-7400000Y66035000D03*
%TD*%
D86*
%TO.P,C52,2*%
%TO.N,GND*%
X-25225000Y2730500D03*
%TO.P,C52,1*%
%TO.N,+12V*%
X-20825000Y2730500D03*
%TD*%
D31*
%TO.P,R24,2*%
%TO.N,/pelt_cooler/NSLEEP*%
X-9625000Y9490500D03*
D32*
%TO.P,R24,1*%
%TO.N,/pelt_cooler/DVDD*%
X-9625000Y10150500D03*
%TD*%
D20*
%TO.P,Q8,1,G*%
%TO.N,Net-(Q6-D_1)*%
X7750000Y81475000D03*
D21*
%TO.P,Q8,2,D*%
%TO.N,/V_DC1*%
X10300000Y90625000D03*
D20*
%TO.P,Q8,3,S*%
%TO.N,/V_DC*%
X12850000Y81475000D03*
%TD*%
D62*
%TO.P,R5,1*%
%TO.N,Net-(J3-CC1)*%
X-34007500Y57750000D03*
%TO.P,R5,2*%
%TO.N,GND*%
X-33367500Y57750000D03*
%TD*%
D87*
%TO.P,Q4,1,S_1*%
%TO.N,-60V*%
X33315000Y-1705000D03*
%TO.P,Q4,2,S_2*%
X33315000Y-435000D03*
%TO.P,Q4,3,S_3*%
X33315000Y835000D03*
%TO.P,Q4,4,G*%
%TO.N,/DCDC_inverter/BG*%
X33315000Y2105000D03*
D88*
%TO.P,Q4,5,D_1*%
%TO.N,/DCDC_inverter/SW*%
X27525000Y2105000D03*
%TO.P,Q4,6,D_2*%
X27525000Y835000D03*
%TO.P,Q4,7,D_3*%
X27525000Y-435000D03*
%TO.P,Q4,8,D_4*%
X27525000Y-1705000D03*
D89*
%TO.P,Q4,9,D_5*%
X29750000Y200000D03*
%TD*%
D19*
%TO.P,R19,1*%
%TO.N,/DCDC_inverter/VFB*%
X54375000Y14305000D03*
%TO.P,R19,2*%
%TO.N,-60V*%
X55395000Y14305000D03*
%TD*%
D15*
%TO.P,C12,1*%
%TO.N,+3.3V*%
X2300000Y61375000D03*
%TO.P,C12,2*%
%TO.N,GND*%
X2300000Y60415000D03*
%TD*%
D35*
%TO.P,C49,2*%
%TO.N,GND*%
X-23825000Y7430500D03*
%TO.P,C49,1*%
%TO.N,+12V*%
X-22865000Y7430500D03*
%TD*%
D30*
%TO.P,C2,1*%
%TO.N,GND*%
X8850000Y38290000D03*
%TO.P,C2,2*%
%TO.N,+5V*%
X8850000Y39250000D03*
%TD*%
D90*
%TO.P,D1,1,K*%
%TO.N,/PWR_LED_K*%
X-34975000Y63735000D03*
%TO.P,D1,2,A*%
%TO.N,+3.3V*%
X-34975000Y62765000D03*
%TD*%
D91*
%TO.P,J4,6*%
%TO.N,N/C*%
X8150000Y-13625000D03*
%TO.P,J4,5*%
X18849998Y-13625000D03*
D92*
%TO.P,J4,4,4*%
%TO.N,/I2C_SDA*%
X16499998Y-7874999D03*
%TO.P,J4,3,3*%
%TO.N,+3.3V*%
X14500000Y-7874999D03*
%TO.P,J4,2,2*%
%TO.N,GND*%
X12499998Y-7874999D03*
%TO.P,J4,1,1*%
%TO.N,/I2C_SCL*%
X10500000Y-7874999D03*
%TD*%
D31*
%TO.P,R25,2*%
%TO.N,Net-(U7-DISABLE)*%
X-15825000Y10595500D03*
D32*
%TO.P,R25,1*%
%TO.N,GND*%
X-15825000Y11255500D03*
%TD*%
D16*
%TO.P,C59,1*%
%TO.N,+3.3V*%
X19452500Y34587500D03*
%TO.P,C59,2*%
%TO.N,GND*%
X20412500Y34587500D03*
%TD*%
D23*
%TO.P,C31,1*%
%TO.N,-60V*%
X41625000Y1455000D03*
%TO.P,C31,2*%
%TO.N,GND*%
X41625000Y-1495000D03*
%TD*%
D62*
%TO.P,C7,1*%
%TO.N,/HSE_IN*%
X5980000Y53675000D03*
%TO.P,C7,2*%
%TO.N,GND*%
X6620000Y53675000D03*
%TD*%
D26*
%TO.P,R18,1*%
%TO.N,Net-(IC3-SS)*%
X49937500Y24750000D03*
%TO.P,R18,2*%
%TO.N,/DCDC_inverter/INTVCC*%
X49937500Y23100000D03*
%TD*%
D16*
%TO.P,C10,1*%
%TO.N,/NRST*%
X2455000Y57213442D03*
%TO.P,C10,2*%
%TO.N,GND*%
X3415000Y57213442D03*
%TD*%
D15*
%TO.P,C47,2*%
%TO.N,/pelt_cooler/DVDD*%
X-10725000Y10370500D03*
%TO.P,C47,1*%
%TO.N,GND*%
X-10725000Y11330500D03*
%TD*%
D29*
%TO.P,C34,1*%
%TO.N,-60V*%
X46475000Y5740000D03*
%TO.P,C34,2*%
%TO.N,GND*%
X49425000Y5740000D03*
%TD*%
D19*
%TO.P,R2,1*%
%TO.N,+3.3V*%
X-5200000Y48200000D03*
%TO.P,R2,2*%
%TO.N,/I2C_SDA*%
X-4180000Y48200000D03*
%TD*%
D76*
%TO.P,L2,1,1*%
%TO.N,/V_DC1*%
X-200000Y89925000D03*
%TO.P,L2,2,2*%
%TO.N,Net-(J6-Pin_1)*%
X-200000Y92925000D03*
%TD*%
D93*
%TO.P,C53,2*%
%TO.N,GND*%
X31900000Y-14925000D03*
%TO.P,C53,1*%
%TO.N,+60V*%
X31900000Y-13375000D03*
%TD*%
D94*
%TO.P,J2,1,VCC*%
%TO.N,+3.3V*%
X-13688474Y47965000D03*
%TO.P,J2,2,SWDIO*%
%TO.N,/SWDIO*%
X-12418474Y47965000D03*
%TO.P,J2,3,~{RESET}*%
%TO.N,/NRST*%
X-13688474Y46695000D03*
%TO.P,J2,4,SWCLK*%
%TO.N,/SWCLK*%
X-12418474Y46695000D03*
%TO.P,J2,5,GND*%
%TO.N,GND*%
X-13688474Y45425000D03*
%TO.P,J2,6,SWO*%
%TO.N,/SWO*%
X-12418474Y45425000D03*
%TD*%
D95*
%TO.P,U2,1,GND*%
%TO.N,GND*%
X-30775000Y64950000D03*
%TO.P,U2,2,VO*%
%TO.N,+3.3V*%
X-30775000Y62650000D03*
D96*
X-24475000Y62650000D03*
D95*
%TO.P,U2,3,VI*%
%TO.N,+5V*%
X-30775000Y60350000D03*
%TD*%
D53*
%TO.P,Q6,1,S_1*%
%TO.N,GND*%
X7525000Y73505000D03*
%TO.P,Q6,2,S_2*%
X6875000Y73505000D03*
D54*
X7200000Y73755000D03*
D53*
%TO.P,Q6,3,S_3*%
X6225000Y73505000D03*
D54*
X6550000Y73755000D03*
D53*
%TO.P,Q6,4,G*%
%TO.N,/H_Bridge_IN1*%
X5575000Y73505000D03*
D55*
%TO.P,Q6,5,D_1*%
%TO.N,Net-(Q6-D_1)*%
X5575000Y76495000D03*
%TO.P,Q6,6,D_2*%
X6225000Y76495000D03*
%TO.P,Q6,7,D_3*%
X6875000Y76495000D03*
D56*
%TO.P,Q6,8,D_4*%
X6550000Y75245000D03*
D55*
X7525000Y76495000D03*
%TD*%
D16*
%TO.P,C39,1*%
%TO.N,+60V*%
X26557500Y23930000D03*
%TO.P,C39,2*%
%TO.N,-60V*%
X27517500Y23930000D03*
%TD*%
D26*
%TO.P,R29,2*%
%TO.N,GND*%
X31900000Y-11900000D03*
%TO.P,R29,1*%
%TO.N,Net-(IC4-VFB)*%
X31900000Y-10250000D03*
%TD*%
D18*
%TO.P,R35,1*%
%TO.N,Net-(R14-Pad2)*%
X12900000Y73700000D03*
%TO.P,R35,2*%
%TO.N,/V_DC*%
X12900000Y75350000D03*
%TD*%
D13*
%TO.P,IC1,1,COMP*%
%TO.N,Net-(IC1-COMP)*%
X11925000Y39750000D03*
%TO.P,IC1,2,VDD*%
%TO.N,+5V*%
X11925000Y39250000D03*
%TO.P,IC1,3,CAP/2.5V*%
%TO.N,Net-(IC1-CAP{slash}2.5V)*%
X11925000Y38750000D03*
%TO.P,IC1,4,DGND*%
%TO.N,GND*%
X11925000Y38250000D03*
%TO.P,IC1,5,MCLK*%
%TO.N,/HSE_OUT*%
X11925000Y37750000D03*
%TO.P,IC1,6,SDATA*%
%TO.N,/SPI_DO*%
X16375000Y37750000D03*
%TO.P,IC1,7,SCLK*%
%TO.N,/SPI_CLK*%
X16375000Y38250000D03*
%TO.P,IC1,8,FSYNC*%
%TO.N,/FG_CS*%
X16375000Y38750000D03*
%TO.P,IC1,9,AGND*%
%TO.N,GND*%
X16375000Y39250000D03*
%TO.P,IC1,10,VOUT*%
%TO.N,/FG_OUT*%
X16375000Y39750000D03*
%TD*%
D16*
%TO.P,C1,1*%
%TO.N,/VREF*%
X-6167500Y65665000D03*
%TO.P,C1,2*%
%TO.N,GND*%
X-5207500Y65665000D03*
%TD*%
D60*
%TO.P,R15,2*%
%TO.N,+3.3V*%
X20479998Y-8274999D03*
%TO.P,R15,1*%
%TO.N,/THERM_FB*%
X21499998Y-8274999D03*
%TD*%
D18*
%TO.P,R14,1*%
%TO.N,/LTC6090_DC/-IN*%
X12900000Y70650000D03*
%TO.P,R14,2*%
%TO.N,Net-(R14-Pad2)*%
X12900000Y72300000D03*
%TD*%
D76*
%TO.P,L3,1,1*%
%TO.N,/V_DC2*%
X21500000Y94475000D03*
%TO.P,L3,2,2*%
%TO.N,Net-(J6-Pin_2)*%
X21500000Y91475000D03*
%TD*%
D42*
%TO.P,R12,1*%
%TO.N,GND*%
X16350000Y65869400D03*
%TO.P,R12,2*%
%TO.N,/LTC6090_DC/-IN*%
X16350000Y66889400D03*
%TD*%
D23*
%TO.P,C29,1*%
%TO.N,-60V*%
X46225000Y1455000D03*
%TO.P,C29,2*%
%TO.N,GND*%
X46225000Y-1495000D03*
%TD*%
D35*
%TO.P,C14,1*%
%TO.N,+3.3V*%
X-11100000Y52775000D03*
%TO.P,C14,2*%
%TO.N,GND*%
X-12060000Y52775000D03*
%TD*%
D61*
%TO.P,C43,1*%
%TO.N,+60V*%
X41912500Y35992677D03*
%TO.P,C43,2*%
%TO.N,GND*%
X41912500Y37542677D03*
%TD*%
D87*
%TO.P,Q3,1,S_1*%
%TO.N,/DCDC_inverter/SW*%
X33315000Y6095000D03*
%TO.P,Q3,2,S_2*%
%TO.N,Net-(Q3-S_2)*%
X33315000Y7365000D03*
%TO.P,Q3,3,S_3*%
X33315000Y8635000D03*
%TO.P,Q3,4,G*%
%TO.N,/DCDC_inverter/TG*%
X33315000Y9905000D03*
D88*
%TO.P,Q3,5,D_1*%
%TO.N,+60V*%
X27525000Y9905000D03*
%TO.P,Q3,6,D_2*%
X27525000Y8635000D03*
%TO.P,Q3,7,D_3*%
X27525000Y7365000D03*
%TO.P,Q3,8,D_4*%
X27525000Y6095000D03*
D89*
%TO.P,Q3,9,D_5*%
X29750000Y8000000D03*
%TD*%
D97*
%TO.N,/THERM_FB*%
X23500000Y37400000D03*
X23500000Y40200000D03*
%TO.N,+5V*%
X22975000Y27800000D03*
X27800000Y27800000D03*
%TO.N,-60V*%
X33000000Y47175000D03*
%TO.N,+60V*%
X44912500Y35967677D03*
%TO.N,-60V*%
X33000000Y45700000D03*
X27517500Y25885000D03*
%TO.N,GND*%
X6050000Y32400000D03*
X42025000Y-1495000D03*
X54800000Y9705000D03*
X45387500Y38610000D03*
X12500000Y-8975000D03*
X42478100Y63052500D03*
X-39675000Y56900000D03*
X26450000Y-12150000D03*
X49487500Y39560000D03*
X37402500Y-1495000D03*
X47175000Y16105000D03*
X49425000Y5405000D03*
X52200000Y13355000D03*
X-41775000Y57675000D03*
X-24150000Y3175000D03*
X-6900000Y39450000D03*
X-31200000Y64925000D03*
X-26350000Y3150000D03*
X31900000Y-11900000D03*
X-10672202Y2788500D03*
X-24925000Y2375000D03*
X6500000Y73300000D03*
X-39175000Y56075000D03*
X-38825000Y55225000D03*
X7375000Y58750000D03*
X6450000Y31750000D03*
X47200000Y18955000D03*
X-41400000Y58575000D03*
X54300000Y-13975000D03*
X35850000Y-13675000D03*
X-6900000Y40300000D03*
X-13050000Y6400000D03*
X49425000Y3105000D03*
X23450000Y83900000D03*
X7730000Y53685000D03*
X6450000Y33050000D03*
X-41775000Y56125000D03*
X49425000Y3805000D03*
X-12675001Y9596562D03*
X3280000Y60435000D03*
X6800000Y33800000D03*
X45400000Y18955000D03*
X-26350000Y2375000D03*
X-12200000Y54000000D03*
X15124998Y39600000D03*
X-39200000Y52750000D03*
X-4197500Y65685000D03*
X-12075000Y6400000D03*
X-40550000Y53650000D03*
X-23805000Y6330500D03*
X12047498Y-5176999D03*
X24075000Y-12125000D03*
X-5870000Y69185000D03*
X-35225000Y6900000D03*
X54800000Y10480000D03*
X-15841014Y11340499D03*
X47175000Y17605000D03*
X-24925000Y3150000D03*
X43525000Y-1495000D03*
X16375360Y64925000D03*
X-28315000Y57525000D03*
X-16450000Y6450000D03*
X36725000Y-12625000D03*
X-16641014Y11315499D03*
X41225000Y-1495000D03*
X-40550000Y58575000D03*
X-38875000Y51775000D03*
X52787500Y39710000D03*
X7250000Y73300000D03*
X-40050000Y54375000D03*
X34190000Y-14375000D03*
X-7425000Y67020000D03*
X12500000Y-6575000D03*
X36725000Y-13675000D03*
X39725000Y-1495000D03*
X-5870000Y70835000D03*
X-35200000Y7950000D03*
X-11900000Y41100000D03*
X-11900000Y40150000D03*
X46275000Y18330000D03*
X41587500Y38660000D03*
X-1755000Y49255000D03*
X50687500Y37510000D03*
X-28315000Y58325000D03*
X-15327805Y2788500D03*
X-30350000Y64925000D03*
X-40950000Y52875000D03*
X6850000Y32400000D03*
X8850000Y38290000D03*
X-41800000Y52875000D03*
X49487500Y38760000D03*
X24775000Y-11425000D03*
X-39150000Y59375000D03*
X6050000Y33800000D03*
X52725000Y-10564997D03*
X-14775000Y5775000D03*
X-33675000Y64700000D03*
X49425000Y8405000D03*
X-15325000Y5075000D03*
X-12575000Y5725000D03*
X45475000Y17580000D03*
X30050000Y76700000D03*
X-4325000Y3050000D03*
X44587500Y38610000D03*
X49425000Y6105000D03*
X50737500Y40960000D03*
X-13625000Y5775000D03*
X-39700000Y60475000D03*
X52787500Y38910000D03*
X2400000Y54880000D03*
X36725000Y-11600000D03*
X46312500Y17000000D03*
X-40000000Y59375000D03*
X3600000Y51650000D03*
X4400000Y51650000D03*
X-34900000Y66045000D03*
X-41825000Y54475000D03*
X35875000Y-12625000D03*
X-39675000Y55225000D03*
X-40525000Y55275000D03*
X55060003Y-13975000D03*
X25575000Y-13750000D03*
X3448265Y58134823D03*
X20725000Y35850000D03*
X47250000Y15005000D03*
X49237500Y18324998D03*
X-39175000Y57675000D03*
X1750000Y80700000D03*
X-39725000Y51775000D03*
X36602500Y-1495000D03*
X-40050000Y52750000D03*
X-33665000Y65825000D03*
X31900000Y-14925000D03*
X-15325000Y6450000D03*
X-40925000Y56125000D03*
X12500000Y-7375000D03*
X-23825000Y7430500D03*
X28437500Y49214640D03*
X-5825000Y64775000D03*
X-14200000Y6425000D03*
X46625000Y-1495000D03*
X38925000Y-1495000D03*
X-34225000Y55150000D03*
X51537500Y40960000D03*
X-39625000Y53550000D03*
X-38775000Y53550000D03*
X-41750000Y59375000D03*
X-11900000Y39200000D03*
X25675000Y-11425000D03*
X22750000Y83900000D03*
X-4217500Y66800000D03*
X-40475000Y56925000D03*
X24050000Y-12950000D03*
X-40925000Y57675000D03*
X-40025000Y57675000D03*
X-41325000Y56925000D03*
X-12125000Y5050000D03*
X45825000Y-1495000D03*
X-41400000Y53650000D03*
X-14525000Y45400000D03*
X46300000Y15480000D03*
X12500000Y-8175000D03*
X-10710000Y11330500D03*
X1050000Y80700000D03*
X-39200000Y54375000D03*
X42387500Y38660000D03*
X-32865000Y65825000D03*
X44325000Y-1495000D03*
X-33252500Y57715497D03*
X-33252500Y52515497D03*
X29300000Y76700000D03*
X-3675000Y3050000D03*
X-39625000Y58600000D03*
X-40975000Y54475000D03*
X-25625000Y3150000D03*
X-25625000Y2375000D03*
X-32825000Y64700000D03*
X49425000Y7705000D03*
X-34500000Y7950000D03*
X-13060000Y52715000D03*
X-40025000Y56075000D03*
X51487500Y37510000D03*
X-13100000Y5075000D03*
X-34525000Y6900000D03*
X-10795000Y64475000D03*
X-38825000Y56900000D03*
X52925000Y13355000D03*
X26425000Y-12975000D03*
X45475000Y16105000D03*
X-15925000Y5775000D03*
X-41375000Y55275000D03*
X24750000Y-13750000D03*
X-24150000Y2325000D03*
X45375000Y15030000D03*
X35875000Y-11600000D03*
X52725000Y-11325000D03*
X-14275000Y5075000D03*
X-40900000Y59375000D03*
X38409500Y-10350000D03*
X-16425000Y5075000D03*
X-15872199Y2788500D03*
X-38850000Y60475000D03*
X-38775000Y58600000D03*
X-17866014Y11335499D03*
%TO.N,+60V*%
X15725000Y74025000D03*
%TO.N,+5V*%
X-31925000Y55150000D03*
X-31275000Y57950000D03*
%TO.N,+3.3V*%
X2450000Y52550000D03*
X-14525000Y47965000D03*
X-30775000Y62150000D03*
X14500000Y-6775000D03*
X-24475000Y60950000D03*
X-29925000Y62150000D03*
X-32725000Y63200000D03*
X-30775000Y63200000D03*
X-10800000Y63550000D03*
X-3250000Y39500000D03*
X14500000Y-7875000D03*
X-23875000Y61550000D03*
X-26475000Y62150000D03*
X-6250000Y48200000D03*
X20500000Y-8275000D03*
X-850000Y50250000D03*
X-33275000Y62500000D03*
X-28125000Y62250000D03*
X-25025000Y62750000D03*
X-23975000Y64100000D03*
X-11100000Y52750000D03*
X-9200000Y70800000D03*
X-29925000Y63200000D03*
X-27275000Y62650000D03*
X-5250000Y48200000D03*
X-23875000Y62750000D03*
X-31625000Y63200000D03*
X-25025000Y61550000D03*
X2300000Y61400000D03*
X-24475000Y62150000D03*
X14500000Y-8925000D03*
X-28975000Y62700000D03*
X-3250000Y40250000D03*
X-24475000Y63400000D03*
X-24975000Y64100000D03*
X-26475000Y63100000D03*
X-31575000Y62150000D03*
X19200000Y35825000D03*
X-28125000Y63100000D03*
X-33825000Y63200000D03*
X14000000Y-5125000D03*
%TO.N,-60V*%
X47625000Y20880000D03*
X18975840Y63775000D03*
X46475000Y8040000D03*
X40125000Y20855000D03*
X31400000Y47525000D03*
X41125000Y15655000D03*
%TO.N,/DCDC_inverter/INTVCC*%
X51052500Y16277500D03*
X50925000Y20905000D03*
%TO.N,/DCDC_inverter/SW*%
X37587500Y7000000D03*
X41735777Y21215637D03*
%TO.N,/DCDC_inverter/ITH*%
X54225000Y17105000D03*
X52625000Y15905000D03*
%TO.N,/NRST*%
X-915380Y56084620D03*
X-8310356Y53400000D03*
X-13500000Y42200000D03*
X-2775001Y55105762D03*
%TO.N,/SPI_DO*%
X13475000Y37575000D03*
X-6350000Y53350000D03*
%TO.N,/SPI_CLK*%
X-7349999Y54200000D03*
X13642175Y38517175D03*
%TO.N,/FG_CS*%
X-9350000Y56911714D03*
X13631973Y39481973D03*
%TO.N,/DCDC_inverter/BG*%
X33325000Y2755000D03*
X41800000Y19175000D03*
%TO.N,/DCDC_inverter/TG*%
X33325000Y10580000D03*
X41768758Y22065000D03*
%TO.N,/SPI_DI*%
X-1692836Y46907164D03*
X12050000Y42850000D03*
X-4154798Y49179798D03*
X13825000Y42850000D03*
%TO.N,/POT_CS*%
X-8550000Y57586714D03*
X19900000Y41325000D03*
%TO.N,/I2C_SCL*%
X-6125000Y34675000D03*
X-6125000Y15800000D03*
%TO.N,/I2C_SDA*%
X-5225000Y34700000D03*
X-5192205Y15786444D03*
%TO.N,/SWO*%
X-5350000Y50650000D03*
X-8500000Y49350000D03*
%TO.N,/INCUBATOR_PELT_OUT*%
X1975000Y58750000D03*
X-5300000Y4575000D03*
%TO.N,/H_Bridge_IN1*%
X16578553Y80371447D03*
X17650000Y81450000D03*
X10400000Y74200000D03*
X12703553Y76496447D03*
X10875000Y53100000D03*
X10175000Y64219760D03*
%TO.N,/H_Bridge_IN2*%
X-3350000Y58300000D03*
X-3350000Y64750000D03*
%TO.N,/VAC_ON*%
X42050000Y46500000D03*
X43101733Y51394640D03*
X43100000Y47800000D03*
X12050000Y51800000D03*
%TO.N,/SOLEN_OUT*%
X-14825000Y56225000D03*
X-15850000Y54300000D03*
X-19965380Y50184620D03*
X-20884620Y49265380D03*
%TO.N,/DAC_AC*%
X24162500Y59912500D03*
X23575000Y61575000D03*
%TO.N,/H_BRIDGE_FAULT*%
X955258Y49330258D03*
X-2775001Y56105762D03*
X950000Y32750000D03*
X-1767476Y56936715D03*
%TO.N,/H_BRIDGE_IN2*%
X-9684972Y47309972D03*
X-9700000Y32950000D03*
X-9700000Y34650000D03*
X-9650000Y51600000D03*
%TO.N,/H_BRIDGE_IN1*%
X-4075000Y56225000D03*
X-10975000Y34625000D03*
X-10522472Y46472472D03*
X-11050000Y32900000D03*
%TO.N,/DAC_DC*%
X721204Y63970674D03*
X-1850000Y61850000D03*
%TO.N,Net-(IC3-SS)*%
X51325000Y14305000D03*
X49937500Y24750000D03*
%TO.N,+60V*%
X37975000Y51975000D03*
%TD*%
D98*
%TO.N,/THERM_FB*%
X23500000Y37400000D02*
X23500000Y37300000D01*
X23600000Y-6174997D02*
X21499998Y-8274999D01*
X23500000Y37300000D02*
X23600000Y37200000D01*
X23600000Y37200000D02*
X23600000Y-6174997D01*
D99*
%TO.N,+5V*%
X22975000Y27800000D02*
X15800000Y27800000D01*
X15800000Y27800000D02*
X6450000Y37150000D01*
D98*
%TO.N,/THERM_FB*%
X6003870Y59850000D02*
X8643456Y59850000D01*
X8643456Y59850000D02*
X23500000Y44993456D01*
X23500000Y44993456D02*
X23500000Y40200000D01*
D99*
%TO.N,+5V*%
X52587500Y21650000D02*
X52587500Y23499780D01*
X52587500Y23499780D02*
X48287280Y27800000D01*
X48287280Y27800000D02*
X27800000Y27800000D01*
D100*
%TO.N,+60V*%
X26125000Y6095000D02*
X26125000Y-8075000D01*
X26125000Y-8075000D02*
X31425000Y-13375000D01*
X31425000Y-13375000D02*
X31900000Y-13375000D01*
D99*
%TO.N,-60V*%
X33000000Y45700000D02*
X33000000Y47175000D01*
X27517500Y25900000D02*
X27517500Y25885000D01*
D101*
%TO.N,/POT_OUT*%
X19012500Y38387500D02*
X19062500Y38437500D01*
X19062500Y38437500D02*
X23267095Y38437500D01*
X23267095Y38437500D02*
X32175000Y47345405D01*
X32175000Y47345405D02*
X32175000Y50976780D01*
%TO.N,/H_BRIDGE_IN2*%
X-14625000Y8630500D02*
X-14625000Y9575000D01*
X-14625000Y9575000D02*
X-9700000Y14500000D01*
X-9700000Y14500000D02*
X-9700000Y32950000D01*
%TO.N,/H_BRIDGE_IN1*%
X-15275001Y8630500D02*
X-15275001Y9649999D01*
X-15275001Y9649999D02*
X-10825000Y14100000D01*
X-10825000Y14100000D02*
X-10825000Y32675000D01*
X-10825000Y32675000D02*
X-11050000Y32900000D01*
%TO.N,/H_BRIDGE_FAULT*%
X-11385000Y11733850D02*
X950000Y24068850D01*
X950000Y24068850D02*
X950000Y32750000D01*
%TO.N,/SOLEN_OUT*%
X-20884620Y49265380D02*
X-30275001Y39874999D01*
X-30275001Y39874999D02*
X-30275001Y7380500D01*
D102*
%TO.N,+12V*%
X-31150002Y-11887700D02*
X-24937702Y-18100000D01*
X-24937702Y-18100000D02*
X55725000Y-18100000D01*
X55725000Y-18100000D02*
X58400000Y-15425000D01*
X58400000Y-15425000D02*
X58400000Y-11675000D01*
X58400000Y-11675000D02*
X55050000Y-8325000D01*
X49750000Y-9675000D02*
X49750000Y-10975000D01*
X55050000Y-8325000D02*
X51100000Y-8325000D01*
X51100000Y-8325000D02*
X49750000Y-9675000D01*
D101*
%TO.N,/ADC_IN*%
X25150000Y60700000D02*
X26450000Y59400000D01*
X4125000Y59425000D02*
X5400000Y60700000D01*
X28233340Y59400000D02*
X30478100Y61644760D01*
X26450000Y59400000D02*
X28233340Y59400000D01*
X575000Y59425000D02*
X4125000Y59425000D01*
X5400000Y60700000D02*
X25150000Y60700000D01*
D100*
X34641900Y61615000D02*
X30507860Y61615000D01*
X30507860Y61615000D02*
X30478100Y61644760D01*
D101*
%TO.N,GND*%
X-15872199Y2788500D02*
X-15925003Y2788500D01*
X32427500Y-12377500D02*
X34190000Y-12377500D01*
X1963120Y60415000D02*
X2300000Y60415000D01*
D99*
X-10710000Y11330500D02*
X-10709501Y11330500D01*
D98*
X-33075000Y55863738D02*
X-33788738Y55150000D01*
D101*
X8850000Y38290000D02*
X8850000Y38150000D01*
D99*
X28437500Y49214640D02*
X28440000Y49214640D01*
D101*
X20412500Y35512500D02*
X20737500Y35837500D01*
D99*
X3425000Y57188442D02*
X3425000Y58111558D01*
D101*
X52465000Y13405000D02*
X52502500Y13367500D01*
X2300000Y60415000D02*
X3260000Y60415000D01*
D99*
X13017498Y-5141999D02*
X12082498Y-5141999D01*
X8220000Y58675000D02*
X7450000Y58675000D01*
D101*
X34437500Y-12625000D02*
X34190000Y-12377500D01*
X20412500Y34587500D02*
X20412500Y35512500D01*
D99*
X-9825000Y64510000D02*
X-10760000Y64510000D01*
D101*
X18437500Y39037500D02*
X19612500Y39037500D01*
X15474998Y39250000D02*
X16375000Y39250000D01*
D99*
X-7390000Y66050000D02*
X-7390000Y66985000D01*
D101*
X1453120Y60925000D02*
X1963120Y60415000D01*
D98*
X-33075000Y57537997D02*
X-33075000Y55863738D01*
D99*
X-6840000Y69150000D02*
X-5905000Y69150000D01*
D101*
X32095000Y-12045000D02*
X32427500Y-12377500D01*
X50670000Y14000000D02*
X51302500Y13367500D01*
D98*
X-5825000Y64775000D02*
X-6350000Y64250000D01*
D99*
X-13713474Y45400000D02*
X-13688474Y45425000D01*
D101*
X18225000Y39250000D02*
X18437500Y39037500D01*
D99*
X-23825000Y7430500D02*
X-23825000Y7446001D01*
X6760000Y53650000D02*
X7695000Y53650000D01*
X-5187500Y66765000D02*
X-4252500Y66765000D01*
D101*
X15124998Y39600000D02*
X15474998Y39250000D01*
D99*
X7450000Y58675000D02*
X7375000Y58750000D01*
D101*
X3260000Y60415000D02*
X3280000Y60435000D01*
X-8350000Y64250000D02*
X-8350000Y63350000D01*
D99*
X-23825000Y7446001D02*
X-23807501Y7463500D01*
X-5167500Y65650000D02*
X-4232500Y65650000D01*
X-34865000Y65075000D02*
X-34865000Y66010000D01*
D98*
X-6350000Y64250000D02*
X-6350000Y63350000D01*
D101*
X16375000Y39250000D02*
X18225000Y39250000D01*
X-11775000Y54425000D02*
X-10775000Y54425000D01*
D99*
X12082498Y-5141999D02*
X12047498Y-5176999D01*
D101*
X-15327805Y2788500D02*
X-15275001Y2788500D01*
X-1850000Y50290000D02*
X-1850000Y52000000D01*
X9650000Y37350000D02*
X9850000Y37350000D01*
X20312500Y37487500D02*
X20312500Y36262500D01*
D99*
X52537500Y13382500D02*
X52502500Y13417500D01*
X16375360Y64925000D02*
X16375360Y65844040D01*
D101*
X19612500Y39037500D02*
X19662500Y39087500D01*
D99*
X-6840000Y70800000D02*
X-5905000Y70800000D01*
X28440000Y49214640D02*
X28447500Y49207140D01*
D101*
X51302500Y13367500D02*
X52550000Y13367500D01*
D99*
X-12090000Y52750000D02*
X-13025000Y52750000D01*
D101*
X10950000Y38250000D02*
X11925000Y38250000D01*
D98*
X-33788738Y55150000D02*
X-34212500Y55150000D01*
D99*
X-4252500Y66765000D02*
X-4217500Y66800000D01*
D101*
X575000Y60925000D02*
X1453120Y60925000D01*
D98*
X-33252500Y57715497D02*
X-33075000Y57537997D01*
D99*
X-10709501Y11330500D02*
X-10692501Y11313500D01*
X-14525000Y45400000D02*
X-13713474Y45400000D01*
D101*
X-9850000Y64510000D02*
X-8610000Y64510000D01*
X19662500Y39087500D02*
X19662500Y39987500D01*
X9850000Y37350000D02*
X10050000Y37350000D01*
X10050000Y37350000D02*
X10950000Y38250000D01*
X-8610000Y64510000D02*
X-8350000Y64250000D01*
D99*
X-1790000Y50225000D02*
X-1790000Y49290000D01*
D101*
X20312500Y36262500D02*
X20737500Y35837500D01*
X36295000Y-12625000D02*
X34437500Y-12625000D01*
X49237500Y14000000D02*
X50670000Y14000000D01*
X8850000Y38150000D02*
X9650000Y37350000D01*
X-12200000Y54000000D02*
X-11775000Y54425000D01*
D99*
X-12675001Y9596562D02*
X-12675001Y8630500D01*
D101*
X-1810000Y50250000D02*
X-1850000Y50290000D01*
D99*
X16375360Y65844040D02*
X16350000Y65869400D01*
D98*
%TO.N,/pelt_cooler/DVDD*%
X-13325000Y8630500D02*
X-13325000Y7693900D01*
D101*
X-13975001Y8630500D02*
X-13325000Y8630500D01*
D98*
X-12025000Y8630500D02*
X-12025000Y7693900D01*
D99*
X-10505000Y10150500D02*
X-10725000Y10370500D01*
D98*
X-11056100Y7593900D02*
X-10725003Y7924997D01*
X-13207100Y7576000D02*
X-12376802Y7576000D01*
X-12025000Y7693900D02*
X-11925000Y7593900D01*
X-12376802Y7576000D02*
X-12025000Y7927802D01*
D101*
X-10725003Y8630500D02*
X-10725003Y9624997D01*
D98*
X-13325000Y7693900D02*
X-13207100Y7576000D01*
D101*
X-10725003Y9624997D02*
X-10725000Y9625000D01*
D98*
X-11925000Y7593900D02*
X-11056100Y7593900D01*
D99*
X-10725000Y9625000D02*
X-10725000Y10370500D01*
D98*
X-10725003Y7924997D02*
X-10725003Y8630500D01*
X-12025000Y7927802D02*
X-12025000Y8630500D01*
D101*
X-9625000Y10150500D02*
X-10505000Y10150500D01*
D102*
%TO.N,+12V*%
X-31150002Y-7594502D02*
X-20825000Y2730500D01*
D99*
X-20825000Y2730500D02*
X-17933001Y2730500D01*
D102*
X-1800000Y-18100000D02*
X-12400000Y-7500000D01*
D99*
X-12960000Y-665000D02*
X-12960000Y375000D01*
D101*
X-13325003Y1549997D02*
X-13325003Y740003D01*
X-13325003Y1549997D02*
X-13325003Y2788500D01*
D102*
X399999Y-13290500D02*
X399999Y-16100001D01*
D100*
X-20825000Y2730500D02*
X-20825000Y4310500D01*
D102*
X-1600000Y-18100000D02*
X-1800000Y-18100000D01*
D99*
X-22845000Y6330500D02*
X-22845000Y7410500D01*
X-17933001Y2730500D02*
X-17875001Y2788500D01*
X-12400000Y-1225000D02*
X-12960000Y-665000D01*
X-20825000Y4310500D02*
X-22845000Y6330500D01*
D102*
X-31150002Y-11887700D02*
X-31150002Y-7594502D01*
X-12400000Y-7500000D02*
X-12400000Y-1225000D01*
D101*
X-13325003Y740003D02*
X-12960000Y375000D01*
D102*
X399999Y-16100001D02*
X-1600000Y-18100000D01*
D99*
%TO.N,/pelt_cooler/CPL*%
X-10000000Y421846D02*
X-10000000Y375000D01*
D101*
X-11375004Y1796850D02*
X-10000000Y421846D01*
X-11375004Y2788500D02*
X-11375004Y1796850D01*
%TO.N,/pelt_cooler/CPH*%
X-12025003Y1440003D02*
X-12025003Y1699997D01*
X-12000000Y1725000D02*
X-12025003Y1750003D01*
X-12025003Y1750003D02*
X-12025003Y2788500D01*
X-10960000Y375000D02*
X-12025003Y1440003D01*
%TO.N,/pelt_cooler/VCP*%
X-12675004Y1096850D02*
X-12000000Y421846D01*
X-12698003Y1119849D02*
X-12698003Y1575000D01*
D99*
X-12000000Y421846D02*
X-12000000Y375000D01*
D101*
X-12698003Y2765501D02*
X-12675004Y2788500D01*
X-12698003Y1575000D02*
X-12698003Y2765501D01*
%TO.N,+60V*%
X35318135Y-14503135D02*
X37271865Y-14503135D01*
D103*
X37271865Y-14503135D02*
X37271865Y-14403135D01*
D101*
X44462500Y16500000D02*
X44462500Y14550000D01*
X26557500Y25900000D02*
X26557500Y23930000D01*
X15725000Y74025000D02*
X15725000Y75269040D01*
X26557500Y25946846D02*
X26557500Y25900000D01*
D100*
X27525000Y6095000D02*
X26125000Y6095000D01*
D101*
X31900000Y-13375000D02*
X34190000Y-13375000D01*
X27170654Y26560000D02*
X39902500Y26560000D01*
X15725000Y75269040D02*
X15724640Y75269400D01*
X36701300Y51975360D02*
X37974640Y51975360D01*
X27170654Y26560000D02*
X26557500Y25946846D01*
X44462500Y22000000D02*
X44462500Y16500000D01*
D103*
X37271865Y-14403135D02*
X38300000Y-13375000D01*
X38300000Y-13375000D02*
X38400000Y-13375000D01*
D99*
X39902500Y26560000D02*
X44462500Y22000000D01*
D101*
X44462500Y16500000D02*
X43387500Y16500000D01*
D103*
X34325000Y-13375000D02*
X35318135Y-14368135D01*
X35318135Y-14368135D02*
X35318135Y-14503135D01*
X34190000Y-13375000D02*
X34325000Y-13375000D01*
D101*
X26557500Y23930000D02*
X26557500Y21620000D01*
X37974640Y51975360D02*
X37975000Y51975000D01*
X44412500Y14500000D02*
X43387500Y14500000D01*
X26557500Y21620000D02*
X26577500Y21600000D01*
X44462500Y14550000D02*
X44412500Y14500000D01*
D98*
%TO.N,+5V*%
X-24264644Y53600000D02*
X-17500000Y46835356D01*
X-32900000Y54725000D02*
X-32900000Y53825000D01*
D101*
X9850000Y39250000D02*
X11925000Y39250000D01*
D98*
X-32675000Y53600000D02*
X-24264644Y53600000D01*
D99*
X8550000Y39250000D02*
X8850000Y39250000D01*
D101*
X-17500000Y36350000D02*
X-14800000Y33650000D01*
X-14800000Y33650000D02*
X2950000Y33650000D01*
D98*
X-32900000Y53825000D02*
X-32675000Y53600000D01*
X-31937500Y55150000D02*
X-31925000Y55150000D01*
D99*
X9850000Y39250000D02*
X8850000Y39250000D01*
D98*
X-32475000Y55150000D02*
X-32900000Y54725000D01*
X-17500000Y46835356D02*
X-17500000Y46800000D01*
D101*
X-17500000Y46800000D02*
X-17500000Y36350000D01*
D98*
X-31937500Y55150000D02*
X-32475000Y55150000D01*
D101*
X2950000Y33650000D02*
X6450000Y37150000D01*
D99*
X6450000Y37150000D02*
X8550000Y39250000D01*
D101*
%TO.N,+3.3V*%
X14010000Y-5125000D02*
X14500000Y-5615000D01*
X-850000Y50500000D02*
X-850000Y50250000D01*
D99*
X-9200000Y70775000D02*
X-7800000Y70775000D01*
D101*
X-1350000Y52000000D02*
X-1350000Y51000000D01*
D99*
X-11100000Y52775000D02*
X-11100000Y53600000D01*
X-14525000Y47965000D02*
X-13688474Y47965000D01*
X-34260000Y62765000D02*
X-33825000Y63200000D01*
D101*
X19662500Y36312500D02*
X19187500Y35837500D01*
D99*
X-9850000Y63550000D02*
X-9077000Y63550000D01*
X-6280000Y48200000D02*
X-5200000Y48200000D01*
D101*
X19200000Y35825000D02*
X19187500Y34852500D01*
X19187500Y35837500D02*
X19200000Y35825000D01*
D99*
X2450000Y52575000D02*
X2450000Y53865000D01*
D101*
X2250000Y61425000D02*
X2300000Y61375000D01*
X-9077000Y63550000D02*
X-8877000Y63350000D01*
D99*
X2450000Y53865000D02*
X2300000Y54015000D01*
X-9850000Y63550000D02*
X-10800000Y63550000D01*
X-34975000Y62765000D02*
X-34260000Y62765000D01*
D101*
X-1350000Y51000000D02*
X-850000Y50500000D01*
X575000Y61425000D02*
X2250000Y61425000D01*
X575000Y53925000D02*
X2210000Y53925000D01*
X2210000Y53925000D02*
X2300000Y54015000D01*
X19187500Y34852500D02*
X19452500Y34587500D01*
X19662500Y37487500D02*
X19662500Y36312500D01*
X-11100000Y53600000D02*
X-10775000Y53925000D01*
X14500000Y-5615000D02*
X14500000Y-7874999D01*
D99*
%TO.N,/DCDC_inverter/DRVCC*%
X40307500Y18580000D02*
X40337500Y18550000D01*
D101*
X43387500Y18500000D02*
X40387500Y18500000D01*
X40387500Y18500000D02*
X40337500Y18550000D01*
D99*
X36637500Y18580000D02*
X40307500Y18580000D01*
D101*
%TO.N,-60V*%
X48150000Y17012500D02*
X48162500Y17000000D01*
X48212500Y19500000D02*
X48150000Y19437500D01*
X46475000Y8040000D02*
X46475000Y9737500D01*
X55395000Y14715456D02*
X55395000Y14305000D01*
X18975840Y63775000D02*
X18975840Y69630600D01*
D99*
X27517500Y25900000D02*
X27517500Y23930000D01*
D101*
X49737500Y17000000D02*
X50275405Y17000000D01*
D99*
X27517500Y21620000D02*
X27537500Y21600000D01*
D101*
X49237500Y19500000D02*
X48362500Y19500000D01*
X49237500Y19500000D02*
X48212500Y19500000D01*
X48005000Y20500000D02*
X49237500Y20500000D01*
X50275405Y17000000D02*
X50320405Y16955000D01*
D99*
X47625000Y23355000D02*
X47625000Y20880000D01*
X29037500Y20100000D02*
X27537500Y21600000D01*
X27517500Y23930000D02*
X27517500Y21620000D01*
D101*
X51775000Y16955000D02*
X52625000Y17805000D01*
D99*
X40125000Y20855000D02*
X39370000Y20100000D01*
D101*
X49237500Y16500000D02*
X49737500Y17000000D01*
D99*
X47625000Y20880000D02*
X48005000Y20500000D01*
D101*
X49237500Y20500000D02*
X48362500Y20500000D01*
X48075000Y20212500D02*
X48075000Y19787500D01*
X41125000Y15655000D02*
X41280000Y15500000D01*
X41280000Y15500000D02*
X43387500Y15500000D01*
X52625000Y18105000D02*
X54175000Y19655000D01*
X48362500Y20500000D02*
X48075000Y20212500D01*
X49237500Y17000000D02*
X49237500Y16500000D01*
X50320405Y16955000D02*
X51775000Y16955000D01*
D99*
X41737500Y15075000D02*
X42162500Y15500000D01*
D101*
X52625000Y17805000D02*
X52625000Y17485456D01*
X48162500Y17000000D02*
X49237500Y17000000D01*
D99*
X48100000Y23830000D02*
X47625000Y23355000D01*
D101*
X52625000Y17485456D02*
X55395000Y14715456D01*
D99*
X48537500Y23830000D02*
X48100000Y23830000D01*
X41737500Y13400000D02*
X41737500Y15075000D01*
X39370000Y20100000D02*
X29037500Y20100000D01*
D101*
X52625000Y17805000D02*
X52625000Y18105000D01*
X48075000Y19787500D02*
X48362500Y19500000D01*
X48150000Y19437500D02*
X48150000Y17012500D01*
X42162500Y15500000D02*
X43387500Y15500000D01*
X46475000Y9737500D02*
X49237500Y12500000D01*
%TO.N,/DCDC_inverter/INTVCC*%
X46295000Y12500000D02*
X43387500Y12500000D01*
X49237500Y16000000D02*
X48362500Y16000000D01*
D98*
X48100000Y14517500D02*
X48100000Y15712500D01*
D101*
X50925000Y20905000D02*
X50830000Y21000000D01*
X50775000Y16000000D02*
X49237500Y16000000D01*
X51052500Y16277500D02*
X50775000Y16000000D01*
X48100000Y14305000D02*
X46295000Y12500000D01*
X41797500Y12500000D02*
X43387500Y12500000D01*
X50830000Y21000000D02*
X49237500Y21000000D01*
X48100000Y14517500D02*
X48100000Y14305000D01*
X41737500Y12440000D02*
X41797500Y12500000D01*
D98*
X48100000Y15712500D02*
X48387500Y16000000D01*
D101*
%TO.N,/DCDC_inverter/SW*%
X41997500Y21000000D02*
X43387500Y21000000D01*
X41735777Y21215637D02*
X41735777Y21258277D01*
D99*
X36682500Y6095000D02*
X37587500Y7000000D01*
D101*
X27525000Y855000D02*
X27525000Y835000D01*
X41737500Y21260000D02*
X41997500Y21000000D01*
X41735777Y21258277D02*
X41737500Y21260000D01*
D99*
X33315000Y6095000D02*
X36682500Y6095000D01*
D101*
%TO.N,/DCDC_inverter/BOOST*%
X41737500Y20300000D02*
X41937500Y20500000D01*
X41937500Y20500000D02*
X43387500Y20500000D01*
%TO.N,/DCDC_inverter/SENSE+*%
X50377500Y13500000D02*
X49237500Y13500000D01*
X43887500Y9025000D02*
X48362500Y13500000D01*
D99*
X51350000Y11435000D02*
X52510000Y11435000D01*
X52550000Y11395000D02*
X52550000Y10442500D01*
D101*
X48362500Y13500000D02*
X49237500Y13500000D01*
D99*
X52510000Y11435000D02*
X52550000Y11395000D01*
D101*
X43887500Y7000000D02*
X43887500Y9025000D01*
X50377500Y12407500D02*
X51350000Y11435000D01*
X50377500Y13500000D02*
X50377500Y12407500D01*
%TO.N,/DCDC_inverter/ITH*%
X49237500Y15500000D02*
X52220000Y15500000D01*
D98*
X52220000Y15500000D02*
X52625000Y15905000D01*
D101*
%TO.N,Net-(IC1-COMP)*%
X11465000Y40210000D02*
X11925000Y39750000D01*
X9850000Y40210000D02*
X11465000Y40210000D01*
%TO.N,Net-(IC1-CAP{slash}2.5V)*%
X10450000Y38750000D02*
X11925000Y38750000D01*
X10010000Y38310000D02*
X10450000Y38750000D01*
X9850000Y38310000D02*
X10010000Y38310000D01*
D99*
%TO.N,/V_AC*%
X43107700Y52854840D02*
X43102500Y52849640D01*
X44950000Y52955740D02*
X44849100Y52854840D01*
D100*
X43102500Y53499640D02*
X43102500Y52447500D01*
X43102500Y52447500D02*
X43130360Y52419640D01*
D99*
X44150000Y57615000D02*
X44950000Y56815000D01*
X44849100Y52854840D02*
X43107700Y52854840D01*
D100*
X43130360Y52419640D02*
X43102500Y52419640D01*
D99*
X44950000Y56815000D02*
X44950000Y52955740D01*
X44150000Y103000000D02*
X44150000Y57615000D01*
%TO.N,+3.3VA*%
X-7825000Y69200000D02*
X-7800000Y69175000D01*
X-7709999Y65075000D02*
X-7400000Y65075000D01*
X-9200000Y69200000D02*
X-7825000Y69200000D01*
X-9200000Y69200000D02*
X-9200000Y66565001D01*
D101*
X-7350000Y63350000D02*
X-7350000Y65025000D01*
D99*
X-9200000Y66565001D02*
X-7709999Y65075000D01*
D101*
X-7350000Y65025000D02*
X-7400000Y65075000D01*
D98*
%TO.N,/VREF*%
X-6850000Y63350000D02*
X-6850000Y64688866D01*
X-6167500Y65371366D02*
X-6167500Y65665000D01*
X-6850000Y64688866D02*
X-6167500Y65371366D01*
D101*
X-6167500Y66745000D02*
X-6147500Y66765000D01*
D99*
X-6167500Y65665000D02*
X-6167500Y66745000D01*
D101*
%TO.N,/NRST*%
X-915380Y56209619D02*
X-915380Y56084620D01*
X-8310356Y53400000D02*
X-8310356Y54194238D01*
D98*
X-500000Y56925000D02*
X-575000Y56850000D01*
X575000Y56925000D02*
X-500000Y56925000D01*
X-15175000Y43875000D02*
X-13500000Y42200000D01*
X-575000Y56850000D02*
X-575000Y56549999D01*
X575000Y56925000D02*
X2166558Y56925000D01*
X-13500000Y42200000D02*
X-13500000Y38100000D01*
D101*
X-7398832Y55105762D02*
X-2775001Y55105762D01*
X-8310356Y54194238D02*
X-7398832Y55105762D01*
D98*
X-13688474Y46695000D02*
X-14245249Y46695000D01*
X2166558Y56925000D02*
X2455000Y57213442D01*
X-15175000Y45765249D02*
X-15175000Y43875000D01*
X-575000Y56549999D02*
X-915380Y56209619D01*
X-14245249Y46695000D02*
X-15175000Y45765249D01*
%TO.N,/HSE_IN*%
X6400000Y55325000D02*
X5075000Y55325000D01*
X5820000Y54745000D02*
X5820000Y53675000D01*
X5075000Y55325000D02*
X4425000Y55975000D01*
X625000Y55975000D02*
X575000Y55925000D01*
X4425000Y55975000D02*
X625000Y55975000D01*
X6400000Y55325000D02*
X5820000Y54745000D01*
%TO.N,/HSE_OUT*%
X13000000Y52725000D02*
X13000000Y38000000D01*
X13000000Y38000000D02*
X12750000Y37750000D01*
X575000Y56425000D02*
X4639239Y56425000D01*
X8600000Y57025000D02*
X8700000Y57025000D01*
X8700000Y57025000D02*
X13000000Y52725000D01*
X4975000Y56760761D02*
X4975000Y58100000D01*
X8600000Y57025000D02*
X9180000Y57605000D01*
X12750000Y37750000D02*
X11925000Y37750000D01*
X4975000Y58100000D02*
X7525000Y58100000D01*
X4639239Y56425000D02*
X4975000Y56760761D01*
X7525000Y58100000D02*
X8600000Y57025000D01*
X9180000Y57605000D02*
X9180000Y58675000D01*
D101*
%TO.N,/PWR_LED_K*%
X-35895000Y64655000D02*
X-35895000Y65050000D01*
X-34975000Y63735000D02*
X-35895000Y64655000D01*
%TO.N,/SPI_DO*%
X13475000Y37575000D02*
X13650000Y37750000D01*
X-6350000Y53350000D02*
X-6350000Y52000000D01*
X13650000Y37750000D02*
X16375000Y37750000D01*
%TO.N,/FG_OUT*%
X16612500Y39987500D02*
X16375000Y39750000D01*
X19012500Y39987500D02*
X16612500Y39987500D01*
%TO.N,/SPI_CLK*%
X19105654Y33927500D02*
X18387500Y34645654D01*
X13909350Y38250000D02*
X16375000Y38250000D01*
X-7349999Y52000001D02*
X-7350000Y52000000D01*
X21537500Y36912500D02*
X21537500Y34705654D01*
X18387500Y38250000D02*
X16375000Y38250000D01*
X21537500Y34705654D02*
X20759346Y33927500D01*
X20759346Y33927500D02*
X19105654Y33927500D01*
X20962500Y37487500D02*
X21537500Y36912500D01*
X18387500Y34645654D02*
X18387500Y38250000D01*
X-7349999Y54200000D02*
X-7349999Y52000001D01*
X13642175Y38517175D02*
X13909350Y38250000D01*
D98*
%TO.N,/FG_CS*%
X-9363286Y56925000D02*
X-9350000Y56911714D01*
D101*
X14363946Y38750000D02*
X16375000Y38750000D01*
D98*
X-10775000Y56925000D02*
X-9363286Y56925000D01*
D101*
X13631973Y39481973D02*
X14363946Y38750000D01*
%TO.N,/DCDC_inverter/VFB*%
X54375000Y12980000D02*
X54800000Y12555000D01*
X49237500Y15000000D02*
X53680000Y15000000D01*
X54375000Y14305000D02*
X54375000Y12980000D01*
X53680000Y15000000D02*
X54375000Y14305000D01*
%TO.N,/DCDC_inverter/BG*%
X33325000Y2115000D02*
X33315000Y2105000D01*
X43387500Y19500000D02*
X42125000Y19500000D01*
X33325000Y2755000D02*
X33325000Y2115000D01*
X42125000Y19500000D02*
X41800000Y19175000D01*
%TO.N,/DCDC_inverter/NDRV*%
X38070456Y14020000D02*
X36325000Y14020000D01*
X41550456Y17500000D02*
X38070456Y14020000D01*
X43387500Y17500000D02*
X41550456Y17500000D01*
%TO.N,/DCDC_inverter/TG*%
X42822500Y22065000D02*
X43387500Y21500000D01*
X41768758Y22065000D02*
X42822500Y22065000D01*
X33325000Y10580000D02*
X33325000Y9915000D01*
X33325000Y9915000D02*
X33315000Y9905000D01*
%TO.N,/SPI_DI*%
X-4154798Y49179798D02*
X-6679798Y49179798D01*
X12050000Y42850000D02*
X2364328Y42850000D01*
X-6679798Y49179798D02*
X-6850000Y49350000D01*
X13825000Y42850000D02*
X19329595Y42850000D01*
X19329595Y42850000D02*
X20962500Y41217095D01*
X2364328Y42850000D02*
X-1692836Y46907164D01*
X20962500Y41217095D02*
X20962500Y39987500D01*
X-6850000Y49350000D02*
X-6850000Y52000000D01*
%TO.N,/POT_OUT*%
X29975900Y54088040D02*
X29975900Y51524100D01*
X31826660Y51325120D02*
X31062500Y51325120D01*
X19012500Y38387500D02*
X19075000Y38450000D01*
X30812500Y54924640D02*
X29975900Y54088040D01*
X32175000Y50976780D02*
X31826660Y51325120D01*
X31325000Y54924640D02*
X30812500Y54924640D01*
X30174880Y51325120D02*
X31062500Y51325120D01*
X19012500Y37487500D02*
X19012500Y38387500D01*
X29975900Y51524100D02*
X30174880Y51325120D01*
D98*
%TO.N,/POT_CS*%
X-9608884Y56286714D02*
X-9088286Y56286714D01*
X-9088286Y56286714D02*
X-8550000Y56825000D01*
D101*
X19900000Y41325000D02*
X20325000Y40900000D01*
D98*
X-8550000Y56825000D02*
X-8550000Y57586714D01*
D101*
X20325000Y40900000D02*
X20325000Y39987500D01*
D98*
X-9747170Y56425000D02*
X-9608884Y56286714D01*
X-10775000Y56425000D02*
X-9747170Y56425000D01*
%TO.N,Net-(IC4-VFB)*%
X34190000Y-10785000D02*
X34190000Y-10875000D01*
X36150000Y-8825000D02*
X34190000Y-10785000D01*
X36740000Y-8825000D02*
X36150000Y-8825000D01*
D101*
X36740000Y-8825000D02*
X39150000Y-8825000D01*
D98*
X32525000Y-10875000D02*
X34190000Y-10875000D01*
X31900000Y-10250000D02*
X32525000Y-10875000D01*
%TO.N,Net-(IC4-SS)*%
X37803000Y-11375000D02*
X38400000Y-11375000D01*
X34775000Y-11375000D02*
X35552235Y-10597765D01*
X38400000Y-11375000D02*
X38400000Y-11875000D01*
X34190000Y-11375000D02*
X34775000Y-11375000D01*
X35552235Y-10597765D02*
X35711735Y-10597765D01*
X37025765Y-10597765D02*
X37803000Y-11375000D01*
D101*
X35711735Y-10597765D02*
X37025765Y-10597765D01*
%TO.N,/I2C_SCL*%
X-6125000Y47025000D02*
X-7300000Y48200000D01*
X-6125000Y34675000D02*
X-6125000Y47025000D01*
X-6125000Y15575000D02*
X-6125000Y15800000D01*
X-7850000Y48750000D02*
X-7300000Y48200000D01*
X10500000Y-1050000D02*
X-6125000Y15575000D01*
D98*
X-7850000Y52000000D02*
X-7850000Y48750000D01*
D101*
X10500000Y-7874999D02*
X10500000Y-1050000D01*
%TO.N,/I2C_SDA*%
X-5192205Y15786444D02*
X16499998Y-5905759D01*
X-3350000Y52000000D02*
X-3350000Y49030000D01*
X16499998Y-5905759D02*
X16499998Y-7874999D01*
X-5225000Y34700000D02*
X-5475000Y34950000D01*
X-5475000Y34950000D02*
X-5475000Y46905000D01*
X-3350000Y49030000D02*
X-4180000Y48200000D01*
X-5475000Y46905000D02*
X-4180000Y48200000D01*
D98*
%TO.N,/THERM_FB*%
X5053870Y58900000D02*
X6003870Y59850000D01*
X3025000Y58900000D02*
X5053870Y58900000D01*
D101*
X21499998Y-11414999D02*
X22659998Y-12574999D01*
X21499998Y-8274999D02*
X21499998Y-11414999D01*
D98*
X1550000Y57425000D02*
X3025000Y58900000D01*
X575000Y57425000D02*
X1550000Y57425000D01*
%TO.N,/SWCLK*%
X-8350000Y50520000D02*
X-12100000Y46770000D01*
X-8350000Y52000000D02*
X-8350000Y50520000D01*
%TO.N,/SWDIO*%
X-8850000Y52000000D02*
X-8850000Y51290000D01*
X-8850000Y51290000D02*
X-12100000Y48040000D01*
%TO.N,/SWO*%
X-8550000Y49350000D02*
X-8500000Y49350000D01*
X-12418474Y45481526D02*
X-8550000Y49350000D01*
X-12418474Y45425000D02*
X-12418474Y45481526D01*
X-5350000Y50650000D02*
X-5350000Y52000000D01*
D102*
%TO.N,/pelt_cooler/Incubator Peltier Cooler*%
X-4664600Y-169500D02*
X-4004200Y-169500D01*
X-2600001Y-1573699D02*
X-2600001Y-13290500D01*
X-4004200Y-169500D02*
X-2600001Y-1573699D01*
D101*
%TO.N,/pelt_cooler/OUT2*%
X-16575001Y749999D02*
X-17450000Y-125000D01*
X-17225002Y99998D02*
X-17225002Y2788500D01*
X-17450000Y-125000D02*
X-17225002Y99998D01*
X-16575001Y2788500D02*
X-16575001Y749999D01*
D102*
X-17450000Y-125000D02*
X-21500001Y-4175001D01*
X-21500001Y-4175001D02*
X-21500001Y-13287700D01*
%TO.N,/CO2 Solenoid*%
X-32575001Y1080500D02*
X-33690002Y-34501D01*
X-33690002Y-34501D02*
X-33690002Y-11887700D01*
%TO.N,/V_DC1*%
X9600000Y89925000D02*
X10300000Y90625000D01*
X-200000Y89925000D02*
X9600000Y89925000D01*
X-200000Y89925000D02*
X1075000Y88650000D01*
X1075000Y88650000D02*
X1075000Y83175000D01*
%TO.N,/V_DC2*%
X21500000Y94475000D02*
X31675000Y94475000D01*
X32150000Y94000000D02*
X30066200Y94000000D01*
X31675000Y94475000D02*
X32150000Y94000000D01*
X30066200Y94000000D02*
X22419800Y86353600D01*
D98*
%TO.N,/DAC_FB*%
X-2625000Y64525000D02*
X-2850000Y64300000D01*
X26178100Y62944760D02*
X380240Y62944760D01*
X27478100Y61644760D02*
X26178100Y62944760D01*
X-2850000Y64300000D02*
X-2850000Y63350000D01*
X-1200000Y64525000D02*
X-2625000Y64525000D01*
X380240Y62944760D02*
X-1200000Y64525000D01*
D101*
%TO.N,/INCUBATOR_PELT_OUT*%
X1975000Y58750000D02*
X1650000Y58425000D01*
X1650000Y58425000D02*
X575000Y58425000D01*
X-5300000Y2852700D02*
X-5325000Y2827700D01*
X-5300000Y4575000D02*
X-5300000Y2852700D01*
%TO.N,/H_Bridge_IN1*%
X5575000Y72705000D02*
X5575000Y73505000D01*
D98*
X1384576Y54925000D02*
X2034576Y55575000D01*
D101*
X20295000Y84095000D02*
X21775000Y84095000D01*
D98*
X5265000Y52985000D02*
X10760000Y52985000D01*
X2034576Y55575000D02*
X3164950Y55575000D01*
D101*
X5575000Y68819760D02*
X10175000Y64219760D01*
D98*
X575000Y54925000D02*
X1384576Y54925000D01*
D101*
X8800000Y72600000D02*
X5680000Y72600000D01*
X10400000Y74200000D02*
X8800000Y72600000D01*
D98*
X3950000Y54789950D02*
X3950000Y54300000D01*
D101*
X17650000Y81450000D02*
X20295000Y84095000D01*
X10760000Y52985000D02*
X10875000Y53100000D01*
X5575000Y73505000D02*
X5575000Y68819760D01*
X16578553Y80371447D02*
X12703553Y76496447D01*
D98*
X3950000Y54300000D02*
X5265000Y52985000D01*
D101*
X5680000Y72600000D02*
X5575000Y72705000D01*
D98*
X3164950Y55575000D02*
X3950000Y54789950D01*
D99*
%TO.N,/V_DC*%
X21859640Y74000000D02*
X32200000Y74000000D01*
X9950000Y75669040D02*
X10269040Y75350000D01*
X10125000Y76475000D02*
X12850000Y79200000D01*
X9950000Y76475000D02*
X9950000Y75669040D01*
X17025120Y76233560D02*
X17366560Y76575000D01*
X14905600Y73194400D02*
X16186720Y73194400D01*
X34700000Y81810000D02*
X34700000Y84850000D01*
X17366560Y76575000D02*
X19284640Y76575000D01*
X32200000Y74000000D02*
X33675000Y75475000D01*
X12900000Y75200000D02*
X14905600Y73194400D01*
X17025120Y75269400D02*
X17025120Y76233560D01*
X33675000Y80785000D02*
X34700000Y81810000D01*
X12850000Y79200000D02*
X12850000Y81475000D01*
X16186720Y73194400D02*
X17025120Y74032800D01*
X9950000Y76475000D02*
X10125000Y76475000D01*
X17025120Y74032800D02*
X17025120Y75269400D01*
X19284640Y76575000D02*
X21859640Y74000000D01*
X12900000Y75350000D02*
X12900000Y75200000D01*
X33675000Y75475000D02*
X33675000Y80785000D01*
X10269040Y75350000D02*
X12900000Y75350000D01*
D101*
%TO.N,/H_Bridge_IN2*%
X13800000Y84200000D02*
X21105000Y76895000D01*
X205000Y79965000D02*
X2565000Y79965000D01*
X6800000Y84200000D02*
X13800000Y84200000D01*
X75000Y80095000D02*
X205000Y79965000D01*
X2565000Y79965000D02*
X6800000Y84200000D01*
X-3350000Y58300000D02*
X-3350000Y57600000D01*
D98*
X-3350000Y57600000D02*
X-1175000Y55425000D01*
D101*
X75000Y80815000D02*
X75000Y68175000D01*
D98*
X-1175000Y55425000D02*
X575000Y55425000D01*
D101*
X75000Y80815000D02*
X75000Y80095000D01*
X21105000Y76895000D02*
X28375000Y76895000D01*
X75000Y68175000D02*
X-3350000Y64750000D01*
%TO.N,/VAC_ON*%
X43100000Y47550000D02*
X43100000Y47800000D01*
D98*
X-199999Y54425000D02*
X-250000Y54425000D01*
D101*
X12050000Y51800000D02*
X11200000Y50950000D01*
X42050000Y46500000D02*
X42050000Y46550000D01*
D98*
X-250000Y54425000D02*
X-548065Y54126935D01*
D101*
X42050000Y46500000D02*
X43100000Y47550000D01*
D98*
X-548065Y53701935D02*
X2203870Y50950000D01*
X-548065Y54126935D02*
X-548065Y53701935D01*
D101*
X43101733Y51394640D02*
X43101733Y51548873D01*
X43101733Y51548873D02*
X43102500Y51549640D01*
X575000Y54425000D02*
X-199999Y54425000D01*
X11200000Y50950000D02*
X2203870Y50950000D01*
%TO.N,/LTC6090_AC/OUT*%
X36701300Y50674880D02*
X39347740Y50674880D01*
X39347740Y50674880D02*
X40222500Y51549640D01*
%TO.N,/SOLEN_OUT*%
X-14150000Y56900000D02*
X-14150000Y59800000D01*
X-19965380Y50184620D02*
X-15850000Y54300000D01*
X-4350000Y62413302D02*
X-4350000Y63350000D01*
X-14825000Y56225000D02*
X-14150000Y56900000D01*
X-4638302Y62125000D02*
X-4350000Y62413302D01*
X-11825000Y62125000D02*
X-4638302Y62125000D01*
X-14150000Y59800000D02*
X-11825000Y62125000D01*
%TO.N,/LTC6090_DC/-IN*%
X16350000Y66889400D02*
X16350000Y69605720D01*
D99*
X12900000Y70650000D02*
X13794400Y71544400D01*
X13794400Y71544400D02*
X15697680Y71544400D01*
X16374880Y70867200D02*
X16374880Y69630600D01*
X15697680Y71544400D02*
X16374880Y70867200D01*
D101*
X16350000Y69605720D02*
X16374880Y69630600D01*
%TO.N,/DAC_AC*%
X-2129595Y61175000D02*
X-2525000Y61570405D01*
X-2525000Y62129595D02*
X-2350000Y62304595D01*
X-2525000Y61570405D02*
X-2525000Y62129595D01*
X24162500Y59912500D02*
X28081900Y55993100D01*
X-1350000Y61175000D02*
X-2129595Y61175000D01*
X23575000Y61575000D02*
X22900000Y62250000D01*
X22900000Y62250000D02*
X-275000Y62250000D01*
X-275000Y62250000D02*
X-1350000Y61175000D01*
X-2350000Y62304595D02*
X-2350000Y63350000D01*
X28081900Y55993100D02*
X28081900Y52430000D01*
%TO.N,/LTC6090_AC/+IN*%
X28437500Y50234640D02*
X28877740Y50674880D01*
X28877740Y50674880D02*
X31062500Y50674880D01*
X28081900Y51410000D02*
X28081900Y50590240D01*
X28081900Y50590240D02*
X28437500Y50234640D01*
D98*
%TO.N,/BOOT0*%
X-2850000Y42360000D02*
X-2250000Y41760000D01*
X-2850000Y52000000D02*
X-2850000Y42360000D01*
D103*
%TO.N,/pelt_cooler/NSLEEP*%
X-17225000Y8630500D02*
X-17225000Y7866099D01*
X-10779000Y7196000D02*
X-9625000Y8350000D01*
X-9625000Y8350000D02*
X-9625000Y9510500D01*
X-16554901Y7196000D02*
X-10779000Y7196000D01*
X-17225000Y7866099D02*
X-16554901Y7196000D01*
D98*
%TO.N,/H_BRIDGE_FAULT*%
X-779191Y57925000D02*
X575000Y57925000D01*
D101*
X-2775001Y56105762D02*
X-1600000Y54930761D01*
X-11375002Y8630500D02*
X-11385000Y8640498D01*
X-11385000Y8640498D02*
X-11385000Y11733850D01*
D98*
X-1767476Y56936715D02*
X-779191Y57925000D01*
D101*
X-1600000Y54930761D02*
X-1600000Y53700000D01*
X955258Y51144742D02*
X955258Y49330258D01*
X-1600000Y53700000D02*
X955258Y51144742D01*
%TO.N,/H_BRIDGE_IN2*%
X-10150000Y35100000D02*
X-10150000Y45860383D01*
X-9684972Y46325411D02*
X-9684972Y47309972D01*
X-10150000Y45860383D02*
X-9684972Y46325411D01*
X-9650000Y51600000D02*
X-9650000Y53725000D01*
X-9700000Y34650000D02*
X-10150000Y35100000D01*
X-3850000Y59525000D02*
X-3850000Y63350000D01*
X-9650000Y53725000D02*
X-3850000Y59525000D01*
%TO.N,/H_BRIDGE_IN1*%
X-10975000Y34625000D02*
X-10675000Y34925000D01*
D98*
X-4075000Y56225000D02*
X-4075000Y58494239D01*
D101*
X-10675000Y34925000D02*
X-10675000Y46319944D01*
X-10675000Y46319944D02*
X-10522472Y46472472D01*
D98*
X-4075000Y58494239D02*
X-3619239Y58950000D01*
X-3619239Y58950000D02*
X550000Y58950000D01*
D101*
%TO.N,/DAC_DC*%
X17075360Y64635050D02*
X17075360Y69580360D01*
X17075360Y69580360D02*
X17025120Y69630600D01*
X15940310Y63500000D02*
X17075360Y64635050D01*
X-1850000Y61850000D02*
X-1850000Y63350000D01*
X721204Y63970674D02*
X1191878Y63500000D01*
X1191878Y63500000D02*
X15940310Y63500000D01*
D98*
%TO.N,/USB_D-*%
X-30268749Y55425000D02*
X-10775000Y55425000D01*
X-31937500Y56100000D02*
X-30943749Y56100000D01*
X-30943749Y56100000D02*
X-30268749Y55425000D01*
%TO.N,/USB_D+*%
X-30218749Y54925000D02*
X-10775000Y54925000D01*
X-31937500Y54200000D02*
X-30943749Y54200000D01*
X-30943749Y54200000D02*
X-30218749Y54925000D01*
D102*
%TO.N,Net-(J6-Pin_2)*%
X43150000Y107000000D02*
X44150000Y108000000D01*
X12150000Y107000000D02*
X43150000Y107000000D01*
X21105887Y91475000D02*
X21500000Y91475000D01*
D100*
X12150000Y107000000D02*
X12150000Y100430887D01*
X12150000Y100430887D02*
X21105887Y91475000D01*
D101*
%TO.N,Net-(C45-Pad1)*%
X56075000Y19655000D02*
X55755000Y19655000D01*
X55755000Y19655000D02*
X54225000Y18125000D01*
D98*
%TO.N,Net-(F1-Pad1)*%
X-38025000Y57650000D02*
X-38025000Y54700000D01*
X-38025000Y54700000D02*
X-37075000Y53750000D01*
X-35175000Y59350000D02*
X-35975000Y58550000D01*
X-37125000Y58550000D02*
X-38025000Y57650000D01*
X-37075000Y53750000D02*
X-36537500Y53750000D01*
X-34487500Y59350000D02*
X-35175000Y59350000D01*
X-35975000Y58550000D02*
X-37125000Y58550000D01*
%TO.N,Net-(IC3-SS)*%
X49237500Y14500000D02*
X51130000Y14500000D01*
X51130000Y14500000D02*
X51325000Y14305000D01*
D101*
%TO.N,Net-(IC3-PGOOD)*%
X51557500Y19030000D02*
X51617500Y19030000D01*
X51617500Y19030000D02*
X52587500Y20000000D01*
D98*
X49267500Y19030000D02*
X51557500Y19030000D01*
X49237500Y19000000D02*
X49267500Y19030000D01*
%TO.N,Net-(J3-D--PadA7)*%
X-35012500Y56900000D02*
X-36537500Y56900000D01*
X-36537500Y55900000D02*
X-34412500Y55900000D01*
X-34212500Y56100000D02*
X-35012500Y56900000D01*
X-34412500Y55900000D02*
X-34212500Y56100000D01*
%TO.N,Net-(J3-D+-PadA6)*%
X-34625000Y54200000D02*
X-35825000Y55400000D01*
X-37425000Y55625000D02*
X-37425000Y56175000D01*
X-37200000Y56400000D02*
X-36537500Y56400000D01*
X-37425000Y56175000D02*
X-37200000Y56400000D01*
X-35825000Y55400000D02*
X-37200000Y55400000D01*
X-37200000Y55400000D02*
X-37425000Y55625000D01*
X-34212500Y54200000D02*
X-34625000Y54200000D01*
%TO.N,Net-(J3-CC1)*%
X-34357500Y57400000D02*
X-34007500Y57750000D01*
X-36537500Y57400000D02*
X-34357500Y57400000D01*
%TO.N,Net-(J3-CC2)*%
X-34007500Y52607500D02*
X-34007500Y52550000D01*
X-36537500Y54400000D02*
X-35800000Y54400000D01*
X-35800000Y54400000D02*
X-34007500Y52607500D01*
D102*
%TO.N,Net-(J6-Pin_1)*%
X-200000Y92925000D02*
X-200000Y99650000D01*
X-200000Y99650000D02*
X7150000Y107000000D01*
D99*
%TO.N,Net-(Q3-S_2)*%
X33315000Y7365000D02*
X33315000Y8635000D01*
%TO.N,Net-(Q6-D_1)*%
X8750000Y76973000D02*
X7540600Y75763600D01*
X7750000Y81475000D02*
X7750000Y79695000D01*
X8750000Y76975000D02*
X8750000Y76973000D01*
X9950000Y77495000D02*
X9270000Y77495000D01*
X7750000Y79695000D02*
X9950000Y77495000D01*
X9270000Y77495000D02*
X8750000Y76975000D01*
D100*
X5575000Y76495000D02*
X7525000Y76495000D01*
D99*
%TO.N,Net-(Q11-D_1)*%
X32655000Y80785000D02*
X31430000Y80785000D01*
X29600000Y84850000D02*
X29600000Y82615000D01*
X29600000Y82615000D02*
X31430000Y80785000D01*
D100*
X28375000Y79885000D02*
X30325000Y79885000D01*
D99*
X30530000Y79885000D02*
X31430000Y80785000D01*
X30325000Y79885000D02*
X30530000Y79885000D01*
D98*
%TO.N,Net-(SW2-B)*%
X-3270000Y41760000D02*
X-3270000Y41705000D01*
X-3270000Y41705000D02*
X-4750000Y40225000D01*
X-4750000Y40225000D02*
X-4750000Y39860000D01*
D100*
%TO.N,Net-(R10-Pad1)*%
X33150000Y54924640D02*
X34850000Y54924640D01*
D101*
%TO.N,Net-(U7-DISABLE)*%
X-15925000Y10495500D02*
X-15825000Y10595500D01*
X-15825000Y10595500D02*
X-15825000Y10615500D01*
X-15925000Y8630500D02*
X-15925000Y10495500D01*
%TO.N,Net-(U7-IPROPI1)*%
X-16575001Y8630500D02*
X-16575001Y10540501D01*
X-16575001Y10540501D02*
X-16625000Y10590500D01*
%TO.N,Net-(U7-IPROPI2)*%
X-17875001Y8630500D02*
X-17875001Y10585499D01*
X-17875001Y10585499D02*
X-17850000Y10610500D01*
D98*
%TO.N,Net-(Y1-Pad2)*%
X8150000Y55325000D02*
X6450000Y57025000D01*
X8600000Y55325000D02*
X8150000Y55325000D01*
X6450000Y57025000D02*
X6400000Y57025000D01*
D101*
%TO.N,Net-(C24-Pad1)*%
X39656900Y61630000D02*
X39641900Y61615000D01*
X42500000Y61608100D02*
X42478100Y61630000D01*
D99*
X42478100Y61630000D02*
X39656900Y61630000D01*
X42500000Y57615000D02*
X42500000Y61608100D01*
%TO.N,Net-(R20-Pad2)*%
X57725000Y12555000D02*
X57725000Y10055000D01*
%TO.N,Net-(R14-Pad2)*%
X12900000Y73700000D02*
X12900000Y72300000D01*
D101*
%TO.N,-60V*%
X31062500Y47862500D02*
X31400000Y47525000D01*
X31062500Y48724160D02*
X31062500Y47862500D01*
%TD*%
%TA.AperFunction,Conductor*%
%TO.N,+5V*%
G36*
X-29953326Y61278326D02*
G01*
X-29646674Y60971674D01*
X-29625000Y60919348D01*
X-29625000Y59630652D01*
X-29646674Y59578326D01*
X-29803326Y59421674D01*
X-29855652Y59400000D01*
X-30325000Y59400000D01*
X-30525000Y59200000D01*
X-30525000Y57380652D01*
X-30546674Y57328326D01*
X-30803326Y57071674D01*
X-30855652Y57050000D01*
X-31644348Y57050000D01*
X-31696674Y57071674D01*
X-31953326Y57328326D01*
X-31975000Y57380652D01*
X-31975000Y58500000D01*
X-32075000Y58600000D01*
X-33194348Y58600000D01*
X-33246674Y58621674D01*
X-33503326Y58878326D01*
X-33525000Y58930652D01*
X-33525000Y59619348D01*
X-33503326Y59671674D01*
X-33246674Y59928326D01*
X-33194348Y59950000D01*
X-32175000Y59950000D01*
X-31925000Y60200000D01*
X-31925000Y60819348D01*
X-31903326Y60871674D01*
X-31496674Y61278326D01*
X-31444348Y61300000D01*
X-30005652Y61300000D01*
X-29953326Y61278326D01*
G37*
%TD.AperFunction*%
%TD*%
%TA.AperFunction,Conductor*%
%TO.N,/pelt_cooler/OUT2*%
G36*
X-16460264Y3605315D02*
G01*
X-16414509Y3552511D01*
X-16403303Y3501000D01*
X-16403303Y3158810D01*
X-16422988Y3091771D01*
X-16425251Y3088373D01*
X-16430120Y3081320D01*
X-16483984Y2939292D01*
X-16500535Y2802975D01*
X-16502293Y2788500D01*
X-16483984Y2637709D01*
X-16430120Y2495681D01*
X-16425252Y2488628D01*
X-16403370Y2422277D01*
X-16403303Y2418191D01*
X-16403303Y2007044D01*
X-16403301Y2007018D01*
X-16400390Y1981913D01*
X-16400388Y1981909D01*
X-16355010Y1879136D01*
X-16336319Y1860445D01*
X-16302834Y1799122D01*
X-16300000Y1772764D01*
X-16300000Y-273638D01*
X-16319685Y-340677D01*
X-16336319Y-361319D01*
X-16563681Y-588681D01*
X-16625004Y-622166D01*
X-16651362Y-625000D01*
X-16998638Y-625000D01*
X-17065677Y-605315D01*
X-17086319Y-588681D01*
X-18112319Y437319D01*
X-18145804Y498642D01*
X-18140820Y568334D01*
X-18112319Y612681D01*
X-17850000Y875000D01*
X-17450000Y1275000D01*
X-17450000Y1841644D01*
X-17439435Y1891729D01*
X-17399616Y1981909D01*
X-17396701Y2007035D01*
X-17396702Y2482715D01*
X-17380088Y2544716D01*
X-17362018Y2576013D01*
X-17345487Y2637709D01*
X-17324502Y2716026D01*
X-17324502Y2860974D01*
X-17362017Y3000985D01*
X-17380089Y3032287D01*
X-17396702Y3094287D01*
X-17396702Y3501000D01*
X-17377017Y3568039D01*
X-17324213Y3613794D01*
X-17272702Y3625000D01*
X-16527303Y3625000D01*
X-16460264Y3605315D01*
G37*
%TD.AperFunction*%
%TD*%
%TA.AperFunction,Conductor*%
%TO.N,/DCDC_inverter/INTVCC*%
G36*
X50321674Y23533326D02*
G01*
X50453326Y23401674D01*
X50475000Y23349348D01*
X50475000Y22760652D01*
X50453326Y22708326D01*
X50150000Y22405000D01*
X50150000Y21009267D01*
X50128326Y20956941D01*
X50076000Y20935267D01*
X50046111Y20941572D01*
X50032494Y20947584D01*
X50032491Y20947585D01*
X50032490Y20947586D01*
X50032487Y20947586D01*
X50007365Y20950500D01*
X49296810Y20950500D01*
X49296809Y20950500D01*
X48363677Y20950500D01*
X48311351Y20972174D01*
X48238271Y21045254D01*
X48221406Y21071340D01*
X48181334Y21177004D01*
X48182351Y21177390D01*
X48175500Y21205198D01*
X48175500Y22999848D01*
X48197174Y23052174D01*
X48278326Y23133326D01*
X48330652Y23155000D01*
X49325000Y23155000D01*
X49375000Y23205000D01*
X49375000Y23324348D01*
X49396674Y23376674D01*
X49553326Y23533326D01*
X49605652Y23555000D01*
X50269348Y23555000D01*
X50321674Y23533326D01*
G37*
%TD.AperFunction*%
%TD*%
%TA.AperFunction,Conductor*%
%TO.N,GND*%
G36*
X25921674Y-11021674D02*
G01*
X26853326Y-11953326D01*
X26875000Y-12005652D01*
X26875000Y-13119348D01*
X26853326Y-13171674D01*
X25871674Y-14153326D01*
X25819348Y-14175000D01*
X24480652Y-14175000D01*
X24428326Y-14153326D01*
X23671674Y-13396674D01*
X23650000Y-13344348D01*
X23650000Y-12982579D01*
X23653186Y-12961098D01*
X23707125Y-12783285D01*
X23727639Y-12574999D01*
X23707125Y-12366713D01*
X23653186Y-12188898D01*
X23650000Y-12167417D01*
X23650000Y-11880652D01*
X23671674Y-11828326D01*
X24478326Y-11021674D01*
X24530652Y-11000000D01*
X25869348Y-11000000D01*
X25921674Y-11021674D01*
G37*
%TD.AperFunction*%
%TD*%
%TA.AperFunction,Conductor*%
%TO.N,/pelt_cooler/OUT1*%
G36*
X-13860264Y3605315D02*
G01*
X-13814509Y3552511D01*
X-13803303Y3501000D01*
X-13803303Y2007044D01*
X-13803301Y2007018D01*
X-13800390Y1981913D01*
X-13800389Y1981912D01*
X-13800389Y1981910D01*
X-13800388Y1981909D01*
X-13786069Y1949479D01*
X-13775503Y1899394D01*
X-13775503Y680695D01*
X-13751291Y590331D01*
X-13744803Y566118D01*
X-13744802Y566115D01*
X-13716614Y517294D01*
X-13700000Y455292D01*
X-13700000Y-1111419D01*
X-13700382Y-1121142D01*
X-13700500Y-1122642D01*
X-13700500Y-7602355D01*
X-13700383Y-7603841D01*
X-13700000Y-7613575D01*
X-13700000Y-9773637D01*
X-13719685Y-9840676D01*
X-13736319Y-9861318D01*
X-14672882Y-10797880D01*
X-14734205Y-10831365D01*
X-14803897Y-10826381D01*
X-14848244Y-10797880D01*
X-14967398Y-10678726D01*
X-14967402Y-10678723D01*
X-15104237Y-10587292D01*
X-15104246Y-10587287D01*
X-15256295Y-10524307D01*
X-15256303Y-10524305D01*
X-15417707Y-10492200D01*
X-15417711Y-10492200D01*
X-15582291Y-10492200D01*
X-15582296Y-10492200D01*
X-15743700Y-10524305D01*
X-15743708Y-10524307D01*
X-15895757Y-10587287D01*
X-15895766Y-10587292D01*
X-16032601Y-10678723D01*
X-16032605Y-10678726D01*
X-16148975Y-10795096D01*
X-16148978Y-10795100D01*
X-16240409Y-10931935D01*
X-16240414Y-10931944D01*
X-16303394Y-11083993D01*
X-16303396Y-11084001D01*
X-16335501Y-11245405D01*
X-16335501Y-11409994D01*
X-16303396Y-11571398D01*
X-16303394Y-11571406D01*
X-16240414Y-11723455D01*
X-16240409Y-11723464D01*
X-16148978Y-11860299D01*
X-16148975Y-11860303D01*
X-16029821Y-11979457D01*
X-15996336Y-12040780D01*
X-16001320Y-12110472D01*
X-16029821Y-12154819D01*
X-18213681Y-14338681D01*
X-18275004Y-14372166D01*
X-18301362Y-14375000D01*
X-18698638Y-14375000D01*
X-18765677Y-14355315D01*
X-18786319Y-14338681D01*
X-19563681Y-13561319D01*
X-19597166Y-13499996D01*
X-19600000Y-13473638D01*
X-19600000Y-12676362D01*
X-19580315Y-12609323D01*
X-19563681Y-12588681D01*
X-17562287Y-10587287D01*
X-15550000Y-8575000D01*
X-15550000Y623638D01*
X-15530315Y690677D01*
X-15513681Y711319D01*
X-14900000Y1325000D01*
X-14900000Y1772768D01*
X-14880315Y1839807D01*
X-14863681Y1860449D01*
X-14844995Y1879135D01*
X-14799616Y1981909D01*
X-14796701Y2007035D01*
X-14796702Y2418190D01*
X-14777018Y2485228D01*
X-14774749Y2488633D01*
X-14774385Y2489162D01*
X-14769884Y2495681D01*
X-14716020Y2637709D01*
X-14697711Y2788500D01*
X-14716020Y2939291D01*
X-14769884Y3081319D01*
X-14774754Y3088374D01*
X-14796635Y3154728D01*
X-14796702Y3158812D01*
X-14796702Y3501000D01*
X-14777017Y3568039D01*
X-14724213Y3613794D01*
X-14672702Y3625000D01*
X-13927303Y3625000D01*
X-13860264Y3605315D01*
G37*
%TD.AperFunction*%
%TD*%
%TA.AperFunction,Conductor*%
%TO.N,GND*%
G36*
X-11384323Y42730315D02*
G01*
X-11363681Y42713681D01*
X-11236319Y42586319D01*
X-11202834Y42524996D01*
X-11200000Y42498638D01*
X-11200000Y37701362D01*
X-11219685Y37634323D01*
X-11236319Y37613681D01*
X-11263681Y37586319D01*
X-11325004Y37552834D01*
X-11351362Y37550000D01*
X-12348638Y37550000D01*
X-12415677Y37569685D01*
X-12436319Y37586319D01*
X-12513681Y37663681D01*
X-12547166Y37725004D01*
X-12550000Y37751362D01*
X-12550000Y42598638D01*
X-12530315Y42665677D01*
X-12513681Y42686319D01*
X-12486319Y42713681D01*
X-12424996Y42747166D01*
X-12398638Y42750000D01*
X-11451362Y42750000D01*
X-11384323Y42730315D01*
G37*
%TD.AperFunction*%
%TD*%
%TA.AperFunction,Conductor*%
%TO.N,GND*%
G36*
X-29496674Y66428326D02*
G01*
X-29475000Y66376000D01*
X-29475000Y64180652D01*
X-29496674Y64128326D01*
X-29697826Y63927174D01*
X-29750152Y63905500D01*
X-34199848Y63905500D01*
X-34252174Y63927174D01*
X-34380711Y64055711D01*
X-34398233Y64083598D01*
X-34401943Y64094201D01*
X-34460541Y64173600D01*
X-34475000Y64217542D01*
X-34475000Y64500000D01*
X-34525000Y64550000D01*
X-35122245Y64550000D01*
X-35174571Y64571674D01*
X-35303326Y64700429D01*
X-35325000Y64752755D01*
X-35325000Y64803750D01*
X-35324677Y64810654D01*
X-35324501Y64812536D01*
X-35324500Y64812543D01*
X-35324501Y65287456D01*
X-35324679Y65289352D01*
X-35325000Y65296238D01*
X-35325000Y66376000D01*
X-35303326Y66428326D01*
X-35251000Y66450000D01*
X-29549000Y66450000D01*
X-29496674Y66428326D01*
G37*
%TD.AperFunction*%
%TD*%
%TA.AperFunction,Conductor*%
%TO.N,-60V*%
G36*
X46940677Y8960315D02*
G01*
X46961319Y8943681D01*
X47138681Y8766319D01*
X47172166Y8704996D01*
X47175000Y8678638D01*
X47175000Y1081362D01*
X47155315Y1014323D01*
X47138681Y993681D01*
X47011319Y866319D01*
X46949996Y832834D01*
X46923638Y830000D01*
X34499999Y830000D01*
X33975000Y305001D01*
X33975000Y-1693638D01*
X33955315Y-1760677D01*
X33938681Y-1781319D01*
X33811319Y-1908681D01*
X33749996Y-1942166D01*
X33723638Y-1945000D01*
X33026362Y-1945000D01*
X32959323Y-1925315D01*
X32938681Y-1908681D01*
X32886319Y-1856319D01*
X32852834Y-1794996D01*
X32850000Y-1768638D01*
X32850000Y1028638D01*
X32869685Y1095677D01*
X32886319Y1116319D01*
X33138681Y1368681D01*
X33200004Y1402166D01*
X33226362Y1405000D01*
X35550000Y1405000D01*
X36050000Y1905000D01*
X36213681Y2068681D01*
X36275004Y2102166D01*
X36301362Y2105000D01*
X45500000Y2105000D01*
X45875000Y2480000D01*
X45875000Y8753638D01*
X45894685Y8820677D01*
X45911319Y8841319D01*
X46013681Y8943681D01*
X46075004Y8977166D01*
X46101362Y8980000D01*
X46873638Y8980000D01*
X46940677Y8960315D01*
G37*
%TD.AperFunction*%
%TD*%
%TA.AperFunction,Conductor*%
%TO.N,GND*%
G36*
X53190677Y-10019685D02*
G01*
X53211319Y-10036319D01*
X55888681Y-12713681D01*
X55922166Y-12775004D01*
X55925000Y-12801362D01*
X55925000Y-14598638D01*
X55905315Y-14665677D01*
X55888681Y-14686319D01*
X55761319Y-14813681D01*
X55699996Y-14847166D01*
X55673638Y-14850000D01*
X53576362Y-14850000D01*
X53509323Y-14830315D01*
X53488681Y-14813681D01*
X52061319Y-13386319D01*
X52027834Y-13324996D01*
X52025000Y-13298638D01*
X52025000Y-10201362D01*
X52044685Y-10134323D01*
X52061319Y-10113681D01*
X52138681Y-10036319D01*
X52200004Y-10002834D01*
X52226362Y-10000000D01*
X53123638Y-10000000D01*
X53190677Y-10019685D01*
G37*
%TD.AperFunction*%
%TD*%
%TA.AperFunction,Conductor*%
%TO.N,GND*%
G36*
X-6632461Y40680315D02*
G01*
X-6586706Y40627511D01*
X-6575500Y40576000D01*
X-6575500Y39125862D01*
X-6595185Y39058823D01*
X-6611819Y39038181D01*
X-6613681Y39036319D01*
X-6675004Y39002834D01*
X-6701362Y39000000D01*
X-7998638Y39000000D01*
X-8065677Y39019685D01*
X-8086319Y39036319D01*
X-8113681Y39063681D01*
X-8147166Y39125004D01*
X-8150000Y39151362D01*
X-8150000Y40576000D01*
X-8130315Y40643039D01*
X-8077511Y40688794D01*
X-8026000Y40700000D01*
X-6699500Y40700000D01*
X-6632461Y40680315D01*
G37*
%TD.AperFunction*%
%TD*%
%TA.AperFunction,Conductor*%
%TO.N,GND*%
G36*
X52371674Y41433326D02*
G01*
X53378326Y40426674D01*
X53400000Y40374348D01*
X53400000Y37885652D01*
X53378326Y37833326D01*
X52396674Y36851674D01*
X52344348Y36830000D01*
X37875000Y36830000D01*
X36371674Y35326674D01*
X36319348Y35305000D01*
X34430652Y35305000D01*
X34378326Y35326674D01*
X33746674Y35958326D01*
X33725000Y36010652D01*
X33725000Y39199348D01*
X33746674Y39251674D01*
X34403326Y39908326D01*
X34455652Y39930000D01*
X48450000Y39930000D01*
X49953326Y41433326D01*
X50005652Y41455000D01*
X52319348Y41455000D01*
X52371674Y41433326D01*
G37*
%TD.AperFunction*%
%TD*%
%TA.AperFunction,Conductor*%
%TO.N,+60V*%
G36*
X31321674Y39833326D02*
G01*
X31703326Y39451674D01*
X31725000Y39399348D01*
X31725000Y35805000D01*
X33425000Y34105000D01*
X40200000Y34105000D01*
X40750000Y34655000D01*
X40750000Y36399348D01*
X40771674Y36451674D01*
X40822826Y36502826D01*
X40875152Y36524500D01*
X46024848Y36524500D01*
X46077174Y36502826D01*
X47000000Y35580000D01*
X51944348Y35580000D01*
X51996674Y35558326D01*
X52528326Y35026674D01*
X52550000Y34974348D01*
X52550000Y32910652D01*
X52528326Y32858326D01*
X50221674Y30551674D01*
X50169348Y30530000D01*
X27850000Y30530000D01*
X26975000Y29655000D01*
X26975000Y26266016D01*
X26970847Y26241575D01*
X26939791Y26152826D01*
X26939790Y26152822D01*
X26937339Y26126681D01*
X26932853Y26107352D01*
X26905714Y26035793D01*
X26887406Y25885004D01*
X26887406Y25884997D01*
X26905714Y25734209D01*
X26952212Y25611604D01*
X26952867Y25609806D01*
X26962846Y25581291D01*
X26967000Y25556848D01*
X26967000Y24273154D01*
X26962847Y24248713D01*
X26939791Y24182826D01*
X26939790Y24182821D01*
X26939790Y24182819D01*
X26937000Y24153066D01*
X26937000Y23706934D01*
X26938305Y23693015D01*
X26939790Y23677177D01*
X26953873Y23636934D01*
X26962847Y23611288D01*
X26967000Y23586848D01*
X26967000Y21885998D01*
X26962847Y21861558D01*
X26959792Y21852829D01*
X26959790Y21852821D01*
X26959790Y21852819D01*
X26957000Y21823066D01*
X26957000Y21376934D01*
X26958860Y21357099D01*
X26959790Y21347178D01*
X26970847Y21315583D01*
X26975000Y21291141D01*
X26975000Y20055000D01*
X27450000Y19580000D01*
X28841458Y19580000D01*
X28860610Y19577479D01*
X28965022Y19549501D01*
X28965023Y19549500D01*
X33624848Y19549500D01*
X33677174Y19527826D01*
X34028326Y19176674D01*
X34050000Y19124348D01*
X34050000Y13185652D01*
X34028326Y13133326D01*
X33700000Y12805000D01*
X32475000Y14030000D01*
X24800000Y14030000D01*
X24800000Y36168657D01*
X24821674Y36220983D01*
X24828755Y36227213D01*
X29505015Y39839563D01*
X29550253Y39855000D01*
X31269348Y39855000D01*
X31321674Y39833326D01*
G37*
%TD.AperFunction*%
%TD*%
%TA.AperFunction,Conductor*%
%TO.N,+60V*%
G36*
X33700000Y12805000D02*
G01*
X31925000Y11030000D01*
X31925000Y5585652D01*
X31903326Y5533326D01*
X31696674Y5326674D01*
X31644348Y5305000D01*
X25505652Y5305000D01*
X25453326Y5326674D01*
X24821674Y5958326D01*
X24800000Y6010652D01*
X24800000Y14030000D01*
X32475000Y14030000D01*
X33700000Y12805000D01*
G37*
%TD.AperFunction*%
%TD*%
%TA.AperFunction,Conductor*%
%TO.N,GND*%
G36*
X13321674Y-4721674D02*
G01*
X13405526Y-4805526D01*
X13427200Y-4857852D01*
X13422391Y-4884093D01*
X13388214Y-4974209D01*
X13369906Y-5124996D01*
X13369906Y-5125003D01*
X13388214Y-5275790D01*
X13443666Y-5422004D01*
X13442887Y-5422299D01*
X13450000Y-5451150D01*
X13450000Y-9494348D01*
X13428326Y-9546674D01*
X13246674Y-9728326D01*
X13194348Y-9750000D01*
X11805652Y-9750000D01*
X11753326Y-9728326D01*
X11596674Y-9571674D01*
X11575000Y-9519348D01*
X11575000Y-4955652D01*
X11596674Y-4903326D01*
X11778326Y-4721674D01*
X11830652Y-4700000D01*
X13269348Y-4700000D01*
X13321674Y-4721674D01*
G37*
%TD.AperFunction*%
%TD*%
%TA.AperFunction,Conductor*%
%TO.N,GND*%
G36*
X38821674Y-9996674D02*
G01*
X38878326Y-10053326D01*
X38900000Y-10105652D01*
X38900000Y-10848000D01*
X38878326Y-10900326D01*
X38826000Y-10922000D01*
X37974000Y-10922000D01*
X37921674Y-10900326D01*
X37900000Y-10848000D01*
X37900000Y-10105652D01*
X37921674Y-10053326D01*
X37978326Y-9996674D01*
X38030652Y-9975000D01*
X38769348Y-9975000D01*
X38821674Y-9996674D01*
G37*
%TD.AperFunction*%
%TD*%
%TA.AperFunction,Conductor*%
%TO.N,GND*%
G36*
X4599284Y53080315D02*
G01*
X4619926Y53063681D01*
X4763681Y52919926D01*
X4797166Y52858603D01*
X4800000Y52832245D01*
X4800000Y51524500D01*
X4780315Y51457461D01*
X4727511Y51411706D01*
X4676000Y51400500D01*
X3324000Y51400500D01*
X3256961Y51420185D01*
X3211206Y51472989D01*
X3200000Y51524500D01*
X3200000Y52272275D01*
X3200471Y52280148D01*
X3200279Y52280159D01*
X3200500Y52283851D01*
X3200500Y52749138D01*
X3220185Y52816177D01*
X3236819Y52836819D01*
X3463681Y53063681D01*
X3525004Y53097166D01*
X3551362Y53100000D01*
X4532245Y53100000D01*
X4599284Y53080315D01*
G37*
%TD.AperFunction*%
%TD*%
%TA.AperFunction,Conductor*%
%TO.N,/LTC6090_AC/OUT*%
G36*
X38815677Y55680315D02*
G01*
X38836319Y55663681D01*
X40763681Y53736319D01*
X40797166Y53674996D01*
X40800000Y53648638D01*
X40800000Y51401362D01*
X40780315Y51334323D01*
X40763681Y51313681D01*
X40736319Y51286319D01*
X40674996Y51252834D01*
X40648638Y51250000D01*
X39801362Y51250000D01*
X39734323Y51269685D01*
X39713681Y51286319D01*
X39686319Y51313681D01*
X39652834Y51375004D01*
X39650000Y51401362D01*
X39650000Y53700000D01*
X39200000Y54150000D01*
X36301362Y54150000D01*
X36234323Y54169685D01*
X36213681Y54186319D01*
X36136319Y54263681D01*
X36102834Y54325004D01*
X36100000Y54351362D01*
X36100000Y55498638D01*
X36119685Y55565677D01*
X36136319Y55586319D01*
X36213681Y55663681D01*
X36275004Y55697166D01*
X36301362Y55700000D01*
X38748638Y55700000D01*
X38815677Y55680315D01*
G37*
%TD.AperFunction*%
%TD*%
%TA.AperFunction,Conductor*%
%TO.N,GND*%
G36*
X-27953326Y58828326D02*
G01*
X-27846674Y58721674D01*
X-27825000Y58669348D01*
X-27825000Y57230652D01*
X-27846674Y57178326D01*
X-28103326Y56921674D01*
X-28155652Y56900000D01*
X-29744348Y56900000D01*
X-29796674Y56921674D01*
X-30053326Y57178326D01*
X-30075000Y57230652D01*
X-30075000Y58619348D01*
X-30053326Y58671674D01*
X-29896674Y58828326D01*
X-29844348Y58850000D01*
X-28005652Y58850000D01*
X-27953326Y58828326D01*
G37*
%TD.AperFunction*%
%TD*%
%TA.AperFunction,Conductor*%
%TO.N,Net-(D5-K)*%
G36*
X49253393Y-12181069D02*
G01*
X49430985Y-12238772D01*
X49445466Y-12243477D01*
X49647648Y-12275500D01*
X49647649Y-12275500D01*
X49852351Y-12275500D01*
X49852352Y-12275500D01*
X50054534Y-12243477D01*
X50054537Y-12243476D01*
X50054538Y-12243476D01*
X50246607Y-12181069D01*
X50284925Y-12175000D01*
X50598638Y-12175000D01*
X50665677Y-12194685D01*
X50686319Y-12211319D01*
X51613681Y-13138681D01*
X51647166Y-13200004D01*
X51650000Y-13226362D01*
X51650000Y-14573638D01*
X51630315Y-14640677D01*
X51613681Y-14661319D01*
X50786319Y-15488681D01*
X50724996Y-15522166D01*
X50698638Y-15525000D01*
X38801362Y-15525000D01*
X38734323Y-15505315D01*
X38713681Y-15488681D01*
X37936319Y-14711319D01*
X37902834Y-14649996D01*
X37900000Y-14623638D01*
X37900000Y-14364470D01*
X37919685Y-14297431D01*
X37936319Y-14276789D01*
X38348790Y-13864318D01*
X38410113Y-13830833D01*
X38436471Y-13827999D01*
X38889356Y-13827999D01*
X38889364Y-13827999D01*
X38903128Y-13826402D01*
X38908103Y-13825826D01*
X38922389Y-13825000D01*
X40250000Y-13825000D01*
X40900000Y-13175000D01*
X40900000Y-12626362D01*
X40919685Y-12559323D01*
X40936319Y-12538681D01*
X41263681Y-12211319D01*
X41325004Y-12177834D01*
X41351362Y-12175000D01*
X49215075Y-12175000D01*
X49253393Y-12181069D01*
G37*
%TD.AperFunction*%
%TD*%
%TA.AperFunction,Conductor*%
%TO.N,GND*%
G36*
X-35779888Y53154888D02*
G01*
X-35596674Y52971674D01*
X-35575000Y52919348D01*
X-35575000Y51650000D01*
X-35475000Y51550000D01*
X-33918472Y51550000D01*
X-33918471Y51550001D01*
X-33625002Y51879252D01*
X-33625003Y51879252D01*
X-33625000Y51879254D01*
X-33625000Y52105456D01*
X-33603326Y52157782D01*
X-33549450Y52211658D01*
X-33491854Y52324696D01*
X-33477000Y52418481D01*
X-33477001Y52681518D01*
X-33491854Y52775304D01*
X-33503848Y52798842D01*
X-33508291Y52855303D01*
X-33490240Y52884761D01*
X-33446673Y52928327D01*
X-33394348Y52950000D01*
X-33130652Y52950000D01*
X-33078326Y52928326D01*
X-32921674Y52771674D01*
X-32900000Y52719348D01*
X-32900000Y51255652D01*
X-32921674Y51203326D01*
X-33253326Y50871674D01*
X-33305652Y50850000D01*
X-41794348Y50850000D01*
X-41846674Y50871674D01*
X-42203326Y51228326D01*
X-42225000Y51280652D01*
X-42225000Y52150000D01*
X-36200000Y52150000D01*
X-35800000Y52550000D01*
X-35800000Y53167992D01*
X-35779888Y53154888D01*
G37*
%TD.AperFunction*%
%TD*%
%TA.AperFunction,Conductor*%
%TO.N,+12V*%
G36*
X49265677Y-6044685D02*
G01*
X49286319Y-6061319D01*
X50363681Y-7138681D01*
X50397166Y-7200004D01*
X50400000Y-7226362D01*
X50400000Y-11723638D01*
X50380315Y-11790677D01*
X50363679Y-11811321D01*
X50339603Y-11835396D01*
X50278280Y-11868880D01*
X50261654Y-11871331D01*
X50237132Y-11873261D01*
X50198821Y-11879329D01*
X50198818Y-11879329D01*
X50198816Y-11879330D01*
X50152202Y-11890521D01*
X50152200Y-11890521D01*
X50152186Y-11890525D01*
X49992274Y-11942483D01*
X49973356Y-11947025D01*
X49861691Y-11964712D01*
X49837946Y-11968473D01*
X49818550Y-11970000D01*
X49681451Y-11970000D01*
X49662052Y-11968473D01*
X49526639Y-11947024D01*
X49507720Y-11942482D01*
X49347811Y-11890525D01*
X49347804Y-11890523D01*
X49347797Y-11890521D01*
X49301184Y-11879330D01*
X49301178Y-11879329D01*
X49262867Y-11873261D01*
X49262864Y-11873260D01*
X49215082Y-11869500D01*
X49215075Y-11869500D01*
X43395862Y-11869500D01*
X43328823Y-11849815D01*
X43308181Y-11833181D01*
X39894490Y-8419490D01*
X39875113Y-8389328D01*
X39873048Y-8390456D01*
X39868793Y-8382664D01*
X39782547Y-8267455D01*
X39782544Y-8267452D01*
X39667336Y-8181207D01*
X39659549Y-8176955D01*
X39660668Y-8174905D01*
X39630510Y-8155510D01*
X39250000Y-7775000D01*
X38951362Y-7775000D01*
X38884323Y-7755315D01*
X38863681Y-7738681D01*
X38636319Y-7511319D01*
X38602834Y-7449996D01*
X38600000Y-7423638D01*
X38600000Y-6926362D01*
X38619685Y-6859323D01*
X38636319Y-6838681D01*
X39413681Y-6061319D01*
X39475004Y-6027834D01*
X39501362Y-6025000D01*
X49198638Y-6025000D01*
X49265677Y-6044685D01*
G37*
%TD.AperFunction*%
%TD*%
%TA.AperFunction,Conductor*%
%TO.N,+3.3V*%
G36*
X-23453326Y64828326D02*
G01*
X-23346674Y64721674D01*
X-23325000Y64669348D01*
X-23325000Y60780652D01*
X-23346674Y60728326D01*
X-23603326Y60471674D01*
X-23655652Y60450000D01*
X-25544348Y60450000D01*
X-25596674Y60471674D01*
X-26775000Y61650000D01*
X-33597892Y61650000D01*
X-33645692Y61667509D01*
X-34248800Y62177831D01*
X-34274744Y62228177D01*
X-34275000Y62234322D01*
X-34275000Y63526000D01*
X-34253326Y63578326D01*
X-34201000Y63600000D01*
X-26125000Y63600000D01*
X-25825000Y63900000D01*
X-25825000Y64619348D01*
X-25803326Y64671674D01*
X-25646674Y64828326D01*
X-25594348Y64850000D01*
X-23505652Y64850000D01*
X-23453326Y64828326D01*
G37*
%TD.AperFunction*%
%TD*%
%TA.AperFunction,Conductor*%
%TO.N,/DCDC_inverter/SW*%
G36*
X34465677Y6310315D02*
G01*
X34486319Y6293681D01*
X34837319Y5942681D01*
X34870804Y5881358D01*
X34865820Y5811666D01*
X34837319Y5767319D01*
X31675000Y2605001D01*
X31675000Y-1893638D01*
X31655315Y-1960677D01*
X31638681Y-1981319D01*
X31586319Y-2033681D01*
X31524996Y-2067166D01*
X31498638Y-2070000D01*
X27251362Y-2070000D01*
X27184323Y-2050315D01*
X27163681Y-2033681D01*
X27111319Y-1981319D01*
X27077834Y-1919996D01*
X27075000Y-1893638D01*
X27075000Y2453638D01*
X27094685Y2520677D01*
X27111319Y2541319D01*
X27163681Y2593681D01*
X27225004Y2627166D01*
X27251362Y2630000D01*
X29750000Y2630000D01*
X32300000Y5180000D01*
X32300000Y5728638D01*
X32319685Y5795677D01*
X32336319Y5816319D01*
X32813681Y6293681D01*
X32875004Y6327166D01*
X32901362Y6330000D01*
X34398638Y6330000D01*
X34465677Y6310315D01*
G37*
%TD.AperFunction*%
%TD*%
%TA.AperFunction,Conductor*%
%TO.N,/CO2 Solenoid*%
G36*
X-31934323Y8555315D02*
G01*
X-31913681Y8538681D01*
X-31586319Y8211319D01*
X-31552834Y8149996D01*
X-31550000Y8123638D01*
X-31550000Y2925000D01*
X-30486319Y1861319D01*
X-30452834Y1799996D01*
X-30450000Y1773638D01*
X-30450000Y376362D01*
X-30469685Y309323D01*
X-30486319Y288681D01*
X-30863681Y-88681D01*
X-30925004Y-122166D01*
X-30951362Y-125000D01*
X-34198638Y-125000D01*
X-34265677Y-105315D01*
X-34286319Y-88681D01*
X-34663681Y288681D01*
X-34697166Y350004D01*
X-34700000Y376362D01*
X-34700000Y1673638D01*
X-34680315Y1740677D01*
X-34663681Y1761319D01*
X-34563681Y1861319D01*
X-33550000Y2875000D01*
X-33550000Y8173638D01*
X-33530315Y8240677D01*
X-33513681Y8261319D01*
X-33236319Y8538681D01*
X-33174996Y8572166D01*
X-33148638Y8575000D01*
X-32001362Y8575000D01*
X-31934323Y8555315D01*
G37*
%TD.AperFunction*%
%TD*%
%TA.AperFunction,Conductor*%
%TO.N,GND*%
G36*
X-36025000Y59750000D02*
G01*
X-35911319Y59636319D01*
X-35877834Y59574996D01*
X-35875000Y59548638D01*
X-35875000Y59274500D01*
X-35894685Y59207461D01*
X-35947489Y59161706D01*
X-35999000Y59150500D01*
X-37002922Y59150500D01*
X-37069961Y59170185D01*
X-37115716Y59222989D01*
X-37122695Y59242401D01*
X-37122811Y59242831D01*
X-37122812Y59242836D01*
X-37191995Y59362665D01*
X-37289835Y59460505D01*
X-37289836Y59460506D01*
X-37289839Y59460508D01*
X-37409662Y59529687D01*
X-37409663Y59529688D01*
X-37409664Y59529688D01*
X-37543317Y59565500D01*
X-37681683Y59565500D01*
X-37815336Y59529688D01*
X-37815339Y59529687D01*
X-37935162Y59460508D01*
X-37935167Y59460504D01*
X-38033004Y59362667D01*
X-38033008Y59362662D01*
X-38102187Y59242839D01*
X-38102188Y59242836D01*
X-38138000Y59109183D01*
X-38138000Y58970818D01*
X-38117684Y58894997D01*
X-38119347Y58825147D01*
X-38149777Y58775223D01*
X-38300000Y58625000D01*
X-38300000Y57992756D01*
X-38319685Y57925717D01*
X-38336319Y57905075D01*
X-38345479Y57895916D01*
X-38398208Y57804588D01*
X-38398207Y57804587D01*
X-38425500Y57702727D01*
X-38425500Y54647274D01*
X-38398207Y54545411D01*
X-38371844Y54499750D01*
X-38345480Y54454087D01*
X-38345478Y54454085D01*
X-38336319Y54444926D01*
X-38302834Y54383603D01*
X-38300000Y54357245D01*
X-38300000Y53675000D01*
X-38149778Y53524778D01*
X-38116293Y53463455D01*
X-38117685Y53405004D01*
X-38138000Y53329183D01*
X-38138000Y53190817D01*
X-38102391Y53057924D01*
X-38102188Y53057165D01*
X-38102187Y53057162D01*
X-38033008Y52937339D01*
X-38033006Y52937336D01*
X-38033005Y52937335D01*
X-37935165Y52839495D01*
X-37815336Y52770312D01*
X-37681683Y52734500D01*
X-37681681Y52734500D01*
X-37543319Y52734500D01*
X-37543317Y52734500D01*
X-37409664Y52770312D01*
X-37289835Y52839495D01*
X-37191995Y52937335D01*
X-37122812Y53057164D01*
X-37122695Y53057600D01*
X-37122498Y53057924D01*
X-37119704Y53064669D01*
X-37118652Y53064234D01*
X-37086328Y53117259D01*
X-37023480Y53147785D01*
X-37002922Y53149501D01*
X-35927644Y53149501D01*
X-35927636Y53149501D01*
X-35927621Y53149503D01*
X-35927618Y53149503D01*
X-35902515Y53152414D01*
X-35902515Y53152415D01*
X-35902509Y53152415D01*
X-35893439Y53156420D01*
X-35824167Y53165495D01*
X-35800000Y53154091D01*
X-35800000Y52550000D01*
X-36200000Y52150000D01*
X-42225000Y52150000D01*
X-42225000Y52159411D01*
X-42247166Y52200004D01*
X-42250000Y52226362D01*
X-42250000Y59975000D01*
X-36250000Y59975000D01*
X-36025000Y59750000D01*
G37*
%TD.AperFunction*%
%TD*%
%TA.AperFunction,Conductor*%
%TO.N,GND*%
G36*
X-36278326Y61053326D02*
G01*
X-36046674Y60821674D01*
X-36025000Y60769348D01*
X-36025000Y59750000D01*
X-36250000Y59975000D01*
X-42250000Y59975000D01*
X-42250000Y60844348D01*
X-42228326Y60896674D01*
X-42071674Y61053326D01*
X-42019348Y61075000D01*
X-36330652Y61075000D01*
X-36278326Y61053326D01*
G37*
%TD.AperFunction*%
%TD*%
M02*
