%TF.GenerationSoftware,KiCad,Pcbnew,8.0.4*%
%TF.CreationDate,2025-01-22T16:43:02-08:00*%
%TF.ProjectId,acdc_stimulator,61636463-5f73-4746-996d-756c61746f72,rev?*%
%TF.SameCoordinates,PX43b5fc0PY92dda80*%
%TF.FileFunction,Soldermask,Top*%
%TF.FilePolarity,Negative*%
%FSLAX46Y46*%
G04 Gerber Fmt 4.6, Leading zero omitted, Abs format (unit mm)*
G04 Created by KiCad (PCBNEW 8.0.4) date 2025-01-22 16:43:02*
%MOMM*%
%LPD*%
G01*
G04 APERTURE LIST*
G04 Aperture macros list*
%AMRoundRect*
0 Rectangle with rounded corners*
0 $1 Rounding radius*
0 $2 $3 $4 $5 $6 $7 $8 $9 X,Y pos of 4 corners*
0 Add a 4 corners polygon primitive as box body*
4,1,4,$2,$3,$4,$5,$6,$7,$8,$9,$2,$3,0*
0 Add four circle primitives for the rounded corners*
1,1,$1+$1,$2,$3*
1,1,$1+$1,$4,$5*
1,1,$1+$1,$6,$7*
1,1,$1+$1,$8,$9*
0 Add four rect primitives between the rounded corners*
20,1,$1+$1,$2,$3,$4,$5,0*
20,1,$1+$1,$4,$5,$6,$7,0*
20,1,$1+$1,$6,$7,$8,$9,0*
20,1,$1+$1,$8,$9,$2,$3,0*%
%AMFreePoly0*
4,1,9,-0.101600,0.190500,0.508000,0.190500,0.508000,-0.190500,-0.101600,-0.190500,-0.101600,-2.184400,-2.006600,-2.184400,-2.006600,0.203200,-0.101600,0.203200,-0.101600,0.190500,-0.101600,0.190500,$1*%
%AMFreePoly1*
4,1,7,0.508000,-1.511300,-0.101600,-1.511300,-0.101600,-0.190500,-0.508000,-0.190500,-0.508000,0.190500,0.508000,0.190500,0.508000,-1.511300,0.508000,-1.511300,$1*%
G04 Aperture macros list end*
%ADD10R,6.500000X3.050000*%
%ADD11R,0.450000X1.200000*%
%ADD12R,2.350000X1.550000*%
%ADD13R,1.450000X0.300000*%
%ADD14R,2.740000X4.750000*%
%ADD15RoundRect,0.140000X-0.170000X0.140000X-0.170000X-0.140000X0.170000X-0.140000X0.170000X0.140000X0*%
%ADD16RoundRect,0.140000X-0.140000X-0.170000X0.140000X-0.170000X0.140000X0.170000X-0.140000X0.170000X0*%
%ADD17C,1.734000*%
%ADD18C,1.270000*%
%ADD19RoundRect,0.200000X0.275000X-0.200000X0.275000X0.200000X-0.275000X0.200000X-0.275000X-0.200000X0*%
%ADD20RoundRect,0.135000X-0.135000X-0.185000X0.135000X-0.185000X0.135000X0.185000X-0.135000X0.185000X0*%
%ADD21R,1.350000X4.600000*%
%ADD22R,10.800000X9.400000*%
%ADD23RoundRect,0.250000X1.000000X-1.750000X1.000000X1.750000X-1.000000X1.750000X-1.000000X-1.750000X0*%
%ADD24RoundRect,0.250000X-0.650000X0.325000X-0.650000X-0.325000X0.650000X-0.325000X0.650000X0.325000X0*%
%ADD25RoundRect,0.250000X-0.550000X1.250000X-0.550000X-1.250000X0.550000X-1.250000X0.550000X1.250000X0*%
%ADD26RoundRect,0.135000X-0.185000X0.135000X-0.185000X-0.135000X0.185000X-0.135000X0.185000X0.135000X0*%
%ADD27RoundRect,0.200000X-0.275000X0.200000X-0.275000X-0.200000X0.275000X-0.200000X0.275000X0.200000X0*%
%ADD28C,2.700000*%
%ADD29RoundRect,0.075000X0.700000X0.075000X-0.700000X0.075000X-0.700000X-0.075000X0.700000X-0.075000X0*%
%ADD30RoundRect,0.075000X0.075000X0.700000X-0.075000X0.700000X-0.075000X-0.700000X0.075000X-0.700000X0*%
%ADD31RoundRect,0.250000X-0.325000X-0.650000X0.325000X-0.650000X0.325000X0.650000X-0.325000X0.650000X0*%
%ADD32RoundRect,0.140000X0.170000X-0.140000X0.170000X0.140000X-0.170000X0.140000X-0.170000X-0.140000X0*%
%ADD33RoundRect,0.100000X-0.100000X0.120000X-0.100000X-0.120000X0.100000X-0.120000X0.100000X0.120000X0*%
%ADD34RoundRect,0.100000X-0.100000X0.130000X-0.100000X-0.130000X0.100000X-0.130000X0.100000X0.130000X0*%
%ADD35RoundRect,0.250000X-0.312500X-0.625000X0.312500X-0.625000X0.312500X0.625000X-0.312500X0.625000X0*%
%ADD36RoundRect,0.250000X-0.262500X-0.450000X0.262500X-0.450000X0.262500X0.450000X-0.262500X0.450000X0*%
%ADD37RoundRect,0.140000X0.140000X0.170000X-0.140000X0.170000X-0.140000X-0.170000X0.140000X-0.170000X0*%
%ADD38R,1.980000X3.960000*%
%ADD39O,1.980000X3.960000*%
%ADD40FreePoly0,270.000000*%
%ADD41R,0.381000X1.016000*%
%ADD42FreePoly1,270.000000*%
%ADD43RoundRect,0.250000X0.250000X0.475000X-0.250000X0.475000X-0.250000X-0.475000X0.250000X-0.475000X0*%
%ADD44RoundRect,0.135000X0.185000X-0.135000X0.185000X0.135000X-0.185000X0.135000X-0.185000X-0.135000X0*%
%ADD45RoundRect,0.250000X-0.250000X-0.475000X0.250000X-0.475000X0.250000X0.475000X-0.250000X0.475000X0*%
%ADD46R,1.000000X0.340000*%
%ADD47R,0.500000X0.340000*%
%ADD48R,0.800000X0.340000*%
%ADD49R,1.710000X2.290000*%
%ADD50R,1.500000X2.400000*%
%ADD51R,1.400000X1.200000*%
%ADD52RoundRect,0.218750X-0.218750X-0.256250X0.218750X-0.256250X0.218750X0.256250X-0.218750X0.256250X0*%
%ADD53R,1.000000X0.800000*%
%ADD54C,0.900000*%
%ADD55R,0.700000X1.500000*%
%ADD56R,0.340000X1.000000*%
%ADD57R,0.340000X0.500000*%
%ADD58R,0.340000X0.800000*%
%ADD59R,2.290000X1.710000*%
%ADD60RoundRect,0.250000X0.450000X-0.262500X0.450000X0.262500X-0.450000X0.262500X-0.450000X-0.262500X0*%
%ADD61C,1.524000*%
%ADD62RoundRect,0.250000X0.625000X-0.312500X0.625000X0.312500X-0.625000X0.312500X-0.625000X-0.312500X0*%
%ADD63RoundRect,0.135000X0.135000X0.185000X-0.135000X0.185000X-0.135000X-0.185000X0.135000X-0.185000X0*%
%ADD64RoundRect,0.225000X0.250000X-0.225000X0.250000X0.225000X-0.250000X0.225000X-0.250000X-0.225000X0*%
%ADD65RoundRect,0.100000X-0.130000X-0.100000X0.130000X-0.100000X0.130000X0.100000X-0.130000X0.100000X0*%
%ADD66R,1.651000X2.845000*%
%ADD67R,0.889000X0.305000*%
%ADD68RoundRect,0.150000X-0.512500X-0.150000X0.512500X-0.150000X0.512500X0.150000X-0.512500X0.150000X0*%
%ADD69R,1.000000X0.900000*%
%ADD70C,2.000000*%
%ADD71RoundRect,0.250000X0.475000X-0.250000X0.475000X0.250000X-0.475000X0.250000X-0.475000X-0.250000X0*%
%ADD72R,0.355600X1.473200*%
%ADD73R,5.283200X2.413000*%
%ADD74RoundRect,0.218750X0.256250X-0.218750X0.256250X0.218750X-0.256250X0.218750X-0.256250X-0.218750X0*%
%ADD75RoundRect,0.375000X-0.375000X0.625000X-0.375000X-0.625000X0.375000X-0.625000X0.375000X0.625000X0*%
%ADD76RoundRect,0.500000X-1.400000X0.500000X-1.400000X-0.500000X1.400000X-0.500000X1.400000X0.500000X0*%
%ADD77RoundRect,0.225000X-0.225000X-0.250000X0.225000X-0.250000X0.225000X0.250000X-0.225000X0.250000X0*%
%ADD78R,1.473200X0.355600*%
%ADD79C,2.600000*%
%ADD80C,0.650000*%
%ADD81R,1.150000X0.300000*%
%ADD82O,2.100000X1.000000*%
%ADD83O,1.600000X1.000000*%
%ADD84RoundRect,0.250000X0.262500X0.450000X-0.262500X0.450000X-0.262500X-0.450000X0.262500X-0.450000X0*%
%ADD85RoundRect,0.250000X0.312500X0.625000X-0.312500X0.625000X-0.312500X-0.625000X0.312500X-0.625000X0*%
%ADD86R,2.200000X1.200000*%
%ADD87R,6.400000X5.800000*%
%ADD88RoundRect,0.100000X0.130000X0.100000X-0.130000X0.100000X-0.130000X-0.100000X0.130000X-0.100000X0*%
%ADD89RoundRect,0.250000X0.650000X-0.325000X0.650000X0.325000X-0.650000X0.325000X-0.650000X-0.325000X0*%
%ADD90RoundRect,0.250000X1.250000X0.550000X-1.250000X0.550000X-1.250000X-0.550000X1.250000X-0.550000X0*%
%ADD91R,0.925000X0.500000*%
%ADD92R,0.800000X0.600000*%
%ADD93R,3.655000X4.410000*%
%ADD94RoundRect,0.147500X-0.172500X0.147500X-0.172500X-0.147500X0.172500X-0.147500X0.172500X0.147500X0*%
%ADD95R,1.498600X3.403600*%
%ADD96R,0.990600X3.505200*%
%ADD97RoundRect,0.225000X-0.250000X0.225000X-0.250000X-0.225000X0.250000X-0.225000X0.250000X0.225000X0*%
%ADD98C,0.990600*%
%ADD99C,0.787400*%
%ADD100RoundRect,0.375000X-0.625000X-0.375000X0.625000X-0.375000X0.625000X0.375000X-0.625000X0.375000X0*%
%ADD101RoundRect,0.500000X-0.500000X-1.400000X0.500000X-1.400000X0.500000X1.400000X-0.500000X1.400000X0*%
G04 APERTURE END LIST*
D10*
%TO.C,L8*%
X44400000Y-7675000D03*
X44400000Y-13875000D03*
%TD*%
D11*
%TO.C,IC7*%
X19012500Y37487500D03*
X19662500Y37487500D03*
X20312500Y37487500D03*
X20962500Y37487500D03*
X20962500Y39987500D03*
X20312500Y39987500D03*
X19662500Y39987500D03*
X19012500Y39987500D03*
%TD*%
D12*
%TO.C,D5*%
X54650000Y-13925000D03*
X50350000Y-13925000D03*
%TD*%
D13*
%TO.C,IC3*%
X49237500Y12500000D03*
X49237500Y13000000D03*
X49237500Y13500000D03*
X49237500Y14000000D03*
X49237500Y14500000D03*
X49237500Y15000000D03*
X49237500Y15500000D03*
X49237500Y16000000D03*
X49237500Y16500000D03*
X49237500Y17000000D03*
X49237500Y17500000D03*
X49237500Y18000000D03*
X49237500Y18500000D03*
X49237500Y19000000D03*
X49237500Y19500000D03*
X49237500Y20000000D03*
X49237500Y20500000D03*
X49237500Y21000000D03*
X49237500Y21500000D03*
X43387500Y21500000D03*
X43387500Y21000000D03*
X43387500Y20500000D03*
X43387500Y20000000D03*
X43387500Y19500000D03*
X43387500Y19000000D03*
X43387500Y18500000D03*
X43387500Y18000000D03*
X43387500Y17500000D03*
X43387500Y17000000D03*
X43387500Y16500000D03*
X43387500Y16000000D03*
X43387500Y15500000D03*
X43387500Y15000000D03*
X43387500Y14500000D03*
X43387500Y14000000D03*
X43387500Y13500000D03*
X43387500Y13000000D03*
X43387500Y12500000D03*
D14*
X46312500Y17000000D03*
%TD*%
D15*
%TO.C,C27*%
X41737500Y13400000D03*
X41737500Y12440000D03*
%TD*%
D16*
%TO.C,C42*%
X26557500Y25900000D03*
X27517500Y25900000D03*
%TD*%
D17*
%TO.C,J9*%
X-18500001Y-13287700D03*
X-21500001Y-13287700D03*
D18*
X-24500001Y-11327700D03*
X-15500001Y-11327700D03*
%TD*%
D19*
%TO.C,R17*%
X52587500Y20000000D03*
X52587500Y21650000D03*
%TD*%
D20*
%TO.C,R1*%
X-7300000Y48200000D03*
X-6280000Y48200000D03*
%TD*%
D21*
%TO.C,Q9*%
X29600000Y84850000D03*
D22*
X32150000Y94000000D03*
D21*
X34700000Y84850000D03*
%TD*%
D20*
%TO.C,R3*%
X-3270000Y41760000D03*
X-2250000Y41760000D03*
%TD*%
D23*
%TO.C,C38*%
X51112500Y30250000D03*
X51112500Y38250000D03*
%TD*%
D24*
%TO.C,C33*%
X37005000Y1455000D03*
X37005000Y-1495000D03*
%TD*%
D25*
%TO.C,C3*%
X6450000Y37150000D03*
X6450000Y32750000D03*
%TD*%
D26*
%TO.C,R7*%
X28081900Y52430000D03*
X28081900Y51410000D03*
%TD*%
D27*
%TO.C,R28*%
X39150000Y-8825000D03*
X39150000Y-7175000D03*
%TD*%
D28*
%TO.C,H3*%
X61000000Y109000000D03*
%TD*%
D24*
%TO.C,C30*%
X43925000Y1455000D03*
X43925000Y-1495000D03*
%TD*%
D29*
%TO.C,U1*%
X575000Y53925000D03*
X575000Y54425000D03*
X575000Y54925000D03*
X575000Y55425000D03*
X575000Y55925000D03*
X575000Y56425000D03*
X575000Y56925000D03*
X575000Y57425000D03*
X575000Y57925000D03*
X575000Y58425000D03*
X575000Y58925000D03*
X575000Y59425000D03*
X575000Y59925000D03*
X575000Y60425000D03*
X575000Y60925000D03*
X575000Y61425000D03*
D30*
X-1350000Y63350000D03*
X-1850000Y63350000D03*
X-2350000Y63350000D03*
X-2850000Y63350000D03*
X-3350000Y63350000D03*
X-3850000Y63350000D03*
X-4350000Y63350000D03*
X-4850000Y63350000D03*
X-5350000Y63350000D03*
X-5850000Y63350000D03*
X-6350000Y63350000D03*
X-6850000Y63350000D03*
X-7350000Y63350000D03*
X-7850000Y63350000D03*
X-8350000Y63350000D03*
X-8850000Y63350000D03*
D29*
X-10775000Y61425000D03*
X-10775000Y60925000D03*
X-10775000Y60425000D03*
X-10775000Y59925000D03*
X-10775000Y59425000D03*
X-10775000Y58925000D03*
X-10775000Y58425000D03*
X-10775000Y57925000D03*
X-10775000Y57425000D03*
X-10775000Y56925000D03*
X-10775000Y56425000D03*
X-10775000Y55925000D03*
X-10775000Y55425000D03*
X-10775000Y54925000D03*
X-10775000Y54425000D03*
X-10775000Y53925000D03*
D30*
X-8850000Y52000000D03*
X-8350000Y52000000D03*
X-7850000Y52000000D03*
X-7350000Y52000000D03*
X-6850000Y52000000D03*
X-6350000Y52000000D03*
X-5850000Y52000000D03*
X-5350000Y52000000D03*
X-4850000Y52000000D03*
X-4350000Y52000000D03*
X-3850000Y52000000D03*
X-3350000Y52000000D03*
X-2850000Y52000000D03*
X-2350000Y52000000D03*
X-1850000Y52000000D03*
X-1350000Y52000000D03*
%TD*%
D31*
%TO.C,C54*%
X52700000Y-10975000D03*
X49750000Y-10975000D03*
%TD*%
D32*
%TO.C,C13*%
X-9850000Y63550000D03*
X-9850000Y64510000D03*
%TD*%
D33*
%TO.C,R27*%
X-17850000Y10590500D03*
D34*
X-17850000Y11250500D03*
%TD*%
D16*
%TO.C,C20*%
X-7800000Y70775000D03*
X-6840000Y70775000D03*
%TD*%
D35*
%TO.C,R20*%
X54800000Y12555000D03*
X57725000Y12555000D03*
%TD*%
D36*
%TO.C,R10*%
X34850000Y54924640D03*
X36675000Y54924640D03*
%TD*%
D32*
%TO.C,C6*%
X9850000Y39250000D03*
X9850000Y40210000D03*
%TD*%
D37*
%TO.C,C15*%
X-850000Y50250000D03*
X-1810000Y50250000D03*
%TD*%
D32*
%TO.C,C26*%
X41737500Y20300000D03*
X41737500Y21260000D03*
%TD*%
D38*
%TO.C,J1*%
X30377500Y37485000D03*
D39*
X35377500Y37485000D03*
%TD*%
D40*
%TO.C,MOSFET1*%
X-3343800Y-169500D03*
D41*
X-4004200Y-169500D03*
X-4664600Y-169500D03*
X-5325000Y-169500D03*
X-5325000Y2827700D03*
X-4664600Y2827700D03*
X-4004200Y2827700D03*
D42*
X-3343800Y2827700D03*
%TD*%
D32*
%TO.C,C4*%
X9850000Y37350000D03*
X9850000Y38310000D03*
%TD*%
D16*
%TO.C,C44*%
X26577500Y21600000D03*
X27537500Y21600000D03*
%TD*%
D43*
%TO.C,C45*%
X56075000Y19655000D03*
X54175000Y19655000D03*
%TD*%
D24*
%TO.C,C32*%
X39325000Y1455000D03*
X39325000Y-1495000D03*
%TD*%
D44*
%TO.C,R21*%
X54225000Y17105000D03*
X54225000Y18125000D03*
%TD*%
D36*
%TO.C,R9*%
X31325000Y54924640D03*
X33150000Y54924640D03*
%TD*%
D45*
%TO.C,C16*%
X-31275000Y57950000D03*
X-29375000Y57950000D03*
%TD*%
D46*
%TO.C,Q1*%
X43102500Y53499640D03*
X43102500Y52849640D03*
D47*
X42852500Y53174640D03*
D46*
X43102500Y52199640D03*
D47*
X42852500Y52524640D03*
D46*
X43102500Y51549640D03*
D48*
X40112500Y51549640D03*
X40112500Y52199640D03*
X40112500Y52849640D03*
D49*
X41362500Y52524640D03*
D48*
X40112500Y53499640D03*
%TD*%
D16*
%TO.C,C5*%
X-6147500Y66765000D03*
X-5187500Y66765000D03*
%TD*%
D50*
%TO.C,L4*%
X43887500Y7000000D03*
X37587500Y7000000D03*
%TD*%
D51*
%TO.C,Y1*%
X6400000Y55325000D03*
X8600000Y55325000D03*
X8600000Y57025000D03*
X6400000Y57025000D03*
%TD*%
D52*
%TO.C,F1*%
X-34487500Y59350000D03*
X-32912500Y59350000D03*
%TD*%
D32*
%TO.C,C9*%
X2400000Y54015000D03*
X2400000Y54975000D03*
%TD*%
D31*
%TO.C,C35*%
X46475000Y3440000D03*
X49425000Y3440000D03*
%TD*%
D53*
%TO.C,SW2*%
X-9150000Y39210000D03*
X-9150000Y37000000D03*
D54*
X-7000000Y38100000D03*
X-4000000Y38100000D03*
D53*
X-1850000Y39210000D03*
X-1850000Y37000000D03*
D55*
X-7750000Y39860000D03*
X-4750000Y39860000D03*
X-3250000Y39860000D03*
%TD*%
D56*
%TO.C,Q11*%
X30325000Y76895000D03*
X29675000Y76895000D03*
D57*
X30000000Y77145000D03*
D56*
X29025000Y76895000D03*
D57*
X29350000Y77145000D03*
D56*
X28375000Y76895000D03*
D58*
X28375000Y79885000D03*
X29025000Y79885000D03*
X29675000Y79885000D03*
D59*
X29350000Y78635000D03*
D58*
X30325000Y79885000D03*
%TD*%
D60*
%TO.C,R13*%
X42478100Y61227500D03*
X42478100Y63052500D03*
%TD*%
D20*
%TO.C,R4*%
X-35895000Y65050000D03*
X-34875000Y65050000D03*
%TD*%
D61*
%TO.C,J7*%
X-31150002Y-11887700D03*
X-33690002Y-11887700D03*
%TD*%
D37*
%TO.C,C51*%
X-12960000Y375000D03*
X-12000000Y375000D03*
%TD*%
D28*
%TO.C,H4*%
X61000000Y-20625000D03*
%TD*%
D62*
%TO.C,R16*%
X52550000Y10442500D03*
X52550000Y13367500D03*
%TD*%
D63*
%TO.C,R23*%
X33675000Y80785000D03*
X32655000Y80785000D03*
%TD*%
D64*
%TO.C,C40*%
X44912500Y35967677D03*
X44912500Y37517677D03*
%TD*%
D65*
%TO.C,R6*%
X-34007500Y52550000D03*
X-33367500Y52550000D03*
%TD*%
D66*
%TO.C,IC4*%
X36295000Y-12625000D03*
D67*
X34190000Y-14375000D03*
X34190000Y-13375000D03*
X34190000Y-12375000D03*
X34190000Y-11875000D03*
X34190000Y-11375000D03*
X34190000Y-10875000D03*
X38400000Y-10875000D03*
X38400000Y-11375000D03*
X38400000Y-11875000D03*
X38400000Y-12375000D03*
X38400000Y-13375000D03*
X38400000Y-14375000D03*
%TD*%
D17*
%TO.C,J8*%
X399999Y-13290500D03*
X-2600001Y-13290500D03*
D18*
X-5600001Y-11330500D03*
X3399999Y-11330500D03*
%TD*%
D68*
%TO.C,U3*%
X-34212500Y56100000D03*
X-34212500Y55150000D03*
X-34212500Y54200000D03*
X-31937500Y54200000D03*
X-31937500Y55150000D03*
X-31937500Y56100000D03*
%TD*%
D31*
%TO.C,C37*%
X46475000Y8040000D03*
X49425000Y8040000D03*
%TD*%
D69*
%TO.C,SW1*%
X-11900000Y42200000D03*
X-11900000Y38100000D03*
X-13500000Y42200000D03*
X-13500000Y38100000D03*
%TD*%
D70*
%TO.C,C24*%
X39641900Y61615000D03*
X34641900Y61615000D03*
%TD*%
D71*
%TO.C,C41*%
X52625000Y15905000D03*
X52625000Y17805000D03*
%TD*%
D56*
%TO.C,Q7*%
X2025000Y80815000D03*
X1375000Y80815000D03*
D57*
X1700000Y81065000D03*
D56*
X725000Y80815000D03*
D57*
X1050000Y81065000D03*
D56*
X75000Y80815000D03*
D58*
X75000Y83805000D03*
X725000Y83805000D03*
X1375000Y83805000D03*
D59*
X1050000Y82555000D03*
D58*
X2025000Y83805000D03*
%TD*%
D72*
%TO.C,U7*%
X-10725003Y2788500D03*
D73*
X-14300002Y5709500D03*
D72*
X-11375004Y2788500D03*
X-12025003Y2788500D03*
X-12675004Y2788500D03*
X-13325003Y2788500D03*
X-13975004Y2788500D03*
X-14625003Y2788500D03*
X-15275001Y2788500D03*
X-15925003Y2788500D03*
X-16575001Y2788500D03*
X-17225002Y2788500D03*
X-17875001Y2788500D03*
X-17875001Y8630500D03*
X-17225000Y8630500D03*
X-16575001Y8630500D03*
X-15925000Y8630500D03*
X-15275001Y8630500D03*
X-14625000Y8630500D03*
X-13975001Y8630500D03*
X-13325000Y8630500D03*
X-12675001Y8630500D03*
X-12025000Y8630500D03*
X-11375002Y8630500D03*
X-10725003Y8630500D03*
%TD*%
%TO.C,U4*%
X14424160Y69630600D03*
X15074400Y69630600D03*
X15724640Y69630600D03*
X16374880Y69630600D03*
X17025120Y69630600D03*
X17675360Y69630600D03*
X18325600Y69630600D03*
X18975840Y69630600D03*
X18975840Y75269400D03*
X18325600Y75269400D03*
X17675360Y75269400D03*
X17025120Y75269400D03*
X16374880Y75269400D03*
X15724640Y75269400D03*
X15074400Y75269400D03*
X14424160Y75269400D03*
%TD*%
D74*
%TO.C,FB1*%
X-9200000Y69200000D03*
X-9200000Y70775000D03*
%TD*%
D75*
%TO.C,Q2*%
X-34875001Y7380500D03*
D76*
X-32575001Y1080500D03*
D75*
X-32575001Y7380500D03*
X-30275001Y7380500D03*
%TD*%
D77*
%TO.C,C8*%
X2450000Y52575000D03*
X4000000Y52575000D03*
%TD*%
D78*
%TO.C,U5*%
X31062500Y53275840D03*
X31062500Y52625600D03*
X31062500Y51975360D03*
X31062500Y51325120D03*
X31062500Y50674880D03*
X31062500Y50024640D03*
X31062500Y49374400D03*
X31062500Y48724160D03*
X36701300Y48724160D03*
X36701300Y49374400D03*
X36701300Y50024640D03*
X36701300Y50674880D03*
X36701300Y51325120D03*
X36701300Y51975360D03*
X36701300Y52625600D03*
X36701300Y53275840D03*
%TD*%
D16*
%TO.C,C19*%
X-7800000Y69175000D03*
X-6840000Y69175000D03*
%TD*%
D38*
%TO.C,J6*%
X7150000Y107000000D03*
D39*
X12150000Y107000000D03*
%TD*%
D79*
%TO.C,L1*%
X27478100Y61644760D03*
X30478100Y61644760D03*
%TD*%
D71*
%TO.C,C18*%
X-33275000Y62850000D03*
X-33275000Y64750000D03*
%TD*%
D37*
%TO.C,C50*%
X-10960000Y375000D03*
X-10000000Y375000D03*
%TD*%
D70*
%TO.C,C25*%
X44150000Y108000000D03*
X44150000Y103000000D03*
%TD*%
D80*
%TO.C,J3*%
X-37612500Y59040000D03*
X-37612500Y53260000D03*
D81*
X-36547500Y59500000D03*
X-36547500Y58700000D03*
X-36547500Y57400000D03*
X-36547500Y56400000D03*
X-36547500Y55900000D03*
X-36547500Y54900000D03*
X-36547500Y53600000D03*
X-36547500Y52800000D03*
X-36547500Y53100000D03*
X-36547500Y53900000D03*
X-36547500Y54400000D03*
X-36547500Y55400000D03*
X-36547500Y56900000D03*
X-36547500Y57900000D03*
X-36547500Y58400000D03*
X-36547500Y59200000D03*
D82*
X-37112500Y60470000D03*
D83*
X-41292500Y60470000D03*
D82*
X-37112500Y51830000D03*
D83*
X-41292500Y51830000D03*
%TD*%
D37*
%TO.C,C23*%
X13050000Y-5125000D03*
X14010000Y-5125000D03*
%TD*%
D56*
%TO.C,Q10*%
X23725000Y84095000D03*
X23075000Y84095000D03*
D57*
X23400000Y84345000D03*
D56*
X22425000Y84095000D03*
D57*
X22750000Y84345000D03*
D56*
X21775000Y84095000D03*
D58*
X21775000Y87085000D03*
X22425000Y87085000D03*
X23075000Y87085000D03*
D59*
X22750000Y85835000D03*
D58*
X23725000Y87085000D03*
%TD*%
D84*
%TO.C,R11*%
X44237500Y57615000D03*
X42412500Y57615000D03*
%TD*%
D85*
%TO.C,R34*%
X57725000Y10055000D03*
X54800000Y10055000D03*
%TD*%
D37*
%TO.C,C48*%
X-23805000Y6330500D03*
X-22845000Y6330500D03*
%TD*%
D61*
%TO.C,J5*%
X22659998Y-12574999D03*
X25199998Y-12574999D03*
%TD*%
D86*
%TO.C,Q5*%
X36325000Y14020000D03*
D87*
X30025000Y16300000D03*
D86*
X36325000Y18580000D03*
%TD*%
D88*
%TO.C,C11*%
X9020000Y58675000D03*
X8380000Y58675000D03*
%TD*%
D26*
%TO.C,R8*%
X28437500Y50234640D03*
X28437500Y49214640D03*
%TD*%
D44*
%TO.C,R22*%
X9950000Y76475000D03*
X9950000Y77495000D03*
%TD*%
D33*
%TO.C,R26*%
X-16625000Y10570500D03*
D34*
X-16625000Y11230500D03*
%TD*%
D15*
%TO.C,C36*%
X48537500Y23830000D03*
X48537500Y22870000D03*
%TD*%
D89*
%TO.C,C46*%
X40125000Y17905000D03*
X40125000Y20855000D03*
%TD*%
D77*
%TO.C,C28*%
X19187500Y35837500D03*
X20737500Y35837500D03*
%TD*%
D32*
%TO.C,C17*%
X-7400000Y65075000D03*
X-7400000Y66035000D03*
%TD*%
D90*
%TO.C,C52*%
X-25225000Y2730500D03*
X-20825000Y2730500D03*
%TD*%
D33*
%TO.C,R24*%
X-9625000Y9490500D03*
D34*
X-9625000Y10150500D03*
%TD*%
D21*
%TO.C,Q8*%
X7750000Y81475000D03*
D22*
X10300000Y90625000D03*
D21*
X12850000Y81475000D03*
%TD*%
D65*
%TO.C,R5*%
X-34007500Y57750000D03*
X-33367500Y57750000D03*
%TD*%
D91*
%TO.C,Q4*%
X33315000Y-1705000D03*
X33315000Y-435000D03*
X33315000Y835000D03*
X33315000Y2105000D03*
D92*
X27525000Y2105000D03*
X27525000Y835000D03*
X27525000Y-435000D03*
X27525000Y-1705000D03*
D93*
X29750000Y200000D03*
%TD*%
D20*
%TO.C,R19*%
X54375000Y14305000D03*
X55395000Y14305000D03*
%TD*%
D15*
%TO.C,C12*%
X2300000Y61375000D03*
X2300000Y60415000D03*
%TD*%
D37*
%TO.C,C49*%
X-23825000Y7430500D03*
X-22865000Y7430500D03*
%TD*%
D32*
%TO.C,C2*%
X8850000Y38290000D03*
X8850000Y39250000D03*
%TD*%
D94*
%TO.C,D1*%
X-34975000Y63735000D03*
X-34975000Y62765000D03*
%TD*%
D28*
%TO.C,H1*%
X-36850000Y109000000D03*
%TD*%
D95*
%TO.C,J4*%
X8150000Y-13625000D03*
X18849998Y-13625000D03*
D96*
X16499998Y-7874999D03*
X14500000Y-7874999D03*
X12499998Y-7874999D03*
X10500000Y-7874999D03*
%TD*%
D33*
%TO.C,R25*%
X-15825000Y10595500D03*
D34*
X-15825000Y11255500D03*
%TD*%
D16*
%TO.C,C59*%
X19452500Y34587500D03*
X20412500Y34587500D03*
%TD*%
D24*
%TO.C,C31*%
X41625000Y1455000D03*
X41625000Y-1495000D03*
%TD*%
D65*
%TO.C,C7*%
X5980000Y53675000D03*
X6620000Y53675000D03*
%TD*%
D27*
%TO.C,R18*%
X49937500Y24750000D03*
X49937500Y23100000D03*
%TD*%
D16*
%TO.C,C10*%
X2455000Y57213442D03*
X3415000Y57213442D03*
%TD*%
D15*
%TO.C,C47*%
X-10725000Y10370500D03*
X-10725000Y11330500D03*
%TD*%
D31*
%TO.C,C34*%
X46475000Y5740000D03*
X49425000Y5740000D03*
%TD*%
D20*
%TO.C,R2*%
X-5200000Y48200000D03*
X-4180000Y48200000D03*
%TD*%
D79*
%TO.C,L2*%
X-200000Y89925000D03*
X-200000Y92925000D03*
%TD*%
D97*
%TO.C,C53*%
X31900000Y-14925000D03*
X31900000Y-13375000D03*
%TD*%
D98*
%TO.C,J2*%
X-13053474Y49235000D03*
X-12037474Y44155000D03*
X-14069474Y44155000D03*
D99*
X-13688474Y47965000D03*
X-12418474Y47965000D03*
X-13688474Y46695000D03*
X-12418474Y46695000D03*
X-13688474Y45425000D03*
X-12418474Y45425000D03*
%TD*%
D100*
%TO.C,U2*%
X-30775000Y64950000D03*
X-30775000Y62650000D03*
D101*
X-24475000Y62650000D03*
D100*
X-30775000Y60350000D03*
%TD*%
D56*
%TO.C,Q6*%
X7525000Y73505000D03*
X6875000Y73505000D03*
D57*
X7200000Y73755000D03*
D56*
X6225000Y73505000D03*
D57*
X6550000Y73755000D03*
D56*
X5575000Y73505000D03*
D58*
X5575000Y76495000D03*
X6225000Y76495000D03*
X6875000Y76495000D03*
D59*
X6550000Y75245000D03*
D58*
X7525000Y76495000D03*
%TD*%
D16*
%TO.C,C39*%
X26557500Y23930000D03*
X27517500Y23930000D03*
%TD*%
D27*
%TO.C,R29*%
X31900000Y-11900000D03*
X31900000Y-10250000D03*
%TD*%
D19*
%TO.C,R35*%
X12900000Y73700000D03*
X12900000Y75350000D03*
%TD*%
D13*
%TO.C,IC1*%
X11925000Y39750000D03*
X11925000Y39250000D03*
X11925000Y38750000D03*
X11925000Y38250000D03*
X11925000Y37750000D03*
X16375000Y37750000D03*
X16375000Y38250000D03*
X16375000Y38750000D03*
X16375000Y39250000D03*
X16375000Y39750000D03*
%TD*%
D16*
%TO.C,C1*%
X-6167500Y65665000D03*
X-5207500Y65665000D03*
%TD*%
D63*
%TO.C,R15*%
X20479998Y-8274999D03*
X21499998Y-8274999D03*
%TD*%
D28*
%TO.C,H2*%
X-36850000Y-20625000D03*
%TD*%
D19*
%TO.C,R14*%
X12900000Y70650000D03*
X12900000Y72300000D03*
%TD*%
D79*
%TO.C,L3*%
X21500000Y94475000D03*
X21500000Y91475000D03*
%TD*%
D44*
%TO.C,R12*%
X16350000Y65869400D03*
X16350000Y66889400D03*
%TD*%
D24*
%TO.C,C29*%
X46225000Y1455000D03*
X46225000Y-1495000D03*
%TD*%
D37*
%TO.C,C14*%
X-11100000Y52775000D03*
X-12060000Y52775000D03*
%TD*%
D64*
%TO.C,C43*%
X41912500Y35992677D03*
X41912500Y37542677D03*
%TD*%
D91*
%TO.C,Q3*%
X33315000Y6095000D03*
X33315000Y7365000D03*
X33315000Y8635000D03*
X33315000Y9905000D03*
D92*
X27525000Y9905000D03*
X27525000Y8635000D03*
X27525000Y7365000D03*
X27525000Y6095000D03*
D93*
X29750000Y8000000D03*
%TD*%
M02*
