%TF.GenerationSoftware,KiCad,Pcbnew,8.0.4*%
%TF.CreationDate,2025-01-22T15:19:01-08:00*%
%TF.ProjectId,acdc_stimulator,61636463-5f73-4746-996d-756c61746f72,rev?*%
%TF.SameCoordinates,PX43b5fc0PY92dda80*%
%TF.FileFunction,Legend,Top*%
%TF.FilePolarity,Positive*%
%FSLAX46Y46*%
G04 Gerber Fmt 4.6, Leading zero omitted, Abs format (unit mm)*
G04 Created by KiCad (PCBNEW 8.0.4) date 2025-01-22 15:19:01*
%MOMM*%
%LPD*%
G01*
G04 APERTURE LIST*
%ADD10C,0.300000*%
%ADD11C,0.187500*%
%ADD12C,0.120000*%
%ADD13C,0.200000*%
%ADD14C,0.100000*%
%ADD15C,0.152400*%
%ADD16C,0.000000*%
%ADD17C,0.508000*%
G04 APERTURE END LIST*
D10*
X4233082Y119627743D02*
X4947368Y119627743D01*
X4090225Y119199172D02*
X4590225Y120699172D01*
X4590225Y120699172D02*
X5090225Y119199172D01*
X6447367Y119342029D02*
X6375939Y119270600D01*
X6375939Y119270600D02*
X6161653Y119199172D01*
X6161653Y119199172D02*
X6018796Y119199172D01*
X6018796Y119199172D02*
X5804510Y119270600D01*
X5804510Y119270600D02*
X5661653Y119413458D01*
X5661653Y119413458D02*
X5590224Y119556315D01*
X5590224Y119556315D02*
X5518796Y119842029D01*
X5518796Y119842029D02*
X5518796Y120056315D01*
X5518796Y120056315D02*
X5590224Y120342029D01*
X5590224Y120342029D02*
X5661653Y120484886D01*
X5661653Y120484886D02*
X5804510Y120627743D01*
X5804510Y120627743D02*
X6018796Y120699172D01*
X6018796Y120699172D02*
X6161653Y120699172D01*
X6161653Y120699172D02*
X6375939Y120627743D01*
X6375939Y120627743D02*
X6447367Y120556315D01*
X8161653Y120770600D02*
X6875939Y118842029D01*
X8661653Y119199172D02*
X8661653Y120699172D01*
X8661653Y120699172D02*
X9018796Y120699172D01*
X9018796Y120699172D02*
X9233082Y120627743D01*
X9233082Y120627743D02*
X9375939Y120484886D01*
X9375939Y120484886D02*
X9447368Y120342029D01*
X9447368Y120342029D02*
X9518796Y120056315D01*
X9518796Y120056315D02*
X9518796Y119842029D01*
X9518796Y119842029D02*
X9447368Y119556315D01*
X9447368Y119556315D02*
X9375939Y119413458D01*
X9375939Y119413458D02*
X9233082Y119270600D01*
X9233082Y119270600D02*
X9018796Y119199172D01*
X9018796Y119199172D02*
X8661653Y119199172D01*
X11018796Y119342029D02*
X10947368Y119270600D01*
X10947368Y119270600D02*
X10733082Y119199172D01*
X10733082Y119199172D02*
X10590225Y119199172D01*
X10590225Y119199172D02*
X10375939Y119270600D01*
X10375939Y119270600D02*
X10233082Y119413458D01*
X10233082Y119413458D02*
X10161653Y119556315D01*
X10161653Y119556315D02*
X10090225Y119842029D01*
X10090225Y119842029D02*
X10090225Y120056315D01*
X10090225Y120056315D02*
X10161653Y120342029D01*
X10161653Y120342029D02*
X10233082Y120484886D01*
X10233082Y120484886D02*
X10375939Y120627743D01*
X10375939Y120627743D02*
X10590225Y120699172D01*
X10590225Y120699172D02*
X10733082Y120699172D01*
X10733082Y120699172D02*
X10947368Y120627743D01*
X10947368Y120627743D02*
X11018796Y120556315D01*
X12733082Y119270600D02*
X12947368Y119199172D01*
X12947368Y119199172D02*
X13304510Y119199172D01*
X13304510Y119199172D02*
X13447368Y119270600D01*
X13447368Y119270600D02*
X13518796Y119342029D01*
X13518796Y119342029D02*
X13590225Y119484886D01*
X13590225Y119484886D02*
X13590225Y119627743D01*
X13590225Y119627743D02*
X13518796Y119770600D01*
X13518796Y119770600D02*
X13447368Y119842029D01*
X13447368Y119842029D02*
X13304510Y119913458D01*
X13304510Y119913458D02*
X13018796Y119984886D01*
X13018796Y119984886D02*
X12875939Y120056315D01*
X12875939Y120056315D02*
X12804510Y120127743D01*
X12804510Y120127743D02*
X12733082Y120270600D01*
X12733082Y120270600D02*
X12733082Y120413458D01*
X12733082Y120413458D02*
X12804510Y120556315D01*
X12804510Y120556315D02*
X12875939Y120627743D01*
X12875939Y120627743D02*
X13018796Y120699172D01*
X13018796Y120699172D02*
X13375939Y120699172D01*
X13375939Y120699172D02*
X13590225Y120627743D01*
X14018796Y120199172D02*
X14590224Y120199172D01*
X14233081Y120699172D02*
X14233081Y119413458D01*
X14233081Y119413458D02*
X14304510Y119270600D01*
X14304510Y119270600D02*
X14447367Y119199172D01*
X14447367Y119199172D02*
X14590224Y119199172D01*
X15090224Y119199172D02*
X15090224Y120199172D01*
X15090224Y120699172D02*
X15018796Y120627743D01*
X15018796Y120627743D02*
X15090224Y120556315D01*
X15090224Y120556315D02*
X15161653Y120627743D01*
X15161653Y120627743D02*
X15090224Y120699172D01*
X15090224Y120699172D02*
X15090224Y120556315D01*
X15804510Y119199172D02*
X15804510Y120199172D01*
X15804510Y120056315D02*
X15875939Y120127743D01*
X15875939Y120127743D02*
X16018796Y120199172D01*
X16018796Y120199172D02*
X16233082Y120199172D01*
X16233082Y120199172D02*
X16375939Y120127743D01*
X16375939Y120127743D02*
X16447368Y119984886D01*
X16447368Y119984886D02*
X16447368Y119199172D01*
X16447368Y119984886D02*
X16518796Y120127743D01*
X16518796Y120127743D02*
X16661653Y120199172D01*
X16661653Y120199172D02*
X16875939Y120199172D01*
X16875939Y120199172D02*
X17018796Y120127743D01*
X17018796Y120127743D02*
X17090225Y119984886D01*
X17090225Y119984886D02*
X17090225Y119199172D01*
X18447368Y120199172D02*
X18447368Y119199172D01*
X17804510Y120199172D02*
X17804510Y119413458D01*
X17804510Y119413458D02*
X17875939Y119270600D01*
X17875939Y119270600D02*
X18018796Y119199172D01*
X18018796Y119199172D02*
X18233082Y119199172D01*
X18233082Y119199172D02*
X18375939Y119270600D01*
X18375939Y119270600D02*
X18447368Y119342029D01*
X19375939Y119199172D02*
X19233082Y119270600D01*
X19233082Y119270600D02*
X19161653Y119413458D01*
X19161653Y119413458D02*
X19161653Y120699172D01*
X20590225Y119199172D02*
X20590225Y119984886D01*
X20590225Y119984886D02*
X20518796Y120127743D01*
X20518796Y120127743D02*
X20375939Y120199172D01*
X20375939Y120199172D02*
X20090225Y120199172D01*
X20090225Y120199172D02*
X19947367Y120127743D01*
X20590225Y119270600D02*
X20447367Y119199172D01*
X20447367Y119199172D02*
X20090225Y119199172D01*
X20090225Y119199172D02*
X19947367Y119270600D01*
X19947367Y119270600D02*
X19875939Y119413458D01*
X19875939Y119413458D02*
X19875939Y119556315D01*
X19875939Y119556315D02*
X19947367Y119699172D01*
X19947367Y119699172D02*
X20090225Y119770600D01*
X20090225Y119770600D02*
X20447367Y119770600D01*
X20447367Y119770600D02*
X20590225Y119842029D01*
X21090225Y120199172D02*
X21661653Y120199172D01*
X21304510Y120699172D02*
X21304510Y119413458D01*
X21304510Y119413458D02*
X21375939Y119270600D01*
X21375939Y119270600D02*
X21518796Y119199172D01*
X21518796Y119199172D02*
X21661653Y119199172D01*
X22375939Y119199172D02*
X22233082Y119270600D01*
X22233082Y119270600D02*
X22161653Y119342029D01*
X22161653Y119342029D02*
X22090225Y119484886D01*
X22090225Y119484886D02*
X22090225Y119913458D01*
X22090225Y119913458D02*
X22161653Y120056315D01*
X22161653Y120056315D02*
X22233082Y120127743D01*
X22233082Y120127743D02*
X22375939Y120199172D01*
X22375939Y120199172D02*
X22590225Y120199172D01*
X22590225Y120199172D02*
X22733082Y120127743D01*
X22733082Y120127743D02*
X22804511Y120056315D01*
X22804511Y120056315D02*
X22875939Y119913458D01*
X22875939Y119913458D02*
X22875939Y119484886D01*
X22875939Y119484886D02*
X22804511Y119342029D01*
X22804511Y119342029D02*
X22733082Y119270600D01*
X22733082Y119270600D02*
X22590225Y119199172D01*
X22590225Y119199172D02*
X22375939Y119199172D01*
X23518796Y119199172D02*
X23518796Y120199172D01*
X23518796Y119913458D02*
X23590225Y120056315D01*
X23590225Y120056315D02*
X23661654Y120127743D01*
X23661654Y120127743D02*
X23804511Y120199172D01*
X23804511Y120199172D02*
X23947368Y120199172D01*
D11*
X4313831Y117027790D02*
X4790021Y117027790D01*
X4218593Y116742075D02*
X4551926Y117742075D01*
X4551926Y117742075D02*
X4885259Y116742075D01*
X5218593Y117408742D02*
X5218593Y116742075D01*
X5218593Y117313504D02*
X5266212Y117361123D01*
X5266212Y117361123D02*
X5361450Y117408742D01*
X5361450Y117408742D02*
X5504307Y117408742D01*
X5504307Y117408742D02*
X5599545Y117361123D01*
X5599545Y117361123D02*
X5647164Y117265885D01*
X5647164Y117265885D02*
X5647164Y116742075D01*
X6551926Y117408742D02*
X6551926Y116742075D01*
X6123355Y117408742D02*
X6123355Y116884933D01*
X6123355Y116884933D02*
X6170974Y116789694D01*
X6170974Y116789694D02*
X6266212Y116742075D01*
X6266212Y116742075D02*
X6409069Y116742075D01*
X6409069Y116742075D02*
X6504307Y116789694D01*
X6504307Y116789694D02*
X6551926Y116837314D01*
X6980498Y116789694D02*
X7075736Y116742075D01*
X7075736Y116742075D02*
X7266212Y116742075D01*
X7266212Y116742075D02*
X7361450Y116789694D01*
X7361450Y116789694D02*
X7409069Y116884933D01*
X7409069Y116884933D02*
X7409069Y116932552D01*
X7409069Y116932552D02*
X7361450Y117027790D01*
X7361450Y117027790D02*
X7266212Y117075409D01*
X7266212Y117075409D02*
X7123355Y117075409D01*
X7123355Y117075409D02*
X7028117Y117123028D01*
X7028117Y117123028D02*
X6980498Y117218266D01*
X6980498Y117218266D02*
X6980498Y117265885D01*
X6980498Y117265885D02*
X7028117Y117361123D01*
X7028117Y117361123D02*
X7123355Y117408742D01*
X7123355Y117408742D02*
X7266212Y117408742D01*
X7266212Y117408742D02*
X7361450Y117361123D01*
X7837641Y116742075D02*
X7837641Y117742075D01*
X8266212Y116742075D02*
X8266212Y117265885D01*
X8266212Y117265885D02*
X8218593Y117361123D01*
X8218593Y117361123D02*
X8123355Y117408742D01*
X8123355Y117408742D02*
X7980498Y117408742D01*
X7980498Y117408742D02*
X7885260Y117361123D01*
X7885260Y117361123D02*
X7837641Y117313504D01*
X9504308Y116742075D02*
X9504308Y117742075D01*
X9504308Y117742075D02*
X9837641Y117027790D01*
X9837641Y117027790D02*
X10170974Y117742075D01*
X10170974Y117742075D02*
X10170974Y116742075D01*
X11075736Y117408742D02*
X11075736Y116742075D01*
X10647165Y117408742D02*
X10647165Y116884933D01*
X10647165Y116884933D02*
X10694784Y116789694D01*
X10694784Y116789694D02*
X10790022Y116742075D01*
X10790022Y116742075D02*
X10932879Y116742075D01*
X10932879Y116742075D02*
X11028117Y116789694D01*
X11028117Y116789694D02*
X11075736Y116837314D01*
X11409070Y117408742D02*
X11790022Y117408742D01*
X11551927Y117742075D02*
X11551927Y116884933D01*
X11551927Y116884933D02*
X11599546Y116789694D01*
X11599546Y116789694D02*
X11694784Y116742075D01*
X11694784Y116742075D02*
X11790022Y116742075D01*
X12028118Y117408742D02*
X12266213Y116742075D01*
X12504308Y117408742D02*
X12266213Y116742075D01*
X12266213Y116742075D02*
X12170975Y116503980D01*
X12170975Y116503980D02*
X12123356Y116456361D01*
X12123356Y116456361D02*
X12028118Y116408742D01*
X13313832Y116742075D02*
X13313832Y117265885D01*
X13313832Y117265885D02*
X13266213Y117361123D01*
X13266213Y117361123D02*
X13170975Y117408742D01*
X13170975Y117408742D02*
X12980499Y117408742D01*
X12980499Y117408742D02*
X12885261Y117361123D01*
X13313832Y116789694D02*
X13218594Y116742075D01*
X13218594Y116742075D02*
X12980499Y116742075D01*
X12980499Y116742075D02*
X12885261Y116789694D01*
X12885261Y116789694D02*
X12837642Y116884933D01*
X12837642Y116884933D02*
X12837642Y116980171D01*
X12837642Y116980171D02*
X12885261Y117075409D01*
X12885261Y117075409D02*
X12980499Y117123028D01*
X12980499Y117123028D02*
X13218594Y117123028D01*
X13218594Y117123028D02*
X13313832Y117170647D01*
X13932880Y116742075D02*
X13837642Y116789694D01*
X13837642Y116789694D02*
X13790023Y116884933D01*
X13790023Y116884933D02*
X13790023Y117742075D01*
X14742404Y116742075D02*
X14742404Y117265885D01*
X14742404Y117265885D02*
X14694785Y117361123D01*
X14694785Y117361123D02*
X14599547Y117408742D01*
X14599547Y117408742D02*
X14409071Y117408742D01*
X14409071Y117408742D02*
X14313833Y117361123D01*
X14742404Y116789694D02*
X14647166Y116742075D01*
X14647166Y116742075D02*
X14409071Y116742075D01*
X14409071Y116742075D02*
X14313833Y116789694D01*
X14313833Y116789694D02*
X14266214Y116884933D01*
X14266214Y116884933D02*
X14266214Y116980171D01*
X14266214Y116980171D02*
X14313833Y117075409D01*
X14313833Y117075409D02*
X14409071Y117123028D01*
X14409071Y117123028D02*
X14647166Y117123028D01*
X14647166Y117123028D02*
X14742404Y117170647D01*
X4551926Y116132131D02*
X4647164Y116132131D01*
X4647164Y116132131D02*
X4742402Y116084512D01*
X4742402Y116084512D02*
X4790021Y116036893D01*
X4790021Y116036893D02*
X4837640Y115941655D01*
X4837640Y115941655D02*
X4885259Y115751179D01*
X4885259Y115751179D02*
X4885259Y115513084D01*
X4885259Y115513084D02*
X4837640Y115322608D01*
X4837640Y115322608D02*
X4790021Y115227370D01*
X4790021Y115227370D02*
X4742402Y115179750D01*
X4742402Y115179750D02*
X4647164Y115132131D01*
X4647164Y115132131D02*
X4551926Y115132131D01*
X4551926Y115132131D02*
X4456688Y115179750D01*
X4456688Y115179750D02*
X4409069Y115227370D01*
X4409069Y115227370D02*
X4361450Y115322608D01*
X4361450Y115322608D02*
X4313831Y115513084D01*
X4313831Y115513084D02*
X4313831Y115751179D01*
X4313831Y115751179D02*
X4361450Y115941655D01*
X4361450Y115941655D02*
X4409069Y116036893D01*
X4409069Y116036893D02*
X4456688Y116084512D01*
X4456688Y116084512D02*
X4551926Y116132131D01*
X5837640Y115132131D02*
X5266212Y115132131D01*
X5551926Y115132131D02*
X5551926Y116132131D01*
X5551926Y116132131D02*
X5456688Y115989274D01*
X5456688Y115989274D02*
X5361450Y115894036D01*
X5361450Y115894036D02*
X5266212Y115846417D01*
X6980497Y116179750D02*
X6123355Y114894036D01*
X7504307Y116132131D02*
X7599545Y116132131D01*
X7599545Y116132131D02*
X7694783Y116084512D01*
X7694783Y116084512D02*
X7742402Y116036893D01*
X7742402Y116036893D02*
X7790021Y115941655D01*
X7790021Y115941655D02*
X7837640Y115751179D01*
X7837640Y115751179D02*
X7837640Y115513084D01*
X7837640Y115513084D02*
X7790021Y115322608D01*
X7790021Y115322608D02*
X7742402Y115227370D01*
X7742402Y115227370D02*
X7694783Y115179750D01*
X7694783Y115179750D02*
X7599545Y115132131D01*
X7599545Y115132131D02*
X7504307Y115132131D01*
X7504307Y115132131D02*
X7409069Y115179750D01*
X7409069Y115179750D02*
X7361450Y115227370D01*
X7361450Y115227370D02*
X7313831Y115322608D01*
X7313831Y115322608D02*
X7266212Y115513084D01*
X7266212Y115513084D02*
X7266212Y115751179D01*
X7266212Y115751179D02*
X7313831Y115941655D01*
X7313831Y115941655D02*
X7361450Y116036893D01*
X7361450Y116036893D02*
X7409069Y116084512D01*
X7409069Y116084512D02*
X7504307Y116132131D01*
X8790021Y115132131D02*
X8218593Y115132131D01*
X8504307Y115132131D02*
X8504307Y116132131D01*
X8504307Y116132131D02*
X8409069Y115989274D01*
X8409069Y115989274D02*
X8313831Y115894036D01*
X8313831Y115894036D02*
X8218593Y115846417D01*
X9932878Y116179750D02*
X9075736Y114894036D01*
X10218593Y116036893D02*
X10266212Y116084512D01*
X10266212Y116084512D02*
X10361450Y116132131D01*
X10361450Y116132131D02*
X10599545Y116132131D01*
X10599545Y116132131D02*
X10694783Y116084512D01*
X10694783Y116084512D02*
X10742402Y116036893D01*
X10742402Y116036893D02*
X10790021Y115941655D01*
X10790021Y115941655D02*
X10790021Y115846417D01*
X10790021Y115846417D02*
X10742402Y115703560D01*
X10742402Y115703560D02*
X10170974Y115132131D01*
X10170974Y115132131D02*
X10790021Y115132131D01*
X11694783Y116132131D02*
X11218593Y116132131D01*
X11218593Y116132131D02*
X11170974Y115655941D01*
X11170974Y115655941D02*
X11218593Y115703560D01*
X11218593Y115703560D02*
X11313831Y115751179D01*
X11313831Y115751179D02*
X11551926Y115751179D01*
X11551926Y115751179D02*
X11647164Y115703560D01*
X11647164Y115703560D02*
X11694783Y115655941D01*
X11694783Y115655941D02*
X11742402Y115560703D01*
X11742402Y115560703D02*
X11742402Y115322608D01*
X11742402Y115322608D02*
X11694783Y115227370D01*
X11694783Y115227370D02*
X11647164Y115179750D01*
X11647164Y115179750D02*
X11551926Y115132131D01*
X11551926Y115132131D02*
X11313831Y115132131D01*
X11313831Y115132131D02*
X11218593Y115179750D01*
X11218593Y115179750D02*
X11170974Y115227370D01*
D12*
%TO.C,R35*%
X55227500Y89287742D02*
X55227500Y89762258D01*
X56272500Y89287742D02*
X56272500Y89762258D01*
D13*
%TO.C,L8*%
X107200000Y20300000D02*
X107200000Y12300000D01*
X115200000Y12300000D02*
X115200000Y20300000D01*
%TO.C,L6*%
X107100000Y44700000D02*
X107100000Y36700000D01*
X115100000Y36700000D02*
X115100000Y44700000D01*
%TO.C,L5*%
X107050000Y66850000D02*
X107050000Y58850000D01*
X115050000Y58850000D02*
X115050000Y66850000D01*
%TO.C,IC7*%
X61387500Y53437500D02*
X61387500Y54037500D01*
X61387500Y54037500D02*
X64287500Y54037500D01*
X64287500Y54037500D02*
X64287500Y53437500D01*
X64287500Y53437500D02*
X61387500Y53437500D01*
X61287500Y51887500D02*
X61287500Y53087500D01*
%TO.C,D5*%
X121898000Y14452000D02*
X116375000Y14452000D01*
X116702000Y11848000D02*
X121898000Y11848000D01*
%TO.C,D3*%
X121898000Y38852000D02*
X116375000Y38852000D01*
X116702000Y36248000D02*
X121898000Y36248000D01*
%TO.C,D2*%
X116702000Y58398000D02*
X121898000Y58398000D01*
X121898000Y61002000D02*
X116375000Y61002000D01*
%TO.C,IC3*%
X122437500Y96095000D02*
X120987500Y96095000D01*
D12*
%TO.C,C27*%
X113852500Y97122836D02*
X113852500Y96907164D01*
X114572500Y97122836D02*
X114572500Y96907164D01*
%TO.C,C42*%
X99404664Y110355000D02*
X99620336Y110355000D01*
X99404664Y109635000D02*
X99620336Y109635000D01*
D13*
%TO.C,J9*%
X17924999Y11307300D02*
X17924999Y14437300D01*
X21244999Y15877300D02*
X21244999Y15377300D01*
X21244999Y15377300D02*
X19349999Y15377300D01*
X22344999Y15877300D02*
X21244999Y15877300D01*
X22344999Y15377300D02*
X22344999Y15877300D01*
X23350499Y15377300D02*
X22344999Y15377300D01*
X23354999Y15877300D02*
X23350499Y15377300D01*
X24454999Y15877300D02*
X23354999Y15877300D01*
X24454999Y15377300D02*
X24454999Y15877300D01*
X26349999Y15377300D02*
X24454999Y15377300D01*
X27774999Y14437300D02*
X27774999Y11307300D01*
X27774999Y11307300D02*
X17924999Y11307300D01*
X20049999Y13337300D02*
G75*
G02*
X19849999Y13337300I-100000J0D01*
G01*
X19849999Y13337300D02*
G75*
G02*
X20049999Y13337300I100000J0D01*
G01*
D12*
%TO.C,R17*%
X124540000Y104682742D02*
X124540000Y105157258D01*
X125585000Y104682742D02*
X125585000Y105157258D01*
%TO.C,R1*%
X35906359Y63580000D02*
X36213641Y63580000D01*
X35906359Y62820000D02*
X36213641Y62820000D01*
D13*
%TO.C,Q9*%
X69973000Y103643000D02*
X69973000Y104073000D01*
D14*
X72450000Y97033000D02*
X72450000Y97033000D01*
X72450000Y96933000D02*
X72450000Y96933000D01*
D13*
X80027000Y104073000D02*
X80027000Y103643000D01*
X80027000Y103643000D02*
X69973000Y103643000D01*
D14*
X72450000Y97033000D02*
G75*
G02*
X72450000Y96933000I0J-50000D01*
G01*
X72450000Y96933000D02*
G75*
G02*
X72450000Y97033000I0J50000D01*
G01*
D12*
%TO.C,R3*%
X39936359Y57140000D02*
X40243641Y57140000D01*
X39936359Y56380000D02*
X40243641Y56380000D01*
%TO.C,C38*%
X118327500Y123605000D02*
X122077500Y123605000D01*
X118327500Y114149437D02*
X118327500Y123605000D01*
X119391937Y113085000D02*
X118327500Y114149437D01*
X119391937Y113085000D02*
X122077500Y113085000D01*
X120202500Y112220000D02*
X121452500Y112220000D01*
X120827500Y111595000D02*
X120827500Y112845000D01*
X127783063Y113085000D02*
X125097500Y113085000D01*
X127783063Y113085000D02*
X128847500Y114149437D01*
X128847500Y123605000D02*
X125097500Y123605000D01*
X128847500Y114149437D02*
X128847500Y123605000D01*
%TO.C,C33*%
X108570000Y84786252D02*
X108570000Y83363748D01*
X110390000Y84786252D02*
X110390000Y83363748D01*
%TO.C,C3*%
X46540000Y51645563D02*
X46540000Y47190000D01*
X46540000Y47190000D02*
X48240000Y47190000D01*
X47604437Y52710000D02*
X46540000Y51645563D01*
X47604437Y52710000D02*
X48240000Y52710000D01*
X50985000Y53575000D02*
X50985000Y52950000D01*
X50995563Y52710000D02*
X50360000Y52710000D01*
X50995563Y52710000D02*
X52060000Y51645563D01*
X51297500Y53262500D02*
X50672500Y53262500D01*
X52060000Y51645563D02*
X52060000Y47190000D01*
X52060000Y47190000D02*
X50360000Y47190000D01*
%TO.C,R7*%
X70551900Y67073641D02*
X70551900Y66766359D01*
X71311900Y67073641D02*
X71311900Y66766359D01*
%TO.C,R28*%
X105427500Y19312258D02*
X105427500Y18837742D01*
X106472500Y19312258D02*
X106472500Y18837742D01*
%TO.C,C30*%
X115490000Y84786252D02*
X115490000Y83363748D01*
X117310000Y84786252D02*
X117310000Y83363748D01*
%TO.C,U1*%
X32640000Y77785000D02*
X32640000Y76835000D01*
X32640000Y67565000D02*
X32640000Y68515000D01*
X33590000Y77785000D02*
X32640000Y77785000D01*
X33590000Y67565000D02*
X32640000Y67565000D01*
X41910000Y77785000D02*
X42860000Y77785000D01*
X41910000Y67565000D02*
X42860000Y67565000D01*
X42860000Y77785000D02*
X42860000Y76835000D01*
X42860000Y67565000D02*
X42860000Y68515000D01*
X43815000Y68045000D02*
X43135000Y68045000D01*
X43475000Y68515000D01*
X43815000Y68045000D01*
G36*
X43815000Y68045000D02*
G01*
X43135000Y68045000D01*
X43475000Y68515000D01*
X43815000Y68045000D01*
G37*
D13*
%TO.C,IC5*%
X101495000Y63019000D02*
X104095000Y63000000D01*
X104095000Y58980000D02*
X101495000Y58980000D01*
D14*
X105895000Y59250000D02*
X105895000Y59250000D01*
X105995000Y59250000D02*
X105995000Y59250000D01*
X105895000Y59250000D02*
G75*
G02*
X105995000Y59250000I50000J0D01*
G01*
X105995000Y59250000D02*
G75*
G02*
X105895000Y59250000I-50000J0D01*
G01*
D12*
%TO.C,C54*%
X117313748Y17010000D02*
X118736252Y17010000D01*
X117313748Y15190000D02*
X118736252Y15190000D01*
%TO.C,C13*%
X32640000Y78922164D02*
X32640000Y79137836D01*
X33360000Y78922164D02*
X33360000Y79137836D01*
%TO.C,C20*%
X35422164Y86135000D02*
X35637836Y86135000D01*
X35422164Y85415000D02*
X35637836Y85415000D01*
D13*
%TO.C,IC6*%
X101550000Y40869000D02*
X104150000Y40850000D01*
X104150000Y36830000D02*
X101550000Y36830000D01*
D14*
X105950000Y37100000D02*
X105950000Y37100000D01*
X106050000Y37100000D02*
X106050000Y37100000D01*
X105950000Y37100000D02*
G75*
G02*
X106050000Y37100000I50000J0D01*
G01*
X106050000Y37100000D02*
G75*
G02*
X105950000Y37100000I-50000J0D01*
G01*
D12*
%TO.C,R20*%
X128010436Y97560000D02*
X129464564Y97560000D01*
X128010436Y95740000D02*
X129464564Y95740000D01*
%TO.C,R10*%
X78385436Y70659640D02*
X78839564Y70659640D01*
X78385436Y69189640D02*
X78839564Y69189640D01*
%TO.C,C6*%
X52340000Y54622164D02*
X52340000Y54837836D01*
X53060000Y54622164D02*
X53060000Y54837836D01*
%TO.C,C15*%
X41627836Y65610000D02*
X41412164Y65610000D01*
X41627836Y64890000D02*
X41412164Y64890000D01*
%TO.C,R31*%
X98415000Y62043641D02*
X98415000Y61736359D01*
X99175000Y62043641D02*
X99175000Y61736359D01*
%TO.C,C26*%
X113852500Y104767164D02*
X113852500Y104982836D01*
X114572500Y104767164D02*
X114572500Y104982836D01*
%TO.C,J1*%
X100202500Y127880000D02*
X100202500Y115280000D01*
X100202500Y115280000D02*
X110552500Y115280000D01*
X110552500Y123080000D02*
X111052500Y122780000D01*
X110552500Y117680000D02*
X110552500Y123080000D01*
X110552500Y116230000D02*
X111052500Y115980000D01*
X110552500Y115280000D02*
X110552500Y116230000D01*
X111052500Y127880000D02*
X100202500Y127880000D01*
X111052500Y122780000D02*
X111052500Y127880000D01*
X111052500Y117930000D02*
X110552500Y117680000D01*
X111052500Y117880000D02*
X111052500Y117930000D01*
X111052500Y115980000D02*
X111052500Y117880000D01*
D15*
%TO.C,MOSFET1*%
X36686800Y29782900D02*
X36686800Y26125300D01*
X36686800Y26125300D02*
X37001760Y26125300D01*
X37001760Y29782900D02*
X36686800Y29782900D01*
X40029440Y26125300D02*
X40344400Y26125300D01*
X40344400Y29782900D02*
X40029440Y29782900D01*
X40344400Y26125300D02*
X40344400Y29782900D01*
D12*
%TO.C,C4*%
X52340000Y52722164D02*
X52340000Y52937836D01*
X53060000Y52722164D02*
X53060000Y52937836D01*
%TO.C,C44*%
X99424664Y106055000D02*
X99640336Y106055000D01*
X99424664Y105335000D02*
X99640336Y105335000D01*
%TO.C,C45*%
X127861252Y104485000D02*
X127338748Y104485000D01*
X127861252Y103015000D02*
X127338748Y103015000D01*
%TO.C,C58*%
X117313748Y39640000D02*
X118736252Y39640000D01*
X117313748Y41460000D02*
X118736252Y41460000D01*
%TO.C,C32*%
X110890000Y84786252D02*
X110890000Y83363748D01*
X112710000Y84786252D02*
X112710000Y83363748D01*
%TO.C,R21*%
X126320000Y101556359D02*
X126320000Y101863641D01*
X127080000Y101556359D02*
X127080000Y101863641D01*
%TO.C,R9*%
X74860436Y70659640D02*
X75314564Y70659640D01*
X74860436Y69189640D02*
X75314564Y69189640D01*
%TO.C,C16*%
X12263748Y73685000D02*
X12786252Y73685000D01*
X12263748Y72215000D02*
X12786252Y72215000D01*
D14*
%TO.C,Q1*%
X82917500Y69174640D02*
X82917500Y69024640D01*
X82917500Y65874640D02*
X82917500Y66024640D01*
X86217500Y69174640D02*
X82917500Y69174640D01*
X86217500Y69024640D02*
X86217500Y69174640D01*
X86217500Y66024640D02*
X86217500Y65874640D01*
X86217500Y65874640D02*
X82917500Y65874640D01*
D13*
X87367500Y66624640D02*
X87367500Y66624640D01*
X87367500Y66424640D02*
X87367500Y66424640D01*
X87367500Y66624640D02*
G75*
G02*
X87367500Y66424640I0J-100000D01*
G01*
X87367500Y66424640D02*
G75*
G02*
X87367500Y66624640I0J100000D01*
G01*
D12*
%TO.C,C5*%
X37074664Y82125000D02*
X37290336Y82125000D01*
X37074664Y81405000D02*
X37290336Y81405000D01*
D13*
%TO.C,L4*%
X109562500Y94745000D02*
X109562500Y92695000D01*
X109562500Y89495000D02*
X109562500Y87445000D01*
X109562500Y87445000D02*
X116862500Y87445000D01*
X116862500Y94745000D02*
X109562500Y94745000D01*
X116862500Y92695000D02*
X116862500Y94745000D01*
X116862500Y87445000D02*
X116862500Y89495000D01*
D14*
X117612500Y91095000D02*
X117612500Y91095000D01*
X117712500Y91095000D02*
X117712500Y91095000D01*
X117612500Y91095000D02*
G75*
G02*
X117712500Y91095000I50000J0D01*
G01*
X117712500Y91095000D02*
G75*
G02*
X117612500Y91095000I-50000J0D01*
G01*
D12*
%TO.C,Y1*%
X48350000Y72825000D02*
X48350000Y69525000D01*
X48350000Y69525000D02*
X52350000Y69525000D01*
%TO.C,F1*%
X8987221Y74860000D02*
X9312779Y74860000D01*
X8987221Y73840000D02*
X9312779Y73840000D01*
%TO.C,C9*%
X44890000Y69387164D02*
X44890000Y69602836D01*
X45610000Y69387164D02*
X45610000Y69602836D01*
%TO.C,C35*%
X119713748Y88445000D02*
X121136252Y88445000D01*
X119713748Y86625000D02*
X121136252Y86625000D01*
%TO.C,C56*%
X117313748Y63610000D02*
X118736252Y63610000D01*
X117313748Y61790000D02*
X118736252Y61790000D01*
%TO.C,SW2*%
X33900000Y53500000D02*
X33900000Y52710000D01*
X34500000Y51700000D02*
X40200000Y51700000D01*
X35750000Y54550000D02*
X37450000Y54550000D01*
X35950000Y51700000D02*
X35950000Y50410000D01*
X35950000Y50410000D02*
X36150000Y50200000D01*
X36150000Y50200000D02*
X37050000Y50200000D01*
X37250000Y50410000D02*
X37050000Y50200000D01*
X37250000Y50410000D02*
X37250000Y51700000D01*
X38750000Y54550000D02*
X38950000Y54550000D01*
X40800000Y52710000D02*
X40800000Y53500000D01*
D14*
%TO.C,Q11*%
X70550000Y94930000D02*
X70700000Y94930000D01*
X70550000Y91630000D02*
X70550000Y94930000D01*
X70700000Y91630000D02*
X70550000Y91630000D01*
D13*
X71100000Y90480000D02*
X71100000Y90480000D01*
X71300000Y90480000D02*
X71300000Y90480000D01*
D14*
X73700000Y91630000D02*
X73850000Y91630000D01*
X73850000Y94930000D02*
X73700000Y94930000D01*
X73850000Y91630000D02*
X73850000Y94930000D01*
D13*
X71100000Y90480000D02*
G75*
G02*
X71300000Y90480000I100000J0D01*
G01*
X71300000Y90480000D02*
G75*
G02*
X71100000Y90480000I-100000J0D01*
G01*
D12*
%TO.C,R13*%
X84593100Y76912936D02*
X84593100Y77367064D01*
X86063100Y76912936D02*
X86063100Y77367064D01*
%TO.C,R4*%
X7311359Y80430000D02*
X7618641Y80430000D01*
X7311359Y79670000D02*
X7618641Y79670000D01*
D15*
%TO.C,J7*%
X6746998Y17658300D02*
X6746998Y11308300D01*
X6746998Y11308300D02*
X14112998Y11308300D01*
X14112998Y17658300D02*
X6746998Y17658300D01*
X14112998Y11308300D02*
X14112998Y17658300D01*
D12*
%TO.C,C51*%
X30477836Y27360000D02*
X30262164Y27360000D01*
X30477836Y26640000D02*
X30262164Y26640000D01*
%TO.C,R16*%
X124115000Y95272936D02*
X124115000Y96727064D01*
X125935000Y95272936D02*
X125935000Y96727064D01*
%TO.C,R23*%
X76168641Y96165000D02*
X75861359Y96165000D01*
X76168641Y95405000D02*
X75861359Y95405000D01*
%TO.C,C40*%
X116877500Y120697097D02*
X116877500Y120978257D01*
X117897500Y120697097D02*
X117897500Y120978257D01*
D13*
%TO.C,IC4*%
X101695000Y16469000D02*
X104295000Y16450000D01*
X104295000Y12430000D02*
X101695000Y12430000D01*
D14*
X106095000Y12700000D02*
X106095000Y12700000D01*
X106195000Y12700000D02*
X106195000Y12700000D01*
X106095000Y12700000D02*
G75*
G02*
X106195000Y12700000I50000J0D01*
G01*
X106195000Y12700000D02*
G75*
G02*
X106095000Y12700000I-50000J0D01*
G01*
D13*
%TO.C,J8*%
X36824999Y11304500D02*
X36824999Y14434500D01*
X40144999Y15874500D02*
X40144999Y15374500D01*
X40144999Y15374500D02*
X38249999Y15374500D01*
X41244999Y15874500D02*
X40144999Y15874500D01*
X41244999Y15374500D02*
X41244999Y15874500D01*
X42250499Y15374500D02*
X41244999Y15374500D01*
X42254999Y15874500D02*
X42250499Y15374500D01*
X43354999Y15874500D02*
X42254999Y15874500D01*
X43354999Y15374500D02*
X43354999Y15874500D01*
X45249999Y15374500D02*
X43354999Y15374500D01*
X46674999Y14434500D02*
X46674999Y11304500D01*
X46674999Y11304500D02*
X36824999Y11304500D01*
X38949999Y13334500D02*
G75*
G02*
X38749999Y13334500I-100000J0D01*
G01*
X38749999Y13334500D02*
G75*
G02*
X38949999Y13334500I100000J0D01*
G01*
D12*
%TO.C,U3*%
X9775000Y71710000D02*
X8975000Y71710000D01*
X9775000Y71710000D02*
X10575000Y71710000D01*
X9775000Y68590000D02*
X8975000Y68590000D01*
X9775000Y68590000D02*
X10575000Y68590000D01*
X8475000Y71660000D02*
X8235000Y71990000D01*
X8715000Y71990000D01*
X8475000Y71660000D01*
G36*
X8475000Y71660000D02*
G01*
X8235000Y71990000D01*
X8715000Y71990000D01*
X8475000Y71660000D01*
G37*
%TO.C,C37*%
X119713748Y93045000D02*
X121136252Y93045000D01*
X119713748Y91225000D02*
X121136252Y91225000D01*
%TO.C,SW1*%
X28600000Y57350000D02*
X28600000Y52950000D01*
X30100000Y57350000D02*
X30200000Y57350000D01*
X30100000Y52950000D02*
X30200000Y52950000D01*
X31700000Y52950000D02*
X31700000Y57350000D01*
%TO.C,C24*%
X76121900Y75245000D02*
X76121900Y77985000D01*
X83861900Y77985000D02*
X76121900Y77985000D01*
X83861900Y75245000D02*
X76121900Y75245000D01*
X83861900Y75245000D02*
X83861900Y77985000D01*
%TO.C,C41*%
X124365000Y100688748D02*
X124365000Y101211252D01*
X125835000Y100688748D02*
X125835000Y101211252D01*
D14*
%TO.C,Q7*%
X42250000Y98850000D02*
X42400000Y98850000D01*
X42250000Y95550000D02*
X42250000Y98850000D01*
X42400000Y95550000D02*
X42250000Y95550000D01*
D13*
X42800000Y94400000D02*
X42800000Y94400000D01*
X43000000Y94400000D02*
X43000000Y94400000D01*
D14*
X45400000Y95550000D02*
X45550000Y95550000D01*
X45550000Y98850000D02*
X45400000Y98850000D01*
X45550000Y95550000D02*
X45550000Y98850000D01*
D13*
X42800000Y94400000D02*
G75*
G02*
X43000000Y94400000I100000J0D01*
G01*
X43000000Y94400000D02*
G75*
G02*
X42800000Y94400000I-100000J0D01*
G01*
D15*
%TO.C,U7*%
X24473298Y34442715D02*
X24473298Y30226285D01*
X32626698Y30226285D02*
X32626698Y34442715D01*
D16*
G36*
X26465499Y36246100D02*
G01*
X26084499Y36246100D01*
X26084499Y36500100D01*
X26465499Y36500100D01*
X26465499Y36246100D01*
G37*
G36*
X29715497Y28168900D02*
G01*
X29334497Y28168900D01*
X29334497Y28422900D01*
X29715497Y28422900D01*
X29715497Y28168900D01*
G37*
D12*
%TO.C,R33*%
X98470000Y39893641D02*
X98470000Y39586359D01*
X99230000Y39893641D02*
X99230000Y39586359D01*
D15*
%TO.C,U4*%
X56870300Y89288643D02*
X56870300Y85611357D01*
X62229700Y85611357D02*
X62229700Y89288643D01*
D16*
G36*
X61366100Y91260000D02*
G01*
X60985100Y91260000D01*
X60985100Y91514000D01*
X61366100Y91514000D01*
X61366100Y91260000D01*
G37*
D12*
%TO.C,FB1*%
X33140000Y84824721D02*
X33140000Y85150279D01*
X34160000Y84824721D02*
X34160000Y85150279D01*
%TO.C,Q2*%
X6864999Y32705500D02*
X6864999Y28945500D01*
X6864999Y28945500D02*
X8124999Y28945500D01*
X13684999Y32705500D02*
X13684999Y28945500D01*
X13684999Y28945500D02*
X12424999Y28945500D01*
X13914999Y33745500D02*
X13584999Y33985500D01*
X13914999Y34225500D01*
X13914999Y33745500D01*
G36*
X13914999Y33745500D02*
G01*
X13584999Y33985500D01*
X13914999Y34225500D01*
X13914999Y33745500D01*
G37*
%TO.C,C8*%
X45934420Y68085000D02*
X46215580Y68085000D01*
X45934420Y67065000D02*
X46215580Y67065000D01*
D15*
%TO.C,U5*%
X74893257Y63320300D02*
X78570543Y63320300D01*
X78570543Y68679700D02*
X74893257Y68679700D01*
D16*
G36*
X80795900Y64183900D02*
G01*
X80541900Y64183900D01*
X80541900Y64564900D01*
X80795900Y64564900D01*
X80795900Y64183900D01*
G37*
D12*
%TO.C,C19*%
X35422164Y84535000D02*
X35637836Y84535000D01*
X35422164Y83815000D02*
X35637836Y83815000D01*
%TO.C,J6*%
X47350000Y128300000D02*
X47350000Y115700000D01*
X47350000Y115700000D02*
X57700000Y115700000D01*
X57700000Y123500000D02*
X58200000Y123200000D01*
X57700000Y118100000D02*
X57700000Y123500000D01*
X57700000Y116650000D02*
X58200000Y116400000D01*
X57700000Y115700000D02*
X57700000Y116650000D01*
X58200000Y128300000D02*
X47350000Y128300000D01*
X58200000Y123200000D02*
X58200000Y128300000D01*
X58200000Y118350000D02*
X57700000Y118100000D01*
X58200000Y118300000D02*
X58200000Y118350000D01*
X58200000Y116400000D02*
X58200000Y118300000D01*
%TO.C,L1*%
X75448100Y76644760D02*
G75*
G02*
X68208100Y76644760I-3620000J0D01*
G01*
X68208100Y76644760D02*
G75*
G02*
X75448100Y76644760I3620000J0D01*
G01*
%TO.C,C18*%
X8840000Y78538748D02*
X8840000Y79061252D01*
X10310000Y78538748D02*
X10310000Y79061252D01*
%TO.C,C50*%
X32477836Y27360000D02*
X32262164Y27360000D01*
X32477836Y26640000D02*
X32262164Y26640000D01*
%TO.C,C25*%
X85630000Y124370000D02*
X85630000Y116630000D01*
X88370000Y124370000D02*
X85630000Y124370000D01*
X88370000Y124370000D02*
X88370000Y116630000D01*
X88370000Y116630000D02*
X85630000Y116630000D01*
%TO.C,J3*%
X-1152500Y75730000D02*
X552500Y75730000D01*
X-1152500Y66570000D02*
X-1152500Y75730000D01*
X552500Y66570000D02*
X-1152500Y66570000D01*
X2562500Y66570000D02*
X4482500Y66570000D01*
X4482500Y75730000D02*
X2562500Y75730000D01*
%TO.C,C23*%
X56487836Y21860000D02*
X56272164Y21860000D01*
X56487836Y21140000D02*
X56272164Y21140000D01*
D14*
%TO.C,Q10*%
X63950000Y102130000D02*
X64100000Y102130000D01*
X63950000Y98830000D02*
X63950000Y102130000D01*
X64100000Y98830000D02*
X63950000Y98830000D01*
D13*
X64500000Y97680000D02*
X64500000Y97680000D01*
X64700000Y97680000D02*
X64700000Y97680000D01*
D14*
X67100000Y98830000D02*
X67250000Y98830000D01*
X67250000Y102130000D02*
X67100000Y102130000D01*
X67250000Y98830000D02*
X67250000Y102130000D01*
D13*
X64500000Y97680000D02*
G75*
G02*
X64700000Y97680000I100000J0D01*
G01*
X64700000Y97680000D02*
G75*
G02*
X64500000Y97680000I-100000J0D01*
G01*
D12*
%TO.C,R11*%
X86402064Y73350000D02*
X85947936Y73350000D01*
X86402064Y71880000D02*
X85947936Y71880000D01*
%TO.C,C57*%
X98040000Y37415580D02*
X98040000Y37134420D01*
X99060000Y37415580D02*
X99060000Y37134420D01*
%TO.C,R34*%
X129464564Y95060000D02*
X128010436Y95060000D01*
X129464564Y93240000D02*
X128010436Y93240000D01*
%TO.C,C48*%
X19632836Y33315500D02*
X19417164Y33315500D01*
X19632836Y32595500D02*
X19417164Y32595500D01*
D15*
%TO.C,J5*%
X63096998Y17479001D02*
X63096998Y11129001D01*
X63096998Y11129001D02*
X70462998Y11129001D01*
X70462998Y17479001D02*
X63096998Y17479001D01*
X70462998Y11129001D02*
X70462998Y17479001D01*
D14*
%TO.C,Q5*%
X100800000Y97145000D02*
X107020000Y97145000D01*
X107020000Y103645000D02*
X100800000Y103645000D01*
X107020000Y97145000D02*
X107020000Y103645000D01*
D13*
X110300000Y98195000D02*
X110300000Y98195000D01*
X110300000Y97995000D02*
X110300000Y97995000D01*
X110300000Y98195000D02*
G75*
G02*
X110300000Y97995000I0J-100000D01*
G01*
X110300000Y97995000D02*
G75*
G02*
X110300000Y98195000I0J100000D01*
G01*
D12*
%TO.C,R30*%
X105615000Y65243641D02*
X105615000Y64936359D01*
X106375000Y65243641D02*
X106375000Y64936359D01*
%TO.C,R8*%
X70907500Y64878281D02*
X70907500Y64570999D01*
X71667500Y64878281D02*
X71667500Y64570999D01*
%TO.C,R22*%
X52420000Y91831359D02*
X52420000Y92138641D01*
X53180000Y91831359D02*
X53180000Y92138641D01*
%TO.C,C36*%
X120652500Y107552836D02*
X120652500Y107337164D01*
X121372500Y107552836D02*
X121372500Y107337164D01*
%TO.C,C46*%
X111690000Y102763748D02*
X111690000Y104186252D01*
X113510000Y102763748D02*
X113510000Y104186252D01*
%TO.C,C28*%
X62671920Y51347500D02*
X62953080Y51347500D01*
X62671920Y50327500D02*
X62953080Y50327500D01*
%TO.C,C17*%
X35090000Y80447164D02*
X35090000Y80662836D01*
X35810000Y80447164D02*
X35810000Y80662836D01*
%TO.C,C52*%
X17065000Y32115500D02*
X17065000Y30415500D01*
X17065000Y26595500D02*
X17065000Y28295500D01*
X21520563Y32115500D02*
X17065000Y32115500D01*
X21520563Y26595500D02*
X17065000Y26595500D01*
X22585000Y31051063D02*
X21520563Y32115500D01*
X22585000Y31051063D02*
X22585000Y30415500D01*
X22585000Y27659937D02*
X21520563Y26595500D01*
X22585000Y27659937D02*
X22585000Y28295500D01*
X23137500Y27358000D02*
X23137500Y27983000D01*
X23450000Y27670500D02*
X22825000Y27670500D01*
D13*
%TO.C,Q8*%
X48123000Y100268000D02*
X48123000Y100698000D01*
D14*
X50600000Y93658000D02*
X50600000Y93658000D01*
X50600000Y93558000D02*
X50600000Y93558000D01*
D13*
X58177000Y100698000D02*
X58177000Y100268000D01*
X58177000Y100268000D02*
X48123000Y100268000D01*
D14*
X50600000Y93658000D02*
G75*
G02*
X50600000Y93558000I0J-50000D01*
G01*
X50600000Y93558000D02*
G75*
G02*
X50600000Y93658000I0J50000D01*
G01*
%TO.C,Q4*%
X99850000Y86955000D02*
X106000000Y86955000D01*
X99850000Y81635000D02*
X106000000Y81635000D01*
D13*
X106925000Y82390000D02*
X106925000Y82390000D01*
X107125000Y82390000D02*
X107125000Y82390000D01*
X106925000Y82390000D02*
G75*
G02*
X107125000Y82390000I100000J0D01*
G01*
X107125000Y82390000D02*
G75*
G02*
X106925000Y82390000I-100000J0D01*
G01*
D12*
%TO.C,R19*%
X127206359Y98780000D02*
X127513641Y98780000D01*
X127206359Y98020000D02*
X127513641Y98020000D01*
%TO.C,C12*%
X44790000Y76002836D02*
X44790000Y75787164D01*
X45510000Y76002836D02*
X45510000Y75787164D01*
%TO.C,C49*%
X19612836Y34415500D02*
X19397164Y34415500D01*
X19612836Y33695500D02*
X19397164Y33695500D01*
D16*
%TO.C,G\u002A\u002A\u002A*%
G36*
X11057564Y101402097D02*
G01*
X11050368Y101394901D01*
X11043173Y101402097D01*
X11050368Y101409292D01*
X11057564Y101402097D01*
G37*
G36*
X7829197Y104282682D02*
G01*
X7830919Y104265603D01*
X7829197Y104263494D01*
X7820642Y104265470D01*
X7819603Y104273088D01*
X7824869Y104284933D01*
X7829197Y104282682D01*
G37*
G36*
X7843588Y104239509D02*
G01*
X7845310Y104222431D01*
X7843588Y104220321D01*
X7835033Y104222297D01*
X7833994Y104229915D01*
X7839260Y104241761D01*
X7843588Y104239509D01*
G37*
G36*
X14060472Y106038376D02*
G01*
X14062194Y106021297D01*
X14060472Y106019188D01*
X14051917Y106021164D01*
X14050878Y106028782D01*
X14056143Y106040627D01*
X14060472Y106038376D01*
G37*
G36*
X5962343Y107460551D02*
G01*
X6122057Y107359307D01*
X6275900Y107282728D01*
X6422405Y107231395D01*
X6560105Y107205886D01*
X6614274Y107203019D01*
X6670433Y107201090D01*
X6713694Y107197100D01*
X6737536Y107191766D01*
X6740195Y107189204D01*
X6732130Y107165504D01*
X6710208Y107124598D01*
X6678123Y107072093D01*
X6639565Y107013596D01*
X6598226Y106954714D01*
X6557799Y106901055D01*
X6523015Y106859372D01*
X6472977Y106809541D01*
X6408944Y106753621D01*
X6341449Y106700578D01*
X6310567Y106678534D01*
X6175058Y106571979D01*
X6061433Y106451799D01*
X5967151Y106314572D01*
X5889676Y106156873D01*
X5854332Y106063157D01*
X5807522Y105926973D01*
X5778054Y106053430D01*
X5720938Y106359009D01*
X5690455Y106668900D01*
X5685300Y106849065D01*
X5688232Y107002853D01*
X5698426Y107132901D01*
X5716808Y107243544D01*
X5744307Y107339119D01*
X5781850Y107423962D01*
X5822737Y107491444D01*
X5853582Y107536598D01*
X5962343Y107460551D01*
G37*
G36*
X7591452Y102864845D02*
G01*
X7696033Y102849616D01*
X7793156Y102825198D01*
X7888013Y102789518D01*
X7985798Y102740500D01*
X8091703Y102676072D01*
X8210920Y102594158D01*
X8258527Y102559675D01*
X8471619Y102408007D01*
X8688887Y102261575D01*
X8904489Y102124086D01*
X9112583Y101999250D01*
X9307328Y101890777D01*
X9335119Y101876098D01*
X9476300Y101802109D01*
X9335119Y101785676D01*
X9146139Y101751329D01*
X8967783Y101692903D01*
X8797513Y101609183D01*
X8632792Y101498951D01*
X8494247Y101382584D01*
X8398976Y101295038D01*
X8206429Y101425811D01*
X7981180Y101585566D01*
X7782781Y101740585D01*
X7611519Y101890606D01*
X7467683Y102035370D01*
X7351560Y102174613D01*
X7298041Y102251162D01*
X7214509Y102368259D01*
X7130275Y102459860D01*
X7040557Y102528958D01*
X6940573Y102578548D01*
X6825541Y102611625D01*
X6691297Y102631124D01*
X6589178Y102640787D01*
X6689915Y102692563D01*
X6885115Y102779156D01*
X7080047Y102837670D01*
X7277197Y102868678D01*
X7474221Y102872960D01*
X7591452Y102864845D01*
G37*
G36*
X12635405Y101629322D02*
G01*
X12563039Y101511211D01*
X12496481Y101370125D01*
X12437610Y101211601D01*
X12388304Y101041174D01*
X12350443Y100864383D01*
X12330741Y100731387D01*
X12321166Y100650705D01*
X12182254Y100620055D01*
X12073972Y100596976D01*
X11977922Y100578708D01*
X11888188Y100564675D01*
X11798855Y100554303D01*
X11704007Y100547015D01*
X11597729Y100542238D01*
X11474105Y100539395D01*
X11338187Y100537982D01*
X10935241Y100535311D01*
X10764520Y100475200D01*
X10629867Y100424797D01*
X10521902Y100377661D01*
X10438828Y100332932D01*
X10382978Y100293291D01*
X10337304Y100254859D01*
X10388705Y100367968D01*
X10448175Y100489638D01*
X10518490Y100618719D01*
X10593341Y100744224D01*
X10666418Y100855168D01*
X10677537Y100870852D01*
X10791103Y101017735D01*
X10902994Y101138177D01*
X11016030Y101234164D01*
X11133031Y101307684D01*
X11256817Y101360723D01*
X11390209Y101395269D01*
X11431728Y101402206D01*
X11589114Y101426963D01*
X11748064Y101454619D01*
X11905096Y101484383D01*
X12056727Y101515464D01*
X12199475Y101547071D01*
X12329855Y101578414D01*
X12444387Y101608700D01*
X12539587Y101637141D01*
X12611972Y101662944D01*
X12644548Y101677621D01*
X12684508Y101698247D01*
X12635405Y101629322D01*
G37*
G36*
X16961274Y104984102D02*
G01*
X17001270Y104979657D01*
X17063325Y104972244D01*
X17144201Y104962264D01*
X17240661Y104950113D01*
X17349466Y104936193D01*
X17457932Y104922135D01*
X17965212Y104855992D01*
X17965212Y104810985D01*
X17962314Y104762532D01*
X17956828Y104724058D01*
X17948444Y104682138D01*
X17543089Y104735944D01*
X17437003Y104749912D01*
X17339143Y104762582D01*
X17253458Y104773458D01*
X17183893Y104782047D01*
X17134396Y104787856D01*
X17108913Y104790390D01*
X17107465Y104790456D01*
X17094966Y104788784D01*
X17085402Y104780127D01*
X17077486Y104760029D01*
X17069930Y104724037D01*
X17061446Y104667695D01*
X17052544Y104600482D01*
X17039651Y104501033D01*
X17029707Y104426556D01*
X17021939Y104373482D01*
X17015575Y104338242D01*
X17009842Y104317268D01*
X17003966Y104306992D01*
X16997174Y104303844D01*
X16988694Y104304257D01*
X16988387Y104304289D01*
X16958858Y104307363D01*
X16917156Y104311717D01*
X16911076Y104312353D01*
X16876384Y104318432D01*
X16857997Y104326430D01*
X16857110Y104328400D01*
X16858952Y104347733D01*
X16864032Y104389737D01*
X16871687Y104449524D01*
X16881249Y104522208D01*
X16892053Y104602902D01*
X16903435Y104686721D01*
X16914727Y104768776D01*
X16925264Y104844182D01*
X16934382Y104908052D01*
X16941413Y104955500D01*
X16945694Y104981638D01*
X16946575Y104985180D01*
X16961274Y104984102D01*
G37*
G36*
X14633647Y104051379D02*
G01*
X14722046Y103816937D01*
X14820476Y103607127D01*
X14930690Y103419017D01*
X15054440Y103249674D01*
X15193479Y103096164D01*
X15220118Y103070129D01*
X15360852Y102935050D01*
X15264647Y102801774D01*
X15153070Y102651964D01*
X15028440Y102492956D01*
X14898878Y102335049D01*
X14864442Y102294334D01*
X14818809Y102239336D01*
X14776383Y102185715D01*
X14743283Y102141321D01*
X14730780Y102122908D01*
X14671008Y102016705D01*
X14610432Y101887257D01*
X14551069Y101739966D01*
X14494938Y101580231D01*
X14444057Y101413451D01*
X14400443Y101245026D01*
X14396782Y101229269D01*
X14380621Y101160566D01*
X14366307Y101102612D01*
X14355237Y101060865D01*
X14348811Y101040782D01*
X14348263Y101039897D01*
X14342877Y101050802D01*
X14332266Y101085121D01*
X14317719Y101138233D01*
X14300529Y101205518D01*
X14290497Y101246553D01*
X14249641Y101421274D01*
X14216810Y101574598D01*
X14191221Y101712532D01*
X14172092Y101841079D01*
X14158640Y101966245D01*
X14150081Y102094036D01*
X14145632Y102230454D01*
X14144495Y102366289D01*
X14145545Y102505191D01*
X14149210Y102620507D01*
X14156365Y102717379D01*
X14167885Y102800949D01*
X14184645Y102876361D01*
X14207520Y102948757D01*
X14237386Y103023279D01*
X14267482Y103089113D01*
X14326658Y103225796D01*
X14384186Y103381196D01*
X14437694Y103547206D01*
X14484808Y103715717D01*
X14523158Y103878623D01*
X14550368Y104027816D01*
X14557312Y104079385D01*
X14574658Y104225421D01*
X14633647Y104051379D01*
G37*
G36*
X12297100Y99870714D02*
G01*
X12304401Y99852518D01*
X12312415Y99816162D01*
X12315702Y99795697D01*
X12325193Y99729127D01*
X12164385Y99699062D01*
X12100210Y99686787D01*
X12047460Y99676174D01*
X12011950Y99668428D01*
X11999527Y99664895D01*
X12000929Y99650244D01*
X12006894Y99610890D01*
X12016816Y99550445D01*
X12030087Y99472518D01*
X12046100Y99380721D01*
X12064249Y99278664D01*
X12067604Y99259990D01*
X12085813Y99156113D01*
X12101479Y99061454D01*
X12114066Y98979703D01*
X12123037Y98914553D01*
X12127855Y98869694D01*
X12127984Y98848819D01*
X12127514Y98847933D01*
X12106920Y98839348D01*
X12068745Y98830491D01*
X12047418Y98826991D01*
X12006064Y98822353D01*
X11984681Y98825612D01*
X11974948Y98839359D01*
X11971960Y98850493D01*
X11967418Y98873316D01*
X11958578Y98920282D01*
X11946210Y98987202D01*
X11931084Y99069887D01*
X11913971Y99164148D01*
X11898364Y99250652D01*
X11880211Y99349925D01*
X11863224Y99439737D01*
X11848180Y99516229D01*
X11835855Y99575542D01*
X11827023Y99613816D01*
X11822717Y99627071D01*
X11805496Y99628388D01*
X11766241Y99624687D01*
X11711118Y99616705D01*
X11657716Y99607353D01*
X11594489Y99596131D01*
X11542436Y99588115D01*
X11507568Y99584150D01*
X11495965Y99584564D01*
X11491562Y99601450D01*
X11487478Y99637327D01*
X11485841Y99661471D01*
X11482096Y99731999D01*
X11885042Y99805581D01*
X11989069Y99824235D01*
X12083766Y99840562D01*
X12165479Y99853984D01*
X12230552Y99863923D01*
X12275331Y99869802D01*
X12296160Y99871042D01*
X12297100Y99870714D01*
G37*
G36*
X9641149Y101683148D02*
G01*
X9702409Y101680550D01*
X9752998Y101674076D01*
X9801226Y101661931D01*
X9855403Y101642320D01*
X9923840Y101613449D01*
X9960651Y101597332D01*
X10184040Y101511469D01*
X10409941Y101448396D01*
X10633551Y101409193D01*
X10850066Y101394940D01*
X10861558Y101394901D01*
X11034645Y101394901D01*
X10922698Y101321409D01*
X10781316Y101214231D01*
X10646404Y101084259D01*
X10523192Y100937457D01*
X10416911Y100779785D01*
X10365312Y100686148D01*
X10339694Y100636340D01*
X10319306Y100598302D01*
X10307283Y100577813D01*
X10305477Y100575831D01*
X10290829Y100579018D01*
X10254421Y100586554D01*
X10202710Y100597108D01*
X10172521Y100603225D01*
X9995181Y100642690D01*
X9816862Y100689154D01*
X9642477Y100740964D01*
X9476943Y100796470D01*
X9325173Y100854022D01*
X9192081Y100911970D01*
X9082584Y100968663D01*
X9080198Y100970046D01*
X9026088Y100994853D01*
X8951806Y101019840D01*
X8865853Y101042710D01*
X8776734Y101061165D01*
X8703828Y101071776D01*
X8628706Y101073181D01*
X8549976Y101063278D01*
X8476777Y101044136D01*
X8418247Y101017827D01*
X8396880Y101002217D01*
X8373511Y100982938D01*
X8366859Y100982212D01*
X8374529Y100997073D01*
X8394125Y101024555D01*
X8423252Y101061690D01*
X8459514Y101105512D01*
X8500517Y101153056D01*
X8543863Y101201354D01*
X8587158Y101247439D01*
X8627656Y101288008D01*
X8757131Y101400736D01*
X8892885Y101493715D01*
X9032677Y101568415D01*
X9155734Y101620778D01*
X9273515Y101655944D01*
X9396146Y101676121D01*
X9533752Y101683519D01*
X9560906Y101683664D01*
X9641149Y101683148D01*
G37*
G36*
X5048397Y104901053D02*
G01*
X5054699Y104886076D01*
X5056482Y104863116D01*
X5059009Y104834654D01*
X5064644Y104794544D01*
X5065203Y104791125D01*
X5067592Y104771613D01*
X5065521Y104754405D01*
X5056001Y104735842D01*
X5036042Y104712264D01*
X5002651Y104680010D01*
X4952840Y104635421D01*
X4900581Y104589651D01*
X4842713Y104538033D01*
X4794302Y104492776D01*
X4758769Y104457252D01*
X4739538Y104434831D01*
X4737378Y104428902D01*
X4753663Y104420522D01*
X4791804Y104404061D01*
X4846733Y104381616D01*
X4913384Y104355284D01*
X4941416Y104344432D01*
X5012028Y104316592D01*
X5073568Y104291096D01*
X5120725Y104270237D01*
X5148188Y104256307D01*
X5152287Y104253377D01*
X5163526Y104230551D01*
X5174097Y104189988D01*
X5178821Y104161558D01*
X5183168Y104116032D01*
X5180317Y104093044D01*
X5169574Y104087091D01*
X5169424Y104087099D01*
X5150837Y104092727D01*
X5109932Y104107826D01*
X5050937Y104130749D01*
X4978079Y104159842D01*
X4895586Y104193456D01*
X4869462Y104204229D01*
X4588838Y104320264D01*
X4387365Y104287409D01*
X4313673Y104275166D01*
X4249692Y104264114D01*
X4201032Y104255251D01*
X4173304Y104249581D01*
X4169669Y104248568D01*
X4160960Y104258519D01*
X4151309Y104287772D01*
X4142546Y104326979D01*
X4136498Y104366794D01*
X4134994Y104397870D01*
X4138097Y104409976D01*
X4153290Y104414148D01*
X4191573Y104422185D01*
X4247676Y104433045D01*
X4316327Y104445684D01*
X4339674Y104449861D01*
X4536305Y104484799D01*
X4783363Y104705036D01*
X4866455Y104778609D01*
X4930815Y104833988D01*
X4978815Y104872548D01*
X5012829Y104895663D01*
X5035232Y104904707D01*
X5048397Y104901053D01*
G37*
G36*
X12456751Y110427923D02*
G01*
X12604589Y110387359D01*
X12759293Y110326515D01*
X12906783Y110248335D01*
X13054694Y110148617D01*
X13097251Y110116243D01*
X13212080Y110028275D01*
X13310252Y109956352D01*
X13396458Y109897217D01*
X13475389Y109847609D01*
X13525609Y109818598D01*
X13704059Y109728837D01*
X13873609Y109663464D01*
X14033320Y109622624D01*
X14182252Y109606467D01*
X14319465Y109615140D01*
X14444020Y109648791D01*
X14486204Y109667354D01*
X14528500Y109687212D01*
X14558327Y109699507D01*
X14568952Y109701629D01*
X14561062Y109678487D01*
X14540027Y109638522D01*
X14509802Y109588064D01*
X14474339Y109533442D01*
X14437592Y109480986D01*
X14404185Y109437829D01*
X14299382Y109328596D01*
X14167693Y109219458D01*
X14011005Y109111291D01*
X13831202Y109004973D01*
X13630170Y108901378D01*
X13409796Y108801383D01*
X13171964Y108705865D01*
X12918561Y108615698D01*
X12651471Y108531759D01*
X12372582Y108454925D01*
X12194447Y108411210D01*
X12172186Y108414197D01*
X12130823Y108426455D01*
X12077621Y108445698D01*
X12051119Y108456290D01*
X11863329Y108524391D01*
X11657958Y108582542D01*
X11445168Y108628458D01*
X11235120Y108659857D01*
X11089926Y108672269D01*
X10928010Y108681119D01*
X10989189Y108732246D01*
X11056414Y108791401D01*
X11133537Y108864050D01*
X11214347Y108943906D01*
X11292633Y109024680D01*
X11362184Y109100087D01*
X11416787Y109163839D01*
X11421960Y109170305D01*
X11566520Y109371312D01*
X11684158Y109575107D01*
X11774449Y109780682D01*
X11836967Y109987024D01*
X11871289Y110193123D01*
X11875814Y110251078D01*
X11885042Y110409020D01*
X11955030Y110426835D01*
X12114105Y110452924D01*
X12282399Y110453223D01*
X12456751Y110427923D01*
G37*
G36*
X11284960Y109537381D02*
G01*
X11264553Y109424715D01*
X11217928Y109304328D01*
X11146124Y109177737D01*
X11050183Y109046457D01*
X10931146Y108912004D01*
X10790052Y108775895D01*
X10720778Y108715472D01*
X10668170Y108671732D01*
X10630509Y108643682D01*
X10601247Y108627871D01*
X10573836Y108620846D01*
X10541727Y108619159D01*
X10538031Y108619150D01*
X10479359Y108616416D01*
X10399834Y108608878D01*
X10306796Y108597534D01*
X10207584Y108583383D01*
X10109535Y108567422D01*
X10019989Y108550650D01*
X9993533Y108545102D01*
X9775773Y108487511D01*
X9565081Y108411489D01*
X9368078Y108319755D01*
X9192597Y108215847D01*
X9115426Y108158600D01*
X9031795Y108087250D01*
X8947873Y108007894D01*
X8869834Y107926632D01*
X8803847Y107849563D01*
X8758759Y107787082D01*
X8701402Y107696147D01*
X8626016Y107879496D01*
X8567878Y108030155D01*
X8525286Y108162980D01*
X8496893Y108283438D01*
X8481349Y108396998D01*
X8477295Y108482436D01*
X8481612Y108589110D01*
X8498556Y108674967D01*
X8530357Y108746030D01*
X8579249Y108808323D01*
X8608258Y108835836D01*
X8672297Y108881945D01*
X8745996Y108913904D01*
X8834748Y108933263D01*
X8943947Y108941573D01*
X8978073Y108942126D01*
X9121983Y108942980D01*
X9246751Y109011858D01*
X9393320Y109084015D01*
X9554714Y109148426D01*
X9717632Y109200120D01*
X9812748Y109223428D01*
X9906766Y109239346D01*
X10018695Y109251768D01*
X10140363Y109260352D01*
X10263598Y109264756D01*
X10380227Y109264641D01*
X10482078Y109259663D01*
X10536516Y109253654D01*
X10652751Y109236659D01*
X10758018Y109289501D01*
X10927821Y109385113D01*
X11108212Y109506725D01*
X11177842Y109558482D01*
X11291885Y109645296D01*
X11284960Y109537381D01*
G37*
G36*
X14000310Y102686038D02*
G01*
X13995383Y102650134D01*
X13987374Y102600380D01*
X13985778Y102591060D01*
X13963311Y102410185D01*
X13955166Y102217917D01*
X13961844Y102028109D01*
X13964283Y101999320D01*
X13972412Y101923729D01*
X13983405Y101839253D01*
X13996233Y101752178D01*
X14009873Y101668787D01*
X14023297Y101595367D01*
X14035479Y101538202D01*
X14045086Y101504365D01*
X14036417Y101488719D01*
X14005196Y101462636D01*
X13954876Y101428006D01*
X13888913Y101386722D01*
X13810762Y101340673D01*
X13723878Y101291751D01*
X13631715Y101241846D01*
X13537729Y101192850D01*
X13445375Y101146654D01*
X13358107Y101105148D01*
X13279381Y101070223D01*
X13212651Y101043770D01*
X13188145Y101035355D01*
X13064574Y100982705D01*
X12942175Y100906757D01*
X12826135Y100812434D01*
X12721640Y100704660D01*
X12633876Y100588359D01*
X12568029Y100468454D01*
X12553434Y100432807D01*
X12533997Y100376840D01*
X12517254Y100321462D01*
X12510308Y100293995D01*
X12506017Y100285457D01*
X12503149Y100305069D01*
X12501725Y100352231D01*
X12501763Y100426346D01*
X12503092Y100517054D01*
X12511682Y100719902D01*
X12529876Y100901117D01*
X12558751Y101066556D01*
X12599380Y101222075D01*
X12652839Y101373530D01*
X12666348Y101406693D01*
X12740594Y101559346D01*
X12829215Y101692276D01*
X12935979Y101809783D01*
X13064654Y101916163D01*
X13180226Y101992704D01*
X13248367Y102034782D01*
X13315003Y102077054D01*
X13372242Y102114448D01*
X13410481Y102140659D01*
X13520174Y102223451D01*
X13628799Y102312780D01*
X13731575Y102404232D01*
X13823722Y102493396D01*
X13900459Y102575860D01*
X13952518Y102640875D01*
X13978104Y102675221D01*
X13995956Y102696777D01*
X14001142Y102700855D01*
X14000310Y102686038D01*
G37*
G36*
X6192007Y102017527D02*
G01*
X6219452Y101987877D01*
X6259763Y101942269D01*
X6310207Y101883818D01*
X6368052Y101815639D01*
X6401391Y101775889D01*
X6612090Y101523676D01*
X6566132Y101484473D01*
X6533155Y101457338D01*
X6507653Y101438061D01*
X6503176Y101435141D01*
X6487358Y101441983D01*
X6456027Y101470486D01*
X6410693Y101519101D01*
X6352869Y101586282D01*
X6337410Y101604863D01*
X6286438Y101666046D01*
X6241398Y101719282D01*
X6205663Y101760649D01*
X6182610Y101786221D01*
X6176034Y101792508D01*
X6159732Y101787685D01*
X6128584Y101767695D01*
X6089042Y101736731D01*
X6085196Y101733467D01*
X6006967Y101666634D01*
X6165931Y101476802D01*
X6324895Y101286969D01*
X6271155Y101240199D01*
X6237966Y101213097D01*
X6213350Y101196215D01*
X6206416Y101193428D01*
X6194032Y101203964D01*
X6166683Y101233141D01*
X6127615Y101277308D01*
X6080072Y101332817D01*
X6040784Y101379720D01*
X5886150Y101566013D01*
X5777886Y101475458D01*
X5731105Y101435287D01*
X5693394Y101400942D01*
X5669848Y101377170D01*
X5664640Y101369955D01*
X5671817Y101354510D01*
X5694843Y101321235D01*
X5730743Y101274076D01*
X5776541Y101216976D01*
X5814455Y101171353D01*
X5969253Y100987699D01*
X5913447Y100939459D01*
X5880183Y100912061D01*
X5856126Y100894734D01*
X5849245Y100891539D01*
X5838061Y100902232D01*
X5811290Y100932044D01*
X5771616Y100977852D01*
X5721726Y101036539D01*
X5664305Y101104983D01*
X5630333Y101145843D01*
X5419815Y101399826D01*
X5794722Y101713964D01*
X5883626Y101788207D01*
X5965613Y101856194D01*
X6038065Y101915788D01*
X6098362Y101964858D01*
X6143886Y102001267D01*
X6172018Y102022882D01*
X6180160Y102028102D01*
X6192007Y102017527D01*
G37*
G36*
X13879302Y107275734D02*
G01*
X14005779Y107225930D01*
X14153478Y107177912D01*
X14314837Y107133642D01*
X14482297Y107095082D01*
X14648297Y107064196D01*
X14752584Y107049069D01*
X14857071Y107039254D01*
X14979873Y107033307D01*
X15114457Y107031072D01*
X15254292Y107032392D01*
X15392844Y107037110D01*
X15523581Y107045069D01*
X15639970Y107056112D01*
X15735480Y107070081D01*
X15750702Y107073048D01*
X15765241Y107075183D01*
X15776798Y107072138D01*
X15787231Y107059975D01*
X15798395Y107034756D01*
X15812149Y106992545D01*
X15830350Y106929404D01*
X15847526Y106867779D01*
X15904928Y106648972D01*
X15949163Y106452619D01*
X15980729Y106275845D01*
X16000126Y106115774D01*
X16007855Y105969530D01*
X16008045Y105943733D01*
X16013623Y105828044D01*
X16032429Y105728574D01*
X16067574Y105634752D01*
X16122170Y105536005D01*
X16133101Y105518759D01*
X16183087Y105450586D01*
X16251218Y105371319D01*
X16332085Y105286403D01*
X16420278Y105201284D01*
X16510387Y105121406D01*
X16595361Y105053444D01*
X16641736Y105017106D01*
X16674718Y104988061D01*
X16690740Y104969687D01*
X16688902Y104964941D01*
X16665435Y104968441D01*
X16620239Y104977208D01*
X16559610Y104989957D01*
X16489845Y105005402D01*
X16482946Y105006969D01*
X16157761Y105090985D01*
X15849533Y105190894D01*
X15559996Y105305911D01*
X15290884Y105435245D01*
X15043933Y105578109D01*
X14820878Y105733716D01*
X14738807Y105799290D01*
X14608608Y105920538D01*
X14500627Y106048520D01*
X14416895Y106180407D01*
X14359443Y106313372D01*
X14351764Y106338187D01*
X14298931Y106497773D01*
X14233453Y106658551D01*
X14158323Y106814869D01*
X14076533Y106961076D01*
X13991075Y107091522D01*
X13904943Y107200554D01*
X13881654Y107225910D01*
X13801267Y107310187D01*
X13879302Y107275734D01*
G37*
G36*
X4628358Y106446951D02*
G01*
X4754815Y106416662D01*
X4859871Y106367600D01*
X4943042Y106300295D01*
X5003841Y106215278D01*
X5041783Y106113078D01*
X5056383Y105994227D01*
X5056544Y105979390D01*
X5048661Y105880347D01*
X5026958Y105779753D01*
X4994350Y105689000D01*
X4970649Y105643825D01*
X4948534Y105613797D01*
X4923935Y105600898D01*
X4884320Y105598900D01*
X4880466Y105599014D01*
X4833434Y105601739D01*
X4793629Y105606043D01*
X4786714Y105607210D01*
X4762517Y105615971D01*
X4757128Y105632137D01*
X4771321Y105659801D01*
X4804587Y105701557D01*
X4839820Y105751139D01*
X4872070Y105810179D01*
X4883737Y105837500D01*
X4908516Y105936805D01*
X4906935Y106027461D01*
X4880654Y106107385D01*
X4831337Y106174497D01*
X4760644Y106226715D01*
X4670238Y106261958D01*
X4561780Y106278144D01*
X4531275Y106278972D01*
X4437881Y106272818D01*
X4363224Y106251684D01*
X4299982Y106212811D01*
X4262360Y106177607D01*
X4223069Y106125384D01*
X4200044Y106065448D01*
X4190512Y105989477D01*
X4189857Y105960066D01*
X4192986Y105899101D01*
X4205361Y105846110D01*
X4230613Y105786305D01*
X4234462Y105778414D01*
X4256842Y105730787D01*
X4272948Y105692380D01*
X4279422Y105671226D01*
X4279433Y105670840D01*
X4266701Y105662246D01*
X4234866Y105656764D01*
X4193466Y105654689D01*
X4152043Y105656319D01*
X4120137Y105661950D01*
X4111787Y105665631D01*
X4090854Y105692661D01*
X4071927Y105742099D01*
X4056493Y105807574D01*
X4046041Y105882717D01*
X4042061Y105961157D01*
X4042057Y105964023D01*
X4048452Y106075704D01*
X4068825Y106167506D01*
X4105171Y106245719D01*
X4150854Y106307056D01*
X4230372Y106376061D01*
X4327541Y106424139D01*
X4439360Y106450410D01*
X4562827Y106453996D01*
X4628358Y106446951D01*
G37*
G36*
X14744223Y101082825D02*
G01*
X14776333Y101057852D01*
X14808881Y101024715D01*
X14835559Y100990354D01*
X14850054Y100961711D01*
X14849624Y100948862D01*
X14830882Y100939931D01*
X14794575Y100934842D01*
X14779058Y100934391D01*
X14690481Y100923644D01*
X14601736Y100894063D01*
X14520731Y100849635D01*
X14455380Y100794347D01*
X14426322Y100756575D01*
X14393041Y100676980D01*
X14386951Y100592004D01*
X14407497Y100503927D01*
X14454126Y100415032D01*
X14526285Y100327598D01*
X14531715Y100322150D01*
X14604762Y100258856D01*
X14673847Y100219864D01*
X14744686Y100202371D01*
X14779290Y100200770D01*
X14846215Y100214318D01*
X14915532Y100250801D01*
X14981880Y100305435D01*
X15039894Y100373436D01*
X15084215Y100450022D01*
X15097936Y100485028D01*
X15114844Y100528610D01*
X15130983Y100558476D01*
X15141024Y100567422D01*
X15157474Y100556785D01*
X15184208Y100529194D01*
X15209054Y100498786D01*
X15261461Y100430150D01*
X15207024Y100340486D01*
X15124201Y100227324D01*
X15027564Y100138637D01*
X14956256Y100093185D01*
X14909690Y100070482D01*
X14865367Y100056597D01*
X14812213Y100048887D01*
X14756034Y100045395D01*
X14692796Y100043640D01*
X14648022Y100046163D01*
X14611507Y100054696D01*
X14573046Y100070971D01*
X14556269Y100079307D01*
X14470585Y100135525D01*
X14388685Y100212809D01*
X14317759Y100303646D01*
X14280322Y100367631D01*
X14256148Y100417738D01*
X14241437Y100458127D01*
X14233888Y100499423D01*
X14231199Y100552254D01*
X14230964Y100595536D01*
X14233534Y100674269D01*
X14243265Y100734695D01*
X14263604Y100787051D01*
X14297998Y100841571D01*
X14326490Y100879167D01*
X14374449Y100927628D01*
X14439553Y100976433D01*
X14514231Y101021461D01*
X14590911Y101058593D01*
X14662022Y101083708D01*
X14718863Y101092691D01*
X14744223Y101082825D01*
G37*
G36*
X6566411Y105584667D02*
G01*
X6567610Y105558328D01*
X6574706Y105479198D01*
X6595337Y105377792D01*
X6628584Y105256722D01*
X6673529Y105118602D01*
X6729256Y104966046D01*
X6794845Y104801667D01*
X6869379Y104628079D01*
X6951941Y104447895D01*
X6973497Y104402606D01*
X7011969Y104321215D01*
X7049835Y104239055D01*
X7083543Y104163972D01*
X7109540Y104103814D01*
X7116855Y104086006D01*
X7163966Y103982802D01*
X7227843Y103863912D01*
X7305105Y103734211D01*
X7392377Y103598572D01*
X7486280Y103461869D01*
X7583436Y103328976D01*
X7680467Y103204765D01*
X7773995Y103094111D01*
X7860642Y103001887D01*
X7883807Y102979467D01*
X7918487Y102945277D01*
X7939220Y102921759D01*
X7942870Y102912621D01*
X7939618Y102913468D01*
X7863863Y102942806D01*
X7776063Y102971023D01*
X7689873Y102994020D01*
X7632521Y103005699D01*
X7479388Y103019374D01*
X7312655Y103014583D01*
X7139708Y102992557D01*
X6967936Y102954525D01*
X6804726Y102901719D01*
X6680277Y102847158D01*
X6624691Y102820099D01*
X6590681Y102806129D01*
X6574760Y102804187D01*
X6573440Y102813212D01*
X6574044Y102814848D01*
X6582288Y102842263D01*
X6593426Y102887555D01*
X6603740Y102934731D01*
X6627106Y103088964D01*
X6634490Y103250246D01*
X6625548Y103421298D01*
X6599935Y103604841D01*
X6557307Y103803598D01*
X6497321Y104020289D01*
X6446348Y104179547D01*
X6407457Y104296706D01*
X6377173Y104392034D01*
X6354447Y104470812D01*
X6338225Y104538323D01*
X6327458Y104599847D01*
X6321093Y104660666D01*
X6318079Y104726063D01*
X6317365Y104801318D01*
X6317445Y104827139D01*
X6325068Y104997972D01*
X6347311Y105149825D01*
X6385881Y105289442D01*
X6442482Y105423563D01*
X6490882Y105512925D01*
X6524083Y105567014D01*
X6546528Y105596285D01*
X6560033Y105601811D01*
X6566411Y105584667D01*
G37*
G36*
X14505229Y105818088D02*
G01*
X14534542Y105793173D01*
X14575265Y105756684D01*
X14609978Y105724640D01*
X14765238Y105589726D01*
X14937236Y105458149D01*
X15120563Y105333163D01*
X15309813Y105218025D01*
X15499580Y105115987D01*
X15684457Y105030306D01*
X15859037Y104964236D01*
X15889103Y104954629D01*
X15943839Y104937765D01*
X15982562Y104923189D01*
X16007097Y104906086D01*
X16019267Y104881641D01*
X16020898Y104845040D01*
X16013813Y104791469D01*
X15999836Y104716113D01*
X15993022Y104680362D01*
X15972049Y104574661D01*
X15952295Y104489187D01*
X15931188Y104415638D01*
X15906153Y104345711D01*
X15874618Y104271104D01*
X15848613Y104214454D01*
X15816672Y104140810D01*
X15787371Y104063516D01*
X15764651Y103993466D01*
X15754946Y103955417D01*
X15745673Y103894657D01*
X15737781Y103810983D01*
X15731424Y103710238D01*
X15726756Y103598266D01*
X15723929Y103480907D01*
X15723097Y103364005D01*
X15724414Y103253401D01*
X15728033Y103154940D01*
X15732295Y103093194D01*
X15737568Y103027458D01*
X15740900Y102972991D01*
X15742000Y102935721D01*
X15740761Y102921686D01*
X15729415Y102929813D01*
X15700568Y102955866D01*
X15656908Y102997259D01*
X15601127Y103051408D01*
X15535914Y103115728D01*
X15463959Y103187635D01*
X15463839Y103187756D01*
X15297336Y103360023D01*
X15153138Y103519978D01*
X15029071Y103670448D01*
X14922961Y103814263D01*
X14832634Y103954250D01*
X14755917Y104093236D01*
X14734648Y104136374D01*
X14692568Y104225986D01*
X14660785Y104300431D01*
X14637930Y104366370D01*
X14622634Y104430466D01*
X14613528Y104499381D01*
X14609244Y104579777D01*
X14608413Y104678317D01*
X14608991Y104747989D01*
X14608501Y104933833D01*
X14602944Y105111492D01*
X14592653Y105277688D01*
X14577962Y105429145D01*
X14559203Y105562586D01*
X14536710Y105674732D01*
X14510816Y105762307D01*
X14504211Y105779116D01*
X14493073Y105810363D01*
X14491014Y105826643D01*
X14492058Y105827309D01*
X14505229Y105818088D01*
G37*
G36*
X15368520Y111081270D02*
G01*
X15394515Y111061992D01*
X15434352Y111025177D01*
X15446035Y111013863D01*
X15533345Y110928895D01*
X15432085Y110534767D01*
X15406133Y110432932D01*
X15382988Y110340514D01*
X15363510Y110261080D01*
X15348558Y110198191D01*
X15338993Y110155413D01*
X15335673Y110136308D01*
X15335795Y110135668D01*
X15346390Y110144489D01*
X15373582Y110171911D01*
X15414730Y110215130D01*
X15467189Y110271343D01*
X15528314Y110337748D01*
X15581938Y110396612D01*
X15658308Y110480806D01*
X15717966Y110545594D01*
X15763758Y110592681D01*
X15798533Y110623775D01*
X15825139Y110640582D01*
X15846423Y110644808D01*
X15865233Y110638161D01*
X15884418Y110622348D01*
X15906823Y110599073D01*
X15911515Y110594121D01*
X15951699Y110551885D01*
X15647288Y110215121D01*
X15570140Y110129889D01*
X15497120Y110049436D01*
X15431024Y109976826D01*
X15374649Y109915124D01*
X15330790Y109867392D01*
X15302245Y109836696D01*
X15295538Y109829666D01*
X15248200Y109780974D01*
X15176133Y109848384D01*
X15104067Y109915794D01*
X15217083Y110357173D01*
X15244558Y110465131D01*
X15269350Y110563803D01*
X15290639Y110649831D01*
X15307607Y110719857D01*
X15319435Y110770524D01*
X15325306Y110798473D01*
X15325720Y110802930D01*
X15315365Y110793830D01*
X15288337Y110765950D01*
X15247132Y110721983D01*
X15194245Y110664617D01*
X15132174Y110596544D01*
X15063413Y110520453D01*
X15056676Y110512963D01*
X14987007Y110435887D01*
X14923386Y110366274D01*
X14868391Y110306885D01*
X14824603Y110260481D01*
X14794601Y110229823D01*
X14780965Y110217671D01*
X14780661Y110217581D01*
X14764679Y110226085D01*
X14735590Y110249073D01*
X14711642Y110270510D01*
X14653975Y110324476D01*
X14986876Y110691445D01*
X15065957Y110778583D01*
X15139451Y110859497D01*
X15204979Y110931573D01*
X15260160Y110992195D01*
X15302615Y111038747D01*
X15329963Y111068616D01*
X15339251Y111078622D01*
X15351666Y111085863D01*
X15368520Y111081270D01*
G37*
G36*
X14599811Y108999147D02*
G01*
X14781461Y108810226D01*
X14940205Y108625999D01*
X15074907Y108447926D01*
X15184432Y108277469D01*
X15238086Y108178469D01*
X15277792Y108102151D01*
X15312150Y108044455D01*
X15346788Y107997397D01*
X15387334Y107952991D01*
X15418025Y107923180D01*
X15492970Y107856305D01*
X15570560Y107795693D01*
X15657803Y107736396D01*
X15761705Y107673466D01*
X15813767Y107643766D01*
X15892610Y107601935D01*
X15990296Y107553927D01*
X16098636Y107503443D01*
X16209441Y107454185D01*
X16314520Y107409854D01*
X16405684Y107374151D01*
X16428980Y107365717D01*
X16476516Y107347852D01*
X16511134Y107332779D01*
X16525985Y107323511D01*
X16526119Y107323021D01*
X16512524Y107316113D01*
X16474445Y107306162D01*
X16415939Y107293837D01*
X16341062Y107279811D01*
X16253870Y107264755D01*
X16158421Y107249339D01*
X16058772Y107234235D01*
X15958978Y107220113D01*
X15863098Y107207645D01*
X15775187Y107197502D01*
X15754165Y107195331D01*
X15660764Y107187786D01*
X15548808Y107181644D01*
X15425299Y107177031D01*
X15297240Y107174074D01*
X15171634Y107172898D01*
X15055484Y107173631D01*
X14955792Y107176398D01*
X14896232Y107179869D01*
X14625439Y107209701D01*
X14377300Y107255211D01*
X14149876Y107317122D01*
X13941229Y107396158D01*
X13749421Y107493041D01*
X13572515Y107608495D01*
X13424250Y107729048D01*
X13367032Y107775563D01*
X13288937Y107832171D01*
X13194751Y107895933D01*
X13089259Y107963908D01*
X12977248Y108033157D01*
X12863501Y108100739D01*
X12752806Y108163717D01*
X12649948Y108219148D01*
X12559712Y108264095D01*
X12534067Y108275880D01*
X12449002Y108313970D01*
X12533991Y108330553D01*
X12762808Y108379020D01*
X12990027Y108434433D01*
X13207730Y108494675D01*
X13408000Y108557634D01*
X13487321Y108585206D01*
X13652868Y108649433D01*
X13818337Y108722508D01*
X13978421Y108801617D01*
X14127814Y108883948D01*
X14261208Y108966690D01*
X14373296Y109047029D01*
X14400926Y109069366D01*
X14470352Y109127302D01*
X14599811Y108999147D01*
G37*
G36*
X17412189Y106482320D02*
G01*
X17530671Y106451957D01*
X17640251Y106423583D01*
X17737827Y106398023D01*
X17820293Y106376104D01*
X17884548Y106358650D01*
X17927487Y106346488D01*
X17946008Y106340443D01*
X17946449Y106340161D01*
X17950750Y106324697D01*
X17956787Y106290245D01*
X17963374Y106245603D01*
X17969326Y106199567D01*
X17973457Y106160936D01*
X17974581Y106138506D01*
X17973956Y106136052D01*
X17960302Y106129573D01*
X17924468Y106112458D01*
X17870226Y106086513D01*
X17801349Y106053546D01*
X17721609Y106015364D01*
X17634780Y105973774D01*
X17544633Y105930583D01*
X17454942Y105887598D01*
X17369479Y105846626D01*
X17292017Y105809474D01*
X17226328Y105777949D01*
X17220481Y105775142D01*
X16972238Y105655942D01*
X16972238Y105703849D01*
X16969286Y105753972D01*
X16963217Y105796858D01*
X16960018Y105817384D01*
X16963009Y105833023D01*
X16976550Y105847506D01*
X17004996Y105864566D01*
X17052706Y105887935D01*
X17089933Y105905389D01*
X17225669Y105968819D01*
X17207722Y106139112D01*
X17200571Y106208752D01*
X17194620Y106270062D01*
X17190521Y106316117D01*
X17189678Y106328415D01*
X17343875Y106328415D01*
X17352930Y106239760D01*
X17359265Y106181584D01*
X17365944Y106126099D01*
X17369796Y106097452D01*
X17377608Y106043800D01*
X17423166Y106063543D01*
X17455169Y106078003D01*
X17505324Y106101335D01*
X17565864Y106129904D01*
X17610043Y106150968D01*
X17666612Y106178658D01*
X17711499Y106201776D01*
X17739638Y106217635D01*
X17746626Y106223383D01*
X17731725Y106228404D01*
X17694000Y106238976D01*
X17638565Y106253722D01*
X17570532Y106271265D01*
X17542883Y106278266D01*
X17343875Y106328415D01*
X17189678Y106328415D01*
X17188939Y106339190D01*
X17185065Y106353691D01*
X17171086Y106365721D01*
X17142078Y106377459D01*
X17093114Y106391085D01*
X17045712Y106402588D01*
X16903323Y106436201D01*
X16894766Y106487931D01*
X16888751Y106534976D01*
X16886058Y106577070D01*
X16886051Y106578088D01*
X16885892Y106616516D01*
X17412189Y106482320D01*
G37*
G36*
X10435156Y99723444D02*
G01*
X10528901Y99716473D01*
X10612485Y99710180D01*
X10681826Y99704878D01*
X10732842Y99700883D01*
X10761450Y99698506D01*
X10766147Y99698005D01*
X10768179Y99684288D01*
X10769483Y99650476D01*
X10769745Y99622759D01*
X10769745Y99548747D01*
X10622238Y99558317D01*
X10545269Y99563529D01*
X10465290Y99569302D01*
X10395399Y99574678D01*
X10372041Y99576601D01*
X10269352Y99585315D01*
X10258965Y99481890D01*
X10254783Y99430417D01*
X10253444Y99391204D01*
X10255190Y99372019D01*
X10255551Y99371493D01*
X10271539Y99368154D01*
X10311310Y99363369D01*
X10369928Y99357635D01*
X10442459Y99351446D01*
X10498145Y99347161D01*
X10733767Y99329802D01*
X10738189Y99252190D01*
X10742610Y99174578D01*
X10637452Y99183516D01*
X10574082Y99188583D01*
X10495547Y99194407D01*
X10415412Y99199993D01*
X10387046Y99201868D01*
X10241797Y99211282D01*
X10232446Y99112242D01*
X10227533Y99052498D01*
X10224108Y98996146D01*
X10222992Y98960379D01*
X10223817Y98936615D01*
X10229162Y98919381D01*
X10243168Y98907301D01*
X10269978Y98898998D01*
X10313734Y98893092D01*
X10378577Y98888208D01*
X10453144Y98883843D01*
X10522707Y98879451D01*
X10587364Y98874554D01*
X10637997Y98869881D01*
X10658215Y98867436D01*
X10712181Y98859567D01*
X10712181Y98788877D01*
X10712181Y98718187D01*
X10629433Y98720071D01*
X10587017Y98721841D01*
X10522771Y98725527D01*
X10443549Y98730690D01*
X10356208Y98736890D01*
X10296273Y98741428D01*
X10214864Y98747955D01*
X10144209Y98753996D01*
X10088973Y98759120D01*
X10053820Y98762899D01*
X10043216Y98764728D01*
X10043587Y98779476D01*
X10045900Y98819408D01*
X10049916Y98881012D01*
X10055396Y98960772D01*
X10062103Y99055175D01*
X10069798Y99160707D01*
X10073265Y99207479D01*
X10081509Y99319408D01*
X10089050Y99424160D01*
X10095611Y99517708D01*
X10100916Y99596024D01*
X10104689Y99655078D01*
X10106652Y99690844D01*
X10106859Y99697025D01*
X10107762Y99747647D01*
X10435156Y99723444D01*
G37*
G36*
X13362486Y100260603D02*
G01*
X13377681Y100232328D01*
X13392503Y100198293D01*
X13402034Y100169208D01*
X13403286Y100160408D01*
X13391535Y100147093D01*
X13362263Y100128923D01*
X13351541Y100123545D01*
X13319680Y100103592D01*
X13306585Y100085164D01*
X13307111Y100081304D01*
X13319167Y100053096D01*
X13339691Y100005853D01*
X13366728Y99944010D01*
X13398322Y99872003D01*
X13432518Y99794265D01*
X13467360Y99715231D01*
X13500893Y99639336D01*
X13531161Y99571014D01*
X13556209Y99514701D01*
X13574081Y99474830D01*
X13582822Y99455836D01*
X13583342Y99454880D01*
X13597675Y99457066D01*
X13628732Y99467925D01*
X13640938Y99472868D01*
X13675481Y99486940D01*
X13696308Y99494742D01*
X13698495Y99495298D01*
X13707016Y99483186D01*
X13719412Y99453934D01*
X13731975Y99418169D01*
X13740998Y99386514D01*
X13742774Y99369595D01*
X13742494Y99369199D01*
X13727029Y99360769D01*
X13691188Y99343790D01*
X13640985Y99320907D01*
X13582432Y99294768D01*
X13521544Y99268021D01*
X13464334Y99243311D01*
X13416815Y99223287D01*
X13385002Y99210595D01*
X13375094Y99207479D01*
X13364658Y99219550D01*
X13349848Y99249672D01*
X13345087Y99261445D01*
X13330887Y99297798D01*
X13321287Y99321509D01*
X13320011Y99324402D01*
X13329307Y99334625D01*
X13357730Y99349793D01*
X13373084Y99356336D01*
X13430425Y99379280D01*
X13324899Y99620773D01*
X13274642Y99735699D01*
X13234637Y99826919D01*
X13203659Y99897122D01*
X13180484Y99948998D01*
X13163888Y99985234D01*
X13152646Y100008521D01*
X13145535Y100021548D01*
X13141329Y100027003D01*
X13139603Y100027762D01*
X13123600Y100022732D01*
X13091512Y100010220D01*
X13081003Y100005881D01*
X13046920Y99992860D01*
X13029479Y99993471D01*
X13018881Y100009976D01*
X13014475Y100021240D01*
X12998367Y100059683D01*
X12986342Y100084591D01*
X12983379Y100096130D01*
X12989935Y100107932D01*
X13009646Y100122270D01*
X13046147Y100141420D01*
X13103072Y100167658D01*
X13157233Y100191554D01*
X13224594Y100220727D01*
X13282403Y100245219D01*
X13325624Y100262937D01*
X13349221Y100271789D01*
X13351840Y100272408D01*
X13362486Y100260603D01*
G37*
G36*
X16819928Y109466320D02*
G01*
X17014475Y109174714D01*
X16953781Y109134444D01*
X16916955Y109111300D01*
X16889998Y109096709D01*
X16882349Y109094113D01*
X16871266Y109105486D01*
X16847195Y109137069D01*
X16812915Y109184991D01*
X16771204Y109245381D01*
X16732585Y109302720D01*
X16686646Y109370612D01*
X16645606Y109429269D01*
X16612290Y109474814D01*
X16589522Y109503369D01*
X16580636Y109511388D01*
X16563114Y109503811D01*
X16529132Y109483869D01*
X16485782Y109455743D01*
X16482245Y109453348D01*
X16396777Y109395308D01*
X16540598Y109180265D01*
X16586657Y109111099D01*
X16626604Y109050542D01*
X16657899Y109002494D01*
X16677999Y108970853D01*
X16684419Y108959594D01*
X16673378Y108948354D01*
X16646292Y108928828D01*
X16612217Y108906812D01*
X16580207Y108888105D01*
X16559320Y108878504D01*
X16557264Y108878187D01*
X16545517Y108889599D01*
X16520961Y108921201D01*
X16486460Y108969047D01*
X16444881Y109029187D01*
X16410518Y109080374D01*
X16365360Y109147819D01*
X16325155Y109206669D01*
X16292792Y109252785D01*
X16271165Y109282029D01*
X16263768Y109290377D01*
X16248329Y109285743D01*
X16215294Y109268742D01*
X16170851Y109243218D01*
X16121187Y109213011D01*
X16072492Y109181964D01*
X16030952Y109153917D01*
X16002757Y109132714D01*
X15993898Y109122833D01*
X16001429Y109109126D01*
X16022470Y109075464D01*
X16054485Y109025786D01*
X16094939Y108964032D01*
X16137058Y108900493D01*
X16280426Y108685348D01*
X16219788Y108645115D01*
X16183006Y108621987D01*
X16156126Y108607410D01*
X16148536Y108604821D01*
X16137885Y108616262D01*
X16113737Y108648401D01*
X16078443Y108697911D01*
X16034353Y108761462D01*
X15983816Y108835727D01*
X15950661Y108885114D01*
X15897729Y108964835D01*
X15850628Y109036684D01*
X15811584Y109097190D01*
X15782825Y109142881D01*
X15766575Y109170286D01*
X15763757Y109176531D01*
X15775295Y109186237D01*
X15807653Y109209686D01*
X15857655Y109244728D01*
X15922124Y109289215D01*
X15997884Y109340998D01*
X16081758Y109397928D01*
X16170569Y109457856D01*
X16261141Y109518634D01*
X16350297Y109578111D01*
X16434861Y109634140D01*
X16511656Y109684572D01*
X16577505Y109727257D01*
X16584582Y109731796D01*
X16625380Y109757927D01*
X16819928Y109466320D01*
G37*
G36*
X15791361Y102194200D02*
G01*
X15829294Y102164612D01*
X15855621Y102140746D01*
X15864136Y102128970D01*
X15852073Y102117500D01*
X15820331Y102098428D01*
X15775580Y102075729D01*
X15772016Y102074053D01*
X15682297Y102021224D01*
X15605494Y101954791D01*
X15548205Y101880903D01*
X15532186Y101850539D01*
X15510103Y101789792D01*
X15507829Y101743542D01*
X15525673Y101705117D01*
X15539686Y101689261D01*
X15578152Y101660957D01*
X15618774Y101654023D01*
X15665584Y101669233D01*
X15722613Y101707360D01*
X15749529Y101729490D01*
X15825401Y101793818D01*
X15883678Y101841759D01*
X15928153Y101876182D01*
X15962620Y101899958D01*
X15990875Y101915958D01*
X16003985Y101921994D01*
X16081303Y101940359D01*
X16158876Y101931882D01*
X16232189Y101898106D01*
X16296727Y101840572D01*
X16316217Y101815377D01*
X16340260Y101777240D01*
X16353326Y101742054D01*
X16358597Y101698079D01*
X16359353Y101656206D01*
X16349737Y101563981D01*
X16319328Y101476461D01*
X16265783Y101388294D01*
X16214016Y101324162D01*
X16178642Y101288347D01*
X16133008Y101248221D01*
X16083172Y101208380D01*
X16035194Y101173418D01*
X15995134Y101147928D01*
X15969051Y101136506D01*
X15966239Y101136301D01*
X15951024Y101144522D01*
X15920327Y101165391D01*
X15889320Y101188048D01*
X15848042Y101223511D01*
X15824886Y101252962D01*
X15821761Y101272919D01*
X15838952Y101279914D01*
X15874891Y101288701D01*
X15925125Y101311727D01*
X15982007Y101344603D01*
X16037891Y101382941D01*
X16081927Y101419339D01*
X16143634Y101487081D01*
X16184810Y101554401D01*
X16204991Y101617965D01*
X16203710Y101674444D01*
X16180501Y101720504D01*
X16134897Y101752815D01*
X16128916Y101755227D01*
X16101081Y101761655D01*
X16072128Y101757506D01*
X16037655Y101740416D01*
X15993258Y101708019D01*
X15934536Y101657953D01*
X15914504Y101640065D01*
X15833838Y101571049D01*
X15766377Y101522383D01*
X15707296Y101491979D01*
X15651773Y101477748D01*
X15594986Y101477604D01*
X15554455Y101484216D01*
X15483206Y101512843D01*
X15421258Y101562692D01*
X15376145Y101626672D01*
X15360957Y101666352D01*
X15351728Y101754231D01*
X15367927Y101847360D01*
X15407618Y101942076D01*
X15468861Y102034714D01*
X15549721Y102121612D01*
X15639621Y102193235D01*
X15718587Y102247621D01*
X15791361Y102194200D01*
G37*
G36*
X11739163Y110754136D02*
G01*
X11689601Y110567946D01*
X11620524Y110383570D01*
X11534820Y110206381D01*
X11435375Y110041746D01*
X11325076Y109895039D01*
X11215251Y109779363D01*
X11075060Y109664241D01*
X10921656Y109564572D01*
X10762090Y109484401D01*
X10603415Y109427775D01*
X10601515Y109427246D01*
X10548420Y109413094D01*
X10511362Y109406732D01*
X10478643Y109408255D01*
X10438569Y109417757D01*
X10401010Y109428865D01*
X10318431Y109446610D01*
X10216084Y109457795D01*
X10102223Y109462436D01*
X9985102Y109460545D01*
X9872974Y109452138D01*
X9774093Y109437228D01*
X9733598Y109427722D01*
X9610515Y109386903D01*
X9479696Y109330924D01*
X9353270Y109265448D01*
X9255099Y109204343D01*
X9157960Y109137415D01*
X9157960Y109202652D01*
X9143715Y109287488D01*
X9101345Y109369042D01*
X9031399Y109446537D01*
X8934930Y109518875D01*
X8873559Y109553354D01*
X8799266Y109588503D01*
X8722561Y109619880D01*
X8653953Y109643039D01*
X8623059Y109650748D01*
X8593593Y109659096D01*
X8591389Y109666546D01*
X8614933Y109672869D01*
X8662713Y109677835D01*
X8733216Y109681213D01*
X8824930Y109682775D01*
X8834164Y109682818D01*
X8976138Y109679597D01*
X9094907Y109668260D01*
X9195093Y109648056D01*
X9281314Y109618232D01*
X9308544Y109605631D01*
X9348419Y109587049D01*
X9376326Y109576180D01*
X9384602Y109574933D01*
X9382459Y109589721D01*
X9372180Y109623355D01*
X9359508Y109658990D01*
X9324918Y109725995D01*
X9270866Y109800079D01*
X9203183Y109874591D01*
X9127701Y109942877D01*
X9077874Y109980321D01*
X9035485Y110011753D01*
X9017692Y110031705D01*
X9025245Y110041025D01*
X9058895Y110040559D01*
X9119395Y110031156D01*
X9122463Y110030591D01*
X9228082Y109999527D01*
X9336189Y109946993D01*
X9437541Y109877799D01*
X9471372Y109849034D01*
X9555711Y109772712D01*
X9612275Y109798178D01*
X9679125Y109841799D01*
X9745412Y109910607D01*
X9808649Y110001069D01*
X9866348Y110109655D01*
X9913677Y110226124D01*
X9928142Y110263202D01*
X9944572Y110290100D01*
X9968323Y110310236D01*
X10004749Y110327028D01*
X10059206Y110343894D01*
X10125444Y110361294D01*
X10272820Y110392488D01*
X10434680Y110415707D01*
X10597424Y110429274D01*
X10699503Y110432127D01*
X10902320Y110445394D01*
X11099840Y110483562D01*
X11288455Y110545307D01*
X11464561Y110629304D01*
X11624552Y110734231D01*
X11705644Y110801530D01*
X11759250Y110849960D01*
X11739163Y110754136D01*
G37*
G36*
X8647554Y100133246D02*
G01*
X8702398Y100113553D01*
X8735510Y100097378D01*
X8752950Y100080758D01*
X8760778Y100059733D01*
X8760896Y100059153D01*
X8764736Y100036471D01*
X8771908Y99990926D01*
X8781701Y99927276D01*
X8793405Y99850277D01*
X8806309Y99764687D01*
X8819701Y99675263D01*
X8832873Y99586764D01*
X8845111Y99503945D01*
X8855706Y99431566D01*
X8863948Y99374382D01*
X8869124Y99337152D01*
X8870579Y99324992D01*
X8873686Y99321481D01*
X8882359Y99336356D01*
X8897288Y99371350D01*
X8919162Y99428194D01*
X8948670Y99508622D01*
X8986502Y99614365D01*
X8992759Y99632012D01*
X9023033Y99717382D01*
X9050660Y99795096D01*
X9073966Y99860460D01*
X9091275Y99908777D01*
X9100913Y99935350D01*
X9101587Y99937153D01*
X9110047Y99955392D01*
X9122443Y99961808D01*
X9147007Y99957286D01*
X9182535Y99945862D01*
X9223091Y99931815D01*
X9250644Y99921300D01*
X9257107Y99918137D01*
X9254025Y99903934D01*
X9242510Y99866499D01*
X9223887Y99809612D01*
X9199482Y99737050D01*
X9170619Y99652592D01*
X9138625Y99560017D01*
X9104825Y99463104D01*
X9070544Y99365630D01*
X9037107Y99271375D01*
X9005841Y99184117D01*
X8978069Y99107634D01*
X8955118Y99045705D01*
X8938313Y99002110D01*
X8928980Y98980625D01*
X8927705Y98979031D01*
X8911377Y98984447D01*
X8876485Y98997025D01*
X8841360Y99010026D01*
X8798356Y99026301D01*
X8768014Y99038165D01*
X8758216Y99042392D01*
X8755178Y99056768D01*
X8748525Y99096080D01*
X8738812Y99156785D01*
X8726594Y99235339D01*
X8712429Y99328201D01*
X8696870Y99431827D01*
X8691967Y99464804D01*
X8675972Y99571265D01*
X8661014Y99668270D01*
X8647678Y99752225D01*
X8636548Y99819536D01*
X8628209Y99866610D01*
X8623246Y99889853D01*
X8622513Y99891633D01*
X8616022Y99880601D01*
X8601399Y99845831D01*
X8579959Y99790774D01*
X8553017Y99718880D01*
X8521889Y99633599D01*
X8488610Y99540414D01*
X8361905Y99181998D01*
X8288629Y99207190D01*
X8241978Y99227168D01*
X8220085Y99245952D01*
X8218883Y99252864D01*
X8224282Y99270440D01*
X8237913Y99311087D01*
X8258359Y99370761D01*
X8284199Y99445419D01*
X8314015Y99531016D01*
X8346387Y99623509D01*
X8379895Y99718854D01*
X8413121Y99813007D01*
X8444645Y99901924D01*
X8473047Y99981562D01*
X8496910Y100047876D01*
X8514812Y100096822D01*
X8519388Y100109051D01*
X8541946Y100168754D01*
X8647554Y100133246D01*
G37*
G36*
X12510903Y112491978D02*
G01*
X12634142Y112470852D01*
X12755783Y112429668D01*
X12849235Y112382030D01*
X12906734Y112347033D01*
X12943307Y112320950D01*
X12962606Y112297725D01*
X12968289Y112271301D01*
X12964008Y112235622D01*
X12957273Y112202994D01*
X12945741Y112155914D01*
X12934390Y112121312D01*
X12926807Y112107977D01*
X12911546Y112113670D01*
X12881219Y112135216D01*
X12841456Y112168465D01*
X12826650Y112181825D01*
X12727917Y112259351D01*
X12628780Y112311967D01*
X12531511Y112339385D01*
X12438384Y112341317D01*
X12351673Y112317472D01*
X12273652Y112267563D01*
X12258762Y112253917D01*
X12196685Y112174142D01*
X12154373Y112076268D01*
X12133455Y111964547D01*
X12131476Y111921870D01*
X12142238Y111820709D01*
X12176466Y111735863D01*
X12233525Y111667913D01*
X12312780Y111617445D01*
X12413594Y111585040D01*
X12512463Y111572324D01*
X12621811Y111565847D01*
X12645939Y111661902D01*
X12657093Y111711569D01*
X12663284Y111750026D01*
X12663197Y111769070D01*
X12663134Y111769178D01*
X12646799Y111776985D01*
X12609081Y111788263D01*
X12556861Y111801054D01*
X12532482Y111806360D01*
X12468116Y111821471D01*
X12429973Y111834564D01*
X12415643Y111846559D01*
X12415890Y111850890D01*
X12423230Y111876938D01*
X12431729Y111915999D01*
X12432685Y111921007D01*
X12442102Y111956968D01*
X12452720Y111978575D01*
X12454364Y111979977D01*
X12471299Y111979010D01*
X12509856Y111972073D01*
X12563855Y111960650D01*
X12627116Y111946225D01*
X12693461Y111930282D01*
X12756712Y111914306D01*
X12810688Y111899779D01*
X12849211Y111888187D01*
X12866012Y111881108D01*
X12865896Y111864823D01*
X12859731Y111826685D01*
X12848915Y111772644D01*
X12834848Y111708648D01*
X12818929Y111640645D01*
X12802557Y111574584D01*
X12787131Y111516415D01*
X12774051Y111472085D01*
X12764716Y111447544D01*
X12763614Y111445784D01*
X12742492Y111435857D01*
X12699406Y111427594D01*
X12641143Y111421355D01*
X12574491Y111417500D01*
X12506238Y111416392D01*
X12443172Y111418389D01*
X12392081Y111423854D01*
X12383088Y111425564D01*
X12312704Y111446618D01*
X12234692Y111479504D01*
X12160310Y111518778D01*
X12100815Y111558999D01*
X12092258Y111566180D01*
X12023333Y111645481D01*
X11976990Y111741713D01*
X11954156Y111852847D01*
X11952772Y111871426D01*
X11956287Y112001033D01*
X11980891Y112122486D01*
X12024661Y112232316D01*
X12085674Y112327056D01*
X12162006Y112403237D01*
X12251733Y112457390D01*
X12284819Y112470124D01*
X12392363Y112492063D01*
X12510903Y112491978D01*
G37*
G36*
X13943437Y111980252D02*
G01*
X13978155Y111964033D01*
X14029468Y111938236D01*
X14093146Y111905154D01*
X14164959Y111867079D01*
X14240677Y111826305D01*
X14316070Y111785124D01*
X14386907Y111745831D01*
X14448960Y111710717D01*
X14497997Y111682075D01*
X14529788Y111662200D01*
X14540170Y111653598D01*
X14533345Y111627496D01*
X14516584Y111592943D01*
X14495452Y111559045D01*
X14475519Y111534906D01*
X14463861Y111528807D01*
X14445931Y111536780D01*
X14407212Y111555994D01*
X14352290Y111584109D01*
X14285751Y111618785D01*
X14232185Y111647051D01*
X14153634Y111688503D01*
X14096511Y111717742D01*
X14056907Y111736207D01*
X14030910Y111745335D01*
X14014609Y111746561D01*
X14004095Y111741323D01*
X13997185Y111733397D01*
X13978227Y111704299D01*
X13955996Y111664901D01*
X13934521Y111623177D01*
X13917831Y111587105D01*
X13909958Y111564661D01*
X13910211Y111561253D01*
X13923975Y111553120D01*
X13958975Y111533745D01*
X14011039Y111505402D01*
X14075990Y111470365D01*
X14139658Y111436248D01*
X14363929Y111316421D01*
X14329450Y111248579D01*
X14308316Y111210621D01*
X14291138Y111186133D01*
X14284455Y111181031D01*
X14268875Y111187587D01*
X14232343Y111205559D01*
X14179246Y111232713D01*
X14113971Y111266813D01*
X14058614Y111296158D01*
X13986988Y111334039D01*
X13924183Y111366655D01*
X13874586Y111391774D01*
X13842582Y111407169D01*
X13832710Y111410992D01*
X13822462Y111399311D01*
X13802492Y111368524D01*
X13776444Y111325012D01*
X13747965Y111275159D01*
X13720699Y111225346D01*
X13698293Y111181956D01*
X13684392Y111151372D01*
X13684337Y111151226D01*
X13687272Y111139581D01*
X13705089Y111122718D01*
X13740340Y111098971D01*
X13795581Y111066673D01*
X13873364Y111024158D01*
X13904950Y111007319D01*
X14134064Y110885727D01*
X14099424Y110817368D01*
X14078264Y110779235D01*
X14061038Y110754550D01*
X14054233Y110749298D01*
X14039037Y110755878D01*
X14002204Y110774168D01*
X13947448Y110802254D01*
X13878486Y110838219D01*
X13799031Y110880148D01*
X13752641Y110904824D01*
X13669007Y110949614D01*
X13593965Y110990145D01*
X13531224Y111024386D01*
X13484493Y111050307D01*
X13457482Y111065874D01*
X13452403Y111069259D01*
X13457440Y111082806D01*
X13474198Y111118257D01*
X13500857Y111172120D01*
X13535596Y111240902D01*
X13576594Y111321110D01*
X13622031Y111409252D01*
X13670086Y111501835D01*
X13718938Y111595365D01*
X13766767Y111686352D01*
X13811752Y111771300D01*
X13852073Y111846719D01*
X13885908Y111909115D01*
X13911437Y111954996D01*
X13926840Y111980869D01*
X13929545Y111984600D01*
X13943437Y111980252D01*
G37*
G36*
X7234481Y100954488D02*
G01*
X7271724Y100930983D01*
X7320927Y100896485D01*
X7377106Y100854818D01*
X7435278Y100809808D01*
X7490460Y100765281D01*
X7537668Y100725062D01*
X7571920Y100692977D01*
X7584349Y100678999D01*
X7627884Y100600617D01*
X7643430Y100519258D01*
X7631116Y100438072D01*
X7591074Y100360211D01*
X7569960Y100333674D01*
X7502744Y100276720D01*
X7422867Y100240712D01*
X7348300Y100229551D01*
X7309953Y100227992D01*
X7292376Y100219716D01*
X7287559Y100198530D01*
X7287425Y100182465D01*
X7289064Y100150812D01*
X7293343Y100097559D01*
X7299644Y100029705D01*
X7307348Y99954246D01*
X7308725Y99941417D01*
X7318573Y99848337D01*
X7325126Y99780156D01*
X7328536Y99733202D01*
X7328957Y99703797D01*
X7326542Y99688269D01*
X7321445Y99682943D01*
X7319518Y99682780D01*
X7302722Y99691066D01*
X7271830Y99711762D01*
X7251161Y99727010D01*
X7214172Y99754549D01*
X7184996Y99775176D01*
X7176119Y99780862D01*
X7167038Y99799701D01*
X7157794Y99843782D01*
X7149015Y99909576D01*
X7143769Y99963289D01*
X7134873Y100066599D01*
X7127718Y100145208D01*
X7121331Y100203066D01*
X7114738Y100244126D01*
X7106967Y100272340D01*
X7097045Y100291659D01*
X7083997Y100306036D01*
X7066852Y100319421D01*
X7053717Y100328971D01*
X6994924Y100372208D01*
X6888737Y100221571D01*
X6848289Y100165002D01*
X6813686Y100118124D01*
X6788281Y100085374D01*
X6775430Y100071188D01*
X6774802Y100070935D01*
X6759586Y100078438D01*
X6728737Y100097728D01*
X6703005Y100115003D01*
X6664547Y100145743D01*
X6648531Y100168829D01*
X6649459Y100176164D01*
X6667970Y100204408D01*
X6699300Y100250121D01*
X6741077Y100310000D01*
X6790931Y100380742D01*
X6846494Y100459044D01*
X6872009Y100494808D01*
X7085666Y100494808D01*
X7096842Y100484112D01*
X7126338Y100462502D01*
X7168103Y100434380D01*
X7174242Y100430395D01*
X7242887Y100391629D01*
X7298552Y100374614D01*
X7346736Y100379031D01*
X7392939Y100404565D01*
X7407950Y100416921D01*
X7452039Y100468023D01*
X7468605Y100520218D01*
X7457432Y100574035D01*
X7418305Y100630002D01*
X7351011Y100688648D01*
X7277736Y100737252D01*
X7261761Y100730697D01*
X7233135Y100701771D01*
X7194004Y100652790D01*
X7173402Y100624630D01*
X7137209Y100573389D01*
X7108276Y100531206D01*
X7090112Y100503271D01*
X7085666Y100494808D01*
X6872009Y100494808D01*
X6905393Y100541603D01*
X6965260Y100625115D01*
X7023724Y100706278D01*
X7078415Y100781788D01*
X7126963Y100848343D01*
X7166997Y100902640D01*
X7196149Y100941375D01*
X7212046Y100961246D01*
X7214181Y100963173D01*
X7234481Y100954488D01*
G37*
G36*
X7255832Y108082154D02*
G01*
X7259920Y108067497D01*
X7267029Y108027308D01*
X7273872Y107963336D01*
X7280240Y107880580D01*
X7285924Y107784039D01*
X7290713Y107678712D01*
X7294398Y107569597D01*
X7296770Y107461694D01*
X7297619Y107360001D01*
X7296736Y107269517D01*
X7295313Y107223309D01*
X7281844Y106994026D01*
X7260950Y106789102D01*
X7231830Y106604887D01*
X7193683Y106437730D01*
X7145706Y106283982D01*
X7087099Y106139991D01*
X7034010Y106033073D01*
X6962803Y105878242D01*
X6918043Y105726707D01*
X6899509Y105574881D01*
X6906977Y105419180D01*
X6940226Y105256020D01*
X6978324Y105136544D01*
X7015184Y105041282D01*
X7054208Y104956640D01*
X7100672Y104872328D01*
X7159855Y104778053D01*
X7170179Y104762380D01*
X7205554Y104708867D01*
X7235698Y104663137D01*
X7256577Y104631315D01*
X7263246Y104621028D01*
X7263698Y104611656D01*
X7244639Y104617902D01*
X7209405Y104637884D01*
X7161334Y104669717D01*
X7106393Y104709540D01*
X6984568Y104818715D01*
X6878562Y104950002D01*
X6789508Y105100759D01*
X6718538Y105268345D01*
X6666787Y105450117D01*
X6635386Y105643434D01*
X6625441Y105830907D01*
X6624455Y105897889D01*
X6621388Y105940601D01*
X6615582Y105963519D01*
X6606379Y105971121D01*
X6604825Y105971218D01*
X6581550Y105960460D01*
X6545427Y105931259D01*
X6500836Y105888227D01*
X6452160Y105835978D01*
X6403778Y105779122D01*
X6360074Y105722273D01*
X6338280Y105690639D01*
X6259250Y105552402D01*
X6194390Y105400420D01*
X6142913Y105231839D01*
X6104033Y105043802D01*
X6076963Y104833454D01*
X6066667Y104704816D01*
X6055929Y104539320D01*
X6025809Y104596884D01*
X5992931Y104666328D01*
X5956429Y104754161D01*
X5919877Y104850904D01*
X5886852Y104947079D01*
X5860929Y105033208D01*
X5860225Y105035808D01*
X5847891Y105085175D01*
X5839011Y105131732D01*
X5833037Y105181782D01*
X5829421Y105241626D01*
X5827615Y105317569D01*
X5827071Y105415911D01*
X5827070Y105417167D01*
X5827222Y105510883D01*
X5828260Y105581656D01*
X5830808Y105635322D01*
X5835491Y105677719D01*
X5842932Y105714684D01*
X5853755Y105752054D01*
X5867070Y105791332D01*
X5903302Y105883666D01*
X5946186Y105968856D01*
X5999393Y106052404D01*
X6066596Y106139809D01*
X6151465Y106236572D01*
X6196210Y106284435D01*
X6394551Y106505671D01*
X6577825Y106734818D01*
X6744014Y106968692D01*
X6891101Y107204107D01*
X7017070Y107437878D01*
X7119904Y107666820D01*
X7184338Y107844921D01*
X7204788Y107911916D01*
X7222638Y107975977D01*
X7235278Y108027484D01*
X7238973Y108046394D01*
X7245444Y108083345D01*
X7250211Y108094407D01*
X7255832Y108082154D01*
G37*
G36*
X17447217Y108280397D02*
G01*
X17465487Y108245919D01*
X17488965Y108192806D01*
X17515635Y108125369D01*
X17522015Y108108272D01*
X17550050Y108030978D01*
X17569131Y107973282D01*
X17580817Y107927989D01*
X17586665Y107887904D01*
X17588234Y107845831D01*
X17587460Y107806063D01*
X17583899Y107742330D01*
X17576612Y107698296D01*
X17563490Y107664919D01*
X17549307Y107642499D01*
X17500677Y107595068D01*
X17433425Y107556901D01*
X17357311Y107532494D01*
X17296034Y107525896D01*
X17242786Y107531505D01*
X17186445Y107545899D01*
X17136448Y107565786D01*
X17102231Y107587870D01*
X17095487Y107595896D01*
X17078267Y107610827D01*
X17073535Y107611785D01*
X17062986Y107599815D01*
X17041103Y107566567D01*
X17010321Y107516035D01*
X16973082Y107452215D01*
X16935173Y107385128D01*
X16893452Y107310490D01*
X16855591Y107243277D01*
X16824199Y107188077D01*
X16801883Y107149479D01*
X16791890Y107132990D01*
X16782157Y107123496D01*
X16772205Y107129003D01*
X16759363Y107153373D01*
X16740960Y107200470D01*
X16736112Y107213683D01*
X16697389Y107319856D01*
X16827226Y107543558D01*
X16957062Y107767261D01*
X16933784Y107837030D01*
X16919965Y107877459D01*
X16910065Y107904603D01*
X16907297Y107910892D01*
X16893393Y107907773D01*
X16857511Y107896371D01*
X16804674Y107878367D01*
X16739906Y107855440D01*
X16721013Y107848619D01*
X16653744Y107824678D01*
X16596891Y107805288D01*
X16555527Y107792116D01*
X16534725Y107786827D01*
X16533297Y107786962D01*
X16526070Y107801914D01*
X16512244Y107835618D01*
X16499695Y107867995D01*
X16470735Y107944317D01*
X16496267Y107954202D01*
X17064699Y107954202D01*
X17066343Y107926608D01*
X17080253Y107883399D01*
X17105443Y107822305D01*
X17146283Y107755430D01*
X17199326Y107714244D01*
X17262879Y107699458D01*
X17335250Y107711782D01*
X17352901Y107718499D01*
X17402787Y107751081D01*
X17428396Y107798402D01*
X17432956Y107837496D01*
X17428716Y107874229D01*
X17417439Y107922075D01*
X17401732Y107973405D01*
X17384203Y108020593D01*
X17367459Y108056012D01*
X17354109Y108072034D01*
X17352686Y108072295D01*
X17331139Y108067347D01*
X17288867Y108053907D01*
X17231907Y108034076D01*
X17166297Y108009957D01*
X17098072Y107983653D01*
X17097142Y107983285D01*
X17075055Y107971366D01*
X17064699Y107954202D01*
X16496267Y107954202D01*
X16509220Y107959217D01*
X16540104Y107970802D01*
X16591849Y107989794D01*
X16660589Y108014806D01*
X16742462Y108044451D01*
X16833602Y108077342D01*
X16930145Y108112091D01*
X17028227Y108147311D01*
X17123983Y108181617D01*
X17213549Y108213619D01*
X17293061Y108241933D01*
X17358654Y108265170D01*
X17406464Y108281943D01*
X17432626Y108290865D01*
X17436170Y108291927D01*
X17447217Y108280397D01*
G37*
G36*
X5429774Y103368513D02*
G01*
X5446813Y103334507D01*
X5471450Y103283338D01*
X5501500Y103219513D01*
X5518467Y103182975D01*
X5555133Y103102224D01*
X5580926Y103040873D01*
X5597887Y102992605D01*
X5608062Y102951099D01*
X5613493Y102910036D01*
X5615294Y102883570D01*
X5617145Y102828345D01*
X5614124Y102792288D01*
X5604130Y102765919D01*
X5585061Y102739758D01*
X5582835Y102737097D01*
X5522169Y102686087D01*
X5448945Y102658000D01*
X5370095Y102654577D01*
X5311983Y102669031D01*
X5294428Y102670860D01*
X5287557Y102653542D01*
X5286799Y102633346D01*
X5273190Y102561617D01*
X5235342Y102494433D01*
X5177720Y102438430D01*
X5139865Y102415126D01*
X5081581Y102396464D01*
X5009611Y102388774D01*
X4937020Y102392408D01*
X4876871Y102407720D01*
X4876168Y102408023D01*
X4833929Y102431691D01*
X4794246Y102466358D01*
X4754539Y102515518D01*
X4712226Y102582667D01*
X4664727Y102671298D01*
X4630633Y102740453D01*
X4596654Y102812663D01*
X4575297Y102860493D01*
X4750100Y102860493D01*
X4761122Y102824336D01*
X4780333Y102776604D01*
X4804739Y102724031D01*
X4831344Y102673356D01*
X4857154Y102631312D01*
X4864757Y102620781D01*
X4911363Y102572382D01*
X4959591Y102550925D01*
X5014842Y102554817D01*
X5048691Y102566560D01*
X5102198Y102601210D01*
X5133464Y102648767D01*
X5139394Y102704364D01*
X5138794Y102708353D01*
X5129331Y102741971D01*
X5110551Y102792782D01*
X5085766Y102852117D01*
X5073093Y102880249D01*
X5015163Y103005654D01*
X4888346Y102947375D01*
X4832670Y102921243D01*
X4786909Y102898745D01*
X4757403Y102883052D01*
X4750260Y102878338D01*
X4750100Y102860493D01*
X4575297Y102860493D01*
X4568481Y102875759D01*
X4547986Y102925273D01*
X4537042Y102956739D01*
X4536165Y102965751D01*
X4550453Y102973360D01*
X4587084Y102991292D01*
X4642356Y103017814D01*
X4712569Y103051193D01*
X4734482Y103061551D01*
X5159374Y103061551D01*
X5166027Y103037146D01*
X5184078Y102996693D01*
X5207293Y102949828D01*
X5248636Y102877148D01*
X5287726Y102830816D01*
X5327814Y102808929D01*
X5372156Y102809584D01*
X5417032Y102827169D01*
X5447092Y102852813D01*
X5459030Y102891126D01*
X5452765Y102944825D01*
X5428212Y103016630D01*
X5409969Y103058190D01*
X5360448Y103165372D01*
X5276853Y103127876D01*
X5230268Y103107079D01*
X5192979Y103090610D01*
X5175269Y103082970D01*
X5162870Y103075096D01*
X5159374Y103061551D01*
X4734482Y103061551D01*
X4794023Y103089696D01*
X4883017Y103131589D01*
X4975850Y103175140D01*
X5068821Y103218615D01*
X5158230Y103260281D01*
X5240377Y103298405D01*
X5311560Y103331255D01*
X5368079Y103357097D01*
X5406233Y103374197D01*
X5422321Y103380823D01*
X5422518Y103380850D01*
X5429774Y103368513D01*
G37*
G36*
X14077089Y105972127D02*
G01*
X14086978Y105938661D01*
X14099711Y105886050D01*
X14114238Y105818898D01*
X14129505Y105741810D01*
X14143466Y105665129D01*
X14180102Y105371922D01*
X14189094Y105075391D01*
X14170896Y104778450D01*
X14125964Y104484009D01*
X14054750Y104194983D01*
X13957710Y103914282D01*
X13835298Y103644821D01*
X13825290Y103625496D01*
X13671820Y103362121D01*
X13496712Y103116920D01*
X13301411Y102890875D01*
X13087362Y102684967D01*
X12856012Y102500180D01*
X12608805Y102337495D01*
X12347188Y102197895D01*
X12072604Y102082363D01*
X11786501Y101991879D01*
X11490323Y101927428D01*
X11284788Y101899065D01*
X11193610Y101892123D01*
X11082686Y101887956D01*
X10960914Y101886543D01*
X10837193Y101887863D01*
X10720423Y101891894D01*
X10619502Y101898616D01*
X10597783Y101900715D01*
X10346267Y101938941D01*
X10088982Y102000610D01*
X9832915Y102083366D01*
X9585054Y102184851D01*
X9352389Y102302708D01*
X9279112Y102345410D01*
X9095610Y102466869D01*
X8910648Y102609149D01*
X8731787Y102765741D01*
X8566587Y102930135D01*
X8457976Y103052506D01*
X8351819Y103189380D01*
X8245412Y103344802D01*
X8144887Y103509258D01*
X8056375Y103673230D01*
X8050694Y103684633D01*
X8014982Y103759492D01*
X7978863Y103840051D01*
X7944076Y103921855D01*
X7912358Y104000450D01*
X7885447Y104071382D01*
X7865083Y104130198D01*
X7853002Y104172444D01*
X7850943Y104193665D01*
X7851611Y104194765D01*
X7860965Y104187946D01*
X7874708Y104161797D01*
X7877579Y104154824D01*
X7902528Y104097366D01*
X7938176Y104022596D01*
X7980650Y103938021D01*
X8026077Y103851150D01*
X8070584Y103769489D01*
X8110297Y103700547D01*
X8121013Y103682957D01*
X8281577Y103449731D01*
X8465551Y103228471D01*
X8669533Y103022263D01*
X8890118Y102834193D01*
X9123905Y102667344D01*
X9367488Y102524802D01*
X9437639Y102489347D01*
X9706507Y102370917D01*
X9973596Y102279592D01*
X10243268Y102214358D01*
X10519882Y102174202D01*
X10807800Y102158108D01*
X10863663Y102157687D01*
X11064257Y102161612D01*
X11245871Y102174418D01*
X11417317Y102197490D01*
X11587404Y102232212D01*
X11764941Y102279970D01*
X11889135Y102318864D01*
X12170713Y102426122D01*
X12439796Y102558885D01*
X12695075Y102716141D01*
X12935242Y102896877D01*
X13158992Y103100081D01*
X13365017Y103324740D01*
X13552008Y103569841D01*
X13604323Y103647395D01*
X13650251Y103722764D01*
X13702735Y103817463D01*
X13758027Y103923943D01*
X13812380Y104034660D01*
X13862048Y104142066D01*
X13903283Y104238617D01*
X13922155Y104287479D01*
X13961372Y104405649D01*
X14000182Y104542158D01*
X14036015Y104686647D01*
X14066300Y104828755D01*
X14088359Y104957377D01*
X14100614Y105068050D01*
X14108736Y105196868D01*
X14112722Y105335912D01*
X14112568Y105477265D01*
X14108269Y105613011D01*
X14099821Y105735232D01*
X14088824Y105826127D01*
X14079671Y105888268D01*
X14073324Y105938998D01*
X14070483Y105972167D01*
X14071098Y105981844D01*
X14077089Y105972127D01*
G37*
G36*
X8917096Y111820650D02*
G01*
X8930483Y111650510D01*
X8954206Y111506950D01*
X8988407Y111389632D01*
X9033232Y111298220D01*
X9088824Y111232377D01*
X9155327Y111191765D01*
X9190066Y111181368D01*
X9276821Y111174028D01*
X9363203Y111186579D01*
X9438941Y111217147D01*
X9459391Y111230530D01*
X9525518Y111292778D01*
X9575799Y111371410D01*
X9611059Y111468762D01*
X9632120Y111587171D01*
X9639804Y111728972D01*
X9639868Y111742727D01*
X9640056Y111923357D01*
X9692514Y111859943D01*
X9798381Y111751172D01*
X9913290Y111669612D01*
X10036779Y111615419D01*
X10168383Y111588750D01*
X10307640Y111589762D01*
X10428583Y111611704D01*
X10560738Y111655677D01*
X10698375Y111720000D01*
X10832350Y111800234D01*
X10868233Y111825140D01*
X10918181Y111860646D01*
X10948877Y111880748D01*
X10964359Y111886953D01*
X10968666Y111880765D01*
X10965838Y111863689D01*
X10965287Y111861308D01*
X10954482Y111828899D01*
X10934641Y111780615D01*
X10909806Y111726222D01*
X10906574Y111719525D01*
X10835375Y111605262D01*
X10741508Y111507605D01*
X10626238Y111427177D01*
X10490833Y111364600D01*
X10336561Y111320497D01*
X10164688Y111295492D01*
X10032267Y111289672D01*
X9963397Y111288612D01*
X9906313Y111286431D01*
X9866414Y111283433D01*
X9849098Y111279921D01*
X9848783Y111279376D01*
X9860860Y111264517D01*
X9893222Y111241354D01*
X9939880Y111213344D01*
X9994850Y111183943D01*
X10052146Y111156608D01*
X10086549Y111142080D01*
X10128345Y111126284D01*
X10164916Y111115326D01*
X10203048Y111108336D01*
X10249532Y111104445D01*
X10311156Y111102782D01*
X10394708Y111102477D01*
X10395581Y111102478D01*
X10480902Y111103027D01*
X10544948Y111105112D01*
X10595217Y111109659D01*
X10639210Y111117596D01*
X10684424Y111129850D01*
X10726572Y111143404D01*
X10898198Y111211645D01*
X11068859Y111300619D01*
X11099316Y111318871D01*
X11162655Y111357656D01*
X11152810Y111296089D01*
X11123432Y111195650D01*
X11069697Y111095727D01*
X10995687Y111001259D01*
X10905485Y110917191D01*
X10803173Y110848462D01*
X10767991Y110830251D01*
X10623530Y110773007D01*
X10460467Y110729803D01*
X10286106Y110702138D01*
X10107752Y110691514D01*
X10092438Y110691445D01*
X10027728Y110688667D01*
X9964122Y110681390D01*
X9916148Y110671380D01*
X9823431Y110629393D01*
X9739670Y110564619D01*
X9670911Y110482905D01*
X9623201Y110390099D01*
X9622087Y110387004D01*
X9606809Y110347993D01*
X9594491Y110323576D01*
X9589908Y110319203D01*
X9577576Y110329668D01*
X9549400Y110356783D01*
X9509517Y110396482D01*
X9462066Y110444702D01*
X9460170Y110446647D01*
X9357232Y110541112D01*
X9252824Y110612312D01*
X9138769Y110664970D01*
X9020849Y110700479D01*
X8880223Y110722807D01*
X8723741Y110726202D01*
X8556785Y110711151D01*
X8384742Y110678142D01*
X8212998Y110627661D01*
X8212043Y110627329D01*
X8078640Y110580850D01*
X8078640Y110662631D01*
X8083578Y110725370D01*
X8100940Y110784752D01*
X8122335Y110831853D01*
X8164504Y110902477D01*
X8217671Y110963646D01*
X8287561Y111020909D01*
X8375382Y111077172D01*
X8482587Y111152256D01*
X8577765Y111245259D01*
X8662131Y111358145D01*
X8736903Y111492879D01*
X8803297Y111651423D01*
X8862531Y111835742D01*
X8876185Y111885410D01*
X8908691Y112007250D01*
X8917096Y111820650D01*
G37*
G36*
X7890475Y113260799D02*
G01*
X8000690Y113232180D01*
X8120615Y113190850D01*
X8245705Y113138184D01*
X8366459Y113078219D01*
X8494524Y113001336D01*
X8597151Y112920621D01*
X8677678Y112832820D01*
X8739441Y112734684D01*
X8757085Y112697650D01*
X8779414Y112620914D01*
X8788005Y112530177D01*
X8782794Y112436765D01*
X8763720Y112352000D01*
X8759071Y112339207D01*
X8742274Y112302949D01*
X8712578Y112246098D01*
X8672255Y112172520D01*
X8623578Y112086081D01*
X8568818Y111990647D01*
X8510249Y111890084D01*
X8450143Y111788257D01*
X8390771Y111689032D01*
X8334408Y111596276D01*
X8283325Y111513853D01*
X8239794Y111445631D01*
X8206089Y111395473D01*
X8196520Y111382210D01*
X8150452Y111325090D01*
X8091728Y111259044D01*
X8029414Y111194030D01*
X7993529Y111159150D01*
X7909111Y111079427D01*
X7843256Y111015853D01*
X7793131Y110965329D01*
X7755902Y110924755D01*
X7728734Y110891030D01*
X7708793Y110861055D01*
X7693246Y110831729D01*
X7692221Y110829561D01*
X7652560Y110718839D01*
X7639649Y110608913D01*
X7652440Y110493334D01*
X7667343Y110434032D01*
X7687124Y110371778D01*
X7709282Y110312737D01*
X7731314Y110263075D01*
X7750718Y110228957D01*
X7764793Y110216544D01*
X7782700Y110223529D01*
X7818001Y110242000D01*
X7863653Y110268233D01*
X7872253Y110273387D01*
X8036057Y110358583D01*
X8207479Y110422382D01*
X8381486Y110463558D01*
X8553050Y110480886D01*
X8700415Y110475166D01*
X8846170Y110450529D01*
X8978393Y110409205D01*
X9106404Y110347721D01*
X9203107Y110287733D01*
X9239754Y110260513D01*
X9285306Y110222939D01*
X9335403Y110179100D01*
X9385680Y110133081D01*
X9431778Y110088969D01*
X9469332Y110050852D01*
X9493981Y110022816D01*
X9501364Y110008948D01*
X9501077Y110008573D01*
X9486387Y110011214D01*
X9449516Y110021486D01*
X9395572Y110037871D01*
X9329663Y110058854D01*
X9309065Y110065575D01*
X9151774Y110113005D01*
X9011781Y110145716D01*
X8882360Y110164839D01*
X8756784Y110171508D01*
X8687158Y110170287D01*
X8599947Y110163274D01*
X8516263Y110150285D01*
X8442443Y110132816D01*
X8384824Y110112362D01*
X8350062Y110090743D01*
X8358606Y110086088D01*
X8390371Y110082320D01*
X8439798Y110079929D01*
X8478741Y110079348D01*
X8551170Y110077815D01*
X8605250Y110072634D01*
X8651350Y110062050D01*
X8699842Y110044306D01*
X8709474Y110040281D01*
X8780621Y110005201D01*
X8864103Y109956314D01*
X8951136Y109899364D01*
X9032935Y109840099D01*
X9100396Y109784554D01*
X9165156Y109726181D01*
X9107592Y109749745D01*
X8907612Y109822011D01*
X8720120Y109870136D01*
X8545634Y109894150D01*
X8384671Y109894084D01*
X8237748Y109869971D01*
X8105380Y109821841D01*
X7988087Y109749726D01*
X7907429Y109676884D01*
X7833008Y109586442D01*
X7778369Y109494713D01*
X7745282Y109405752D01*
X7735517Y109323610D01*
X7738991Y109291061D01*
X7765420Y109224336D01*
X7814922Y109168127D01*
X7882728Y109125652D01*
X7964070Y109100130D01*
X8030835Y109094051D01*
X8074770Y109097542D01*
X8091443Y109108549D01*
X8081578Y109127878D01*
X8070496Y109138012D01*
X8033805Y109185487D01*
X8011125Y109250472D01*
X8003350Y109324856D01*
X8011377Y109400529D01*
X8034312Y109465952D01*
X8082928Y109530527D01*
X8152846Y109578622D01*
X8241105Y109609237D01*
X8344744Y109621376D01*
X8460804Y109614042D01*
X8469828Y109612694D01*
X8581947Y109586679D01*
X8682820Y109543509D01*
X8778850Y109479699D01*
X8876440Y109391764D01*
X8877337Y109390860D01*
X8992464Y109274780D01*
X8884025Y109264520D01*
X8746333Y109239541D01*
X8626877Y109192303D01*
X8525474Y109122664D01*
X8441942Y109030483D01*
X8376100Y108915619D01*
X8349675Y108849405D01*
X8337161Y108810756D01*
X8328275Y108773619D01*
X8322421Y108731947D01*
X8319005Y108679691D01*
X8317431Y108610804D01*
X8317105Y108519238D01*
X8317106Y108518414D01*
X8319138Y108399452D01*
X8325806Y108293254D01*
X8338345Y108191983D01*
X8357991Y108087803D01*
X8385978Y107972881D01*
X8423543Y107839379D01*
X8424878Y107834844D01*
X8467296Y107690935D01*
X8409037Y107639619D01*
X8316461Y107569444D01*
X8206365Y107504467D01*
X8104238Y107457059D01*
X8024699Y107433400D01*
X7931095Y107418696D01*
X7834232Y107413653D01*
X7744918Y107418977D01*
X7690085Y107429994D01*
X7600142Y107464163D01*
X7507699Y107512784D01*
X7472158Y107535520D01*
X7456907Y107546556D01*
X7452225Y107553905D01*
X7461865Y107558315D01*
X7489576Y107560537D01*
X7539108Y107561321D01*
X7601677Y107561417D01*
X7704964Y107564735D01*
X7786891Y107576381D01*
X7854291Y107598889D01*
X7913999Y107634797D01*
X7972846Y107686639D01*
X7991861Y107706213D01*
X8026470Y107747391D01*
X8060151Y107795113D01*
X8089253Y107843051D01*
X8110127Y107884879D01*
X8119121Y107914271D01*
X8117189Y107923416D01*
X8101968Y107921667D01*
X8070116Y107910911D01*
X8055665Y107905065D01*
X8004259Y107890709D01*
X7938215Y107882389D01*
X7903629Y107881173D01*
X7841685Y107883753D01*
X7795112Y107893817D01*
X7750848Y107914402D01*
X7744181Y107918244D01*
X7691418Y107951241D01*
X7664022Y107974612D01*
X7661103Y107990511D01*
X7681770Y108001096D01*
X7707811Y108006205D01*
X7793539Y108029034D01*
X7876492Y108068982D01*
X7950500Y108121508D01*
X8009395Y108182070D01*
X8047007Y108246126D01*
X8051521Y108259251D01*
X8059643Y108298456D01*
X8057132Y108337060D01*
X8043066Y108388044D01*
X8042186Y108390718D01*
X7987303Y108538520D01*
X7925191Y108673593D01*
X7857768Y108793029D01*
X7786953Y108893923D01*
X7714665Y108973366D01*
X7642822Y109028452D01*
X7610528Y109044780D01*
X7531782Y109063480D01*
X7451994Y109053991D01*
X7370730Y109016163D01*
X7287552Y108949848D01*
X7264557Y108926881D01*
X7227667Y108887170D01*
X7200159Y108855051D01*
X7186917Y108836294D01*
X7186402Y108834491D01*
X7198657Y108831968D01*
X7230000Y108837613D01*
X7254759Y108844479D01*
X7335913Y108858695D01*
X7406863Y108849329D01*
X7448476Y108828750D01*
X7467922Y108813976D01*
X7466275Y108807685D01*
X7440177Y108806255D01*
X7427594Y108806233D01*
X7339850Y108792833D01*
X7251962Y108754839D01*
X7170849Y108695561D01*
X7146745Y108671890D01*
X7102651Y108621370D01*
X7065255Y108571358D01*
X7038959Y108528332D01*
X7028164Y108498772D01*
X7028102Y108497210D01*
X7038349Y108498156D01*
X7063068Y108511881D01*
X7063754Y108512329D01*
X7135038Y108543446D01*
X7213780Y108552337D01*
X7265552Y108544613D01*
X7323116Y108528761D01*
X7251161Y108511777D01*
X7170054Y108486594D01*
X7099762Y108449563D01*
X7029457Y108394640D01*
X7010957Y108377731D01*
X6959328Y108321935D01*
X6906824Y108252549D01*
X6858896Y108178026D01*
X6820994Y108106818D01*
X6798998Y108049037D01*
X6779667Y108001119D01*
X6752020Y107958910D01*
X6746429Y107952847D01*
X6724389Y107924461D01*
X6721101Y107897512D01*
X6738245Y107866745D01*
X6777503Y107826903D01*
X6790365Y107815440D01*
X6843438Y107776941D01*
X6896797Y107758841D01*
X6961954Y107757708D01*
X6978590Y107759347D01*
X7016798Y107762643D01*
X7039635Y107762662D01*
X7042493Y107761492D01*
X7031120Y107752256D01*
X7003035Y107735893D01*
X6995722Y107732012D01*
X6942195Y107715290D01*
X6870060Y107708262D01*
X6787749Y107710765D01*
X6703695Y107722637D01*
X6640622Y107738849D01*
X6548156Y107768637D01*
X6500046Y107726396D01*
X6461726Y107697782D01*
X6425029Y107678109D01*
X6416223Y107675192D01*
X6389975Y107665365D01*
X6383240Y107650458D01*
X6396516Y107625342D01*
X6424353Y107591633D01*
X6485714Y107539332D01*
X6560390Y107508834D01*
X6651700Y107499056D01*
X6700975Y107501281D01*
X6758217Y107506895D01*
X6808470Y107513232D01*
X6840905Y107518926D01*
X6841020Y107518954D01*
X6876997Y107527890D01*
X6841057Y107498733D01*
X6774172Y107460537D01*
X6687459Y107435989D01*
X6587171Y107426560D01*
X6539317Y107427640D01*
X6432036Y107444052D01*
X6323881Y107481766D01*
X6212003Y107542221D01*
X6093551Y107626858D01*
X6015326Y107692315D01*
X5967993Y107729632D01*
X5910907Y107768848D01*
X5876827Y107789650D01*
X5807931Y107839604D01*
X5767223Y107894833D01*
X5754681Y107955565D01*
X5770282Y108022027D01*
X5814003Y108094446D01*
X5842736Y108128917D01*
X5880117Y108168436D01*
X5913320Y108199983D01*
X5934294Y108216152D01*
X5946848Y108220510D01*
X5949240Y108211791D01*
X5940888Y108185314D01*
X5925747Y108147396D01*
X5899885Y108072833D01*
X5892636Y108019386D01*
X5904101Y107986133D01*
X5934382Y107972151D01*
X5945142Y107971558D01*
X5967928Y107978105D01*
X6000468Y107999208D01*
X6045566Y108037064D01*
X6106029Y108093868D01*
X6124468Y108111870D01*
X6213026Y108201249D01*
X6284067Y108279010D01*
X6342703Y108351324D01*
X6394043Y108424362D01*
X6427519Y108477796D01*
X6476677Y108559501D01*
X6448644Y108664878D01*
X6434080Y108731941D01*
X6425220Y108805843D01*
X6421221Y108895217D01*
X6421039Y108918011D01*
X6725892Y108918011D01*
X6782807Y108969430D01*
X6828251Y109006082D01*
X6876813Y109038834D01*
X6895007Y109049054D01*
X6944997Y109070212D01*
X6996396Y109085751D01*
X7003977Y109087329D01*
X7041451Y109100619D01*
X7069430Y109121329D01*
X7081310Y109143243D01*
X7076711Y109155773D01*
X7071056Y109173089D01*
X7063874Y109210839D01*
X7056741Y109260694D01*
X7051608Y109364252D01*
X7058351Y109481160D01*
X7075654Y109599185D01*
X7102200Y109706097D01*
X7105892Y109717443D01*
X7140541Y109820793D01*
X7105210Y109777621D01*
X7027563Y109674541D01*
X6954078Y109561506D01*
X6887028Y109443334D01*
X6828687Y109324841D01*
X6781330Y109210847D01*
X6747230Y109106170D01*
X6728661Y109015627D01*
X6725892Y108973941D01*
X6725892Y108918011D01*
X6421039Y108918011D01*
X6420782Y108950142D01*
X6422121Y108973941D01*
X6430553Y109123797D01*
X6460927Y109286157D01*
X6514014Y109446596D01*
X6552340Y109534608D01*
X6576655Y109589123D01*
X6594152Y109633527D01*
X6602563Y109661752D01*
X6602342Y109668360D01*
X6587804Y109664518D01*
X6561825Y109642655D01*
X6529249Y109608483D01*
X6494917Y109567714D01*
X6463671Y109526059D01*
X6440355Y109489231D01*
X6430241Y109465347D01*
X6419800Y109417847D01*
X6405863Y109453825D01*
X6400286Y109486009D01*
X6398003Y109540806D01*
X6398726Y109612270D01*
X6402166Y109694454D01*
X6408035Y109781414D01*
X6416045Y109867204D01*
X6425907Y109945878D01*
X6431408Y109980493D01*
X6474749Y110174379D01*
X6534550Y110346845D01*
X6612536Y110501192D01*
X6710427Y110640722D01*
X6829948Y110768737D01*
X6854386Y110791258D01*
X6983545Y110922575D01*
X7089975Y111062106D01*
X7172888Y111207550D01*
X7231495Y111356602D01*
X7265005Y111506960D01*
X7272629Y111656322D01*
X7253579Y111802385D01*
X7229575Y111885893D01*
X7204549Y111962388D01*
X7191107Y112018476D01*
X7188726Y112059864D01*
X7196885Y112092257D01*
X7208804Y112112945D01*
X7241048Y112139157D01*
X7280096Y112141664D01*
X7321295Y112123166D01*
X7359991Y112086361D01*
X7391531Y112033948D01*
X7404068Y111999696D01*
X7412306Y111954191D01*
X7418275Y111883903D01*
X7421720Y111792761D01*
X7422497Y111713201D01*
X7420705Y111601729D01*
X7414247Y111505281D01*
X7401338Y111419068D01*
X7380194Y111338301D01*
X7349031Y111258191D01*
X7306065Y111173949D01*
X7249510Y111080786D01*
X7177582Y110973913D01*
X7113037Y110882664D01*
X7022226Y110752645D01*
X6949977Y110641037D01*
X6895280Y110545142D01*
X6857129Y110462265D01*
X6834515Y110389711D01*
X6826432Y110324782D01*
X6831870Y110264782D01*
X6849823Y110207017D01*
X6855578Y110193846D01*
X6888074Y110123003D01*
X6907271Y110212869D01*
X6948490Y110351516D01*
X7014918Y110501341D01*
X7105744Y110661221D01*
X7220158Y110830033D01*
X7357348Y111006654D01*
X7516503Y111189961D01*
X7696812Y111378830D01*
X7870892Y111547390D01*
X8009028Y111677711D01*
X8127041Y111791574D01*
X8226771Y111891128D01*
X8310055Y111978521D01*
X8378732Y112055900D01*
X8434640Y112125415D01*
X8479618Y112189211D01*
X8515503Y112249439D01*
X8544134Y112308244D01*
X8563341Y112356509D01*
X8591735Y112468437D01*
X8592866Y112574077D01*
X8579288Y112639747D01*
X8553416Y112692413D01*
X8508116Y112751001D01*
X8449908Y112808985D01*
X8385314Y112859839D01*
X8323286Y112895923D01*
X8280237Y112914410D01*
X8237655Y112928652D01*
X8190124Y112939559D01*
X8132231Y112948041D01*
X8058563Y112955007D01*
X7963706Y112961368D01*
X7918491Y112963954D01*
X7837231Y112968934D01*
X7778452Y112974188D01*
X7735868Y112980910D01*
X7703196Y112990289D01*
X7674148Y113003520D01*
X7655937Y113013748D01*
X7594715Y113060428D01*
X7560689Y113110078D01*
X7553022Y113159144D01*
X7570876Y113204073D01*
X7613413Y113241312D01*
X7679798Y113267309D01*
X7717357Y113274410D01*
X7794515Y113275334D01*
X7890475Y113260799D01*
G37*
D12*
%TO.C,C2*%
X51340000Y53662164D02*
X51340000Y53877836D01*
X52060000Y53662164D02*
X52060000Y53877836D01*
%TO.C,C55*%
X97985000Y59565580D02*
X97985000Y59284420D01*
X99005000Y59565580D02*
X99005000Y59284420D01*
D14*
%TO.C,D1*%
X7925000Y79340000D02*
G75*
G02*
X7825000Y79340000I-50000J0D01*
G01*
X7825000Y79340000D02*
G75*
G02*
X7925000Y79340000I50000J0D01*
G01*
D15*
%TO.C,J4*%
X50266699Y19221600D02*
X50266699Y15034540D01*
X52082040Y11373000D02*
X60617958Y11373000D01*
X52521960Y19221600D02*
X50266699Y19221600D01*
X54521958Y19221600D02*
X54178040Y19221600D01*
X56521960Y19221600D02*
X56178038Y19221600D01*
X58521958Y19221600D02*
X58178040Y19221600D01*
X62433299Y19221600D02*
X60178038Y19221600D01*
X62433299Y15034540D02*
X62433299Y19221600D01*
D17*
X50012699Y18750001D02*
G75*
G02*
X49250699Y18750001I-381000J0D01*
G01*
X49250699Y18750001D02*
G75*
G02*
X50012699Y18750001I381000J0D01*
G01*
D12*
%TO.C,C59*%
X62674664Y49947500D02*
X62890336Y49947500D01*
X62674664Y49227500D02*
X62890336Y49227500D01*
%TO.C,C31*%
X113190000Y84786252D02*
X113190000Y83363748D01*
X115010000Y84786252D02*
X115010000Y83363748D01*
%TO.C,R18*%
X121890000Y108257258D02*
X121890000Y107782742D01*
X122935000Y108257258D02*
X122935000Y107782742D01*
%TO.C,C10*%
X45677164Y72573442D02*
X45892836Y72573442D01*
X45677164Y71853442D02*
X45892836Y71853442D01*
%TO.C,C47*%
X31765000Y37583336D02*
X31765000Y37367664D01*
X32485000Y37583336D02*
X32485000Y37367664D01*
%TO.C,C34*%
X119713748Y90745000D02*
X121136252Y90745000D01*
X119713748Y88925000D02*
X121136252Y88925000D01*
%TO.C,R2*%
X38006359Y63580000D02*
X38313641Y63580000D01*
X38006359Y62820000D02*
X38313641Y62820000D01*
%TO.C,L2*%
X46270000Y106425000D02*
G75*
G02*
X39030000Y106425000I-3620000J0D01*
G01*
X39030000Y106425000D02*
G75*
G02*
X46270000Y106425000I3620000J0D01*
G01*
%TO.C,C53*%
X98190000Y13065580D02*
X98190000Y12784420D01*
X99210000Y13065580D02*
X99210000Y12784420D01*
%TO.C,J2*%
X28526526Y63600000D02*
X29161526Y63600000D01*
X28526526Y62965000D02*
X28526526Y63600000D01*
%TO.C,U2*%
X13375000Y81060000D02*
X17135000Y81060000D01*
X13375000Y74240000D02*
X17135000Y74240000D01*
X17135000Y81060000D02*
X17135000Y79800000D01*
X17135000Y74240000D02*
X17135000Y75500000D01*
X12095000Y80960000D02*
X11855000Y81290000D01*
X12335000Y81290000D01*
X12095000Y80960000D01*
G36*
X12095000Y80960000D02*
G01*
X11855000Y81290000D01*
X12335000Y81290000D01*
X12095000Y80960000D01*
G37*
D14*
%TO.C,Q6*%
X47750000Y91540000D02*
X47900000Y91540000D01*
X47750000Y88240000D02*
X47750000Y91540000D01*
X47900000Y88240000D02*
X47750000Y88240000D01*
D13*
X48300000Y87090000D02*
X48300000Y87090000D01*
X48500000Y87090000D02*
X48500000Y87090000D01*
D14*
X50900000Y88240000D02*
X51050000Y88240000D01*
X51050000Y91540000D02*
X50900000Y91540000D01*
X51050000Y88240000D02*
X51050000Y91540000D01*
D13*
X48300000Y87090000D02*
G75*
G02*
X48500000Y87090000I100000J0D01*
G01*
X48500000Y87090000D02*
G75*
G02*
X48300000Y87090000I-100000J0D01*
G01*
D12*
%TO.C,C39*%
X99404664Y108385000D02*
X99620336Y108385000D01*
X99404664Y107665000D02*
X99620336Y107665000D01*
%TO.C,R29*%
X98177500Y16237258D02*
X98177500Y15762742D01*
X99222500Y16237258D02*
X99222500Y15762742D01*
%TO.C,R32*%
X105670000Y43093641D02*
X105670000Y42786359D01*
X106430000Y43093641D02*
X106430000Y42786359D01*
D13*
%TO.C,IC1*%
X54050000Y55250000D02*
X55500000Y55250000D01*
X55850000Y55250000D02*
X58150000Y55250000D01*
X55850000Y52250000D02*
X55850000Y55250000D01*
X58150000Y55250000D02*
X58150000Y52250000D01*
X58150000Y52250000D02*
X55850000Y52250000D01*
D12*
%TO.C,C1*%
X37054664Y81025000D02*
X37270336Y81025000D01*
X37054664Y80305000D02*
X37270336Y80305000D01*
%TO.C,R15*%
X63993639Y18730001D02*
X63686357Y18730001D01*
X63993639Y17970001D02*
X63686357Y17970001D01*
%TO.C,R14*%
X55227500Y86237742D02*
X55227500Y86712258D01*
X56272500Y86237742D02*
X56272500Y86712258D01*
%TO.C,L3*%
X67970000Y107975000D02*
G75*
G02*
X60730000Y107975000I-3620000J0D01*
G01*
X60730000Y107975000D02*
G75*
G02*
X67970000Y107975000I3620000J0D01*
G01*
%TO.C,R12*%
X58820000Y81225759D02*
X58820000Y81533041D01*
X59580000Y81225759D02*
X59580000Y81533041D01*
%TO.C,C29*%
X117790000Y84786252D02*
X117790000Y83363748D01*
X119610000Y84786252D02*
X119610000Y83363748D01*
%TO.C,C14*%
X31377836Y68135000D02*
X31162164Y68135000D01*
X31377836Y67415000D02*
X31162164Y67415000D01*
%TO.C,C43*%
X113877500Y120722097D02*
X113877500Y121003257D01*
X114897500Y120722097D02*
X114897500Y121003257D01*
D14*
%TO.C,Q3*%
X99850000Y94755000D02*
X106000000Y94755000D01*
X99850000Y89435000D02*
X106000000Y89435000D01*
D13*
X106925000Y90190000D02*
X106925000Y90190000D01*
X107125000Y90190000D02*
X107125000Y90190000D01*
X106925000Y90190000D02*
G75*
G02*
X107125000Y90190000I100000J0D01*
G01*
X107125000Y90190000D02*
G75*
G02*
X106925000Y90190000I-100000J0D01*
G01*
%TD*%
M02*
