M48
; DRILL file {KiCad 8.0.4} date 2025-01-22T20:31:01-0800
; FORMAT={-:-/ absolute / metric / decimal}
; #@! TF.CreationDate,2025-01-22T20:31:01-08:00
; #@! TF.GenerationSoftware,Kicad,Pcbnew,8.0.4
; #@! TF.FileFunction,Plated,1,4,PTH
FMAT,2
METRIC
; #@! TA.AperFunction,Plated,PTH,ViaDrill
T1C0.200
; #@! TA.AperFunction,Plated,PTH,ComponentDrill
T2C0.600
; #@! TA.AperFunction,Plated,PTH,ComponentDrill
T3C1.000
; #@! TA.AperFunction,Plated,PTH,ComponentDrill
T4C1.016
; #@! TA.AperFunction,Plated,PTH,ComponentDrill
T5C1.020
; #@! TA.AperFunction,Plated,PTH,ComponentDrill
T6C1.300
; #@! TA.AperFunction,Plated,PTH,ComponentDrill
T7C1.320
%
G90
G05
T1
X1.175Y81.475
X1.2Y79.875
X1.225Y84.675
X1.225Y83.125
X1.25Y86.375
X1.6Y85.575
X1.6Y80.65
X1.625Y82.275
X1.675Y83.925
X2.025Y81.475
X2.05Y79.875
X2.075Y84.675
X2.075Y83.125
X2.1Y86.375
X2.45Y85.575
X2.45Y80.65
X2.475Y82.275
X2.525Y83.925
X2.95Y81.375
X2.95Y79.75
X2.975Y84.675
X2.975Y83.075
X3.0Y86.375
X3.275Y78.775
X3.3Y87.475
X3.325Y83.9
X3.325Y82.225
X3.375Y85.6
X3.375Y80.55
X3.8Y81.375
X3.8Y79.75
X3.825Y84.675
X3.825Y83.075
X3.85Y86.375
X4.125Y78.775
X4.15Y87.475
X4.175Y83.9
X4.175Y82.225
X4.225Y85.6
X4.225Y80.55
X7.775Y33.9
X7.8Y34.95
X8.1Y93.045
X8.475Y33.9
X8.5Y34.95
X8.775Y82.15
X9.175Y90.2
X9.325Y91.7
X9.335Y92.825
X9.725Y89.5
X9.747Y84.715
X9.747Y79.515
X10.135Y92.825
X10.175Y91.7
X10.275Y90.2
X11.075Y82.15
X11.375Y90.2
X11.425Y89.15
X11.725Y84.95
X11.8Y91.925
X12.225Y90.2
X12.225Y89.15
X12.65Y91.925
X13.075Y90.2
X13.075Y89.15
X14.025Y89.7
X14.685Y85.325
X14.685Y84.525
X14.875Y90.1
X14.875Y89.25
X15.725Y89.65
X16.525Y90.1
X16.525Y89.15
X16.65Y30.15
X16.65Y29.375
X17.375Y30.15
X17.375Y29.375
X17.975Y89.75
X17.975Y88.55
X18.025Y91.1
X18.075Y30.15
X18.075Y29.375
X18.525Y90.4
X18.525Y89.15
X18.525Y87.95
X18.85Y30.175
X18.85Y29.325
X19.025Y91.1
X19.125Y89.75
X19.125Y88.55
X19.175Y34.43
X19.195Y33.331
X22.115Y76.265
X23.035Y77.185
X25.134Y38.335
X26.359Y38.315
X26.55Y33.45
X26.575Y32.075
X27.075Y32.775
X27.128Y29.788
X27.15Y81.3
X27.159Y38.34
X27.672Y29.788
X27.675Y33.45
X27.675Y32.075
X28.175Y83.225
X28.225Y32.775
X28.475Y74.965
X28.475Y72.4
X28.725Y32.075
X28.8Y33.425
X29.375Y32.775
X29.5Y69.2
X29.9Y32.075
X29.94Y79.715
X29.95Y33.4
X30.325Y36.597
X30.425Y32.725
X30.8Y81.0
X30.875Y32.05
X30.925Y33.4
X31.1Y68.1
X31.1Y67.15
X31.1Y66.2
X31.9Y79.75
X31.95Y59.9
X32.025Y61.625
X32.2Y90.55
X32.205Y91.475
X32.29Y38.331
X32.328Y29.788
X32.478Y73.472
X33.3Y61.65
X33.3Y59.95
X33.315Y74.31
X33.35Y78.6
X33.65Y83.912
X33.8Y97.8
X34.45Y84.587
X34.5Y76.35
X34.69Y80.4
X35.575Y94.02
X35.65Y81.2
X36.1Y67.3
X36.1Y66.45
X36.65Y80.35
X36.75Y75.2
X36.875Y61.675
X36.875Y42.8
X37.13Y97.835
X37.13Y96.185
X37.175Y91.775
X37.65Y77.65
X37.7Y31.575
X37.75Y75.2
X37.775Y61.7
X37.808Y42.786
X38.675Y30.05
X38.782Y93.8
X38.802Y92.685
X38.845Y76.18
X38.925Y83.225
X39.325Y30.05
X39.65Y91.75
X39.65Y85.3
X39.75Y67.25
X39.75Y66.5
X40.225Y83.106
X40.225Y82.106
X41.15Y88.85
X41.233Y83.937
X41.245Y76.255
X41.307Y73.907
X42.085Y83.085
X42.15Y77.25
X43.721Y90.971
X43.95Y59.75
X43.955Y76.33
X44.05Y107.7
X44.75Y107.7
X44.975Y85.75
X45.3Y88.4
X45.4Y81.88
X45.45Y79.55
X46.28Y87.435
X46.448Y85.135
X46.6Y78.65
X47.4Y78.65
X49.05Y60.8
X49.05Y59.4
X49.45Y60.05
X49.45Y58.75
X49.5Y100.3
X49.8Y60.8
X49.85Y59.4
X50.25Y100.3
X50.375Y85.75
X50.73Y80.685
X51.85Y65.29
X53.175Y91.22
X53.4Y101.2
X53.875Y80.1
X55.047Y21.823
X55.05Y78.8
X55.05Y69.85
X55.5Y20.425
X55.5Y19.625
X55.5Y18.825
X55.5Y18.025
X55.704Y103.496
X56.475Y64.575
X56.632Y66.482
X56.642Y65.517
X56.825Y69.85
X57.0Y21.875
X57.5Y20.225
X57.5Y19.125
X57.5Y18.075
X58.125Y66.6
X58.725Y101.025
X59.375Y91.925
X59.579Y107.371
X60.65Y108.45
X61.976Y90.775
X62.2Y62.825
X62.9Y68.325
X63.5Y18.725
X63.725Y62.85
X65.75Y110.9
X65.975Y54.8
X66.45Y110.9
X66.5Y67.2
X66.5Y64.4
X66.575Y88.575
X67.05Y14.05
X67.075Y14.875
X67.162Y86.912
X67.75Y13.25
X67.775Y15.575
X68.575Y13.25
X68.675Y15.575
X69.425Y14.025
X69.45Y14.85
X70.517Y52.885
X70.8Y54.8
X71.438Y76.215
X72.3Y103.7
X73.05Y103.7
X74.4Y74.525
X74.9Y15.1
X74.9Y12.075
X76.0Y74.175
X76.0Y72.7
X76.325Y37.58
X76.325Y29.755
X77.19Y12.625
X78.85Y13.325
X78.875Y15.4
X78.875Y14.375
X79.602Y25.505
X79.725Y15.4
X79.725Y14.375
X79.725Y13.325
X80.403Y25.505
X80.587Y34.0
X80.975Y78.975
X81.409Y16.65
X81.925Y25.505
X82.725Y25.505
X83.125Y47.855
X84.125Y42.655
X84.225Y25.505
X84.587Y65.66
X84.736Y48.216
X84.769Y49.065
X84.8Y46.175
X85.025Y25.505
X85.05Y73.5
X85.388Y65.66
X85.478Y90.052
X86.1Y74.8
X86.102Y78.395
X86.525Y25.505
X87.325Y25.505
X87.587Y65.61
X87.912Y62.968
X88.375Y42.03
X88.388Y65.61
X88.4Y45.955
X88.475Y44.58
X88.475Y43.105
X88.825Y25.505
X89.275Y45.33
X89.3Y42.48
X89.312Y44.0
X89.475Y35.04
X89.625Y25.505
X90.175Y44.605
X90.175Y43.105
X90.2Y45.955
X90.25Y42.005
X90.625Y47.88
X92.237Y45.325
X92.425Y35.405
X92.425Y34.705
X92.425Y33.105
X92.425Y32.405
X92.425Y30.805
X92.425Y30.105
X92.487Y66.56
X92.487Y65.76
X92.938Y51.75
X93.688Y64.51
X93.737Y67.96
X93.925Y47.905
X94.052Y43.277
X94.325Y41.305
X94.487Y64.51
X94.537Y67.96
X95.2Y40.355
X95.625Y42.905
X95.725Y16.435
X95.725Y15.675
X95.787Y66.71
X95.787Y65.91
X95.925Y40.355
X97.225Y44.105
X97.3Y13.025
X97.8Y37.48
X97.8Y36.705
X98.06Y13.025
T3
X77.642Y88.615
X82.642Y88.615
X87.15Y135.0
X87.15Y130.0
T4
X9.31Y15.112
X11.85Y15.112
X65.66Y14.425
X68.2Y14.425
T5
X21.5Y13.712
X24.5Y13.712
X40.4Y13.71
X43.4Y13.71
T6
X42.8Y119.925
X42.8Y116.925
X64.5Y121.475
X64.5Y118.475
X70.478Y88.645
X73.478Y88.645
T7
X50.15Y134.0
X55.15Y134.0
X73.377Y64.485
X78.377Y64.485
T2
G00X2.007Y87.47
M15
G01X1.407Y87.47
M16
G05
G00X2.007Y78.83
M15
G01X1.407Y78.83
M16
G05
G00X6.438Y87.47
M15
G01X5.337Y87.47
M16
G05
G00X6.438Y78.83
M15
G01X5.337Y78.83
M16
G05
M30
