%TF.GenerationSoftware,KiCad,Pcbnew,8.0.4*%
%TF.CreationDate,2025-02-13T17:33:46-08:00*%
%TF.ProjectId,acdc_stimulator,61636463-5f73-4746-996d-756c61746f72,rev?*%
%TF.SameCoordinates,PX1ab3f00PYac9d740*%
%TF.FileFunction,Soldermask,Top*%
%TF.FilePolarity,Negative*%
%FSLAX46Y46*%
G04 Gerber Fmt 4.6, Leading zero omitted, Abs format (unit mm)*
G04 Created by KiCad (PCBNEW 8.0.4) date 2025-02-13 17:33:46*
%MOMM*%
%LPD*%
G01*
G04 APERTURE LIST*
G04 Aperture macros list*
%AMRoundRect*
0 Rectangle with rounded corners*
0 $1 Rounding radius*
0 $2 $3 $4 $5 $6 $7 $8 $9 X,Y pos of 4 corners*
0 Add a 4 corners polygon primitive as box body*
4,1,4,$2,$3,$4,$5,$6,$7,$8,$9,$2,$3,0*
0 Add four circle primitives for the rounded corners*
1,1,$1+$1,$2,$3*
1,1,$1+$1,$4,$5*
1,1,$1+$1,$6,$7*
1,1,$1+$1,$8,$9*
0 Add four rect primitives between the rounded corners*
20,1,$1+$1,$2,$3,$4,$5,0*
20,1,$1+$1,$4,$5,$6,$7,0*
20,1,$1+$1,$6,$7,$8,$9,0*
20,1,$1+$1,$8,$9,$2,$3,0*%
%AMFreePoly0*
4,1,7,0.508000,-1.511300,-0.101600,-1.511300,-0.101600,-0.190500,-0.508000,-0.190500,-0.508000,0.190500,0.508000,0.190500,0.508000,-1.511300,0.508000,-1.511300,$1*%
%AMFreePoly1*
4,1,9,-0.101600,0.190500,0.508000,0.190500,0.508000,-0.190500,-0.101600,-0.190500,-0.101600,-2.184400,-2.006600,-2.184400,-2.006600,0.203200,-0.101600,0.203200,-0.101600,0.190500,-0.101600,0.190500,$1*%
G04 Aperture macros list end*
%ADD10R,1.000000X0.340000*%
%ADD11R,0.500000X0.340000*%
%ADD12R,0.800000X0.340000*%
%ADD13R,1.710000X2.290000*%
%ADD14R,0.340000X1.000000*%
%ADD15R,0.340000X0.500000*%
%ADD16R,0.340000X0.800000*%
%ADD17R,2.290000X1.710000*%
%ADD18R,6.500000X3.050000*%
%ADD19R,0.450000X1.200000*%
%ADD20R,2.350000X1.550000*%
%ADD21R,1.450000X0.300000*%
%ADD22R,2.740000X4.750000*%
%ADD23RoundRect,0.140000X-0.170000X0.140000X-0.170000X-0.140000X0.170000X-0.140000X0.170000X0.140000X0*%
%ADD24RoundRect,0.140000X-0.140000X-0.170000X0.140000X-0.170000X0.140000X0.170000X-0.140000X0.170000X0*%
%ADD25C,1.270000*%
%ADD26C,1.734000*%
%ADD27RoundRect,0.200000X0.275000X-0.200000X0.275000X0.200000X-0.275000X0.200000X-0.275000X-0.200000X0*%
%ADD28RoundRect,0.135000X-0.135000X-0.185000X0.135000X-0.185000X0.135000X0.185000X-0.135000X0.185000X0*%
%ADD29R,1.350000X4.600000*%
%ADD30R,10.800000X9.400000*%
%ADD31RoundRect,0.250000X1.000000X-1.750000X1.000000X1.750000X-1.000000X1.750000X-1.000000X-1.750000X0*%
%ADD32RoundRect,0.250000X-0.650000X0.325000X-0.650000X-0.325000X0.650000X-0.325000X0.650000X0.325000X0*%
%ADD33RoundRect,0.250000X-0.550000X1.250000X-0.550000X-1.250000X0.550000X-1.250000X0.550000X1.250000X0*%
%ADD34RoundRect,0.135000X-0.185000X0.135000X-0.185000X-0.135000X0.185000X-0.135000X0.185000X0.135000X0*%
%ADD35RoundRect,0.200000X-0.275000X0.200000X-0.275000X-0.200000X0.275000X-0.200000X0.275000X0.200000X0*%
%ADD36C,2.700000*%
%ADD37RoundRect,0.075000X0.700000X0.075000X-0.700000X0.075000X-0.700000X-0.075000X0.700000X-0.075000X0*%
%ADD38RoundRect,0.075000X0.075000X0.700000X-0.075000X0.700000X-0.075000X-0.700000X0.075000X-0.700000X0*%
%ADD39RoundRect,0.250000X-0.325000X-0.650000X0.325000X-0.650000X0.325000X0.650000X-0.325000X0.650000X0*%
%ADD40RoundRect,0.140000X0.170000X-0.140000X0.170000X0.140000X-0.170000X0.140000X-0.170000X-0.140000X0*%
%ADD41RoundRect,0.100000X-0.100000X0.130000X-0.100000X-0.130000X0.100000X-0.130000X0.100000X0.130000X0*%
%ADD42RoundRect,0.100000X-0.100000X0.120000X-0.100000X-0.120000X0.100000X-0.120000X0.100000X0.120000X0*%
%ADD43RoundRect,0.250000X-0.312500X-0.625000X0.312500X-0.625000X0.312500X0.625000X-0.312500X0.625000X0*%
%ADD44RoundRect,0.250000X-0.262500X-0.450000X0.262500X-0.450000X0.262500X0.450000X-0.262500X0.450000X0*%
%ADD45RoundRect,0.100000X0.100000X-0.130000X0.100000X0.130000X-0.100000X0.130000X-0.100000X-0.130000X0*%
%ADD46RoundRect,0.140000X0.140000X0.170000X-0.140000X0.170000X-0.140000X-0.170000X0.140000X-0.170000X0*%
%ADD47R,1.980000X3.960000*%
%ADD48O,1.980000X3.960000*%
%ADD49FreePoly0,270.000000*%
%ADD50R,0.381000X1.016000*%
%ADD51FreePoly1,270.000000*%
%ADD52RoundRect,0.250000X0.250000X0.475000X-0.250000X0.475000X-0.250000X-0.475000X0.250000X-0.475000X0*%
%ADD53RoundRect,0.135000X0.185000X-0.135000X0.185000X0.135000X-0.185000X0.135000X-0.185000X-0.135000X0*%
%ADD54RoundRect,0.250000X-0.250000X-0.475000X0.250000X-0.475000X0.250000X0.475000X-0.250000X0.475000X0*%
%ADD55R,1.500000X2.400000*%
%ADD56R,1.400000X1.200000*%
%ADD57RoundRect,0.218750X-0.218750X-0.256250X0.218750X-0.256250X0.218750X0.256250X-0.218750X0.256250X0*%
%ADD58R,1.000000X0.800000*%
%ADD59C,0.900000*%
%ADD60R,0.700000X1.500000*%
%ADD61RoundRect,0.250000X0.450000X-0.262500X0.450000X0.262500X-0.450000X0.262500X-0.450000X-0.262500X0*%
%ADD62C,1.524000*%
%ADD63RoundRect,0.250000X0.625000X-0.312500X0.625000X0.312500X-0.625000X0.312500X-0.625000X-0.312500X0*%
%ADD64RoundRect,0.135000X0.135000X0.185000X-0.135000X0.185000X-0.135000X-0.185000X0.135000X-0.185000X0*%
%ADD65RoundRect,0.225000X0.250000X-0.225000X0.250000X0.225000X-0.250000X0.225000X-0.250000X-0.225000X0*%
%ADD66RoundRect,0.100000X-0.130000X-0.100000X0.130000X-0.100000X0.130000X0.100000X-0.130000X0.100000X0*%
%ADD67R,0.889000X0.305000*%
%ADD68R,1.651000X2.845000*%
%ADD69RoundRect,0.150000X-0.512500X-0.150000X0.512500X-0.150000X0.512500X0.150000X-0.512500X0.150000X0*%
%ADD70R,1.000000X0.900000*%
%ADD71C,2.000000*%
%ADD72RoundRect,0.250000X0.475000X-0.250000X0.475000X0.250000X-0.475000X0.250000X-0.475000X-0.250000X0*%
%ADD73R,0.355600X1.473200*%
%ADD74R,5.283200X2.413000*%
%ADD75RoundRect,0.218750X0.256250X-0.218750X0.256250X0.218750X-0.256250X0.218750X-0.256250X-0.218750X0*%
%ADD76RoundRect,0.375000X-0.375000X0.625000X-0.375000X-0.625000X0.375000X-0.625000X0.375000X0.625000X0*%
%ADD77RoundRect,0.500000X-1.400000X0.500000X-1.400000X-0.500000X1.400000X-0.500000X1.400000X0.500000X0*%
%ADD78RoundRect,0.225000X-0.225000X-0.250000X0.225000X-0.250000X0.225000X0.250000X-0.225000X0.250000X0*%
%ADD79R,1.473200X0.355600*%
%ADD80C,2.600000*%
%ADD81C,0.650000*%
%ADD82R,1.150000X0.300000*%
%ADD83O,2.100000X1.000000*%
%ADD84O,1.600000X1.000000*%
%ADD85RoundRect,0.250000X0.262500X0.450000X-0.262500X0.450000X-0.262500X-0.450000X0.262500X-0.450000X0*%
%ADD86RoundRect,0.250000X0.312500X0.625000X-0.312500X0.625000X-0.312500X-0.625000X0.312500X-0.625000X0*%
%ADD87R,2.200000X1.200000*%
%ADD88R,6.400000X5.800000*%
%ADD89RoundRect,0.100000X0.130000X0.100000X-0.130000X0.100000X-0.130000X-0.100000X0.130000X-0.100000X0*%
%ADD90RoundRect,0.250000X0.650000X-0.325000X0.650000X0.325000X-0.650000X0.325000X-0.650000X-0.325000X0*%
%ADD91RoundRect,0.250000X1.250000X0.550000X-1.250000X0.550000X-1.250000X-0.550000X1.250000X-0.550000X0*%
%ADD92R,0.925000X0.500000*%
%ADD93R,0.800000X0.600000*%
%ADD94R,3.655000X4.410000*%
%ADD95RoundRect,0.147500X-0.172500X0.147500X-0.172500X-0.147500X0.172500X-0.147500X0.172500X0.147500X0*%
%ADD96R,0.990600X3.505200*%
%ADD97R,1.498600X3.403600*%
%ADD98RoundRect,0.225000X-0.250000X0.225000X-0.250000X-0.225000X0.250000X-0.225000X0.250000X0.225000X0*%
%ADD99C,0.990600*%
%ADD100C,0.787400*%
%ADD101RoundRect,0.375000X-0.625000X-0.375000X0.625000X-0.375000X0.625000X0.375000X-0.625000X0.375000X0*%
%ADD102RoundRect,0.500000X-0.500000X-1.400000X0.500000X-1.400000X0.500000X1.400000X-0.500000X1.400000X0*%
G04 APERTURE END LIST*
D10*
%TO.C,Q1*%
X86102500Y78549640D03*
X86102500Y79199640D03*
D11*
X85852500Y78874640D03*
D10*
X86102500Y79849640D03*
D11*
X85852500Y79524640D03*
D10*
X86102500Y80499640D03*
D12*
X83112500Y78549640D03*
X83112500Y79199640D03*
X83112500Y79849640D03*
D13*
X84362500Y79524640D03*
D12*
X83112500Y80499640D03*
%TD*%
D14*
%TO.C,Q11*%
X71375000Y103895000D03*
X72025000Y103895000D03*
D15*
X71700000Y104145000D03*
D14*
X72675000Y103895000D03*
D15*
X72350000Y104145000D03*
D14*
X73325000Y103895000D03*
D16*
X71375000Y106885000D03*
X72025000Y106885000D03*
X72675000Y106885000D03*
D17*
X72350000Y105635000D03*
D16*
X73325000Y106885000D03*
%TD*%
D14*
%TO.C,Q6*%
X48575000Y100505000D03*
X49225000Y100505000D03*
D15*
X48900000Y100755000D03*
D14*
X49875000Y100505000D03*
D15*
X49550000Y100755000D03*
D14*
X50525000Y100505000D03*
D16*
X48575000Y103495000D03*
X49225000Y103495000D03*
X49875000Y103495000D03*
D17*
X49550000Y102245000D03*
D16*
X50525000Y103495000D03*
%TD*%
D14*
%TO.C,Q10*%
X64775000Y111095000D03*
X65425000Y111095000D03*
D15*
X65100000Y111345000D03*
D14*
X66075000Y111095000D03*
D15*
X65750000Y111345000D03*
D14*
X66725000Y111095000D03*
D16*
X64775000Y114085000D03*
X65425000Y114085000D03*
X66075000Y114085000D03*
D17*
X65750000Y112835000D03*
D16*
X66725000Y114085000D03*
%TD*%
D14*
%TO.C,Q7*%
X43075000Y107815000D03*
X43725000Y107815000D03*
D15*
X43400000Y108065000D03*
D14*
X44375000Y107815000D03*
D15*
X44050000Y108065000D03*
D14*
X45025000Y107815000D03*
D16*
X43075000Y110805000D03*
X43725000Y110805000D03*
X44375000Y110805000D03*
D17*
X44050000Y109555000D03*
D16*
X45025000Y110805000D03*
%TD*%
D18*
%TO.C,L8*%
X87400000Y13125000D03*
X87400000Y19325000D03*
%TD*%
D19*
%TO.C,IC7*%
X62012500Y64487500D03*
X62662500Y64487500D03*
X63312500Y64487500D03*
X63962500Y64487500D03*
X63962500Y66987500D03*
X63312500Y66987500D03*
X62662500Y66987500D03*
X62012500Y66987500D03*
%TD*%
D20*
%TO.C,D5*%
X93350000Y13075000D03*
X97650000Y13075000D03*
%TD*%
D21*
%TO.C,IC3*%
X92237500Y39500000D03*
X92237500Y40000000D03*
X92237500Y40500000D03*
X92237500Y41000000D03*
X92237500Y41500000D03*
X92237500Y42000000D03*
X92237500Y42500000D03*
X92237500Y43000000D03*
X92237500Y43500000D03*
X92237500Y44000000D03*
X92237500Y44500000D03*
X92237500Y45000000D03*
X92237500Y45500000D03*
X92237500Y46000000D03*
X92237500Y46500000D03*
X92237500Y47000000D03*
X92237500Y47500000D03*
X92237500Y48000000D03*
X92237500Y48500000D03*
X86387500Y48500000D03*
X86387500Y48000000D03*
X86387500Y47500000D03*
X86387500Y47000000D03*
X86387500Y46500000D03*
X86387500Y46000000D03*
X86387500Y45500000D03*
X86387500Y45000000D03*
X86387500Y44500000D03*
X86387500Y44000000D03*
X86387500Y43500000D03*
X86387500Y43000000D03*
X86387500Y42500000D03*
X86387500Y42000000D03*
X86387500Y41500000D03*
X86387500Y41000000D03*
X86387500Y40500000D03*
X86387500Y40000000D03*
X86387500Y39500000D03*
D22*
X89312500Y44000000D03*
%TD*%
D23*
%TO.C,C27*%
X84737500Y40400000D03*
X84737500Y39440000D03*
%TD*%
D24*
%TO.C,C42*%
X69557500Y52900000D03*
X70517500Y52900000D03*
%TD*%
D25*
%TO.C,J9*%
X27499999Y15672300D03*
X18499999Y15672300D03*
D26*
X21499999Y13712300D03*
X24499999Y13712300D03*
%TD*%
D27*
%TO.C,R17*%
X95587500Y47000000D03*
X95587500Y48650000D03*
%TD*%
D28*
%TO.C,R1*%
X35700000Y75200000D03*
X36720000Y75200000D03*
%TD*%
D29*
%TO.C,Q9*%
X72600000Y111850000D03*
D30*
X75150000Y121000000D03*
D29*
X77700000Y111850000D03*
%TD*%
D28*
%TO.C,R3*%
X39730000Y68760000D03*
X40750000Y68760000D03*
%TD*%
D31*
%TO.C,C38*%
X94112500Y57250000D03*
X94112500Y65250000D03*
%TD*%
D32*
%TO.C,C33*%
X80005000Y28455000D03*
X80005000Y25505000D03*
%TD*%
D33*
%TO.C,C3*%
X49450000Y64150000D03*
X49450000Y59750000D03*
%TD*%
D34*
%TO.C,R7*%
X71081900Y79430000D03*
X71081900Y78410000D03*
%TD*%
D35*
%TO.C,R28*%
X82150000Y19825000D03*
X82150000Y18175000D03*
%TD*%
D36*
%TO.C,H3*%
X104000000Y136000000D03*
%TD*%
D32*
%TO.C,C30*%
X86925000Y28455000D03*
X86925000Y25505000D03*
%TD*%
D37*
%TO.C,U1*%
X43575000Y80925000D03*
X43575000Y81425000D03*
X43575000Y81925000D03*
X43575000Y82425000D03*
X43575000Y82925000D03*
X43575000Y83425000D03*
X43575000Y83925000D03*
X43575000Y84425000D03*
X43575000Y84925000D03*
X43575000Y85425000D03*
X43575000Y85925000D03*
X43575000Y86425000D03*
X43575000Y86925000D03*
X43575000Y87425000D03*
X43575000Y87925000D03*
X43575000Y88425000D03*
D38*
X41650000Y90350000D03*
X41150000Y90350000D03*
X40650000Y90350000D03*
X40150000Y90350000D03*
X39650000Y90350000D03*
X39150000Y90350000D03*
X38650000Y90350000D03*
X38150000Y90350000D03*
X37650000Y90350000D03*
X37150000Y90350000D03*
X36650000Y90350000D03*
X36150000Y90350000D03*
X35650000Y90350000D03*
X35150000Y90350000D03*
X34650000Y90350000D03*
X34150000Y90350000D03*
D37*
X32225000Y88425000D03*
X32225000Y87925000D03*
X32225000Y87425000D03*
X32225000Y86925000D03*
X32225000Y86425000D03*
X32225000Y85925000D03*
X32225000Y85425000D03*
X32225000Y84925000D03*
X32225000Y84425000D03*
X32225000Y83925000D03*
X32225000Y83425000D03*
X32225000Y82925000D03*
X32225000Y82425000D03*
X32225000Y81925000D03*
X32225000Y81425000D03*
X32225000Y80925000D03*
D38*
X34150000Y79000000D03*
X34650000Y79000000D03*
X35150000Y79000000D03*
X35650000Y79000000D03*
X36150000Y79000000D03*
X36650000Y79000000D03*
X37150000Y79000000D03*
X37650000Y79000000D03*
X38150000Y79000000D03*
X38650000Y79000000D03*
X39150000Y79000000D03*
X39650000Y79000000D03*
X40150000Y79000000D03*
X40650000Y79000000D03*
X41150000Y79000000D03*
X41650000Y79000000D03*
%TD*%
D39*
%TO.C,C54*%
X92750000Y16025000D03*
X95700000Y16025000D03*
%TD*%
D40*
%TO.C,C13*%
X33150000Y90550000D03*
X33150000Y91510000D03*
%TD*%
D41*
%TO.C,R27*%
X25150000Y38250500D03*
D42*
X25150000Y37590500D03*
%TD*%
D24*
%TO.C,C20*%
X35200000Y97775000D03*
X36160000Y97775000D03*
%TD*%
D43*
%TO.C,R20*%
X97800000Y39555000D03*
X100725000Y39555000D03*
%TD*%
D44*
%TO.C,R10*%
X77850000Y81924640D03*
X79675000Y81924640D03*
%TD*%
D45*
%TO.C,C6*%
X52850000Y66410000D03*
X52850000Y67050000D03*
%TD*%
D46*
%TO.C,C15*%
X42150000Y77250000D03*
X41190000Y77250000D03*
%TD*%
D40*
%TO.C,C26*%
X84737500Y47300000D03*
X84737500Y48260000D03*
%TD*%
D47*
%TO.C,J1*%
X73377500Y64485000D03*
D48*
X78377500Y64485000D03*
%TD*%
D49*
%TO.C,MOSFET1*%
X39656200Y29827700D03*
D50*
X38995800Y29827700D03*
X38335400Y29827700D03*
X37675000Y29827700D03*
X37675000Y26830500D03*
X38335400Y26830500D03*
X38995800Y26830500D03*
D51*
X39656200Y26830500D03*
%TD*%
D40*
%TO.C,C4*%
X52850000Y64350000D03*
X52850000Y65310000D03*
%TD*%
D24*
%TO.C,C44*%
X69577500Y48600000D03*
X70537500Y48600000D03*
%TD*%
D52*
%TO.C,C45*%
X99075000Y46655000D03*
X97175000Y46655000D03*
%TD*%
D32*
%TO.C,C32*%
X82325000Y28455000D03*
X82325000Y25505000D03*
%TD*%
D53*
%TO.C,R21*%
X97225000Y44105000D03*
X97225000Y45125000D03*
%TD*%
D44*
%TO.C,R9*%
X74325000Y81924640D03*
X76150000Y81924640D03*
%TD*%
D54*
%TO.C,C16*%
X11725000Y84950000D03*
X13625000Y84950000D03*
%TD*%
D24*
%TO.C,C5*%
X36852500Y93765000D03*
X37812500Y93765000D03*
%TD*%
D55*
%TO.C,L4*%
X86887500Y34000000D03*
X80587500Y34000000D03*
%TD*%
D56*
%TO.C,Y1*%
X49400000Y82325000D03*
X51600000Y82325000D03*
X51600000Y84025000D03*
X49400000Y84025000D03*
%TD*%
D57*
%TO.C,F1*%
X8512500Y86350000D03*
X10087500Y86350000D03*
%TD*%
D40*
%TO.C,C9*%
X45400000Y81015000D03*
X45400000Y81975000D03*
%TD*%
D39*
%TO.C,C35*%
X89475000Y30440000D03*
X92425000Y30440000D03*
%TD*%
D58*
%TO.C,SW2*%
X33850000Y66210000D03*
X33850000Y64000000D03*
D59*
X36000000Y65100000D03*
X39000000Y65100000D03*
D58*
X41150000Y66210000D03*
X41150000Y64000000D03*
D60*
X35250000Y66860000D03*
X38250000Y66860000D03*
X39750000Y66860000D03*
%TD*%
D61*
%TO.C,R13*%
X85478100Y88227500D03*
X85478100Y90052500D03*
%TD*%
D28*
%TO.C,R4*%
X7105000Y92050000D03*
X8125000Y92050000D03*
%TD*%
D62*
%TO.C,J7*%
X9309998Y15112300D03*
X11849998Y15112300D03*
%TD*%
D46*
%TO.C,C51*%
X31000000Y27375000D03*
X30040000Y27375000D03*
%TD*%
D36*
%TO.C,H4*%
X104000000Y6375000D03*
%TD*%
D63*
%TO.C,R16*%
X95550000Y37442500D03*
X95550000Y40367500D03*
%TD*%
D64*
%TO.C,R23*%
X76675000Y107785000D03*
X75655000Y107785000D03*
%TD*%
D65*
%TO.C,C40*%
X87912500Y62967677D03*
X87912500Y64517677D03*
%TD*%
D66*
%TO.C,R6*%
X8992500Y79550000D03*
X9632500Y79550000D03*
%TD*%
D67*
%TO.C,IC4*%
X81400000Y12625000D03*
X81400000Y13625000D03*
X81400000Y14625000D03*
X81400000Y15125000D03*
X81400000Y15625000D03*
X81400000Y16125000D03*
X77190000Y16125000D03*
X77190000Y15625000D03*
X77190000Y15125000D03*
X77190000Y14625000D03*
X77190000Y13625000D03*
X77190000Y12625000D03*
D68*
X79295000Y14375000D03*
%TD*%
D25*
%TO.C,J8*%
X46399999Y15669500D03*
X37399999Y15669500D03*
D26*
X40399999Y13709500D03*
X43399999Y13709500D03*
%TD*%
D69*
%TO.C,U3*%
X8787500Y83100000D03*
X8787500Y82150000D03*
X8787500Y81200000D03*
X11062500Y81200000D03*
X11062500Y82150000D03*
X11062500Y83100000D03*
%TD*%
D39*
%TO.C,C37*%
X89475000Y35040000D03*
X92425000Y35040000D03*
%TD*%
D70*
%TO.C,SW1*%
X31100000Y69200000D03*
X31100000Y65100000D03*
X29500000Y69200000D03*
X29500000Y65100000D03*
%TD*%
D71*
%TO.C,C24*%
X82641900Y88615000D03*
X77641900Y88615000D03*
%TD*%
D72*
%TO.C,C41*%
X95625000Y42905000D03*
X95625000Y44805000D03*
%TD*%
D73*
%TO.C,U7*%
X32274997Y35630500D03*
X31624998Y35630500D03*
X30975000Y35630500D03*
X30324999Y35630500D03*
X29675000Y35630500D03*
X29024999Y35630500D03*
X28375000Y35630500D03*
X27724999Y35630500D03*
X27075000Y35630500D03*
X26424999Y35630500D03*
X25775000Y35630500D03*
X25124999Y35630500D03*
X25124999Y29788500D03*
X25774998Y29788500D03*
X26424999Y29788500D03*
X27074997Y29788500D03*
X27724999Y29788500D03*
X28374997Y29788500D03*
X29024996Y29788500D03*
X29674997Y29788500D03*
X30324996Y29788500D03*
X30974997Y29788500D03*
X31624996Y29788500D03*
D74*
X28699998Y32709500D03*
D73*
X32274997Y29788500D03*
%TD*%
%TO.C,U4*%
X57424160Y96630600D03*
X58074400Y96630600D03*
X58724640Y96630600D03*
X59374880Y96630600D03*
X60025120Y96630600D03*
X60675360Y96630600D03*
X61325600Y96630600D03*
X61975840Y96630600D03*
X61975840Y102269400D03*
X61325600Y102269400D03*
X60675360Y102269400D03*
X60025120Y102269400D03*
X59374880Y102269400D03*
X58724640Y102269400D03*
X58074400Y102269400D03*
X57424160Y102269400D03*
%TD*%
D75*
%TO.C,FB1*%
X33800000Y96200000D03*
X33800000Y97775000D03*
%TD*%
D76*
%TO.C,Q2*%
X12724999Y34380500D03*
X10424999Y34380500D03*
D77*
X10424999Y28080500D03*
D76*
X8124999Y34380500D03*
%TD*%
D78*
%TO.C,C8*%
X45450000Y79575000D03*
X47000000Y79575000D03*
%TD*%
D79*
%TO.C,U5*%
X74062500Y80275840D03*
X74062500Y79625600D03*
X74062500Y78975360D03*
X74062500Y78325120D03*
X74062500Y77674880D03*
X74062500Y77024640D03*
X74062500Y76374400D03*
X74062500Y75724160D03*
X79701300Y75724160D03*
X79701300Y76374400D03*
X79701300Y77024640D03*
X79701300Y77674880D03*
X79701300Y78325120D03*
X79701300Y78975360D03*
X79701300Y79625600D03*
X79701300Y80275840D03*
%TD*%
D24*
%TO.C,C19*%
X35200000Y96175000D03*
X36160000Y96175000D03*
%TD*%
D47*
%TO.C,J6*%
X50150000Y134000000D03*
D48*
X55150000Y134000000D03*
%TD*%
D80*
%TO.C,L1*%
X70478100Y88644760D03*
X73478100Y88644760D03*
%TD*%
D72*
%TO.C,C18*%
X9725000Y89850000D03*
X9725000Y91750000D03*
%TD*%
D46*
%TO.C,C50*%
X33000000Y27375000D03*
X32040000Y27375000D03*
%TD*%
D71*
%TO.C,C25*%
X87150000Y135000000D03*
X87150000Y130000000D03*
%TD*%
D81*
%TO.C,J3*%
X5387500Y86040000D03*
X5387500Y80260000D03*
D82*
X6452500Y86500000D03*
X6452500Y85700000D03*
X6452500Y84400000D03*
X6452500Y83400000D03*
X6452500Y82900000D03*
X6452500Y81900000D03*
X6452500Y80600000D03*
X6452500Y79800000D03*
X6452500Y80100000D03*
X6452500Y80900000D03*
X6452500Y81400000D03*
X6452500Y82400000D03*
X6452500Y83900000D03*
X6452500Y84900000D03*
X6452500Y85400000D03*
X6452500Y86200000D03*
D83*
X5887500Y87470000D03*
D84*
X1707500Y87470000D03*
D83*
X5887500Y78830000D03*
D84*
X1707500Y78830000D03*
%TD*%
D46*
%TO.C,C23*%
X57010000Y21875000D03*
X56050000Y21875000D03*
%TD*%
D85*
%TO.C,R11*%
X87237500Y84615000D03*
X85412500Y84615000D03*
%TD*%
D86*
%TO.C,R34*%
X100725000Y37055000D03*
X97800000Y37055000D03*
%TD*%
D46*
%TO.C,C48*%
X20155000Y33330500D03*
X19195000Y33330500D03*
%TD*%
D62*
%TO.C,J5*%
X68199998Y14425001D03*
X65659998Y14425001D03*
%TD*%
D87*
%TO.C,Q5*%
X79325000Y41020000D03*
D88*
X73025000Y43300000D03*
D87*
X79325000Y45580000D03*
%TD*%
D89*
%TO.C,C11*%
X52020000Y85675000D03*
X51380000Y85675000D03*
%TD*%
D34*
%TO.C,R8*%
X71437500Y77234640D03*
X71437500Y76214640D03*
%TD*%
D53*
%TO.C,R22*%
X52950000Y103475000D03*
X52950000Y104495000D03*
%TD*%
D41*
%TO.C,R26*%
X26375000Y38230500D03*
D42*
X26375000Y37570500D03*
%TD*%
D23*
%TO.C,C36*%
X91537500Y50830000D03*
X91537500Y49870000D03*
%TD*%
D90*
%TO.C,C46*%
X83125000Y44905000D03*
X83125000Y47855000D03*
%TD*%
D78*
%TO.C,C28*%
X62187500Y62837500D03*
X63737500Y62837500D03*
%TD*%
D45*
%TO.C,C17*%
X35600000Y92235000D03*
X35600000Y92875000D03*
%TD*%
D91*
%TO.C,C52*%
X22175000Y29730500D03*
X17775000Y29730500D03*
%TD*%
D41*
%TO.C,R24*%
X33375000Y37150500D03*
D42*
X33375000Y36490500D03*
%TD*%
D29*
%TO.C,Q8*%
X50750000Y108475000D03*
D30*
X53300000Y117625000D03*
D29*
X55850000Y108475000D03*
%TD*%
D66*
%TO.C,R5*%
X8992500Y84750000D03*
X9632500Y84750000D03*
%TD*%
D92*
%TO.C,Q4*%
X76315000Y25295000D03*
X76315000Y26565000D03*
X76315000Y27835000D03*
X76315000Y29105000D03*
D93*
X70525000Y29105000D03*
X70525000Y27835000D03*
X70525000Y26565000D03*
X70525000Y25295000D03*
D94*
X72750000Y27200000D03*
%TD*%
D28*
%TO.C,R19*%
X97375000Y41305000D03*
X98395000Y41305000D03*
%TD*%
D23*
%TO.C,C12*%
X45300000Y88375000D03*
X45300000Y87415000D03*
%TD*%
D46*
%TO.C,C49*%
X20135000Y34430500D03*
X19175000Y34430500D03*
%TD*%
D40*
%TO.C,C2*%
X51850000Y65290000D03*
X51850000Y66250000D03*
%TD*%
D95*
%TO.C,D1*%
X8025000Y90735000D03*
X8025000Y89765000D03*
%TD*%
D36*
%TO.C,H1*%
X6150000Y136000000D03*
%TD*%
D96*
%TO.C,J4*%
X53500000Y19125001D03*
X55499998Y19125001D03*
X57500000Y19125001D03*
X59499998Y19125001D03*
D97*
X61849998Y13375000D03*
X51150000Y13375000D03*
%TD*%
D41*
%TO.C,R25*%
X27175000Y38255500D03*
D42*
X27175000Y37595500D03*
%TD*%
D24*
%TO.C,C59*%
X62452500Y61587500D03*
X63412500Y61587500D03*
%TD*%
D32*
%TO.C,C31*%
X84625000Y28455000D03*
X84625000Y25505000D03*
%TD*%
D66*
%TO.C,C7*%
X48980000Y80675000D03*
X49620000Y80675000D03*
%TD*%
D35*
%TO.C,R18*%
X92937500Y51750000D03*
X92937500Y50100000D03*
%TD*%
D24*
%TO.C,C10*%
X45455000Y84213442D03*
X46415000Y84213442D03*
%TD*%
D23*
%TO.C,C47*%
X32275000Y38330500D03*
X32275000Y37370500D03*
%TD*%
D39*
%TO.C,C34*%
X89475000Y32740000D03*
X92425000Y32740000D03*
%TD*%
D28*
%TO.C,R2*%
X37800000Y75200000D03*
X38820000Y75200000D03*
%TD*%
D80*
%TO.C,L2*%
X42800000Y116925000D03*
X42800000Y119925000D03*
%TD*%
D98*
%TO.C,C53*%
X74900000Y13625000D03*
X74900000Y12075000D03*
%TD*%
D99*
%TO.C,J2*%
X29946526Y76235000D03*
X30962526Y71155000D03*
X28930526Y71155000D03*
D100*
X29311526Y74965000D03*
X30581526Y74965000D03*
X29311526Y73695000D03*
X30581526Y73695000D03*
X29311526Y72425000D03*
X30581526Y72425000D03*
%TD*%
D101*
%TO.C,U2*%
X12225000Y91950000D03*
X12225000Y89650000D03*
D102*
X18525000Y89650000D03*
D101*
X12225000Y87350000D03*
%TD*%
D24*
%TO.C,C39*%
X69557500Y50930000D03*
X70517500Y50930000D03*
%TD*%
D35*
%TO.C,R29*%
X74900000Y16750000D03*
X74900000Y15100000D03*
%TD*%
D27*
%TO.C,R35*%
X55900000Y100700000D03*
X55900000Y102350000D03*
%TD*%
D21*
%TO.C,IC1*%
X54925000Y66750000D03*
X54925000Y66250000D03*
X54925000Y65750000D03*
X54925000Y65250000D03*
X54925000Y64750000D03*
X59375000Y64750000D03*
X59375000Y65250000D03*
X59375000Y65750000D03*
X59375000Y66250000D03*
X59375000Y66750000D03*
%TD*%
D24*
%TO.C,C1*%
X36832500Y92665000D03*
X37792500Y92665000D03*
%TD*%
D64*
%TO.C,R15*%
X64499998Y18725001D03*
X63479998Y18725001D03*
%TD*%
D36*
%TO.C,H2*%
X6150000Y6375000D03*
%TD*%
D27*
%TO.C,R14*%
X55900000Y97650000D03*
X55900000Y99300000D03*
%TD*%
D80*
%TO.C,L3*%
X64500000Y121475000D03*
X64500000Y118475000D03*
%TD*%
D53*
%TO.C,R12*%
X59350000Y92869400D03*
X59350000Y93889400D03*
%TD*%
D32*
%TO.C,C29*%
X89225000Y28455000D03*
X89225000Y25505000D03*
%TD*%
D46*
%TO.C,C14*%
X31900000Y79775000D03*
X30940000Y79775000D03*
%TD*%
D65*
%TO.C,C43*%
X84912500Y62992677D03*
X84912500Y64542677D03*
%TD*%
D92*
%TO.C,Q3*%
X76315000Y33095000D03*
X76315000Y34365000D03*
X76315000Y35635000D03*
X76315000Y36905000D03*
D93*
X70525000Y36905000D03*
X70525000Y35635000D03*
X70525000Y34365000D03*
X70525000Y33095000D03*
D94*
X72750000Y35000000D03*
%TD*%
M02*
