M48
; DRILL file {KiCad 8.0.4} date 2025-01-22T16:42:58-0800
; FORMAT={-:-/ absolute / metric / decimal}
; #@! TF.CreationDate,2025-01-22T16:42:58-08:00
; #@! TF.GenerationSoftware,Kicad,Pcbnew,8.0.4
; #@! TF.FileFunction,Plated,1,4,PTH
FMAT,2
METRIC
; #@! TA.AperFunction,Plated,PTH,ViaDrill
T1C0.200
; #@! TA.AperFunction,Plated,PTH,ComponentDrill
T2C0.600
; #@! TA.AperFunction,Plated,PTH,ComponentDrill
T3C1.000
; #@! TA.AperFunction,Plated,PTH,ComponentDrill
T4C1.016
; #@! TA.AperFunction,Plated,PTH,ComponentDrill
T5C1.020
; #@! TA.AperFunction,Plated,PTH,ComponentDrill
T6C1.300
; #@! TA.AperFunction,Plated,PTH,ComponentDrill
T7C1.320
%
G90
G05
T1
X-41.825Y54.475
X-41.8Y52.875
X-41.775Y57.675
X-41.775Y56.125
X-41.75Y59.375
X-41.4Y58.575
X-41.4Y53.65
X-41.375Y55.275
X-41.325Y56.925
X-40.975Y54.475
X-40.95Y52.875
X-40.925Y57.675
X-40.925Y56.125
X-40.9Y59.375
X-40.55Y58.575
X-40.55Y53.65
X-40.525Y55.275
X-40.475Y56.925
X-40.05Y54.375
X-40.05Y52.75
X-40.025Y57.675
X-40.025Y56.075
X-40.0Y59.375
X-39.725Y51.775
X-39.7Y60.475
X-39.675Y56.9
X-39.675Y55.225
X-39.625Y58.6
X-39.625Y53.55
X-39.2Y54.375
X-39.2Y52.75
X-39.175Y57.675
X-39.175Y56.075
X-39.15Y59.375
X-38.875Y51.775
X-38.85Y60.475
X-38.825Y56.9
X-38.825Y55.225
X-38.775Y58.6
X-38.775Y53.55
X-35.225Y6.9
X-35.2Y7.95
X-34.9Y66.045
X-34.525Y6.9
X-34.5Y7.95
X-34.225Y55.15
X-33.825Y63.2
X-33.675Y64.7
X-33.665Y65.825
X-33.275Y62.5
X-33.252Y57.715
X-33.252Y52.515
X-32.865Y65.825
X-32.825Y64.7
X-32.725Y63.2
X-31.925Y55.15
X-31.625Y63.2
X-31.575Y62.15
X-31.275Y57.95
X-31.2Y64.925
X-30.775Y63.2
X-30.775Y62.15
X-30.35Y64.925
X-29.925Y63.2
X-29.925Y62.15
X-28.975Y62.7
X-28.315Y58.325
X-28.315Y57.525
X-28.125Y63.1
X-28.125Y62.25
X-27.275Y62.65
X-26.475Y63.1
X-26.475Y62.15
X-26.35Y3.15
X-26.35Y2.375
X-25.625Y3.15
X-25.625Y2.375
X-25.025Y62.75
X-25.025Y61.55
X-24.975Y64.1
X-24.925Y3.15
X-24.925Y2.375
X-24.475Y63.4
X-24.475Y62.15
X-24.475Y60.95
X-24.15Y3.175
X-24.15Y2.325
X-23.975Y64.1
X-23.875Y62.75
X-23.875Y61.55
X-23.825Y7.43
X-23.805Y6.33
X-20.885Y49.265
X-19.965Y50.185
X-17.866Y11.335
X-16.641Y11.315
X-16.45Y6.45
X-16.425Y5.075
X-15.925Y5.775
X-15.872Y2.788
X-15.85Y54.3
X-15.841Y11.34
X-15.328Y2.788
X-15.325Y6.45
X-15.325Y5.075
X-14.825Y56.225
X-14.775Y5.775
X-14.525Y47.965
X-14.525Y45.4
X-14.275Y5.075
X-14.2Y6.425
X-13.625Y5.775
X-13.5Y42.2
X-13.1Y5.075
X-13.06Y52.715
X-13.05Y6.4
X-12.675Y9.597
X-12.575Y5.725
X-12.2Y54.0
X-12.125Y5.05
X-12.075Y6.4
X-11.9Y41.1
X-11.9Y40.15
X-11.9Y39.2
X-11.1Y52.75
X-11.05Y32.9
X-10.975Y34.625
X-10.8Y63.55
X-10.795Y64.475
X-10.71Y11.33
X-10.672Y2.788
X-10.522Y46.472
X-9.7Y34.65
X-9.7Y32.95
X-9.685Y47.31
X-9.65Y51.6
X-9.35Y56.912
X-9.2Y70.8
X-8.55Y57.587
X-8.5Y49.35
X-8.31Y53.4
X-7.425Y67.02
X-7.35Y54.2
X-6.9Y40.3
X-6.9Y39.45
X-6.35Y53.35
X-6.25Y48.2
X-6.125Y34.675
X-6.125Y15.8
X-5.87Y70.835
X-5.87Y69.185
X-5.825Y64.775
X-5.35Y50.65
X-5.3Y4.575
X-5.25Y48.2
X-5.225Y34.7
X-5.192Y15.786
X-4.325Y3.05
X-4.218Y66.8
X-4.197Y65.685
X-4.155Y49.18
X-4.075Y56.225
X-3.675Y3.05
X-3.35Y64.75
X-3.35Y58.3
X-3.25Y40.25
X-3.25Y39.5
X-2.775Y56.106
X-2.775Y55.106
X-1.85Y61.85
X-1.767Y56.937
X-1.755Y49.255
X-1.693Y46.907
X-0.915Y56.085
X-0.85Y50.25
X0.721Y63.971
X0.95Y32.75
X0.955Y49.33
X1.05Y80.7
X1.75Y80.7
X1.975Y58.75
X2.3Y61.4
X2.4Y54.88
X2.45Y52.55
X3.28Y60.435
X3.448Y58.135
X3.6Y51.65
X4.4Y51.65
X6.05Y33.8
X6.05Y32.4
X6.45Y33.05
X6.45Y31.75
X6.5Y73.3
X6.8Y33.8
X6.85Y32.4
X7.25Y73.3
X7.375Y58.75
X7.73Y53.685
X8.85Y38.29
X10.175Y64.22
X10.4Y74.2
X10.875Y53.1
X12.047Y-5.177
X12.05Y51.8
X12.05Y42.85
X12.5Y-6.575
X12.5Y-7.375
X12.5Y-8.175
X12.5Y-8.975
X12.704Y76.496
X13.475Y37.575
X13.632Y39.482
X13.642Y38.517
X13.825Y42.85
X14.0Y-5.125
X14.5Y-6.775
X14.5Y-7.875
X14.5Y-8.925
X15.125Y39.6
X15.725Y74.025
X16.375Y64.925
X16.579Y80.371
X17.65Y81.45
X18.976Y63.775
X19.2Y35.825
X19.9Y41.325
X20.5Y-8.275
X20.725Y35.85
X22.75Y83.9
X22.975Y27.8
X23.45Y83.9
X23.5Y40.2
X23.5Y37.4
X23.575Y61.575
X24.05Y-12.95
X24.075Y-12.125
X24.162Y59.912
X24.75Y-13.75
X24.775Y-11.425
X25.575Y-13.75
X25.675Y-11.425
X26.425Y-12.975
X26.45Y-12.15
X27.517Y25.885
X27.8Y27.8
X28.438Y49.215
X29.3Y76.7
X30.05Y76.7
X31.4Y47.525
X31.9Y-11.9
X31.9Y-14.925
X33.0Y47.175
X33.0Y45.7
X33.325Y10.58
X33.325Y2.755
X34.19Y-14.375
X35.85Y-13.675
X35.875Y-11.6
X35.875Y-12.625
X36.602Y-1.495
X36.725Y-11.6
X36.725Y-12.625
X36.725Y-13.675
X37.402Y-1.495
X37.587Y7.0
X37.975Y51.975
X38.41Y-10.35
X38.925Y-1.495
X39.725Y-1.495
X40.125Y20.855
X41.125Y15.655
X41.225Y-1.495
X41.587Y38.66
X41.736Y21.216
X41.769Y22.065
X41.8Y19.175
X42.025Y-1.495
X42.05Y46.5
X42.387Y38.66
X42.478Y63.052
X43.1Y47.8
X43.102Y51.395
X43.525Y-1.495
X44.325Y-1.495
X44.587Y38.61
X44.913Y35.968
X45.375Y15.03
X45.387Y38.61
X45.4Y18.955
X45.475Y17.58
X45.475Y16.105
X45.825Y-1.495
X46.275Y18.33
X46.3Y15.48
X46.312Y17.0
X46.475Y8.04
X46.625Y-1.495
X47.175Y17.605
X47.175Y16.105
X47.2Y18.955
X47.25Y15.005
X47.625Y20.88
X49.237Y18.325
X49.425Y8.405
X49.425Y7.705
X49.425Y6.105
X49.425Y5.405
X49.425Y3.805
X49.425Y3.105
X49.487Y39.56
X49.487Y38.76
X49.938Y24.75
X50.688Y37.51
X50.737Y40.96
X50.925Y20.905
X51.052Y16.277
X51.325Y14.305
X51.487Y37.51
X51.537Y40.96
X52.2Y13.355
X52.625Y15.905
X52.725Y-10.565
X52.725Y-11.325
X52.787Y39.71
X52.787Y38.91
X52.925Y13.355
X54.225Y17.105
X54.3Y-13.975
X54.8Y10.48
X54.8Y9.705
X55.06Y-13.975
T3
X34.642Y61.615
X39.642Y61.615
X44.15Y108.0
X44.15Y103.0
T4
X-33.69Y-11.888
X-31.15Y-11.888
X22.66Y-12.575
X25.2Y-12.575
T5
X-21.5Y-13.288
X-18.5Y-13.288
X-2.6Y-13.29
X0.4Y-13.29
T6
X-0.2Y92.925
X-0.2Y89.925
X21.5Y94.475
X21.5Y91.475
X27.478Y61.645
X30.478Y61.645
T7
X7.15Y107.0
X12.15Y107.0
X30.377Y37.485
X35.377Y37.485
T2
G00X-40.992Y60.47
M15
G01X-41.593Y60.47
M16
G05
G00X-40.992Y51.83
M15
G01X-41.593Y51.83
M16
G05
G00X-36.562Y60.47
M15
G01X-37.663Y60.47
M16
G05
G00X-36.562Y51.83
M15
G01X-37.663Y51.83
M16
G05
M30
