%TF.GenerationSoftware,KiCad,Pcbnew,8.0.4*%
%TF.CreationDate,2025-01-22T15:19:01-08:00*%
%TF.ProjectId,acdc_stimulator,61636463-5f73-4746-996d-756c61746f72,rev?*%
%TF.SameCoordinates,PX43b5fc0PY92dda80*%
%TF.FileFunction,Copper,L4,Bot*%
%TF.FilePolarity,Positive*%
%FSLAX46Y46*%
G04 Gerber Fmt 4.6, Leading zero omitted, Abs format (unit mm)*
G04 Created by KiCad (PCBNEW 8.0.4) date 2025-01-22 15:19:01*
%MOMM*%
%LPD*%
G01*
G04 APERTURE LIST*
%TA.AperFunction,ComponentPad*%
%ADD10C,1.530000*%
%TD*%
%TA.AperFunction,ComponentPad*%
%ADD11R,1.980000X3.960000*%
%TD*%
%TA.AperFunction,ComponentPad*%
%ADD12O,1.980000X3.960000*%
%TD*%
%TA.AperFunction,ComponentPad*%
%ADD13C,1.524000*%
%TD*%
%TA.AperFunction,ComponentPad*%
%ADD14C,2.000000*%
%TD*%
%TA.AperFunction,ComponentPad*%
%ADD15C,2.600000*%
%TD*%
%TA.AperFunction,ComponentPad*%
%ADD16O,2.100000X1.000000*%
%TD*%
%TA.AperFunction,ComponentPad*%
%ADD17O,1.600000X1.000000*%
%TD*%
%TA.AperFunction,ViaPad*%
%ADD18C,0.650000*%
%TD*%
%TA.AperFunction,Conductor*%
%ADD19C,0.300000*%
%TD*%
%TA.AperFunction,Conductor*%
%ADD20C,0.500000*%
%TD*%
%TA.AperFunction,Conductor*%
%ADD21C,0.200000*%
%TD*%
G04 APERTURE END LIST*
D10*
%TO.P,J9,1*%
%TO.N,/pelt_cooler/OUT2*%
X21349999Y13337300D03*
%TO.P,J9,2*%
%TO.N,/pelt_cooler/OUT1*%
X24349999Y13337300D03*
%TD*%
D11*
%TO.P,J1,1,Pin_1*%
%TO.N,+60V*%
X102852500Y121580000D03*
D12*
%TO.P,J1,2,Pin_2*%
%TO.N,GND*%
X107852500Y121580000D03*
%TD*%
D13*
%TO.P,J7,1,1*%
%TO.N,/CO2 Solenoid*%
X9159998Y14737300D03*
%TO.P,J7,2,2*%
%TO.N,+12V*%
X11699998Y14737300D03*
%TD*%
D10*
%TO.P,J8,1*%
%TO.N,/pelt_cooler/Incubator Peltier Cooler*%
X40249999Y13334500D03*
%TO.P,J8,2*%
%TO.N,+12V*%
X43249999Y13334500D03*
%TD*%
D14*
%TO.P,C24,1*%
%TO.N,Net-(C24-Pad1)*%
X82491900Y76615000D03*
%TO.P,C24,2*%
%TO.N,/ADC_IN*%
X77491900Y76615000D03*
%TD*%
D11*
%TO.P,J6,1,Pin_1*%
%TO.N,Net-(J6-Pin_1)*%
X50000000Y122000000D03*
D12*
%TO.P,J6,2,Pin_2*%
%TO.N,Net-(J6-Pin_2)*%
X55000000Y122000000D03*
%TD*%
D15*
%TO.P,L1,1,1*%
%TO.N,/DAC_FB*%
X70328100Y76644760D03*
%TO.P,L1,2,2*%
%TO.N,/ADC_IN*%
X73328100Y76644760D03*
%TD*%
D14*
%TO.P,C25,1*%
%TO.N,Net-(J6-Pin_2)*%
X87000000Y123000000D03*
%TO.P,C25,2*%
%TO.N,/V_AC*%
X87000000Y118000000D03*
%TD*%
D16*
%TO.P,J3,S1,SHIELD*%
%TO.N,GND*%
X5737500Y75470000D03*
D17*
X1557500Y75470000D03*
D16*
X5737500Y66830000D03*
D17*
X1557500Y66830000D03*
%TD*%
D13*
%TO.P,J5,1,1*%
%TO.N,GND*%
X68049998Y14050001D03*
%TO.P,J5,2,2*%
%TO.N,/THERM_FB*%
X65509998Y14050001D03*
%TD*%
D15*
%TO.P,L2,1,1*%
%TO.N,/V_DC1*%
X42650000Y104925000D03*
%TO.P,L2,2,2*%
%TO.N,Net-(J6-Pin_1)*%
X42650000Y107925000D03*
%TD*%
%TO.P,L3,1,1*%
%TO.N,/V_DC2*%
X64350000Y109475000D03*
%TO.P,L3,2,2*%
%TO.N,Net-(J6-Pin_2)*%
X64350000Y106475000D03*
%TD*%
D18*
%TO.N,GND*%
X121100000Y13100000D03*
X121860003Y13100000D03*
X121050000Y37550000D03*
X121800000Y37550000D03*
X121100000Y59650000D03*
X121850000Y59650000D03*
X48900000Y47400000D03*
X114500000Y82600000D03*
X127275000Y93800000D03*
X105059500Y41125000D03*
X117862500Y122705000D03*
X103350000Y39875000D03*
X55350000Y17650000D03*
X85328100Y78052500D03*
X102525000Y39875000D03*
X3175000Y71900000D03*
X69300000Y14475000D03*
X121962500Y123655000D03*
X109877500Y82600000D03*
X119650000Y100200000D03*
X121900000Y89500000D03*
X124675000Y97450000D03*
X1075000Y72675000D03*
X18700000Y29800000D03*
X35950000Y54450000D03*
X11650000Y79925000D03*
X16500000Y29775000D03*
X98700000Y15175000D03*
X32177798Y29413500D03*
X17925000Y29000000D03*
X49350000Y88300000D03*
X3675000Y71075000D03*
X4025000Y70225000D03*
X50225000Y73750000D03*
X103325000Y60975000D03*
X49300000Y46750000D03*
X119675000Y103050000D03*
X1450000Y73575000D03*
X102650000Y13400000D03*
X102475000Y60975000D03*
X119500000Y63100000D03*
X35950000Y55300000D03*
X29800000Y33025000D03*
X121900000Y87200000D03*
X66300000Y98900000D03*
X50580000Y68685000D03*
X49300000Y48050000D03*
X97802500Y61340000D03*
X1075000Y71125000D03*
X121900000Y87900000D03*
X103325000Y60000000D03*
X30174999Y36221562D03*
X46130000Y75435000D03*
X49650000Y48800000D03*
X98905000Y57575000D03*
X117875000Y103050000D03*
X16500000Y29000000D03*
X30650000Y69000000D03*
X57974998Y54600000D03*
X3650000Y67750000D03*
X38652500Y80685000D03*
X30775000Y33025000D03*
X2300000Y68650000D03*
X19045000Y32955500D03*
X54897498Y21448001D03*
X66925000Y14500000D03*
X36980000Y84185000D03*
X7625000Y33525000D03*
X127275000Y94575000D03*
X102525000Y59975000D03*
X98200000Y35450000D03*
X27008986Y37965499D03*
X119650000Y101700000D03*
X103325000Y62025000D03*
X17925000Y29775000D03*
X116000000Y82600000D03*
X59225360Y79925000D03*
X14535000Y72525000D03*
X26400000Y33075000D03*
X103525000Y14450000D03*
X26208986Y37940499D03*
X113700000Y82600000D03*
X2300000Y73575000D03*
X3975000Y66775000D03*
X125262500Y123805000D03*
X50100000Y88300000D03*
X2800000Y69375000D03*
X100990000Y12700000D03*
X35425000Y82020000D03*
X55350000Y20050000D03*
X103525000Y13400000D03*
X112200000Y82600000D03*
X36980000Y85835000D03*
X7650000Y34575000D03*
X30950000Y56100000D03*
X30950000Y55150000D03*
X118750000Y102425000D03*
X114062500Y122755000D03*
X41095000Y64255000D03*
X123162500Y121605000D03*
X103375000Y37850000D03*
X14535000Y73325000D03*
X27522195Y29413500D03*
X12500000Y79925000D03*
X1900000Y67875000D03*
X49700000Y47400000D03*
X51700000Y53290000D03*
X1050000Y67875000D03*
X119550000Y40150000D03*
X121962500Y122855000D03*
X67625000Y15200000D03*
X3700000Y74375000D03*
X48900000Y48800000D03*
X119525000Y16510003D03*
X28075000Y32400000D03*
X9175000Y79700000D03*
X121900000Y92500000D03*
X119550000Y40900000D03*
X27525000Y31700000D03*
X30275000Y32350000D03*
X117950000Y101675000D03*
X72900000Y91700000D03*
X38525000Y29675000D03*
X117062500Y122705000D03*
X121900000Y90200000D03*
X123212500Y125055000D03*
X29225000Y32400000D03*
X3150000Y75475000D03*
X125262500Y123005000D03*
X45250000Y69880000D03*
X103525000Y15475000D03*
X118787500Y101095000D03*
X2850000Y74375000D03*
X46450000Y66650000D03*
X47250000Y66650000D03*
X102550000Y37875000D03*
X7950000Y81045000D03*
X1025000Y69475000D03*
X102675000Y14450000D03*
X3175000Y70225000D03*
X2325000Y70275000D03*
X68425000Y12875000D03*
X103375000Y39000000D03*
X46298265Y73134823D03*
X63575000Y50850000D03*
X119725000Y99100000D03*
X121712500Y102419998D03*
X3675000Y72675000D03*
X44600000Y95700000D03*
X3125000Y66775000D03*
X97907000Y39190000D03*
X109077500Y82600000D03*
X2800000Y67750000D03*
X9185000Y80825000D03*
X98700000Y12150000D03*
X27525000Y33075000D03*
X1925000Y71125000D03*
X55350000Y19250000D03*
X19025000Y34055500D03*
X71287500Y64214640D03*
X37025000Y79775000D03*
X98950000Y35450000D03*
X28650000Y33050000D03*
X119100000Y82600000D03*
X111400000Y82600000D03*
X8625000Y70150000D03*
X124012500Y125055000D03*
X3225000Y68550000D03*
X4075000Y68550000D03*
X1100000Y74375000D03*
X30950000Y54200000D03*
X68525000Y15200000D03*
X65600000Y98900000D03*
X38632500Y81800000D03*
X2375000Y71925000D03*
X66900000Y13675000D03*
X1925000Y72675000D03*
X2825000Y72675000D03*
X1525000Y71925000D03*
X30725000Y31675000D03*
X118300000Y82600000D03*
X1450000Y68650000D03*
X28325000Y60400000D03*
X118775000Y99575000D03*
X55350000Y18450000D03*
X32140000Y37955500D03*
X43900000Y95700000D03*
X3650000Y69375000D03*
X114862500Y122755000D03*
X9985000Y80825000D03*
X116800000Y82600000D03*
X102525000Y38975000D03*
X9597500Y72715497D03*
X9597500Y67515497D03*
X72150000Y91700000D03*
X39175000Y29675000D03*
X3225000Y73600000D03*
X1875000Y69475000D03*
X17225000Y29775000D03*
X102475000Y62025000D03*
X17225000Y29000000D03*
X10025000Y79700000D03*
X121900000Y91800000D03*
X8350000Y34575000D03*
X29790000Y67715000D03*
X2825000Y71075000D03*
X123962500Y121605000D03*
X105005000Y63275000D03*
X29750000Y31700000D03*
X8325000Y33525000D03*
X32055000Y79475000D03*
X4025000Y71900000D03*
X125400000Y97450000D03*
X69275000Y13650000D03*
X117950000Y100200000D03*
X98105000Y57575000D03*
X26925000Y32400000D03*
X1475000Y70275000D03*
X67600000Y12875000D03*
X18700000Y28950000D03*
X117850000Y99125000D03*
X102675000Y15475000D03*
X119525000Y15750000D03*
X28575000Y31700000D03*
X1950000Y74375000D03*
X119500000Y62350000D03*
X105209500Y16725000D03*
X26425000Y31700000D03*
X26977801Y29413500D03*
X4000000Y75475000D03*
X4075000Y73600000D03*
X24983986Y37960499D03*
%TO.N,+60V*%
X80825000Y66975000D03*
X96752500Y60747500D03*
X58575000Y89025000D03*
%TO.N,+5V*%
X95525000Y65600000D03*
X70025000Y47665380D03*
X67750000Y47675000D03*
X98800000Y65600000D03*
X10925000Y70150000D03*
X11575000Y72950000D03*
%TO.N,+3.3V*%
X45300000Y67550000D03*
X28325000Y62965000D03*
X12075000Y77150000D03*
X110000000Y44950000D03*
X57350000Y19850000D03*
X18375000Y75950000D03*
X111650000Y44950000D03*
X110800000Y44950000D03*
X12925000Y77150000D03*
X10125000Y78200000D03*
X12075000Y78200000D03*
X108300000Y44950000D03*
X32050000Y78550000D03*
X39600000Y54500000D03*
X57350000Y18750000D03*
X18975000Y76550000D03*
X16375000Y77150000D03*
X36600000Y63200000D03*
X63350000Y18350000D03*
X42000000Y65250000D03*
X9575000Y77500000D03*
X14725000Y77250000D03*
X17825000Y77750000D03*
X18875000Y79100000D03*
X31750000Y67750000D03*
X33650000Y85800000D03*
X12925000Y78200000D03*
X15575000Y77650000D03*
X37600000Y63200000D03*
X113250000Y44950000D03*
X113950000Y44950000D03*
X18975000Y77750000D03*
X112450000Y44950000D03*
X11225000Y78200000D03*
X17825000Y76550000D03*
X45150000Y76400000D03*
X109150000Y44950000D03*
X18375000Y77150000D03*
X57350000Y17700000D03*
X13875000Y77700000D03*
X39600000Y55250000D03*
X18375000Y78400000D03*
X17875000Y79100000D03*
X16375000Y78100000D03*
X11275000Y77150000D03*
X62050000Y50825000D03*
X14725000Y78100000D03*
X9025000Y78200000D03*
X56850000Y21500000D03*
%TO.N,-60V*%
X75824476Y62525000D03*
X95300000Y80975000D03*
X120100000Y104975000D03*
X61825840Y78775000D03*
X118950000Y92135000D03*
X112600000Y104950000D03*
X98150000Y80975000D03*
X74250000Y62525000D03*
X113600000Y99750000D03*
%TO.N,/DCDC_inverter/INTVCC*%
X123527500Y100372500D03*
X123400000Y105000000D03*
%TO.N,/DCDC_inverter/SW*%
X110062500Y91095000D03*
X114210777Y105310637D03*
%TO.N,/DCDC_inverter/ITH*%
X126700000Y101200000D03*
X125100000Y100000000D03*
%TO.N,/NRST*%
X41934620Y71084620D03*
X34539644Y68400000D03*
X29350000Y57200000D03*
X40074999Y70105762D03*
%TO.N,/SPI_DO*%
X56325000Y52575000D03*
X36500000Y68350000D03*
%TO.N,/SPI_CLK*%
X35500001Y69200000D03*
X56492175Y53517175D03*
%TO.N,/FG_CS*%
X33500000Y71911714D03*
X56481973Y54481973D03*
%TO.N,/DCDC_inverter/BG*%
X105800000Y86850000D03*
X114275000Y103270000D03*
%TO.N,/DCDC_inverter/TG*%
X105800000Y94675000D03*
X114243758Y106160000D03*
%TO.N,/SPI_DI*%
X41157164Y61907164D03*
X54900000Y57850000D03*
X38695202Y64179798D03*
X56675000Y57850000D03*
%TO.N,/POT_CS*%
X34300000Y72586714D03*
X62750000Y56325000D03*
%TO.N,/I2C_SCL*%
X36725000Y49675000D03*
X36725000Y42425000D03*
%TO.N,/I2C_SDA*%
X37625000Y49700000D03*
X37657795Y42411444D03*
%TO.N,/THERM_FB*%
X73125000Y51925000D03*
X72125000Y53050000D03*
%TO.N,/SWO*%
X37500000Y65650000D03*
X34350000Y64350000D03*
%TO.N,/INCUBATOR_PELT_OUT*%
X44825000Y73750000D03*
X37550000Y31200000D03*
%TO.N,/H_Bridge_IN1*%
X59428553Y95371447D03*
X60500000Y96450000D03*
X53250000Y89200000D03*
X55553553Y91496447D03*
X53725000Y68100000D03*
X53025000Y79219760D03*
%TO.N,/H_Bridge_IN2*%
X39500000Y73300000D03*
X39500000Y79750000D03*
%TO.N,/VAC_ON*%
X84900000Y61500000D03*
X85951733Y66394640D03*
X85950000Y62800000D03*
X54900000Y66800000D03*
%TO.N,/SOLEN_OUT*%
X28025000Y71225000D03*
X27000000Y69300000D03*
X22884620Y65184620D03*
X21965380Y64265380D03*
%TO.N,/DAC_AC*%
X67012500Y74912500D03*
X66425000Y76575000D03*
%TO.N,/H_BRIDGE_FAULT*%
X43805258Y64330258D03*
X40074999Y71105762D03*
X43800000Y47750000D03*
X41082524Y71936715D03*
%TO.N,/H_BRIDGE_IN2*%
X33165028Y62309972D03*
X33150000Y47950000D03*
X33150000Y49650000D03*
X33200000Y66600000D03*
%TO.N,/H_BRIDGE_IN1*%
X38775000Y71225000D03*
X31875000Y49625000D03*
X32327528Y61472472D03*
X31800000Y47900000D03*
%TO.N,/DAC_DC*%
X43571204Y78970674D03*
X41000000Y76850000D03*
%TO.N,Net-(IC3-SS)*%
X123800000Y98400000D03*
X122412500Y108845000D03*
%TD*%
D19*
%TO.N,/H_Bridge_IN1*%
X53250000Y89200000D02*
X55546447Y91496447D01*
X55546447Y91496447D02*
X55553553Y91496447D01*
D20*
%TO.N,+60V*%
X80825000Y75725000D02*
X74475000Y82075000D01*
X80825000Y66725000D02*
X86802500Y60747500D01*
X65525000Y82075000D02*
X58575000Y89025000D01*
X80825000Y66975000D02*
X80825000Y75725000D01*
X80825000Y66975000D02*
X80825000Y66725000D01*
X74475000Y82075000D02*
X65525000Y82075000D01*
X86802500Y60747500D02*
X96752500Y60747500D01*
%TO.N,+5V*%
X70015380Y47675000D02*
X67750000Y47675000D01*
X95525000Y65600000D02*
X98800000Y65600000D01*
D21*
X10925000Y70150000D02*
X10925000Y72300000D01*
X10925000Y72300000D02*
X11575000Y72950000D01*
D20*
X70025000Y47665380D02*
X70015380Y47675000D01*
%TO.N,-60V*%
X113250000Y100100000D02*
X113600000Y99750000D01*
X61825840Y78775000D02*
X61825000Y78774160D01*
X95300000Y80975000D02*
X98150000Y80975000D01*
D19*
X118950000Y92135000D02*
X120657500Y93842500D01*
D20*
X113205790Y104344210D02*
X119512161Y104344210D01*
X61825000Y74950000D02*
X74250000Y62525000D01*
X119512161Y104387161D02*
X120100000Y104975000D01*
X61825000Y78774160D02*
X61825000Y74950000D01*
X112600000Y104950000D02*
X113250000Y104300000D01*
D19*
X74250000Y62525000D02*
X75824476Y62525000D01*
X120657500Y93842500D02*
X120657500Y103198871D01*
D20*
X113250000Y104300000D02*
X113250000Y100100000D01*
X119512161Y104344210D02*
X120657500Y103198871D01*
X119512161Y104344210D02*
X119512161Y104387161D01*
X112600000Y104950000D02*
X113205790Y104344210D01*
D21*
%TO.N,/DCDC_inverter/INTVCC*%
X123775000Y100620000D02*
X123775000Y104625000D01*
X123775000Y104625000D02*
X123400000Y105000000D01*
X123527500Y100372500D02*
X123775000Y100620000D01*
D19*
%TO.N,/DCDC_inverter/SW*%
X113199163Y106250000D02*
X111750000Y106250000D01*
X110062500Y104562500D02*
X110062500Y91095000D01*
X114138526Y105310637D02*
X113199163Y106250000D01*
X111750000Y106250000D02*
X110062500Y104562500D01*
X114210777Y105310637D02*
X114138526Y105310637D01*
D21*
%TO.N,/DCDC_inverter/ITH*%
X125100000Y100000000D02*
X125500000Y100000000D01*
X125500000Y100000000D02*
X126700000Y101200000D01*
%TO.N,/NRST*%
X34539644Y65458883D02*
X33700000Y64619239D01*
D19*
X41934620Y71084620D02*
X41053857Y71084620D01*
X34539644Y68400000D02*
X34539644Y65458883D01*
X33875000Y60945672D02*
X30129328Y57200000D01*
X33700000Y62750000D02*
X33875000Y62575000D01*
D21*
X33700000Y64619239D02*
X33700000Y62750000D01*
D19*
X33875000Y62575000D02*
X33875000Y60945672D01*
X30129328Y57200000D02*
X29350000Y57200000D01*
X41053857Y71084620D02*
X40074999Y70105762D01*
D21*
%TO.N,/SPI_DO*%
X44074497Y64980258D02*
X43612002Y64980258D01*
X56325000Y52575000D02*
X56325000Y52729755D01*
X56325000Y52729755D02*
X44074497Y64980258D01*
X40192260Y68400000D02*
X36550000Y68400000D01*
D19*
X36500000Y68350000D02*
X36550000Y68400000D01*
D21*
X43612002Y64980258D02*
X40192260Y68400000D01*
%TO.N,/SPI_CLK*%
X56492175Y53517176D02*
X44602093Y65407258D01*
X44602093Y65407258D02*
X43788872Y65407258D01*
X40246130Y68950000D02*
X39450000Y68950000D01*
X43788872Y65407258D02*
X40246130Y68950000D01*
X39200000Y69200000D02*
X35500001Y69200000D01*
X39450000Y68950000D02*
X39200000Y69200000D01*
X56492175Y53517175D02*
X56492175Y53517176D01*
%TO.N,/FG_CS*%
X39425000Y69836522D02*
X39425000Y71494239D01*
X56481973Y54481974D02*
X45129689Y65834258D01*
X39805760Y69455762D02*
X39425000Y69836522D01*
X56481973Y54481973D02*
X56481973Y54481974D01*
X43965742Y65834258D02*
X40344238Y69455762D01*
X40344238Y69455762D02*
X39805760Y69455762D01*
D19*
X33500000Y71911714D02*
X39007525Y71911714D01*
D21*
X39425000Y71494239D02*
X39007525Y71911714D01*
X45129689Y65834258D02*
X43965742Y65834258D01*
D19*
%TO.N,/DCDC_inverter/BG*%
X114275000Y92025000D02*
X109100000Y86850000D01*
X109100000Y86850000D02*
X105800000Y86850000D01*
X114275000Y103270000D02*
X114275000Y92025000D01*
%TO.N,/DCDC_inverter/TG*%
X113403758Y107000000D02*
X107750000Y107000000D01*
X107750000Y107000000D02*
X105800000Y105050000D01*
X114243758Y106160000D02*
X113403758Y107000000D01*
X105800000Y105050000D02*
X105800000Y94675000D01*
%TO.N,/SPI_DI*%
X56675000Y57850000D02*
X54900000Y57850000D01*
X40967836Y61907164D02*
X38695202Y64179798D01*
X41157164Y61907164D02*
X40967836Y61907164D01*
%TO.N,/POT_CS*%
X62750000Y56325000D02*
X61985405Y56325000D01*
X34338286Y72625000D02*
X34300000Y72586714D01*
X61985405Y56325000D02*
X45685405Y72625000D01*
X45685405Y72625000D02*
X34338286Y72625000D01*
%TO.N,/I2C_SCL*%
X36725000Y42425000D02*
X36725000Y49675000D01*
%TO.N,/I2C_SDA*%
X37657795Y49667205D02*
X37657795Y42411444D01*
X37625000Y49700000D02*
X37657795Y49667205D01*
%TO.N,/THERM_FB*%
X73125000Y51925000D02*
X72125000Y52925000D01*
X72125000Y52925000D02*
X72125000Y53050000D01*
D21*
%TO.N,/SWO*%
X34350000Y64350000D02*
X35650000Y65650000D01*
X35650000Y65650000D02*
X37500000Y65650000D01*
D19*
%TO.N,/INCUBATOR_PELT_OUT*%
X46752446Y74247554D02*
X46752446Y73992959D01*
X46752446Y73992959D02*
X65975000Y54770405D01*
X44825000Y73750000D02*
X45322554Y74247554D01*
X48775000Y31200000D02*
X37550000Y31200000D01*
X65975000Y48400000D02*
X48775000Y31200000D01*
X65975000Y54770405D02*
X65975000Y48400000D01*
X45322554Y74247554D02*
X46752446Y74247554D01*
%TO.N,/H_Bridge_IN1*%
X59428553Y95371447D02*
X59428553Y95378553D01*
X53725000Y68100000D02*
X53725000Y78519760D01*
X53725000Y78519760D02*
X53025000Y79219760D01*
X59428553Y95378553D02*
X60500000Y96450000D01*
%TO.N,/H_Bridge_IN2*%
X39500000Y79750000D02*
X39500000Y73300000D01*
%TO.N,/VAC_ON*%
X54900000Y66775000D02*
X60175000Y61500000D01*
X85951733Y66394640D02*
X85950000Y66392907D01*
X54900000Y66800000D02*
X54900000Y66775000D01*
X60175000Y61500000D02*
X84900000Y61500000D01*
X85950000Y66392907D02*
X85950000Y62800000D01*
%TO.N,/SOLEN_OUT*%
X28025000Y71225000D02*
X27000000Y70200000D01*
X21965380Y64265380D02*
X22884620Y65184620D01*
X27000000Y70200000D02*
X27000000Y69300000D01*
%TO.N,/DAC_AC*%
X67012500Y74912500D02*
X66425000Y75500000D01*
X66425000Y75500000D02*
X66425000Y76575000D01*
%TO.N,/H_BRIDGE_FAULT*%
X43800000Y47750000D02*
X43800000Y64325000D01*
X40898428Y71929191D02*
X40074999Y71105762D01*
X41075000Y71929191D02*
X40898428Y71929191D01*
X43800000Y64325000D02*
X43805258Y64330258D01*
X41082524Y71936715D02*
X41075000Y71929191D01*
%TO.N,/H_BRIDGE_IN2*%
X33165028Y62309972D02*
X33165028Y66565028D01*
X33165028Y66565028D02*
X33200000Y66600000D01*
X33150000Y49650000D02*
X33150000Y47950000D01*
%TO.N,/H_BRIDGE_IN1*%
X32327528Y67177528D02*
X36375000Y71225000D01*
X31875000Y47975000D02*
X31875000Y49625000D01*
X36375000Y71225000D02*
X38775000Y71225000D01*
X31800000Y47900000D02*
X31875000Y47975000D01*
X32327528Y61472472D02*
X32327528Y67177528D01*
%TO.N,/DAC_DC*%
X41450530Y76850000D02*
X41000000Y76850000D01*
X43571204Y78970674D02*
X41450530Y76850000D01*
%TO.N,Net-(IC3-SS)*%
X123800000Y98400000D02*
X124250000Y98850000D01*
X124250000Y107007500D02*
X122412500Y108845000D01*
X124250000Y98850000D02*
X124250000Y107007500D01*
%TD*%
M02*
