%TF.GenerationSoftware,KiCad,Pcbnew,8.0.4*%
%TF.CreationDate,2025-01-22T15:19:01-08:00*%
%TF.ProjectId,acdc_stimulator,61636463-5f73-4746-996d-756c61746f72,rev?*%
%TF.SameCoordinates,PX43b5fc0PY92dda80*%
%TF.FileFunction,Soldermask,Bot*%
%TF.FilePolarity,Negative*%
%FSLAX46Y46*%
G04 Gerber Fmt 4.6, Leading zero omitted, Abs format (unit mm)*
G04 Created by KiCad (PCBNEW 8.0.4) date 2025-01-22 15:19:01*
%MOMM*%
%LPD*%
G01*
G04 APERTURE LIST*
%ADD10C,1.270000*%
%ADD11C,1.734000*%
%ADD12C,2.700000*%
%ADD13R,1.980000X3.960000*%
%ADD14O,1.980000X3.960000*%
%ADD15C,0.900000*%
%ADD16C,1.524000*%
%ADD17C,2.000000*%
%ADD18C,2.600000*%
%ADD19C,0.650000*%
%ADD20O,2.100000X1.000000*%
%ADD21O,1.600000X1.000000*%
%ADD22C,0.990600*%
G04 APERTURE END LIST*
D10*
%TO.C,J9*%
X27349999Y15297300D03*
X18349999Y15297300D03*
D11*
X21349999Y13337300D03*
X24349999Y13337300D03*
%TD*%
D12*
%TO.C,H3*%
X133000000Y127000000D03*
%TD*%
D13*
%TO.C,J1*%
X102852500Y121580000D03*
D14*
X107852500Y121580000D03*
%TD*%
D15*
%TO.C,SW2*%
X35850000Y53100000D03*
X38850000Y53100000D03*
%TD*%
D16*
%TO.C,J7*%
X9159998Y14737300D03*
X11699998Y14737300D03*
%TD*%
D12*
%TO.C,H4*%
X133000000Y6000000D03*
%TD*%
D10*
%TO.C,J8*%
X46249999Y15294500D03*
X37249999Y15294500D03*
D11*
X40249999Y13334500D03*
X43249999Y13334500D03*
%TD*%
D17*
%TO.C,C24*%
X82491900Y76615000D03*
X77491900Y76615000D03*
%TD*%
D13*
%TO.C,J6*%
X50000000Y122000000D03*
D14*
X55000000Y122000000D03*
%TD*%
D18*
%TO.C,L1*%
X70328100Y76644760D03*
X73328100Y76644760D03*
%TD*%
D17*
%TO.C,C25*%
X87000000Y123000000D03*
X87000000Y118000000D03*
%TD*%
D19*
%TO.C,J3*%
X5237500Y74040000D03*
X5237500Y68260000D03*
D20*
X5737500Y75470000D03*
D21*
X1557500Y75470000D03*
D20*
X5737500Y66830000D03*
D21*
X1557500Y66830000D03*
%TD*%
D16*
%TO.C,J5*%
X68049998Y14050001D03*
X65509998Y14050001D03*
%TD*%
D12*
%TO.C,H1*%
X6000000Y127000000D03*
%TD*%
D18*
%TO.C,L2*%
X42650000Y104925000D03*
X42650000Y107925000D03*
%TD*%
D22*
%TO.C,J2*%
X29796526Y64235000D03*
X30812526Y59155000D03*
X28780526Y59155000D03*
%TD*%
D12*
%TO.C,H2*%
X6000000Y6000000D03*
%TD*%
D18*
%TO.C,L3*%
X64350000Y109475000D03*
X64350000Y106475000D03*
%TD*%
M02*
