%TF.GenerationSoftware,KiCad,Pcbnew,8.0.4*%
%TF.CreationDate,2025-02-13T17:33:46-08:00*%
%TF.ProjectId,acdc_stimulator,61636463-5f73-4746-996d-756c61746f72,rev?*%
%TF.SameCoordinates,PX1ab3f00PYac9d740*%
%TF.FileFunction,Legend,Top*%
%TF.FilePolarity,Positive*%
%FSLAX46Y46*%
G04 Gerber Fmt 4.6, Leading zero omitted, Abs format (unit mm)*
G04 Created by KiCad (PCBNEW 8.0.4) date 2025-02-13 17:33:46*
%MOMM*%
%LPD*%
G01*
G04 APERTURE LIST*
%ADD10C,0.300000*%
%ADD11C,0.187500*%
%ADD12C,0.200000*%
%ADD13C,0.100000*%
%ADD14C,0.120000*%
%ADD15C,0.152400*%
%ADD16C,0.000000*%
%ADD17C,0.508000*%
G04 APERTURE END LIST*
D10*
X7233082Y126627743D02*
X7947368Y126627743D01*
X7090225Y126199172D02*
X7590225Y127699172D01*
X7590225Y127699172D02*
X8090225Y126199172D01*
X9447367Y126342029D02*
X9375939Y126270600D01*
X9375939Y126270600D02*
X9161653Y126199172D01*
X9161653Y126199172D02*
X9018796Y126199172D01*
X9018796Y126199172D02*
X8804510Y126270600D01*
X8804510Y126270600D02*
X8661653Y126413458D01*
X8661653Y126413458D02*
X8590224Y126556315D01*
X8590224Y126556315D02*
X8518796Y126842029D01*
X8518796Y126842029D02*
X8518796Y127056315D01*
X8518796Y127056315D02*
X8590224Y127342029D01*
X8590224Y127342029D02*
X8661653Y127484886D01*
X8661653Y127484886D02*
X8804510Y127627743D01*
X8804510Y127627743D02*
X9018796Y127699172D01*
X9018796Y127699172D02*
X9161653Y127699172D01*
X9161653Y127699172D02*
X9375939Y127627743D01*
X9375939Y127627743D02*
X9447367Y127556315D01*
X11161653Y127770600D02*
X9875939Y125842029D01*
X11661653Y126199172D02*
X11661653Y127699172D01*
X11661653Y127699172D02*
X12018796Y127699172D01*
X12018796Y127699172D02*
X12233082Y127627743D01*
X12233082Y127627743D02*
X12375939Y127484886D01*
X12375939Y127484886D02*
X12447368Y127342029D01*
X12447368Y127342029D02*
X12518796Y127056315D01*
X12518796Y127056315D02*
X12518796Y126842029D01*
X12518796Y126842029D02*
X12447368Y126556315D01*
X12447368Y126556315D02*
X12375939Y126413458D01*
X12375939Y126413458D02*
X12233082Y126270600D01*
X12233082Y126270600D02*
X12018796Y126199172D01*
X12018796Y126199172D02*
X11661653Y126199172D01*
X14018796Y126342029D02*
X13947368Y126270600D01*
X13947368Y126270600D02*
X13733082Y126199172D01*
X13733082Y126199172D02*
X13590225Y126199172D01*
X13590225Y126199172D02*
X13375939Y126270600D01*
X13375939Y126270600D02*
X13233082Y126413458D01*
X13233082Y126413458D02*
X13161653Y126556315D01*
X13161653Y126556315D02*
X13090225Y126842029D01*
X13090225Y126842029D02*
X13090225Y127056315D01*
X13090225Y127056315D02*
X13161653Y127342029D01*
X13161653Y127342029D02*
X13233082Y127484886D01*
X13233082Y127484886D02*
X13375939Y127627743D01*
X13375939Y127627743D02*
X13590225Y127699172D01*
X13590225Y127699172D02*
X13733082Y127699172D01*
X13733082Y127699172D02*
X13947368Y127627743D01*
X13947368Y127627743D02*
X14018796Y127556315D01*
X15733082Y126270600D02*
X15947368Y126199172D01*
X15947368Y126199172D02*
X16304510Y126199172D01*
X16304510Y126199172D02*
X16447368Y126270600D01*
X16447368Y126270600D02*
X16518796Y126342029D01*
X16518796Y126342029D02*
X16590225Y126484886D01*
X16590225Y126484886D02*
X16590225Y126627743D01*
X16590225Y126627743D02*
X16518796Y126770600D01*
X16518796Y126770600D02*
X16447368Y126842029D01*
X16447368Y126842029D02*
X16304510Y126913458D01*
X16304510Y126913458D02*
X16018796Y126984886D01*
X16018796Y126984886D02*
X15875939Y127056315D01*
X15875939Y127056315D02*
X15804510Y127127743D01*
X15804510Y127127743D02*
X15733082Y127270600D01*
X15733082Y127270600D02*
X15733082Y127413458D01*
X15733082Y127413458D02*
X15804510Y127556315D01*
X15804510Y127556315D02*
X15875939Y127627743D01*
X15875939Y127627743D02*
X16018796Y127699172D01*
X16018796Y127699172D02*
X16375939Y127699172D01*
X16375939Y127699172D02*
X16590225Y127627743D01*
X17018796Y127199172D02*
X17590224Y127199172D01*
X17233081Y127699172D02*
X17233081Y126413458D01*
X17233081Y126413458D02*
X17304510Y126270600D01*
X17304510Y126270600D02*
X17447367Y126199172D01*
X17447367Y126199172D02*
X17590224Y126199172D01*
X18090224Y126199172D02*
X18090224Y127199172D01*
X18090224Y127699172D02*
X18018796Y127627743D01*
X18018796Y127627743D02*
X18090224Y127556315D01*
X18090224Y127556315D02*
X18161653Y127627743D01*
X18161653Y127627743D02*
X18090224Y127699172D01*
X18090224Y127699172D02*
X18090224Y127556315D01*
X18804510Y126199172D02*
X18804510Y127199172D01*
X18804510Y127056315D02*
X18875939Y127127743D01*
X18875939Y127127743D02*
X19018796Y127199172D01*
X19018796Y127199172D02*
X19233082Y127199172D01*
X19233082Y127199172D02*
X19375939Y127127743D01*
X19375939Y127127743D02*
X19447368Y126984886D01*
X19447368Y126984886D02*
X19447368Y126199172D01*
X19447368Y126984886D02*
X19518796Y127127743D01*
X19518796Y127127743D02*
X19661653Y127199172D01*
X19661653Y127199172D02*
X19875939Y127199172D01*
X19875939Y127199172D02*
X20018796Y127127743D01*
X20018796Y127127743D02*
X20090225Y126984886D01*
X20090225Y126984886D02*
X20090225Y126199172D01*
X21447368Y127199172D02*
X21447368Y126199172D01*
X20804510Y127199172D02*
X20804510Y126413458D01*
X20804510Y126413458D02*
X20875939Y126270600D01*
X20875939Y126270600D02*
X21018796Y126199172D01*
X21018796Y126199172D02*
X21233082Y126199172D01*
X21233082Y126199172D02*
X21375939Y126270600D01*
X21375939Y126270600D02*
X21447368Y126342029D01*
X22375939Y126199172D02*
X22233082Y126270600D01*
X22233082Y126270600D02*
X22161653Y126413458D01*
X22161653Y126413458D02*
X22161653Y127699172D01*
X23590225Y126199172D02*
X23590225Y126984886D01*
X23590225Y126984886D02*
X23518796Y127127743D01*
X23518796Y127127743D02*
X23375939Y127199172D01*
X23375939Y127199172D02*
X23090225Y127199172D01*
X23090225Y127199172D02*
X22947367Y127127743D01*
X23590225Y126270600D02*
X23447367Y126199172D01*
X23447367Y126199172D02*
X23090225Y126199172D01*
X23090225Y126199172D02*
X22947367Y126270600D01*
X22947367Y126270600D02*
X22875939Y126413458D01*
X22875939Y126413458D02*
X22875939Y126556315D01*
X22875939Y126556315D02*
X22947367Y126699172D01*
X22947367Y126699172D02*
X23090225Y126770600D01*
X23090225Y126770600D02*
X23447367Y126770600D01*
X23447367Y126770600D02*
X23590225Y126842029D01*
X24090225Y127199172D02*
X24661653Y127199172D01*
X24304510Y127699172D02*
X24304510Y126413458D01*
X24304510Y126413458D02*
X24375939Y126270600D01*
X24375939Y126270600D02*
X24518796Y126199172D01*
X24518796Y126199172D02*
X24661653Y126199172D01*
X25375939Y126199172D02*
X25233082Y126270600D01*
X25233082Y126270600D02*
X25161653Y126342029D01*
X25161653Y126342029D02*
X25090225Y126484886D01*
X25090225Y126484886D02*
X25090225Y126913458D01*
X25090225Y126913458D02*
X25161653Y127056315D01*
X25161653Y127056315D02*
X25233082Y127127743D01*
X25233082Y127127743D02*
X25375939Y127199172D01*
X25375939Y127199172D02*
X25590225Y127199172D01*
X25590225Y127199172D02*
X25733082Y127127743D01*
X25733082Y127127743D02*
X25804511Y127056315D01*
X25804511Y127056315D02*
X25875939Y126913458D01*
X25875939Y126913458D02*
X25875939Y126484886D01*
X25875939Y126484886D02*
X25804511Y126342029D01*
X25804511Y126342029D02*
X25733082Y126270600D01*
X25733082Y126270600D02*
X25590225Y126199172D01*
X25590225Y126199172D02*
X25375939Y126199172D01*
X26518796Y126199172D02*
X26518796Y127199172D01*
X26518796Y126913458D02*
X26590225Y127056315D01*
X26590225Y127056315D02*
X26661654Y127127743D01*
X26661654Y127127743D02*
X26804511Y127199172D01*
X26804511Y127199172D02*
X26947368Y127199172D01*
D11*
X7313831Y124027790D02*
X7790021Y124027790D01*
X7218593Y123742075D02*
X7551926Y124742075D01*
X7551926Y124742075D02*
X7885259Y123742075D01*
X8218593Y124408742D02*
X8218593Y123742075D01*
X8218593Y124313504D02*
X8266212Y124361123D01*
X8266212Y124361123D02*
X8361450Y124408742D01*
X8361450Y124408742D02*
X8504307Y124408742D01*
X8504307Y124408742D02*
X8599545Y124361123D01*
X8599545Y124361123D02*
X8647164Y124265885D01*
X8647164Y124265885D02*
X8647164Y123742075D01*
X9551926Y124408742D02*
X9551926Y123742075D01*
X9123355Y124408742D02*
X9123355Y123884933D01*
X9123355Y123884933D02*
X9170974Y123789694D01*
X9170974Y123789694D02*
X9266212Y123742075D01*
X9266212Y123742075D02*
X9409069Y123742075D01*
X9409069Y123742075D02*
X9504307Y123789694D01*
X9504307Y123789694D02*
X9551926Y123837314D01*
X9980498Y123789694D02*
X10075736Y123742075D01*
X10075736Y123742075D02*
X10266212Y123742075D01*
X10266212Y123742075D02*
X10361450Y123789694D01*
X10361450Y123789694D02*
X10409069Y123884933D01*
X10409069Y123884933D02*
X10409069Y123932552D01*
X10409069Y123932552D02*
X10361450Y124027790D01*
X10361450Y124027790D02*
X10266212Y124075409D01*
X10266212Y124075409D02*
X10123355Y124075409D01*
X10123355Y124075409D02*
X10028117Y124123028D01*
X10028117Y124123028D02*
X9980498Y124218266D01*
X9980498Y124218266D02*
X9980498Y124265885D01*
X9980498Y124265885D02*
X10028117Y124361123D01*
X10028117Y124361123D02*
X10123355Y124408742D01*
X10123355Y124408742D02*
X10266212Y124408742D01*
X10266212Y124408742D02*
X10361450Y124361123D01*
X10837641Y123742075D02*
X10837641Y124742075D01*
X11266212Y123742075D02*
X11266212Y124265885D01*
X11266212Y124265885D02*
X11218593Y124361123D01*
X11218593Y124361123D02*
X11123355Y124408742D01*
X11123355Y124408742D02*
X10980498Y124408742D01*
X10980498Y124408742D02*
X10885260Y124361123D01*
X10885260Y124361123D02*
X10837641Y124313504D01*
X12504308Y123742075D02*
X12504308Y124742075D01*
X12504308Y124742075D02*
X12837641Y124027790D01*
X12837641Y124027790D02*
X13170974Y124742075D01*
X13170974Y124742075D02*
X13170974Y123742075D01*
X14075736Y124408742D02*
X14075736Y123742075D01*
X13647165Y124408742D02*
X13647165Y123884933D01*
X13647165Y123884933D02*
X13694784Y123789694D01*
X13694784Y123789694D02*
X13790022Y123742075D01*
X13790022Y123742075D02*
X13932879Y123742075D01*
X13932879Y123742075D02*
X14028117Y123789694D01*
X14028117Y123789694D02*
X14075736Y123837314D01*
X14409070Y124408742D02*
X14790022Y124408742D01*
X14551927Y124742075D02*
X14551927Y123884933D01*
X14551927Y123884933D02*
X14599546Y123789694D01*
X14599546Y123789694D02*
X14694784Y123742075D01*
X14694784Y123742075D02*
X14790022Y123742075D01*
X15028118Y124408742D02*
X15266213Y123742075D01*
X15504308Y124408742D02*
X15266213Y123742075D01*
X15266213Y123742075D02*
X15170975Y123503980D01*
X15170975Y123503980D02*
X15123356Y123456361D01*
X15123356Y123456361D02*
X15028118Y123408742D01*
X16313832Y123742075D02*
X16313832Y124265885D01*
X16313832Y124265885D02*
X16266213Y124361123D01*
X16266213Y124361123D02*
X16170975Y124408742D01*
X16170975Y124408742D02*
X15980499Y124408742D01*
X15980499Y124408742D02*
X15885261Y124361123D01*
X16313832Y123789694D02*
X16218594Y123742075D01*
X16218594Y123742075D02*
X15980499Y123742075D01*
X15980499Y123742075D02*
X15885261Y123789694D01*
X15885261Y123789694D02*
X15837642Y123884933D01*
X15837642Y123884933D02*
X15837642Y123980171D01*
X15837642Y123980171D02*
X15885261Y124075409D01*
X15885261Y124075409D02*
X15980499Y124123028D01*
X15980499Y124123028D02*
X16218594Y124123028D01*
X16218594Y124123028D02*
X16313832Y124170647D01*
X16932880Y123742075D02*
X16837642Y123789694D01*
X16837642Y123789694D02*
X16790023Y123884933D01*
X16790023Y123884933D02*
X16790023Y124742075D01*
X17742404Y123742075D02*
X17742404Y124265885D01*
X17742404Y124265885D02*
X17694785Y124361123D01*
X17694785Y124361123D02*
X17599547Y124408742D01*
X17599547Y124408742D02*
X17409071Y124408742D01*
X17409071Y124408742D02*
X17313833Y124361123D01*
X17742404Y123789694D02*
X17647166Y123742075D01*
X17647166Y123742075D02*
X17409071Y123742075D01*
X17409071Y123742075D02*
X17313833Y123789694D01*
X17313833Y123789694D02*
X17266214Y123884933D01*
X17266214Y123884933D02*
X17266214Y123980171D01*
X17266214Y123980171D02*
X17313833Y124075409D01*
X17313833Y124075409D02*
X17409071Y124123028D01*
X17409071Y124123028D02*
X17647166Y124123028D01*
X17647166Y124123028D02*
X17742404Y124170647D01*
X7551926Y123132131D02*
X7647164Y123132131D01*
X7647164Y123132131D02*
X7742402Y123084512D01*
X7742402Y123084512D02*
X7790021Y123036893D01*
X7790021Y123036893D02*
X7837640Y122941655D01*
X7837640Y122941655D02*
X7885259Y122751179D01*
X7885259Y122751179D02*
X7885259Y122513084D01*
X7885259Y122513084D02*
X7837640Y122322608D01*
X7837640Y122322608D02*
X7790021Y122227370D01*
X7790021Y122227370D02*
X7742402Y122179750D01*
X7742402Y122179750D02*
X7647164Y122132131D01*
X7647164Y122132131D02*
X7551926Y122132131D01*
X7551926Y122132131D02*
X7456688Y122179750D01*
X7456688Y122179750D02*
X7409069Y122227370D01*
X7409069Y122227370D02*
X7361450Y122322608D01*
X7361450Y122322608D02*
X7313831Y122513084D01*
X7313831Y122513084D02*
X7313831Y122751179D01*
X7313831Y122751179D02*
X7361450Y122941655D01*
X7361450Y122941655D02*
X7409069Y123036893D01*
X7409069Y123036893D02*
X7456688Y123084512D01*
X7456688Y123084512D02*
X7551926Y123132131D01*
X8837640Y122132131D02*
X8266212Y122132131D01*
X8551926Y122132131D02*
X8551926Y123132131D01*
X8551926Y123132131D02*
X8456688Y122989274D01*
X8456688Y122989274D02*
X8361450Y122894036D01*
X8361450Y122894036D02*
X8266212Y122846417D01*
X9980497Y123179750D02*
X9123355Y121894036D01*
X10504307Y123132131D02*
X10599545Y123132131D01*
X10599545Y123132131D02*
X10694783Y123084512D01*
X10694783Y123084512D02*
X10742402Y123036893D01*
X10742402Y123036893D02*
X10790021Y122941655D01*
X10790021Y122941655D02*
X10837640Y122751179D01*
X10837640Y122751179D02*
X10837640Y122513084D01*
X10837640Y122513084D02*
X10790021Y122322608D01*
X10790021Y122322608D02*
X10742402Y122227370D01*
X10742402Y122227370D02*
X10694783Y122179750D01*
X10694783Y122179750D02*
X10599545Y122132131D01*
X10599545Y122132131D02*
X10504307Y122132131D01*
X10504307Y122132131D02*
X10409069Y122179750D01*
X10409069Y122179750D02*
X10361450Y122227370D01*
X10361450Y122227370D02*
X10313831Y122322608D01*
X10313831Y122322608D02*
X10266212Y122513084D01*
X10266212Y122513084D02*
X10266212Y122751179D01*
X10266212Y122751179D02*
X10313831Y122941655D01*
X10313831Y122941655D02*
X10361450Y123036893D01*
X10361450Y123036893D02*
X10409069Y123084512D01*
X10409069Y123084512D02*
X10504307Y123132131D01*
X11790021Y122132131D02*
X11218593Y122132131D01*
X11504307Y122132131D02*
X11504307Y123132131D01*
X11504307Y123132131D02*
X11409069Y122989274D01*
X11409069Y122989274D02*
X11313831Y122894036D01*
X11313831Y122894036D02*
X11218593Y122846417D01*
X12932878Y123179750D02*
X12075736Y121894036D01*
X13218593Y123036893D02*
X13266212Y123084512D01*
X13266212Y123084512D02*
X13361450Y123132131D01*
X13361450Y123132131D02*
X13599545Y123132131D01*
X13599545Y123132131D02*
X13694783Y123084512D01*
X13694783Y123084512D02*
X13742402Y123036893D01*
X13742402Y123036893D02*
X13790021Y122941655D01*
X13790021Y122941655D02*
X13790021Y122846417D01*
X13790021Y122846417D02*
X13742402Y122703560D01*
X13742402Y122703560D02*
X13170974Y122132131D01*
X13170974Y122132131D02*
X13790021Y122132131D01*
X14694783Y123132131D02*
X14218593Y123132131D01*
X14218593Y123132131D02*
X14170974Y122655941D01*
X14170974Y122655941D02*
X14218593Y122703560D01*
X14218593Y122703560D02*
X14313831Y122751179D01*
X14313831Y122751179D02*
X14551926Y122751179D01*
X14551926Y122751179D02*
X14647164Y122703560D01*
X14647164Y122703560D02*
X14694783Y122655941D01*
X14694783Y122655941D02*
X14742402Y122560703D01*
X14742402Y122560703D02*
X14742402Y122322608D01*
X14742402Y122322608D02*
X14694783Y122227370D01*
X14694783Y122227370D02*
X14647164Y122179750D01*
X14647164Y122179750D02*
X14551926Y122132131D01*
X14551926Y122132131D02*
X14313831Y122132131D01*
X14313831Y122132131D02*
X14218593Y122179750D01*
X14218593Y122179750D02*
X14170974Y122227370D01*
D12*
%TO.C,Q1*%
X87517500Y78424640D02*
X87517500Y78424640D01*
X87517500Y78624640D02*
X87517500Y78624640D01*
D13*
X86367500Y77874640D02*
X83067500Y77874640D01*
X86367500Y78024640D02*
X86367500Y77874640D01*
X86367500Y81024640D02*
X86367500Y81174640D01*
X86367500Y81174640D02*
X83067500Y81174640D01*
X83067500Y77874640D02*
X83067500Y78024640D01*
X83067500Y81174640D02*
X83067500Y81024640D01*
D12*
X87517500Y78424640D02*
G75*
G02*
X87517500Y78624640I0J100000D01*
G01*
X87517500Y78624640D02*
G75*
G02*
X87517500Y78424640I0J-100000D01*
G01*
%TO.C,Q11*%
X71250000Y102480000D02*
X71250000Y102480000D01*
X71450000Y102480000D02*
X71450000Y102480000D01*
D13*
X70700000Y103630000D02*
X70700000Y106930000D01*
X70850000Y103630000D02*
X70700000Y103630000D01*
X73850000Y103630000D02*
X74000000Y103630000D01*
X74000000Y103630000D02*
X74000000Y106930000D01*
X70700000Y106930000D02*
X70850000Y106930000D01*
X74000000Y106930000D02*
X73850000Y106930000D01*
D12*
X71250000Y102480000D02*
G75*
G02*
X71450000Y102480000I100000J0D01*
G01*
X71450000Y102480000D02*
G75*
G02*
X71250000Y102480000I-100000J0D01*
G01*
%TO.C,Q6*%
X48450000Y99090000D02*
X48450000Y99090000D01*
X48650000Y99090000D02*
X48650000Y99090000D01*
D13*
X47900000Y100240000D02*
X47900000Y103540000D01*
X48050000Y100240000D02*
X47900000Y100240000D01*
X51050000Y100240000D02*
X51200000Y100240000D01*
X51200000Y100240000D02*
X51200000Y103540000D01*
X47900000Y103540000D02*
X48050000Y103540000D01*
X51200000Y103540000D02*
X51050000Y103540000D01*
D12*
X48450000Y99090000D02*
G75*
G02*
X48650000Y99090000I100000J0D01*
G01*
X48650000Y99090000D02*
G75*
G02*
X48450000Y99090000I-100000J0D01*
G01*
%TO.C,Q10*%
X64650000Y109680000D02*
X64650000Y109680000D01*
X64850000Y109680000D02*
X64850000Y109680000D01*
D13*
X64100000Y110830000D02*
X64100000Y114130000D01*
X64250000Y110830000D02*
X64100000Y110830000D01*
X67250000Y110830000D02*
X67400000Y110830000D01*
X67400000Y110830000D02*
X67400000Y114130000D01*
X64100000Y114130000D02*
X64250000Y114130000D01*
X67400000Y114130000D02*
X67250000Y114130000D01*
D12*
X64650000Y109680000D02*
G75*
G02*
X64850000Y109680000I100000J0D01*
G01*
X64850000Y109680000D02*
G75*
G02*
X64650000Y109680000I-100000J0D01*
G01*
%TO.C,Q7*%
X42950000Y106400000D02*
X42950000Y106400000D01*
X43150000Y106400000D02*
X43150000Y106400000D01*
D13*
X42400000Y107550000D02*
X42400000Y110850000D01*
X42550000Y107550000D02*
X42400000Y107550000D01*
X45550000Y107550000D02*
X45700000Y107550000D01*
X45700000Y107550000D02*
X45700000Y110850000D01*
X42400000Y110850000D02*
X42550000Y110850000D01*
X45700000Y110850000D02*
X45550000Y110850000D01*
D12*
X42950000Y106400000D02*
G75*
G02*
X43150000Y106400000I100000J0D01*
G01*
X43150000Y106400000D02*
G75*
G02*
X42950000Y106400000I-100000J0D01*
G01*
%TO.C,L8*%
X83400000Y20225000D02*
X83400000Y12225000D01*
X91400000Y12225000D02*
X91400000Y20225000D01*
%TO.C,IC7*%
X61537500Y65437500D02*
X61537500Y66037500D01*
X61537500Y66037500D02*
X64437500Y66037500D01*
X64437500Y66037500D02*
X64437500Y65437500D01*
X64437500Y65437500D02*
X61537500Y65437500D01*
X61437500Y63887500D02*
X61437500Y65087500D01*
%TO.C,D5*%
X98098000Y14377000D02*
X92575000Y14377000D01*
X92902000Y11773000D02*
X98098000Y11773000D01*
%TO.C,IC3*%
X92962500Y39000000D02*
X91512500Y39000000D01*
D14*
%TO.C,C27*%
X84377500Y40027836D02*
X84377500Y39812164D01*
X85097500Y40027836D02*
X85097500Y39812164D01*
%TO.C,C42*%
X69929664Y53260000D02*
X70145336Y53260000D01*
X69929664Y52540000D02*
X70145336Y52540000D01*
D12*
%TO.C,J9*%
X18074999Y11682300D02*
X18074999Y14812300D01*
X21394999Y16252300D02*
X21394999Y15752300D01*
X21394999Y15752300D02*
X19499999Y15752300D01*
X22494999Y16252300D02*
X21394999Y16252300D01*
X22494999Y15752300D02*
X22494999Y16252300D01*
X23500499Y15752300D02*
X22494999Y15752300D01*
X23504999Y16252300D02*
X23500499Y15752300D01*
X24604999Y16252300D02*
X23504999Y16252300D01*
X24604999Y15752300D02*
X24604999Y16252300D01*
X26499999Y15752300D02*
X24604999Y15752300D01*
X27924999Y14812300D02*
X27924999Y11682300D01*
X27924999Y11682300D02*
X18074999Y11682300D01*
X20199999Y13712300D02*
G75*
G02*
X19999999Y13712300I-100000J0D01*
G01*
X19999999Y13712300D02*
G75*
G02*
X20199999Y13712300I100000J0D01*
G01*
D14*
%TO.C,R17*%
X95065000Y47587742D02*
X95065000Y48062258D01*
X96110000Y47587742D02*
X96110000Y48062258D01*
%TO.C,R1*%
X36056359Y75580000D02*
X36363641Y75580000D01*
X36056359Y74820000D02*
X36363641Y74820000D01*
D12*
%TO.C,Q9*%
X70123000Y115643000D02*
X70123000Y116073000D01*
D13*
X72600000Y109033000D02*
X72600000Y109033000D01*
X72600000Y108933000D02*
X72600000Y108933000D01*
D12*
X80177000Y116073000D02*
X80177000Y115643000D01*
X80177000Y115643000D02*
X70123000Y115643000D01*
D13*
X72600000Y109033000D02*
G75*
G02*
X72600000Y108933000I0J-50000D01*
G01*
X72600000Y108933000D02*
G75*
G02*
X72600000Y109033000I0J50000D01*
G01*
D14*
%TO.C,R3*%
X40086359Y69140000D02*
X40393641Y69140000D01*
X40086359Y68380000D02*
X40393641Y68380000D01*
%TO.C,C38*%
X88852500Y66510000D02*
X92602500Y66510000D01*
X88852500Y57054437D02*
X88852500Y66510000D01*
X89916937Y55990000D02*
X88852500Y57054437D01*
X89916937Y55990000D02*
X92602500Y55990000D01*
X90727500Y55125000D02*
X91977500Y55125000D01*
X91352500Y54500000D02*
X91352500Y55750000D01*
X98308063Y55990000D02*
X95622500Y55990000D01*
X98308063Y55990000D02*
X99372500Y57054437D01*
X99372500Y66510000D02*
X95622500Y66510000D01*
X99372500Y57054437D02*
X99372500Y66510000D01*
%TO.C,C33*%
X79095000Y27691252D02*
X79095000Y26268748D01*
X80915000Y27691252D02*
X80915000Y26268748D01*
%TO.C,C3*%
X46690000Y63645563D02*
X46690000Y59190000D01*
X46690000Y59190000D02*
X48390000Y59190000D01*
X47754437Y64710000D02*
X46690000Y63645563D01*
X47754437Y64710000D02*
X48390000Y64710000D01*
X51135000Y65575000D02*
X51135000Y64950000D01*
X51145563Y64710000D02*
X50510000Y64710000D01*
X51145563Y64710000D02*
X52210000Y63645563D01*
X51447500Y65262500D02*
X50822500Y65262500D01*
X52210000Y63645563D02*
X52210000Y59190000D01*
X52210000Y59190000D02*
X50510000Y59190000D01*
%TO.C,R7*%
X70701900Y79073641D02*
X70701900Y78766359D01*
X71461900Y79073641D02*
X71461900Y78766359D01*
%TO.C,R28*%
X81627500Y19237258D02*
X81627500Y18762742D01*
X82672500Y19237258D02*
X82672500Y18762742D01*
%TO.C,C30*%
X86015000Y27691252D02*
X86015000Y26268748D01*
X87835000Y27691252D02*
X87835000Y26268748D01*
%TO.C,U1*%
X32790000Y89785000D02*
X32790000Y88835000D01*
X32790000Y79565000D02*
X32790000Y80515000D01*
X33740000Y89785000D02*
X32790000Y89785000D01*
X33740000Y79565000D02*
X32790000Y79565000D01*
X42060000Y89785000D02*
X43010000Y89785000D01*
X42060000Y79565000D02*
X43010000Y79565000D01*
X43010000Y89785000D02*
X43010000Y88835000D01*
X43010000Y79565000D02*
X43010000Y80515000D01*
X43965000Y80045000D02*
X43285000Y80045000D01*
X43625000Y80515000D01*
X43965000Y80045000D01*
G36*
X43965000Y80045000D02*
G01*
X43285000Y80045000D01*
X43625000Y80515000D01*
X43965000Y80045000D01*
G37*
%TO.C,C54*%
X93513748Y16935000D02*
X94936252Y16935000D01*
X93513748Y15115000D02*
X94936252Y15115000D01*
%TO.C,C13*%
X32790000Y90922164D02*
X32790000Y91137836D01*
X33510000Y90922164D02*
X33510000Y91137836D01*
%TO.C,C20*%
X35572164Y98135000D02*
X35787836Y98135000D01*
X35572164Y97415000D02*
X35787836Y97415000D01*
%TO.C,R20*%
X98535436Y40465000D02*
X99989564Y40465000D01*
X98535436Y38645000D02*
X99989564Y38645000D01*
%TO.C,R10*%
X78535436Y82659640D02*
X78989564Y82659640D01*
X78535436Y81189640D02*
X78989564Y81189640D01*
%TO.C,C15*%
X41777836Y77610000D02*
X41562164Y77610000D01*
X41777836Y76890000D02*
X41562164Y76890000D01*
%TO.C,C26*%
X84377500Y47672164D02*
X84377500Y47887836D01*
X85097500Y47672164D02*
X85097500Y47887836D01*
%TO.C,J1*%
X70727500Y70785000D02*
X70727500Y58185000D01*
X70727500Y58185000D02*
X81077500Y58185000D01*
X81077500Y65985000D02*
X81577500Y65685000D01*
X81077500Y60585000D02*
X81077500Y65985000D01*
X81077500Y59135000D02*
X81577500Y58885000D01*
X81077500Y58185000D02*
X81077500Y59135000D01*
X81577500Y70785000D02*
X70727500Y70785000D01*
X81577500Y65685000D02*
X81577500Y70785000D01*
X81577500Y60835000D02*
X81077500Y60585000D01*
X81577500Y60785000D02*
X81577500Y60835000D01*
X81577500Y58885000D02*
X81577500Y60785000D01*
D15*
%TO.C,MOSFET1*%
X36836800Y30157900D02*
X36836800Y26500300D01*
X36836800Y26500300D02*
X37151760Y26500300D01*
X37151760Y30157900D02*
X36836800Y30157900D01*
X40179440Y26500300D02*
X40494400Y26500300D01*
X40494400Y30157900D02*
X40179440Y30157900D01*
X40494400Y26500300D02*
X40494400Y30157900D01*
D14*
%TO.C,C4*%
X52490000Y64722164D02*
X52490000Y64937836D01*
X53210000Y64722164D02*
X53210000Y64937836D01*
%TO.C,C44*%
X69949664Y48960000D02*
X70165336Y48960000D01*
X69949664Y48240000D02*
X70165336Y48240000D01*
%TO.C,C45*%
X98386252Y47390000D02*
X97863748Y47390000D01*
X98386252Y45920000D02*
X97863748Y45920000D01*
%TO.C,C32*%
X81415000Y27691252D02*
X81415000Y26268748D01*
X83235000Y27691252D02*
X83235000Y26268748D01*
%TO.C,R21*%
X96845000Y44461359D02*
X96845000Y44768641D01*
X97605000Y44461359D02*
X97605000Y44768641D01*
%TO.C,R9*%
X75010436Y82659640D02*
X75464564Y82659640D01*
X75010436Y81189640D02*
X75464564Y81189640D01*
%TO.C,C16*%
X12413748Y85685000D02*
X12936252Y85685000D01*
X12413748Y84215000D02*
X12936252Y84215000D01*
%TO.C,C5*%
X37224664Y94125000D02*
X37440336Y94125000D01*
X37224664Y93405000D02*
X37440336Y93405000D01*
D12*
%TO.C,L4*%
X80087500Y37650000D02*
X80087500Y35600000D01*
X80087500Y32400000D02*
X80087500Y30350000D01*
X80087500Y30350000D02*
X87387500Y30350000D01*
X87387500Y37650000D02*
X80087500Y37650000D01*
X87387500Y35600000D02*
X87387500Y37650000D01*
X87387500Y30350000D02*
X87387500Y32400000D01*
D13*
X88137500Y34000000D02*
X88137500Y34000000D01*
X88237500Y34000000D02*
X88237500Y34000000D01*
X88137500Y34000000D02*
G75*
G02*
X88237500Y34000000I50000J0D01*
G01*
X88237500Y34000000D02*
G75*
G02*
X88137500Y34000000I-50000J0D01*
G01*
D14*
%TO.C,Y1*%
X48500000Y84825000D02*
X48500000Y81525000D01*
X48500000Y81525000D02*
X52500000Y81525000D01*
%TO.C,F1*%
X9137221Y86860000D02*
X9462779Y86860000D01*
X9137221Y85840000D02*
X9462779Y85840000D01*
%TO.C,C9*%
X45040000Y81387164D02*
X45040000Y81602836D01*
X45760000Y81387164D02*
X45760000Y81602836D01*
%TO.C,C35*%
X90238748Y31350000D02*
X91661252Y31350000D01*
X90238748Y29530000D02*
X91661252Y29530000D01*
%TO.C,SW2*%
X34050000Y65500000D02*
X34050000Y64710000D01*
X34650000Y63700000D02*
X40350000Y63700000D01*
X35900000Y66550000D02*
X37600000Y66550000D01*
X36100000Y63700000D02*
X36100000Y62410000D01*
X36100000Y62410000D02*
X36300000Y62200000D01*
X36300000Y62200000D02*
X37200000Y62200000D01*
X37400000Y62410000D02*
X37200000Y62200000D01*
X37400000Y62410000D02*
X37400000Y63700000D01*
X38900000Y66550000D02*
X39100000Y66550000D01*
X40950000Y64710000D02*
X40950000Y65500000D01*
%TO.C,R13*%
X84743100Y88912936D02*
X84743100Y89367064D01*
X86213100Y88912936D02*
X86213100Y89367064D01*
%TO.C,R4*%
X7461359Y92430000D02*
X7768641Y92430000D01*
X7461359Y91670000D02*
X7768641Y91670000D01*
D15*
%TO.C,J7*%
X6896998Y18033300D02*
X6896998Y11683300D01*
X6896998Y11683300D02*
X14262998Y11683300D01*
X14262998Y18033300D02*
X6896998Y18033300D01*
X14262998Y11683300D02*
X14262998Y18033300D01*
D14*
%TO.C,C51*%
X30627836Y27735000D02*
X30412164Y27735000D01*
X30627836Y27015000D02*
X30412164Y27015000D01*
%TO.C,R16*%
X94640000Y38177936D02*
X94640000Y39632064D01*
X96460000Y38177936D02*
X96460000Y39632064D01*
%TO.C,R23*%
X76318641Y108165000D02*
X76011359Y108165000D01*
X76318641Y107405000D02*
X76011359Y107405000D01*
%TO.C,C40*%
X87402500Y63602097D02*
X87402500Y63883257D01*
X88422500Y63602097D02*
X88422500Y63883257D01*
D12*
%TO.C,IC4*%
X77895000Y16394000D02*
X80495000Y16375000D01*
X80495000Y12355000D02*
X77895000Y12355000D01*
D13*
X82295000Y12625000D02*
X82295000Y12625000D01*
X82395000Y12625000D02*
X82395000Y12625000D01*
X82295000Y12625000D02*
G75*
G02*
X82395000Y12625000I50000J0D01*
G01*
X82395000Y12625000D02*
G75*
G02*
X82295000Y12625000I-50000J0D01*
G01*
D12*
%TO.C,J8*%
X36974999Y11679500D02*
X36974999Y14809500D01*
X40294999Y16249500D02*
X40294999Y15749500D01*
X40294999Y15749500D02*
X38399999Y15749500D01*
X41394999Y16249500D02*
X40294999Y16249500D01*
X41394999Y15749500D02*
X41394999Y16249500D01*
X42400499Y15749500D02*
X41394999Y15749500D01*
X42404999Y16249500D02*
X42400499Y15749500D01*
X43504999Y16249500D02*
X42404999Y16249500D01*
X43504999Y15749500D02*
X43504999Y16249500D01*
X45399999Y15749500D02*
X43504999Y15749500D01*
X46824999Y14809500D02*
X46824999Y11679500D01*
X46824999Y11679500D02*
X36974999Y11679500D01*
X39099999Y13709500D02*
G75*
G02*
X38899999Y13709500I-100000J0D01*
G01*
X38899999Y13709500D02*
G75*
G02*
X39099999Y13709500I100000J0D01*
G01*
D14*
%TO.C,U3*%
X9925000Y83710000D02*
X9125000Y83710000D01*
X9925000Y83710000D02*
X10725000Y83710000D01*
X9925000Y80590000D02*
X9125000Y80590000D01*
X9925000Y80590000D02*
X10725000Y80590000D01*
X8625000Y83660000D02*
X8385000Y83990000D01*
X8865000Y83990000D01*
X8625000Y83660000D01*
G36*
X8625000Y83660000D02*
G01*
X8385000Y83990000D01*
X8865000Y83990000D01*
X8625000Y83660000D01*
G37*
%TO.C,C37*%
X90238748Y35950000D02*
X91661252Y35950000D01*
X90238748Y34130000D02*
X91661252Y34130000D01*
%TO.C,SW1*%
X28750000Y69350000D02*
X28750000Y64950000D01*
X30250000Y69350000D02*
X30350000Y69350000D01*
X30250000Y64950000D02*
X30350000Y64950000D01*
X31850000Y64950000D02*
X31850000Y69350000D01*
%TO.C,C24*%
X76271900Y87245000D02*
X76271900Y89985000D01*
X84011900Y89985000D02*
X76271900Y89985000D01*
X84011900Y87245000D02*
X76271900Y87245000D01*
X84011900Y87245000D02*
X84011900Y89985000D01*
%TO.C,C41*%
X94890000Y43593748D02*
X94890000Y44116252D01*
X96360000Y43593748D02*
X96360000Y44116252D01*
D15*
%TO.C,U7*%
X24623298Y34817715D02*
X24623298Y30601285D01*
X32776698Y30601285D02*
X32776698Y34817715D01*
D16*
G36*
X26615499Y36621100D02*
G01*
X26234499Y36621100D01*
X26234499Y36875100D01*
X26615499Y36875100D01*
X26615499Y36621100D01*
G37*
G36*
X29865497Y28543900D02*
G01*
X29484497Y28543900D01*
X29484497Y28797900D01*
X29865497Y28797900D01*
X29865497Y28543900D01*
G37*
D15*
%TO.C,U4*%
X57020300Y101288643D02*
X57020300Y97611357D01*
X62379700Y97611357D02*
X62379700Y101288643D01*
D16*
G36*
X61516100Y103260000D02*
G01*
X61135100Y103260000D01*
X61135100Y103514000D01*
X61516100Y103514000D01*
X61516100Y103260000D01*
G37*
D14*
%TO.C,FB1*%
X33290000Y96824721D02*
X33290000Y97150279D01*
X34310000Y96824721D02*
X34310000Y97150279D01*
%TO.C,Q2*%
X7014999Y33080500D02*
X7014999Y29320500D01*
X7014999Y29320500D02*
X8274999Y29320500D01*
X13834999Y33080500D02*
X13834999Y29320500D01*
X13834999Y29320500D02*
X12574999Y29320500D01*
X14064999Y34120500D02*
X13734999Y34360500D01*
X14064999Y34600500D01*
X14064999Y34120500D01*
G36*
X14064999Y34120500D02*
G01*
X13734999Y34360500D01*
X14064999Y34600500D01*
X14064999Y34120500D01*
G37*
%TO.C,C8*%
X46084420Y80085000D02*
X46365580Y80085000D01*
X46084420Y79065000D02*
X46365580Y79065000D01*
D15*
%TO.C,U5*%
X75043257Y75320300D02*
X78720543Y75320300D01*
X78720543Y80679700D02*
X75043257Y80679700D01*
D16*
G36*
X80945900Y76183900D02*
G01*
X80691900Y76183900D01*
X80691900Y76564900D01*
X80945900Y76564900D01*
X80945900Y76183900D01*
G37*
D14*
%TO.C,C19*%
X35572164Y96535000D02*
X35787836Y96535000D01*
X35572164Y95815000D02*
X35787836Y95815000D01*
%TO.C,J6*%
X47500000Y140300000D02*
X47500000Y127700000D01*
X47500000Y127700000D02*
X57850000Y127700000D01*
X57850000Y135500000D02*
X58350000Y135200000D01*
X57850000Y130100000D02*
X57850000Y135500000D01*
X57850000Y128650000D02*
X58350000Y128400000D01*
X57850000Y127700000D02*
X57850000Y128650000D01*
X58350000Y140300000D02*
X47500000Y140300000D01*
X58350000Y135200000D02*
X58350000Y140300000D01*
X58350000Y130350000D02*
X57850000Y130100000D01*
X58350000Y130300000D02*
X58350000Y130350000D01*
X58350000Y128400000D02*
X58350000Y130300000D01*
%TO.C,L1*%
X75598100Y88644760D02*
G75*
G02*
X68358100Y88644760I-3620000J0D01*
G01*
X68358100Y88644760D02*
G75*
G02*
X75598100Y88644760I3620000J0D01*
G01*
%TO.C,C18*%
X8990000Y90538748D02*
X8990000Y91061252D01*
X10460000Y90538748D02*
X10460000Y91061252D01*
%TO.C,C50*%
X32627836Y27735000D02*
X32412164Y27735000D01*
X32627836Y27015000D02*
X32412164Y27015000D01*
%TO.C,C25*%
X85780000Y136370000D02*
X85780000Y128630000D01*
X88520000Y136370000D02*
X85780000Y136370000D01*
X88520000Y136370000D02*
X88520000Y128630000D01*
X88520000Y128630000D02*
X85780000Y128630000D01*
%TO.C,J3*%
X-1002500Y87730000D02*
X702500Y87730000D01*
X-1002500Y78570000D02*
X-1002500Y87730000D01*
X702500Y78570000D02*
X-1002500Y78570000D01*
X2712500Y78570000D02*
X4632500Y78570000D01*
X4632500Y87730000D02*
X2712500Y87730000D01*
%TO.C,C23*%
X56637836Y22235000D02*
X56422164Y22235000D01*
X56637836Y21515000D02*
X56422164Y21515000D01*
%TO.C,R11*%
X86552064Y85350000D02*
X86097936Y85350000D01*
X86552064Y83880000D02*
X86097936Y83880000D01*
%TO.C,R34*%
X99989564Y37965000D02*
X98535436Y37965000D01*
X99989564Y36145000D02*
X98535436Y36145000D01*
%TO.C,C48*%
X19782836Y33690500D02*
X19567164Y33690500D01*
X19782836Y32970500D02*
X19567164Y32970500D01*
D15*
%TO.C,J5*%
X63246998Y17854001D02*
X63246998Y11504001D01*
X63246998Y11504001D02*
X70612998Y11504001D01*
X70612998Y17854001D02*
X63246998Y17854001D01*
X70612998Y11504001D02*
X70612998Y17854001D01*
D13*
%TO.C,Q5*%
X71325000Y40050000D02*
X77545000Y40050000D01*
X77545000Y46550000D02*
X71325000Y46550000D01*
X77545000Y40050000D02*
X77545000Y46550000D01*
D12*
X80825000Y41100000D02*
X80825000Y41100000D01*
X80825000Y40900000D02*
X80825000Y40900000D01*
X80825000Y41100000D02*
G75*
G02*
X80825000Y40900000I0J-100000D01*
G01*
X80825000Y40900000D02*
G75*
G02*
X80825000Y41100000I0J100000D01*
G01*
D14*
%TO.C,R8*%
X71057500Y76878281D02*
X71057500Y76570999D01*
X71817500Y76878281D02*
X71817500Y76570999D01*
%TO.C,R22*%
X52570000Y103831359D02*
X52570000Y104138641D01*
X53330000Y103831359D02*
X53330000Y104138641D01*
%TO.C,C36*%
X91177500Y50457836D02*
X91177500Y50242164D01*
X91897500Y50457836D02*
X91897500Y50242164D01*
%TO.C,C46*%
X82215000Y45668748D02*
X82215000Y47091252D01*
X84035000Y45668748D02*
X84035000Y47091252D01*
%TO.C,C28*%
X62821920Y63347500D02*
X63103080Y63347500D01*
X62821920Y62327500D02*
X63103080Y62327500D01*
%TO.C,C52*%
X17215000Y32490500D02*
X17215000Y30790500D01*
X17215000Y26970500D02*
X17215000Y28670500D01*
X21670563Y32490500D02*
X17215000Y32490500D01*
X21670563Y26970500D02*
X17215000Y26970500D01*
X22735000Y31426063D02*
X21670563Y32490500D01*
X22735000Y31426063D02*
X22735000Y30790500D01*
X22735000Y28034937D02*
X21670563Y26970500D01*
X22735000Y28034937D02*
X22735000Y28670500D01*
X23287500Y27733000D02*
X23287500Y28358000D01*
X23600000Y28045500D02*
X22975000Y28045500D01*
D12*
%TO.C,Q8*%
X48273000Y112268000D02*
X48273000Y112698000D01*
D13*
X50750000Y105658000D02*
X50750000Y105658000D01*
X50750000Y105558000D02*
X50750000Y105558000D01*
D12*
X58327000Y112698000D02*
X58327000Y112268000D01*
X58327000Y112268000D02*
X48273000Y112268000D01*
D13*
X50750000Y105658000D02*
G75*
G02*
X50750000Y105558000I0J-50000D01*
G01*
X50750000Y105558000D02*
G75*
G02*
X50750000Y105658000I0J50000D01*
G01*
%TO.C,Q4*%
X70375000Y29860000D02*
X76525000Y29860000D01*
X70375000Y24540000D02*
X76525000Y24540000D01*
D12*
X77450000Y25295000D02*
X77450000Y25295000D01*
X77650000Y25295000D02*
X77650000Y25295000D01*
X77450000Y25295000D02*
G75*
G02*
X77650000Y25295000I100000J0D01*
G01*
X77650000Y25295000D02*
G75*
G02*
X77450000Y25295000I-100000J0D01*
G01*
D14*
%TO.C,R19*%
X97731359Y41685000D02*
X98038641Y41685000D01*
X97731359Y40925000D02*
X98038641Y40925000D01*
%TO.C,C12*%
X44940000Y88002836D02*
X44940000Y87787164D01*
X45660000Y88002836D02*
X45660000Y87787164D01*
%TO.C,C49*%
X19762836Y34790500D02*
X19547164Y34790500D01*
X19762836Y34070500D02*
X19547164Y34070500D01*
D16*
%TO.C,G\u002A\u002A\u002A*%
G36*
X14057564Y108402097D02*
G01*
X14050368Y108394901D01*
X14043173Y108402097D01*
X14050368Y108409292D01*
X14057564Y108402097D01*
G37*
G36*
X10829197Y111282682D02*
G01*
X10830919Y111265603D01*
X10829197Y111263494D01*
X10820642Y111265470D01*
X10819603Y111273088D01*
X10824869Y111284933D01*
X10829197Y111282682D01*
G37*
G36*
X10843588Y111239509D02*
G01*
X10845310Y111222431D01*
X10843588Y111220321D01*
X10835033Y111222297D01*
X10833994Y111229915D01*
X10839260Y111241761D01*
X10843588Y111239509D01*
G37*
G36*
X17060472Y113038376D02*
G01*
X17062194Y113021297D01*
X17060472Y113019188D01*
X17051917Y113021164D01*
X17050878Y113028782D01*
X17056143Y113040627D01*
X17060472Y113038376D01*
G37*
G36*
X8962343Y114460551D02*
G01*
X9122057Y114359307D01*
X9275900Y114282728D01*
X9422405Y114231395D01*
X9560105Y114205886D01*
X9614274Y114203019D01*
X9670433Y114201090D01*
X9713694Y114197100D01*
X9737536Y114191766D01*
X9740195Y114189204D01*
X9732130Y114165504D01*
X9710208Y114124598D01*
X9678123Y114072093D01*
X9639565Y114013596D01*
X9598226Y113954714D01*
X9557799Y113901055D01*
X9523015Y113859372D01*
X9472977Y113809541D01*
X9408944Y113753621D01*
X9341449Y113700578D01*
X9310567Y113678534D01*
X9175058Y113571979D01*
X9061433Y113451799D01*
X8967151Y113314572D01*
X8889676Y113156873D01*
X8854332Y113063157D01*
X8807522Y112926973D01*
X8778054Y113053430D01*
X8720938Y113359009D01*
X8690455Y113668900D01*
X8685300Y113849065D01*
X8688232Y114002853D01*
X8698426Y114132901D01*
X8716808Y114243544D01*
X8744307Y114339119D01*
X8781850Y114423962D01*
X8822737Y114491444D01*
X8853582Y114536598D01*
X8962343Y114460551D01*
G37*
G36*
X10591452Y109864845D02*
G01*
X10696033Y109849616D01*
X10793156Y109825198D01*
X10888013Y109789518D01*
X10985798Y109740500D01*
X11091703Y109676072D01*
X11210920Y109594158D01*
X11258527Y109559675D01*
X11471619Y109408007D01*
X11688887Y109261575D01*
X11904489Y109124086D01*
X12112583Y108999250D01*
X12307328Y108890777D01*
X12335119Y108876098D01*
X12476300Y108802109D01*
X12335119Y108785676D01*
X12146139Y108751329D01*
X11967783Y108692903D01*
X11797513Y108609183D01*
X11632792Y108498951D01*
X11494247Y108382584D01*
X11398976Y108295038D01*
X11206429Y108425811D01*
X10981180Y108585566D01*
X10782781Y108740585D01*
X10611519Y108890606D01*
X10467683Y109035370D01*
X10351560Y109174613D01*
X10298041Y109251162D01*
X10214509Y109368259D01*
X10130275Y109459860D01*
X10040557Y109528958D01*
X9940573Y109578548D01*
X9825541Y109611625D01*
X9691297Y109631124D01*
X9589178Y109640787D01*
X9689915Y109692563D01*
X9885115Y109779156D01*
X10080047Y109837670D01*
X10277197Y109868678D01*
X10474221Y109872960D01*
X10591452Y109864845D01*
G37*
G36*
X15635405Y108629322D02*
G01*
X15563039Y108511211D01*
X15496481Y108370125D01*
X15437610Y108211601D01*
X15388304Y108041174D01*
X15350443Y107864383D01*
X15330741Y107731387D01*
X15321166Y107650705D01*
X15182254Y107620055D01*
X15073972Y107596976D01*
X14977922Y107578708D01*
X14888188Y107564675D01*
X14798855Y107554303D01*
X14704007Y107547015D01*
X14597729Y107542238D01*
X14474105Y107539395D01*
X14338187Y107537982D01*
X13935241Y107535311D01*
X13764520Y107475200D01*
X13629867Y107424797D01*
X13521902Y107377661D01*
X13438828Y107332932D01*
X13382978Y107293291D01*
X13337304Y107254859D01*
X13388705Y107367968D01*
X13448175Y107489638D01*
X13518490Y107618719D01*
X13593341Y107744224D01*
X13666418Y107855168D01*
X13677537Y107870852D01*
X13791103Y108017735D01*
X13902994Y108138177D01*
X14016030Y108234164D01*
X14133031Y108307684D01*
X14256817Y108360723D01*
X14390209Y108395269D01*
X14431728Y108402206D01*
X14589114Y108426963D01*
X14748064Y108454619D01*
X14905096Y108484383D01*
X15056727Y108515464D01*
X15199475Y108547071D01*
X15329855Y108578414D01*
X15444387Y108608700D01*
X15539587Y108637141D01*
X15611972Y108662944D01*
X15644548Y108677621D01*
X15684508Y108698247D01*
X15635405Y108629322D01*
G37*
G36*
X19961274Y111984102D02*
G01*
X20001270Y111979657D01*
X20063325Y111972244D01*
X20144201Y111962264D01*
X20240661Y111950113D01*
X20349466Y111936193D01*
X20457932Y111922135D01*
X20965212Y111855992D01*
X20965212Y111810985D01*
X20962314Y111762532D01*
X20956828Y111724058D01*
X20948444Y111682138D01*
X20543089Y111735944D01*
X20437003Y111749912D01*
X20339143Y111762582D01*
X20253458Y111773458D01*
X20183893Y111782047D01*
X20134396Y111787856D01*
X20108913Y111790390D01*
X20107465Y111790456D01*
X20094966Y111788784D01*
X20085402Y111780127D01*
X20077486Y111760029D01*
X20069930Y111724037D01*
X20061446Y111667695D01*
X20052544Y111600482D01*
X20039651Y111501033D01*
X20029707Y111426556D01*
X20021939Y111373482D01*
X20015575Y111338242D01*
X20009842Y111317268D01*
X20003966Y111306992D01*
X19997174Y111303844D01*
X19988694Y111304257D01*
X19988387Y111304289D01*
X19958858Y111307363D01*
X19917156Y111311717D01*
X19911076Y111312353D01*
X19876384Y111318432D01*
X19857997Y111326430D01*
X19857110Y111328400D01*
X19858952Y111347733D01*
X19864032Y111389737D01*
X19871687Y111449524D01*
X19881249Y111522208D01*
X19892053Y111602902D01*
X19903435Y111686721D01*
X19914727Y111768776D01*
X19925264Y111844182D01*
X19934382Y111908052D01*
X19941413Y111955500D01*
X19945694Y111981638D01*
X19946575Y111985180D01*
X19961274Y111984102D01*
G37*
G36*
X17633647Y111051379D02*
G01*
X17722046Y110816937D01*
X17820476Y110607127D01*
X17930690Y110419017D01*
X18054440Y110249674D01*
X18193479Y110096164D01*
X18220118Y110070129D01*
X18360852Y109935050D01*
X18264647Y109801774D01*
X18153070Y109651964D01*
X18028440Y109492956D01*
X17898878Y109335049D01*
X17864442Y109294334D01*
X17818809Y109239336D01*
X17776383Y109185715D01*
X17743283Y109141321D01*
X17730780Y109122908D01*
X17671008Y109016705D01*
X17610432Y108887257D01*
X17551069Y108739966D01*
X17494938Y108580231D01*
X17444057Y108413451D01*
X17400443Y108245026D01*
X17396782Y108229269D01*
X17380621Y108160566D01*
X17366307Y108102612D01*
X17355237Y108060865D01*
X17348811Y108040782D01*
X17348263Y108039897D01*
X17342877Y108050802D01*
X17332266Y108085121D01*
X17317719Y108138233D01*
X17300529Y108205518D01*
X17290497Y108246553D01*
X17249641Y108421274D01*
X17216810Y108574598D01*
X17191221Y108712532D01*
X17172092Y108841079D01*
X17158640Y108966245D01*
X17150081Y109094036D01*
X17145632Y109230454D01*
X17144495Y109366289D01*
X17145545Y109505191D01*
X17149210Y109620507D01*
X17156365Y109717379D01*
X17167885Y109800949D01*
X17184645Y109876361D01*
X17207520Y109948757D01*
X17237386Y110023279D01*
X17267482Y110089113D01*
X17326658Y110225796D01*
X17384186Y110381196D01*
X17437694Y110547206D01*
X17484808Y110715717D01*
X17523158Y110878623D01*
X17550368Y111027816D01*
X17557312Y111079385D01*
X17574658Y111225421D01*
X17633647Y111051379D01*
G37*
G36*
X15297100Y106870714D02*
G01*
X15304401Y106852518D01*
X15312415Y106816162D01*
X15315702Y106795697D01*
X15325193Y106729127D01*
X15164385Y106699062D01*
X15100210Y106686787D01*
X15047460Y106676174D01*
X15011950Y106668428D01*
X14999527Y106664895D01*
X15000929Y106650244D01*
X15006894Y106610890D01*
X15016816Y106550445D01*
X15030087Y106472518D01*
X15046100Y106380721D01*
X15064249Y106278664D01*
X15067604Y106259990D01*
X15085813Y106156113D01*
X15101479Y106061454D01*
X15114066Y105979703D01*
X15123037Y105914553D01*
X15127855Y105869694D01*
X15127984Y105848819D01*
X15127514Y105847933D01*
X15106920Y105839348D01*
X15068745Y105830491D01*
X15047418Y105826991D01*
X15006064Y105822353D01*
X14984681Y105825612D01*
X14974948Y105839359D01*
X14971960Y105850493D01*
X14967418Y105873316D01*
X14958578Y105920282D01*
X14946210Y105987202D01*
X14931084Y106069887D01*
X14913971Y106164148D01*
X14898364Y106250652D01*
X14880211Y106349925D01*
X14863224Y106439737D01*
X14848180Y106516229D01*
X14835855Y106575542D01*
X14827023Y106613816D01*
X14822717Y106627071D01*
X14805496Y106628388D01*
X14766241Y106624687D01*
X14711118Y106616705D01*
X14657716Y106607353D01*
X14594489Y106596131D01*
X14542436Y106588115D01*
X14507568Y106584150D01*
X14495965Y106584564D01*
X14491562Y106601450D01*
X14487478Y106637327D01*
X14485841Y106661471D01*
X14482096Y106731999D01*
X14885042Y106805581D01*
X14989069Y106824235D01*
X15083766Y106840562D01*
X15165479Y106853984D01*
X15230552Y106863923D01*
X15275331Y106869802D01*
X15296160Y106871042D01*
X15297100Y106870714D01*
G37*
G36*
X12641149Y108683148D02*
G01*
X12702409Y108680550D01*
X12752998Y108674076D01*
X12801226Y108661931D01*
X12855403Y108642320D01*
X12923840Y108613449D01*
X12960651Y108597332D01*
X13184040Y108511469D01*
X13409941Y108448396D01*
X13633551Y108409193D01*
X13850066Y108394940D01*
X13861558Y108394901D01*
X14034645Y108394901D01*
X13922698Y108321409D01*
X13781316Y108214231D01*
X13646404Y108084259D01*
X13523192Y107937457D01*
X13416911Y107779785D01*
X13365312Y107686148D01*
X13339694Y107636340D01*
X13319306Y107598302D01*
X13307283Y107577813D01*
X13305477Y107575831D01*
X13290829Y107579018D01*
X13254421Y107586554D01*
X13202710Y107597108D01*
X13172521Y107603225D01*
X12995181Y107642690D01*
X12816862Y107689154D01*
X12642477Y107740964D01*
X12476943Y107796470D01*
X12325173Y107854022D01*
X12192081Y107911970D01*
X12082584Y107968663D01*
X12080198Y107970046D01*
X12026088Y107994853D01*
X11951806Y108019840D01*
X11865853Y108042710D01*
X11776734Y108061165D01*
X11703828Y108071776D01*
X11628706Y108073181D01*
X11549976Y108063278D01*
X11476777Y108044136D01*
X11418247Y108017827D01*
X11396880Y108002217D01*
X11373511Y107982938D01*
X11366859Y107982212D01*
X11374529Y107997073D01*
X11394125Y108024555D01*
X11423252Y108061690D01*
X11459514Y108105512D01*
X11500517Y108153056D01*
X11543863Y108201354D01*
X11587158Y108247439D01*
X11627656Y108288008D01*
X11757131Y108400736D01*
X11892885Y108493715D01*
X12032677Y108568415D01*
X12155734Y108620778D01*
X12273515Y108655944D01*
X12396146Y108676121D01*
X12533752Y108683519D01*
X12560906Y108683664D01*
X12641149Y108683148D01*
G37*
G36*
X8048397Y111901053D02*
G01*
X8054699Y111886076D01*
X8056482Y111863116D01*
X8059009Y111834654D01*
X8064644Y111794544D01*
X8065203Y111791125D01*
X8067592Y111771613D01*
X8065521Y111754405D01*
X8056001Y111735842D01*
X8036042Y111712264D01*
X8002651Y111680010D01*
X7952840Y111635421D01*
X7900581Y111589651D01*
X7842713Y111538033D01*
X7794302Y111492776D01*
X7758769Y111457252D01*
X7739538Y111434831D01*
X7737378Y111428902D01*
X7753663Y111420522D01*
X7791804Y111404061D01*
X7846733Y111381616D01*
X7913384Y111355284D01*
X7941416Y111344432D01*
X8012028Y111316592D01*
X8073568Y111291096D01*
X8120725Y111270237D01*
X8148188Y111256307D01*
X8152287Y111253377D01*
X8163526Y111230551D01*
X8174097Y111189988D01*
X8178821Y111161558D01*
X8183168Y111116032D01*
X8180317Y111093044D01*
X8169574Y111087091D01*
X8169424Y111087099D01*
X8150837Y111092727D01*
X8109932Y111107826D01*
X8050937Y111130749D01*
X7978079Y111159842D01*
X7895586Y111193456D01*
X7869462Y111204229D01*
X7588838Y111320264D01*
X7387365Y111287409D01*
X7313673Y111275166D01*
X7249692Y111264114D01*
X7201032Y111255251D01*
X7173304Y111249581D01*
X7169669Y111248568D01*
X7160960Y111258519D01*
X7151309Y111287772D01*
X7142546Y111326979D01*
X7136498Y111366794D01*
X7134994Y111397870D01*
X7138097Y111409976D01*
X7153290Y111414148D01*
X7191573Y111422185D01*
X7247676Y111433045D01*
X7316327Y111445684D01*
X7339674Y111449861D01*
X7536305Y111484799D01*
X7783363Y111705036D01*
X7866455Y111778609D01*
X7930815Y111833988D01*
X7978815Y111872548D01*
X8012829Y111895663D01*
X8035232Y111904707D01*
X8048397Y111901053D01*
G37*
G36*
X15456751Y117427923D02*
G01*
X15604589Y117387359D01*
X15759293Y117326515D01*
X15906783Y117248335D01*
X16054694Y117148617D01*
X16097251Y117116243D01*
X16212080Y117028275D01*
X16310252Y116956352D01*
X16396458Y116897217D01*
X16475389Y116847609D01*
X16525609Y116818598D01*
X16704059Y116728837D01*
X16873609Y116663464D01*
X17033320Y116622624D01*
X17182252Y116606467D01*
X17319465Y116615140D01*
X17444020Y116648791D01*
X17486204Y116667354D01*
X17528500Y116687212D01*
X17558327Y116699507D01*
X17568952Y116701629D01*
X17561062Y116678487D01*
X17540027Y116638522D01*
X17509802Y116588064D01*
X17474339Y116533442D01*
X17437592Y116480986D01*
X17404185Y116437829D01*
X17299382Y116328596D01*
X17167693Y116219458D01*
X17011005Y116111291D01*
X16831202Y116004973D01*
X16630170Y115901378D01*
X16409796Y115801383D01*
X16171964Y115705865D01*
X15918561Y115615698D01*
X15651471Y115531759D01*
X15372582Y115454925D01*
X15194447Y115411210D01*
X15172186Y115414197D01*
X15130823Y115426455D01*
X15077621Y115445698D01*
X15051119Y115456290D01*
X14863329Y115524391D01*
X14657958Y115582542D01*
X14445168Y115628458D01*
X14235120Y115659857D01*
X14089926Y115672269D01*
X13928010Y115681119D01*
X13989189Y115732246D01*
X14056414Y115791401D01*
X14133537Y115864050D01*
X14214347Y115943906D01*
X14292633Y116024680D01*
X14362184Y116100087D01*
X14416787Y116163839D01*
X14421960Y116170305D01*
X14566520Y116371312D01*
X14684158Y116575107D01*
X14774449Y116780682D01*
X14836967Y116987024D01*
X14871289Y117193123D01*
X14875814Y117251078D01*
X14885042Y117409020D01*
X14955030Y117426835D01*
X15114105Y117452924D01*
X15282399Y117453223D01*
X15456751Y117427923D01*
G37*
G36*
X14284960Y116537381D02*
G01*
X14264553Y116424715D01*
X14217928Y116304328D01*
X14146124Y116177737D01*
X14050183Y116046457D01*
X13931146Y115912004D01*
X13790052Y115775895D01*
X13720778Y115715472D01*
X13668170Y115671732D01*
X13630509Y115643682D01*
X13601247Y115627871D01*
X13573836Y115620846D01*
X13541727Y115619159D01*
X13538031Y115619150D01*
X13479359Y115616416D01*
X13399834Y115608878D01*
X13306796Y115597534D01*
X13207584Y115583383D01*
X13109535Y115567422D01*
X13019989Y115550650D01*
X12993533Y115545102D01*
X12775773Y115487511D01*
X12565081Y115411489D01*
X12368078Y115319755D01*
X12192597Y115215847D01*
X12115426Y115158600D01*
X12031795Y115087250D01*
X11947873Y115007894D01*
X11869834Y114926632D01*
X11803847Y114849563D01*
X11758759Y114787082D01*
X11701402Y114696147D01*
X11626016Y114879496D01*
X11567878Y115030155D01*
X11525286Y115162980D01*
X11496893Y115283438D01*
X11481349Y115396998D01*
X11477295Y115482436D01*
X11481612Y115589110D01*
X11498556Y115674967D01*
X11530357Y115746030D01*
X11579249Y115808323D01*
X11608258Y115835836D01*
X11672297Y115881945D01*
X11745996Y115913904D01*
X11834748Y115933263D01*
X11943947Y115941573D01*
X11978073Y115942126D01*
X12121983Y115942980D01*
X12246751Y116011858D01*
X12393320Y116084015D01*
X12554714Y116148426D01*
X12717632Y116200120D01*
X12812748Y116223428D01*
X12906766Y116239346D01*
X13018695Y116251768D01*
X13140363Y116260352D01*
X13263598Y116264756D01*
X13380227Y116264641D01*
X13482078Y116259663D01*
X13536516Y116253654D01*
X13652751Y116236659D01*
X13758018Y116289501D01*
X13927821Y116385113D01*
X14108212Y116506725D01*
X14177842Y116558482D01*
X14291885Y116645296D01*
X14284960Y116537381D01*
G37*
G36*
X17000310Y109686038D02*
G01*
X16995383Y109650134D01*
X16987374Y109600380D01*
X16985778Y109591060D01*
X16963311Y109410185D01*
X16955166Y109217917D01*
X16961844Y109028109D01*
X16964283Y108999320D01*
X16972412Y108923729D01*
X16983405Y108839253D01*
X16996233Y108752178D01*
X17009873Y108668787D01*
X17023297Y108595367D01*
X17035479Y108538202D01*
X17045086Y108504365D01*
X17036417Y108488719D01*
X17005196Y108462636D01*
X16954876Y108428006D01*
X16888913Y108386722D01*
X16810762Y108340673D01*
X16723878Y108291751D01*
X16631715Y108241846D01*
X16537729Y108192850D01*
X16445375Y108146654D01*
X16358107Y108105148D01*
X16279381Y108070223D01*
X16212651Y108043770D01*
X16188145Y108035355D01*
X16064574Y107982705D01*
X15942175Y107906757D01*
X15826135Y107812434D01*
X15721640Y107704660D01*
X15633876Y107588359D01*
X15568029Y107468454D01*
X15553434Y107432807D01*
X15533997Y107376840D01*
X15517254Y107321462D01*
X15510308Y107293995D01*
X15506017Y107285457D01*
X15503149Y107305069D01*
X15501725Y107352231D01*
X15501763Y107426346D01*
X15503092Y107517054D01*
X15511682Y107719902D01*
X15529876Y107901117D01*
X15558751Y108066556D01*
X15599380Y108222075D01*
X15652839Y108373530D01*
X15666348Y108406693D01*
X15740594Y108559346D01*
X15829215Y108692276D01*
X15935979Y108809783D01*
X16064654Y108916163D01*
X16180226Y108992704D01*
X16248367Y109034782D01*
X16315003Y109077054D01*
X16372242Y109114448D01*
X16410481Y109140659D01*
X16520174Y109223451D01*
X16628799Y109312780D01*
X16731575Y109404232D01*
X16823722Y109493396D01*
X16900459Y109575860D01*
X16952518Y109640875D01*
X16978104Y109675221D01*
X16995956Y109696777D01*
X17001142Y109700855D01*
X17000310Y109686038D01*
G37*
G36*
X9192007Y109017527D02*
G01*
X9219452Y108987877D01*
X9259763Y108942269D01*
X9310207Y108883818D01*
X9368052Y108815639D01*
X9401391Y108775889D01*
X9612090Y108523676D01*
X9566132Y108484473D01*
X9533155Y108457338D01*
X9507653Y108438061D01*
X9503176Y108435141D01*
X9487358Y108441983D01*
X9456027Y108470486D01*
X9410693Y108519101D01*
X9352869Y108586282D01*
X9337410Y108604863D01*
X9286438Y108666046D01*
X9241398Y108719282D01*
X9205663Y108760649D01*
X9182610Y108786221D01*
X9176034Y108792508D01*
X9159732Y108787685D01*
X9128584Y108767695D01*
X9089042Y108736731D01*
X9085196Y108733467D01*
X9006967Y108666634D01*
X9165931Y108476802D01*
X9324895Y108286969D01*
X9271155Y108240199D01*
X9237966Y108213097D01*
X9213350Y108196215D01*
X9206416Y108193428D01*
X9194032Y108203964D01*
X9166683Y108233141D01*
X9127615Y108277308D01*
X9080072Y108332817D01*
X9040784Y108379720D01*
X8886150Y108566013D01*
X8777886Y108475458D01*
X8731105Y108435287D01*
X8693394Y108400942D01*
X8669848Y108377170D01*
X8664640Y108369955D01*
X8671817Y108354510D01*
X8694843Y108321235D01*
X8730743Y108274076D01*
X8776541Y108216976D01*
X8814455Y108171353D01*
X8969253Y107987699D01*
X8913447Y107939459D01*
X8880183Y107912061D01*
X8856126Y107894734D01*
X8849245Y107891539D01*
X8838061Y107902232D01*
X8811290Y107932044D01*
X8771616Y107977852D01*
X8721726Y108036539D01*
X8664305Y108104983D01*
X8630333Y108145843D01*
X8419815Y108399826D01*
X8794722Y108713964D01*
X8883626Y108788207D01*
X8965613Y108856194D01*
X9038065Y108915788D01*
X9098362Y108964858D01*
X9143886Y109001267D01*
X9172018Y109022882D01*
X9180160Y109028102D01*
X9192007Y109017527D01*
G37*
G36*
X16879302Y114275734D02*
G01*
X17005779Y114225930D01*
X17153478Y114177912D01*
X17314837Y114133642D01*
X17482297Y114095082D01*
X17648297Y114064196D01*
X17752584Y114049069D01*
X17857071Y114039254D01*
X17979873Y114033307D01*
X18114457Y114031072D01*
X18254292Y114032392D01*
X18392844Y114037110D01*
X18523581Y114045069D01*
X18639970Y114056112D01*
X18735480Y114070081D01*
X18750702Y114073048D01*
X18765241Y114075183D01*
X18776798Y114072138D01*
X18787231Y114059975D01*
X18798395Y114034756D01*
X18812149Y113992545D01*
X18830350Y113929404D01*
X18847526Y113867779D01*
X18904928Y113648972D01*
X18949163Y113452619D01*
X18980729Y113275845D01*
X19000126Y113115774D01*
X19007855Y112969530D01*
X19008045Y112943733D01*
X19013623Y112828044D01*
X19032429Y112728574D01*
X19067574Y112634752D01*
X19122170Y112536005D01*
X19133101Y112518759D01*
X19183087Y112450586D01*
X19251218Y112371319D01*
X19332085Y112286403D01*
X19420278Y112201284D01*
X19510387Y112121406D01*
X19595361Y112053444D01*
X19641736Y112017106D01*
X19674718Y111988061D01*
X19690740Y111969687D01*
X19688902Y111964941D01*
X19665435Y111968441D01*
X19620239Y111977208D01*
X19559610Y111989957D01*
X19489845Y112005402D01*
X19482946Y112006969D01*
X19157761Y112090985D01*
X18849533Y112190894D01*
X18559996Y112305911D01*
X18290884Y112435245D01*
X18043933Y112578109D01*
X17820878Y112733716D01*
X17738807Y112799290D01*
X17608608Y112920538D01*
X17500627Y113048520D01*
X17416895Y113180407D01*
X17359443Y113313372D01*
X17351764Y113338187D01*
X17298931Y113497773D01*
X17233453Y113658551D01*
X17158323Y113814869D01*
X17076533Y113961076D01*
X16991075Y114091522D01*
X16904943Y114200554D01*
X16881654Y114225910D01*
X16801267Y114310187D01*
X16879302Y114275734D01*
G37*
G36*
X7628358Y113446951D02*
G01*
X7754815Y113416662D01*
X7859871Y113367600D01*
X7943042Y113300295D01*
X8003841Y113215278D01*
X8041783Y113113078D01*
X8056383Y112994227D01*
X8056544Y112979390D01*
X8048661Y112880347D01*
X8026958Y112779753D01*
X7994350Y112689000D01*
X7970649Y112643825D01*
X7948534Y112613797D01*
X7923935Y112600898D01*
X7884320Y112598900D01*
X7880466Y112599014D01*
X7833434Y112601739D01*
X7793629Y112606043D01*
X7786714Y112607210D01*
X7762517Y112615971D01*
X7757128Y112632137D01*
X7771321Y112659801D01*
X7804587Y112701557D01*
X7839820Y112751139D01*
X7872070Y112810179D01*
X7883737Y112837500D01*
X7908516Y112936805D01*
X7906935Y113027461D01*
X7880654Y113107385D01*
X7831337Y113174497D01*
X7760644Y113226715D01*
X7670238Y113261958D01*
X7561780Y113278144D01*
X7531275Y113278972D01*
X7437881Y113272818D01*
X7363224Y113251684D01*
X7299982Y113212811D01*
X7262360Y113177607D01*
X7223069Y113125384D01*
X7200044Y113065448D01*
X7190512Y112989477D01*
X7189857Y112960066D01*
X7192986Y112899101D01*
X7205361Y112846110D01*
X7230613Y112786305D01*
X7234462Y112778414D01*
X7256842Y112730787D01*
X7272948Y112692380D01*
X7279422Y112671226D01*
X7279433Y112670840D01*
X7266701Y112662246D01*
X7234866Y112656764D01*
X7193466Y112654689D01*
X7152043Y112656319D01*
X7120137Y112661950D01*
X7111787Y112665631D01*
X7090854Y112692661D01*
X7071927Y112742099D01*
X7056493Y112807574D01*
X7046041Y112882717D01*
X7042061Y112961157D01*
X7042057Y112964023D01*
X7048452Y113075704D01*
X7068825Y113167506D01*
X7105171Y113245719D01*
X7150854Y113307056D01*
X7230372Y113376061D01*
X7327541Y113424139D01*
X7439360Y113450410D01*
X7562827Y113453996D01*
X7628358Y113446951D01*
G37*
G36*
X17744223Y108082825D02*
G01*
X17776333Y108057852D01*
X17808881Y108024715D01*
X17835559Y107990354D01*
X17850054Y107961711D01*
X17849624Y107948862D01*
X17830882Y107939931D01*
X17794575Y107934842D01*
X17779058Y107934391D01*
X17690481Y107923644D01*
X17601736Y107894063D01*
X17520731Y107849635D01*
X17455380Y107794347D01*
X17426322Y107756575D01*
X17393041Y107676980D01*
X17386951Y107592004D01*
X17407497Y107503927D01*
X17454126Y107415032D01*
X17526285Y107327598D01*
X17531715Y107322150D01*
X17604762Y107258856D01*
X17673847Y107219864D01*
X17744686Y107202371D01*
X17779290Y107200770D01*
X17846215Y107214318D01*
X17915532Y107250801D01*
X17981880Y107305435D01*
X18039894Y107373436D01*
X18084215Y107450022D01*
X18097936Y107485028D01*
X18114844Y107528610D01*
X18130983Y107558476D01*
X18141024Y107567422D01*
X18157474Y107556785D01*
X18184208Y107529194D01*
X18209054Y107498786D01*
X18261461Y107430150D01*
X18207024Y107340486D01*
X18124201Y107227324D01*
X18027564Y107138637D01*
X17956256Y107093185D01*
X17909690Y107070482D01*
X17865367Y107056597D01*
X17812213Y107048887D01*
X17756034Y107045395D01*
X17692796Y107043640D01*
X17648022Y107046163D01*
X17611507Y107054696D01*
X17573046Y107070971D01*
X17556269Y107079307D01*
X17470585Y107135525D01*
X17388685Y107212809D01*
X17317759Y107303646D01*
X17280322Y107367631D01*
X17256148Y107417738D01*
X17241437Y107458127D01*
X17233888Y107499423D01*
X17231199Y107552254D01*
X17230964Y107595536D01*
X17233534Y107674269D01*
X17243265Y107734695D01*
X17263604Y107787051D01*
X17297998Y107841571D01*
X17326490Y107879167D01*
X17374449Y107927628D01*
X17439553Y107976433D01*
X17514231Y108021461D01*
X17590911Y108058593D01*
X17662022Y108083708D01*
X17718863Y108092691D01*
X17744223Y108082825D01*
G37*
G36*
X9566411Y112584667D02*
G01*
X9567610Y112558328D01*
X9574706Y112479198D01*
X9595337Y112377792D01*
X9628584Y112256722D01*
X9673529Y112118602D01*
X9729256Y111966046D01*
X9794845Y111801667D01*
X9869379Y111628079D01*
X9951941Y111447895D01*
X9973497Y111402606D01*
X10011969Y111321215D01*
X10049835Y111239055D01*
X10083543Y111163972D01*
X10109540Y111103814D01*
X10116855Y111086006D01*
X10163966Y110982802D01*
X10227843Y110863912D01*
X10305105Y110734211D01*
X10392377Y110598572D01*
X10486280Y110461869D01*
X10583436Y110328976D01*
X10680467Y110204765D01*
X10773995Y110094111D01*
X10860642Y110001887D01*
X10883807Y109979467D01*
X10918487Y109945277D01*
X10939220Y109921759D01*
X10942870Y109912621D01*
X10939618Y109913468D01*
X10863863Y109942806D01*
X10776063Y109971023D01*
X10689873Y109994020D01*
X10632521Y110005699D01*
X10479388Y110019374D01*
X10312655Y110014583D01*
X10139708Y109992557D01*
X9967936Y109954525D01*
X9804726Y109901719D01*
X9680277Y109847158D01*
X9624691Y109820099D01*
X9590681Y109806129D01*
X9574760Y109804187D01*
X9573440Y109813212D01*
X9574044Y109814848D01*
X9582288Y109842263D01*
X9593426Y109887555D01*
X9603740Y109934731D01*
X9627106Y110088964D01*
X9634490Y110250246D01*
X9625548Y110421298D01*
X9599935Y110604841D01*
X9557307Y110803598D01*
X9497321Y111020289D01*
X9446348Y111179547D01*
X9407457Y111296706D01*
X9377173Y111392034D01*
X9354447Y111470812D01*
X9338225Y111538323D01*
X9327458Y111599847D01*
X9321093Y111660666D01*
X9318079Y111726063D01*
X9317365Y111801318D01*
X9317445Y111827139D01*
X9325068Y111997972D01*
X9347311Y112149825D01*
X9385881Y112289442D01*
X9442482Y112423563D01*
X9490882Y112512925D01*
X9524083Y112567014D01*
X9546528Y112596285D01*
X9560033Y112601811D01*
X9566411Y112584667D01*
G37*
G36*
X17505229Y112818088D02*
G01*
X17534542Y112793173D01*
X17575265Y112756684D01*
X17609978Y112724640D01*
X17765238Y112589726D01*
X17937236Y112458149D01*
X18120563Y112333163D01*
X18309813Y112218025D01*
X18499580Y112115987D01*
X18684457Y112030306D01*
X18859037Y111964236D01*
X18889103Y111954629D01*
X18943839Y111937765D01*
X18982562Y111923189D01*
X19007097Y111906086D01*
X19019267Y111881641D01*
X19020898Y111845040D01*
X19013813Y111791469D01*
X18999836Y111716113D01*
X18993022Y111680362D01*
X18972049Y111574661D01*
X18952295Y111489187D01*
X18931188Y111415638D01*
X18906153Y111345711D01*
X18874618Y111271104D01*
X18848613Y111214454D01*
X18816672Y111140810D01*
X18787371Y111063516D01*
X18764651Y110993466D01*
X18754946Y110955417D01*
X18745673Y110894657D01*
X18737781Y110810983D01*
X18731424Y110710238D01*
X18726756Y110598266D01*
X18723929Y110480907D01*
X18723097Y110364005D01*
X18724414Y110253401D01*
X18728033Y110154940D01*
X18732295Y110093194D01*
X18737568Y110027458D01*
X18740900Y109972991D01*
X18742000Y109935721D01*
X18740761Y109921686D01*
X18729415Y109929813D01*
X18700568Y109955866D01*
X18656908Y109997259D01*
X18601127Y110051408D01*
X18535914Y110115728D01*
X18463959Y110187635D01*
X18463839Y110187756D01*
X18297336Y110360023D01*
X18153138Y110519978D01*
X18029071Y110670448D01*
X17922961Y110814263D01*
X17832634Y110954250D01*
X17755917Y111093236D01*
X17734648Y111136374D01*
X17692568Y111225986D01*
X17660785Y111300431D01*
X17637930Y111366370D01*
X17622634Y111430466D01*
X17613528Y111499381D01*
X17609244Y111579777D01*
X17608413Y111678317D01*
X17608991Y111747989D01*
X17608501Y111933833D01*
X17602944Y112111492D01*
X17592653Y112277688D01*
X17577962Y112429145D01*
X17559203Y112562586D01*
X17536710Y112674732D01*
X17510816Y112762307D01*
X17504211Y112779116D01*
X17493073Y112810363D01*
X17491014Y112826643D01*
X17492058Y112827309D01*
X17505229Y112818088D01*
G37*
G36*
X18368520Y118081270D02*
G01*
X18394515Y118061992D01*
X18434352Y118025177D01*
X18446035Y118013863D01*
X18533345Y117928895D01*
X18432085Y117534767D01*
X18406133Y117432932D01*
X18382988Y117340514D01*
X18363510Y117261080D01*
X18348558Y117198191D01*
X18338993Y117155413D01*
X18335673Y117136308D01*
X18335795Y117135668D01*
X18346390Y117144489D01*
X18373582Y117171911D01*
X18414730Y117215130D01*
X18467189Y117271343D01*
X18528314Y117337748D01*
X18581938Y117396612D01*
X18658308Y117480806D01*
X18717966Y117545594D01*
X18763758Y117592681D01*
X18798533Y117623775D01*
X18825139Y117640582D01*
X18846423Y117644808D01*
X18865233Y117638161D01*
X18884418Y117622348D01*
X18906823Y117599073D01*
X18911515Y117594121D01*
X18951699Y117551885D01*
X18647288Y117215121D01*
X18570140Y117129889D01*
X18497120Y117049436D01*
X18431024Y116976826D01*
X18374649Y116915124D01*
X18330790Y116867392D01*
X18302245Y116836696D01*
X18295538Y116829666D01*
X18248200Y116780974D01*
X18176133Y116848384D01*
X18104067Y116915794D01*
X18217083Y117357173D01*
X18244558Y117465131D01*
X18269350Y117563803D01*
X18290639Y117649831D01*
X18307607Y117719857D01*
X18319435Y117770524D01*
X18325306Y117798473D01*
X18325720Y117802930D01*
X18315365Y117793830D01*
X18288337Y117765950D01*
X18247132Y117721983D01*
X18194245Y117664617D01*
X18132174Y117596544D01*
X18063413Y117520453D01*
X18056676Y117512963D01*
X17987007Y117435887D01*
X17923386Y117366274D01*
X17868391Y117306885D01*
X17824603Y117260481D01*
X17794601Y117229823D01*
X17780965Y117217671D01*
X17780661Y117217581D01*
X17764679Y117226085D01*
X17735590Y117249073D01*
X17711642Y117270510D01*
X17653975Y117324476D01*
X17986876Y117691445D01*
X18065957Y117778583D01*
X18139451Y117859497D01*
X18204979Y117931573D01*
X18260160Y117992195D01*
X18302615Y118038747D01*
X18329963Y118068616D01*
X18339251Y118078622D01*
X18351666Y118085863D01*
X18368520Y118081270D01*
G37*
G36*
X17599811Y115999147D02*
G01*
X17781461Y115810226D01*
X17940205Y115625999D01*
X18074907Y115447926D01*
X18184432Y115277469D01*
X18238086Y115178469D01*
X18277792Y115102151D01*
X18312150Y115044455D01*
X18346788Y114997397D01*
X18387334Y114952991D01*
X18418025Y114923180D01*
X18492970Y114856305D01*
X18570560Y114795693D01*
X18657803Y114736396D01*
X18761705Y114673466D01*
X18813767Y114643766D01*
X18892610Y114601935D01*
X18990296Y114553927D01*
X19098636Y114503443D01*
X19209441Y114454185D01*
X19314520Y114409854D01*
X19405684Y114374151D01*
X19428980Y114365717D01*
X19476516Y114347852D01*
X19511134Y114332779D01*
X19525985Y114323511D01*
X19526119Y114323021D01*
X19512524Y114316113D01*
X19474445Y114306162D01*
X19415939Y114293837D01*
X19341062Y114279811D01*
X19253870Y114264755D01*
X19158421Y114249339D01*
X19058772Y114234235D01*
X18958978Y114220113D01*
X18863098Y114207645D01*
X18775187Y114197502D01*
X18754165Y114195331D01*
X18660764Y114187786D01*
X18548808Y114181644D01*
X18425299Y114177031D01*
X18297240Y114174074D01*
X18171634Y114172898D01*
X18055484Y114173631D01*
X17955792Y114176398D01*
X17896232Y114179869D01*
X17625439Y114209701D01*
X17377300Y114255211D01*
X17149876Y114317122D01*
X16941229Y114396158D01*
X16749421Y114493041D01*
X16572515Y114608495D01*
X16424250Y114729048D01*
X16367032Y114775563D01*
X16288937Y114832171D01*
X16194751Y114895933D01*
X16089259Y114963908D01*
X15977248Y115033157D01*
X15863501Y115100739D01*
X15752806Y115163717D01*
X15649948Y115219148D01*
X15559712Y115264095D01*
X15534067Y115275880D01*
X15449002Y115313970D01*
X15533991Y115330553D01*
X15762808Y115379020D01*
X15990027Y115434433D01*
X16207730Y115494675D01*
X16408000Y115557634D01*
X16487321Y115585206D01*
X16652868Y115649433D01*
X16818337Y115722508D01*
X16978421Y115801617D01*
X17127814Y115883948D01*
X17261208Y115966690D01*
X17373296Y116047029D01*
X17400926Y116069366D01*
X17470352Y116127302D01*
X17599811Y115999147D01*
G37*
G36*
X20412189Y113482320D02*
G01*
X20530671Y113451957D01*
X20640251Y113423583D01*
X20737827Y113398023D01*
X20820293Y113376104D01*
X20884548Y113358650D01*
X20927487Y113346488D01*
X20946008Y113340443D01*
X20946449Y113340161D01*
X20950750Y113324697D01*
X20956787Y113290245D01*
X20963374Y113245603D01*
X20969326Y113199567D01*
X20973457Y113160936D01*
X20974581Y113138506D01*
X20973956Y113136052D01*
X20960302Y113129573D01*
X20924468Y113112458D01*
X20870226Y113086513D01*
X20801349Y113053546D01*
X20721609Y113015364D01*
X20634780Y112973774D01*
X20544633Y112930583D01*
X20454942Y112887598D01*
X20369479Y112846626D01*
X20292017Y112809474D01*
X20226328Y112777949D01*
X20220481Y112775142D01*
X19972238Y112655942D01*
X19972238Y112703849D01*
X19969286Y112753972D01*
X19963217Y112796858D01*
X19960018Y112817384D01*
X19963009Y112833023D01*
X19976550Y112847506D01*
X20004996Y112864566D01*
X20052706Y112887935D01*
X20089933Y112905389D01*
X20225669Y112968819D01*
X20207722Y113139112D01*
X20200571Y113208752D01*
X20194620Y113270062D01*
X20190521Y113316117D01*
X20189678Y113328415D01*
X20343875Y113328415D01*
X20352930Y113239760D01*
X20359265Y113181584D01*
X20365944Y113126099D01*
X20369796Y113097452D01*
X20377608Y113043800D01*
X20423166Y113063543D01*
X20455169Y113078003D01*
X20505324Y113101335D01*
X20565864Y113129904D01*
X20610043Y113150968D01*
X20666612Y113178658D01*
X20711499Y113201776D01*
X20739638Y113217635D01*
X20746626Y113223383D01*
X20731725Y113228404D01*
X20694000Y113238976D01*
X20638565Y113253722D01*
X20570532Y113271265D01*
X20542883Y113278266D01*
X20343875Y113328415D01*
X20189678Y113328415D01*
X20188939Y113339190D01*
X20185065Y113353691D01*
X20171086Y113365721D01*
X20142078Y113377459D01*
X20093114Y113391085D01*
X20045712Y113402588D01*
X19903323Y113436201D01*
X19894766Y113487931D01*
X19888751Y113534976D01*
X19886058Y113577070D01*
X19886051Y113578088D01*
X19885892Y113616516D01*
X20412189Y113482320D01*
G37*
G36*
X13435156Y106723444D02*
G01*
X13528901Y106716473D01*
X13612485Y106710180D01*
X13681826Y106704878D01*
X13732842Y106700883D01*
X13761450Y106698506D01*
X13766147Y106698005D01*
X13768179Y106684288D01*
X13769483Y106650476D01*
X13769745Y106622759D01*
X13769745Y106548747D01*
X13622238Y106558317D01*
X13545269Y106563529D01*
X13465290Y106569302D01*
X13395399Y106574678D01*
X13372041Y106576601D01*
X13269352Y106585315D01*
X13258965Y106481890D01*
X13254783Y106430417D01*
X13253444Y106391204D01*
X13255190Y106372019D01*
X13255551Y106371493D01*
X13271539Y106368154D01*
X13311310Y106363369D01*
X13369928Y106357635D01*
X13442459Y106351446D01*
X13498145Y106347161D01*
X13733767Y106329802D01*
X13738189Y106252190D01*
X13742610Y106174578D01*
X13637452Y106183516D01*
X13574082Y106188583D01*
X13495547Y106194407D01*
X13415412Y106199993D01*
X13387046Y106201868D01*
X13241797Y106211282D01*
X13232446Y106112242D01*
X13227533Y106052498D01*
X13224108Y105996146D01*
X13222992Y105960379D01*
X13223817Y105936615D01*
X13229162Y105919381D01*
X13243168Y105907301D01*
X13269978Y105898998D01*
X13313734Y105893092D01*
X13378577Y105888208D01*
X13453144Y105883843D01*
X13522707Y105879451D01*
X13587364Y105874554D01*
X13637997Y105869881D01*
X13658215Y105867436D01*
X13712181Y105859567D01*
X13712181Y105788877D01*
X13712181Y105718187D01*
X13629433Y105720071D01*
X13587017Y105721841D01*
X13522771Y105725527D01*
X13443549Y105730690D01*
X13356208Y105736890D01*
X13296273Y105741428D01*
X13214864Y105747955D01*
X13144209Y105753996D01*
X13088973Y105759120D01*
X13053820Y105762899D01*
X13043216Y105764728D01*
X13043587Y105779476D01*
X13045900Y105819408D01*
X13049916Y105881012D01*
X13055396Y105960772D01*
X13062103Y106055175D01*
X13069798Y106160707D01*
X13073265Y106207479D01*
X13081509Y106319408D01*
X13089050Y106424160D01*
X13095611Y106517708D01*
X13100916Y106596024D01*
X13104689Y106655078D01*
X13106652Y106690844D01*
X13106859Y106697025D01*
X13107762Y106747647D01*
X13435156Y106723444D01*
G37*
G36*
X16362486Y107260603D02*
G01*
X16377681Y107232328D01*
X16392503Y107198293D01*
X16402034Y107169208D01*
X16403286Y107160408D01*
X16391535Y107147093D01*
X16362263Y107128923D01*
X16351541Y107123545D01*
X16319680Y107103592D01*
X16306585Y107085164D01*
X16307111Y107081304D01*
X16319167Y107053096D01*
X16339691Y107005853D01*
X16366728Y106944010D01*
X16398322Y106872003D01*
X16432518Y106794265D01*
X16467360Y106715231D01*
X16500893Y106639336D01*
X16531161Y106571014D01*
X16556209Y106514701D01*
X16574081Y106474830D01*
X16582822Y106455836D01*
X16583342Y106454880D01*
X16597675Y106457066D01*
X16628732Y106467925D01*
X16640938Y106472868D01*
X16675481Y106486940D01*
X16696308Y106494742D01*
X16698495Y106495298D01*
X16707016Y106483186D01*
X16719412Y106453934D01*
X16731975Y106418169D01*
X16740998Y106386514D01*
X16742774Y106369595D01*
X16742494Y106369199D01*
X16727029Y106360769D01*
X16691188Y106343790D01*
X16640985Y106320907D01*
X16582432Y106294768D01*
X16521544Y106268021D01*
X16464334Y106243311D01*
X16416815Y106223287D01*
X16385002Y106210595D01*
X16375094Y106207479D01*
X16364658Y106219550D01*
X16349848Y106249672D01*
X16345087Y106261445D01*
X16330887Y106297798D01*
X16321287Y106321509D01*
X16320011Y106324402D01*
X16329307Y106334625D01*
X16357730Y106349793D01*
X16373084Y106356336D01*
X16430425Y106379280D01*
X16324899Y106620773D01*
X16274642Y106735699D01*
X16234637Y106826919D01*
X16203659Y106897122D01*
X16180484Y106948998D01*
X16163888Y106985234D01*
X16152646Y107008521D01*
X16145535Y107021548D01*
X16141329Y107027003D01*
X16139603Y107027762D01*
X16123600Y107022732D01*
X16091512Y107010220D01*
X16081003Y107005881D01*
X16046920Y106992860D01*
X16029479Y106993471D01*
X16018881Y107009976D01*
X16014475Y107021240D01*
X15998367Y107059683D01*
X15986342Y107084591D01*
X15983379Y107096130D01*
X15989935Y107107932D01*
X16009646Y107122270D01*
X16046147Y107141420D01*
X16103072Y107167658D01*
X16157233Y107191554D01*
X16224594Y107220727D01*
X16282403Y107245219D01*
X16325624Y107262937D01*
X16349221Y107271789D01*
X16351840Y107272408D01*
X16362486Y107260603D01*
G37*
G36*
X19819928Y116466320D02*
G01*
X20014475Y116174714D01*
X19953781Y116134444D01*
X19916955Y116111300D01*
X19889998Y116096709D01*
X19882349Y116094113D01*
X19871266Y116105486D01*
X19847195Y116137069D01*
X19812915Y116184991D01*
X19771204Y116245381D01*
X19732585Y116302720D01*
X19686646Y116370612D01*
X19645606Y116429269D01*
X19612290Y116474814D01*
X19589522Y116503369D01*
X19580636Y116511388D01*
X19563114Y116503811D01*
X19529132Y116483869D01*
X19485782Y116455743D01*
X19482245Y116453348D01*
X19396777Y116395308D01*
X19540598Y116180265D01*
X19586657Y116111099D01*
X19626604Y116050542D01*
X19657899Y116002494D01*
X19677999Y115970853D01*
X19684419Y115959594D01*
X19673378Y115948354D01*
X19646292Y115928828D01*
X19612217Y115906812D01*
X19580207Y115888105D01*
X19559320Y115878504D01*
X19557264Y115878187D01*
X19545517Y115889599D01*
X19520961Y115921201D01*
X19486460Y115969047D01*
X19444881Y116029187D01*
X19410518Y116080374D01*
X19365360Y116147819D01*
X19325155Y116206669D01*
X19292792Y116252785D01*
X19271165Y116282029D01*
X19263768Y116290377D01*
X19248329Y116285743D01*
X19215294Y116268742D01*
X19170851Y116243218D01*
X19121187Y116213011D01*
X19072492Y116181964D01*
X19030952Y116153917D01*
X19002757Y116132714D01*
X18993898Y116122833D01*
X19001429Y116109126D01*
X19022470Y116075464D01*
X19054485Y116025786D01*
X19094939Y115964032D01*
X19137058Y115900493D01*
X19280426Y115685348D01*
X19219788Y115645115D01*
X19183006Y115621987D01*
X19156126Y115607410D01*
X19148536Y115604821D01*
X19137885Y115616262D01*
X19113737Y115648401D01*
X19078443Y115697911D01*
X19034353Y115761462D01*
X18983816Y115835727D01*
X18950661Y115885114D01*
X18897729Y115964835D01*
X18850628Y116036684D01*
X18811584Y116097190D01*
X18782825Y116142881D01*
X18766575Y116170286D01*
X18763757Y116176531D01*
X18775295Y116186237D01*
X18807653Y116209686D01*
X18857655Y116244728D01*
X18922124Y116289215D01*
X18997884Y116340998D01*
X19081758Y116397928D01*
X19170569Y116457856D01*
X19261141Y116518634D01*
X19350297Y116578111D01*
X19434861Y116634140D01*
X19511656Y116684572D01*
X19577505Y116727257D01*
X19584582Y116731796D01*
X19625380Y116757927D01*
X19819928Y116466320D01*
G37*
G36*
X18791361Y109194200D02*
G01*
X18829294Y109164612D01*
X18855621Y109140746D01*
X18864136Y109128970D01*
X18852073Y109117500D01*
X18820331Y109098428D01*
X18775580Y109075729D01*
X18772016Y109074053D01*
X18682297Y109021224D01*
X18605494Y108954791D01*
X18548205Y108880903D01*
X18532186Y108850539D01*
X18510103Y108789792D01*
X18507829Y108743542D01*
X18525673Y108705117D01*
X18539686Y108689261D01*
X18578152Y108660957D01*
X18618774Y108654023D01*
X18665584Y108669233D01*
X18722613Y108707360D01*
X18749529Y108729490D01*
X18825401Y108793818D01*
X18883678Y108841759D01*
X18928153Y108876182D01*
X18962620Y108899958D01*
X18990875Y108915958D01*
X19003985Y108921994D01*
X19081303Y108940359D01*
X19158876Y108931882D01*
X19232189Y108898106D01*
X19296727Y108840572D01*
X19316217Y108815377D01*
X19340260Y108777240D01*
X19353326Y108742054D01*
X19358597Y108698079D01*
X19359353Y108656206D01*
X19349737Y108563981D01*
X19319328Y108476461D01*
X19265783Y108388294D01*
X19214016Y108324162D01*
X19178642Y108288347D01*
X19133008Y108248221D01*
X19083172Y108208380D01*
X19035194Y108173418D01*
X18995134Y108147928D01*
X18969051Y108136506D01*
X18966239Y108136301D01*
X18951024Y108144522D01*
X18920327Y108165391D01*
X18889320Y108188048D01*
X18848042Y108223511D01*
X18824886Y108252962D01*
X18821761Y108272919D01*
X18838952Y108279914D01*
X18874891Y108288701D01*
X18925125Y108311727D01*
X18982007Y108344603D01*
X19037891Y108382941D01*
X19081927Y108419339D01*
X19143634Y108487081D01*
X19184810Y108554401D01*
X19204991Y108617965D01*
X19203710Y108674444D01*
X19180501Y108720504D01*
X19134897Y108752815D01*
X19128916Y108755227D01*
X19101081Y108761655D01*
X19072128Y108757506D01*
X19037655Y108740416D01*
X18993258Y108708019D01*
X18934536Y108657953D01*
X18914504Y108640065D01*
X18833838Y108571049D01*
X18766377Y108522383D01*
X18707296Y108491979D01*
X18651773Y108477748D01*
X18594986Y108477604D01*
X18554455Y108484216D01*
X18483206Y108512843D01*
X18421258Y108562692D01*
X18376145Y108626672D01*
X18360957Y108666352D01*
X18351728Y108754231D01*
X18367927Y108847360D01*
X18407618Y108942076D01*
X18468861Y109034714D01*
X18549721Y109121612D01*
X18639621Y109193235D01*
X18718587Y109247621D01*
X18791361Y109194200D01*
G37*
G36*
X14739163Y117754136D02*
G01*
X14689601Y117567946D01*
X14620524Y117383570D01*
X14534820Y117206381D01*
X14435375Y117041746D01*
X14325076Y116895039D01*
X14215251Y116779363D01*
X14075060Y116664241D01*
X13921656Y116564572D01*
X13762090Y116484401D01*
X13603415Y116427775D01*
X13601515Y116427246D01*
X13548420Y116413094D01*
X13511362Y116406732D01*
X13478643Y116408255D01*
X13438569Y116417757D01*
X13401010Y116428865D01*
X13318431Y116446610D01*
X13216084Y116457795D01*
X13102223Y116462436D01*
X12985102Y116460545D01*
X12872974Y116452138D01*
X12774093Y116437228D01*
X12733598Y116427722D01*
X12610515Y116386903D01*
X12479696Y116330924D01*
X12353270Y116265448D01*
X12255099Y116204343D01*
X12157960Y116137415D01*
X12157960Y116202652D01*
X12143715Y116287488D01*
X12101345Y116369042D01*
X12031399Y116446537D01*
X11934930Y116518875D01*
X11873559Y116553354D01*
X11799266Y116588503D01*
X11722561Y116619880D01*
X11653953Y116643039D01*
X11623059Y116650748D01*
X11593593Y116659096D01*
X11591389Y116666546D01*
X11614933Y116672869D01*
X11662713Y116677835D01*
X11733216Y116681213D01*
X11824930Y116682775D01*
X11834164Y116682818D01*
X11976138Y116679597D01*
X12094907Y116668260D01*
X12195093Y116648056D01*
X12281314Y116618232D01*
X12308544Y116605631D01*
X12348419Y116587049D01*
X12376326Y116576180D01*
X12384602Y116574933D01*
X12382459Y116589721D01*
X12372180Y116623355D01*
X12359508Y116658990D01*
X12324918Y116725995D01*
X12270866Y116800079D01*
X12203183Y116874591D01*
X12127701Y116942877D01*
X12077874Y116980321D01*
X12035485Y117011753D01*
X12017692Y117031705D01*
X12025245Y117041025D01*
X12058895Y117040559D01*
X12119395Y117031156D01*
X12122463Y117030591D01*
X12228082Y116999527D01*
X12336189Y116946993D01*
X12437541Y116877799D01*
X12471372Y116849034D01*
X12555711Y116772712D01*
X12612275Y116798178D01*
X12679125Y116841799D01*
X12745412Y116910607D01*
X12808649Y117001069D01*
X12866348Y117109655D01*
X12913677Y117226124D01*
X12928142Y117263202D01*
X12944572Y117290100D01*
X12968323Y117310236D01*
X13004749Y117327028D01*
X13059206Y117343894D01*
X13125444Y117361294D01*
X13272820Y117392488D01*
X13434680Y117415707D01*
X13597424Y117429274D01*
X13699503Y117432127D01*
X13902320Y117445394D01*
X14099840Y117483562D01*
X14288455Y117545307D01*
X14464561Y117629304D01*
X14624552Y117734231D01*
X14705644Y117801530D01*
X14759250Y117849960D01*
X14739163Y117754136D01*
G37*
G36*
X11647554Y107133246D02*
G01*
X11702398Y107113553D01*
X11735510Y107097378D01*
X11752950Y107080758D01*
X11760778Y107059733D01*
X11760896Y107059153D01*
X11764736Y107036471D01*
X11771908Y106990926D01*
X11781701Y106927276D01*
X11793405Y106850277D01*
X11806309Y106764687D01*
X11819701Y106675263D01*
X11832873Y106586764D01*
X11845111Y106503945D01*
X11855706Y106431566D01*
X11863948Y106374382D01*
X11869124Y106337152D01*
X11870579Y106324992D01*
X11873686Y106321481D01*
X11882359Y106336356D01*
X11897288Y106371350D01*
X11919162Y106428194D01*
X11948670Y106508622D01*
X11986502Y106614365D01*
X11992759Y106632012D01*
X12023033Y106717382D01*
X12050660Y106795096D01*
X12073966Y106860460D01*
X12091275Y106908777D01*
X12100913Y106935350D01*
X12101587Y106937153D01*
X12110047Y106955392D01*
X12122443Y106961808D01*
X12147007Y106957286D01*
X12182535Y106945862D01*
X12223091Y106931815D01*
X12250644Y106921300D01*
X12257107Y106918137D01*
X12254025Y106903934D01*
X12242510Y106866499D01*
X12223887Y106809612D01*
X12199482Y106737050D01*
X12170619Y106652592D01*
X12138625Y106560017D01*
X12104825Y106463104D01*
X12070544Y106365630D01*
X12037107Y106271375D01*
X12005841Y106184117D01*
X11978069Y106107634D01*
X11955118Y106045705D01*
X11938313Y106002110D01*
X11928980Y105980625D01*
X11927705Y105979031D01*
X11911377Y105984447D01*
X11876485Y105997025D01*
X11841360Y106010026D01*
X11798356Y106026301D01*
X11768014Y106038165D01*
X11758216Y106042392D01*
X11755178Y106056768D01*
X11748525Y106096080D01*
X11738812Y106156785D01*
X11726594Y106235339D01*
X11712429Y106328201D01*
X11696870Y106431827D01*
X11691967Y106464804D01*
X11675972Y106571265D01*
X11661014Y106668270D01*
X11647678Y106752225D01*
X11636548Y106819536D01*
X11628209Y106866610D01*
X11623246Y106889853D01*
X11622513Y106891633D01*
X11616022Y106880601D01*
X11601399Y106845831D01*
X11579959Y106790774D01*
X11553017Y106718880D01*
X11521889Y106633599D01*
X11488610Y106540414D01*
X11361905Y106181998D01*
X11288629Y106207190D01*
X11241978Y106227168D01*
X11220085Y106245952D01*
X11218883Y106252864D01*
X11224282Y106270440D01*
X11237913Y106311087D01*
X11258359Y106370761D01*
X11284199Y106445419D01*
X11314015Y106531016D01*
X11346387Y106623509D01*
X11379895Y106718854D01*
X11413121Y106813007D01*
X11444645Y106901924D01*
X11473047Y106981562D01*
X11496910Y107047876D01*
X11514812Y107096822D01*
X11519388Y107109051D01*
X11541946Y107168754D01*
X11647554Y107133246D01*
G37*
G36*
X15510903Y119491978D02*
G01*
X15634142Y119470852D01*
X15755783Y119429668D01*
X15849235Y119382030D01*
X15906734Y119347033D01*
X15943307Y119320950D01*
X15962606Y119297725D01*
X15968289Y119271301D01*
X15964008Y119235622D01*
X15957273Y119202994D01*
X15945741Y119155914D01*
X15934390Y119121312D01*
X15926807Y119107977D01*
X15911546Y119113670D01*
X15881219Y119135216D01*
X15841456Y119168465D01*
X15826650Y119181825D01*
X15727917Y119259351D01*
X15628780Y119311967D01*
X15531511Y119339385D01*
X15438384Y119341317D01*
X15351673Y119317472D01*
X15273652Y119267563D01*
X15258762Y119253917D01*
X15196685Y119174142D01*
X15154373Y119076268D01*
X15133455Y118964547D01*
X15131476Y118921870D01*
X15142238Y118820709D01*
X15176466Y118735863D01*
X15233525Y118667913D01*
X15312780Y118617445D01*
X15413594Y118585040D01*
X15512463Y118572324D01*
X15621811Y118565847D01*
X15645939Y118661902D01*
X15657093Y118711569D01*
X15663284Y118750026D01*
X15663197Y118769070D01*
X15663134Y118769178D01*
X15646799Y118776985D01*
X15609081Y118788263D01*
X15556861Y118801054D01*
X15532482Y118806360D01*
X15468116Y118821471D01*
X15429973Y118834564D01*
X15415643Y118846559D01*
X15415890Y118850890D01*
X15423230Y118876938D01*
X15431729Y118915999D01*
X15432685Y118921007D01*
X15442102Y118956968D01*
X15452720Y118978575D01*
X15454364Y118979977D01*
X15471299Y118979010D01*
X15509856Y118972073D01*
X15563855Y118960650D01*
X15627116Y118946225D01*
X15693461Y118930282D01*
X15756712Y118914306D01*
X15810688Y118899779D01*
X15849211Y118888187D01*
X15866012Y118881108D01*
X15865896Y118864823D01*
X15859731Y118826685D01*
X15848915Y118772644D01*
X15834848Y118708648D01*
X15818929Y118640645D01*
X15802557Y118574584D01*
X15787131Y118516415D01*
X15774051Y118472085D01*
X15764716Y118447544D01*
X15763614Y118445784D01*
X15742492Y118435857D01*
X15699406Y118427594D01*
X15641143Y118421355D01*
X15574491Y118417500D01*
X15506238Y118416392D01*
X15443172Y118418389D01*
X15392081Y118423854D01*
X15383088Y118425564D01*
X15312704Y118446618D01*
X15234692Y118479504D01*
X15160310Y118518778D01*
X15100815Y118558999D01*
X15092258Y118566180D01*
X15023333Y118645481D01*
X14976990Y118741713D01*
X14954156Y118852847D01*
X14952772Y118871426D01*
X14956287Y119001033D01*
X14980891Y119122486D01*
X15024661Y119232316D01*
X15085674Y119327056D01*
X15162006Y119403237D01*
X15251733Y119457390D01*
X15284819Y119470124D01*
X15392363Y119492063D01*
X15510903Y119491978D01*
G37*
G36*
X16943437Y118980252D02*
G01*
X16978155Y118964033D01*
X17029468Y118938236D01*
X17093146Y118905154D01*
X17164959Y118867079D01*
X17240677Y118826305D01*
X17316070Y118785124D01*
X17386907Y118745831D01*
X17448960Y118710717D01*
X17497997Y118682075D01*
X17529788Y118662200D01*
X17540170Y118653598D01*
X17533345Y118627496D01*
X17516584Y118592943D01*
X17495452Y118559045D01*
X17475519Y118534906D01*
X17463861Y118528807D01*
X17445931Y118536780D01*
X17407212Y118555994D01*
X17352290Y118584109D01*
X17285751Y118618785D01*
X17232185Y118647051D01*
X17153634Y118688503D01*
X17096511Y118717742D01*
X17056907Y118736207D01*
X17030910Y118745335D01*
X17014609Y118746561D01*
X17004095Y118741323D01*
X16997185Y118733397D01*
X16978227Y118704299D01*
X16955996Y118664901D01*
X16934521Y118623177D01*
X16917831Y118587105D01*
X16909958Y118564661D01*
X16910211Y118561253D01*
X16923975Y118553120D01*
X16958975Y118533745D01*
X17011039Y118505402D01*
X17075990Y118470365D01*
X17139658Y118436248D01*
X17363929Y118316421D01*
X17329450Y118248579D01*
X17308316Y118210621D01*
X17291138Y118186133D01*
X17284455Y118181031D01*
X17268875Y118187587D01*
X17232343Y118205559D01*
X17179246Y118232713D01*
X17113971Y118266813D01*
X17058614Y118296158D01*
X16986988Y118334039D01*
X16924183Y118366655D01*
X16874586Y118391774D01*
X16842582Y118407169D01*
X16832710Y118410992D01*
X16822462Y118399311D01*
X16802492Y118368524D01*
X16776444Y118325012D01*
X16747965Y118275159D01*
X16720699Y118225346D01*
X16698293Y118181956D01*
X16684392Y118151372D01*
X16684337Y118151226D01*
X16687272Y118139581D01*
X16705089Y118122718D01*
X16740340Y118098971D01*
X16795581Y118066673D01*
X16873364Y118024158D01*
X16904950Y118007319D01*
X17134064Y117885727D01*
X17099424Y117817368D01*
X17078264Y117779235D01*
X17061038Y117754550D01*
X17054233Y117749298D01*
X17039037Y117755878D01*
X17002204Y117774168D01*
X16947448Y117802254D01*
X16878486Y117838219D01*
X16799031Y117880148D01*
X16752641Y117904824D01*
X16669007Y117949614D01*
X16593965Y117990145D01*
X16531224Y118024386D01*
X16484493Y118050307D01*
X16457482Y118065874D01*
X16452403Y118069259D01*
X16457440Y118082806D01*
X16474198Y118118257D01*
X16500857Y118172120D01*
X16535596Y118240902D01*
X16576594Y118321110D01*
X16622031Y118409252D01*
X16670086Y118501835D01*
X16718938Y118595365D01*
X16766767Y118686352D01*
X16811752Y118771300D01*
X16852073Y118846719D01*
X16885908Y118909115D01*
X16911437Y118954996D01*
X16926840Y118980869D01*
X16929545Y118984600D01*
X16943437Y118980252D01*
G37*
G36*
X10234481Y107954488D02*
G01*
X10271724Y107930983D01*
X10320927Y107896485D01*
X10377106Y107854818D01*
X10435278Y107809808D01*
X10490460Y107765281D01*
X10537668Y107725062D01*
X10571920Y107692977D01*
X10584349Y107678999D01*
X10627884Y107600617D01*
X10643430Y107519258D01*
X10631116Y107438072D01*
X10591074Y107360211D01*
X10569960Y107333674D01*
X10502744Y107276720D01*
X10422867Y107240712D01*
X10348300Y107229551D01*
X10309953Y107227992D01*
X10292376Y107219716D01*
X10287559Y107198530D01*
X10287425Y107182465D01*
X10289064Y107150812D01*
X10293343Y107097559D01*
X10299644Y107029705D01*
X10307348Y106954246D01*
X10308725Y106941417D01*
X10318573Y106848337D01*
X10325126Y106780156D01*
X10328536Y106733202D01*
X10328957Y106703797D01*
X10326542Y106688269D01*
X10321445Y106682943D01*
X10319518Y106682780D01*
X10302722Y106691066D01*
X10271830Y106711762D01*
X10251161Y106727010D01*
X10214172Y106754549D01*
X10184996Y106775176D01*
X10176119Y106780862D01*
X10167038Y106799701D01*
X10157794Y106843782D01*
X10149015Y106909576D01*
X10143769Y106963289D01*
X10134873Y107066599D01*
X10127718Y107145208D01*
X10121331Y107203066D01*
X10114738Y107244126D01*
X10106967Y107272340D01*
X10097045Y107291659D01*
X10083997Y107306036D01*
X10066852Y107319421D01*
X10053717Y107328971D01*
X9994924Y107372208D01*
X9888737Y107221571D01*
X9848289Y107165002D01*
X9813686Y107118124D01*
X9788281Y107085374D01*
X9775430Y107071188D01*
X9774802Y107070935D01*
X9759586Y107078438D01*
X9728737Y107097728D01*
X9703005Y107115003D01*
X9664547Y107145743D01*
X9648531Y107168829D01*
X9649459Y107176164D01*
X9667970Y107204408D01*
X9699300Y107250121D01*
X9741077Y107310000D01*
X9790931Y107380742D01*
X9846494Y107459044D01*
X9872009Y107494808D01*
X10085666Y107494808D01*
X10096842Y107484112D01*
X10126338Y107462502D01*
X10168103Y107434380D01*
X10174242Y107430395D01*
X10242887Y107391629D01*
X10298552Y107374614D01*
X10346736Y107379031D01*
X10392939Y107404565D01*
X10407950Y107416921D01*
X10452039Y107468023D01*
X10468605Y107520218D01*
X10457432Y107574035D01*
X10418305Y107630002D01*
X10351011Y107688648D01*
X10277736Y107737252D01*
X10261761Y107730697D01*
X10233135Y107701771D01*
X10194004Y107652790D01*
X10173402Y107624630D01*
X10137209Y107573389D01*
X10108276Y107531206D01*
X10090112Y107503271D01*
X10085666Y107494808D01*
X9872009Y107494808D01*
X9905393Y107541603D01*
X9965260Y107625115D01*
X10023724Y107706278D01*
X10078415Y107781788D01*
X10126963Y107848343D01*
X10166997Y107902640D01*
X10196149Y107941375D01*
X10212046Y107961246D01*
X10214181Y107963173D01*
X10234481Y107954488D01*
G37*
G36*
X10255832Y115082154D02*
G01*
X10259920Y115067497D01*
X10267029Y115027308D01*
X10273872Y114963336D01*
X10280240Y114880580D01*
X10285924Y114784039D01*
X10290713Y114678712D01*
X10294398Y114569597D01*
X10296770Y114461694D01*
X10297619Y114360001D01*
X10296736Y114269517D01*
X10295313Y114223309D01*
X10281844Y113994026D01*
X10260950Y113789102D01*
X10231830Y113604887D01*
X10193683Y113437730D01*
X10145706Y113283982D01*
X10087099Y113139991D01*
X10034010Y113033073D01*
X9962803Y112878242D01*
X9918043Y112726707D01*
X9899509Y112574881D01*
X9906977Y112419180D01*
X9940226Y112256020D01*
X9978324Y112136544D01*
X10015184Y112041282D01*
X10054208Y111956640D01*
X10100672Y111872328D01*
X10159855Y111778053D01*
X10170179Y111762380D01*
X10205554Y111708867D01*
X10235698Y111663137D01*
X10256577Y111631315D01*
X10263246Y111621028D01*
X10263698Y111611656D01*
X10244639Y111617902D01*
X10209405Y111637884D01*
X10161334Y111669717D01*
X10106393Y111709540D01*
X9984568Y111818715D01*
X9878562Y111950002D01*
X9789508Y112100759D01*
X9718538Y112268345D01*
X9666787Y112450117D01*
X9635386Y112643434D01*
X9625441Y112830907D01*
X9624455Y112897889D01*
X9621388Y112940601D01*
X9615582Y112963519D01*
X9606379Y112971121D01*
X9604825Y112971218D01*
X9581550Y112960460D01*
X9545427Y112931259D01*
X9500836Y112888227D01*
X9452160Y112835978D01*
X9403778Y112779122D01*
X9360074Y112722273D01*
X9338280Y112690639D01*
X9259250Y112552402D01*
X9194390Y112400420D01*
X9142913Y112231839D01*
X9104033Y112043802D01*
X9076963Y111833454D01*
X9066667Y111704816D01*
X9055929Y111539320D01*
X9025809Y111596884D01*
X8992931Y111666328D01*
X8956429Y111754161D01*
X8919877Y111850904D01*
X8886852Y111947079D01*
X8860929Y112033208D01*
X8860225Y112035808D01*
X8847891Y112085175D01*
X8839011Y112131732D01*
X8833037Y112181782D01*
X8829421Y112241626D01*
X8827615Y112317569D01*
X8827071Y112415911D01*
X8827070Y112417167D01*
X8827222Y112510883D01*
X8828260Y112581656D01*
X8830808Y112635322D01*
X8835491Y112677719D01*
X8842932Y112714684D01*
X8853755Y112752054D01*
X8867070Y112791332D01*
X8903302Y112883666D01*
X8946186Y112968856D01*
X8999393Y113052404D01*
X9066596Y113139809D01*
X9151465Y113236572D01*
X9196210Y113284435D01*
X9394551Y113505671D01*
X9577825Y113734818D01*
X9744014Y113968692D01*
X9891101Y114204107D01*
X10017070Y114437878D01*
X10119904Y114666820D01*
X10184338Y114844921D01*
X10204788Y114911916D01*
X10222638Y114975977D01*
X10235278Y115027484D01*
X10238973Y115046394D01*
X10245444Y115083345D01*
X10250211Y115094407D01*
X10255832Y115082154D01*
G37*
G36*
X20447217Y115280397D02*
G01*
X20465487Y115245919D01*
X20488965Y115192806D01*
X20515635Y115125369D01*
X20522015Y115108272D01*
X20550050Y115030978D01*
X20569131Y114973282D01*
X20580817Y114927989D01*
X20586665Y114887904D01*
X20588234Y114845831D01*
X20587460Y114806063D01*
X20583899Y114742330D01*
X20576612Y114698296D01*
X20563490Y114664919D01*
X20549307Y114642499D01*
X20500677Y114595068D01*
X20433425Y114556901D01*
X20357311Y114532494D01*
X20296034Y114525896D01*
X20242786Y114531505D01*
X20186445Y114545899D01*
X20136448Y114565786D01*
X20102231Y114587870D01*
X20095487Y114595896D01*
X20078267Y114610827D01*
X20073535Y114611785D01*
X20062986Y114599815D01*
X20041103Y114566567D01*
X20010321Y114516035D01*
X19973082Y114452215D01*
X19935173Y114385128D01*
X19893452Y114310490D01*
X19855591Y114243277D01*
X19824199Y114188077D01*
X19801883Y114149479D01*
X19791890Y114132990D01*
X19782157Y114123496D01*
X19772205Y114129003D01*
X19759363Y114153373D01*
X19740960Y114200470D01*
X19736112Y114213683D01*
X19697389Y114319856D01*
X19827226Y114543558D01*
X19957062Y114767261D01*
X19933784Y114837030D01*
X19919965Y114877459D01*
X19910065Y114904603D01*
X19907297Y114910892D01*
X19893393Y114907773D01*
X19857511Y114896371D01*
X19804674Y114878367D01*
X19739906Y114855440D01*
X19721013Y114848619D01*
X19653744Y114824678D01*
X19596891Y114805288D01*
X19555527Y114792116D01*
X19534725Y114786827D01*
X19533297Y114786962D01*
X19526070Y114801914D01*
X19512244Y114835618D01*
X19499695Y114867995D01*
X19470735Y114944317D01*
X19496267Y114954202D01*
X20064699Y114954202D01*
X20066343Y114926608D01*
X20080253Y114883399D01*
X20105443Y114822305D01*
X20146283Y114755430D01*
X20199326Y114714244D01*
X20262879Y114699458D01*
X20335250Y114711782D01*
X20352901Y114718499D01*
X20402787Y114751081D01*
X20428396Y114798402D01*
X20432956Y114837496D01*
X20428716Y114874229D01*
X20417439Y114922075D01*
X20401732Y114973405D01*
X20384203Y115020593D01*
X20367459Y115056012D01*
X20354109Y115072034D01*
X20352686Y115072295D01*
X20331139Y115067347D01*
X20288867Y115053907D01*
X20231907Y115034076D01*
X20166297Y115009957D01*
X20098072Y114983653D01*
X20097142Y114983285D01*
X20075055Y114971366D01*
X20064699Y114954202D01*
X19496267Y114954202D01*
X19509220Y114959217D01*
X19540104Y114970802D01*
X19591849Y114989794D01*
X19660589Y115014806D01*
X19742462Y115044451D01*
X19833602Y115077342D01*
X19930145Y115112091D01*
X20028227Y115147311D01*
X20123983Y115181617D01*
X20213549Y115213619D01*
X20293061Y115241933D01*
X20358654Y115265170D01*
X20406464Y115281943D01*
X20432626Y115290865D01*
X20436170Y115291927D01*
X20447217Y115280397D01*
G37*
G36*
X8429774Y110368513D02*
G01*
X8446813Y110334507D01*
X8471450Y110283338D01*
X8501500Y110219513D01*
X8518467Y110182975D01*
X8555133Y110102224D01*
X8580926Y110040873D01*
X8597887Y109992605D01*
X8608062Y109951099D01*
X8613493Y109910036D01*
X8615294Y109883570D01*
X8617145Y109828345D01*
X8614124Y109792288D01*
X8604130Y109765919D01*
X8585061Y109739758D01*
X8582835Y109737097D01*
X8522169Y109686087D01*
X8448945Y109658000D01*
X8370095Y109654577D01*
X8311983Y109669031D01*
X8294428Y109670860D01*
X8287557Y109653542D01*
X8286799Y109633346D01*
X8273190Y109561617D01*
X8235342Y109494433D01*
X8177720Y109438430D01*
X8139865Y109415126D01*
X8081581Y109396464D01*
X8009611Y109388774D01*
X7937020Y109392408D01*
X7876871Y109407720D01*
X7876168Y109408023D01*
X7833929Y109431691D01*
X7794246Y109466358D01*
X7754539Y109515518D01*
X7712226Y109582667D01*
X7664727Y109671298D01*
X7630633Y109740453D01*
X7596654Y109812663D01*
X7575297Y109860493D01*
X7750100Y109860493D01*
X7761122Y109824336D01*
X7780333Y109776604D01*
X7804739Y109724031D01*
X7831344Y109673356D01*
X7857154Y109631312D01*
X7864757Y109620781D01*
X7911363Y109572382D01*
X7959591Y109550925D01*
X8014842Y109554817D01*
X8048691Y109566560D01*
X8102198Y109601210D01*
X8133464Y109648767D01*
X8139394Y109704364D01*
X8138794Y109708353D01*
X8129331Y109741971D01*
X8110551Y109792782D01*
X8085766Y109852117D01*
X8073093Y109880249D01*
X8015163Y110005654D01*
X7888346Y109947375D01*
X7832670Y109921243D01*
X7786909Y109898745D01*
X7757403Y109883052D01*
X7750260Y109878338D01*
X7750100Y109860493D01*
X7575297Y109860493D01*
X7568481Y109875759D01*
X7547986Y109925273D01*
X7537042Y109956739D01*
X7536165Y109965751D01*
X7550453Y109973360D01*
X7587084Y109991292D01*
X7642356Y110017814D01*
X7712569Y110051193D01*
X7734482Y110061551D01*
X8159374Y110061551D01*
X8166027Y110037146D01*
X8184078Y109996693D01*
X8207293Y109949828D01*
X8248636Y109877148D01*
X8287726Y109830816D01*
X8327814Y109808929D01*
X8372156Y109809584D01*
X8417032Y109827169D01*
X8447092Y109852813D01*
X8459030Y109891126D01*
X8452765Y109944825D01*
X8428212Y110016630D01*
X8409969Y110058190D01*
X8360448Y110165372D01*
X8276853Y110127876D01*
X8230268Y110107079D01*
X8192979Y110090610D01*
X8175269Y110082970D01*
X8162870Y110075096D01*
X8159374Y110061551D01*
X7734482Y110061551D01*
X7794023Y110089696D01*
X7883017Y110131589D01*
X7975850Y110175140D01*
X8068821Y110218615D01*
X8158230Y110260281D01*
X8240377Y110298405D01*
X8311560Y110331255D01*
X8368079Y110357097D01*
X8406233Y110374197D01*
X8422321Y110380823D01*
X8422518Y110380850D01*
X8429774Y110368513D01*
G37*
G36*
X17077089Y112972127D02*
G01*
X17086978Y112938661D01*
X17099711Y112886050D01*
X17114238Y112818898D01*
X17129505Y112741810D01*
X17143466Y112665129D01*
X17180102Y112371922D01*
X17189094Y112075391D01*
X17170896Y111778450D01*
X17125964Y111484009D01*
X17054750Y111194983D01*
X16957710Y110914282D01*
X16835298Y110644821D01*
X16825290Y110625496D01*
X16671820Y110362121D01*
X16496712Y110116920D01*
X16301411Y109890875D01*
X16087362Y109684967D01*
X15856012Y109500180D01*
X15608805Y109337495D01*
X15347188Y109197895D01*
X15072604Y109082363D01*
X14786501Y108991879D01*
X14490323Y108927428D01*
X14284788Y108899065D01*
X14193610Y108892123D01*
X14082686Y108887956D01*
X13960914Y108886543D01*
X13837193Y108887863D01*
X13720423Y108891894D01*
X13619502Y108898616D01*
X13597783Y108900715D01*
X13346267Y108938941D01*
X13088982Y109000610D01*
X12832915Y109083366D01*
X12585054Y109184851D01*
X12352389Y109302708D01*
X12279112Y109345410D01*
X12095610Y109466869D01*
X11910648Y109609149D01*
X11731787Y109765741D01*
X11566587Y109930135D01*
X11457976Y110052506D01*
X11351819Y110189380D01*
X11245412Y110344802D01*
X11144887Y110509258D01*
X11056375Y110673230D01*
X11050694Y110684633D01*
X11014982Y110759492D01*
X10978863Y110840051D01*
X10944076Y110921855D01*
X10912358Y111000450D01*
X10885447Y111071382D01*
X10865083Y111130198D01*
X10853002Y111172444D01*
X10850943Y111193665D01*
X10851611Y111194765D01*
X10860965Y111187946D01*
X10874708Y111161797D01*
X10877579Y111154824D01*
X10902528Y111097366D01*
X10938176Y111022596D01*
X10980650Y110938021D01*
X11026077Y110851150D01*
X11070584Y110769489D01*
X11110297Y110700547D01*
X11121013Y110682957D01*
X11281577Y110449731D01*
X11465551Y110228471D01*
X11669533Y110022263D01*
X11890118Y109834193D01*
X12123905Y109667344D01*
X12367488Y109524802D01*
X12437639Y109489347D01*
X12706507Y109370917D01*
X12973596Y109279592D01*
X13243268Y109214358D01*
X13519882Y109174202D01*
X13807800Y109158108D01*
X13863663Y109157687D01*
X14064257Y109161612D01*
X14245871Y109174418D01*
X14417317Y109197490D01*
X14587404Y109232212D01*
X14764941Y109279970D01*
X14889135Y109318864D01*
X15170713Y109426122D01*
X15439796Y109558885D01*
X15695075Y109716141D01*
X15935242Y109896877D01*
X16158992Y110100081D01*
X16365017Y110324740D01*
X16552008Y110569841D01*
X16604323Y110647395D01*
X16650251Y110722764D01*
X16702735Y110817463D01*
X16758027Y110923943D01*
X16812380Y111034660D01*
X16862048Y111142066D01*
X16903283Y111238617D01*
X16922155Y111287479D01*
X16961372Y111405649D01*
X17000182Y111542158D01*
X17036015Y111686647D01*
X17066300Y111828755D01*
X17088359Y111957377D01*
X17100614Y112068050D01*
X17108736Y112196868D01*
X17112722Y112335912D01*
X17112568Y112477265D01*
X17108269Y112613011D01*
X17099821Y112735232D01*
X17088824Y112826127D01*
X17079671Y112888268D01*
X17073324Y112938998D01*
X17070483Y112972167D01*
X17071098Y112981844D01*
X17077089Y112972127D01*
G37*
G36*
X11917096Y118820650D02*
G01*
X11930483Y118650510D01*
X11954206Y118506950D01*
X11988407Y118389632D01*
X12033232Y118298220D01*
X12088824Y118232377D01*
X12155327Y118191765D01*
X12190066Y118181368D01*
X12276821Y118174028D01*
X12363203Y118186579D01*
X12438941Y118217147D01*
X12459391Y118230530D01*
X12525518Y118292778D01*
X12575799Y118371410D01*
X12611059Y118468762D01*
X12632120Y118587171D01*
X12639804Y118728972D01*
X12639868Y118742727D01*
X12640056Y118923357D01*
X12692514Y118859943D01*
X12798381Y118751172D01*
X12913290Y118669612D01*
X13036779Y118615419D01*
X13168383Y118588750D01*
X13307640Y118589762D01*
X13428583Y118611704D01*
X13560738Y118655677D01*
X13698375Y118720000D01*
X13832350Y118800234D01*
X13868233Y118825140D01*
X13918181Y118860646D01*
X13948877Y118880748D01*
X13964359Y118886953D01*
X13968666Y118880765D01*
X13965838Y118863689D01*
X13965287Y118861308D01*
X13954482Y118828899D01*
X13934641Y118780615D01*
X13909806Y118726222D01*
X13906574Y118719525D01*
X13835375Y118605262D01*
X13741508Y118507605D01*
X13626238Y118427177D01*
X13490833Y118364600D01*
X13336561Y118320497D01*
X13164688Y118295492D01*
X13032267Y118289672D01*
X12963397Y118288612D01*
X12906313Y118286431D01*
X12866414Y118283433D01*
X12849098Y118279921D01*
X12848783Y118279376D01*
X12860860Y118264517D01*
X12893222Y118241354D01*
X12939880Y118213344D01*
X12994850Y118183943D01*
X13052146Y118156608D01*
X13086549Y118142080D01*
X13128345Y118126284D01*
X13164916Y118115326D01*
X13203048Y118108336D01*
X13249532Y118104445D01*
X13311156Y118102782D01*
X13394708Y118102477D01*
X13395581Y118102478D01*
X13480902Y118103027D01*
X13544948Y118105112D01*
X13595217Y118109659D01*
X13639210Y118117596D01*
X13684424Y118129850D01*
X13726572Y118143404D01*
X13898198Y118211645D01*
X14068859Y118300619D01*
X14099316Y118318871D01*
X14162655Y118357656D01*
X14152810Y118296089D01*
X14123432Y118195650D01*
X14069697Y118095727D01*
X13995687Y118001259D01*
X13905485Y117917191D01*
X13803173Y117848462D01*
X13767991Y117830251D01*
X13623530Y117773007D01*
X13460467Y117729803D01*
X13286106Y117702138D01*
X13107752Y117691514D01*
X13092438Y117691445D01*
X13027728Y117688667D01*
X12964122Y117681390D01*
X12916148Y117671380D01*
X12823431Y117629393D01*
X12739670Y117564619D01*
X12670911Y117482905D01*
X12623201Y117390099D01*
X12622087Y117387004D01*
X12606809Y117347993D01*
X12594491Y117323576D01*
X12589908Y117319203D01*
X12577576Y117329668D01*
X12549400Y117356783D01*
X12509517Y117396482D01*
X12462066Y117444702D01*
X12460170Y117446647D01*
X12357232Y117541112D01*
X12252824Y117612312D01*
X12138769Y117664970D01*
X12020849Y117700479D01*
X11880223Y117722807D01*
X11723741Y117726202D01*
X11556785Y117711151D01*
X11384742Y117678142D01*
X11212998Y117627661D01*
X11212043Y117627329D01*
X11078640Y117580850D01*
X11078640Y117662631D01*
X11083578Y117725370D01*
X11100940Y117784752D01*
X11122335Y117831853D01*
X11164504Y117902477D01*
X11217671Y117963646D01*
X11287561Y118020909D01*
X11375382Y118077172D01*
X11482587Y118152256D01*
X11577765Y118245259D01*
X11662131Y118358145D01*
X11736903Y118492879D01*
X11803297Y118651423D01*
X11862531Y118835742D01*
X11876185Y118885410D01*
X11908691Y119007250D01*
X11917096Y118820650D01*
G37*
G36*
X10890475Y120260799D02*
G01*
X11000690Y120232180D01*
X11120615Y120190850D01*
X11245705Y120138184D01*
X11366459Y120078219D01*
X11494524Y120001336D01*
X11597151Y119920621D01*
X11677678Y119832820D01*
X11739441Y119734684D01*
X11757085Y119697650D01*
X11779414Y119620914D01*
X11788005Y119530177D01*
X11782794Y119436765D01*
X11763720Y119352000D01*
X11759071Y119339207D01*
X11742274Y119302949D01*
X11712578Y119246098D01*
X11672255Y119172520D01*
X11623578Y119086081D01*
X11568818Y118990647D01*
X11510249Y118890084D01*
X11450143Y118788257D01*
X11390771Y118689032D01*
X11334408Y118596276D01*
X11283325Y118513853D01*
X11239794Y118445631D01*
X11206089Y118395473D01*
X11196520Y118382210D01*
X11150452Y118325090D01*
X11091728Y118259044D01*
X11029414Y118194030D01*
X10993529Y118159150D01*
X10909111Y118079427D01*
X10843256Y118015853D01*
X10793131Y117965329D01*
X10755902Y117924755D01*
X10728734Y117891030D01*
X10708793Y117861055D01*
X10693246Y117831729D01*
X10692221Y117829561D01*
X10652560Y117718839D01*
X10639649Y117608913D01*
X10652440Y117493334D01*
X10667343Y117434032D01*
X10687124Y117371778D01*
X10709282Y117312737D01*
X10731314Y117263075D01*
X10750718Y117228957D01*
X10764793Y117216544D01*
X10782700Y117223529D01*
X10818001Y117242000D01*
X10863653Y117268233D01*
X10872253Y117273387D01*
X11036057Y117358583D01*
X11207479Y117422382D01*
X11381486Y117463558D01*
X11553050Y117480886D01*
X11700415Y117475166D01*
X11846170Y117450529D01*
X11978393Y117409205D01*
X12106404Y117347721D01*
X12203107Y117287733D01*
X12239754Y117260513D01*
X12285306Y117222939D01*
X12335403Y117179100D01*
X12385680Y117133081D01*
X12431778Y117088969D01*
X12469332Y117050852D01*
X12493981Y117022816D01*
X12501364Y117008948D01*
X12501077Y117008573D01*
X12486387Y117011214D01*
X12449516Y117021486D01*
X12395572Y117037871D01*
X12329663Y117058854D01*
X12309065Y117065575D01*
X12151774Y117113005D01*
X12011781Y117145716D01*
X11882360Y117164839D01*
X11756784Y117171508D01*
X11687158Y117170287D01*
X11599947Y117163274D01*
X11516263Y117150285D01*
X11442443Y117132816D01*
X11384824Y117112362D01*
X11350062Y117090743D01*
X11358606Y117086088D01*
X11390371Y117082320D01*
X11439798Y117079929D01*
X11478741Y117079348D01*
X11551170Y117077815D01*
X11605250Y117072634D01*
X11651350Y117062050D01*
X11699842Y117044306D01*
X11709474Y117040281D01*
X11780621Y117005201D01*
X11864103Y116956314D01*
X11951136Y116899364D01*
X12032935Y116840099D01*
X12100396Y116784554D01*
X12165156Y116726181D01*
X12107592Y116749745D01*
X11907612Y116822011D01*
X11720120Y116870136D01*
X11545634Y116894150D01*
X11384671Y116894084D01*
X11237748Y116869971D01*
X11105380Y116821841D01*
X10988087Y116749726D01*
X10907429Y116676884D01*
X10833008Y116586442D01*
X10778369Y116494713D01*
X10745282Y116405752D01*
X10735517Y116323610D01*
X10738991Y116291061D01*
X10765420Y116224336D01*
X10814922Y116168127D01*
X10882728Y116125652D01*
X10964070Y116100130D01*
X11030835Y116094051D01*
X11074770Y116097542D01*
X11091443Y116108549D01*
X11081578Y116127878D01*
X11070496Y116138012D01*
X11033805Y116185487D01*
X11011125Y116250472D01*
X11003350Y116324856D01*
X11011377Y116400529D01*
X11034312Y116465952D01*
X11082928Y116530527D01*
X11152846Y116578622D01*
X11241105Y116609237D01*
X11344744Y116621376D01*
X11460804Y116614042D01*
X11469828Y116612694D01*
X11581947Y116586679D01*
X11682820Y116543509D01*
X11778850Y116479699D01*
X11876440Y116391764D01*
X11877337Y116390860D01*
X11992464Y116274780D01*
X11884025Y116264520D01*
X11746333Y116239541D01*
X11626877Y116192303D01*
X11525474Y116122664D01*
X11441942Y116030483D01*
X11376100Y115915619D01*
X11349675Y115849405D01*
X11337161Y115810756D01*
X11328275Y115773619D01*
X11322421Y115731947D01*
X11319005Y115679691D01*
X11317431Y115610804D01*
X11317105Y115519238D01*
X11317106Y115518414D01*
X11319138Y115399452D01*
X11325806Y115293254D01*
X11338345Y115191983D01*
X11357991Y115087803D01*
X11385978Y114972881D01*
X11423543Y114839379D01*
X11424878Y114834844D01*
X11467296Y114690935D01*
X11409037Y114639619D01*
X11316461Y114569444D01*
X11206365Y114504467D01*
X11104238Y114457059D01*
X11024699Y114433400D01*
X10931095Y114418696D01*
X10834232Y114413653D01*
X10744918Y114418977D01*
X10690085Y114429994D01*
X10600142Y114464163D01*
X10507699Y114512784D01*
X10472158Y114535520D01*
X10456907Y114546556D01*
X10452225Y114553905D01*
X10461865Y114558315D01*
X10489576Y114560537D01*
X10539108Y114561321D01*
X10601677Y114561417D01*
X10704964Y114564735D01*
X10786891Y114576381D01*
X10854291Y114598889D01*
X10913999Y114634797D01*
X10972846Y114686639D01*
X10991861Y114706213D01*
X11026470Y114747391D01*
X11060151Y114795113D01*
X11089253Y114843051D01*
X11110127Y114884879D01*
X11119121Y114914271D01*
X11117189Y114923416D01*
X11101968Y114921667D01*
X11070116Y114910911D01*
X11055665Y114905065D01*
X11004259Y114890709D01*
X10938215Y114882389D01*
X10903629Y114881173D01*
X10841685Y114883753D01*
X10795112Y114893817D01*
X10750848Y114914402D01*
X10744181Y114918244D01*
X10691418Y114951241D01*
X10664022Y114974612D01*
X10661103Y114990511D01*
X10681770Y115001096D01*
X10707811Y115006205D01*
X10793539Y115029034D01*
X10876492Y115068982D01*
X10950500Y115121508D01*
X11009395Y115182070D01*
X11047007Y115246126D01*
X11051521Y115259251D01*
X11059643Y115298456D01*
X11057132Y115337060D01*
X11043066Y115388044D01*
X11042186Y115390718D01*
X10987303Y115538520D01*
X10925191Y115673593D01*
X10857768Y115793029D01*
X10786953Y115893923D01*
X10714665Y115973366D01*
X10642822Y116028452D01*
X10610528Y116044780D01*
X10531782Y116063480D01*
X10451994Y116053991D01*
X10370730Y116016163D01*
X10287552Y115949848D01*
X10264557Y115926881D01*
X10227667Y115887170D01*
X10200159Y115855051D01*
X10186917Y115836294D01*
X10186402Y115834491D01*
X10198657Y115831968D01*
X10230000Y115837613D01*
X10254759Y115844479D01*
X10335913Y115858695D01*
X10406863Y115849329D01*
X10448476Y115828750D01*
X10467922Y115813976D01*
X10466275Y115807685D01*
X10440177Y115806255D01*
X10427594Y115806233D01*
X10339850Y115792833D01*
X10251962Y115754839D01*
X10170849Y115695561D01*
X10146745Y115671890D01*
X10102651Y115621370D01*
X10065255Y115571358D01*
X10038959Y115528332D01*
X10028164Y115498772D01*
X10028102Y115497210D01*
X10038349Y115498156D01*
X10063068Y115511881D01*
X10063754Y115512329D01*
X10135038Y115543446D01*
X10213780Y115552337D01*
X10265552Y115544613D01*
X10323116Y115528761D01*
X10251161Y115511777D01*
X10170054Y115486594D01*
X10099762Y115449563D01*
X10029457Y115394640D01*
X10010957Y115377731D01*
X9959328Y115321935D01*
X9906824Y115252549D01*
X9858896Y115178026D01*
X9820994Y115106818D01*
X9798998Y115049037D01*
X9779667Y115001119D01*
X9752020Y114958910D01*
X9746429Y114952847D01*
X9724389Y114924461D01*
X9721101Y114897512D01*
X9738245Y114866745D01*
X9777503Y114826903D01*
X9790365Y114815440D01*
X9843438Y114776941D01*
X9896797Y114758841D01*
X9961954Y114757708D01*
X9978590Y114759347D01*
X10016798Y114762643D01*
X10039635Y114762662D01*
X10042493Y114761492D01*
X10031120Y114752256D01*
X10003035Y114735893D01*
X9995722Y114732012D01*
X9942195Y114715290D01*
X9870060Y114708262D01*
X9787749Y114710765D01*
X9703695Y114722637D01*
X9640622Y114738849D01*
X9548156Y114768637D01*
X9500046Y114726396D01*
X9461726Y114697782D01*
X9425029Y114678109D01*
X9416223Y114675192D01*
X9389975Y114665365D01*
X9383240Y114650458D01*
X9396516Y114625342D01*
X9424353Y114591633D01*
X9485714Y114539332D01*
X9560390Y114508834D01*
X9651700Y114499056D01*
X9700975Y114501281D01*
X9758217Y114506895D01*
X9808470Y114513232D01*
X9840905Y114518926D01*
X9841020Y114518954D01*
X9876997Y114527890D01*
X9841057Y114498733D01*
X9774172Y114460537D01*
X9687459Y114435989D01*
X9587171Y114426560D01*
X9539317Y114427640D01*
X9432036Y114444052D01*
X9323881Y114481766D01*
X9212003Y114542221D01*
X9093551Y114626858D01*
X9015326Y114692315D01*
X8967993Y114729632D01*
X8910907Y114768848D01*
X8876827Y114789650D01*
X8807931Y114839604D01*
X8767223Y114894833D01*
X8754681Y114955565D01*
X8770282Y115022027D01*
X8814003Y115094446D01*
X8842736Y115128917D01*
X8880117Y115168436D01*
X8913320Y115199983D01*
X8934294Y115216152D01*
X8946848Y115220510D01*
X8949240Y115211791D01*
X8940888Y115185314D01*
X8925747Y115147396D01*
X8899885Y115072833D01*
X8892636Y115019386D01*
X8904101Y114986133D01*
X8934382Y114972151D01*
X8945142Y114971558D01*
X8967928Y114978105D01*
X9000468Y114999208D01*
X9045566Y115037064D01*
X9106029Y115093868D01*
X9124468Y115111870D01*
X9213026Y115201249D01*
X9284067Y115279010D01*
X9342703Y115351324D01*
X9394043Y115424362D01*
X9427519Y115477796D01*
X9476677Y115559501D01*
X9448644Y115664878D01*
X9434080Y115731941D01*
X9425220Y115805843D01*
X9421221Y115895217D01*
X9421039Y115918011D01*
X9725892Y115918011D01*
X9782807Y115969430D01*
X9828251Y116006082D01*
X9876813Y116038834D01*
X9895007Y116049054D01*
X9944997Y116070212D01*
X9996396Y116085751D01*
X10003977Y116087329D01*
X10041451Y116100619D01*
X10069430Y116121329D01*
X10081310Y116143243D01*
X10076711Y116155773D01*
X10071056Y116173089D01*
X10063874Y116210839D01*
X10056741Y116260694D01*
X10051608Y116364252D01*
X10058351Y116481160D01*
X10075654Y116599185D01*
X10102200Y116706097D01*
X10105892Y116717443D01*
X10140541Y116820793D01*
X10105210Y116777621D01*
X10027563Y116674541D01*
X9954078Y116561506D01*
X9887028Y116443334D01*
X9828687Y116324841D01*
X9781330Y116210847D01*
X9747230Y116106170D01*
X9728661Y116015627D01*
X9725892Y115973941D01*
X9725892Y115918011D01*
X9421039Y115918011D01*
X9420782Y115950142D01*
X9422121Y115973941D01*
X9430553Y116123797D01*
X9460927Y116286157D01*
X9514014Y116446596D01*
X9552340Y116534608D01*
X9576655Y116589123D01*
X9594152Y116633527D01*
X9602563Y116661752D01*
X9602342Y116668360D01*
X9587804Y116664518D01*
X9561825Y116642655D01*
X9529249Y116608483D01*
X9494917Y116567714D01*
X9463671Y116526059D01*
X9440355Y116489231D01*
X9430241Y116465347D01*
X9419800Y116417847D01*
X9405863Y116453825D01*
X9400286Y116486009D01*
X9398003Y116540806D01*
X9398726Y116612270D01*
X9402166Y116694454D01*
X9408035Y116781414D01*
X9416045Y116867204D01*
X9425907Y116945878D01*
X9431408Y116980493D01*
X9474749Y117174379D01*
X9534550Y117346845D01*
X9612536Y117501192D01*
X9710427Y117640722D01*
X9829948Y117768737D01*
X9854386Y117791258D01*
X9983545Y117922575D01*
X10089975Y118062106D01*
X10172888Y118207550D01*
X10231495Y118356602D01*
X10265005Y118506960D01*
X10272629Y118656322D01*
X10253579Y118802385D01*
X10229575Y118885893D01*
X10204549Y118962388D01*
X10191107Y119018476D01*
X10188726Y119059864D01*
X10196885Y119092257D01*
X10208804Y119112945D01*
X10241048Y119139157D01*
X10280096Y119141664D01*
X10321295Y119123166D01*
X10359991Y119086361D01*
X10391531Y119033948D01*
X10404068Y118999696D01*
X10412306Y118954191D01*
X10418275Y118883903D01*
X10421720Y118792761D01*
X10422497Y118713201D01*
X10420705Y118601729D01*
X10414247Y118505281D01*
X10401338Y118419068D01*
X10380194Y118338301D01*
X10349031Y118258191D01*
X10306065Y118173949D01*
X10249510Y118080786D01*
X10177582Y117973913D01*
X10113037Y117882664D01*
X10022226Y117752645D01*
X9949977Y117641037D01*
X9895280Y117545142D01*
X9857129Y117462265D01*
X9834515Y117389711D01*
X9826432Y117324782D01*
X9831870Y117264782D01*
X9849823Y117207017D01*
X9855578Y117193846D01*
X9888074Y117123003D01*
X9907271Y117212869D01*
X9948490Y117351516D01*
X10014918Y117501341D01*
X10105744Y117661221D01*
X10220158Y117830033D01*
X10357348Y118006654D01*
X10516503Y118189961D01*
X10696812Y118378830D01*
X10870892Y118547390D01*
X11009028Y118677711D01*
X11127041Y118791574D01*
X11226771Y118891128D01*
X11310055Y118978521D01*
X11378732Y119055900D01*
X11434640Y119125415D01*
X11479618Y119189211D01*
X11515503Y119249439D01*
X11544134Y119308244D01*
X11563341Y119356509D01*
X11591735Y119468437D01*
X11592866Y119574077D01*
X11579288Y119639747D01*
X11553416Y119692413D01*
X11508116Y119751001D01*
X11449908Y119808985D01*
X11385314Y119859839D01*
X11323286Y119895923D01*
X11280237Y119914410D01*
X11237655Y119928652D01*
X11190124Y119939559D01*
X11132231Y119948041D01*
X11058563Y119955007D01*
X10963706Y119961368D01*
X10918491Y119963954D01*
X10837231Y119968934D01*
X10778452Y119974188D01*
X10735868Y119980910D01*
X10703196Y119990289D01*
X10674148Y120003520D01*
X10655937Y120013748D01*
X10594715Y120060428D01*
X10560689Y120110078D01*
X10553022Y120159144D01*
X10570876Y120204073D01*
X10613413Y120241312D01*
X10679798Y120267309D01*
X10717357Y120274410D01*
X10794515Y120275334D01*
X10890475Y120260799D01*
G37*
D14*
%TO.C,C2*%
X51490000Y65662164D02*
X51490000Y65877836D01*
X52210000Y65662164D02*
X52210000Y65877836D01*
D13*
%TO.C,D1*%
X8075000Y91340000D02*
G75*
G02*
X7975000Y91340000I-50000J0D01*
G01*
X7975000Y91340000D02*
G75*
G02*
X8075000Y91340000I50000J0D01*
G01*
D15*
%TO.C,J4*%
X50416699Y19596600D02*
X50416699Y15409540D01*
X52232040Y11748000D02*
X60767958Y11748000D01*
X52671960Y19596600D02*
X50416699Y19596600D01*
X54671958Y19596600D02*
X54328040Y19596600D01*
X56671960Y19596600D02*
X56328038Y19596600D01*
X58671958Y19596600D02*
X58328040Y19596600D01*
X62583299Y19596600D02*
X60328038Y19596600D01*
X62583299Y15409540D02*
X62583299Y19596600D01*
D17*
X50162699Y19125001D02*
G75*
G02*
X49400699Y19125001I-381000J0D01*
G01*
X49400699Y19125001D02*
G75*
G02*
X50162699Y19125001I381000J0D01*
G01*
D14*
%TO.C,C59*%
X62824664Y61947500D02*
X63040336Y61947500D01*
X62824664Y61227500D02*
X63040336Y61227500D01*
%TO.C,C31*%
X83715000Y27691252D02*
X83715000Y26268748D01*
X85535000Y27691252D02*
X85535000Y26268748D01*
%TO.C,R18*%
X92415000Y51162258D02*
X92415000Y50687742D01*
X93460000Y51162258D02*
X93460000Y50687742D01*
%TO.C,C10*%
X45827164Y84573442D02*
X46042836Y84573442D01*
X45827164Y83853442D02*
X46042836Y83853442D01*
%TO.C,C47*%
X31915000Y37958336D02*
X31915000Y37742664D01*
X32635000Y37958336D02*
X32635000Y37742664D01*
%TO.C,C34*%
X90238748Y33650000D02*
X91661252Y33650000D01*
X90238748Y31830000D02*
X91661252Y31830000D01*
%TO.C,R2*%
X38156359Y75580000D02*
X38463641Y75580000D01*
X38156359Y74820000D02*
X38463641Y74820000D01*
%TO.C,L2*%
X46420000Y118425000D02*
G75*
G02*
X39180000Y118425000I-3620000J0D01*
G01*
X39180000Y118425000D02*
G75*
G02*
X46420000Y118425000I3620000J0D01*
G01*
%TO.C,C53*%
X74390000Y12990580D02*
X74390000Y12709420D01*
X75410000Y12990580D02*
X75410000Y12709420D01*
%TO.C,J2*%
X28676526Y75600000D02*
X29311526Y75600000D01*
X28676526Y74965000D02*
X28676526Y75600000D01*
%TO.C,U2*%
X13525000Y93060000D02*
X17285000Y93060000D01*
X13525000Y86240000D02*
X17285000Y86240000D01*
X17285000Y93060000D02*
X17285000Y91800000D01*
X17285000Y86240000D02*
X17285000Y87500000D01*
X12245000Y92960000D02*
X12005000Y93290000D01*
X12485000Y93290000D01*
X12245000Y92960000D01*
G36*
X12245000Y92960000D02*
G01*
X12005000Y93290000D01*
X12485000Y93290000D01*
X12245000Y92960000D01*
G37*
%TO.C,C39*%
X69929664Y51290000D02*
X70145336Y51290000D01*
X69929664Y50570000D02*
X70145336Y50570000D01*
%TO.C,R29*%
X74377500Y16162258D02*
X74377500Y15687742D01*
X75422500Y16162258D02*
X75422500Y15687742D01*
%TO.C,R35*%
X55377500Y101287742D02*
X55377500Y101762258D01*
X56422500Y101287742D02*
X56422500Y101762258D01*
D12*
%TO.C,IC1*%
X54200000Y67250000D02*
X55650000Y67250000D01*
X56000000Y67250000D02*
X58300000Y67250000D01*
X56000000Y64250000D02*
X56000000Y67250000D01*
X58300000Y67250000D02*
X58300000Y64250000D01*
X58300000Y64250000D02*
X56000000Y64250000D01*
D14*
%TO.C,C1*%
X37204664Y93025000D02*
X37420336Y93025000D01*
X37204664Y92305000D02*
X37420336Y92305000D01*
%TO.C,R15*%
X64143639Y19105001D02*
X63836357Y19105001D01*
X64143639Y18345001D02*
X63836357Y18345001D01*
%TO.C,R14*%
X55377500Y98237742D02*
X55377500Y98712258D01*
X56422500Y98237742D02*
X56422500Y98712258D01*
%TO.C,L3*%
X68120000Y119975000D02*
G75*
G02*
X60880000Y119975000I-3620000J0D01*
G01*
X60880000Y119975000D02*
G75*
G02*
X68120000Y119975000I3620000J0D01*
G01*
%TO.C,R12*%
X58970000Y93225759D02*
X58970000Y93533041D01*
X59730000Y93225759D02*
X59730000Y93533041D01*
%TO.C,C29*%
X88315000Y27691252D02*
X88315000Y26268748D01*
X90135000Y27691252D02*
X90135000Y26268748D01*
%TO.C,C14*%
X31527836Y80135000D02*
X31312164Y80135000D01*
X31527836Y79415000D02*
X31312164Y79415000D01*
%TO.C,C43*%
X84402500Y63627097D02*
X84402500Y63908257D01*
X85422500Y63627097D02*
X85422500Y63908257D01*
D13*
%TO.C,Q3*%
X70375000Y37660000D02*
X76525000Y37660000D01*
X70375000Y32340000D02*
X76525000Y32340000D01*
D12*
X77450000Y33095000D02*
X77450000Y33095000D01*
X77650000Y33095000D02*
X77650000Y33095000D01*
X77450000Y33095000D02*
G75*
G02*
X77650000Y33095000I100000J0D01*
G01*
X77650000Y33095000D02*
G75*
G02*
X77450000Y33095000I-100000J0D01*
G01*
%TD*%
M02*
