M48
; DRILL file {KiCad 8.0.4} date 2025-01-22T15:18:57-0800
; FORMAT={-:-/ absolute / metric / decimal}
; #@! TF.CreationDate,2025-01-22T15:18:57-08:00
; #@! TF.GenerationSoftware,Kicad,Pcbnew,8.0.4
; #@! TF.FileFunction,Plated,1,4,PTH
FMAT,2
METRIC
; #@! TA.AperFunction,Plated,PTH,ViaDrill
T1C0.200
; #@! TA.AperFunction,Plated,PTH,ComponentDrill
T2C0.600
; #@! TA.AperFunction,Plated,PTH,ComponentDrill
T3C1.000
; #@! TA.AperFunction,Plated,PTH,ComponentDrill
T4C1.016
; #@! TA.AperFunction,Plated,PTH,ComponentDrill
T5C1.020
; #@! TA.AperFunction,Plated,PTH,ComponentDrill
T6C1.300
; #@! TA.AperFunction,Plated,PTH,ComponentDrill
T7C1.320
%
G90
G05
T1
X1.025Y69.475
X1.05Y67.875
X1.075Y72.675
X1.075Y71.125
X1.1Y74.375
X1.45Y73.575
X1.45Y68.65
X1.475Y70.275
X1.525Y71.925
X1.875Y69.475
X1.9Y67.875
X1.925Y72.675
X1.925Y71.125
X1.95Y74.375
X2.3Y73.575
X2.3Y68.65
X2.325Y70.275
X2.375Y71.925
X2.8Y69.375
X2.8Y67.75
X2.825Y72.675
X2.825Y71.075
X2.85Y74.375
X3.125Y66.775
X3.15Y75.475
X3.175Y71.9
X3.175Y70.225
X3.225Y73.6
X3.225Y68.55
X3.65Y69.375
X3.65Y67.75
X3.675Y72.675
X3.675Y71.075
X3.7Y74.375
X3.975Y66.775
X4.0Y75.475
X4.025Y71.9
X4.025Y70.225
X4.075Y73.6
X4.075Y68.55
X7.625Y33.525
X7.65Y34.575
X7.95Y81.045
X8.325Y33.525
X8.35Y34.575
X8.625Y70.15
X9.025Y78.2
X9.175Y79.7
X9.185Y80.825
X9.575Y77.5
X9.598Y72.715
X9.598Y67.515
X9.985Y80.825
X10.025Y79.7
X10.125Y78.2
X10.925Y70.15
X11.225Y78.2
X11.275Y77.15
X11.575Y72.95
X11.65Y79.925
X12.075Y78.2
X12.075Y77.15
X12.5Y79.925
X12.925Y78.2
X12.925Y77.15
X13.875Y77.7
X14.535Y73.325
X14.535Y72.525
X14.725Y78.1
X14.725Y77.25
X15.575Y77.65
X16.375Y78.1
X16.375Y77.15
X16.5Y29.775
X16.5Y29.0
X17.225Y29.775
X17.225Y29.0
X17.825Y77.75
X17.825Y76.55
X17.875Y79.1
X17.925Y29.775
X17.925Y29.0
X18.375Y78.4
X18.375Y77.15
X18.375Y75.95
X18.7Y29.8
X18.7Y28.95
X18.875Y79.1
X18.975Y77.75
X18.975Y76.55
X19.025Y34.055
X19.045Y32.956
X21.965Y64.265
X22.885Y65.185
X24.984Y37.96
X26.209Y37.94
X26.4Y33.075
X26.425Y31.7
X26.925Y32.4
X26.978Y29.413
X27.0Y69.3
X27.009Y37.965
X27.522Y29.413
X27.525Y33.075
X27.525Y31.7
X28.025Y71.225
X28.075Y32.4
X28.325Y62.965
X28.325Y60.4
X28.575Y31.7
X28.65Y33.05
X29.225Y32.4
X29.35Y57.2
X29.75Y31.7
X29.79Y67.715
X29.8Y33.025
X30.175Y36.222
X30.275Y32.35
X30.65Y69.0
X30.725Y31.675
X30.775Y33.025
X30.95Y56.1
X30.95Y55.15
X30.95Y54.2
X31.75Y67.75
X31.8Y47.9
X31.875Y49.625
X32.05Y78.55
X32.055Y79.475
X32.14Y37.956
X32.178Y29.413
X32.328Y61.472
X33.15Y49.65
X33.15Y47.95
X33.165Y62.31
X33.2Y66.6
X33.5Y71.912
X33.65Y85.8
X34.3Y72.587
X34.35Y64.35
X34.54Y68.4
X35.425Y82.02
X35.5Y69.2
X35.95Y55.3
X35.95Y54.45
X36.5Y68.35
X36.6Y63.2
X36.725Y49.675
X36.725Y42.425
X36.98Y85.835
X36.98Y84.185
X37.025Y79.775
X37.5Y65.65
X37.55Y31.2
X37.6Y63.2
X37.625Y49.7
X37.658Y42.411
X38.525Y29.675
X38.633Y81.8
X38.652Y80.685
X38.695Y64.18
X38.775Y71.225
X39.175Y29.675
X39.5Y79.75
X39.5Y73.3
X39.6Y55.25
X39.6Y54.5
X40.075Y71.106
X40.075Y70.106
X41.0Y76.85
X41.083Y71.937
X41.095Y64.255
X41.157Y61.907
X41.935Y71.085
X42.0Y65.25
X43.571Y78.971
X43.8Y47.75
X43.805Y64.33
X43.9Y95.7
X44.6Y95.7
X44.825Y73.75
X45.15Y76.4
X45.25Y69.88
X45.3Y67.55
X46.13Y75.435
X46.298Y73.135
X46.45Y66.65
X47.25Y66.65
X48.9Y48.8
X48.9Y47.4
X49.3Y48.05
X49.3Y46.75
X49.35Y88.3
X49.65Y48.8
X49.7Y47.4
X50.1Y88.3
X50.225Y73.75
X50.58Y68.685
X51.7Y53.29
X53.025Y79.22
X53.25Y89.2
X53.725Y68.1
X54.897Y21.448
X54.9Y66.8
X54.9Y57.85
X55.35Y20.05
X55.35Y19.25
X55.35Y18.45
X55.35Y17.65
X55.554Y91.496
X56.325Y52.575
X56.482Y54.482
X56.492Y53.517
X56.675Y57.85
X56.85Y21.5
X57.35Y19.85
X57.35Y18.75
X57.35Y17.7
X57.975Y54.6
X58.575Y89.025
X59.225Y79.925
X59.429Y95.371
X60.5Y96.45
X61.826Y78.775
X62.05Y50.825
X62.75Y56.325
X63.35Y18.35
X63.575Y50.85
X65.6Y98.9
X66.3Y98.9
X66.425Y76.575
X66.9Y13.675
X66.925Y14.5
X67.013Y74.912
X67.6Y12.875
X67.625Y15.2
X67.75Y47.675
X68.425Y12.875
X68.525Y15.2
X69.275Y13.65
X69.3Y14.475
X70.025Y47.665
X71.287Y64.215
X72.125Y53.05
X72.15Y91.7
X72.9Y91.7
X73.125Y51.925
X74.25Y62.525
X75.824Y62.525
X80.825Y66.975
X84.9Y61.5
X85.328Y78.052
X85.95Y62.8
X85.952Y66.395
X95.3Y80.975
X95.525Y65.6
X96.752Y60.747
X97.802Y61.34
X97.907Y39.19
X98.105Y57.575
X98.15Y80.975
X98.2Y35.45
X98.7Y15.175
X98.7Y12.15
X98.8Y65.6
X98.905Y57.575
X98.95Y35.45
X100.99Y12.7
X102.475Y62.025
X102.475Y60.975
X102.525Y59.975
X102.525Y39.875
X102.525Y38.975
X102.55Y37.875
X102.65Y13.4
X102.675Y15.475
X102.675Y14.45
X103.325Y62.025
X103.325Y60.975
X103.325Y60.0
X103.35Y39.875
X103.375Y39.0
X103.375Y37.85
X103.525Y15.475
X103.525Y14.45
X103.525Y13.4
X105.005Y63.275
X105.059Y41.125
X105.209Y16.725
X105.8Y94.675
X105.8Y86.85
X108.3Y44.95
X109.078Y82.6
X109.15Y44.95
X109.877Y82.6
X110.0Y44.95
X110.062Y91.095
X110.8Y44.95
X111.4Y82.6
X111.65Y44.95
X112.2Y82.6
X112.45Y44.95
X112.6Y104.95
X113.25Y44.95
X113.6Y99.75
X113.7Y82.6
X113.95Y44.95
X114.062Y122.755
X114.211Y105.311
X114.244Y106.16
X114.275Y103.27
X114.5Y82.6
X114.862Y122.755
X116.0Y82.6
X116.8Y82.6
X117.062Y122.705
X117.85Y99.125
X117.862Y122.705
X117.875Y103.05
X117.95Y101.675
X117.95Y100.2
X118.3Y82.6
X118.75Y102.425
X118.775Y99.575
X118.787Y101.095
X118.95Y92.135
X119.1Y82.6
X119.5Y63.1
X119.5Y62.35
X119.525Y16.51
X119.525Y15.75
X119.55Y40.9
X119.55Y40.15
X119.65Y101.7
X119.65Y100.2
X119.675Y103.05
X119.725Y99.1
X120.1Y104.975
X121.05Y37.55
X121.1Y59.65
X121.1Y13.1
X121.712Y102.42
X121.8Y37.55
X121.85Y59.65
X121.86Y13.1
X121.9Y92.5
X121.9Y91.8
X121.9Y90.2
X121.9Y89.5
X121.9Y87.9
X121.9Y87.2
X121.962Y123.655
X121.962Y122.855
X122.412Y108.845
X123.162Y121.605
X123.212Y125.055
X123.4Y105.0
X123.527Y100.373
X123.8Y98.4
X123.962Y121.605
X124.012Y125.055
X124.675Y97.45
X125.1Y100.0
X125.262Y123.805
X125.262Y123.005
X125.4Y97.45
X126.7Y101.2
X127.275Y94.575
X127.275Y93.8
T3
X77.492Y76.615
X82.492Y76.615
X87.0Y123.0
X87.0Y118.0
T4
X9.16Y14.737
X11.7Y14.737
X65.51Y14.05
X68.05Y14.05
T5
X21.35Y13.337
X24.35Y13.337
X40.25Y13.335
X43.25Y13.335
T6
X42.65Y107.925
X42.65Y104.925
X64.35Y109.475
X64.35Y106.475
X70.328Y76.645
X73.328Y76.645
T7
X50.0Y122.0
X55.0Y122.0
X102.852Y121.58
X107.852Y121.58
T2
G00X1.857Y75.47
M15
G01X1.257Y75.47
M16
G05
G00X1.857Y66.83
M15
G01X1.257Y66.83
M16
G05
G00X6.287Y75.47
M15
G01X5.188Y75.47
M16
G05
G00X6.287Y66.83
M15
G01X5.188Y66.83
M16
G05
M30
