%TF.GenerationSoftware,KiCad,Pcbnew,6.0.11-2627ca5db0~126~ubuntu22.04.1*%
%TF.CreationDate,2023-12-15T21:44:52-06:00*%
%TF.ProjectId,xem7310_carrier,78656d37-3331-4305-9f63-617272696572,rev?*%
%TF.SameCoordinates,Original*%
%TF.FileFunction,Soldermask,Top*%
%TF.FilePolarity,Negative*%
%FSLAX46Y46*%
G04 Gerber Fmt 4.6, Leading zero omitted, Abs format (unit mm)*
G04 Created by KiCad (PCBNEW 6.0.11-2627ca5db0~126~ubuntu22.04.1) date 2023-12-15 21:44:52*
%MOMM*%
%LPD*%
G01*
G04 APERTURE LIST*
G04 Aperture macros list*
%AMRoundRect*
0 Rectangle with rounded corners*
0 $1 Rounding radius*
0 $2 $3 $4 $5 $6 $7 $8 $9 X,Y pos of 4 corners*
0 Add a 4 corners polygon primitive as box body*
4,1,4,$2,$3,$4,$5,$6,$7,$8,$9,$2,$3,0*
0 Add four circle primitives for the rounded corners*
1,1,$1+$1,$2,$3*
1,1,$1+$1,$4,$5*
1,1,$1+$1,$6,$7*
1,1,$1+$1,$8,$9*
0 Add four rect primitives between the rounded corners*
20,1,$1+$1,$2,$3,$4,$5,0*
20,1,$1+$1,$4,$5,$6,$7,0*
20,1,$1+$1,$6,$7,$8,$9,0*
20,1,$1+$1,$8,$9,$2,$3,0*%
G04 Aperture macros list end*
%ADD10RoundRect,0.140000X0.140000X0.170000X-0.140000X0.170000X-0.140000X-0.170000X0.140000X-0.170000X0*%
%ADD11R,1.422400X0.431800*%
%ADD12R,0.650001X1.100000*%
%ADD13C,4.700000*%
%ADD14C,1.016000*%
%ADD15RoundRect,0.102000X-0.720000X0.228500X-0.720000X-0.228500X0.720000X-0.228500X0.720000X0.228500X0*%
%ADD16RoundRect,0.218750X-0.218750X-0.256250X0.218750X-0.256250X0.218750X0.256250X-0.218750X0.256250X0*%
%ADD17RoundRect,0.140000X-0.140000X-0.170000X0.140000X-0.170000X0.140000X0.170000X-0.140000X0.170000X0*%
%ADD18RoundRect,0.102000X0.750000X0.550000X-0.750000X0.550000X-0.750000X-0.550000X0.750000X-0.550000X0*%
%ADD19RoundRect,0.102000X-0.750000X-0.550000X0.750000X-0.550000X0.750000X0.550000X-0.750000X0.550000X0*%
%ADD20RoundRect,0.200000X-0.200000X-0.275000X0.200000X-0.275000X0.200000X0.275000X-0.200000X0.275000X0*%
%ADD21RoundRect,0.200000X0.200000X0.275000X-0.200000X0.275000X-0.200000X-0.275000X0.200000X-0.275000X0*%
%ADD22R,0.354800X1.461999*%
%ADD23RoundRect,0.102000X-0.381000X0.190500X-0.381000X-0.190500X0.381000X-0.190500X0.381000X0.190500X0*%
%ADD24RoundRect,0.102000X-0.508000X0.190500X-0.508000X-0.190500X0.508000X-0.190500X0.508000X0.190500X0*%
%ADD25RoundRect,0.140000X0.170000X-0.140000X0.170000X0.140000X-0.170000X0.140000X-0.170000X-0.140000X0*%
%ADD26RoundRect,0.250000X-0.550000X1.050000X-0.550000X-1.050000X0.550000X-1.050000X0.550000X1.050000X0*%
G04 APERTURE END LIST*
D10*
%TO.C,C5*%
X128110000Y-115110000D03*
X127150000Y-115110000D03*
%TD*%
D11*
%TO.C,U2*%
X114903299Y-98720002D03*
X114903299Y-99370000D03*
X114903299Y-100020002D03*
X114903299Y-100670000D03*
X119246699Y-100670000D03*
X119246699Y-100020002D03*
X119246699Y-99370000D03*
X119246699Y-98720002D03*
%TD*%
D12*
%TO.C,U1*%
X129070000Y-102470000D03*
X128119999Y-102470000D03*
X127170001Y-102470000D03*
X127170001Y-104870000D03*
X129070000Y-104870000D03*
%TD*%
D13*
%TO.C,H2*%
X134200000Y-142300000D03*
%TD*%
%TO.C,H4*%
X178200000Y-142300000D03*
%TD*%
D14*
%TO.C,MC2*%
X138230000Y-102563400D03*
X138230000Y-137040000D03*
D15*
X139284000Y-104201700D03*
X133112000Y-104201700D03*
X139284000Y-105001700D03*
X133112000Y-105001700D03*
X139284000Y-105801700D03*
X133112000Y-105801700D03*
X139284000Y-106601700D03*
X133112000Y-106601700D03*
X139284000Y-107401700D03*
X133112000Y-107401700D03*
X139284000Y-108201700D03*
X133112000Y-108201700D03*
X139284000Y-109001700D03*
X133112000Y-109001700D03*
X139284000Y-109801700D03*
X133112000Y-109801700D03*
X139284000Y-110601700D03*
X133112000Y-110601700D03*
X139284000Y-111401700D03*
X133112000Y-111401700D03*
X139284000Y-112201700D03*
X133112000Y-112201700D03*
X139284000Y-113001700D03*
X133112000Y-113001700D03*
X139284000Y-113801700D03*
X133112000Y-113801700D03*
X139284000Y-114601700D03*
X133112000Y-114601700D03*
X139284000Y-115401700D03*
X133112000Y-115401700D03*
X139284000Y-116201700D03*
X133112000Y-116201700D03*
X139284000Y-117001700D03*
X133112000Y-117001700D03*
X139284000Y-117801700D03*
X133112000Y-117801700D03*
X139284000Y-118601700D03*
X133112000Y-118601700D03*
X139284000Y-119401700D03*
X133112000Y-119401700D03*
X139284000Y-120201700D03*
X133112000Y-120201700D03*
X139284000Y-121001700D03*
X133112000Y-121001700D03*
X139284000Y-121801700D03*
X133112000Y-121801700D03*
X139284000Y-122601700D03*
X133112000Y-122601700D03*
X139284000Y-123401700D03*
X133112000Y-123401700D03*
X139284000Y-124201700D03*
X133112000Y-124201700D03*
X139284000Y-125001700D03*
X133112000Y-125001700D03*
X139284000Y-125801700D03*
X133112000Y-125801700D03*
X139284000Y-126601700D03*
X133112000Y-126601700D03*
X139284000Y-127401700D03*
X133112000Y-127401700D03*
X139284000Y-128201700D03*
X133112000Y-128201700D03*
X139284000Y-129001700D03*
X133112000Y-129001700D03*
X139284000Y-129801700D03*
X133112000Y-129801700D03*
X139284000Y-130601700D03*
X133112000Y-130601700D03*
X139284000Y-131401700D03*
X133112000Y-131401700D03*
X139284000Y-132201700D03*
X133112000Y-132201700D03*
X139284000Y-133001700D03*
X133112000Y-133001700D03*
X139284000Y-133801700D03*
X133112000Y-133801700D03*
X139284000Y-134601700D03*
X133112000Y-134601700D03*
X139284000Y-135401700D03*
X133112000Y-135401700D03*
%TD*%
D14*
%TO.C,MC1*%
X178230000Y-102563400D03*
X178230000Y-137040000D03*
D15*
X179284000Y-104201700D03*
X173112000Y-104201700D03*
X179284000Y-105001700D03*
X173112000Y-105001700D03*
X179284000Y-105801700D03*
X173112000Y-105801700D03*
X179284000Y-106601700D03*
X173112000Y-106601700D03*
X179284000Y-107401700D03*
X173112000Y-107401700D03*
X179284000Y-108201700D03*
X173112000Y-108201700D03*
X179284000Y-109001700D03*
X173112000Y-109001700D03*
X179284000Y-109801700D03*
X173112000Y-109801700D03*
X179284000Y-110601700D03*
X173112000Y-110601700D03*
X179284000Y-111401700D03*
X173112000Y-111401700D03*
X179284000Y-112201700D03*
X173112000Y-112201700D03*
X179284000Y-113001700D03*
X173112000Y-113001700D03*
X179284000Y-113801700D03*
X173112000Y-113801700D03*
X179284000Y-114601700D03*
X173112000Y-114601700D03*
X179284000Y-115401700D03*
X173112000Y-115401700D03*
X179284000Y-116201700D03*
X173112000Y-116201700D03*
X179284000Y-117001700D03*
X173112000Y-117001700D03*
X179284000Y-117801700D03*
X173112000Y-117801700D03*
X179284000Y-118601700D03*
X173112000Y-118601700D03*
X179284000Y-119401700D03*
X173112000Y-119401700D03*
X179284000Y-120201700D03*
X173112000Y-120201700D03*
X179284000Y-121001700D03*
X173112000Y-121001700D03*
X179284000Y-121801700D03*
X173112000Y-121801700D03*
X179284000Y-122601700D03*
X173112000Y-122601700D03*
X179284000Y-123401700D03*
X173112000Y-123401700D03*
X179284000Y-124201700D03*
X173112000Y-124201700D03*
X179284000Y-125001700D03*
X173112000Y-125001700D03*
X179284000Y-125801700D03*
X173112000Y-125801700D03*
X179284000Y-126601700D03*
X173112000Y-126601700D03*
X179284000Y-127401700D03*
X173112000Y-127401700D03*
X179284000Y-128201700D03*
X173112000Y-128201700D03*
X179284000Y-129001700D03*
X173112000Y-129001700D03*
X179284000Y-129801700D03*
X173112000Y-129801700D03*
X179284000Y-130601700D03*
X173112000Y-130601700D03*
X179284000Y-131401700D03*
X173112000Y-131401700D03*
X179284000Y-132201700D03*
X173112000Y-132201700D03*
X179284000Y-133001700D03*
X173112000Y-133001700D03*
X179284000Y-133801700D03*
X173112000Y-133801700D03*
X179284000Y-134601700D03*
X173112000Y-134601700D03*
X179284000Y-135401700D03*
X173112000Y-135401700D03*
%TD*%
D13*
%TO.C,H1*%
X134200000Y-73300000D03*
%TD*%
D16*
%TO.C,D1*%
X116790000Y-113270000D03*
X118365000Y-113270000D03*
%TD*%
D17*
%TO.C,C7*%
X118174999Y-97195001D03*
X119134999Y-97195001D03*
%TD*%
D18*
%TO.C,S2*%
X128450000Y-127360000D03*
D19*
X119550000Y-127360000D03*
D18*
X128450000Y-124820000D03*
D19*
X119550000Y-124820000D03*
D18*
X128450000Y-122280000D03*
D19*
X119550000Y-122280000D03*
D18*
X128450000Y-119740000D03*
D19*
X119550000Y-119740000D03*
%TD*%
D20*
%TO.C,R2*%
X115700000Y-117100000D03*
X117350000Y-117100000D03*
%TD*%
D21*
%TO.C,R1*%
X118390000Y-114970000D03*
X116740000Y-114970000D03*
%TD*%
D10*
%TO.C,C4*%
X128999999Y-101070000D03*
X128039999Y-101070000D03*
%TD*%
D22*
%TO.C,U3*%
X122475000Y-113221000D03*
X123125001Y-113221000D03*
X123774999Y-113221000D03*
X124425001Y-113221000D03*
X125074999Y-113221000D03*
X125724998Y-113221000D03*
X126374999Y-113221000D03*
X127024998Y-113221000D03*
X127674999Y-113221000D03*
X128324998Y-113221000D03*
X128325000Y-107379000D03*
X127675002Y-107379000D03*
X127025001Y-107379000D03*
X126375002Y-107379000D03*
X125725001Y-107379000D03*
X125075002Y-107379000D03*
X124425001Y-107379000D03*
X123775002Y-107379000D03*
X123125001Y-107379000D03*
X122475002Y-107379000D03*
%TD*%
D20*
%TO.C,R5*%
X110750000Y-130250000D03*
X112400000Y-130250000D03*
%TD*%
D23*
%TO.C,S1*%
X114258150Y-104307500D03*
X114258150Y-104942500D03*
X114258150Y-105577500D03*
X114258150Y-106212500D03*
X114258150Y-106847500D03*
X114258150Y-107482500D03*
X114258150Y-108117500D03*
X114258150Y-108752500D03*
D24*
X115401150Y-104307500D03*
X115401150Y-104942500D03*
X115401150Y-105577500D03*
X115401150Y-106212500D03*
X115401150Y-106847500D03*
X115401150Y-107482500D03*
X115401150Y-108117500D03*
X115401150Y-108752500D03*
%TD*%
D10*
%TO.C,C6*%
X116734999Y-97195001D03*
X115774999Y-97195001D03*
%TD*%
D21*
%TO.C,R4*%
X117400000Y-130250000D03*
X115750000Y-130250000D03*
%TD*%
D25*
%TO.C,C2*%
X115565000Y-114850000D03*
X115565000Y-113890000D03*
%TD*%
D13*
%TO.C,H3*%
X178200000Y-73300000D03*
%TD*%
D26*
%TO.C,C3*%
X111150000Y-97200000D03*
X111150000Y-100800000D03*
%TD*%
D20*
%TO.C,R3*%
X110700000Y-117100000D03*
X112350000Y-117100000D03*
%TD*%
D26*
%TO.C,C1*%
X123550000Y-97000000D03*
X123550000Y-100600000D03*
%TD*%
M02*
