%TF.GenerationSoftware,KiCad,Pcbnew,6.0.11-2627ca5db0~126~ubuntu22.04.1*%
%TF.CreationDate,2023-12-15T21:44:52-06:00*%
%TF.ProjectId,xem7310_carrier,78656d37-3331-4305-9f63-617272696572,rev?*%
%TF.SameCoordinates,Original*%
%TF.FileFunction,Copper,L3,Inr*%
%TF.FilePolarity,Positive*%
%FSLAX46Y46*%
G04 Gerber Fmt 4.6, Leading zero omitted, Abs format (unit mm)*
G04 Created by KiCad (PCBNEW 6.0.11-2627ca5db0~126~ubuntu22.04.1) date 2023-12-15 21:44:52*
%MOMM*%
%LPD*%
G01*
G04 APERTURE LIST*
%TA.AperFunction,ComponentPad*%
%ADD10C,4.700000*%
%TD*%
%TA.AperFunction,ViaPad*%
%ADD11C,0.800000*%
%TD*%
%TA.AperFunction,ViaPad*%
%ADD12C,0.700000*%
%TD*%
G04 APERTURE END LIST*
D10*
%TO.N,unconnected-(H2-Pad1)*%
%TO.C,H2*%
X134200000Y-142300000D03*
%TD*%
%TO.N,unconnected-(H4-Pad1)*%
%TO.C,H4*%
X178200000Y-142300000D03*
%TD*%
%TO.N,unconnected-(H1-Pad1)*%
%TO.C,H1*%
X134200000Y-73300000D03*
%TD*%
%TO.N,unconnected-(H3-Pad1)*%
%TO.C,H3*%
X178200000Y-73300000D03*
%TD*%
D11*
%TO.N,+5V*%
X116800000Y-104200000D03*
%TO.N,+3.3V*%
X131000000Y-104200000D03*
X110750000Y-111950000D03*
D12*
%TO.N,+5V*%
X141098300Y-104201700D03*
D11*
X117750000Y-99000000D03*
%TO.N,Net-(MC1-Pad32)*%
X117700000Y-118450000D03*
X130700000Y-119700000D03*
X121550000Y-118500000D03*
X141500000Y-120750000D03*
%TO.N,Net-(MC1-Pad34)*%
X117700000Y-120000000D03*
X121400000Y-120050000D03*
X130650000Y-122300000D03*
X141500000Y-123250000D03*
%TO.N,Net-(MC1-Pad38)*%
X141500000Y-126000000D03*
X130800000Y-124850000D03*
%TO.N,Net-(MC1-Pad40)*%
X141500000Y-128500000D03*
X123450000Y-128350000D03*
X130950000Y-127350000D03*
X126300000Y-128350000D03*
%TO.N,/SCK_A*%
X125610000Y-110630000D03*
X127830000Y-110620000D03*
%TO.N,/MOSI_A1*%
X122590000Y-111830000D03*
X130760000Y-110985500D03*
%TO.N,/MISO_A2*%
X130220000Y-106110000D03*
X130450000Y-113800000D03*
%TO.N,/MOSI1-*%
X123325001Y-105627266D03*
X112010000Y-106005000D03*
%TO.N,/SCLK+*%
X119901232Y-105601232D03*
X112018768Y-104571232D03*
%TO.N,/MOSI1+*%
X112010000Y-107055000D03*
X122275001Y-105627266D03*
%TO.N,/SCLK-*%
X119158768Y-104858768D03*
X112761232Y-103828768D03*
%TO.N,/MISO1-*%
X111848768Y-108378768D03*
X129778640Y-107150010D03*
%TO.N,/CS+*%
X117774724Y-108848735D03*
X121008768Y-108698768D03*
%TO.N,/MISO1+*%
X130521104Y-107892474D03*
X112591232Y-109121232D03*
%TO.N,/CS-*%
X121600000Y-109655500D03*
X117774724Y-109898735D03*
%TD*%
%TA.AperFunction,Conductor*%
%TO.N,+5V*%
G36*
X176447248Y-70828502D02*
G01*
X176493741Y-70882158D01*
X176503845Y-70952432D01*
X176474351Y-71017012D01*
X176457907Y-71032834D01*
X176286892Y-71169843D01*
X176284049Y-71172121D01*
X176052174Y-71406437D01*
X175848767Y-71665851D01*
X175846874Y-71668940D01*
X175846872Y-71668943D01*
X175804802Y-71737596D01*
X175676525Y-71946925D01*
X175537730Y-72245933D01*
X175434222Y-72558912D01*
X175367373Y-72881714D01*
X175338069Y-73210060D01*
X175346698Y-73539598D01*
X175393146Y-73865961D01*
X175476798Y-74184822D01*
X175596544Y-74491955D01*
X175598248Y-74495173D01*
X175723468Y-74731672D01*
X175750798Y-74783290D01*
X175752850Y-74786275D01*
X175752855Y-74786284D01*
X175935457Y-75051972D01*
X175935463Y-75051979D01*
X175937514Y-75054964D01*
X176154219Y-75303377D01*
X176398039Y-75525236D01*
X176400987Y-75527354D01*
X176400989Y-75527356D01*
X176662793Y-75715481D01*
X176662799Y-75715485D01*
X176665744Y-75717601D01*
X176953784Y-75877922D01*
X177258342Y-76004074D01*
X177261836Y-76005069D01*
X177261838Y-76005070D01*
X177571880Y-76093388D01*
X177571885Y-76093389D01*
X177575381Y-76094385D01*
X177761993Y-76124944D01*
X177897118Y-76147072D01*
X177897125Y-76147073D01*
X177900699Y-76147658D01*
X178065341Y-76155422D01*
X178226357Y-76163016D01*
X178226358Y-76163016D01*
X178229984Y-76163187D01*
X178241877Y-76162376D01*
X178555241Y-76141014D01*
X178555249Y-76141013D01*
X178558872Y-76140766D01*
X178562448Y-76140103D01*
X178562450Y-76140103D01*
X178879438Y-76081353D01*
X178879442Y-76081352D01*
X178883003Y-76080692D01*
X179198082Y-75983761D01*
X179338406Y-75922163D01*
X179496604Y-75852719D01*
X179496612Y-75852715D01*
X179499931Y-75851258D01*
X179784550Y-75684940D01*
X179916933Y-75585544D01*
X180045260Y-75489194D01*
X180045264Y-75489191D01*
X180048167Y-75487011D01*
X180287288Y-75260094D01*
X180468837Y-75042964D01*
X180527878Y-75003535D01*
X180598864Y-75002284D01*
X180659257Y-75039610D01*
X180689882Y-75103662D01*
X180691500Y-75123787D01*
X180691500Y-140478803D01*
X180671498Y-140546924D01*
X180617842Y-140593417D01*
X180547568Y-140603521D01*
X180482988Y-140574027D01*
X180463953Y-140553397D01*
X180408384Y-140477749D01*
X180408382Y-140477747D01*
X180406244Y-140474836D01*
X180181844Y-140233352D01*
X180179084Y-140230995D01*
X180179078Y-140230989D01*
X179933947Y-140021628D01*
X179933942Y-140021624D01*
X179931175Y-140019261D01*
X179928150Y-140017228D01*
X179660569Y-139837420D01*
X179660565Y-139837418D01*
X179657561Y-139835399D01*
X179364627Y-139684205D01*
X179056257Y-139567682D01*
X179052736Y-139566798D01*
X179052731Y-139566796D01*
X178899669Y-139528350D01*
X178736537Y-139487374D01*
X178716253Y-139484704D01*
X178413310Y-139444820D01*
X178413302Y-139444819D01*
X178409706Y-139444346D01*
X178272651Y-139442193D01*
X178083738Y-139439225D01*
X178083734Y-139439225D01*
X178080096Y-139439168D01*
X178076482Y-139439529D01*
X178076476Y-139439529D01*
X177845816Y-139462552D01*
X177752074Y-139471909D01*
X177429990Y-139542134D01*
X177426563Y-139543307D01*
X177426557Y-139543309D01*
X177351617Y-139568967D01*
X177118112Y-139648914D01*
X176820574Y-139790833D01*
X176541319Y-139966009D01*
X176538485Y-139968279D01*
X176538480Y-139968283D01*
X176471895Y-140021628D01*
X176284049Y-140172121D01*
X176052174Y-140406437D01*
X175848767Y-140665851D01*
X175846874Y-140668940D01*
X175846872Y-140668943D01*
X175804802Y-140737596D01*
X175676525Y-140946925D01*
X175537730Y-141245933D01*
X175434222Y-141558912D01*
X175367373Y-141881714D01*
X175338069Y-142210060D01*
X175346698Y-142539598D01*
X175393146Y-142865961D01*
X175476798Y-143184822D01*
X175596544Y-143491955D01*
X175598248Y-143495173D01*
X175723468Y-143731672D01*
X175750798Y-143783290D01*
X175752850Y-143786275D01*
X175752855Y-143786284D01*
X175935457Y-144051972D01*
X175935463Y-144051979D01*
X175937514Y-144054964D01*
X176154219Y-144303377D01*
X176398039Y-144525236D01*
X176400987Y-144527354D01*
X176400989Y-144527356D01*
X176450840Y-144563177D01*
X176494488Y-144619172D01*
X176500934Y-144689875D01*
X176468132Y-144752839D01*
X176406495Y-144788074D01*
X176377314Y-144791500D01*
X136020295Y-144791500D01*
X135952174Y-144771498D01*
X135905681Y-144717842D01*
X135895577Y-144647568D01*
X135925071Y-144582988D01*
X135944642Y-144564740D01*
X136045260Y-144489194D01*
X136045264Y-144489191D01*
X136048167Y-144487011D01*
X136287288Y-144260094D01*
X136498743Y-144007197D01*
X136500731Y-144004171D01*
X136677742Y-143734698D01*
X136677747Y-143734689D01*
X136679729Y-143731672D01*
X136827847Y-143437171D01*
X136941135Y-143127597D01*
X136941980Y-143124075D01*
X136941983Y-143124067D01*
X137017244Y-142810584D01*
X137017245Y-142810580D01*
X137018091Y-142807055D01*
X137057694Y-142479791D01*
X137063344Y-142300000D01*
X137063183Y-142297204D01*
X137044577Y-141974515D01*
X137044576Y-141974510D01*
X137044368Y-141970895D01*
X136987691Y-141646153D01*
X136894065Y-141330077D01*
X136764731Y-141026857D01*
X136721009Y-140950203D01*
X136603193Y-140743651D01*
X136601402Y-140740511D01*
X136499902Y-140602335D01*
X136408384Y-140477749D01*
X136408382Y-140477747D01*
X136406244Y-140474836D01*
X136181844Y-140233352D01*
X136179084Y-140230995D01*
X136179078Y-140230989D01*
X135933947Y-140021628D01*
X135933942Y-140021624D01*
X135931175Y-140019261D01*
X135928150Y-140017228D01*
X135660569Y-139837420D01*
X135660565Y-139837418D01*
X135657561Y-139835399D01*
X135364627Y-139684205D01*
X135056257Y-139567682D01*
X135052736Y-139566798D01*
X135052731Y-139566796D01*
X134899669Y-139528350D01*
X134736537Y-139487374D01*
X134716253Y-139484704D01*
X134413310Y-139444820D01*
X134413302Y-139444819D01*
X134409706Y-139444346D01*
X134272651Y-139442193D01*
X134083738Y-139439225D01*
X134083734Y-139439225D01*
X134080096Y-139439168D01*
X134076482Y-139439529D01*
X134076476Y-139439529D01*
X133845816Y-139462552D01*
X133752074Y-139471909D01*
X133429990Y-139542134D01*
X133426563Y-139543307D01*
X133426557Y-139543309D01*
X133351617Y-139568967D01*
X133118112Y-139648914D01*
X132820574Y-139790833D01*
X132541319Y-139966009D01*
X132538485Y-139968279D01*
X132538480Y-139968283D01*
X132471895Y-140021628D01*
X132284049Y-140172121D01*
X132052174Y-140406437D01*
X131933654Y-140557591D01*
X131875880Y-140598855D01*
X131804969Y-140602335D01*
X131743434Y-140566924D01*
X131710811Y-140503866D01*
X131708500Y-140479844D01*
X131708500Y-137032869D01*
X137208607Y-137032869D01*
X137226674Y-137231395D01*
X137228415Y-137237309D01*
X137228415Y-137237311D01*
X137266721Y-137367461D01*
X137282958Y-137422630D01*
X137375314Y-137599291D01*
X137500225Y-137754649D01*
X137652933Y-137882786D01*
X137827621Y-137978821D01*
X137833488Y-137980682D01*
X137833490Y-137980683D01*
X138011758Y-138037234D01*
X138011761Y-138037235D01*
X138017635Y-138039098D01*
X138172784Y-138056500D01*
X138280157Y-138056500D01*
X138283213Y-138056200D01*
X138283220Y-138056200D01*
X138342241Y-138050413D01*
X138428394Y-138041965D01*
X138434293Y-138040184D01*
X138434298Y-138040183D01*
X138613333Y-137986129D01*
X138619232Y-137984348D01*
X138707238Y-137937555D01*
X138789802Y-137893655D01*
X138789805Y-137893653D01*
X138795244Y-137890761D01*
X138800014Y-137886871D01*
X138800018Y-137886868D01*
X138944951Y-137768663D01*
X138944954Y-137768660D01*
X138949726Y-137764768D01*
X139076794Y-137611170D01*
X139171608Y-137435815D01*
X139230556Y-137245385D01*
X139231405Y-137237311D01*
X139250749Y-137053260D01*
X139250749Y-137053258D01*
X139251393Y-137047131D01*
X139250095Y-137032869D01*
X177208607Y-137032869D01*
X177226674Y-137231395D01*
X177228415Y-137237309D01*
X177228415Y-137237311D01*
X177266721Y-137367461D01*
X177282958Y-137422630D01*
X177375314Y-137599291D01*
X177500225Y-137754649D01*
X177652933Y-137882786D01*
X177827621Y-137978821D01*
X177833488Y-137980682D01*
X177833490Y-137980683D01*
X178011758Y-138037234D01*
X178011761Y-138037235D01*
X178017635Y-138039098D01*
X178172784Y-138056500D01*
X178280157Y-138056500D01*
X178283213Y-138056200D01*
X178283220Y-138056200D01*
X178342241Y-138050413D01*
X178428394Y-138041965D01*
X178434293Y-138040184D01*
X178434298Y-138040183D01*
X178613333Y-137986129D01*
X178619232Y-137984348D01*
X178707238Y-137937555D01*
X178789802Y-137893655D01*
X178789805Y-137893653D01*
X178795244Y-137890761D01*
X178800014Y-137886871D01*
X178800018Y-137886868D01*
X178944951Y-137768663D01*
X178944954Y-137768660D01*
X178949726Y-137764768D01*
X179076794Y-137611170D01*
X179171608Y-137435815D01*
X179230556Y-137245385D01*
X179231405Y-137237311D01*
X179250749Y-137053260D01*
X179250749Y-137053258D01*
X179251393Y-137047131D01*
X179233326Y-136848605D01*
X179231012Y-136840741D01*
X179178784Y-136663289D01*
X179177042Y-136657370D01*
X179084686Y-136480709D01*
X178959775Y-136325351D01*
X178807067Y-136197214D01*
X178632379Y-136101179D01*
X178626512Y-136099318D01*
X178626510Y-136099317D01*
X178448242Y-136042766D01*
X178448239Y-136042765D01*
X178442365Y-136040902D01*
X178287216Y-136023500D01*
X178179843Y-136023500D01*
X178176787Y-136023800D01*
X178176780Y-136023800D01*
X178117759Y-136029587D01*
X178031606Y-136038035D01*
X178025707Y-136039816D01*
X178025702Y-136039817D01*
X177847043Y-136093758D01*
X177840768Y-136095652D01*
X177752762Y-136142445D01*
X177670198Y-136186345D01*
X177670195Y-136186347D01*
X177664756Y-136189239D01*
X177659986Y-136193129D01*
X177659982Y-136193132D01*
X177515049Y-136311337D01*
X177515046Y-136311340D01*
X177510274Y-136315232D01*
X177383206Y-136468830D01*
X177288392Y-136644185D01*
X177229444Y-136834615D01*
X177228800Y-136840740D01*
X177228800Y-136840741D01*
X177227974Y-136848605D01*
X177208607Y-137032869D01*
X139250095Y-137032869D01*
X139233326Y-136848605D01*
X139231012Y-136840741D01*
X139178784Y-136663289D01*
X139177042Y-136657370D01*
X139084686Y-136480709D01*
X138959775Y-136325351D01*
X138807067Y-136197214D01*
X138632379Y-136101179D01*
X138626512Y-136099318D01*
X138626510Y-136099317D01*
X138448242Y-136042766D01*
X138448239Y-136042765D01*
X138442365Y-136040902D01*
X138287216Y-136023500D01*
X138179843Y-136023500D01*
X138176787Y-136023800D01*
X138176780Y-136023800D01*
X138117759Y-136029587D01*
X138031606Y-136038035D01*
X138025707Y-136039816D01*
X138025702Y-136039817D01*
X137847043Y-136093758D01*
X137840768Y-136095652D01*
X137752762Y-136142445D01*
X137670198Y-136186345D01*
X137670195Y-136186347D01*
X137664756Y-136189239D01*
X137659986Y-136193129D01*
X137659982Y-136193132D01*
X137515049Y-136311337D01*
X137515046Y-136311340D01*
X137510274Y-136315232D01*
X137383206Y-136468830D01*
X137288392Y-136644185D01*
X137229444Y-136834615D01*
X137228800Y-136840740D01*
X137228800Y-136840741D01*
X137227974Y-136848605D01*
X137208607Y-137032869D01*
X131708500Y-137032869D01*
X131708500Y-132704689D01*
X131710247Y-132683781D01*
X131712768Y-132668801D01*
X131712768Y-132668796D01*
X131713576Y-132663997D01*
X131713729Y-132651445D01*
X131712762Y-132644690D01*
X131711831Y-132636104D01*
X131711283Y-132628667D01*
X131694927Y-132406940D01*
X131657219Y-132239057D01*
X131642216Y-132172260D01*
X131642214Y-132172253D01*
X131641198Y-132167730D01*
X131600149Y-132061346D01*
X131554614Y-131943339D01*
X131552939Y-131938998D01*
X131432062Y-131725698D01*
X131429201Y-131722034D01*
X131429198Y-131722029D01*
X131284043Y-131536111D01*
X131284040Y-131536107D01*
X131281185Y-131532451D01*
X131103578Y-131363443D01*
X130903087Y-131222336D01*
X130684055Y-131112185D01*
X130679647Y-131110731D01*
X130679645Y-131110730D01*
X130455643Y-131036834D01*
X130455637Y-131036833D01*
X130451228Y-131035378D01*
X130446651Y-131034586D01*
X130446647Y-131034585D01*
X130214221Y-130994368D01*
X130214217Y-130994368D01*
X130209648Y-130993577D01*
X129999538Y-130988530D01*
X129987860Y-130987705D01*
X129977054Y-130986434D01*
X129972196Y-130986616D01*
X129972195Y-130986616D01*
X129971658Y-130986636D01*
X129964510Y-130986904D01*
X129959738Y-130987831D01*
X129959730Y-130987832D01*
X129952752Y-130989188D01*
X129928724Y-130991500D01*
X109679343Y-130991500D01*
X109666167Y-130990064D01*
X109666148Y-130990315D01*
X109657190Y-130989643D01*
X109648428Y-130987710D01*
X109639475Y-130988314D01*
X109639474Y-130988314D01*
X109639129Y-130988337D01*
X109638292Y-130988394D01*
X109608821Y-130986919D01*
X109553301Y-130977539D01*
X109493385Y-130967415D01*
X109468015Y-130960336D01*
X109340332Y-130909810D01*
X109316986Y-130897611D01*
X109202592Y-130821638D01*
X109182301Y-130804857D01*
X109086206Y-130706764D01*
X109069841Y-130686126D01*
X108996240Y-130570196D01*
X108984524Y-130546604D01*
X108936637Y-130417914D01*
X108930081Y-130392401D01*
X108913934Y-130283191D01*
X108913660Y-130267379D01*
X108912761Y-130267406D01*
X108912493Y-130258435D01*
X108913500Y-130249512D01*
X108910281Y-130230994D01*
X108908420Y-130209605D01*
X108908346Y-130158098D01*
X108907311Y-129442526D01*
X113336335Y-129442526D01*
X113355153Y-129612975D01*
X113357762Y-129620106D01*
X113357763Y-129620108D01*
X113365688Y-129641764D01*
X113414085Y-129774015D01*
X113509730Y-129916349D01*
X113636565Y-130031760D01*
X113787268Y-130113585D01*
X113953139Y-130157101D01*
X114040586Y-130158474D01*
X114117003Y-130159675D01*
X114117006Y-130159675D01*
X114124602Y-130159794D01*
X114132006Y-130158098D01*
X114132008Y-130158098D01*
X114194846Y-130143706D01*
X114291759Y-130121510D01*
X114444958Y-130044459D01*
X114450729Y-130039530D01*
X114450732Y-130039528D01*
X114569578Y-129938023D01*
X114575355Y-129933089D01*
X114675424Y-129793830D01*
X114739385Y-129634720D01*
X114763547Y-129464947D01*
X114763704Y-129450000D01*
X114743102Y-129279758D01*
X114735070Y-129258500D01*
X114685171Y-129126447D01*
X114682487Y-129119344D01*
X114585357Y-128978019D01*
X114579686Y-128972966D01*
X114462993Y-128868996D01*
X114462990Y-128868994D01*
X114457321Y-128863943D01*
X114449325Y-128859709D01*
X114312481Y-128787254D01*
X114312482Y-128787254D01*
X114305769Y-128783700D01*
X114288196Y-128779286D01*
X114146822Y-128743775D01*
X114146818Y-128743775D01*
X114139451Y-128741924D01*
X114131852Y-128741884D01*
X114131850Y-128741884D01*
X114060394Y-128741510D01*
X113967969Y-128741026D01*
X113960589Y-128742798D01*
X113960587Y-128742798D01*
X113808602Y-128779286D01*
X113808598Y-128779287D01*
X113801223Y-128781058D01*
X113648839Y-128859709D01*
X113519615Y-128972439D01*
X113421010Y-129112739D01*
X113408899Y-129143803D01*
X113364715Y-129257128D01*
X113358718Y-129272509D01*
X113357726Y-129280042D01*
X113357726Y-129280043D01*
X113340815Y-129408500D01*
X113336335Y-129442526D01*
X108907311Y-129442526D01*
X108905730Y-128350000D01*
X122536496Y-128350000D01*
X122556458Y-128539928D01*
X122615473Y-128721556D01*
X122710960Y-128886944D01*
X122838747Y-129028866D01*
X122856621Y-129041852D01*
X122963933Y-129119819D01*
X122993248Y-129141118D01*
X122999276Y-129143802D01*
X122999278Y-129143803D01*
X123086753Y-129182749D01*
X123167712Y-129218794D01*
X123261112Y-129238647D01*
X123348056Y-129257128D01*
X123348061Y-129257128D01*
X123354513Y-129258500D01*
X123545487Y-129258500D01*
X123551939Y-129257128D01*
X123551944Y-129257128D01*
X123638888Y-129238647D01*
X123732288Y-129218794D01*
X123813247Y-129182749D01*
X123900722Y-129143803D01*
X123900724Y-129143802D01*
X123906752Y-129141118D01*
X123936068Y-129119819D01*
X124043379Y-129041852D01*
X124061253Y-129028866D01*
X124189040Y-128886944D01*
X124284527Y-128721556D01*
X124343542Y-128539928D01*
X124363504Y-128350000D01*
X125386496Y-128350000D01*
X125406458Y-128539928D01*
X125465473Y-128721556D01*
X125560960Y-128886944D01*
X125688747Y-129028866D01*
X125706621Y-129041852D01*
X125813933Y-129119819D01*
X125843248Y-129141118D01*
X125849276Y-129143802D01*
X125849278Y-129143803D01*
X125936753Y-129182749D01*
X126017712Y-129218794D01*
X126111112Y-129238647D01*
X126198056Y-129257128D01*
X126198061Y-129257128D01*
X126204513Y-129258500D01*
X126395487Y-129258500D01*
X126401939Y-129257128D01*
X126401944Y-129257128D01*
X126488888Y-129238647D01*
X126582288Y-129218794D01*
X126663247Y-129182749D01*
X126750722Y-129143803D01*
X126750724Y-129143802D01*
X126756752Y-129141118D01*
X126786068Y-129119819D01*
X126893379Y-129041852D01*
X126911253Y-129028866D01*
X127039040Y-128886944D01*
X127134527Y-128721556D01*
X127193542Y-128539928D01*
X127197739Y-128500000D01*
X140586496Y-128500000D01*
X140606458Y-128689928D01*
X140665473Y-128871556D01*
X140760960Y-129036944D01*
X140765378Y-129041851D01*
X140765379Y-129041852D01*
X140857176Y-129143803D01*
X140888747Y-129178866D01*
X140987843Y-129250864D01*
X141028005Y-129280043D01*
X141043248Y-129291118D01*
X141049276Y-129293802D01*
X141049278Y-129293803D01*
X141211681Y-129366109D01*
X141217712Y-129368794D01*
X141311113Y-129388647D01*
X141398056Y-129407128D01*
X141398061Y-129407128D01*
X141404513Y-129408500D01*
X141595487Y-129408500D01*
X141601939Y-129407128D01*
X141601944Y-129407128D01*
X141688887Y-129388647D01*
X141782288Y-129368794D01*
X141788319Y-129366109D01*
X141950722Y-129293803D01*
X141950724Y-129293802D01*
X141956752Y-129291118D01*
X141971996Y-129280043D01*
X142012157Y-129250864D01*
X142111253Y-129178866D01*
X142142824Y-129143803D01*
X142234621Y-129041852D01*
X142234622Y-129041851D01*
X142239040Y-129036944D01*
X142334527Y-128871556D01*
X142393542Y-128689928D01*
X142413504Y-128500000D01*
X142393542Y-128310072D01*
X142334527Y-128128444D01*
X142239040Y-127963056D01*
X142111253Y-127821134D01*
X141956752Y-127708882D01*
X141950724Y-127706198D01*
X141950722Y-127706197D01*
X141788319Y-127633891D01*
X141788318Y-127633891D01*
X141782288Y-127631206D01*
X141688888Y-127611353D01*
X141601944Y-127592872D01*
X141601939Y-127592872D01*
X141595487Y-127591500D01*
X141404513Y-127591500D01*
X141398061Y-127592872D01*
X141398056Y-127592872D01*
X141311112Y-127611353D01*
X141217712Y-127631206D01*
X141211682Y-127633891D01*
X141211681Y-127633891D01*
X141049278Y-127706197D01*
X141049276Y-127706198D01*
X141043248Y-127708882D01*
X140888747Y-127821134D01*
X140760960Y-127963056D01*
X140665473Y-128128444D01*
X140606458Y-128310072D01*
X140586496Y-128500000D01*
X127197739Y-128500000D01*
X127213504Y-128350000D01*
X127193542Y-128160072D01*
X127134527Y-127978444D01*
X127039040Y-127813056D01*
X126945242Y-127708882D01*
X126915675Y-127676045D01*
X126915674Y-127676044D01*
X126911253Y-127671134D01*
X126756752Y-127558882D01*
X126750724Y-127556198D01*
X126750722Y-127556197D01*
X126588319Y-127483891D01*
X126588318Y-127483891D01*
X126582288Y-127481206D01*
X126488887Y-127461353D01*
X126401944Y-127442872D01*
X126401939Y-127442872D01*
X126395487Y-127441500D01*
X126204513Y-127441500D01*
X126198061Y-127442872D01*
X126198056Y-127442872D01*
X126111113Y-127461353D01*
X126017712Y-127481206D01*
X126011682Y-127483891D01*
X126011681Y-127483891D01*
X125849278Y-127556197D01*
X125849276Y-127556198D01*
X125843248Y-127558882D01*
X125688747Y-127671134D01*
X125684326Y-127676044D01*
X125684325Y-127676045D01*
X125654759Y-127708882D01*
X125560960Y-127813056D01*
X125465473Y-127978444D01*
X125406458Y-128160072D01*
X125386496Y-128350000D01*
X124363504Y-128350000D01*
X124343542Y-128160072D01*
X124284527Y-127978444D01*
X124189040Y-127813056D01*
X124095242Y-127708882D01*
X124065675Y-127676045D01*
X124065674Y-127676044D01*
X124061253Y-127671134D01*
X123906752Y-127558882D01*
X123900724Y-127556198D01*
X123900722Y-127556197D01*
X123738319Y-127483891D01*
X123738318Y-127483891D01*
X123732288Y-127481206D01*
X123638887Y-127461353D01*
X123551944Y-127442872D01*
X123551939Y-127442872D01*
X123545487Y-127441500D01*
X123354513Y-127441500D01*
X123348061Y-127442872D01*
X123348056Y-127442872D01*
X123261113Y-127461353D01*
X123167712Y-127481206D01*
X123161682Y-127483891D01*
X123161681Y-127483891D01*
X122999278Y-127556197D01*
X122999276Y-127556198D01*
X122993248Y-127558882D01*
X122838747Y-127671134D01*
X122834326Y-127676044D01*
X122834325Y-127676045D01*
X122804759Y-127708882D01*
X122710960Y-127813056D01*
X122615473Y-127978444D01*
X122556458Y-128160072D01*
X122536496Y-128350000D01*
X108905730Y-128350000D01*
X108904283Y-127350000D01*
X130036496Y-127350000D01*
X130056458Y-127539928D01*
X130115473Y-127721556D01*
X130210960Y-127886944D01*
X130338747Y-128028866D01*
X130493248Y-128141118D01*
X130499276Y-128143802D01*
X130499278Y-128143803D01*
X130550560Y-128166635D01*
X130667712Y-128218794D01*
X130761113Y-128238647D01*
X130848056Y-128257128D01*
X130848061Y-128257128D01*
X130854513Y-128258500D01*
X131045487Y-128258500D01*
X131051939Y-128257128D01*
X131051944Y-128257128D01*
X131138887Y-128238647D01*
X131232288Y-128218794D01*
X131349440Y-128166635D01*
X131400722Y-128143803D01*
X131400724Y-128143802D01*
X131406752Y-128141118D01*
X131561253Y-128028866D01*
X131689040Y-127886944D01*
X131784527Y-127721556D01*
X131843542Y-127539928D01*
X131863504Y-127350000D01*
X131843542Y-127160072D01*
X131784527Y-126978444D01*
X131689040Y-126813056D01*
X131665793Y-126787237D01*
X131565675Y-126676045D01*
X131565674Y-126676044D01*
X131561253Y-126671134D01*
X131406752Y-126558882D01*
X131400724Y-126556198D01*
X131400722Y-126556197D01*
X131238319Y-126483891D01*
X131238318Y-126483891D01*
X131232288Y-126481206D01*
X131138888Y-126461353D01*
X131051944Y-126442872D01*
X131051939Y-126442872D01*
X131045487Y-126441500D01*
X130854513Y-126441500D01*
X130848061Y-126442872D01*
X130848056Y-126442872D01*
X130761112Y-126461353D01*
X130667712Y-126481206D01*
X130661682Y-126483891D01*
X130661681Y-126483891D01*
X130499278Y-126556197D01*
X130499276Y-126556198D01*
X130493248Y-126558882D01*
X130338747Y-126671134D01*
X130334326Y-126676044D01*
X130334325Y-126676045D01*
X130234208Y-126787237D01*
X130210960Y-126813056D01*
X130115473Y-126978444D01*
X130056458Y-127160072D01*
X130036496Y-127350000D01*
X108904283Y-127350000D01*
X108902330Y-126000000D01*
X140586496Y-126000000D01*
X140606458Y-126189928D01*
X140665473Y-126371556D01*
X140760960Y-126536944D01*
X140765378Y-126541851D01*
X140765379Y-126541852D01*
X140878289Y-126667251D01*
X140888747Y-126678866D01*
X141043248Y-126791118D01*
X141049276Y-126793802D01*
X141049278Y-126793803D01*
X141211681Y-126866109D01*
X141217712Y-126868794D01*
X141311112Y-126888647D01*
X141398056Y-126907128D01*
X141398061Y-126907128D01*
X141404513Y-126908500D01*
X141595487Y-126908500D01*
X141601939Y-126907128D01*
X141601944Y-126907128D01*
X141688888Y-126888647D01*
X141782288Y-126868794D01*
X141788319Y-126866109D01*
X141950722Y-126793803D01*
X141950724Y-126793802D01*
X141956752Y-126791118D01*
X142111253Y-126678866D01*
X142121711Y-126667251D01*
X142234621Y-126541852D01*
X142234622Y-126541851D01*
X142239040Y-126536944D01*
X142334527Y-126371556D01*
X142393542Y-126189928D01*
X142413504Y-126000000D01*
X142393542Y-125810072D01*
X142334527Y-125628444D01*
X142239040Y-125463056D01*
X142111253Y-125321134D01*
X141956752Y-125208882D01*
X141950724Y-125206198D01*
X141950722Y-125206197D01*
X141788319Y-125133891D01*
X141788318Y-125133891D01*
X141782288Y-125131206D01*
X141688888Y-125111353D01*
X141601944Y-125092872D01*
X141601939Y-125092872D01*
X141595487Y-125091500D01*
X141404513Y-125091500D01*
X141398061Y-125092872D01*
X141398056Y-125092872D01*
X141311112Y-125111353D01*
X141217712Y-125131206D01*
X141211682Y-125133891D01*
X141211681Y-125133891D01*
X141049278Y-125206197D01*
X141049276Y-125206198D01*
X141043248Y-125208882D01*
X140888747Y-125321134D01*
X140760960Y-125463056D01*
X140665473Y-125628444D01*
X140606458Y-125810072D01*
X140586496Y-126000000D01*
X108902330Y-126000000D01*
X108900666Y-124850000D01*
X129886496Y-124850000D01*
X129906458Y-125039928D01*
X129965473Y-125221556D01*
X130060960Y-125386944D01*
X130188747Y-125528866D01*
X130343248Y-125641118D01*
X130349276Y-125643802D01*
X130349278Y-125643803D01*
X130511681Y-125716109D01*
X130517712Y-125718794D01*
X130611113Y-125738647D01*
X130698056Y-125757128D01*
X130698061Y-125757128D01*
X130704513Y-125758500D01*
X130895487Y-125758500D01*
X130901939Y-125757128D01*
X130901944Y-125757128D01*
X130988887Y-125738647D01*
X131082288Y-125718794D01*
X131088319Y-125716109D01*
X131250722Y-125643803D01*
X131250724Y-125643802D01*
X131256752Y-125641118D01*
X131411253Y-125528866D01*
X131539040Y-125386944D01*
X131634527Y-125221556D01*
X131693542Y-125039928D01*
X131713504Y-124850000D01*
X131693542Y-124660072D01*
X131634527Y-124478444D01*
X131539040Y-124313056D01*
X131411253Y-124171134D01*
X131256752Y-124058882D01*
X131250724Y-124056198D01*
X131250722Y-124056197D01*
X131088319Y-123983891D01*
X131088318Y-123983891D01*
X131082288Y-123981206D01*
X130988887Y-123961353D01*
X130901944Y-123942872D01*
X130901939Y-123942872D01*
X130895487Y-123941500D01*
X130704513Y-123941500D01*
X130698061Y-123942872D01*
X130698056Y-123942872D01*
X130611113Y-123961353D01*
X130517712Y-123981206D01*
X130511682Y-123983891D01*
X130511681Y-123983891D01*
X130349278Y-124056197D01*
X130349276Y-124056198D01*
X130343248Y-124058882D01*
X130188747Y-124171134D01*
X130060960Y-124313056D01*
X129965473Y-124478444D01*
X129906458Y-124660072D01*
X129886496Y-124850000D01*
X108900666Y-124850000D01*
X108898351Y-123250000D01*
X140586496Y-123250000D01*
X140606458Y-123439928D01*
X140665473Y-123621556D01*
X140760960Y-123786944D01*
X140888747Y-123928866D01*
X141043248Y-124041118D01*
X141049276Y-124043802D01*
X141049278Y-124043803D01*
X141211681Y-124116109D01*
X141217712Y-124118794D01*
X141311113Y-124138647D01*
X141398056Y-124157128D01*
X141398061Y-124157128D01*
X141404513Y-124158500D01*
X141595487Y-124158500D01*
X141601939Y-124157128D01*
X141601944Y-124157128D01*
X141688887Y-124138647D01*
X141782288Y-124118794D01*
X141788319Y-124116109D01*
X141950722Y-124043803D01*
X141950724Y-124043802D01*
X141956752Y-124041118D01*
X142111253Y-123928866D01*
X142239040Y-123786944D01*
X142334527Y-123621556D01*
X142393542Y-123439928D01*
X142413504Y-123250000D01*
X142393542Y-123060072D01*
X142334527Y-122878444D01*
X142239040Y-122713056D01*
X142111253Y-122571134D01*
X141956752Y-122458882D01*
X141950724Y-122456198D01*
X141950722Y-122456197D01*
X141788319Y-122383891D01*
X141788318Y-122383891D01*
X141782288Y-122381206D01*
X141688887Y-122361353D01*
X141601944Y-122342872D01*
X141601939Y-122342872D01*
X141595487Y-122341500D01*
X141404513Y-122341500D01*
X141398061Y-122342872D01*
X141398056Y-122342872D01*
X141311113Y-122361353D01*
X141217712Y-122381206D01*
X141211682Y-122383891D01*
X141211681Y-122383891D01*
X141049278Y-122456197D01*
X141049276Y-122456198D01*
X141043248Y-122458882D01*
X140888747Y-122571134D01*
X140760960Y-122713056D01*
X140665473Y-122878444D01*
X140606458Y-123060072D01*
X140586496Y-123250000D01*
X108898351Y-123250000D01*
X108896976Y-122300000D01*
X129736496Y-122300000D01*
X129756458Y-122489928D01*
X129815473Y-122671556D01*
X129910960Y-122836944D01*
X130038747Y-122978866D01*
X130193248Y-123091118D01*
X130199276Y-123093802D01*
X130199278Y-123093803D01*
X130361681Y-123166109D01*
X130367712Y-123168794D01*
X130461112Y-123188647D01*
X130548056Y-123207128D01*
X130548061Y-123207128D01*
X130554513Y-123208500D01*
X130745487Y-123208500D01*
X130751939Y-123207128D01*
X130751944Y-123207128D01*
X130838888Y-123188647D01*
X130932288Y-123168794D01*
X130938319Y-123166109D01*
X131100722Y-123093803D01*
X131100724Y-123093802D01*
X131106752Y-123091118D01*
X131261253Y-122978866D01*
X131389040Y-122836944D01*
X131484527Y-122671556D01*
X131543542Y-122489928D01*
X131563504Y-122300000D01*
X131543542Y-122110072D01*
X131484527Y-121928444D01*
X131389040Y-121763056D01*
X131294898Y-121658500D01*
X131265675Y-121626045D01*
X131265674Y-121626044D01*
X131261253Y-121621134D01*
X131106752Y-121508882D01*
X131100724Y-121506198D01*
X131100722Y-121506197D01*
X130938319Y-121433891D01*
X130938318Y-121433891D01*
X130932288Y-121431206D01*
X130838887Y-121411353D01*
X130751944Y-121392872D01*
X130751939Y-121392872D01*
X130745487Y-121391500D01*
X130554513Y-121391500D01*
X130548061Y-121392872D01*
X130548056Y-121392872D01*
X130461113Y-121411353D01*
X130367712Y-121431206D01*
X130361682Y-121433891D01*
X130361681Y-121433891D01*
X130199278Y-121506197D01*
X130199276Y-121506198D01*
X130193248Y-121508882D01*
X130038747Y-121621134D01*
X130034326Y-121626044D01*
X130034325Y-121626045D01*
X130005103Y-121658500D01*
X129910960Y-121763056D01*
X129815473Y-121928444D01*
X129756458Y-122110072D01*
X129736496Y-122300000D01*
X108896976Y-122300000D01*
X108893648Y-120000000D01*
X116786496Y-120000000D01*
X116787186Y-120006565D01*
X116794489Y-120076045D01*
X116806458Y-120189928D01*
X116865473Y-120371556D01*
X116960960Y-120536944D01*
X116965378Y-120541851D01*
X116965379Y-120541852D01*
X117005980Y-120586944D01*
X117088747Y-120678866D01*
X117243248Y-120791118D01*
X117249276Y-120793802D01*
X117249278Y-120793803D01*
X117346833Y-120837237D01*
X117417712Y-120868794D01*
X117511113Y-120888647D01*
X117598056Y-120907128D01*
X117598061Y-120907128D01*
X117604513Y-120908500D01*
X117795487Y-120908500D01*
X117801939Y-120907128D01*
X117801944Y-120907128D01*
X117888887Y-120888647D01*
X117982288Y-120868794D01*
X118053167Y-120837237D01*
X118150722Y-120793803D01*
X118150724Y-120793802D01*
X118156752Y-120791118D01*
X118311253Y-120678866D01*
X118394020Y-120586944D01*
X118434621Y-120541852D01*
X118434622Y-120541851D01*
X118439040Y-120536944D01*
X118534527Y-120371556D01*
X118593542Y-120189928D01*
X118605512Y-120076045D01*
X118608249Y-120050000D01*
X120486496Y-120050000D01*
X120487186Y-120056565D01*
X120504235Y-120218774D01*
X120506458Y-120239928D01*
X120565473Y-120421556D01*
X120660960Y-120586944D01*
X120788747Y-120728866D01*
X120943248Y-120841118D01*
X120949276Y-120843802D01*
X120949278Y-120843803D01*
X121094591Y-120908500D01*
X121117712Y-120918794D01*
X121186263Y-120933365D01*
X121298056Y-120957128D01*
X121298061Y-120957128D01*
X121304513Y-120958500D01*
X121495487Y-120958500D01*
X121501939Y-120957128D01*
X121501944Y-120957128D01*
X121613737Y-120933365D01*
X121682288Y-120918794D01*
X121705409Y-120908500D01*
X121850722Y-120843803D01*
X121850724Y-120843802D01*
X121856752Y-120841118D01*
X121982165Y-120750000D01*
X140586496Y-120750000D01*
X140587186Y-120756565D01*
X140603955Y-120916109D01*
X140606458Y-120939928D01*
X140665473Y-121121556D01*
X140760960Y-121286944D01*
X140765378Y-121291851D01*
X140765379Y-121291852D01*
X140856338Y-121392872D01*
X140888747Y-121428866D01*
X141043248Y-121541118D01*
X141049276Y-121543802D01*
X141049278Y-121543803D01*
X141211681Y-121616109D01*
X141217712Y-121618794D01*
X141311112Y-121638647D01*
X141398056Y-121657128D01*
X141398061Y-121657128D01*
X141404513Y-121658500D01*
X141595487Y-121658500D01*
X141601939Y-121657128D01*
X141601944Y-121657128D01*
X141688888Y-121638647D01*
X141782288Y-121618794D01*
X141788319Y-121616109D01*
X141950722Y-121543803D01*
X141950724Y-121543802D01*
X141956752Y-121541118D01*
X142111253Y-121428866D01*
X142143662Y-121392872D01*
X142234621Y-121291852D01*
X142234622Y-121291851D01*
X142239040Y-121286944D01*
X142334527Y-121121556D01*
X142393542Y-120939928D01*
X142396046Y-120916109D01*
X142412814Y-120756565D01*
X142413504Y-120750000D01*
X142406028Y-120678866D01*
X142394232Y-120566635D01*
X142394232Y-120566633D01*
X142393542Y-120560072D01*
X142334527Y-120378444D01*
X142239040Y-120213056D01*
X142218216Y-120189928D01*
X142115675Y-120076045D01*
X142115674Y-120076044D01*
X142111253Y-120071134D01*
X141956752Y-119958882D01*
X141950724Y-119956198D01*
X141950722Y-119956197D01*
X141788319Y-119883891D01*
X141788318Y-119883891D01*
X141782288Y-119881206D01*
X141682861Y-119860072D01*
X141601944Y-119842872D01*
X141601939Y-119842872D01*
X141595487Y-119841500D01*
X141404513Y-119841500D01*
X141398061Y-119842872D01*
X141398056Y-119842872D01*
X141317139Y-119860072D01*
X141217712Y-119881206D01*
X141211682Y-119883891D01*
X141211681Y-119883891D01*
X141049278Y-119956197D01*
X141049276Y-119956198D01*
X141043248Y-119958882D01*
X140888747Y-120071134D01*
X140884326Y-120076044D01*
X140884325Y-120076045D01*
X140781785Y-120189928D01*
X140760960Y-120213056D01*
X140665473Y-120378444D01*
X140606458Y-120560072D01*
X140605768Y-120566633D01*
X140605768Y-120566635D01*
X140593972Y-120678866D01*
X140586496Y-120750000D01*
X121982165Y-120750000D01*
X122011253Y-120728866D01*
X122139040Y-120586944D01*
X122234527Y-120421556D01*
X122293542Y-120239928D01*
X122295766Y-120218774D01*
X122312814Y-120056565D01*
X122313504Y-120050000D01*
X122296680Y-119889928D01*
X122294232Y-119866635D01*
X122294232Y-119866633D01*
X122293542Y-119860072D01*
X122241531Y-119700000D01*
X129786496Y-119700000D01*
X129806458Y-119889928D01*
X129865473Y-120071556D01*
X129960960Y-120236944D01*
X129965378Y-120241851D01*
X129965379Y-120241852D01*
X130076506Y-120365271D01*
X130088747Y-120378866D01*
X130243248Y-120491118D01*
X130249276Y-120493802D01*
X130249278Y-120493803D01*
X130333332Y-120531226D01*
X130417712Y-120568794D01*
X130503101Y-120586944D01*
X130598056Y-120607128D01*
X130598061Y-120607128D01*
X130604513Y-120608500D01*
X130795487Y-120608500D01*
X130801939Y-120607128D01*
X130801944Y-120607128D01*
X130896899Y-120586944D01*
X130982288Y-120568794D01*
X131066668Y-120531226D01*
X131150722Y-120493803D01*
X131150724Y-120493802D01*
X131156752Y-120491118D01*
X131311253Y-120378866D01*
X131323494Y-120365271D01*
X131434621Y-120241852D01*
X131434622Y-120241851D01*
X131439040Y-120236944D01*
X131534527Y-120071556D01*
X131593542Y-119889928D01*
X131613504Y-119700000D01*
X131593542Y-119510072D01*
X131534527Y-119328444D01*
X131529813Y-119320278D01*
X131455643Y-119191814D01*
X131439040Y-119163056D01*
X131311253Y-119021134D01*
X131156752Y-118908882D01*
X131150724Y-118906198D01*
X131150722Y-118906197D01*
X130988319Y-118833891D01*
X130988318Y-118833891D01*
X130982288Y-118831206D01*
X130888887Y-118811353D01*
X130801944Y-118792872D01*
X130801939Y-118792872D01*
X130795487Y-118791500D01*
X130604513Y-118791500D01*
X130598061Y-118792872D01*
X130598056Y-118792872D01*
X130511113Y-118811353D01*
X130417712Y-118831206D01*
X130411682Y-118833891D01*
X130411681Y-118833891D01*
X130249278Y-118906197D01*
X130249276Y-118906198D01*
X130243248Y-118908882D01*
X130088747Y-119021134D01*
X129960960Y-119163056D01*
X129944357Y-119191814D01*
X129870188Y-119320278D01*
X129865473Y-119328444D01*
X129806458Y-119510072D01*
X129786496Y-119700000D01*
X122241531Y-119700000D01*
X122234527Y-119678444D01*
X122139040Y-119513056D01*
X122059554Y-119424777D01*
X122028837Y-119360770D01*
X122037602Y-119290317D01*
X122079130Y-119238532D01*
X122155909Y-119182749D01*
X122155911Y-119182747D01*
X122161253Y-119178866D01*
X122289040Y-119036944D01*
X122384527Y-118871556D01*
X122443542Y-118689928D01*
X122463504Y-118500000D01*
X122443542Y-118310072D01*
X122384527Y-118128444D01*
X122289040Y-117963056D01*
X122249169Y-117918774D01*
X122165675Y-117826045D01*
X122165674Y-117826044D01*
X122161253Y-117821134D01*
X122006752Y-117708882D01*
X122000724Y-117706198D01*
X122000722Y-117706197D01*
X121838319Y-117633891D01*
X121838318Y-117633891D01*
X121832288Y-117631206D01*
X121738887Y-117611353D01*
X121651944Y-117592872D01*
X121651939Y-117592872D01*
X121645487Y-117591500D01*
X121454513Y-117591500D01*
X121448061Y-117592872D01*
X121448056Y-117592872D01*
X121361113Y-117611353D01*
X121267712Y-117631206D01*
X121261682Y-117633891D01*
X121261681Y-117633891D01*
X121099278Y-117706197D01*
X121099276Y-117706198D01*
X121093248Y-117708882D01*
X120938747Y-117821134D01*
X120934326Y-117826044D01*
X120934325Y-117826045D01*
X120850832Y-117918774D01*
X120810960Y-117963056D01*
X120715473Y-118128444D01*
X120656458Y-118310072D01*
X120636496Y-118500000D01*
X120656458Y-118689928D01*
X120715473Y-118871556D01*
X120810960Y-119036944D01*
X120889307Y-119123957D01*
X120890446Y-119125222D01*
X120921163Y-119189230D01*
X120912398Y-119259683D01*
X120870870Y-119311468D01*
X120803012Y-119360770D01*
X120788747Y-119371134D01*
X120784326Y-119376044D01*
X120784325Y-119376045D01*
X120669300Y-119503794D01*
X120660960Y-119513056D01*
X120565473Y-119678444D01*
X120506458Y-119860072D01*
X120505768Y-119866633D01*
X120505768Y-119866635D01*
X120503320Y-119889928D01*
X120486496Y-120050000D01*
X118608249Y-120050000D01*
X118612814Y-120006565D01*
X118613504Y-120000000D01*
X118601245Y-119883365D01*
X118594232Y-119816635D01*
X118594232Y-119816633D01*
X118593542Y-119810072D01*
X118534527Y-119628444D01*
X118439040Y-119463056D01*
X118311253Y-119321134D01*
X118307147Y-119318151D01*
X118270207Y-119258186D01*
X118271561Y-119187202D01*
X118307123Y-119131867D01*
X118311253Y-119128866D01*
X118408255Y-119021134D01*
X118434621Y-118991852D01*
X118434622Y-118991851D01*
X118439040Y-118986944D01*
X118509288Y-118865271D01*
X118531223Y-118827279D01*
X118531224Y-118827278D01*
X118534527Y-118821556D01*
X118593542Y-118639928D01*
X118613504Y-118450000D01*
X118593542Y-118260072D01*
X118534527Y-118078444D01*
X118439040Y-117913056D01*
X118311253Y-117771134D01*
X118156752Y-117658882D01*
X118150724Y-117656198D01*
X118150722Y-117656197D01*
X117988319Y-117583891D01*
X117988318Y-117583891D01*
X117982288Y-117581206D01*
X117888888Y-117561353D01*
X117801944Y-117542872D01*
X117801939Y-117542872D01*
X117795487Y-117541500D01*
X117604513Y-117541500D01*
X117598061Y-117542872D01*
X117598056Y-117542872D01*
X117511112Y-117561353D01*
X117417712Y-117581206D01*
X117411682Y-117583891D01*
X117411681Y-117583891D01*
X117249278Y-117656197D01*
X117249276Y-117656198D01*
X117243248Y-117658882D01*
X117088747Y-117771134D01*
X116960960Y-117913056D01*
X116865473Y-118078444D01*
X116806458Y-118260072D01*
X116786496Y-118450000D01*
X116806458Y-118639928D01*
X116865473Y-118821556D01*
X116868776Y-118827278D01*
X116868777Y-118827279D01*
X116890712Y-118865271D01*
X116960960Y-118986944D01*
X116965378Y-118991851D01*
X116965379Y-118991852D01*
X116991745Y-119021134D01*
X117088747Y-119128866D01*
X117092853Y-119131849D01*
X117129793Y-119191814D01*
X117128439Y-119262798D01*
X117092877Y-119318133D01*
X117088747Y-119321134D01*
X116960960Y-119463056D01*
X116865473Y-119628444D01*
X116806458Y-119810072D01*
X116805768Y-119816633D01*
X116805768Y-119816635D01*
X116798755Y-119883365D01*
X116786496Y-120000000D01*
X108893648Y-120000000D01*
X108886981Y-115392526D01*
X111636335Y-115392526D01*
X111655153Y-115562975D01*
X111657762Y-115570106D01*
X111657763Y-115570108D01*
X111668718Y-115600043D01*
X111714085Y-115724015D01*
X111718322Y-115730321D01*
X111718324Y-115730324D01*
X111744986Y-115770000D01*
X111809730Y-115866349D01*
X111936565Y-115981760D01*
X112087268Y-116063585D01*
X112253139Y-116107101D01*
X112340586Y-116108474D01*
X112417003Y-116109675D01*
X112417006Y-116109675D01*
X112424602Y-116109794D01*
X112432006Y-116108098D01*
X112432008Y-116108098D01*
X112524654Y-116086879D01*
X112591759Y-116071510D01*
X112744958Y-115994459D01*
X112750729Y-115989530D01*
X112750732Y-115989528D01*
X112869578Y-115888023D01*
X112875355Y-115883089D01*
X112959569Y-115765894D01*
X112961989Y-115762526D01*
X114851335Y-115762526D01*
X114870153Y-115932975D01*
X114872762Y-115940106D01*
X114872763Y-115940108D01*
X114880688Y-115961764D01*
X114929085Y-116094015D01*
X114933322Y-116100321D01*
X114933324Y-116100324D01*
X114937666Y-116106785D01*
X115024730Y-116236349D01*
X115151565Y-116351760D01*
X115302268Y-116433585D01*
X115468139Y-116477101D01*
X115555586Y-116478474D01*
X115632003Y-116479675D01*
X115632006Y-116479675D01*
X115639602Y-116479794D01*
X115647006Y-116478098D01*
X115647008Y-116478098D01*
X115709846Y-116463706D01*
X115806759Y-116441510D01*
X115959958Y-116364459D01*
X115965729Y-116359530D01*
X115965732Y-116359528D01*
X116084578Y-116258023D01*
X116090355Y-116253089D01*
X116190424Y-116113830D01*
X116254385Y-115954720D01*
X116263877Y-115888023D01*
X116277966Y-115789031D01*
X116277966Y-115789027D01*
X116278547Y-115784947D01*
X116278704Y-115770000D01*
X116258102Y-115599758D01*
X116255082Y-115591764D01*
X116200171Y-115446447D01*
X116197487Y-115439344D01*
X116158831Y-115383099D01*
X116104659Y-115304278D01*
X116104658Y-115304276D01*
X116100357Y-115298019D01*
X116094686Y-115292966D01*
X115977993Y-115188996D01*
X115977990Y-115188994D01*
X115972321Y-115183943D01*
X115964325Y-115179709D01*
X115827481Y-115107254D01*
X115827482Y-115107254D01*
X115820769Y-115103700D01*
X115803196Y-115099286D01*
X115661822Y-115063775D01*
X115661818Y-115063775D01*
X115654451Y-115061924D01*
X115646852Y-115061884D01*
X115646850Y-115061884D01*
X115575394Y-115061510D01*
X115482969Y-115061026D01*
X115475589Y-115062798D01*
X115475587Y-115062798D01*
X115323602Y-115099286D01*
X115323598Y-115099287D01*
X115316223Y-115101058D01*
X115163839Y-115179709D01*
X115034615Y-115292439D01*
X114936010Y-115432739D01*
X114904864Y-115512624D01*
X114876755Y-115584720D01*
X114873718Y-115592509D01*
X114872726Y-115600042D01*
X114872726Y-115600043D01*
X114854724Y-115736785D01*
X114851335Y-115762526D01*
X112961989Y-115762526D01*
X112970992Y-115749998D01*
X112970993Y-115749997D01*
X112975424Y-115743830D01*
X113039385Y-115584720D01*
X113060075Y-115439344D01*
X113062966Y-115419031D01*
X113062966Y-115419027D01*
X113063547Y-115414947D01*
X113063704Y-115400000D01*
X113056272Y-115338586D01*
X113044015Y-115237299D01*
X113044014Y-115237296D01*
X113043102Y-115229758D01*
X113029221Y-115193021D01*
X112985171Y-115076447D01*
X112982487Y-115069344D01*
X112947770Y-115018831D01*
X112889659Y-114934278D01*
X112889658Y-114934276D01*
X112885357Y-114928019D01*
X112879686Y-114922966D01*
X112762993Y-114818996D01*
X112762990Y-114818994D01*
X112757321Y-114813943D01*
X112749325Y-114809709D01*
X112684496Y-114775384D01*
X112605769Y-114733700D01*
X112551008Y-114719945D01*
X112446822Y-114693775D01*
X112446818Y-114693775D01*
X112439451Y-114691924D01*
X112431852Y-114691884D01*
X112431850Y-114691884D01*
X112360394Y-114691510D01*
X112267969Y-114691026D01*
X112260589Y-114692798D01*
X112260587Y-114692798D01*
X112108602Y-114729286D01*
X112108598Y-114729287D01*
X112101223Y-114731058D01*
X111948839Y-114809709D01*
X111819615Y-114922439D01*
X111721010Y-115062739D01*
X111706761Y-115099286D01*
X111672139Y-115188087D01*
X111658718Y-115222509D01*
X111657726Y-115230042D01*
X111657726Y-115230043D01*
X111637353Y-115384795D01*
X111636335Y-115392526D01*
X108886981Y-115392526D01*
X108885932Y-114667527D01*
X122421336Y-114667527D01*
X122428642Y-114733700D01*
X122438059Y-114818996D01*
X122440154Y-114837976D01*
X122442763Y-114845107D01*
X122442764Y-114845109D01*
X122462776Y-114899794D01*
X122499086Y-114999016D01*
X122503323Y-115005322D01*
X122503325Y-115005325D01*
X122527824Y-115041783D01*
X122594731Y-115141350D01*
X122620767Y-115165041D01*
X122700178Y-115237299D01*
X122721566Y-115256761D01*
X122872269Y-115338586D01*
X123038140Y-115382102D01*
X123125587Y-115383475D01*
X123202004Y-115384676D01*
X123202007Y-115384676D01*
X123209603Y-115384795D01*
X123217007Y-115383099D01*
X123217009Y-115383099D01*
X123296207Y-115364960D01*
X123376760Y-115346511D01*
X123529959Y-115269460D01*
X123535730Y-115264531D01*
X123535733Y-115264529D01*
X123654579Y-115163024D01*
X123660356Y-115158090D01*
X123748575Y-115035322D01*
X123755993Y-115024999D01*
X123755994Y-115024998D01*
X123760425Y-115018831D01*
X123824386Y-114859721D01*
X123837632Y-114766650D01*
X123847470Y-114697524D01*
X125011333Y-114697524D01*
X125018965Y-114766650D01*
X125029061Y-114858098D01*
X125030151Y-114867973D01*
X125032760Y-114875104D01*
X125032761Y-114875106D01*
X125040105Y-114895173D01*
X125089083Y-115029013D01*
X125093320Y-115035319D01*
X125093322Y-115035322D01*
X125120957Y-115076447D01*
X125184728Y-115171347D01*
X125311563Y-115286758D01*
X125462266Y-115368583D01*
X125628137Y-115412099D01*
X125715584Y-115413472D01*
X125792001Y-115414673D01*
X125792004Y-115414673D01*
X125799600Y-115414792D01*
X125807004Y-115413096D01*
X125807006Y-115413096D01*
X125882113Y-115395894D01*
X125966757Y-115376508D01*
X126119956Y-115299457D01*
X126125727Y-115294528D01*
X126125730Y-115294526D01*
X126244576Y-115193021D01*
X126250353Y-115188087D01*
X126323468Y-115086338D01*
X126345990Y-115054996D01*
X126345991Y-115054995D01*
X126350422Y-115048828D01*
X126414383Y-114889718D01*
X126419251Y-114855511D01*
X126437964Y-114724029D01*
X126437964Y-114724025D01*
X126438545Y-114719945D01*
X126438702Y-114704998D01*
X126424451Y-114587237D01*
X126419013Y-114542297D01*
X126419012Y-114542294D01*
X126418100Y-114534756D01*
X126407567Y-114506879D01*
X126360169Y-114381445D01*
X126357485Y-114374342D01*
X126260355Y-114233017D01*
X126254684Y-114227964D01*
X126203686Y-114182526D01*
X128596335Y-114182526D01*
X128605744Y-114267750D01*
X128614253Y-114344820D01*
X128615153Y-114352975D01*
X128674085Y-114514015D01*
X128678322Y-114520321D01*
X128678324Y-114520324D01*
X128694144Y-114543866D01*
X128769730Y-114656349D01*
X128896565Y-114771760D01*
X129047268Y-114853585D01*
X129213139Y-114897101D01*
X129300586Y-114898474D01*
X129377003Y-114899675D01*
X129377006Y-114899675D01*
X129384602Y-114899794D01*
X129392006Y-114898098D01*
X129392008Y-114898098D01*
X129454846Y-114883706D01*
X129551759Y-114861510D01*
X129704958Y-114784459D01*
X129710729Y-114779530D01*
X129710732Y-114779528D01*
X129829578Y-114678023D01*
X129835355Y-114673089D01*
X129858392Y-114641030D01*
X129914387Y-114597383D01*
X129985090Y-114590937D01*
X130011960Y-114599449D01*
X130167712Y-114668794D01*
X130247827Y-114685823D01*
X130348056Y-114707128D01*
X130348061Y-114707128D01*
X130354513Y-114708500D01*
X130545487Y-114708500D01*
X130551939Y-114707128D01*
X130551944Y-114707128D01*
X130652173Y-114685823D01*
X130732288Y-114668794D01*
X130774404Y-114650043D01*
X130900722Y-114593803D01*
X130900724Y-114593802D01*
X130906752Y-114591118D01*
X131061253Y-114478866D01*
X131155367Y-114374342D01*
X131184621Y-114341852D01*
X131184622Y-114341851D01*
X131189040Y-114336944D01*
X131272465Y-114192448D01*
X131281223Y-114177279D01*
X131281224Y-114177278D01*
X131284527Y-114171556D01*
X131343542Y-113989928D01*
X131363504Y-113800000D01*
X131354301Y-113712439D01*
X131344232Y-113616635D01*
X131344232Y-113616633D01*
X131343542Y-113610072D01*
X131284527Y-113428444D01*
X131189040Y-113263056D01*
X131061253Y-113121134D01*
X130906752Y-113008882D01*
X130900724Y-113006198D01*
X130900722Y-113006197D01*
X130738319Y-112933891D01*
X130738318Y-112933891D01*
X130732288Y-112931206D01*
X130638887Y-112911353D01*
X130551944Y-112892872D01*
X130551939Y-112892872D01*
X130545487Y-112891500D01*
X130354513Y-112891500D01*
X130348061Y-112892872D01*
X130348056Y-112892872D01*
X130261112Y-112911353D01*
X130167712Y-112931206D01*
X130161682Y-112933891D01*
X130161681Y-112933891D01*
X129999278Y-113006197D01*
X129999276Y-113006198D01*
X129993248Y-113008882D01*
X129838747Y-113121134D01*
X129710960Y-113263056D01*
X129615473Y-113428444D01*
X129614926Y-113430129D01*
X129570108Y-113482857D01*
X129502181Y-113503506D01*
X129470286Y-113499716D01*
X129406822Y-113483775D01*
X129406818Y-113483775D01*
X129399451Y-113481924D01*
X129391852Y-113481884D01*
X129391850Y-113481884D01*
X129320394Y-113481510D01*
X129227969Y-113481026D01*
X129220589Y-113482798D01*
X129220587Y-113482798D01*
X129068602Y-113519286D01*
X129068598Y-113519287D01*
X129061223Y-113521058D01*
X128908839Y-113599709D01*
X128779615Y-113712439D01*
X128681010Y-113852739D01*
X128678250Y-113859819D01*
X128621924Y-114004287D01*
X128618718Y-114012509D01*
X128617726Y-114020042D01*
X128617726Y-114020043D01*
X128598607Y-114165271D01*
X128596335Y-114182526D01*
X126203686Y-114182526D01*
X126137991Y-114123994D01*
X126137988Y-114123992D01*
X126132319Y-114118941D01*
X126124323Y-114114707D01*
X125987479Y-114042252D01*
X125987480Y-114042252D01*
X125980767Y-114038698D01*
X125963194Y-114034284D01*
X125821820Y-113998773D01*
X125821816Y-113998773D01*
X125814449Y-113996922D01*
X125806850Y-113996882D01*
X125806848Y-113996882D01*
X125735392Y-113996508D01*
X125642967Y-113996024D01*
X125635587Y-113997796D01*
X125635585Y-113997796D01*
X125483600Y-114034284D01*
X125483596Y-114034285D01*
X125476221Y-114036056D01*
X125323837Y-114114707D01*
X125194613Y-114227437D01*
X125096008Y-114367737D01*
X125064862Y-114447622D01*
X125036517Y-114520324D01*
X125033716Y-114527507D01*
X125032724Y-114535040D01*
X125032724Y-114535041D01*
X125014550Y-114673089D01*
X125011333Y-114697524D01*
X123847470Y-114697524D01*
X123847967Y-114694032D01*
X123847967Y-114694028D01*
X123848548Y-114689948D01*
X123848705Y-114675001D01*
X123831733Y-114534756D01*
X123829016Y-114512300D01*
X123829015Y-114512297D01*
X123828103Y-114504759D01*
X123816464Y-114473955D01*
X123770172Y-114351448D01*
X123767488Y-114344345D01*
X123691410Y-114233651D01*
X123674660Y-114209279D01*
X123674659Y-114209277D01*
X123670358Y-114203020D01*
X123664687Y-114197967D01*
X123547994Y-114093997D01*
X123547991Y-114093995D01*
X123542322Y-114088944D01*
X123534326Y-114084710D01*
X123481724Y-114056859D01*
X123390770Y-114008701D01*
X123351245Y-113998773D01*
X123231823Y-113968776D01*
X123231819Y-113968776D01*
X123224452Y-113966925D01*
X123216853Y-113966885D01*
X123216851Y-113966885D01*
X123145395Y-113966511D01*
X123052970Y-113966027D01*
X123045590Y-113967799D01*
X123045588Y-113967799D01*
X122893603Y-114004287D01*
X122893599Y-114004288D01*
X122886224Y-114006059D01*
X122733840Y-114084710D01*
X122604616Y-114197440D01*
X122506011Y-114337740D01*
X122491555Y-114374817D01*
X122452903Y-114473955D01*
X122443719Y-114497510D01*
X122442727Y-114505043D01*
X122442727Y-114505044D01*
X122422808Y-114656349D01*
X122421336Y-114667527D01*
X108885932Y-114667527D01*
X108882000Y-111950000D01*
X109836496Y-111950000D01*
X109856458Y-112139928D01*
X109915473Y-112321556D01*
X109918776Y-112327278D01*
X109918777Y-112327279D01*
X109941678Y-112366944D01*
X110010960Y-112486944D01*
X110015378Y-112491851D01*
X110015379Y-112491852D01*
X110034195Y-112512749D01*
X110138747Y-112628866D01*
X110293248Y-112741118D01*
X110299276Y-112743802D01*
X110299278Y-112743803D01*
X110461681Y-112816109D01*
X110467712Y-112818794D01*
X110561113Y-112838647D01*
X110648056Y-112857128D01*
X110648061Y-112857128D01*
X110654513Y-112858500D01*
X110845487Y-112858500D01*
X110851939Y-112857128D01*
X110851944Y-112857128D01*
X110938887Y-112838647D01*
X111032288Y-112818794D01*
X111038319Y-112816109D01*
X111200722Y-112743803D01*
X111200724Y-112743802D01*
X111206752Y-112741118D01*
X111361253Y-112628866D01*
X111465805Y-112512749D01*
X111484621Y-112491852D01*
X111484622Y-112491851D01*
X111489040Y-112486944D01*
X111558322Y-112366944D01*
X111581223Y-112327279D01*
X111581224Y-112327278D01*
X111584527Y-112321556D01*
X111643542Y-112139928D01*
X111663504Y-111950000D01*
X111650892Y-111830000D01*
X121676496Y-111830000D01*
X121696458Y-112019928D01*
X121755473Y-112201556D01*
X121850960Y-112366944D01*
X121855378Y-112371851D01*
X121855379Y-112371852D01*
X121974325Y-112503955D01*
X121978747Y-112508866D01*
X122133248Y-112621118D01*
X122139276Y-112623802D01*
X122139278Y-112623803D01*
X122301681Y-112696109D01*
X122307712Y-112698794D01*
X122401112Y-112718647D01*
X122488056Y-112737128D01*
X122488061Y-112737128D01*
X122494513Y-112738500D01*
X122685487Y-112738500D01*
X122691939Y-112737128D01*
X122691944Y-112737128D01*
X122778888Y-112718647D01*
X122872288Y-112698794D01*
X122878319Y-112696109D01*
X123040722Y-112623803D01*
X123040724Y-112623802D01*
X123046752Y-112621118D01*
X123201253Y-112508866D01*
X123205675Y-112503955D01*
X123324621Y-112371852D01*
X123324622Y-112371851D01*
X123329040Y-112366944D01*
X123424527Y-112201556D01*
X123483542Y-112019928D01*
X123503504Y-111830000D01*
X123497893Y-111776618D01*
X123484232Y-111646635D01*
X123484232Y-111646633D01*
X123483542Y-111640072D01*
X123424527Y-111458444D01*
X123401624Y-111418774D01*
X123338168Y-111308866D01*
X123329040Y-111293056D01*
X123309302Y-111271134D01*
X123205675Y-111156045D01*
X123205674Y-111156044D01*
X123201253Y-111151134D01*
X123046752Y-111038882D01*
X123040724Y-111036198D01*
X123040722Y-111036197D01*
X122878319Y-110963891D01*
X122878318Y-110963891D01*
X122872288Y-110961206D01*
X122778888Y-110941353D01*
X122691944Y-110922872D01*
X122691939Y-110922872D01*
X122685487Y-110921500D01*
X122494513Y-110921500D01*
X122488061Y-110922872D01*
X122488056Y-110922872D01*
X122401113Y-110941353D01*
X122307712Y-110961206D01*
X122301682Y-110963891D01*
X122301681Y-110963891D01*
X122139278Y-111036197D01*
X122139276Y-111036198D01*
X122133248Y-111038882D01*
X121978747Y-111151134D01*
X121974326Y-111156044D01*
X121974325Y-111156045D01*
X121870699Y-111271134D01*
X121850960Y-111293056D01*
X121841832Y-111308866D01*
X121778377Y-111418774D01*
X121755473Y-111458444D01*
X121696458Y-111640072D01*
X121695768Y-111646633D01*
X121695768Y-111646635D01*
X121682107Y-111776618D01*
X121676496Y-111830000D01*
X111650892Y-111830000D01*
X111643542Y-111760072D01*
X111584527Y-111578444D01*
X111489040Y-111413056D01*
X111443771Y-111362779D01*
X111365675Y-111276045D01*
X111365674Y-111276044D01*
X111361253Y-111271134D01*
X111262157Y-111199136D01*
X111212094Y-111162763D01*
X111212093Y-111162762D01*
X111206752Y-111158882D01*
X111200724Y-111156198D01*
X111200722Y-111156197D01*
X111038319Y-111083891D01*
X111038318Y-111083891D01*
X111032288Y-111081206D01*
X110938887Y-111061353D01*
X110851944Y-111042872D01*
X110851939Y-111042872D01*
X110845487Y-111041500D01*
X110654513Y-111041500D01*
X110648061Y-111042872D01*
X110648056Y-111042872D01*
X110561113Y-111061353D01*
X110467712Y-111081206D01*
X110461682Y-111083891D01*
X110461681Y-111083891D01*
X110299278Y-111156197D01*
X110299276Y-111156198D01*
X110293248Y-111158882D01*
X110287907Y-111162762D01*
X110287906Y-111162763D01*
X110237843Y-111199136D01*
X110138747Y-111271134D01*
X110134326Y-111276044D01*
X110134325Y-111276045D01*
X110056230Y-111362779D01*
X110010960Y-111413056D01*
X109915473Y-111578444D01*
X109856458Y-111760072D01*
X109836496Y-111950000D01*
X108882000Y-111950000D01*
X108876833Y-108378768D01*
X110935264Y-108378768D01*
X110935954Y-108385333D01*
X110951609Y-108534278D01*
X110955226Y-108568696D01*
X111014241Y-108750324D01*
X111017544Y-108756046D01*
X111017545Y-108756047D01*
X111042692Y-108799602D01*
X111109728Y-108915712D01*
X111114146Y-108920619D01*
X111114147Y-108920620D01*
X111195365Y-109010822D01*
X111237515Y-109057634D01*
X111392016Y-109169886D01*
X111398044Y-109172570D01*
X111398046Y-109172571D01*
X111502319Y-109218996D01*
X111566480Y-109247562D01*
X111572941Y-109248935D01*
X111572946Y-109248937D01*
X111614071Y-109257679D01*
X111676545Y-109291407D01*
X111707707Y-109341989D01*
X111756705Y-109492788D01*
X111760008Y-109498510D01*
X111760009Y-109498511D01*
X111776561Y-109527179D01*
X111852192Y-109658176D01*
X111856610Y-109663083D01*
X111856611Y-109663084D01*
X111947378Y-109763891D01*
X111979979Y-109800098D01*
X112038702Y-109842763D01*
X112124777Y-109905300D01*
X112134480Y-109912350D01*
X112140508Y-109915034D01*
X112140510Y-109915035D01*
X112232621Y-109956045D01*
X112308944Y-109990026D01*
X112402344Y-110009879D01*
X112489288Y-110028360D01*
X112489293Y-110028360D01*
X112495745Y-110029732D01*
X112686719Y-110029732D01*
X112693171Y-110028360D01*
X112693176Y-110028360D01*
X112780119Y-110009879D01*
X112873520Y-109990026D01*
X112949843Y-109956045D01*
X113041954Y-109915035D01*
X113041956Y-109915034D01*
X113047984Y-109912350D01*
X113057688Y-109905300D01*
X113143762Y-109842763D01*
X113202485Y-109800098D01*
X113209303Y-109792526D01*
X115286335Y-109792526D01*
X115291451Y-109838865D01*
X115303846Y-109951134D01*
X115305153Y-109962975D01*
X115307762Y-109970106D01*
X115307763Y-109970108D01*
X115315052Y-109990026D01*
X115364085Y-110124015D01*
X115368322Y-110130321D01*
X115368324Y-110130324D01*
X115377400Y-110143830D01*
X115459730Y-110266349D01*
X115586565Y-110381760D01*
X115737268Y-110463585D01*
X115903139Y-110507101D01*
X115990586Y-110508474D01*
X116067003Y-110509675D01*
X116067006Y-110509675D01*
X116074602Y-110509794D01*
X116082006Y-110508098D01*
X116082008Y-110508098D01*
X116144846Y-110493706D01*
X116241759Y-110471510D01*
X116394958Y-110394459D01*
X116400729Y-110389530D01*
X116400732Y-110389528D01*
X116519578Y-110288023D01*
X116525355Y-110283089D01*
X116625424Y-110143830D01*
X116628255Y-110136786D01*
X116628259Y-110136780D01*
X116647303Y-110089406D01*
X116691270Y-110033662D01*
X116758395Y-110010537D01*
X116827366Y-110027374D01*
X116876286Y-110078827D01*
X116884041Y-110097463D01*
X116940197Y-110270291D01*
X116943500Y-110276013D01*
X116943501Y-110276014D01*
X116958938Y-110302751D01*
X117035684Y-110435679D01*
X117040102Y-110440586D01*
X117040103Y-110440587D01*
X117159049Y-110572690D01*
X117163471Y-110577601D01*
X117317972Y-110689853D01*
X117324000Y-110692537D01*
X117324002Y-110692538D01*
X117486405Y-110764844D01*
X117492436Y-110767529D01*
X117585837Y-110787382D01*
X117672780Y-110805863D01*
X117672785Y-110805863D01*
X117679237Y-110807235D01*
X117870211Y-110807235D01*
X117876663Y-110805863D01*
X117876668Y-110805863D01*
X117963611Y-110787382D01*
X118057012Y-110767529D01*
X118063043Y-110764844D01*
X118225446Y-110692538D01*
X118225448Y-110692537D01*
X118231476Y-110689853D01*
X118313856Y-110630000D01*
X124696496Y-110630000D01*
X124697186Y-110636565D01*
X124710669Y-110764844D01*
X124716458Y-110819928D01*
X124775473Y-111001556D01*
X124870960Y-111166944D01*
X124998747Y-111308866D01*
X125056424Y-111350771D01*
X125142152Y-111413056D01*
X125153248Y-111421118D01*
X125159276Y-111423802D01*
X125159278Y-111423803D01*
X125308333Y-111490166D01*
X125327712Y-111498794D01*
X125412075Y-111516726D01*
X125508056Y-111537128D01*
X125508061Y-111537128D01*
X125514513Y-111538500D01*
X125705487Y-111538500D01*
X125711939Y-111537128D01*
X125711944Y-111537128D01*
X125807925Y-111516726D01*
X125892288Y-111498794D01*
X125911667Y-111490166D01*
X126060722Y-111423803D01*
X126060724Y-111423802D01*
X126066752Y-111421118D01*
X126077849Y-111413056D01*
X126163576Y-111350771D01*
X126221253Y-111308866D01*
X126349040Y-111166944D01*
X126444527Y-111001556D01*
X126503542Y-110819928D01*
X126509332Y-110764844D01*
X126522814Y-110636565D01*
X126523504Y-110630000D01*
X126522453Y-110620000D01*
X126916496Y-110620000D01*
X126917186Y-110626565D01*
X126931720Y-110764844D01*
X126936458Y-110809928D01*
X126995473Y-110991556D01*
X126998776Y-110997278D01*
X126998777Y-110997279D01*
X127022797Y-111038882D01*
X127090960Y-111156944D01*
X127218747Y-111298866D01*
X127373248Y-111411118D01*
X127379276Y-111413802D01*
X127379278Y-111413803D01*
X127541681Y-111486109D01*
X127547712Y-111488794D01*
X127641112Y-111508647D01*
X127728056Y-111527128D01*
X127728061Y-111527128D01*
X127734513Y-111528500D01*
X127925487Y-111528500D01*
X127931939Y-111527128D01*
X127931944Y-111527128D01*
X128018888Y-111508647D01*
X128112288Y-111488794D01*
X128118319Y-111486109D01*
X128280722Y-111413803D01*
X128280724Y-111413802D01*
X128286752Y-111411118D01*
X128441253Y-111298866D01*
X128569040Y-111156944D01*
X128637203Y-111038882D01*
X128661223Y-110997279D01*
X128661224Y-110997278D01*
X128664527Y-110991556D01*
X128666495Y-110985500D01*
X129846496Y-110985500D01*
X129847186Y-110992065D01*
X129863905Y-111151134D01*
X129866458Y-111175428D01*
X129925473Y-111357056D01*
X130020960Y-111522444D01*
X130025378Y-111527351D01*
X130025379Y-111527352D01*
X130132782Y-111646635D01*
X130148747Y-111664366D01*
X130247843Y-111736364D01*
X130289508Y-111766635D01*
X130303248Y-111776618D01*
X130309276Y-111779302D01*
X130309278Y-111779303D01*
X130471681Y-111851609D01*
X130477712Y-111854294D01*
X130571112Y-111874147D01*
X130658056Y-111892628D01*
X130658061Y-111892628D01*
X130664513Y-111894000D01*
X130855487Y-111894000D01*
X130861939Y-111892628D01*
X130861944Y-111892628D01*
X130948888Y-111874147D01*
X131042288Y-111854294D01*
X131048319Y-111851609D01*
X131210722Y-111779303D01*
X131210724Y-111779302D01*
X131216752Y-111776618D01*
X131230493Y-111766635D01*
X131272157Y-111736364D01*
X131371253Y-111664366D01*
X131387218Y-111646635D01*
X131494621Y-111527352D01*
X131494622Y-111527351D01*
X131499040Y-111522444D01*
X131594527Y-111357056D01*
X131653542Y-111175428D01*
X131656096Y-111151134D01*
X131672814Y-110992065D01*
X131673504Y-110985500D01*
X131653542Y-110795572D01*
X131594527Y-110613944D01*
X131499040Y-110448556D01*
X131371253Y-110306634D01*
X131216752Y-110194382D01*
X131210724Y-110191698D01*
X131210722Y-110191697D01*
X131048319Y-110119391D01*
X131048318Y-110119391D01*
X131042288Y-110116706D01*
X130948888Y-110096853D01*
X130861944Y-110078372D01*
X130861939Y-110078372D01*
X130855487Y-110077000D01*
X130664513Y-110077000D01*
X130658061Y-110078372D01*
X130658056Y-110078372D01*
X130571112Y-110096853D01*
X130477712Y-110116706D01*
X130471682Y-110119391D01*
X130471681Y-110119391D01*
X130309278Y-110191697D01*
X130309276Y-110191698D01*
X130303248Y-110194382D01*
X130148747Y-110306634D01*
X130020960Y-110448556D01*
X129925473Y-110613944D01*
X129866458Y-110795572D01*
X129846496Y-110985500D01*
X128666495Y-110985500D01*
X128723542Y-110809928D01*
X128728281Y-110764844D01*
X128742814Y-110626565D01*
X128743504Y-110620000D01*
X128731743Y-110508098D01*
X128724232Y-110436635D01*
X128724232Y-110436633D01*
X128723542Y-110430072D01*
X128664527Y-110248444D01*
X128569040Y-110083056D01*
X128524566Y-110033662D01*
X128445675Y-109946045D01*
X128445674Y-109946044D01*
X128441253Y-109941134D01*
X128342157Y-109869136D01*
X128292094Y-109832763D01*
X128292093Y-109832762D01*
X128286752Y-109828882D01*
X128280724Y-109826198D01*
X128280722Y-109826197D01*
X128118319Y-109753891D01*
X128118318Y-109753891D01*
X128112288Y-109751206D01*
X128018888Y-109731353D01*
X127931944Y-109712872D01*
X127931939Y-109712872D01*
X127925487Y-109711500D01*
X127734513Y-109711500D01*
X127728061Y-109712872D01*
X127728056Y-109712872D01*
X127641112Y-109731353D01*
X127547712Y-109751206D01*
X127541682Y-109753891D01*
X127541681Y-109753891D01*
X127379278Y-109826197D01*
X127379276Y-109826198D01*
X127373248Y-109828882D01*
X127367907Y-109832762D01*
X127367906Y-109832763D01*
X127317843Y-109869136D01*
X127218747Y-109941134D01*
X127214326Y-109946044D01*
X127214325Y-109946045D01*
X127135435Y-110033662D01*
X127090960Y-110083056D01*
X126995473Y-110248444D01*
X126936458Y-110430072D01*
X126935768Y-110436633D01*
X126935768Y-110436635D01*
X126928257Y-110508098D01*
X126916496Y-110620000D01*
X126522453Y-110620000D01*
X126510870Y-110509794D01*
X126504232Y-110446635D01*
X126504232Y-110446633D01*
X126503542Y-110440072D01*
X126444527Y-110258444D01*
X126438754Y-110248444D01*
X126405991Y-110191697D01*
X126349040Y-110093056D01*
X126335819Y-110078372D01*
X126225675Y-109956045D01*
X126225674Y-109956044D01*
X126221253Y-109951134D01*
X126066752Y-109838882D01*
X126060724Y-109836198D01*
X126060722Y-109836197D01*
X125898319Y-109763891D01*
X125898318Y-109763891D01*
X125892288Y-109761206D01*
X125798887Y-109741353D01*
X125711944Y-109722872D01*
X125711939Y-109722872D01*
X125705487Y-109721500D01*
X125514513Y-109721500D01*
X125508061Y-109722872D01*
X125508056Y-109722872D01*
X125421113Y-109741353D01*
X125327712Y-109761206D01*
X125321682Y-109763891D01*
X125321681Y-109763891D01*
X125159278Y-109836197D01*
X125159276Y-109836198D01*
X125153248Y-109838882D01*
X124998747Y-109951134D01*
X124994326Y-109956044D01*
X124994325Y-109956045D01*
X124884182Y-110078372D01*
X124870960Y-110093056D01*
X124814009Y-110191697D01*
X124781247Y-110248444D01*
X124775473Y-110258444D01*
X124716458Y-110440072D01*
X124715768Y-110446633D01*
X124715768Y-110446635D01*
X124709130Y-110509794D01*
X124696496Y-110630000D01*
X118313856Y-110630000D01*
X118385977Y-110577601D01*
X118390399Y-110572690D01*
X118509345Y-110440587D01*
X118509346Y-110440586D01*
X118513764Y-110435679D01*
X118590510Y-110302751D01*
X118605947Y-110276014D01*
X118605948Y-110276013D01*
X118609251Y-110270291D01*
X118668266Y-110088663D01*
X118680727Y-109970108D01*
X118687538Y-109905300D01*
X118688228Y-109898735D01*
X118681937Y-109838882D01*
X118668956Y-109715370D01*
X118668956Y-109715368D01*
X118668266Y-109708807D01*
X118609251Y-109527179D01*
X118557033Y-109436735D01*
X118540295Y-109367740D01*
X118557033Y-109310735D01*
X118605947Y-109226014D01*
X118605948Y-109226013D01*
X118609251Y-109220291D01*
X118668266Y-109038663D01*
X118670330Y-109019031D01*
X118687538Y-108855300D01*
X118688228Y-108848735D01*
X118672466Y-108698768D01*
X120095264Y-108698768D01*
X120095954Y-108705333D01*
X120112671Y-108864382D01*
X120115226Y-108888696D01*
X120174241Y-109070324D01*
X120269728Y-109235712D01*
X120274146Y-109240619D01*
X120274147Y-109240620D01*
X120353412Y-109328653D01*
X120397515Y-109377634D01*
X120478860Y-109436735D01*
X120534169Y-109476919D01*
X120552016Y-109489886D01*
X120558044Y-109492570D01*
X120558046Y-109492571D01*
X120613483Y-109517253D01*
X120667579Y-109563233D01*
X120688228Y-109631161D01*
X120687543Y-109645533D01*
X120687186Y-109648929D01*
X120687186Y-109648935D01*
X120686496Y-109655500D01*
X120687186Y-109662065D01*
X120701178Y-109795187D01*
X120706458Y-109845428D01*
X120765473Y-110027056D01*
X120860960Y-110192444D01*
X120865378Y-110197351D01*
X120865379Y-110197352D01*
X120960281Y-110302751D01*
X120988747Y-110334366D01*
X121046946Y-110376650D01*
X121129508Y-110436635D01*
X121143248Y-110446618D01*
X121149276Y-110449302D01*
X121149278Y-110449303D01*
X121279363Y-110507220D01*
X121317712Y-110524294D01*
X121411113Y-110544147D01*
X121498056Y-110562628D01*
X121498061Y-110562628D01*
X121504513Y-110564000D01*
X121695487Y-110564000D01*
X121701939Y-110562628D01*
X121701944Y-110562628D01*
X121788888Y-110544147D01*
X121882288Y-110524294D01*
X121920637Y-110507220D01*
X122050722Y-110449303D01*
X122050724Y-110449302D01*
X122056752Y-110446618D01*
X122070493Y-110436635D01*
X122153054Y-110376650D01*
X122211253Y-110334366D01*
X122239719Y-110302751D01*
X122334621Y-110197352D01*
X122334622Y-110197351D01*
X122339040Y-110192444D01*
X122434527Y-110027056D01*
X122493542Y-109845428D01*
X122498823Y-109795187D01*
X122512814Y-109662065D01*
X122513504Y-109655500D01*
X122507088Y-109594459D01*
X122494232Y-109472135D01*
X122494232Y-109472133D01*
X122493542Y-109465572D01*
X122434527Y-109283944D01*
X122339040Y-109118556D01*
X122315848Y-109092798D01*
X122225562Y-108992526D01*
X133886335Y-108992526D01*
X133890704Y-109032100D01*
X133902014Y-109134539D01*
X133905153Y-109162975D01*
X133907762Y-109170106D01*
X133907763Y-109170108D01*
X133923828Y-109214006D01*
X133964085Y-109324015D01*
X133968322Y-109330321D01*
X133968324Y-109330324D01*
X134000116Y-109377634D01*
X134059730Y-109466349D01*
X134186565Y-109581760D01*
X134337268Y-109663585D01*
X134503139Y-109707101D01*
X134590586Y-109708474D01*
X134667003Y-109709675D01*
X134667006Y-109709675D01*
X134674602Y-109709794D01*
X134682006Y-109708098D01*
X134682008Y-109708098D01*
X134809348Y-109678933D01*
X134841759Y-109671510D01*
X134994958Y-109594459D01*
X135000729Y-109589530D01*
X135000732Y-109589528D01*
X135119578Y-109488023D01*
X135125355Y-109483089D01*
X135225424Y-109343830D01*
X135289385Y-109184720D01*
X135296646Y-109133700D01*
X135312966Y-109019031D01*
X135312966Y-109019027D01*
X135313547Y-109014947D01*
X135313704Y-109000000D01*
X135300994Y-108894974D01*
X135294015Y-108837299D01*
X135294014Y-108837296D01*
X135293102Y-108829758D01*
X135267741Y-108762640D01*
X135235171Y-108676447D01*
X135232487Y-108669344D01*
X135220930Y-108652529D01*
X135139659Y-108534278D01*
X135139658Y-108534276D01*
X135135357Y-108528019D01*
X135129686Y-108522966D01*
X135012993Y-108418996D01*
X135012990Y-108418994D01*
X135007321Y-108413943D01*
X134999325Y-108409709D01*
X134862481Y-108337254D01*
X134862482Y-108337254D01*
X134855769Y-108333700D01*
X134845251Y-108331058D01*
X134696822Y-108293775D01*
X134696818Y-108293775D01*
X134689451Y-108291924D01*
X134681852Y-108291884D01*
X134681850Y-108291884D01*
X134610394Y-108291510D01*
X134517969Y-108291026D01*
X134510589Y-108292798D01*
X134510587Y-108292798D01*
X134358602Y-108329286D01*
X134358598Y-108329287D01*
X134351223Y-108331058D01*
X134198839Y-108409709D01*
X134069615Y-108522439D01*
X133971010Y-108662739D01*
X133956963Y-108698768D01*
X133934631Y-108756047D01*
X133908718Y-108822509D01*
X133907726Y-108830042D01*
X133907726Y-108830043D01*
X133887781Y-108981545D01*
X133886335Y-108992526D01*
X122225562Y-108992526D01*
X122215675Y-108981545D01*
X122215674Y-108981544D01*
X122211253Y-108976634D01*
X122056752Y-108864382D01*
X122050724Y-108861698D01*
X122050722Y-108861697D01*
X121995285Y-108837015D01*
X121941189Y-108791035D01*
X121920540Y-108723107D01*
X121921225Y-108708735D01*
X121921582Y-108705339D01*
X121921582Y-108705333D01*
X121922272Y-108698768D01*
X121904984Y-108534278D01*
X121903000Y-108515403D01*
X121903000Y-108515401D01*
X121902310Y-108508840D01*
X121843295Y-108327212D01*
X121822922Y-108291924D01*
X121767195Y-108195403D01*
X121747808Y-108161824D01*
X121620021Y-108019902D01*
X121465520Y-107907650D01*
X121459492Y-107904966D01*
X121459490Y-107904965D01*
X121297087Y-107832659D01*
X121297086Y-107832659D01*
X121291056Y-107829974D01*
X121192198Y-107808961D01*
X121110712Y-107791640D01*
X121110707Y-107791640D01*
X121104255Y-107790268D01*
X120913281Y-107790268D01*
X120906829Y-107791640D01*
X120906824Y-107791640D01*
X120825338Y-107808961D01*
X120726480Y-107829974D01*
X120720450Y-107832659D01*
X120720449Y-107832659D01*
X120558046Y-107904965D01*
X120558044Y-107904966D01*
X120552016Y-107907650D01*
X120397515Y-108019902D01*
X120269728Y-108161824D01*
X120250341Y-108195403D01*
X120194615Y-108291924D01*
X120174241Y-108327212D01*
X120115226Y-108508840D01*
X120114536Y-108515401D01*
X120114536Y-108515403D01*
X120112552Y-108534278D01*
X120095264Y-108698768D01*
X118672466Y-108698768D01*
X118670120Y-108676447D01*
X118668956Y-108665370D01*
X118668956Y-108665368D01*
X118668266Y-108658807D01*
X118609251Y-108477179D01*
X118513764Y-108311791D01*
X118497543Y-108293775D01*
X118390399Y-108174780D01*
X118390398Y-108174779D01*
X118385977Y-108169869D01*
X118274230Y-108088680D01*
X118236818Y-108061498D01*
X118236817Y-108061497D01*
X118231476Y-108057617D01*
X118225448Y-108054933D01*
X118225446Y-108054932D01*
X118063043Y-107982626D01*
X118063042Y-107982626D01*
X118057012Y-107979941D01*
X117963611Y-107960088D01*
X117876668Y-107941607D01*
X117876663Y-107941607D01*
X117870211Y-107940235D01*
X117679237Y-107940235D01*
X117672785Y-107941607D01*
X117672780Y-107941607D01*
X117585837Y-107960088D01*
X117492436Y-107979941D01*
X117486406Y-107982626D01*
X117486405Y-107982626D01*
X117324002Y-108054932D01*
X117324000Y-108054933D01*
X117317972Y-108057617D01*
X117312631Y-108061497D01*
X117312630Y-108061498D01*
X117275218Y-108088680D01*
X117163471Y-108169869D01*
X117159050Y-108174779D01*
X117159049Y-108174780D01*
X117051906Y-108293775D01*
X117035684Y-108311791D01*
X116940197Y-108477179D01*
X116881182Y-108658807D01*
X116880492Y-108665368D01*
X116880492Y-108665370D01*
X116879328Y-108676447D01*
X116861220Y-108848735D01*
X116861910Y-108855300D01*
X116879119Y-109019031D01*
X116881182Y-109038663D01*
X116940197Y-109220291D01*
X116943500Y-109226013D01*
X116943501Y-109226014D01*
X116992415Y-109310735D01*
X117009153Y-109379730D01*
X116992415Y-109436735D01*
X116940197Y-109527179D01*
X116938155Y-109533464D01*
X116918911Y-109592690D01*
X116878837Y-109651296D01*
X116813441Y-109678933D01*
X116743484Y-109666826D01*
X116691178Y-109618820D01*
X116681212Y-109598292D01*
X116635171Y-109476447D01*
X116632487Y-109469344D01*
X116623675Y-109456523D01*
X116539659Y-109334278D01*
X116539658Y-109334276D01*
X116535357Y-109328019D01*
X116529686Y-109322966D01*
X116412993Y-109218996D01*
X116412990Y-109218994D01*
X116407321Y-109213943D01*
X116399325Y-109209709D01*
X116316782Y-109166005D01*
X116255769Y-109133700D01*
X116232268Y-109127797D01*
X116096822Y-109093775D01*
X116096818Y-109093775D01*
X116089451Y-109091924D01*
X116081852Y-109091884D01*
X116081850Y-109091884D01*
X116010394Y-109091510D01*
X115917969Y-109091026D01*
X115910589Y-109092798D01*
X115910587Y-109092798D01*
X115758602Y-109129286D01*
X115758598Y-109129287D01*
X115751223Y-109131058D01*
X115598839Y-109209709D01*
X115469615Y-109322439D01*
X115371010Y-109462739D01*
X115308718Y-109622509D01*
X115307726Y-109630042D01*
X115307726Y-109630043D01*
X115290105Y-109763891D01*
X115286335Y-109792526D01*
X113209303Y-109792526D01*
X113235086Y-109763891D01*
X113325853Y-109663084D01*
X113325854Y-109663083D01*
X113330272Y-109658176D01*
X113405903Y-109527179D01*
X113422455Y-109498511D01*
X113422456Y-109498510D01*
X113425759Y-109492788D01*
X113484774Y-109311160D01*
X113487635Y-109283944D01*
X113504046Y-109127797D01*
X113504736Y-109121232D01*
X113498052Y-109057634D01*
X113485464Y-108937867D01*
X113485464Y-108937865D01*
X113484774Y-108931304D01*
X113425759Y-108749676D01*
X113330272Y-108584288D01*
X113275058Y-108522966D01*
X113206907Y-108447277D01*
X113206906Y-108447276D01*
X113202485Y-108442366D01*
X113103389Y-108370368D01*
X113053326Y-108333995D01*
X113053325Y-108333994D01*
X113047984Y-108330114D01*
X113041956Y-108327430D01*
X113041954Y-108327429D01*
X112879551Y-108255123D01*
X112879550Y-108255123D01*
X112873520Y-108252438D01*
X112867059Y-108251065D01*
X112867054Y-108251063D01*
X112825929Y-108242321D01*
X112763455Y-108208593D01*
X112732293Y-108158011D01*
X112687418Y-108019902D01*
X112683295Y-108007212D01*
X112646692Y-107943813D01*
X112608669Y-107877956D01*
X112591931Y-107808961D01*
X112615151Y-107741869D01*
X112624142Y-107730657D01*
X112749040Y-107591944D01*
X112844527Y-107426556D01*
X112903542Y-107244928D01*
X112913518Y-107150010D01*
X128865136Y-107150010D01*
X128865826Y-107156575D01*
X128872337Y-107218519D01*
X128885098Y-107339938D01*
X128944113Y-107521566D01*
X129039600Y-107686954D01*
X129044018Y-107691861D01*
X129044019Y-107691862D01*
X129149455Y-107808961D01*
X129167387Y-107828876D01*
X129321888Y-107941128D01*
X129327916Y-107943812D01*
X129327918Y-107943813D01*
X129490321Y-108016119D01*
X129496352Y-108018804D01*
X129502813Y-108020177D01*
X129502818Y-108020179D01*
X129543943Y-108028921D01*
X129606417Y-108062649D01*
X129637579Y-108113231D01*
X129686577Y-108264030D01*
X129689880Y-108269752D01*
X129689881Y-108269753D01*
X129702682Y-108291924D01*
X129782064Y-108429418D01*
X129786482Y-108434325D01*
X129786483Y-108434326D01*
X129865820Y-108522439D01*
X129909851Y-108571340D01*
X130008947Y-108643338D01*
X130039272Y-108665370D01*
X130064352Y-108683592D01*
X130070380Y-108686276D01*
X130070382Y-108686277D01*
X130214235Y-108750324D01*
X130238816Y-108761268D01*
X130332216Y-108781121D01*
X130419160Y-108799602D01*
X130419165Y-108799602D01*
X130425617Y-108800974D01*
X130616591Y-108800974D01*
X130623043Y-108799602D01*
X130623048Y-108799602D01*
X130709992Y-108781121D01*
X130803392Y-108761268D01*
X130827973Y-108750324D01*
X130971826Y-108686277D01*
X130971828Y-108686276D01*
X130977856Y-108683592D01*
X131002937Y-108665370D01*
X131033261Y-108643338D01*
X131132357Y-108571340D01*
X131176388Y-108522439D01*
X131255725Y-108434326D01*
X131255726Y-108434325D01*
X131260144Y-108429418D01*
X131339526Y-108291924D01*
X131352327Y-108269753D01*
X131352328Y-108269752D01*
X131355631Y-108264030D01*
X131414646Y-108082402D01*
X131434608Y-107892474D01*
X131427895Y-107828602D01*
X131415336Y-107709109D01*
X131415336Y-107709107D01*
X131414646Y-107702546D01*
X131355631Y-107520918D01*
X131260144Y-107355530D01*
X131132357Y-107213608D01*
X130977856Y-107101356D01*
X130971828Y-107098672D01*
X130971826Y-107098671D01*
X130819645Y-107030916D01*
X130765549Y-106984936D01*
X130744900Y-106917009D01*
X130764252Y-106848700D01*
X130796831Y-106813875D01*
X130831253Y-106788866D01*
X130959040Y-106646944D01*
X131054527Y-106481556D01*
X131113542Y-106299928D01*
X131116143Y-106275187D01*
X131132814Y-106116565D01*
X131132814Y-106116564D01*
X131133504Y-106110000D01*
X131113542Y-105920072D01*
X131054527Y-105738444D01*
X130959040Y-105573056D01*
X130842749Y-105443901D01*
X130835675Y-105436045D01*
X130835674Y-105436044D01*
X130831253Y-105431134D01*
X130696730Y-105333397D01*
X130682094Y-105322763D01*
X130682093Y-105322762D01*
X130676752Y-105318882D01*
X130670722Y-105316197D01*
X130667786Y-105314890D01*
X130659653Y-105311269D01*
X130605558Y-105265291D01*
X130587500Y-105205892D01*
X130562532Y-105227947D01*
X130492358Y-105238721D01*
X130482902Y-105237085D01*
X130321944Y-105202872D01*
X130321939Y-105202872D01*
X130315487Y-105201500D01*
X130124513Y-105201500D01*
X130118061Y-105202872D01*
X130118056Y-105202872D01*
X130031112Y-105221353D01*
X129937712Y-105241206D01*
X129931682Y-105243891D01*
X129931681Y-105243891D01*
X129769278Y-105316197D01*
X129769276Y-105316198D01*
X129763248Y-105318882D01*
X129757907Y-105322762D01*
X129757906Y-105322763D01*
X129743270Y-105333397D01*
X129608747Y-105431134D01*
X129604326Y-105436044D01*
X129604325Y-105436045D01*
X129597252Y-105443901D01*
X129480960Y-105573056D01*
X129385473Y-105738444D01*
X129326458Y-105920072D01*
X129306496Y-106110000D01*
X129324288Y-106279278D01*
X129311516Y-106349115D01*
X129273039Y-106394383D01*
X129167387Y-106471144D01*
X129162966Y-106476054D01*
X129162965Y-106476055D01*
X129110437Y-106534394D01*
X129039600Y-106613066D01*
X128944113Y-106778454D01*
X128885098Y-106960082D01*
X128865136Y-107150010D01*
X112913518Y-107150010D01*
X112923504Y-107055000D01*
X112903542Y-106865072D01*
X112844527Y-106683444D01*
X112792309Y-106593000D01*
X112775571Y-106524005D01*
X112792309Y-106467000D01*
X112841223Y-106382279D01*
X112841224Y-106382278D01*
X112844527Y-106376556D01*
X112903542Y-106194928D01*
X112923504Y-106005000D01*
X112903542Y-105815072D01*
X112844527Y-105633444D01*
X112749040Y-105468056D01*
X112667316Y-105377293D01*
X112636601Y-105313288D01*
X112645364Y-105242835D01*
X112667315Y-105208679D01*
X112757808Y-105108176D01*
X112853295Y-104942788D01*
X112880595Y-104858768D01*
X118245264Y-104858768D01*
X118245954Y-104865333D01*
X118259457Y-104993803D01*
X118265226Y-105048696D01*
X118324241Y-105230324D01*
X118327544Y-105236046D01*
X118327545Y-105236047D01*
X118338898Y-105255710D01*
X118419728Y-105395712D01*
X118424146Y-105400619D01*
X118424147Y-105400620D01*
X118480452Y-105463153D01*
X118547515Y-105537634D01*
X118589514Y-105568148D01*
X118679386Y-105633444D01*
X118702016Y-105649886D01*
X118708044Y-105652570D01*
X118708046Y-105652571D01*
X118870449Y-105724877D01*
X118876480Y-105727562D01*
X118882941Y-105728935D01*
X118882946Y-105728937D01*
X118924071Y-105737679D01*
X118986545Y-105771407D01*
X119017707Y-105821989D01*
X119066705Y-105972788D01*
X119162192Y-106138176D01*
X119166610Y-106143083D01*
X119166611Y-106143084D01*
X119185633Y-106164210D01*
X119289979Y-106280098D01*
X119331156Y-106310015D01*
X119430619Y-106382279D01*
X119444480Y-106392350D01*
X119450508Y-106395034D01*
X119450510Y-106395035D01*
X119612913Y-106467341D01*
X119618944Y-106470026D01*
X119700113Y-106487279D01*
X119799288Y-106508360D01*
X119799293Y-106508360D01*
X119805745Y-106509732D01*
X119996719Y-106509732D01*
X120003171Y-106508360D01*
X120003176Y-106508360D01*
X120102351Y-106487279D01*
X120183520Y-106470026D01*
X120189551Y-106467341D01*
X120351954Y-106395035D01*
X120351956Y-106395034D01*
X120357984Y-106392350D01*
X120371846Y-106382279D01*
X120471308Y-106310015D01*
X120512485Y-106280098D01*
X120616831Y-106164210D01*
X120635853Y-106143084D01*
X120635854Y-106143083D01*
X120640272Y-106138176D01*
X120735759Y-105972788D01*
X120794774Y-105791160D01*
X120812000Y-105627266D01*
X121361497Y-105627266D01*
X121362187Y-105633831D01*
X121379383Y-105797438D01*
X121381459Y-105817194D01*
X121440474Y-105998822D01*
X121535961Y-106164210D01*
X121540379Y-106169117D01*
X121540380Y-106169118D01*
X121658162Y-106299928D01*
X121663748Y-106306132D01*
X121722909Y-106349115D01*
X121785215Y-106394383D01*
X121818249Y-106418384D01*
X121824277Y-106421068D01*
X121824279Y-106421069D01*
X121960136Y-106481556D01*
X121992713Y-106496060D01*
X122086114Y-106515913D01*
X122173057Y-106534394D01*
X122173062Y-106534394D01*
X122179514Y-106535766D01*
X122370488Y-106535766D01*
X122376940Y-106534394D01*
X122376945Y-106534394D01*
X122463888Y-106515913D01*
X122557289Y-106496060D01*
X122589866Y-106481556D01*
X122725725Y-106421068D01*
X122725726Y-106421067D01*
X122731753Y-106418384D01*
X122737028Y-106414552D01*
X122805993Y-106397819D01*
X122862971Y-106414549D01*
X122868249Y-106418384D01*
X122874276Y-106421067D01*
X122874277Y-106421068D01*
X123010136Y-106481556D01*
X123042713Y-106496060D01*
X123136114Y-106515913D01*
X123223057Y-106534394D01*
X123223062Y-106534394D01*
X123229514Y-106535766D01*
X123420488Y-106535766D01*
X123426940Y-106534394D01*
X123426945Y-106534394D01*
X123513888Y-106515913D01*
X123607289Y-106496060D01*
X123639866Y-106481556D01*
X123775723Y-106421069D01*
X123775725Y-106421068D01*
X123781753Y-106418384D01*
X123814788Y-106394383D01*
X123877093Y-106349115D01*
X123936254Y-106306132D01*
X123941840Y-106299928D01*
X124059622Y-106169118D01*
X124059623Y-106169117D01*
X124064041Y-106164210D01*
X124159528Y-105998822D01*
X124218543Y-105817194D01*
X124220620Y-105797438D01*
X124237815Y-105633831D01*
X124238505Y-105627266D01*
X124229493Y-105541517D01*
X124219233Y-105443901D01*
X124219233Y-105443899D01*
X124218543Y-105437338D01*
X124159528Y-105255710D01*
X124149720Y-105238721D01*
X124072000Y-105104108D01*
X124064041Y-105090322D01*
X124045893Y-105070166D01*
X123940676Y-104953311D01*
X123940675Y-104953310D01*
X123936254Y-104948400D01*
X123781753Y-104836148D01*
X123775725Y-104833464D01*
X123775723Y-104833463D01*
X123613320Y-104761157D01*
X123613319Y-104761157D01*
X123607289Y-104758472D01*
X123506008Y-104736944D01*
X123426945Y-104720138D01*
X123426940Y-104720138D01*
X123420488Y-104718766D01*
X123229514Y-104718766D01*
X123223062Y-104720138D01*
X123223057Y-104720138D01*
X123143994Y-104736944D01*
X123042713Y-104758472D01*
X123036683Y-104761157D01*
X123036682Y-104761157D01*
X122874280Y-104833463D01*
X122868249Y-104836148D01*
X122862974Y-104839980D01*
X122794009Y-104856713D01*
X122737031Y-104839983D01*
X122731753Y-104836148D01*
X122725723Y-104833463D01*
X122563320Y-104761157D01*
X122563319Y-104761157D01*
X122557289Y-104758472D01*
X122456008Y-104736944D01*
X122376945Y-104720138D01*
X122376940Y-104720138D01*
X122370488Y-104718766D01*
X122179514Y-104718766D01*
X122173062Y-104720138D01*
X122173057Y-104720138D01*
X122093994Y-104736944D01*
X121992713Y-104758472D01*
X121986683Y-104761157D01*
X121986682Y-104761157D01*
X121824279Y-104833463D01*
X121824277Y-104833464D01*
X121818249Y-104836148D01*
X121663748Y-104948400D01*
X121659327Y-104953310D01*
X121659326Y-104953311D01*
X121554110Y-105070166D01*
X121535961Y-105090322D01*
X121528002Y-105104108D01*
X121450283Y-105238721D01*
X121440474Y-105255710D01*
X121381459Y-105437338D01*
X121380769Y-105443899D01*
X121380769Y-105443901D01*
X121370509Y-105541517D01*
X121361497Y-105627266D01*
X120812000Y-105627266D01*
X120814736Y-105601232D01*
X120808052Y-105537634D01*
X120795464Y-105417867D01*
X120795464Y-105417865D01*
X120794774Y-105411304D01*
X120735759Y-105229676D01*
X120723634Y-105208674D01*
X120698546Y-105165222D01*
X120640272Y-105064288D01*
X120581244Y-104998730D01*
X120516907Y-104927277D01*
X120516906Y-104927276D01*
X120512485Y-104922366D01*
X120393817Y-104836148D01*
X120363326Y-104813995D01*
X120363325Y-104813994D01*
X120357984Y-104810114D01*
X120351956Y-104807430D01*
X120351954Y-104807429D01*
X120189551Y-104735123D01*
X120189550Y-104735123D01*
X120183520Y-104732438D01*
X120177059Y-104731065D01*
X120177054Y-104731063D01*
X120135929Y-104722321D01*
X120073455Y-104688593D01*
X120042293Y-104638011D01*
X120001192Y-104511517D01*
X119993295Y-104487212D01*
X119897808Y-104321824D01*
X119794029Y-104206565D01*
X119788118Y-104200000D01*
X130086496Y-104200000D01*
X130087186Y-104206565D01*
X130105552Y-104381304D01*
X130106458Y-104389928D01*
X130165473Y-104571556D01*
X130260960Y-104736944D01*
X130265378Y-104741851D01*
X130265379Y-104741852D01*
X130368800Y-104856713D01*
X130388747Y-104878866D01*
X130543248Y-104991118D01*
X130549275Y-104993801D01*
X130549276Y-104993802D01*
X130552214Y-104995110D01*
X130560347Y-104998731D01*
X130614442Y-105044709D01*
X130632500Y-105104108D01*
X130657468Y-105082053D01*
X130727642Y-105071279D01*
X130737098Y-105072915D01*
X130898056Y-105107128D01*
X130898061Y-105107128D01*
X130904513Y-105108500D01*
X131095487Y-105108500D01*
X131101939Y-105107128D01*
X131101944Y-105107128D01*
X131204097Y-105085414D01*
X131282288Y-105068794D01*
X131292409Y-105064288D01*
X131450722Y-104993803D01*
X131450724Y-104993802D01*
X131456752Y-104991118D01*
X131611253Y-104878866D01*
X131631200Y-104856713D01*
X131734621Y-104741852D01*
X131734622Y-104741851D01*
X131739040Y-104736944D01*
X131834527Y-104571556D01*
X131893542Y-104389928D01*
X131894449Y-104381304D01*
X131912814Y-104206565D01*
X131913504Y-104200000D01*
X131899594Y-104067650D01*
X131894232Y-104016635D01*
X131894232Y-104016633D01*
X131893542Y-104010072D01*
X131834527Y-103828444D01*
X131739040Y-103663056D01*
X131611253Y-103521134D01*
X131456752Y-103408882D01*
X131450724Y-103406198D01*
X131450722Y-103406197D01*
X131288319Y-103333891D01*
X131288318Y-103333891D01*
X131282288Y-103331206D01*
X131188888Y-103311353D01*
X131101944Y-103292872D01*
X131101939Y-103292872D01*
X131095487Y-103291500D01*
X130904513Y-103291500D01*
X130898061Y-103292872D01*
X130898056Y-103292872D01*
X130811112Y-103311353D01*
X130717712Y-103331206D01*
X130711682Y-103333891D01*
X130711681Y-103333891D01*
X130549278Y-103406197D01*
X130549276Y-103406198D01*
X130543248Y-103408882D01*
X130388747Y-103521134D01*
X130260960Y-103663056D01*
X130165473Y-103828444D01*
X130106458Y-104010072D01*
X130105768Y-104016633D01*
X130105768Y-104016635D01*
X130100406Y-104067650D01*
X130086496Y-104200000D01*
X119788118Y-104200000D01*
X119774443Y-104184813D01*
X119774442Y-104184812D01*
X119770021Y-104179902D01*
X119615520Y-104067650D01*
X119609492Y-104064966D01*
X119609490Y-104064965D01*
X119447087Y-103992659D01*
X119447086Y-103992659D01*
X119441056Y-103989974D01*
X119347655Y-103970121D01*
X119260712Y-103951640D01*
X119260707Y-103951640D01*
X119254255Y-103950268D01*
X119063281Y-103950268D01*
X119056829Y-103951640D01*
X119056824Y-103951640D01*
X118969881Y-103970121D01*
X118876480Y-103989974D01*
X118870450Y-103992659D01*
X118870449Y-103992659D01*
X118708046Y-104064965D01*
X118708044Y-104064966D01*
X118702016Y-104067650D01*
X118547515Y-104179902D01*
X118543094Y-104184812D01*
X118543093Y-104184813D01*
X118523508Y-104206565D01*
X118419728Y-104321824D01*
X118324241Y-104487212D01*
X118265226Y-104668840D01*
X118264536Y-104675401D01*
X118264536Y-104675403D01*
X118255805Y-104758472D01*
X118245264Y-104858768D01*
X112880595Y-104858768D01*
X112902293Y-104791989D01*
X112942367Y-104733383D01*
X112995929Y-104707679D01*
X113037054Y-104698937D01*
X113037059Y-104698935D01*
X113043520Y-104697562D01*
X113063665Y-104688593D01*
X113211954Y-104622571D01*
X113211956Y-104622570D01*
X113217984Y-104619886D01*
X113372485Y-104507634D01*
X113500272Y-104365712D01*
X113595759Y-104200324D01*
X113654774Y-104018696D01*
X113655681Y-104010072D01*
X113674046Y-103835333D01*
X113674736Y-103828768D01*
X113657920Y-103668774D01*
X113655464Y-103645403D01*
X113655464Y-103645401D01*
X113654774Y-103638840D01*
X113595759Y-103457212D01*
X113570904Y-103414161D01*
X113503573Y-103297542D01*
X113500272Y-103291824D01*
X113372485Y-103149902D01*
X113217984Y-103037650D01*
X113211956Y-103034966D01*
X113211954Y-103034965D01*
X113049551Y-102962659D01*
X113049550Y-102962659D01*
X113043520Y-102959974D01*
X112950072Y-102940111D01*
X112863176Y-102921640D01*
X112863171Y-102921640D01*
X112856719Y-102920268D01*
X112665745Y-102920268D01*
X112659293Y-102921640D01*
X112659288Y-102921640D01*
X112572392Y-102940111D01*
X112478944Y-102959974D01*
X112472914Y-102962659D01*
X112472913Y-102962659D01*
X112310510Y-103034965D01*
X112310508Y-103034966D01*
X112304480Y-103037650D01*
X112149979Y-103149902D01*
X112022192Y-103291824D01*
X112018891Y-103297542D01*
X111951561Y-103414161D01*
X111926705Y-103457212D01*
X111924663Y-103463497D01*
X111877707Y-103608011D01*
X111837633Y-103666617D01*
X111784071Y-103692321D01*
X111742946Y-103701063D01*
X111742941Y-103701065D01*
X111736480Y-103702438D01*
X111730450Y-103705123D01*
X111730449Y-103705123D01*
X111568046Y-103777429D01*
X111568044Y-103777430D01*
X111562016Y-103780114D01*
X111407515Y-103892366D01*
X111403094Y-103897276D01*
X111403093Y-103897277D01*
X111354145Y-103951640D01*
X111279728Y-104034288D01*
X111258226Y-104071531D01*
X111195658Y-104179902D01*
X111184241Y-104199676D01*
X111125226Y-104381304D01*
X111124536Y-104387865D01*
X111124536Y-104387867D01*
X111111948Y-104507634D01*
X111105264Y-104571232D01*
X111105954Y-104577797D01*
X111123197Y-104741852D01*
X111125226Y-104761160D01*
X111184241Y-104942788D01*
X111279728Y-105108176D01*
X111361452Y-105198939D01*
X111392167Y-105262944D01*
X111383404Y-105333397D01*
X111361453Y-105367553D01*
X111270960Y-105468056D01*
X111175473Y-105633444D01*
X111116458Y-105815072D01*
X111096496Y-106005000D01*
X111116458Y-106194928D01*
X111175473Y-106376556D01*
X111178776Y-106382278D01*
X111178777Y-106382279D01*
X111227691Y-106467000D01*
X111244429Y-106535995D01*
X111227691Y-106593000D01*
X111175473Y-106683444D01*
X111116458Y-106865072D01*
X111096496Y-107055000D01*
X111116458Y-107244928D01*
X111175473Y-107426556D01*
X111178776Y-107432278D01*
X111178777Y-107432279D01*
X111250099Y-107555812D01*
X111266837Y-107624807D01*
X111243617Y-107691899D01*
X111234626Y-107703111D01*
X111109728Y-107841824D01*
X111014241Y-108007212D01*
X110955226Y-108188840D01*
X110954536Y-108195401D01*
X110954536Y-108195403D01*
X110941284Y-108321489D01*
X110935264Y-108378768D01*
X108876833Y-108378768D01*
X108868408Y-102556269D01*
X137208607Y-102556269D01*
X137226674Y-102754795D01*
X137228415Y-102760709D01*
X137228415Y-102760711D01*
X137266721Y-102890861D01*
X137282958Y-102946030D01*
X137375314Y-103122691D01*
X137500225Y-103278049D01*
X137652933Y-103406186D01*
X137827621Y-103502221D01*
X137833488Y-103504082D01*
X137833490Y-103504083D01*
X138011758Y-103560634D01*
X138011761Y-103560635D01*
X138017635Y-103562498D01*
X138172784Y-103579900D01*
X138280157Y-103579900D01*
X138283213Y-103579600D01*
X138283220Y-103579600D01*
X138342241Y-103573813D01*
X138428394Y-103565365D01*
X138434293Y-103563584D01*
X138434298Y-103563583D01*
X138613333Y-103509529D01*
X138619232Y-103507748D01*
X138725040Y-103451489D01*
X138789802Y-103417055D01*
X138789805Y-103417053D01*
X138795244Y-103414161D01*
X138800014Y-103410271D01*
X138800018Y-103410268D01*
X138944951Y-103292063D01*
X138944954Y-103292060D01*
X138949726Y-103288168D01*
X139076794Y-103134570D01*
X139171608Y-102959215D01*
X139230556Y-102768785D01*
X139231405Y-102760711D01*
X139250749Y-102576660D01*
X139250749Y-102576658D01*
X139251393Y-102570531D01*
X139250095Y-102556269D01*
X177208607Y-102556269D01*
X177226674Y-102754795D01*
X177228415Y-102760709D01*
X177228415Y-102760711D01*
X177266721Y-102890861D01*
X177282958Y-102946030D01*
X177375314Y-103122691D01*
X177500225Y-103278049D01*
X177652933Y-103406186D01*
X177827621Y-103502221D01*
X177833488Y-103504082D01*
X177833490Y-103504083D01*
X178011758Y-103560634D01*
X178011761Y-103560635D01*
X178017635Y-103562498D01*
X178172784Y-103579900D01*
X178280157Y-103579900D01*
X178283213Y-103579600D01*
X178283220Y-103579600D01*
X178342241Y-103573813D01*
X178428394Y-103565365D01*
X178434293Y-103563584D01*
X178434298Y-103563583D01*
X178613333Y-103509529D01*
X178619232Y-103507748D01*
X178725040Y-103451489D01*
X178789802Y-103417055D01*
X178789805Y-103417053D01*
X178795244Y-103414161D01*
X178800014Y-103410271D01*
X178800018Y-103410268D01*
X178944951Y-103292063D01*
X178944954Y-103292060D01*
X178949726Y-103288168D01*
X179076794Y-103134570D01*
X179171608Y-102959215D01*
X179230556Y-102768785D01*
X179231405Y-102760711D01*
X179250749Y-102576660D01*
X179250749Y-102576658D01*
X179251393Y-102570531D01*
X179233326Y-102372005D01*
X179231012Y-102364141D01*
X179178784Y-102186689D01*
X179177042Y-102180770D01*
X179084686Y-102004109D01*
X178959775Y-101848751D01*
X178807067Y-101720614D01*
X178632379Y-101624579D01*
X178626512Y-101622718D01*
X178626510Y-101622717D01*
X178448242Y-101566166D01*
X178448239Y-101566165D01*
X178442365Y-101564302D01*
X178287216Y-101546900D01*
X178179843Y-101546900D01*
X178176787Y-101547200D01*
X178176780Y-101547200D01*
X178117759Y-101552987D01*
X178031606Y-101561435D01*
X178025707Y-101563216D01*
X178025702Y-101563217D01*
X177847043Y-101617158D01*
X177840768Y-101619052D01*
X177752762Y-101665846D01*
X177670198Y-101709745D01*
X177670195Y-101709747D01*
X177664756Y-101712639D01*
X177659986Y-101716529D01*
X177659982Y-101716532D01*
X177515049Y-101834737D01*
X177515046Y-101834740D01*
X177510274Y-101838632D01*
X177383206Y-101992230D01*
X177288392Y-102167585D01*
X177229444Y-102358015D01*
X177228800Y-102364140D01*
X177228800Y-102364141D01*
X177227974Y-102372005D01*
X177208607Y-102556269D01*
X139250095Y-102556269D01*
X139233326Y-102372005D01*
X139231012Y-102364141D01*
X139178784Y-102186689D01*
X139177042Y-102180770D01*
X139084686Y-102004109D01*
X138959775Y-101848751D01*
X138807067Y-101720614D01*
X138632379Y-101624579D01*
X138626512Y-101622718D01*
X138626510Y-101622717D01*
X138448242Y-101566166D01*
X138448239Y-101566165D01*
X138442365Y-101564302D01*
X138287216Y-101546900D01*
X138179843Y-101546900D01*
X138176787Y-101547200D01*
X138176780Y-101547200D01*
X138117759Y-101552987D01*
X138031606Y-101561435D01*
X138025707Y-101563216D01*
X138025702Y-101563217D01*
X137847043Y-101617158D01*
X137840768Y-101619052D01*
X137752762Y-101665846D01*
X137670198Y-101709745D01*
X137670195Y-101709747D01*
X137664756Y-101712639D01*
X137659986Y-101716529D01*
X137659982Y-101716532D01*
X137515049Y-101834737D01*
X137515046Y-101834740D01*
X137510274Y-101838632D01*
X137383206Y-101992230D01*
X137288392Y-102167585D01*
X137229444Y-102358015D01*
X137228800Y-102364140D01*
X137228800Y-102364141D01*
X137227974Y-102372005D01*
X137208607Y-102556269D01*
X108868408Y-102556269D01*
X108864691Y-99987527D01*
X115461334Y-99987527D01*
X115480152Y-100157976D01*
X115482761Y-100165107D01*
X115482762Y-100165109D01*
X115490687Y-100186765D01*
X115539084Y-100319016D01*
X115634729Y-100461350D01*
X115698147Y-100519056D01*
X115726065Y-100544459D01*
X115761564Y-100576761D01*
X115912267Y-100658586D01*
X116078138Y-100702102D01*
X116165585Y-100703475D01*
X116242002Y-100704676D01*
X116242005Y-100704676D01*
X116249601Y-100704795D01*
X116257005Y-100703099D01*
X116257007Y-100703099D01*
X116319845Y-100688707D01*
X116416758Y-100666511D01*
X116569957Y-100589460D01*
X116575728Y-100584531D01*
X116575731Y-100584529D01*
X116694577Y-100483024D01*
X116700354Y-100478090D01*
X116800423Y-100338831D01*
X116864384Y-100179721D01*
X116870789Y-100134720D01*
X116887965Y-100014032D01*
X116887965Y-100014028D01*
X116888546Y-100009948D01*
X116888703Y-99995001D01*
X116882353Y-99942526D01*
X126536335Y-99942526D01*
X126555153Y-100112975D01*
X126557762Y-100120106D01*
X126557763Y-100120108D01*
X126565688Y-100141764D01*
X126614085Y-100274015D01*
X126618322Y-100280321D01*
X126618324Y-100280324D01*
X126648564Y-100325325D01*
X126709730Y-100416349D01*
X126836565Y-100531760D01*
X126987268Y-100613585D01*
X127153139Y-100657101D01*
X127240586Y-100658474D01*
X127317003Y-100659675D01*
X127317006Y-100659675D01*
X127324602Y-100659794D01*
X127332006Y-100658098D01*
X127332008Y-100658098D01*
X127394846Y-100643706D01*
X127491759Y-100621510D01*
X127644958Y-100544459D01*
X127650729Y-100539530D01*
X127650732Y-100539528D01*
X127769578Y-100438023D01*
X127775355Y-100433089D01*
X127875424Y-100293830D01*
X127939385Y-100134720D01*
X127956561Y-100014032D01*
X127962966Y-99969031D01*
X127962966Y-99969027D01*
X127963547Y-99964947D01*
X127963704Y-99950000D01*
X127959258Y-99913262D01*
X127944015Y-99787299D01*
X127944014Y-99787296D01*
X127943102Y-99779758D01*
X127882487Y-99619344D01*
X127816721Y-99523654D01*
X127789659Y-99484278D01*
X127789658Y-99484276D01*
X127785357Y-99478019D01*
X127779686Y-99472966D01*
X127662993Y-99368996D01*
X127662990Y-99368994D01*
X127657321Y-99363943D01*
X127649325Y-99359709D01*
X127515356Y-99288776D01*
X127505769Y-99283700D01*
X127477702Y-99276650D01*
X127346822Y-99243775D01*
X127346818Y-99243775D01*
X127339451Y-99241924D01*
X127331852Y-99241884D01*
X127331850Y-99241884D01*
X127260394Y-99241510D01*
X127167969Y-99241026D01*
X127160589Y-99242798D01*
X127160587Y-99242798D01*
X127008602Y-99279286D01*
X127008598Y-99279287D01*
X127001223Y-99281058D01*
X126848839Y-99359709D01*
X126719615Y-99472439D01*
X126621010Y-99612739D01*
X126558718Y-99772509D01*
X126557726Y-99780042D01*
X126557726Y-99780043D01*
X126551802Y-99825044D01*
X126536335Y-99942526D01*
X116882353Y-99942526D01*
X116868101Y-99824759D01*
X116851205Y-99780043D01*
X116810170Y-99671448D01*
X116807486Y-99664345D01*
X116798674Y-99651524D01*
X116714658Y-99529279D01*
X116714657Y-99529277D01*
X116710356Y-99523020D01*
X116704685Y-99517967D01*
X116587992Y-99413997D01*
X116587989Y-99413995D01*
X116582320Y-99408944D01*
X116574324Y-99404710D01*
X116437480Y-99332255D01*
X116437481Y-99332255D01*
X116430768Y-99328701D01*
X116413195Y-99324287D01*
X116271821Y-99288776D01*
X116271817Y-99288776D01*
X116264450Y-99286925D01*
X116256851Y-99286885D01*
X116256849Y-99286885D01*
X116185393Y-99286511D01*
X116092968Y-99286027D01*
X116085588Y-99287799D01*
X116085586Y-99287799D01*
X115933601Y-99324287D01*
X115933597Y-99324288D01*
X115926222Y-99326059D01*
X115773838Y-99404710D01*
X115644614Y-99517440D01*
X115546009Y-99657740D01*
X115514863Y-99737625D01*
X115504023Y-99765429D01*
X115483717Y-99817510D01*
X115482725Y-99825043D01*
X115482725Y-99825044D01*
X115464307Y-99964947D01*
X115461334Y-99987527D01*
X108864691Y-99987527D01*
X108862817Y-98692526D01*
X124486335Y-98692526D01*
X124505153Y-98862975D01*
X124507762Y-98870106D01*
X124507763Y-98870108D01*
X124515688Y-98891764D01*
X124564085Y-99024015D01*
X124659730Y-99166349D01*
X124786565Y-99281760D01*
X124937268Y-99363585D01*
X125103139Y-99407101D01*
X125190586Y-99408474D01*
X125267003Y-99409675D01*
X125267006Y-99409675D01*
X125274602Y-99409794D01*
X125282006Y-99408098D01*
X125282008Y-99408098D01*
X125344846Y-99393706D01*
X125441759Y-99371510D01*
X125594958Y-99294459D01*
X125600729Y-99289530D01*
X125600732Y-99289528D01*
X125719578Y-99188023D01*
X125725355Y-99183089D01*
X125825424Y-99043830D01*
X125889385Y-98884720D01*
X125913547Y-98714947D01*
X125913704Y-98700000D01*
X125893102Y-98529758D01*
X125832487Y-98369344D01*
X125735357Y-98228019D01*
X125729686Y-98222966D01*
X125612993Y-98118996D01*
X125612990Y-98118994D01*
X125607321Y-98113943D01*
X125599325Y-98109709D01*
X125462481Y-98037254D01*
X125462482Y-98037254D01*
X125455769Y-98033700D01*
X125438196Y-98029286D01*
X125296822Y-97993775D01*
X125296818Y-97993775D01*
X125289451Y-97991924D01*
X125281852Y-97991884D01*
X125281850Y-97991884D01*
X125210394Y-97991510D01*
X125117969Y-97991026D01*
X125110589Y-97992798D01*
X125110587Y-97992798D01*
X124958602Y-98029286D01*
X124958598Y-98029287D01*
X124951223Y-98031058D01*
X124798839Y-98109709D01*
X124669615Y-98222439D01*
X124571010Y-98362739D01*
X124508718Y-98522509D01*
X124486335Y-98692526D01*
X108862817Y-98692526D01*
X108859048Y-96087527D01*
X116661334Y-96087527D01*
X116680152Y-96257976D01*
X116682761Y-96265107D01*
X116682762Y-96265109D01*
X116690687Y-96286765D01*
X116739084Y-96419016D01*
X116834729Y-96561350D01*
X116961564Y-96676761D01*
X117112267Y-96758586D01*
X117278138Y-96802102D01*
X117365585Y-96803475D01*
X117442002Y-96804676D01*
X117442005Y-96804676D01*
X117449601Y-96804795D01*
X117457005Y-96803099D01*
X117457007Y-96803099D01*
X117519845Y-96788707D01*
X117616758Y-96766511D01*
X117769957Y-96689460D01*
X117775728Y-96684531D01*
X117775731Y-96684529D01*
X117894577Y-96583024D01*
X117900354Y-96578090D01*
X118000423Y-96438831D01*
X118064384Y-96279721D01*
X118088546Y-96109948D01*
X118088703Y-96095001D01*
X118068101Y-95924759D01*
X118013532Y-95780344D01*
X118010170Y-95771448D01*
X118007486Y-95764345D01*
X117937879Y-95663066D01*
X117914658Y-95629279D01*
X117914657Y-95629277D01*
X117910356Y-95623020D01*
X117904685Y-95617967D01*
X117787992Y-95513997D01*
X117787989Y-95513995D01*
X117782320Y-95508944D01*
X117774324Y-95504710D01*
X117637480Y-95432255D01*
X117637481Y-95432255D01*
X117630768Y-95428701D01*
X117613195Y-95424287D01*
X117471821Y-95388776D01*
X117471817Y-95388776D01*
X117464450Y-95386925D01*
X117456851Y-95386885D01*
X117456849Y-95386885D01*
X117385393Y-95386511D01*
X117292968Y-95386027D01*
X117285588Y-95387799D01*
X117285586Y-95387799D01*
X117133601Y-95424287D01*
X117133597Y-95424288D01*
X117126222Y-95426059D01*
X116973838Y-95504710D01*
X116844614Y-95617440D01*
X116746009Y-95757740D01*
X116683717Y-95917510D01*
X116661334Y-96087527D01*
X108859048Y-96087527D01*
X108858603Y-95780342D01*
X108859100Y-95770628D01*
X108860969Y-95763180D01*
X108860555Y-95752436D01*
X108862778Y-95723529D01*
X108885653Y-95605910D01*
X108892955Y-95581678D01*
X108946855Y-95451766D01*
X108958852Y-95429483D01*
X109037626Y-95312963D01*
X109053830Y-95293530D01*
X109154305Y-95195099D01*
X109174065Y-95179298D01*
X109292185Y-95102931D01*
X109314711Y-95091395D01*
X109445695Y-95040179D01*
X109470071Y-95033376D01*
X109546774Y-95020088D01*
X109581371Y-95014094D01*
X109597436Y-95013388D01*
X109597391Y-95012622D01*
X109606356Y-95012095D01*
X109615300Y-95012844D01*
X109624095Y-95011052D01*
X109624099Y-95011052D01*
X109624176Y-95011036D01*
X109649328Y-95008500D01*
X110281913Y-95008500D01*
X129996747Y-95009583D01*
X130017632Y-95011328D01*
X130037448Y-95014662D01*
X130043631Y-95014737D01*
X130045135Y-95014756D01*
X130045139Y-95014756D01*
X130050000Y-95014815D01*
X130054811Y-95014126D01*
X130054827Y-95014125D01*
X130057053Y-95013806D01*
X130065667Y-95012874D01*
X130288709Y-94996478D01*
X130288710Y-94996478D01*
X130293320Y-94996139D01*
X130338550Y-94986019D01*
X130526899Y-94943876D01*
X130526898Y-94943876D01*
X130531409Y-94942867D01*
X130645279Y-94899110D01*
X130754833Y-94857012D01*
X130754839Y-94857009D01*
X130759149Y-94855353D01*
X130971645Y-94735478D01*
X131164328Y-94585820D01*
X131173484Y-94576257D01*
X131329857Y-94412939D01*
X131329862Y-94412933D01*
X131333057Y-94409596D01*
X131474204Y-94210594D01*
X131584735Y-93993091D01*
X131634426Y-93844847D01*
X131660806Y-93766145D01*
X131660806Y-93766143D01*
X131662274Y-93761765D01*
X131705155Y-93521586D01*
X131711407Y-93312676D01*
X131712307Y-93300957D01*
X131713636Y-93290232D01*
X131713244Y-93277685D01*
X131710666Y-93263961D01*
X131708500Y-93240699D01*
X131708500Y-75127396D01*
X131728502Y-75059275D01*
X131782158Y-75012782D01*
X131852432Y-75002678D01*
X131917012Y-75032172D01*
X131934058Y-75050168D01*
X131935460Y-75051975D01*
X131937514Y-75054964D01*
X132154219Y-75303377D01*
X132398039Y-75525236D01*
X132400987Y-75527354D01*
X132400989Y-75527356D01*
X132662793Y-75715481D01*
X132662799Y-75715485D01*
X132665744Y-75717601D01*
X132953784Y-75877922D01*
X133258342Y-76004074D01*
X133261836Y-76005069D01*
X133261838Y-76005070D01*
X133571880Y-76093388D01*
X133571885Y-76093389D01*
X133575381Y-76094385D01*
X133761993Y-76124944D01*
X133897118Y-76147072D01*
X133897125Y-76147073D01*
X133900699Y-76147658D01*
X134065341Y-76155422D01*
X134226357Y-76163016D01*
X134226358Y-76163016D01*
X134229984Y-76163187D01*
X134241877Y-76162376D01*
X134555241Y-76141014D01*
X134555249Y-76141013D01*
X134558872Y-76140766D01*
X134562448Y-76140103D01*
X134562450Y-76140103D01*
X134879438Y-76081353D01*
X134879442Y-76081352D01*
X134883003Y-76080692D01*
X135198082Y-75983761D01*
X135338406Y-75922163D01*
X135496604Y-75852719D01*
X135496612Y-75852715D01*
X135499931Y-75851258D01*
X135784550Y-75684940D01*
X135916933Y-75585544D01*
X136045260Y-75489194D01*
X136045264Y-75489191D01*
X136048167Y-75487011D01*
X136287288Y-75260094D01*
X136498743Y-75007197D01*
X136500731Y-75004171D01*
X136677742Y-74734698D01*
X136677747Y-74734689D01*
X136679729Y-74731672D01*
X136827847Y-74437171D01*
X136941135Y-74127597D01*
X136941980Y-74124075D01*
X136941983Y-74124067D01*
X137017244Y-73810584D01*
X137017245Y-73810580D01*
X137018091Y-73807055D01*
X137057694Y-73479791D01*
X137063344Y-73300000D01*
X137063183Y-73297204D01*
X137044577Y-72974515D01*
X137044576Y-72974510D01*
X137044368Y-72970895D01*
X136987691Y-72646153D01*
X136894065Y-72330077D01*
X136764731Y-72026857D01*
X136721009Y-71950203D01*
X136603193Y-71743651D01*
X136601402Y-71740511D01*
X136499902Y-71602335D01*
X136408384Y-71477749D01*
X136408382Y-71477747D01*
X136406244Y-71474836D01*
X136181844Y-71233352D01*
X136179084Y-71230995D01*
X136179078Y-71230989D01*
X135944113Y-71030311D01*
X135905303Y-70970861D01*
X135904796Y-70899866D01*
X135942753Y-70839867D01*
X136007121Y-70809914D01*
X136025943Y-70808500D01*
X176379127Y-70808500D01*
X176447248Y-70828502D01*
G37*
%TD.AperFunction*%
%TD*%
M02*
