%TF.GenerationSoftware,KiCad,Pcbnew,6.0.11-2627ca5db0~126~ubuntu22.04.1*%
%TF.CreationDate,2024-01-17T01:21:31-06:00*%
%TF.ProjectId,mea_breakout,6d65615f-6272-4656-916b-6f75742e6b69,1*%
%TF.SameCoordinates,Original*%
%TF.FileFunction,Legend,Bot*%
%TF.FilePolarity,Positive*%
%FSLAX46Y46*%
G04 Gerber Fmt 4.6, Leading zero omitted, Abs format (unit mm)*
G04 Created by KiCad (PCBNEW 6.0.11-2627ca5db0~126~ubuntu22.04.1) date 2024-01-17 01:21:31*
%MOMM*%
%LPD*%
G01*
G04 APERTURE LIST*
%ADD10C,0.150000*%
G04 APERTURE END LIST*
D10*
X81520952Y-68994761D02*
X81378095Y-69042380D01*
X81140000Y-69042380D01*
X81044761Y-68994761D01*
X80997142Y-68947142D01*
X80949523Y-68851904D01*
X80949523Y-68756666D01*
X80997142Y-68661428D01*
X81044761Y-68613809D01*
X81140000Y-68566190D01*
X81330476Y-68518571D01*
X81425714Y-68470952D01*
X81473333Y-68423333D01*
X81520952Y-68328095D01*
X81520952Y-68232857D01*
X81473333Y-68137619D01*
X81425714Y-68090000D01*
X81330476Y-68042380D01*
X81092380Y-68042380D01*
X80949523Y-68090000D01*
X80520952Y-69042380D02*
X80520952Y-68042380D01*
X80044761Y-68518571D02*
X79711428Y-68518571D01*
X79568571Y-69042380D02*
X80044761Y-69042380D01*
X80044761Y-68042380D01*
X79568571Y-68042380D01*
X79235238Y-68042380D02*
X78568571Y-68042380D01*
X79235238Y-69042380D01*
X78568571Y-69042380D01*
X78187619Y-68518571D02*
X77854285Y-68518571D01*
X77711428Y-69042380D02*
X78187619Y-69042380D01*
X78187619Y-68042380D01*
X77711428Y-68042380D01*
X76663809Y-68042380D02*
X76092380Y-68042380D01*
X76378095Y-69042380D02*
X76378095Y-68042380D01*
X75759047Y-69042380D02*
X75759047Y-68042380D01*
X75759047Y-68518571D02*
X75187619Y-68518571D01*
X75187619Y-69042380D02*
X75187619Y-68042380D01*
X74711428Y-68518571D02*
X74378095Y-68518571D01*
X74235238Y-69042380D02*
X74711428Y-69042380D01*
X74711428Y-68042380D01*
X74235238Y-68042380D01*
X73044761Y-69042380D02*
X73044761Y-68042380D01*
X72711428Y-68756666D01*
X72378095Y-68042380D01*
X72378095Y-69042380D01*
X71901904Y-68518571D02*
X71568571Y-68518571D01*
X71425714Y-69042380D02*
X71901904Y-69042380D01*
X71901904Y-68042380D01*
X71425714Y-68042380D01*
X71044761Y-68756666D02*
X70568571Y-68756666D01*
X71140000Y-69042380D02*
X70806666Y-68042380D01*
X70473333Y-69042380D01*
X70140000Y-69042380D02*
X70140000Y-68042380D01*
X69568571Y-69042380D01*
X69568571Y-68042380D01*
X69140000Y-68994761D02*
X68997142Y-69042380D01*
X68759047Y-69042380D01*
X68663809Y-68994761D01*
X68616190Y-68947142D01*
X68568571Y-68851904D01*
X68568571Y-68756666D01*
X68616190Y-68661428D01*
X68663809Y-68613809D01*
X68759047Y-68566190D01*
X68949523Y-68518571D01*
X69044761Y-68470952D01*
X69092380Y-68423333D01*
X69140000Y-68328095D01*
X69140000Y-68232857D01*
X69092380Y-68137619D01*
X69044761Y-68090000D01*
X68949523Y-68042380D01*
X68711428Y-68042380D01*
X68568571Y-68090000D01*
X67187619Y-68042380D02*
X66997142Y-68042380D01*
X66901904Y-68090000D01*
X66806666Y-68185238D01*
X66759047Y-68375714D01*
X66759047Y-68709047D01*
X66806666Y-68899523D01*
X66901904Y-68994761D01*
X66997142Y-69042380D01*
X67187619Y-69042380D01*
X67282857Y-68994761D01*
X67378095Y-68899523D01*
X67425714Y-68709047D01*
X67425714Y-68375714D01*
X67378095Y-68185238D01*
X67282857Y-68090000D01*
X67187619Y-68042380D01*
X65997142Y-68518571D02*
X66330476Y-68518571D01*
X66330476Y-69042380D02*
X66330476Y-68042380D01*
X65854285Y-68042380D01*
X64140000Y-69042380D02*
X64473333Y-68566190D01*
X64711428Y-69042380D02*
X64711428Y-68042380D01*
X64330476Y-68042380D01*
X64235238Y-68090000D01*
X64187619Y-68137619D01*
X64140000Y-68232857D01*
X64140000Y-68375714D01*
X64187619Y-68470952D01*
X64235238Y-68518571D01*
X64330476Y-68566190D01*
X64711428Y-68566190D01*
X63711428Y-68518571D02*
X63378095Y-68518571D01*
X63235238Y-69042380D02*
X63711428Y-69042380D01*
X63711428Y-68042380D01*
X63235238Y-68042380D01*
X62806666Y-69042380D02*
X62806666Y-68042380D01*
X62425714Y-68042380D01*
X62330476Y-68090000D01*
X62282857Y-68137619D01*
X62235238Y-68232857D01*
X62235238Y-68375714D01*
X62282857Y-68470952D01*
X62330476Y-68518571D01*
X62425714Y-68566190D01*
X62806666Y-68566190D01*
X61330476Y-69042380D02*
X61806666Y-69042380D01*
X61806666Y-68042380D01*
X60997142Y-69042380D02*
X60997142Y-68042380D01*
X59949523Y-68947142D02*
X59997142Y-68994761D01*
X60140000Y-69042380D01*
X60235238Y-69042380D01*
X60378095Y-68994761D01*
X60473333Y-68899523D01*
X60520952Y-68804285D01*
X60568571Y-68613809D01*
X60568571Y-68470952D01*
X60520952Y-68280476D01*
X60473333Y-68185238D01*
X60378095Y-68090000D01*
X60235238Y-68042380D01*
X60140000Y-68042380D01*
X59997142Y-68090000D01*
X59949523Y-68137619D01*
X59568571Y-68756666D02*
X59092380Y-68756666D01*
X59663809Y-69042380D02*
X59330476Y-68042380D01*
X58997142Y-69042380D01*
X58806666Y-68042380D02*
X58235238Y-68042380D01*
X58520952Y-69042380D02*
X58520952Y-68042380D01*
X57901904Y-69042380D02*
X57901904Y-68042380D01*
X57235238Y-68042380D02*
X57044761Y-68042380D01*
X56949523Y-68090000D01*
X56854285Y-68185238D01*
X56806666Y-68375714D01*
X56806666Y-68709047D01*
X56854285Y-68899523D01*
X56949523Y-68994761D01*
X57044761Y-69042380D01*
X57235238Y-69042380D01*
X57330476Y-68994761D01*
X57425714Y-68899523D01*
X57473333Y-68709047D01*
X57473333Y-68375714D01*
X57425714Y-68185238D01*
X57330476Y-68090000D01*
X57235238Y-68042380D01*
X56378095Y-69042380D02*
X56378095Y-68042380D01*
X55806666Y-69042380D01*
X55806666Y-68042380D01*
X75119484Y-11724076D02*
X75119484Y-10724076D01*
X74786151Y-11438362D01*
X74452818Y-10724076D01*
X74452818Y-11724076D01*
X73976627Y-11200267D02*
X73643294Y-11200267D01*
X73500437Y-11724076D02*
X73976627Y-11724076D01*
X73976627Y-10724076D01*
X73500437Y-10724076D01*
X73119484Y-11438362D02*
X72643294Y-11438362D01*
X73214722Y-11724076D02*
X72881389Y-10724076D01*
X72548056Y-11724076D01*
X71119484Y-11200267D02*
X70976627Y-11247886D01*
X70929008Y-11295505D01*
X70881389Y-11390743D01*
X70881389Y-11533600D01*
X70929008Y-11628838D01*
X70976627Y-11676457D01*
X71071865Y-11724076D01*
X71452818Y-11724076D01*
X71452818Y-10724076D01*
X71119484Y-10724076D01*
X71024246Y-10771696D01*
X70976627Y-10819315D01*
X70929008Y-10914553D01*
X70929008Y-11009791D01*
X70976627Y-11105029D01*
X71024246Y-11152648D01*
X71119484Y-11200267D01*
X71452818Y-11200267D01*
X69881389Y-11724076D02*
X70214722Y-11247886D01*
X70452818Y-11724076D02*
X70452818Y-10724076D01*
X70071865Y-10724076D01*
X69976627Y-10771696D01*
X69929008Y-10819315D01*
X69881389Y-10914553D01*
X69881389Y-11057410D01*
X69929008Y-11152648D01*
X69976627Y-11200267D01*
X70071865Y-11247886D01*
X70452818Y-11247886D01*
X69452818Y-11200267D02*
X69119484Y-11200267D01*
X68976627Y-11724076D02*
X69452818Y-11724076D01*
X69452818Y-10724076D01*
X68976627Y-10724076D01*
X68595675Y-11438362D02*
X68119484Y-11438362D01*
X68690913Y-11724076D02*
X68357580Y-10724076D01*
X68024246Y-11724076D01*
X67690913Y-11724076D02*
X67690913Y-10724076D01*
X67119484Y-11724076D02*
X67548056Y-11152648D01*
X67119484Y-10724076D02*
X67690913Y-11295505D01*
X66500437Y-10724076D02*
X66309960Y-10724076D01*
X66214722Y-10771696D01*
X66119484Y-10866934D01*
X66071865Y-11057410D01*
X66071865Y-11390743D01*
X66119484Y-11581219D01*
X66214722Y-11676457D01*
X66309960Y-11724076D01*
X66500437Y-11724076D01*
X66595675Y-11676457D01*
X66690913Y-11581219D01*
X66738532Y-11390743D01*
X66738532Y-11057410D01*
X66690913Y-10866934D01*
X66595675Y-10771696D01*
X66500437Y-10724076D01*
X65643294Y-10724076D02*
X65643294Y-11533600D01*
X65595675Y-11628838D01*
X65548056Y-11676457D01*
X65452818Y-11724076D01*
X65262341Y-11724076D01*
X65167103Y-11676457D01*
X65119484Y-11628838D01*
X65071865Y-11533600D01*
X65071865Y-10724076D01*
X64738532Y-10724076D02*
X64167103Y-10724076D01*
X64452818Y-11724076D02*
X64452818Y-10724076D01*
X62500437Y-11628838D02*
X62548056Y-11676457D01*
X62690913Y-11724076D01*
X62786151Y-11724076D01*
X62929008Y-11676457D01*
X63024246Y-11581219D01*
X63071865Y-11485981D01*
X63119484Y-11295505D01*
X63119484Y-11152648D01*
X63071865Y-10962172D01*
X63024246Y-10866934D01*
X62929008Y-10771696D01*
X62786151Y-10724076D01*
X62690913Y-10724076D01*
X62548056Y-10771696D01*
X62500437Y-10819315D01*
X61881389Y-10724076D02*
X61690913Y-10724076D01*
X61595675Y-10771696D01*
X61500437Y-10866934D01*
X61452818Y-11057410D01*
X61452818Y-11390743D01*
X61500437Y-11581219D01*
X61595675Y-11676457D01*
X61690913Y-11724076D01*
X61881389Y-11724076D01*
X61976627Y-11676457D01*
X62071865Y-11581219D01*
X62119484Y-11390743D01*
X62119484Y-11057410D01*
X62071865Y-10866934D01*
X61976627Y-10771696D01*
X61881389Y-10724076D01*
X61024246Y-11724076D02*
X61024246Y-10724076D01*
X60452818Y-11724076D01*
X60452818Y-10724076D01*
X59976627Y-11724076D02*
X59976627Y-10724076D01*
X59405199Y-11724076D01*
X59405199Y-10724076D01*
X58929008Y-11200267D02*
X58595675Y-11200267D01*
X58452818Y-11724076D02*
X58929008Y-11724076D01*
X58929008Y-10724076D01*
X58452818Y-10724076D01*
X57452818Y-11628838D02*
X57500437Y-11676457D01*
X57643294Y-11724076D01*
X57738532Y-11724076D01*
X57881389Y-11676457D01*
X57976627Y-11581219D01*
X58024246Y-11485981D01*
X58071865Y-11295505D01*
X58071865Y-11152648D01*
X58024246Y-10962172D01*
X57976627Y-10866934D01*
X57881389Y-10771696D01*
X57738532Y-10724076D01*
X57643294Y-10724076D01*
X57500437Y-10771696D01*
X57452818Y-10819315D01*
X57167103Y-10724076D02*
X56595675Y-10724076D01*
X56881389Y-11724076D02*
X56881389Y-10724076D01*
X56071865Y-10724076D02*
X55881389Y-10724076D01*
X55786151Y-10771696D01*
X55690913Y-10866934D01*
X55643294Y-11057410D01*
X55643294Y-11390743D01*
X55690913Y-11581219D01*
X55786151Y-11676457D01*
X55881389Y-11724076D01*
X56071865Y-11724076D01*
X56167103Y-11676457D01*
X56262341Y-11581219D01*
X56309960Y-11390743D01*
X56309960Y-11057410D01*
X56262341Y-10866934D01*
X56167103Y-10771696D01*
X56071865Y-10724076D01*
X54643294Y-11724076D02*
X54976627Y-11247886D01*
X55214722Y-11724076D02*
X55214722Y-10724076D01*
X54833770Y-10724076D01*
X54738532Y-10771696D01*
X54690913Y-10819315D01*
X54643294Y-10914553D01*
X54643294Y-11057410D01*
X54690913Y-11152648D01*
X54738532Y-11200267D01*
X54833770Y-11247886D01*
X55214722Y-11247886D01*
X75167103Y-13048362D02*
X74690913Y-13048362D01*
X75262341Y-13334076D02*
X74929008Y-12334076D01*
X74595675Y-13334076D01*
X74071865Y-12857886D02*
X74071865Y-13334076D01*
X74405199Y-12334076D02*
X74071865Y-12857886D01*
X73738532Y-12334076D01*
X73405199Y-13334076D02*
X73405199Y-12334076D01*
X73167103Y-12334076D01*
X73024246Y-12381696D01*
X72929008Y-12476934D01*
X72881389Y-12572172D01*
X72833770Y-12762648D01*
X72833770Y-12905505D01*
X72881389Y-13095981D01*
X72929008Y-13191219D01*
X73024246Y-13286457D01*
X73167103Y-13334076D01*
X73405199Y-13334076D01*
X72405199Y-13334076D02*
X72405199Y-12334076D01*
X71929008Y-13334076D02*
X71929008Y-12334076D01*
X71357580Y-13334076D01*
X71357580Y-12334076D01*
X69595675Y-12381696D02*
X69690913Y-12334076D01*
X69833770Y-12334076D01*
X69976627Y-12381696D01*
X70071865Y-12476934D01*
X70119484Y-12572172D01*
X70167103Y-12762648D01*
X70167103Y-12905505D01*
X70119484Y-13095981D01*
X70071865Y-13191219D01*
X69976627Y-13286457D01*
X69833770Y-13334076D01*
X69738532Y-13334076D01*
X69595675Y-13286457D01*
X69548056Y-13238838D01*
X69548056Y-12905505D01*
X69738532Y-12905505D01*
X68929008Y-12334076D02*
X68738532Y-12334076D01*
X68643294Y-12381696D01*
X68548056Y-12476934D01*
X68500437Y-12667410D01*
X68500437Y-13000743D01*
X68548056Y-13191219D01*
X68643294Y-13286457D01*
X68738532Y-13334076D01*
X68929008Y-13334076D01*
X69024246Y-13286457D01*
X69119484Y-13191219D01*
X69167103Y-13000743D01*
X69167103Y-12667410D01*
X69119484Y-12476934D01*
X69024246Y-12381696D01*
X68929008Y-12334076D01*
X68071865Y-13334076D02*
X68071865Y-12334076D01*
X67500437Y-13334076D02*
X67929008Y-12762648D01*
X67500437Y-12334076D02*
X68071865Y-12905505D01*
X66500437Y-13238838D02*
X66548056Y-13286457D01*
X66690913Y-13334076D01*
X66786151Y-13334076D01*
X66929008Y-13286457D01*
X67024246Y-13191219D01*
X67071865Y-13095981D01*
X67119484Y-12905505D01*
X67119484Y-12762648D01*
X67071865Y-12572172D01*
X67024246Y-12476934D01*
X66929008Y-12381696D01*
X66786151Y-12334076D01*
X66690913Y-12334076D01*
X66548056Y-12381696D01*
X66500437Y-12429315D01*
X66071865Y-12810267D02*
X65738532Y-12810267D01*
X65595675Y-13334076D02*
X66071865Y-13334076D01*
X66071865Y-12334076D01*
X65595675Y-12334076D01*
X74548056Y-14944076D02*
X74881389Y-14467886D01*
X75119484Y-14944076D02*
X75119484Y-13944076D01*
X74738532Y-13944076D01*
X74643294Y-13991696D01*
X74595675Y-14039315D01*
X74548056Y-14134553D01*
X74548056Y-14277410D01*
X74595675Y-14372648D01*
X74643294Y-14420267D01*
X74738532Y-14467886D01*
X75119484Y-14467886D01*
X74119484Y-14420267D02*
X73786151Y-14420267D01*
X73643294Y-14944076D02*
X74119484Y-14944076D01*
X74119484Y-13944076D01*
X73643294Y-13944076D01*
X73357580Y-13944076D02*
X73024246Y-14944076D01*
X72690913Y-13944076D01*
X72357580Y-14848838D02*
X72309960Y-14896457D01*
X72357580Y-14944076D01*
X72405199Y-14896457D01*
X72357580Y-14848838D01*
X72357580Y-14944076D01*
X70595675Y-14944076D02*
X71167103Y-14944076D01*
X70881389Y-14944076D02*
X70881389Y-13944076D01*
X70976627Y-14086934D01*
X71071865Y-14182172D01*
X71167103Y-14229791D01*
%TO.C,G\u002A\u002A\u002A*%
G36*
X79263756Y-10324110D02*
G01*
X79285834Y-10337111D01*
X79315691Y-10358420D01*
X79338057Y-10375047D01*
X79407896Y-10420165D01*
X79478364Y-10453624D01*
X79554967Y-10477254D01*
X79643208Y-10492885D01*
X79748592Y-10502347D01*
X79813781Y-10507274D01*
X79892989Y-10515925D01*
X79964736Y-10526622D01*
X80025124Y-10538672D01*
X80070256Y-10551384D01*
X80096237Y-10564066D01*
X80102864Y-10571752D01*
X80118024Y-10598191D01*
X80132943Y-10632995D01*
X80155101Y-10681052D01*
X80186941Y-10731428D01*
X80222135Y-10773696D01*
X80255598Y-10800895D01*
X80259683Y-10803148D01*
X80278650Y-10810280D01*
X80295239Y-10805145D01*
X80318575Y-10785515D01*
X80360144Y-10751828D01*
X80430743Y-10712752D01*
X80502516Y-10693314D01*
X80560164Y-10686240D01*
X80531444Y-10706823D01*
X80524304Y-10712014D01*
X80467878Y-10758642D01*
X80422097Y-10806450D01*
X80392148Y-10850105D01*
X80386713Y-10860953D01*
X80374711Y-10886719D01*
X80369924Y-10900048D01*
X80371239Y-10901041D01*
X80386429Y-10897955D01*
X80413160Y-10887835D01*
X80429286Y-10881764D01*
X80485805Y-10867884D01*
X80553343Y-10858864D01*
X80623279Y-10855611D01*
X80686991Y-10859032D01*
X80722404Y-10863721D01*
X80739485Y-10867576D01*
X80738396Y-10871590D01*
X80721581Y-10877035D01*
X80653827Y-10900957D01*
X80587561Y-10936130D01*
X80533808Y-10977780D01*
X80496059Y-11023150D01*
X80477807Y-11069483D01*
X80476292Y-11078320D01*
X80470519Y-11103522D01*
X80465684Y-11113652D01*
X80463847Y-11113058D01*
X80448304Y-11103547D01*
X80423921Y-11086118D01*
X80410038Y-11076075D01*
X80318031Y-11024223D01*
X80215199Y-10987612D01*
X80107206Y-10967379D01*
X79999719Y-10964662D01*
X79898402Y-10980598D01*
X79863635Y-10988860D01*
X79835686Y-10991027D01*
X79806608Y-10985920D01*
X79766238Y-10972950D01*
X79695078Y-10944237D01*
X79585954Y-10881113D01*
X79489755Y-10799131D01*
X79406188Y-10698022D01*
X79334962Y-10577520D01*
X79322017Y-10549110D01*
X79304632Y-10504979D01*
X79287602Y-10456470D01*
X79272540Y-10408754D01*
X79261057Y-10366998D01*
X79254767Y-10336373D01*
X79255280Y-10322047D01*
X79263756Y-10324110D01*
G37*
G36*
X80373951Y-14618269D02*
G01*
X80403692Y-14623997D01*
X80506812Y-14657269D01*
X80607507Y-14709288D01*
X80700614Y-14777021D01*
X80780967Y-14857433D01*
X80783256Y-14860151D01*
X80814782Y-14898321D01*
X80831786Y-14921566D01*
X80835000Y-14932087D01*
X80825153Y-14932089D01*
X80802977Y-14923773D01*
X80788327Y-14918275D01*
X80725154Y-14906860D01*
X80652402Y-14912185D01*
X80568280Y-14934521D01*
X80470997Y-14974142D01*
X80437169Y-14989583D01*
X80356916Y-15023800D01*
X80280736Y-15051914D01*
X80199666Y-15077062D01*
X80104740Y-15102385D01*
X80067396Y-15111679D01*
X80007232Y-15125676D01*
X79965135Y-15133572D01*
X79938408Y-15135681D01*
X79924350Y-15132315D01*
X79920264Y-15123787D01*
X79920109Y-15122380D01*
X79912858Y-15103791D01*
X79896935Y-15072495D01*
X79875327Y-15034432D01*
X79857656Y-15006741D01*
X79807509Y-14941141D01*
X79748916Y-14877745D01*
X79687933Y-14822788D01*
X79630617Y-14782506D01*
X79572096Y-14748719D01*
X79714473Y-14742294D01*
X79800897Y-14735989D01*
X79902918Y-14719904D01*
X79999211Y-14693041D01*
X80099028Y-14653257D01*
X80183621Y-14623513D01*
X80275459Y-14611037D01*
X80373951Y-14618269D01*
G37*
G36*
X77974351Y-11125446D02*
G01*
X77991160Y-11134185D01*
X78019985Y-11152807D01*
X78055512Y-11177918D01*
X78084563Y-11198293D01*
X78189824Y-11260669D01*
X78314227Y-11319781D01*
X78454848Y-11374457D01*
X78608765Y-11423524D01*
X78773056Y-11465810D01*
X78934472Y-11502694D01*
X78888711Y-11521940D01*
X78873528Y-11528776D01*
X78825148Y-11553728D01*
X78765100Y-11587755D01*
X78698400Y-11627740D01*
X78630065Y-11670566D01*
X78565111Y-11713116D01*
X78508555Y-11752273D01*
X78465413Y-11784922D01*
X78445420Y-11800991D01*
X78367938Y-11858021D01*
X78290917Y-11905032D01*
X78210442Y-11943474D01*
X78122600Y-11974798D01*
X78023477Y-12000454D01*
X77909160Y-12021895D01*
X77775734Y-12040569D01*
X77758441Y-12042077D01*
X77709292Y-12043485D01*
X77645049Y-12042946D01*
X77570946Y-12040686D01*
X77492215Y-12036934D01*
X77414088Y-12031918D01*
X77341799Y-12025865D01*
X77280581Y-12019004D01*
X77242946Y-12013841D01*
X77168259Y-12002629D01*
X77105302Y-11991833D01*
X77056871Y-11981995D01*
X77025763Y-11973660D01*
X77014772Y-11967369D01*
X77024603Y-11960380D01*
X77050498Y-11948138D01*
X77086833Y-11933315D01*
X77171504Y-11899208D01*
X77303517Y-11837746D01*
X77413087Y-11774647D01*
X77500585Y-11709655D01*
X77566384Y-11642514D01*
X77610856Y-11572968D01*
X77618373Y-11558144D01*
X77645785Y-11510533D01*
X77679866Y-11457379D01*
X77714962Y-11407660D01*
X77740737Y-11374417D01*
X77778831Y-11327979D01*
X77820276Y-11279684D01*
X77862078Y-11232812D01*
X77901239Y-11190645D01*
X77934764Y-11156464D01*
X77959657Y-11133549D01*
X77972920Y-11125182D01*
X77974351Y-11125446D01*
G37*
G36*
X81882246Y-14460724D02*
G01*
X81902292Y-14475033D01*
X81934413Y-14500042D01*
X81975273Y-14532952D01*
X82021535Y-14570969D01*
X82069861Y-14611297D01*
X82116914Y-14651138D01*
X82159359Y-14687697D01*
X82193857Y-14718178D01*
X82217072Y-14739784D01*
X82225667Y-14749720D01*
X82225544Y-14750475D01*
X82216807Y-14764837D01*
X82196292Y-14792560D01*
X82166790Y-14829992D01*
X82131090Y-14873484D01*
X82125736Y-14879867D01*
X82089489Y-14921833D01*
X82058219Y-14956000D01*
X82035109Y-14978999D01*
X82023345Y-14987462D01*
X82010141Y-14982099D01*
X81990401Y-14965190D01*
X81987443Y-14961851D01*
X81980541Y-14951135D01*
X81980700Y-14939061D01*
X81989842Y-14921539D01*
X82009891Y-14894477D01*
X82042770Y-14853784D01*
X82115457Y-14764830D01*
X82064184Y-14720339D01*
X82012911Y-14675849D01*
X81985283Y-14707801D01*
X81968409Y-14727364D01*
X81939246Y-14761268D01*
X81908421Y-14797178D01*
X81896275Y-14811298D01*
X81874174Y-14835436D01*
X81859976Y-14845441D01*
X81848650Y-14843767D01*
X81835163Y-14832863D01*
X81818872Y-14815434D01*
X81811140Y-14801051D01*
X81813173Y-14796182D01*
X81826724Y-14775936D01*
X81850194Y-14744964D01*
X81880288Y-14707717D01*
X81949436Y-14624456D01*
X81917760Y-14598571D01*
X81914103Y-14595626D01*
X81891459Y-14579314D01*
X81877796Y-14572629D01*
X81872884Y-14575823D01*
X81855280Y-14593161D01*
X81828906Y-14622184D01*
X81797347Y-14659042D01*
X81725186Y-14745512D01*
X81697086Y-14717413D01*
X81668986Y-14689313D01*
X81737181Y-14607101D01*
X81749480Y-14592282D01*
X81783732Y-14551092D01*
X81814111Y-14514662D01*
X81835199Y-14489493D01*
X81841769Y-14482147D01*
X81863138Y-14463748D01*
X81878206Y-14458569D01*
X81882246Y-14460724D01*
G37*
G36*
X79035680Y-15470494D02*
G01*
X79078829Y-15476527D01*
X79130478Y-15485038D01*
X79169599Y-15491913D01*
X79228822Y-15502294D01*
X79281443Y-15511491D01*
X79319409Y-15518095D01*
X79344471Y-15522793D01*
X79373380Y-15529384D01*
X79386802Y-15534132D01*
X79387069Y-15534459D01*
X79388135Y-15549310D01*
X79384083Y-15575879D01*
X79379539Y-15592828D01*
X79369405Y-15606440D01*
X79351279Y-15605233D01*
X79343794Y-15603329D01*
X79311905Y-15597081D01*
X79273957Y-15591317D01*
X79221431Y-15584507D01*
X79207421Y-15663673D01*
X79206903Y-15666595D01*
X79190598Y-15757847D01*
X79176652Y-15834187D01*
X79165434Y-15893660D01*
X79157312Y-15934309D01*
X79152656Y-15954176D01*
X79152288Y-15955217D01*
X79139507Y-15964167D01*
X79110310Y-15961476D01*
X79107350Y-15960837D01*
X79082095Y-15954942D01*
X79070395Y-15951398D01*
X79070429Y-15947909D01*
X79073454Y-15926053D01*
X79079777Y-15887564D01*
X79088702Y-15836387D01*
X79099536Y-15776463D01*
X79111584Y-15711735D01*
X79124152Y-15646146D01*
X79128916Y-15620973D01*
X79134191Y-15590733D01*
X79136242Y-15575390D01*
X79126211Y-15569187D01*
X79099252Y-15560960D01*
X79061299Y-15552599D01*
X79050704Y-15550583D01*
X79014908Y-15542771D01*
X78995649Y-15534831D01*
X78987830Y-15523585D01*
X78986356Y-15505855D01*
X78988704Y-15482148D01*
X78995003Y-15467991D01*
X79005988Y-15467561D01*
X79035680Y-15470494D01*
G37*
G36*
X78174351Y-12583693D02*
G01*
X78171864Y-12594193D01*
X78163454Y-12646754D01*
X78156968Y-12714336D01*
X78152682Y-12790613D01*
X78150873Y-12869259D01*
X78151816Y-12943947D01*
X78155789Y-13008351D01*
X78181200Y-13181646D01*
X78226541Y-13355349D01*
X78291360Y-13517980D01*
X78376439Y-13671168D01*
X78482559Y-13816542D01*
X78610503Y-13955731D01*
X78648320Y-13992392D01*
X78708103Y-14047388D01*
X78761583Y-14091691D01*
X78814287Y-14129751D01*
X78871744Y-14166019D01*
X78984163Y-14228046D01*
X79143716Y-14298096D01*
X79312844Y-14351452D01*
X79323194Y-14354141D01*
X79362832Y-14363885D01*
X79398330Y-14371061D01*
X79434221Y-14376052D01*
X79475038Y-14379242D01*
X79525314Y-14381012D01*
X79589582Y-14381746D01*
X79672375Y-14381828D01*
X79713440Y-14381695D01*
X79800662Y-14380418D01*
X79872429Y-14377101D01*
X79934136Y-14370888D01*
X79991181Y-14360921D01*
X80048960Y-14346344D01*
X80112870Y-14326301D01*
X80188308Y-14299935D01*
X80250268Y-14276013D01*
X80411966Y-14197082D01*
X80563614Y-14098765D01*
X80703167Y-13982889D01*
X80828584Y-13851281D01*
X80937822Y-13705767D01*
X81028837Y-13548174D01*
X81046728Y-13511555D01*
X81066203Y-13469710D01*
X81079528Y-13438616D01*
X81084524Y-13423162D01*
X81085012Y-13419205D01*
X81096189Y-13402371D01*
X81097930Y-13404049D01*
X81095169Y-13421597D01*
X81086145Y-13453950D01*
X81071960Y-13496810D01*
X81051396Y-13552045D01*
X80972759Y-13721382D01*
X80875887Y-13877888D01*
X80762181Y-14020432D01*
X80633045Y-14147883D01*
X80489879Y-14259110D01*
X80334086Y-14352981D01*
X80167068Y-14428364D01*
X79990228Y-14484128D01*
X79804967Y-14519142D01*
X79802118Y-14519494D01*
X79748375Y-14523066D01*
X79678633Y-14523639D01*
X79599286Y-14521550D01*
X79516725Y-14517134D01*
X79437340Y-14510729D01*
X79367525Y-14502670D01*
X79313670Y-14493293D01*
X79276359Y-14484396D01*
X79093404Y-14427294D01*
X78922440Y-14350636D01*
X78763891Y-14254671D01*
X78618181Y-14139650D01*
X78485737Y-14005822D01*
X78454136Y-13968725D01*
X78346605Y-13821752D01*
X78258446Y-13664135D01*
X78188794Y-13494149D01*
X78136782Y-13310066D01*
X78128954Y-13265941D01*
X78121101Y-13191145D01*
X78116294Y-13103936D01*
X78114523Y-13010191D01*
X78115782Y-12915792D01*
X78120062Y-12826617D01*
X78127354Y-12748547D01*
X78137650Y-12687461D01*
X78140462Y-12675619D01*
X78151844Y-12631642D01*
X78162261Y-12596854D01*
X78169757Y-12577928D01*
X78171097Y-12575777D01*
X78176950Y-12569392D01*
X78174351Y-12583693D01*
G37*
G36*
X79128089Y-10500574D02*
G01*
X79160805Y-10506495D01*
X79178189Y-10511872D01*
X79185176Y-10525097D01*
X79192732Y-10555136D01*
X79198668Y-10594814D01*
X79200605Y-10611426D01*
X79228160Y-10748259D01*
X79276071Y-10878488D01*
X79344997Y-11003333D01*
X79435599Y-11124014D01*
X79548537Y-11241750D01*
X79642037Y-11329493D01*
X79513084Y-11342798D01*
X79389777Y-11359893D01*
X79267849Y-11387885D01*
X79147772Y-11428103D01*
X79107779Y-11442749D01*
X79074561Y-11453593D01*
X79055534Y-11458202D01*
X79048529Y-11458152D01*
X79015036Y-11452909D01*
X78964980Y-11440989D01*
X78902059Y-11423567D01*
X78829972Y-11401821D01*
X78752420Y-11376925D01*
X78673099Y-11350056D01*
X78595710Y-11322389D01*
X78523952Y-11295101D01*
X78461524Y-11269367D01*
X78452089Y-11265248D01*
X78315445Y-11200431D01*
X78200445Y-11135113D01*
X78105761Y-11068367D01*
X78030066Y-10999264D01*
X77972034Y-10926875D01*
X77968599Y-10921709D01*
X77947091Y-10888213D01*
X77932700Y-10863781D01*
X77928383Y-10853393D01*
X77936153Y-10854171D01*
X77960448Y-10860777D01*
X77994922Y-10871989D01*
X78043331Y-10885948D01*
X78100580Y-10892938D01*
X78161392Y-10888157D01*
X78233893Y-10871593D01*
X78241618Y-10869410D01*
X78310354Y-10845932D01*
X78379650Y-10814235D01*
X78453309Y-10772169D01*
X78535136Y-10717584D01*
X78628934Y-10648330D01*
X78670783Y-10618260D01*
X78775697Y-10558323D01*
X78883308Y-10517306D01*
X78990446Y-10496245D01*
X79093942Y-10496178D01*
X79128089Y-10500574D01*
G37*
G36*
X77938597Y-13483012D02*
G01*
X77941310Y-13502700D01*
X77951676Y-13558106D01*
X77966609Y-13623071D01*
X77984766Y-13693008D01*
X78004809Y-13763330D01*
X78025397Y-13829450D01*
X78045189Y-13886781D01*
X78062845Y-13930736D01*
X78077024Y-13956727D01*
X78077389Y-13957203D01*
X78094358Y-13990501D01*
X78110203Y-14042054D01*
X78123735Y-14107157D01*
X78133765Y-14181107D01*
X78134958Y-14193705D01*
X78138798Y-14301383D01*
X78133556Y-14422939D01*
X78119865Y-14552179D01*
X78098357Y-14682908D01*
X78069665Y-14808931D01*
X78064793Y-14827569D01*
X78054208Y-14869008D01*
X78046301Y-14901169D01*
X78044927Y-14906357D01*
X78040644Y-14913686D01*
X78035027Y-14908151D01*
X78027080Y-14887361D01*
X78015806Y-14848919D01*
X78000209Y-14790434D01*
X77992491Y-14761303D01*
X77962478Y-14657962D01*
X77931648Y-14570880D01*
X77897370Y-14494728D01*
X77857013Y-14424178D01*
X77807947Y-14353899D01*
X77747541Y-14278564D01*
X77731592Y-14259359D01*
X77689114Y-14206504D01*
X77647632Y-14152868D01*
X77614224Y-14107531D01*
X77558449Y-14028737D01*
X77630380Y-13957645D01*
X77637717Y-13950308D01*
X77676592Y-13909006D01*
X77712474Y-13867400D01*
X77738408Y-13833484D01*
X77740583Y-13830259D01*
X77774164Y-13774949D01*
X77810999Y-13706015D01*
X77847337Y-13631165D01*
X77879421Y-13558105D01*
X77903499Y-13494542D01*
X77930510Y-13413834D01*
X77938597Y-13483012D01*
G37*
G36*
X77884869Y-14895315D02*
G01*
X77919726Y-14905760D01*
X77982454Y-14938249D01*
X78035491Y-14983430D01*
X78074381Y-15037066D01*
X78094668Y-15094914D01*
X78097025Y-15119348D01*
X78088937Y-15186256D01*
X78061962Y-15251734D01*
X78018651Y-15310736D01*
X77961554Y-15358220D01*
X77928565Y-15375349D01*
X77865200Y-15390044D01*
X77800665Y-15383949D01*
X77737986Y-15358049D01*
X77680191Y-15313323D01*
X77630304Y-15250753D01*
X77602314Y-15206415D01*
X77627920Y-15171781D01*
X77640704Y-15155977D01*
X77659840Y-15142700D01*
X77674945Y-15151397D01*
X77688901Y-15182578D01*
X77703042Y-15212948D01*
X77735258Y-15255090D01*
X77774939Y-15288067D01*
X77815343Y-15305331D01*
X77855578Y-15306073D01*
X77902333Y-15290475D01*
X77943881Y-15260540D01*
X77977644Y-15220358D01*
X78001043Y-15174020D01*
X78011499Y-15125615D01*
X78006434Y-15079235D01*
X77983269Y-15038969D01*
X77954565Y-15013867D01*
X77901399Y-14986290D01*
X77845963Y-14976113D01*
X77833234Y-14975604D01*
X77809070Y-14967713D01*
X77805174Y-14949411D01*
X77821055Y-14919584D01*
X77837331Y-14899723D01*
X77855965Y-14891426D01*
X77884869Y-14895315D01*
G37*
G36*
X82599908Y-14127734D02*
G01*
X82590349Y-14147018D01*
X82557313Y-14206415D01*
X82526808Y-14247516D01*
X82496129Y-14273466D01*
X82462570Y-14287410D01*
X82432540Y-14293301D01*
X82405066Y-14291599D01*
X82371469Y-14279782D01*
X82334418Y-14257062D01*
X82305989Y-14223008D01*
X82295389Y-14185537D01*
X82295334Y-14182376D01*
X82291229Y-14168683D01*
X82276280Y-14162870D01*
X82244439Y-14162161D01*
X82226592Y-14161964D01*
X82191666Y-14154643D01*
X82191368Y-14154436D01*
X82364567Y-14154436D01*
X82368748Y-14171385D01*
X82386869Y-14191685D01*
X82394447Y-14195480D01*
X82433537Y-14204584D01*
X82467210Y-14191952D01*
X82497513Y-14156941D01*
X82499925Y-14153116D01*
X82525581Y-14110462D01*
X82538066Y-14081755D01*
X82537317Y-14062313D01*
X82523273Y-14047454D01*
X82495873Y-14032497D01*
X82478591Y-14024487D01*
X82448326Y-14012381D01*
X82429794Y-14007615D01*
X82425281Y-14009522D01*
X82411403Y-14026840D01*
X82395400Y-14056726D01*
X82380266Y-14092444D01*
X82368991Y-14127259D01*
X82364567Y-14154436D01*
X82191368Y-14154436D01*
X82162626Y-14134442D01*
X82155430Y-14127495D01*
X82140528Y-14107892D01*
X82135364Y-14084538D01*
X82137148Y-14047969D01*
X82137681Y-14043286D01*
X82141725Y-14024965D01*
X82218189Y-14024965D01*
X82219761Y-14057064D01*
X82236982Y-14076388D01*
X82251944Y-14083337D01*
X82269785Y-14088323D01*
X82273335Y-14087818D01*
X82292996Y-14073789D01*
X82314964Y-14044527D01*
X82334988Y-14005436D01*
X82352407Y-13963747D01*
X82305164Y-13944845D01*
X82291618Y-13939595D01*
X82266794Y-13931115D01*
X82256136Y-13929307D01*
X82232438Y-13978780D01*
X82218189Y-14024965D01*
X82141725Y-14024965D01*
X82146762Y-14002150D01*
X82163161Y-13951700D01*
X82183811Y-13901559D01*
X82225087Y-13812798D01*
X82436066Y-13911264D01*
X82449983Y-13917763D01*
X82512804Y-13947198D01*
X82547904Y-13963747D01*
X82567455Y-13972965D01*
X82610750Y-13993549D01*
X82639505Y-14007439D01*
X82650535Y-14013122D01*
X82648626Y-14020541D01*
X82638515Y-14044978D01*
X82621819Y-14081755D01*
X82621630Y-14082171D01*
X82599908Y-14127734D01*
G37*
G36*
X80028060Y-15527035D02*
G01*
X80029680Y-15533571D01*
X80032892Y-15559913D01*
X80036592Y-15601949D01*
X80040535Y-15655379D01*
X80044475Y-15715904D01*
X80048168Y-15779227D01*
X80051367Y-15841047D01*
X80053827Y-15897067D01*
X80055304Y-15942988D01*
X80055552Y-15974511D01*
X80054326Y-15987338D01*
X80051003Y-15988845D01*
X80029201Y-15993187D01*
X79992438Y-15997933D01*
X79946393Y-16002295D01*
X79928024Y-16003767D01*
X79861634Y-16008921D01*
X79814162Y-16011809D01*
X79782300Y-16012043D01*
X79762740Y-16009235D01*
X79752172Y-16002999D01*
X79747290Y-15992947D01*
X79744784Y-15978692D01*
X79744700Y-15978111D01*
X79743131Y-15952531D01*
X79746358Y-15939642D01*
X79750886Y-15938489D01*
X79774304Y-15935318D01*
X79812417Y-15931422D01*
X79859733Y-15927396D01*
X79966383Y-15919103D01*
X79966383Y-15780439D01*
X79724259Y-15796943D01*
X79724259Y-15714015D01*
X79796320Y-15713889D01*
X79829074Y-15713227D01*
X79875752Y-15710577D01*
X79911617Y-15706615D01*
X79922599Y-15704713D01*
X79944695Y-15697733D01*
X79953358Y-15683166D01*
X79954853Y-15653285D01*
X79954853Y-15607101D01*
X79833791Y-15615210D01*
X79712729Y-15623320D01*
X79712729Y-15543288D01*
X79836674Y-15536038D01*
X79875342Y-15533629D01*
X79926524Y-15529982D01*
X79967507Y-15526529D01*
X79991878Y-15523777D01*
X80014386Y-15522584D01*
X80028060Y-15527035D01*
G37*
G36*
X76969638Y-10828723D02*
G01*
X76987913Y-10838567D01*
X77020245Y-10858112D01*
X77063085Y-10885034D01*
X77112884Y-10917007D01*
X77166092Y-10951708D01*
X77219158Y-10986811D01*
X77268534Y-11019991D01*
X77310668Y-11048924D01*
X77342012Y-11071284D01*
X77359016Y-11084747D01*
X77360807Y-11086748D01*
X77363569Y-11096889D01*
X77358999Y-11113563D01*
X77345597Y-11139839D01*
X77321861Y-11178787D01*
X77286291Y-11233478D01*
X77275653Y-11249485D01*
X77244032Y-11295794D01*
X77217234Y-11333195D01*
X77197815Y-11358197D01*
X77188331Y-11367306D01*
X77174276Y-11361300D01*
X77152241Y-11345847D01*
X77125740Y-11324387D01*
X77193836Y-11224139D01*
X77213315Y-11194507D01*
X77236369Y-11155745D01*
X77249432Y-11128347D01*
X77250628Y-11115889D01*
X77242260Y-11109992D01*
X77193883Y-11077495D01*
X77160437Y-11058674D01*
X77139620Y-11052427D01*
X77129130Y-11057648D01*
X77125261Y-11064182D01*
X77105469Y-11094866D01*
X77080168Y-11131437D01*
X77053038Y-11168892D01*
X77027760Y-11202231D01*
X77008013Y-11226453D01*
X76997477Y-11236556D01*
X76982626Y-11233474D01*
X76959982Y-11219962D01*
X76934016Y-11199990D01*
X76998311Y-11103957D01*
X77016246Y-11076296D01*
X77038947Y-11038049D01*
X77053470Y-11009206D01*
X77057269Y-10994492D01*
X77056824Y-10993527D01*
X77042506Y-10978397D01*
X77017611Y-10961149D01*
X76983290Y-10941238D01*
X76918247Y-11038975D01*
X76898585Y-11067929D01*
X76873214Y-11103363D01*
X76854206Y-11127562D01*
X76844633Y-11136455D01*
X76831148Y-11130470D01*
X76809100Y-11115460D01*
X76782140Y-11094722D01*
X76870114Y-10962948D01*
X76879673Y-10948690D01*
X76911428Y-10902214D01*
X76938299Y-10864210D01*
X76957697Y-10838281D01*
X76967036Y-10828031D01*
X76969638Y-10828723D01*
G37*
G36*
X81338012Y-14061130D02*
G01*
X81421250Y-14067521D01*
X81494372Y-14081977D01*
X81565745Y-14106464D01*
X81643734Y-14142949D01*
X81689079Y-14166212D01*
X81626397Y-14174833D01*
X81594437Y-14179841D01*
X81518754Y-14199066D01*
X81458677Y-14228343D01*
X81409337Y-14270545D01*
X81365867Y-14328544D01*
X81312475Y-14401537D01*
X81237648Y-14483765D01*
X81146389Y-14569014D01*
X81041384Y-14654787D01*
X80925318Y-14738583D01*
X80829282Y-14803807D01*
X80765981Y-14745953D01*
X80704025Y-14694725D01*
X80605141Y-14634249D01*
X80498684Y-14594348D01*
X80381454Y-14573586D01*
X80306510Y-14566515D01*
X80367442Y-14535229D01*
X80387645Y-14524699D01*
X80486359Y-14469706D01*
X80595005Y-14404270D01*
X80707515Y-14332250D01*
X80817821Y-14257507D01*
X80919852Y-14183898D01*
X80928081Y-14177846D01*
X80978151Y-14144227D01*
X81030661Y-14113210D01*
X81075504Y-14090839D01*
X81089368Y-14085040D01*
X81120209Y-14073689D01*
X81149864Y-14066396D01*
X81184392Y-14062311D01*
X81229852Y-14060579D01*
X81292302Y-14060350D01*
X81338012Y-14061130D01*
G37*
G36*
X78526171Y-15285564D02*
G01*
X78553793Y-15295953D01*
X78597377Y-15315359D01*
X78638733Y-15334518D01*
X78664990Y-15348547D01*
X78677085Y-15359543D01*
X78678545Y-15370784D01*
X78672897Y-15385547D01*
X78668918Y-15393593D01*
X78653634Y-15409194D01*
X78629104Y-15408515D01*
X78628313Y-15408343D01*
X78615780Y-15406835D01*
X78605158Y-15410575D01*
X78594268Y-15422758D01*
X78580930Y-15446584D01*
X78562967Y-15485252D01*
X78538199Y-15541959D01*
X78523137Y-15577315D01*
X78501058Y-15633161D01*
X78488899Y-15672266D01*
X78486217Y-15697119D01*
X78492569Y-15710206D01*
X78507510Y-15714015D01*
X78511307Y-15714051D01*
X78522706Y-15716709D01*
X78522649Y-15727947D01*
X78511786Y-15753827D01*
X78501408Y-15774000D01*
X78494089Y-15783194D01*
X78492541Y-15782799D01*
X78475439Y-15776253D01*
X78444059Y-15763325D01*
X78403701Y-15746183D01*
X78361005Y-15726243D01*
X78328409Y-15705876D01*
X78317631Y-15689946D01*
X78321985Y-15671801D01*
X78341868Y-15653701D01*
X78371015Y-15651911D01*
X78377298Y-15652723D01*
X78387485Y-15648779D01*
X78398875Y-15635577D01*
X78413347Y-15610093D01*
X78432777Y-15569304D01*
X78459043Y-15510189D01*
X78462436Y-15502429D01*
X78486837Y-15446006D01*
X78502836Y-15406749D01*
X78511361Y-15381187D01*
X78513340Y-15365848D01*
X78509704Y-15357259D01*
X78501380Y-15351949D01*
X78487570Y-15343096D01*
X78480135Y-15322919D01*
X78493705Y-15294838D01*
X78499499Y-15288011D01*
X78509682Y-15283235D01*
X78526171Y-15285564D01*
G37*
G36*
X80762550Y-15334788D02*
G01*
X80772717Y-15349912D01*
X80784702Y-15376802D01*
X80800082Y-15417911D01*
X80820436Y-15475692D01*
X80847343Y-15552599D01*
X80861670Y-15593276D01*
X80881964Y-15650719D01*
X80899006Y-15698750D01*
X80911335Y-15733253D01*
X80917489Y-15750113D01*
X80918778Y-15754556D01*
X80913068Y-15769269D01*
X80887598Y-15781872D01*
X80883808Y-15783166D01*
X80858859Y-15790186D01*
X80846584Y-15790979D01*
X80845193Y-15788192D01*
X80837246Y-15768016D01*
X80823778Y-15731752D01*
X80806232Y-15683318D01*
X80786052Y-15626628D01*
X80775690Y-15597830D01*
X80756679Y-15547956D01*
X80740770Y-15510072D01*
X80729387Y-15487465D01*
X80723954Y-15483421D01*
X80721426Y-15494811D01*
X80715634Y-15528194D01*
X80707616Y-15579221D01*
X80697832Y-15644853D01*
X80686743Y-15722054D01*
X80674809Y-15807785D01*
X80673547Y-15816562D01*
X80666554Y-15846533D01*
X80654127Y-15862737D01*
X80631119Y-15872840D01*
X80629486Y-15873356D01*
X80601604Y-15880513D01*
X80584062Y-15882156D01*
X80584011Y-15882144D01*
X80575103Y-15870691D01*
X80562094Y-15843198D01*
X80547779Y-15805572D01*
X80536710Y-15773737D01*
X80517942Y-15720337D01*
X80496398Y-15659481D01*
X80474879Y-15599106D01*
X80474539Y-15598155D01*
X80456289Y-15546161D01*
X80441357Y-15501789D01*
X80431274Y-15469719D01*
X80427572Y-15454629D01*
X80427632Y-15453894D01*
X80438591Y-15441570D01*
X80462744Y-15429081D01*
X80484256Y-15422154D01*
X80498342Y-15424535D01*
X80506969Y-15440966D01*
X80513601Y-15459808D01*
X80526185Y-15495990D01*
X80542655Y-15543576D01*
X80561152Y-15597211D01*
X80606283Y-15728295D01*
X80614547Y-15666389D01*
X80617323Y-15646262D01*
X80624238Y-15598381D01*
X80632784Y-15541014D01*
X80641717Y-15482570D01*
X80660624Y-15360657D01*
X80711706Y-15341725D01*
X80727179Y-15335477D01*
X80741359Y-15330023D01*
X80752624Y-15328976D01*
X80762550Y-15334788D01*
G37*
G36*
X82410576Y-13097222D02*
G01*
X82425309Y-13107743D01*
X82453035Y-13130074D01*
X82490341Y-13161414D01*
X82533810Y-13198958D01*
X82650674Y-13301150D01*
X82745229Y-13315859D01*
X82839783Y-13330568D01*
X82833263Y-13370747D01*
X82832456Y-13375592D01*
X82827236Y-13401857D01*
X82823257Y-13414412D01*
X82811501Y-13414001D01*
X82783316Y-13409497D01*
X82744939Y-13401858D01*
X82728946Y-13398470D01*
X82687018Y-13390712D01*
X82652501Y-13387817D01*
X82619673Y-13390625D01*
X82582812Y-13399980D01*
X82536195Y-13416721D01*
X82474100Y-13441692D01*
X82464280Y-13445705D01*
X82413843Y-13466099D01*
X82372648Y-13482400D01*
X82344719Y-13493036D01*
X82334076Y-13496433D01*
X82333893Y-13495157D01*
X82335501Y-13478825D01*
X82339841Y-13450240D01*
X82339936Y-13449676D01*
X82344502Y-13428362D01*
X82352599Y-13413116D01*
X82368727Y-13400349D01*
X82397381Y-13386475D01*
X82443058Y-13367906D01*
X82463083Y-13359880D01*
X82503049Y-13343358D01*
X82531941Y-13330705D01*
X82544551Y-13324167D01*
X82545017Y-13323275D01*
X82538304Y-13311644D01*
X82519011Y-13293881D01*
X82503313Y-13281018D01*
X82471068Y-13253179D01*
X82437288Y-13222775D01*
X82414136Y-13200626D01*
X82397139Y-13179491D01*
X82391694Y-13160480D01*
X82394268Y-13136507D01*
X82395269Y-13131494D01*
X82402405Y-13106812D01*
X82409335Y-13096766D01*
X82410576Y-13097222D01*
G37*
G36*
X79529754Y-10917747D02*
G01*
X79529946Y-10917898D01*
X79570824Y-10947904D01*
X79621064Y-10981617D01*
X79669834Y-11011767D01*
X79750764Y-11059033D01*
X79922578Y-11056920D01*
X79936323Y-11056787D01*
X80044867Y-11059094D01*
X80138607Y-11068588D01*
X80224317Y-11086649D01*
X80308773Y-11114659D01*
X80398748Y-11153999D01*
X80408290Y-11158541D01*
X80460620Y-11181829D01*
X80502877Y-11196345D01*
X80543605Y-11204517D01*
X80591351Y-11208777D01*
X80630765Y-11211749D01*
X80667948Y-11217865D01*
X80695850Y-11228541D01*
X80722284Y-11245999D01*
X80734657Y-11256130D01*
X80770250Y-11298983D01*
X80790261Y-11352877D01*
X80796524Y-11422162D01*
X80796341Y-11434885D01*
X80787235Y-11516037D01*
X80763792Y-11606897D01*
X80725162Y-11710896D01*
X80719817Y-11723649D01*
X80703167Y-11761073D01*
X80691803Y-11780542D01*
X80683575Y-11784985D01*
X80676327Y-11777333D01*
X80630913Y-11711449D01*
X80551375Y-11627309D01*
X80454172Y-11552109D01*
X80342142Y-11488299D01*
X80312154Y-11474208D01*
X80225719Y-11438824D01*
X80137292Y-11411371D01*
X80039882Y-11389899D01*
X79926497Y-11372461D01*
X79872046Y-11364476D01*
X79822379Y-11355436D01*
X79784755Y-11346689D01*
X79764613Y-11339346D01*
X79762847Y-11338168D01*
X79731510Y-11312898D01*
X79691279Y-11274859D01*
X79646979Y-11229194D01*
X79603436Y-11181042D01*
X79565474Y-11135545D01*
X79537921Y-11097842D01*
X79501266Y-11033432D01*
X79478055Y-10969988D01*
X79470669Y-10908731D01*
X79470605Y-10870992D01*
X79529754Y-10917747D01*
G37*
G36*
X82720313Y-12381521D02*
G01*
X82779517Y-12405242D01*
X82828879Y-12446902D01*
X82862731Y-12503155D01*
X82879682Y-12571642D01*
X82878345Y-12650001D01*
X82877702Y-12654765D01*
X82869012Y-12701694D01*
X82856628Y-12730616D01*
X82837369Y-12746198D01*
X82808050Y-12753111D01*
X82784401Y-12754791D01*
X82764682Y-12749878D01*
X82763530Y-12733410D01*
X82779343Y-12702566D01*
X82781701Y-12698484D01*
X82796872Y-12655792D01*
X82802612Y-12606141D01*
X82798647Y-12558735D01*
X82784703Y-12522779D01*
X82752970Y-12492720D01*
X82704942Y-12471412D01*
X82649502Y-12462911D01*
X82592938Y-12467374D01*
X82541538Y-12484953D01*
X82501590Y-12515806D01*
X82495230Y-12524075D01*
X82476702Y-12569220D01*
X82475102Y-12621946D01*
X82489889Y-12676235D01*
X82520522Y-12726072D01*
X82534358Y-12742910D01*
X82546553Y-12761681D01*
X82544446Y-12771583D01*
X82528866Y-12777757D01*
X82486313Y-12782380D01*
X82450391Y-12768504D01*
X82424991Y-12734667D01*
X82409904Y-12680579D01*
X82404922Y-12605953D01*
X82404922Y-12605737D01*
X82405932Y-12556024D01*
X82409998Y-12521925D01*
X82418681Y-12496072D01*
X82433548Y-12471093D01*
X82452184Y-12447970D01*
X82505026Y-12407125D01*
X82570299Y-12381507D01*
X82643547Y-12372508D01*
X82720313Y-12381521D01*
G37*
G36*
X78235269Y-9782527D02*
G01*
X78245203Y-9799137D01*
X78263797Y-9832169D01*
X78289313Y-9878471D01*
X78320009Y-9934892D01*
X78354147Y-9998282D01*
X78466371Y-10207676D01*
X78325705Y-10284700D01*
X78309215Y-10293707D01*
X78259498Y-10320572D01*
X78218231Y-10342440D01*
X78189324Y-10357258D01*
X78176688Y-10362972D01*
X78176104Y-10362982D01*
X78165151Y-10353321D01*
X78151050Y-10330790D01*
X78149386Y-10327575D01*
X78142021Y-10311620D01*
X78141007Y-10299013D01*
X78149173Y-10286968D01*
X78169343Y-10272698D01*
X78204346Y-10253417D01*
X78257008Y-10226336D01*
X78352036Y-10177769D01*
X78321406Y-10123990D01*
X78309367Y-10103235D01*
X78292371Y-10075309D01*
X78282033Y-10060146D01*
X78276190Y-10059393D01*
X78253314Y-10066256D01*
X78218156Y-10081567D01*
X78175506Y-10103383D01*
X78150028Y-10117073D01*
X78110504Y-10137449D01*
X78081146Y-10151468D01*
X78066936Y-10156684D01*
X78054506Y-10147527D01*
X78042419Y-10125933D01*
X78035293Y-10102233D01*
X78037484Y-10086766D01*
X78041448Y-10083855D01*
X78062724Y-10071031D01*
X78096945Y-10051851D01*
X78138921Y-10029258D01*
X78159356Y-10018435D01*
X78196876Y-9998426D01*
X78223525Y-9984021D01*
X78234535Y-9977788D01*
X78233679Y-9968996D01*
X78224889Y-9947539D01*
X78211785Y-9921939D01*
X78198665Y-9900493D01*
X78189829Y-9891501D01*
X78184792Y-9893111D01*
X78162623Y-9903303D01*
X78127830Y-9920805D01*
X78085314Y-9943192D01*
X78061264Y-9955971D01*
X78022359Y-9976012D01*
X77993861Y-9989859D01*
X77980683Y-9995076D01*
X77980021Y-9994998D01*
X77968989Y-9984396D01*
X77954770Y-9961307D01*
X77937208Y-9927346D01*
X78081988Y-9850540D01*
X78102016Y-9840026D01*
X78152020Y-9814804D01*
X78193297Y-9795451D01*
X78222015Y-9783707D01*
X78234346Y-9781312D01*
X78235269Y-9782527D01*
G37*
G36*
X76697780Y-12481687D02*
G01*
X76693712Y-12526304D01*
X76692211Y-12565125D01*
X76693090Y-12584063D01*
X76699419Y-12602174D01*
X76716553Y-12616065D01*
X76749860Y-12631960D01*
X76779538Y-12645723D01*
X76798465Y-12659197D01*
X76805928Y-12676407D01*
X76807237Y-12704020D01*
X76807072Y-12714977D01*
X76804994Y-12740625D01*
X76801298Y-12750874D01*
X76798244Y-12749796D01*
X76777933Y-12740775D01*
X76741349Y-12723779D01*
X76691535Y-12700243D01*
X76631534Y-12671600D01*
X76564391Y-12639283D01*
X76333422Y-12527692D01*
X76336226Y-12485377D01*
X76459331Y-12485377D01*
X76468893Y-12494570D01*
X76494147Y-12509636D01*
X76530531Y-12527786D01*
X76608805Y-12564117D01*
X76615783Y-12529227D01*
X76618879Y-12512583D01*
X76623115Y-12469968D01*
X76617731Y-12447191D01*
X76602584Y-12443327D01*
X76592653Y-12445900D01*
X76562184Y-12453662D01*
X76524758Y-12463098D01*
X76503630Y-12468737D01*
X76474337Y-12477926D01*
X76459683Y-12484508D01*
X76459331Y-12485377D01*
X76336226Y-12485377D01*
X76336852Y-12475935D01*
X76340282Y-12424177D01*
X76444050Y-12398549D01*
X76482956Y-12388854D01*
X76548491Y-12372309D01*
X76619405Y-12354218D01*
X76685924Y-12337068D01*
X76688603Y-12336373D01*
X76742375Y-12322694D01*
X76788198Y-12311518D01*
X76821293Y-12303980D01*
X76836878Y-12301215D01*
X76837477Y-12301241D01*
X76844741Y-12312658D01*
X76842779Y-12343954D01*
X76837700Y-12367594D01*
X76827977Y-12382631D01*
X76807790Y-12392618D01*
X76771095Y-12402492D01*
X76706359Y-12418292D01*
X76699276Y-12469968D01*
X76699149Y-12470895D01*
X76697780Y-12481687D01*
G37*
G36*
X82052794Y-11902677D02*
G01*
X82065975Y-11927426D01*
X82089439Y-11997633D01*
X82103810Y-12084789D01*
X82109015Y-12185916D01*
X82104979Y-12298035D01*
X82091627Y-12418169D01*
X82068885Y-12543339D01*
X82062518Y-12571347D01*
X82053825Y-12602022D01*
X82047042Y-12613139D01*
X82041274Y-12606753D01*
X82031425Y-12581282D01*
X82004039Y-12513610D01*
X81978900Y-12459834D01*
X81952562Y-12415327D01*
X81921581Y-12375461D01*
X81882512Y-12335609D01*
X81831910Y-12291143D01*
X81766329Y-12237437D01*
X81720651Y-12195272D01*
X81665235Y-12129745D01*
X81622340Y-12061973D01*
X81603013Y-12024501D01*
X81659508Y-12024501D01*
X81710814Y-12019681D01*
X81792700Y-11996550D01*
X81883181Y-11955013D01*
X81980304Y-11895853D01*
X82028405Y-11863215D01*
X82052794Y-11902677D01*
G37*
G36*
X76808399Y-13067717D02*
G01*
X76818372Y-13073069D01*
X76821731Y-13083830D01*
X76827461Y-13114173D01*
X76833901Y-13157965D01*
X76840190Y-13209813D01*
X76844651Y-13248720D01*
X76850927Y-13298291D01*
X76856535Y-13337104D01*
X76860641Y-13359068D01*
X76862907Y-13375591D01*
X76853730Y-13383369D01*
X76827109Y-13385009D01*
X76826545Y-13385009D01*
X76794160Y-13379556D01*
X76777415Y-13360737D01*
X76772647Y-13324480D01*
X76771268Y-13305687D01*
X76766664Y-13269732D01*
X76759947Y-13227494D01*
X76752570Y-13189131D01*
X76745448Y-13167418D01*
X76736283Y-13159434D01*
X76722475Y-13160537D01*
X76721957Y-13160661D01*
X76695377Y-13165629D01*
X76653931Y-13171863D01*
X76602334Y-13178813D01*
X76545299Y-13185929D01*
X76487541Y-13192662D01*
X76433773Y-13198461D01*
X76388708Y-13202776D01*
X76357062Y-13205057D01*
X76343547Y-13204753D01*
X76343107Y-13204437D01*
X76337026Y-13189105D01*
X76334518Y-13161705D01*
X76334518Y-13124236D01*
X76441168Y-13110023D01*
X76472297Y-13105855D01*
X76539269Y-13096808D01*
X76611830Y-13086931D01*
X76678944Y-13077723D01*
X76688509Y-13076416D01*
X76746562Y-13069287D01*
X76785494Y-13066422D01*
X76808399Y-13067717D01*
G37*
G36*
X78298152Y-11974676D02*
G01*
X78279522Y-11990206D01*
X78274232Y-11994633D01*
X78241952Y-12029863D01*
X78205027Y-12080940D01*
X78166214Y-12142967D01*
X78128271Y-12211048D01*
X78093957Y-12280285D01*
X78066028Y-12345782D01*
X78047242Y-12402642D01*
X78038353Y-12430569D01*
X78017406Y-12480897D01*
X77993295Y-12526828D01*
X77954669Y-12581627D01*
X77880791Y-12660104D01*
X77787679Y-12736421D01*
X77677595Y-12809261D01*
X77552800Y-12877307D01*
X77415557Y-12939243D01*
X77268128Y-12993750D01*
X77112774Y-13039512D01*
X77068602Y-13050472D01*
X77017939Y-13061924D01*
X76977370Y-13069853D01*
X76952972Y-13072987D01*
X76945447Y-13073039D01*
X76934603Y-13071125D01*
X76936719Y-13064082D01*
X76953728Y-13049147D01*
X76987561Y-13023561D01*
X77000477Y-13013767D01*
X77067355Y-12956632D01*
X77129116Y-12893828D01*
X77180693Y-12830879D01*
X77217020Y-12773312D01*
X77226797Y-12753007D01*
X77238705Y-12721458D01*
X77246891Y-12686022D01*
X77252676Y-12640309D01*
X77257380Y-12577928D01*
X77262896Y-12509070D01*
X77276810Y-12403517D01*
X77298400Y-12296323D01*
X77329341Y-12178183D01*
X77355112Y-12087915D01*
X77401124Y-12089830D01*
X77429287Y-12091167D01*
X77474989Y-12093541D01*
X77531118Y-12096582D01*
X77591258Y-12099950D01*
X77599300Y-12100380D01*
X77730448Y-12100484D01*
X77866267Y-12088833D01*
X78000129Y-12066513D01*
X78125408Y-12034613D01*
X78235476Y-11994220D01*
X78256764Y-11984901D01*
X78288425Y-11971873D01*
X78301670Y-11968515D01*
X78298152Y-11974676D01*
G37*
G36*
X78836922Y-14616379D02*
G01*
X78871461Y-14628607D01*
X78900060Y-14638436D01*
X78954468Y-14655261D01*
X79006034Y-14669361D01*
X79009237Y-14670151D01*
X79054746Y-14680526D01*
X79111791Y-14692414D01*
X79175502Y-14704923D01*
X79241004Y-14717163D01*
X79303426Y-14728244D01*
X79357894Y-14737276D01*
X79399536Y-14743368D01*
X79423480Y-14745631D01*
X79438416Y-14747227D01*
X79480328Y-14759933D01*
X79530228Y-14782640D01*
X79581474Y-14812106D01*
X79627423Y-14845094D01*
X79662995Y-14878200D01*
X79715000Y-14937366D01*
X79768696Y-15008918D01*
X79820252Y-15087661D01*
X79865835Y-15168398D01*
X79882201Y-15200411D01*
X79901849Y-15239886D01*
X79915286Y-15268216D01*
X79920264Y-15280763D01*
X79917845Y-15281427D01*
X79901830Y-15274212D01*
X79875770Y-15258298D01*
X79863263Y-15250844D01*
X79824643Y-15231686D01*
X79775351Y-15210429D01*
X79723001Y-15190454D01*
X79706143Y-15184505D01*
X79660632Y-15169376D01*
X79624432Y-15160280D01*
X79589463Y-15156081D01*
X79547644Y-15155642D01*
X79490895Y-15157827D01*
X79463738Y-15158691D01*
X79395965Y-15158228D01*
X79322418Y-15154819D01*
X79247217Y-15148946D01*
X79174480Y-15141088D01*
X79108324Y-15131727D01*
X79052869Y-15121343D01*
X79012232Y-15110418D01*
X78990533Y-15099431D01*
X78986684Y-15087870D01*
X78980607Y-15059449D01*
X78973883Y-15020876D01*
X78962646Y-14962155D01*
X78941612Y-14880577D01*
X78915601Y-14801010D01*
X78886554Y-14728673D01*
X78856415Y-14668788D01*
X78827126Y-14626572D01*
X78818606Y-14615949D01*
X78820460Y-14612213D01*
X78836922Y-14616379D01*
G37*
G36*
X77967909Y-12679469D02*
G01*
X77962905Y-12701420D01*
X77953678Y-12734118D01*
X77946847Y-12761991D01*
X77937291Y-12819242D01*
X77929116Y-12889007D01*
X77922814Y-12964939D01*
X77918880Y-13040693D01*
X77917806Y-13109923D01*
X77920087Y-13166283D01*
X77920372Y-13169747D01*
X77918509Y-13264553D01*
X77897865Y-13362562D01*
X77857979Y-13464605D01*
X77798389Y-13571516D01*
X77718633Y-13684128D01*
X77618248Y-13803275D01*
X77496774Y-13929789D01*
X77483234Y-13943110D01*
X77443064Y-13982054D01*
X77409744Y-14013511D01*
X77386426Y-14034541D01*
X77376262Y-14042204D01*
X77375307Y-14041686D01*
X77373919Y-14027900D01*
X77377316Y-14001221D01*
X77380407Y-13977276D01*
X77383473Y-13927650D01*
X77385038Y-13864958D01*
X77385165Y-13795032D01*
X77383918Y-13723703D01*
X77381359Y-13656802D01*
X77377550Y-13600163D01*
X77372556Y-13559616D01*
X77365105Y-13527504D01*
X77346819Y-13470886D01*
X77325363Y-13421259D01*
X77324087Y-13418747D01*
X77308132Y-13379897D01*
X77290821Y-13327081D01*
X77274031Y-13267417D01*
X77259637Y-13208021D01*
X77249518Y-13156009D01*
X77245547Y-13118499D01*
X77251157Y-13107552D01*
X77276410Y-13091842D01*
X77323192Y-13073842D01*
X77430856Y-13031039D01*
X77546526Y-12972953D01*
X77664527Y-12902941D01*
X77779221Y-12824349D01*
X77884969Y-12740524D01*
X77904078Y-12724266D01*
X77936139Y-12697743D01*
X77958825Y-12680009D01*
X77968137Y-12674250D01*
X77967909Y-12679469D01*
G37*
G36*
X81592469Y-15234388D02*
G01*
X81621757Y-15275747D01*
X81642361Y-15304692D01*
X81651996Y-15317997D01*
X81652096Y-15318129D01*
X81650872Y-15334216D01*
X81627771Y-15355806D01*
X81593332Y-15380328D01*
X81544167Y-15313695D01*
X81541684Y-15310329D01*
X81517712Y-15277745D01*
X81500153Y-15253725D01*
X81492655Y-15243258D01*
X81482717Y-15246006D01*
X81461943Y-15258040D01*
X81449478Y-15267789D01*
X81440326Y-15281502D01*
X81434164Y-15303449D01*
X81429642Y-15338562D01*
X81425414Y-15391776D01*
X81417250Y-15506926D01*
X81375609Y-15535222D01*
X81363922Y-15542893D01*
X81340902Y-15556086D01*
X81329863Y-15559414D01*
X81329190Y-15552606D01*
X81330201Y-15526891D01*
X81333198Y-15486831D01*
X81337855Y-15437435D01*
X81341428Y-15402157D01*
X81345826Y-15357193D01*
X81348835Y-15324437D01*
X81349951Y-15309253D01*
X81349692Y-15308072D01*
X81336805Y-15301589D01*
X81310482Y-15298945D01*
X81270102Y-15289970D01*
X81230888Y-15264436D01*
X81199919Y-15227923D01*
X81181881Y-15186042D01*
X81181597Y-15157929D01*
X81269243Y-15157929D01*
X81276939Y-15180367D01*
X81295928Y-15204697D01*
X81319593Y-15222357D01*
X81339164Y-15229696D01*
X81353392Y-15226759D01*
X81382734Y-15215098D01*
X81413368Y-15199162D01*
X81434810Y-15183965D01*
X81435949Y-15176542D01*
X81427859Y-15154960D01*
X81411651Y-15126837D01*
X81391665Y-15098686D01*
X81372245Y-15077020D01*
X81357732Y-15068350D01*
X81348281Y-15070786D01*
X81324197Y-15086603D01*
X81298331Y-15111121D01*
X81277681Y-15137257D01*
X81269243Y-15157929D01*
X81181597Y-15157929D01*
X81181460Y-15144406D01*
X81184227Y-15135465D01*
X81209401Y-15092693D01*
X81254123Y-15046291D01*
X81316277Y-14998550D01*
X81318440Y-14997084D01*
X81352001Y-14974845D01*
X81377233Y-14959057D01*
X81388816Y-14953053D01*
X81388833Y-14953054D01*
X81396998Y-14962182D01*
X81416164Y-14987267D01*
X81444171Y-15025370D01*
X81478860Y-15073554D01*
X81518070Y-15128881D01*
X81551641Y-15176542D01*
X81556784Y-15183844D01*
X81592469Y-15234388D01*
G37*
G36*
X78204266Y-14154778D02*
G01*
X78225517Y-14172751D01*
X78256736Y-14202055D01*
X78295348Y-14240411D01*
X78320072Y-14264953D01*
X78417165Y-14351074D01*
X78513637Y-14421196D01*
X78570363Y-14457737D01*
X78620115Y-14490489D01*
X78656878Y-14516096D01*
X78684142Y-14537296D01*
X78705396Y-14556828D01*
X78724131Y-14577431D01*
X78743836Y-14601842D01*
X78797367Y-14681295D01*
X78841605Y-14775654D01*
X78873039Y-14882251D01*
X78892475Y-15003870D01*
X78900719Y-15143294D01*
X78901256Y-15177940D01*
X78901326Y-15228647D01*
X78900309Y-15262228D01*
X78898287Y-15276710D01*
X78895345Y-15270121D01*
X78889896Y-15245793D01*
X78855838Y-15159111D01*
X78801127Y-15080270D01*
X78726962Y-15010460D01*
X78634543Y-14950871D01*
X78525069Y-14902693D01*
X78505747Y-14894565D01*
X78466179Y-14875462D01*
X78415330Y-14849325D01*
X78358123Y-14818792D01*
X78299483Y-14786502D01*
X78244331Y-14755093D01*
X78197592Y-14727204D01*
X78193069Y-14724196D01*
X78186181Y-14716465D01*
X78183148Y-14703426D01*
X78183952Y-14680720D01*
X78188573Y-14643987D01*
X78196993Y-14588866D01*
X78199990Y-14567630D01*
X78206130Y-14505048D01*
X78210006Y-14435139D01*
X78211631Y-14362951D01*
X78211016Y-14293531D01*
X78208176Y-14231925D01*
X78203123Y-14183180D01*
X78195870Y-14152344D01*
X78195556Y-14150415D01*
X78204266Y-14154778D01*
G37*
G36*
X77572667Y-10209867D02*
G01*
X77593666Y-10230932D01*
X77624657Y-10263204D01*
X77662745Y-10303564D01*
X77705035Y-10348892D01*
X77748633Y-10396069D01*
X77790644Y-10441977D01*
X77828174Y-10483495D01*
X77858327Y-10517504D01*
X77878210Y-10540886D01*
X77883916Y-10548619D01*
X77887093Y-10564273D01*
X77873541Y-10583501D01*
X77856430Y-10598479D01*
X77838444Y-10606344D01*
X77833558Y-10603953D01*
X77814329Y-10587747D01*
X77784509Y-10558762D01*
X77747100Y-10519975D01*
X77705110Y-10474359D01*
X77681538Y-10448290D01*
X77643477Y-10406635D01*
X77612739Y-10373564D01*
X77592006Y-10351945D01*
X77583959Y-10344650D01*
X77585595Y-10354458D01*
X77592072Y-10383292D01*
X77602610Y-10427582D01*
X77616356Y-10483750D01*
X77632459Y-10548219D01*
X77683200Y-10749513D01*
X77652191Y-10781880D01*
X77646109Y-10787998D01*
X77625119Y-10805621D01*
X77612138Y-10811180D01*
X77610691Y-10810199D01*
X77596579Y-10796616D01*
X77570187Y-10769191D01*
X77533938Y-10730501D01*
X77490253Y-10683123D01*
X77441554Y-10629636D01*
X77280016Y-10451157D01*
X77309335Y-10422100D01*
X77338653Y-10393044D01*
X77387130Y-10445053D01*
X77390005Y-10448139D01*
X77423358Y-10484148D01*
X77463332Y-10527558D01*
X77501903Y-10569655D01*
X77514742Y-10583594D01*
X77542101Y-10612380D01*
X77561089Y-10631015D01*
X77568199Y-10635988D01*
X77567062Y-10630234D01*
X77561106Y-10605355D01*
X77550915Y-10564553D01*
X77537468Y-10511732D01*
X77521744Y-10450797D01*
X77475289Y-10271867D01*
X77515387Y-10236661D01*
X77527861Y-10226160D01*
X77551275Y-10209084D01*
X77564724Y-10203071D01*
X77572667Y-10209867D01*
G37*
G36*
X77418740Y-14364832D02*
G01*
X77451016Y-14388530D01*
X77486492Y-14423001D01*
X77519272Y-14462192D01*
X77543460Y-14500052D01*
X77552128Y-14518917D01*
X77566556Y-14577118D01*
X77561068Y-14629383D01*
X77536385Y-14672787D01*
X77493223Y-14704407D01*
X77472402Y-14712792D01*
X77437550Y-14717941D01*
X77401364Y-14709545D01*
X77359369Y-14686211D01*
X77307091Y-14646550D01*
X77301328Y-14641831D01*
X77263419Y-14611459D01*
X77237791Y-14593696D01*
X77219681Y-14586541D01*
X77204325Y-14587989D01*
X77186960Y-14596037D01*
X77173452Y-14607289D01*
X77165110Y-14633948D01*
X77172226Y-14667357D01*
X77192477Y-14703751D01*
X77223535Y-14739367D01*
X77263077Y-14770439D01*
X77308776Y-14793205D01*
X77327869Y-14800676D01*
X77345685Y-14812837D01*
X77342361Y-14827178D01*
X77318755Y-14848449D01*
X77316489Y-14850220D01*
X77291429Y-14866546D01*
X77269694Y-14869940D01*
X77244495Y-14859538D01*
X77209038Y-14834475D01*
X77177507Y-14807248D01*
X77130680Y-14750374D01*
X77100443Y-14688721D01*
X77089715Y-14627356D01*
X77089865Y-14613921D01*
X77093706Y-14582132D01*
X77106398Y-14558199D01*
X77132782Y-14531332D01*
X77135451Y-14528916D01*
X77173897Y-14501815D01*
X77211839Y-14491993D01*
X77252439Y-14500029D01*
X77298861Y-14526505D01*
X77354267Y-14572000D01*
X77380616Y-14595487D01*
X77408507Y-14617673D01*
X77428477Y-14627439D01*
X77445659Y-14626929D01*
X77465189Y-14618285D01*
X77479052Y-14606464D01*
X77486859Y-14579438D01*
X77478945Y-14545822D01*
X77457286Y-14509648D01*
X77423858Y-14474946D01*
X77380633Y-14445745D01*
X77359586Y-14433696D01*
X77335651Y-14416787D01*
X77326470Y-14405391D01*
X77334042Y-14390427D01*
X77355998Y-14372886D01*
X77383145Y-14360609D01*
X77406100Y-14359055D01*
X77418740Y-14364832D01*
G37*
G36*
X81401300Y-11707999D02*
G01*
X81410141Y-11734847D01*
X81468719Y-11879588D01*
X81545798Y-12027526D01*
X81638798Y-12174510D01*
X81745135Y-12316388D01*
X81862228Y-12449010D01*
X81901346Y-12491211D01*
X81958810Y-12562475D01*
X81999665Y-12630032D01*
X82026129Y-12698878D01*
X82040417Y-12774004D01*
X82044743Y-12860407D01*
X82044213Y-12898364D01*
X82038650Y-12971732D01*
X82025628Y-13040839D01*
X82003414Y-13113530D01*
X81970276Y-13197651D01*
X81965798Y-13208088D01*
X81948802Y-13245310D01*
X81935257Y-13271382D01*
X81927763Y-13281192D01*
X81925950Y-13278032D01*
X81922488Y-13257113D01*
X81919375Y-13220923D01*
X81917117Y-13174542D01*
X81912767Y-13106661D01*
X81891989Y-12977236D01*
X81855901Y-12859132D01*
X81805434Y-12755030D01*
X81741515Y-12667610D01*
X81738679Y-12664476D01*
X81711453Y-12636199D01*
X81690612Y-12617676D01*
X81680471Y-12612782D01*
X81678095Y-12619709D01*
X81673353Y-12645750D01*
X81667799Y-12686072D01*
X81662200Y-12735514D01*
X81660391Y-12751989D01*
X81637654Y-12876796D01*
X81600188Y-12985216D01*
X81547195Y-13079087D01*
X81477879Y-13160248D01*
X81454702Y-13181918D01*
X81419528Y-13211663D01*
X81390064Y-13233076D01*
X81368753Y-13244921D01*
X81358038Y-13245962D01*
X81360360Y-13234963D01*
X81378161Y-13210691D01*
X81399866Y-13180339D01*
X81429967Y-13127826D01*
X81460481Y-13065547D01*
X81488280Y-13000434D01*
X81510234Y-12939418D01*
X81523212Y-12889432D01*
X81529411Y-12845253D01*
X81530855Y-12781159D01*
X81521316Y-12717414D01*
X81499685Y-12647875D01*
X81464852Y-12566399D01*
X81434783Y-12497340D01*
X81403602Y-12408891D01*
X81380002Y-12316288D01*
X81362461Y-12213297D01*
X81349457Y-12093679D01*
X81346331Y-12053861D01*
X81342087Y-11963191D01*
X81342500Y-11872668D01*
X81347720Y-11774746D01*
X81357892Y-11661880D01*
X81364984Y-11593267D01*
X81401300Y-11707999D01*
G37*
G36*
X77032158Y-11700151D02*
G01*
X77029159Y-11711387D01*
X77018731Y-11734685D01*
X77002137Y-11744238D01*
X76974472Y-11741364D01*
X76930833Y-11727380D01*
X76892046Y-11713884D01*
X76859444Y-11704818D01*
X76840150Y-11704508D01*
X76829654Y-11713093D01*
X76823445Y-11730714D01*
X76822625Y-11747678D01*
X76829792Y-11773855D01*
X76847059Y-11811127D01*
X76875972Y-11863403D01*
X76886746Y-11882121D01*
X76909689Y-11923253D01*
X76923068Y-11951494D01*
X76928491Y-11971975D01*
X76927560Y-11989829D01*
X76921882Y-12010186D01*
X76919410Y-12017736D01*
X76909204Y-12046655D01*
X76902079Y-12063536D01*
X76899333Y-12064939D01*
X76886650Y-12054067D01*
X76866203Y-12024832D01*
X76839209Y-11979088D01*
X76806890Y-11918691D01*
X76789823Y-11887216D01*
X76773054Y-11859736D01*
X76762576Y-11846691D01*
X76762155Y-11846458D01*
X76744889Y-11847246D01*
X76719081Y-11857310D01*
X76699373Y-11865889D01*
X76643717Y-11873460D01*
X76583543Y-11858538D01*
X76580746Y-11857343D01*
X76539852Y-11830676D01*
X76515833Y-11792928D01*
X76508473Y-11742719D01*
X76511356Y-11722386D01*
X76592012Y-11722386D01*
X76593722Y-11747111D01*
X76605230Y-11763765D01*
X76629290Y-11780627D01*
X76634302Y-11782896D01*
X76659654Y-11792182D01*
X76677980Y-11790093D01*
X76701071Y-11775841D01*
X76712987Y-11764919D01*
X76731800Y-11738881D01*
X76747030Y-11708914D01*
X76755176Y-11682413D01*
X76752735Y-11666772D01*
X76743750Y-11661143D01*
X76716626Y-11648784D01*
X76682336Y-11635646D01*
X76650232Y-11625212D01*
X76629661Y-11620960D01*
X76629606Y-11620961D01*
X76617944Y-11631249D01*
X76606324Y-11656731D01*
X76596947Y-11689685D01*
X76592012Y-11722386D01*
X76511356Y-11722386D01*
X76517555Y-11678671D01*
X76542864Y-11599405D01*
X76578264Y-11506701D01*
X76741752Y-11564889D01*
X76760592Y-11571591D01*
X76824768Y-11594373D01*
X76885538Y-11615881D01*
X76936798Y-11633957D01*
X76972443Y-11646443D01*
X76973821Y-11646922D01*
X77009997Y-11660340D01*
X77028789Y-11670996D01*
X77034430Y-11682413D01*
X77034682Y-11682922D01*
X77032158Y-11700151D01*
G37*
G36*
X78962824Y-9538213D02*
G01*
X79028213Y-9555282D01*
X79082281Y-9589285D01*
X79109288Y-9621316D01*
X79138046Y-9677071D01*
X79157505Y-9741516D01*
X79165485Y-9806892D01*
X79159809Y-9865438D01*
X79141832Y-9916707D01*
X79108860Y-9964976D01*
X79060111Y-10002325D01*
X78992121Y-10032197D01*
X78929329Y-10046970D01*
X78861677Y-10050839D01*
X78802008Y-10042631D01*
X78794147Y-10039898D01*
X78781734Y-10030700D01*
X78771483Y-10012596D01*
X78761199Y-9981009D01*
X78748693Y-9931365D01*
X78743013Y-9907059D01*
X78733958Y-9865738D01*
X78728366Y-9836460D01*
X78727273Y-9824398D01*
X78734688Y-9820752D01*
X78760131Y-9813020D01*
X78796952Y-9803731D01*
X78838446Y-9794372D01*
X78877911Y-9786432D01*
X78908643Y-9781397D01*
X78923940Y-9780756D01*
X78935198Y-9792854D01*
X78942675Y-9815780D01*
X78943505Y-9838787D01*
X78935929Y-9851486D01*
X78931482Y-9852852D01*
X78907407Y-9859537D01*
X78874424Y-9868186D01*
X78863343Y-9871348D01*
X78837585Y-9882952D01*
X78830224Y-9894698D01*
X78834819Y-9911958D01*
X78841491Y-9940502D01*
X78842355Y-9944074D01*
X78852652Y-9963250D01*
X78872893Y-9971769D01*
X78906865Y-9970240D01*
X78958352Y-9959270D01*
X79000992Y-9942938D01*
X79043144Y-9908202D01*
X79067538Y-9860401D01*
X79073343Y-9801391D01*
X79059728Y-9733024D01*
X79036138Y-9679429D01*
X79001656Y-9640320D01*
X78956274Y-9620478D01*
X78898028Y-9618511D01*
X78891752Y-9619192D01*
X78837912Y-9631321D01*
X78789534Y-9656385D01*
X78738838Y-9698280D01*
X78729581Y-9706943D01*
X78712581Y-9719812D01*
X78701570Y-9717898D01*
X78692839Y-9698637D01*
X78682674Y-9659462D01*
X78682509Y-9658773D01*
X78681051Y-9637838D01*
X78691578Y-9620904D01*
X78718431Y-9600856D01*
X78740597Y-9587272D01*
X78814829Y-9554341D01*
X78890301Y-9537943D01*
X78962824Y-9538213D01*
G37*
G36*
X81751590Y-11332946D02*
G01*
X81751263Y-11334527D01*
X81744519Y-11371635D01*
X81744728Y-11396472D01*
X81753762Y-11418939D01*
X81773488Y-11448937D01*
X81802025Y-11487290D01*
X81838348Y-11531257D01*
X81876522Y-11573755D01*
X81912588Y-11610567D01*
X81942587Y-11637478D01*
X81962558Y-11650271D01*
X81973379Y-11652944D01*
X81994584Y-11648916D01*
X82000757Y-11627429D01*
X81991882Y-11588516D01*
X81986553Y-11572815D01*
X81980961Y-11552276D01*
X81984125Y-11546925D01*
X81996630Y-11552324D01*
X82021975Y-11572460D01*
X82048281Y-11604542D01*
X82068219Y-11639284D01*
X82075958Y-11668168D01*
X82071640Y-11693811D01*
X82051860Y-11724106D01*
X82012911Y-11754289D01*
X81989334Y-11770564D01*
X81953441Y-11797260D01*
X81915781Y-11826754D01*
X81900181Y-11838994D01*
X81828432Y-11885474D01*
X81759830Y-11912186D01*
X81690530Y-11920734D01*
X81685378Y-11920675D01*
X81640492Y-11916132D01*
X81596681Y-11905879D01*
X81561271Y-11892071D01*
X81541583Y-11876866D01*
X81546044Y-11873675D01*
X81567645Y-11873717D01*
X81601728Y-11877882D01*
X81639728Y-11882542D01*
X81676326Y-11881156D01*
X81709729Y-11871017D01*
X81726768Y-11862282D01*
X81750652Y-11844459D01*
X81767258Y-11825911D01*
X81772749Y-11811338D01*
X81763288Y-11805436D01*
X81747642Y-11799689D01*
X81725410Y-11783367D01*
X81723098Y-11781239D01*
X81709094Y-11770604D01*
X81693697Y-11767001D01*
X81669975Y-11770172D01*
X81630993Y-11779860D01*
X81604488Y-11786465D01*
X81570030Y-11792178D01*
X81541808Y-11790751D01*
X81509931Y-11782389D01*
X81459484Y-11766355D01*
X81515841Y-11759247D01*
X81521404Y-11758496D01*
X81565819Y-11746621D01*
X81594045Y-11725159D01*
X81608434Y-11704107D01*
X81612404Y-11691276D01*
X81611845Y-11690156D01*
X81603744Y-11673691D01*
X81588802Y-11643198D01*
X81569753Y-11604254D01*
X81530891Y-11537292D01*
X81483257Y-11478989D01*
X81432338Y-11437421D01*
X81381206Y-11415662D01*
X81364228Y-11411915D01*
X81345180Y-11406290D01*
X81345067Y-11401101D01*
X81361421Y-11393597D01*
X81378758Y-11388790D01*
X81422541Y-11393283D01*
X81446926Y-11400213D01*
X81458083Y-11397512D01*
X81452160Y-11382054D01*
X81429437Y-11352174D01*
X81424489Y-11346255D01*
X81387216Y-11309104D01*
X81348190Y-11287102D01*
X81298067Y-11274740D01*
X81251948Y-11267384D01*
X81286538Y-11253093D01*
X81318818Y-11244991D01*
X81352322Y-11245015D01*
X81372922Y-11245710D01*
X81377721Y-11235951D01*
X81364299Y-11216766D01*
X81333231Y-11189815D01*
X81322290Y-11181778D01*
X81278037Y-11157873D01*
X81237253Y-11153109D01*
X81193937Y-11166481D01*
X81167071Y-11182902D01*
X81125734Y-11223631D01*
X81084446Y-11284010D01*
X81041956Y-11365677D01*
X81022350Y-11409391D01*
X81003897Y-11459680D01*
X80996782Y-11498299D01*
X81000342Y-11529830D01*
X81013911Y-11558855D01*
X81040757Y-11587785D01*
X81081376Y-11615522D01*
X81125948Y-11636019D01*
X81165138Y-11644020D01*
X81181382Y-11644662D01*
X81184907Y-11650430D01*
X81171150Y-11667179D01*
X81164051Y-11674211D01*
X81122172Y-11698504D01*
X81070184Y-11709261D01*
X81016352Y-11704491D01*
X81004251Y-11701593D01*
X80979372Y-11697083D01*
X80969470Y-11697702D01*
X80973661Y-11711708D01*
X80989146Y-11739189D01*
X81011221Y-11769892D01*
X81034737Y-11796055D01*
X81058554Y-11816053D01*
X81097726Y-11837221D01*
X81145623Y-11848333D01*
X81209051Y-11851555D01*
X81210841Y-11851556D01*
X81250259Y-11852120D01*
X81270473Y-11854502D01*
X81275194Y-11859805D01*
X81268135Y-11869134D01*
X81258483Y-11876664D01*
X81229652Y-11893207D01*
X81193604Y-11909664D01*
X81147033Y-11923334D01*
X81069444Y-11927959D01*
X80988528Y-11913438D01*
X80908476Y-11880691D01*
X80833480Y-11830638D01*
X80795493Y-11799424D01*
X80825717Y-11690015D01*
X80828238Y-11680612D01*
X80843308Y-11610530D01*
X80854731Y-11533059D01*
X80862086Y-11454142D01*
X80864954Y-11379724D01*
X80862913Y-11315750D01*
X80855544Y-11268163D01*
X80854471Y-11264311D01*
X80822385Y-11190276D01*
X80773271Y-11131369D01*
X80708468Y-11088798D01*
X80629313Y-11063772D01*
X80550214Y-11049173D01*
X80592044Y-11002873D01*
X80610651Y-10984469D01*
X80652264Y-10950787D01*
X80695021Y-10923118D01*
X80719968Y-10910267D01*
X80754486Y-10897261D01*
X80792061Y-10891014D01*
X80842643Y-10889243D01*
X80860856Y-10889376D01*
X80917926Y-10894671D01*
X80958589Y-10909355D01*
X80987409Y-10935821D01*
X81008945Y-10976462D01*
X81018915Y-11010464D01*
X81017370Y-11061251D01*
X80994000Y-11112516D01*
X80976059Y-11140205D01*
X81021766Y-11131841D01*
X81060062Y-11121651D01*
X81105330Y-11095709D01*
X81130907Y-11059020D01*
X81136427Y-11012924D01*
X81121523Y-10958763D01*
X81085827Y-10897879D01*
X81079653Y-10889564D01*
X81037146Y-10844799D01*
X81448314Y-10844799D01*
X81449417Y-10854233D01*
X81452442Y-10868514D01*
X81455978Y-10902993D01*
X81458708Y-10950145D01*
X81460213Y-11004120D01*
X81460777Y-11041571D01*
X81462068Y-11084561D01*
X81464660Y-11111254D01*
X81469483Y-11125794D01*
X81477464Y-11132324D01*
X81489532Y-11134988D01*
X81501522Y-11138244D01*
X81532816Y-11152353D01*
X81567203Y-11172791D01*
X81617274Y-11206553D01*
X81609870Y-11157220D01*
X81608751Y-11151039D01*
X81596715Y-11110767D01*
X81576114Y-11058871D01*
X81550073Y-11001887D01*
X81521716Y-10946350D01*
X81494167Y-10898797D01*
X81470551Y-10865763D01*
X81459948Y-10854113D01*
X81448314Y-10844799D01*
X81037146Y-10844799D01*
X81025593Y-10832632D01*
X81004490Y-10819644D01*
X81430659Y-10819644D01*
X81436424Y-10825409D01*
X81442189Y-10819644D01*
X81436424Y-10813879D01*
X81430659Y-10819644D01*
X81004490Y-10819644D01*
X80962495Y-10793798D01*
X80887193Y-10771602D01*
X80796524Y-10764588D01*
X80715908Y-10769228D01*
X80614976Y-10789465D01*
X80509500Y-10827363D01*
X80498684Y-10831949D01*
X80475016Y-10840898D01*
X80467967Y-10840300D01*
X80474304Y-10830435D01*
X80483286Y-10821130D01*
X80513404Y-10796025D01*
X80554099Y-10766261D01*
X80598952Y-10736224D01*
X80641545Y-10710304D01*
X80675462Y-10692889D01*
X80688420Y-10687857D01*
X80733608Y-10674336D01*
X80779229Y-10665010D01*
X80836878Y-10656797D01*
X80767700Y-10641404D01*
X80746104Y-10637500D01*
X80671520Y-10633377D01*
X80585567Y-10639709D01*
X80494719Y-10655791D01*
X80405449Y-10680917D01*
X80395085Y-10684400D01*
X80355978Y-10696595D01*
X80327416Y-10704003D01*
X80314981Y-10705131D01*
X80319423Y-10695844D01*
X80336653Y-10674985D01*
X80362911Y-10647339D01*
X80412044Y-10602746D01*
X80504823Y-10540377D01*
X80603609Y-10500094D01*
X80707736Y-10481982D01*
X80816539Y-10486124D01*
X80929349Y-10512605D01*
X81045501Y-10561508D01*
X81132366Y-10605931D01*
X81155908Y-10552710D01*
X81169096Y-10513547D01*
X81178762Y-10449048D01*
X81176864Y-10384436D01*
X81163085Y-10329553D01*
X81146548Y-10301997D01*
X81118208Y-10266473D01*
X81084652Y-10231550D01*
X81075497Y-10222940D01*
X81028081Y-10177723D01*
X80989143Y-10138641D01*
X80955838Y-10101958D01*
X80925323Y-10063935D01*
X80894753Y-10020835D01*
X80861284Y-9968921D01*
X80822072Y-9904455D01*
X80774272Y-9823700D01*
X80741768Y-9768029D01*
X80706657Y-9705916D01*
X80681260Y-9657331D01*
X80664081Y-9618814D01*
X80653623Y-9586905D01*
X80648392Y-9558145D01*
X80646891Y-9529072D01*
X80646889Y-9527048D01*
X80656260Y-9459142D01*
X80684657Y-9397540D01*
X80733073Y-9341075D01*
X80802502Y-9288579D01*
X80893938Y-9238885D01*
X80975517Y-9203676D01*
X81059087Y-9177251D01*
X81127359Y-9167957D01*
X81180400Y-9175786D01*
X81218276Y-9200730D01*
X81229816Y-9215097D01*
X81233059Y-9231675D01*
X81222323Y-9255271D01*
X81206303Y-9277296D01*
X81181304Y-9295750D01*
X81145013Y-9309077D01*
X81093515Y-9318666D01*
X81022893Y-9325902D01*
X80972263Y-9330866D01*
X80908042Y-9341791D01*
X80858783Y-9358089D01*
X80819606Y-9381571D01*
X80785633Y-9414051D01*
X80758194Y-9453860D01*
X80741902Y-9507311D01*
X80745446Y-9566037D01*
X80769113Y-9630768D01*
X80813188Y-9702233D01*
X80877957Y-9781159D01*
X80963705Y-9868276D01*
X81051573Y-9952596D01*
X81147301Y-10047340D01*
X81228281Y-10131408D01*
X81296349Y-10206853D01*
X81353341Y-10275725D01*
X81401093Y-10340076D01*
X81441442Y-10401957D01*
X81450166Y-10416574D01*
X81483880Y-10478521D01*
X81510562Y-10536468D01*
X81528111Y-10585476D01*
X81534427Y-10620607D01*
X81534451Y-10623423D01*
X81537641Y-10637666D01*
X81548174Y-10631798D01*
X81554926Y-10621200D01*
X81561507Y-10588269D01*
X81559976Y-10545042D01*
X81550885Y-10498745D01*
X81534787Y-10456604D01*
X81518708Y-10428653D01*
X81492038Y-10386424D01*
X81459163Y-10336914D01*
X81423875Y-10285958D01*
X81406433Y-10261123D01*
X81361961Y-10194203D01*
X81329939Y-10137493D01*
X81308408Y-10085507D01*
X81295409Y-10032758D01*
X81288986Y-9973761D01*
X81287178Y-9903030D01*
X81287285Y-9867335D01*
X81288678Y-9816777D01*
X81292128Y-9781850D01*
X81298234Y-9757757D01*
X81307598Y-9739700D01*
X81319255Y-9724228D01*
X81348128Y-9702046D01*
X81377639Y-9702419D01*
X81386410Y-9707406D01*
X81398252Y-9729589D01*
X81397223Y-9767591D01*
X81383402Y-9823123D01*
X81366180Y-9897830D01*
X81363107Y-9983418D01*
X81379548Y-10067431D01*
X81416166Y-10151853D01*
X81473624Y-10238669D01*
X81552583Y-10329864D01*
X81586831Y-10366801D01*
X81645264Y-10438368D01*
X81689040Y-10507579D01*
X81721759Y-10580617D01*
X81747025Y-10663666D01*
X81754217Y-10698453D01*
X81761430Y-10746632D01*
X81767528Y-10800357D01*
X81769172Y-10819644D01*
X81772178Y-10854895D01*
X81775049Y-10905513D01*
X81775808Y-10947480D01*
X81774124Y-10976062D01*
X81769665Y-10986528D01*
X81766056Y-10984727D01*
X81753105Y-10968271D01*
X81738064Y-10940271D01*
X81732738Y-10929664D01*
X81713106Y-10899975D01*
X81694221Y-10882189D01*
X81684620Y-10877404D01*
X81678470Y-10877717D01*
X81682512Y-10890536D01*
X81697042Y-10919799D01*
X81733495Y-11010937D01*
X81756745Y-11117757D01*
X81761888Y-11206553D01*
X81763106Y-11227587D01*
X81751590Y-11332946D01*
G37*
G36*
X81718329Y-12800633D02*
G01*
X81743000Y-12843595D01*
X81778805Y-12927403D01*
X81805540Y-13042031D01*
X81810542Y-13164337D01*
X81793811Y-13294303D01*
X81755346Y-13431911D01*
X81750339Y-13446421D01*
X81707796Y-13586838D01*
X81679095Y-13717426D01*
X81664486Y-13836231D01*
X81664220Y-13941299D01*
X81678548Y-14030675D01*
X81685771Y-14057837D01*
X81692895Y-14085347D01*
X81695706Y-14097267D01*
X81695584Y-14097481D01*
X81684899Y-14093963D01*
X81662193Y-14083044D01*
X81619476Y-14063110D01*
X81528705Y-14031654D01*
X81431328Y-14009834D01*
X81332593Y-13998141D01*
X81237750Y-13997064D01*
X81152046Y-14007094D01*
X81080731Y-14028722D01*
X81025105Y-14053328D01*
X81111142Y-13961870D01*
X81173228Y-13890065D01*
X81239827Y-13802563D01*
X81304402Y-13708322D01*
X81361904Y-13614719D01*
X81407284Y-13529131D01*
X81411280Y-13520727D01*
X81465391Y-13406277D01*
X81510436Y-13309455D01*
X81547605Y-13227460D01*
X81578088Y-13157495D01*
X81603075Y-13096761D01*
X81623755Y-13042461D01*
X81641319Y-12991795D01*
X81656956Y-12941965D01*
X81659651Y-12932772D01*
X81672176Y-12884439D01*
X81680985Y-12841136D01*
X81684313Y-12811295D01*
X81684465Y-12803495D01*
X81689137Y-12780624D01*
X81700400Y-12779656D01*
X81718329Y-12800633D01*
G37*
G36*
X80602856Y-9804688D02*
G01*
X80618113Y-9856120D01*
X80638543Y-9914957D01*
X80661104Y-9972666D01*
X80682753Y-10020711D01*
X80724222Y-10091153D01*
X80778940Y-10153920D01*
X80846845Y-10204356D01*
X80871634Y-10220702D01*
X80907954Y-10249019D01*
X80933683Y-10274367D01*
X80935051Y-10276082D01*
X80958229Y-10312611D01*
X80976538Y-10354234D01*
X80987097Y-10393024D01*
X80987023Y-10421055D01*
X80985450Y-10425317D01*
X80978971Y-10432280D01*
X80965314Y-10432618D01*
X80939685Y-10425814D01*
X80897290Y-10411349D01*
X80859147Y-10398877D01*
X80822841Y-10390140D01*
X80783600Y-10384948D01*
X80734723Y-10382431D01*
X80669508Y-10381715D01*
X80615332Y-10381831D01*
X80569857Y-10383046D01*
X80536393Y-10386370D01*
X80509040Y-10392799D01*
X80481903Y-10403329D01*
X80449085Y-10418958D01*
X80426482Y-10430983D01*
X80371379Y-10467760D01*
X80328211Y-10507228D01*
X80307984Y-10529438D01*
X80286969Y-10550555D01*
X80275832Y-10559139D01*
X80271770Y-10556474D01*
X80259318Y-10538723D01*
X80243720Y-10509628D01*
X80239630Y-10501811D01*
X80209927Y-10460712D01*
X80174170Y-10427807D01*
X80155273Y-10415830D01*
X80131262Y-10405053D01*
X80101180Y-10397427D01*
X80059368Y-10391600D01*
X80000172Y-10386218D01*
X79983709Y-10384837D01*
X79885229Y-10373283D01*
X79804840Y-10356795D01*
X79738434Y-10334015D01*
X79681903Y-10303584D01*
X79631138Y-10264141D01*
X79614313Y-10247145D01*
X79582959Y-10206869D01*
X79555458Y-10161757D01*
X79535897Y-10118920D01*
X79528366Y-10085465D01*
X79529544Y-10079229D01*
X79538322Y-10076972D01*
X79558775Y-10085558D01*
X79594549Y-10106125D01*
X79606142Y-10112946D01*
X79701729Y-10157280D01*
X79800358Y-10183603D01*
X79898172Y-10191557D01*
X79991310Y-10180782D01*
X80075916Y-10150920D01*
X80145094Y-10116330D01*
X80087445Y-10113287D01*
X80041654Y-10110046D01*
X79926173Y-10092739D01*
X79829620Y-10063108D01*
X79751403Y-10020860D01*
X79690928Y-9965704D01*
X79647601Y-9897349D01*
X79634250Y-9867463D01*
X79623039Y-9835700D01*
X79624270Y-9821989D01*
X79638301Y-9825272D01*
X79665490Y-9844494D01*
X79697963Y-9866932D01*
X79742918Y-9893483D01*
X79789434Y-9917524D01*
X79796791Y-9920986D01*
X79838541Y-9938896D01*
X79874272Y-9949158D01*
X79913661Y-9953816D01*
X79966383Y-9954914D01*
X79978147Y-9954886D01*
X80025815Y-9953507D01*
X80059832Y-9948867D01*
X80088015Y-9939337D01*
X80118184Y-9923289D01*
X80134623Y-9912748D01*
X80176121Y-9880440D01*
X80210422Y-9846806D01*
X80248862Y-9801949D01*
X80250124Y-9902210D01*
X80250571Y-9919405D01*
X80260991Y-10003447D01*
X80284629Y-10069713D01*
X80321115Y-10117686D01*
X80370082Y-10146849D01*
X80431162Y-10156684D01*
X80456881Y-10153962D01*
X80496819Y-10135037D01*
X80529110Y-10097330D01*
X80554214Y-10039957D01*
X80572593Y-9962034D01*
X80584709Y-9862676D01*
X80587056Y-9836863D01*
X80591205Y-9801744D01*
X80594932Y-9782209D01*
X80597643Y-9781968D01*
X80602856Y-9804688D01*
G37*
G36*
X80588989Y-9747379D02*
G01*
X80583224Y-9753144D01*
X80577459Y-9747379D01*
X80583224Y-9741614D01*
X80588989Y-9747379D01*
G37*
%TD*%
M02*
