%TF.GenerationSoftware,KiCad,Pcbnew,6.0.11-2627ca5db0~126~ubuntu22.04.1*%
%TF.CreationDate,2024-01-17T01:21:31-06:00*%
%TF.ProjectId,mea_breakout,6d65615f-6272-4656-916b-6f75742e6b69,1*%
%TF.SameCoordinates,Original*%
%TF.FileFunction,Copper,L2,Bot*%
%TF.FilePolarity,Positive*%
%FSLAX46Y46*%
G04 Gerber Fmt 4.6, Leading zero omitted, Abs format (unit mm)*
G04 Created by KiCad (PCBNEW 6.0.11-2627ca5db0~126~ubuntu22.04.1) date 2024-01-17 01:21:31*
%MOMM*%
%LPD*%
G01*
G04 APERTURE LIST*
G04 Aperture macros list*
%AMRotRect*
0 Rectangle, with rotation*
0 The origin of the aperture is its center*
0 $1 length*
0 $2 width*
0 $3 Rotation angle, in degrees counterclockwise*
0 Add horizontal line*
21,1,$1,$2,0,0,$3*%
G04 Aperture macros list end*
%TA.AperFunction,ComponentPad*%
%ADD10C,4.500000*%
%TD*%
%TA.AperFunction,SMDPad,CuDef*%
%ADD11R,1.000000X2.000000*%
%TD*%
%TA.AperFunction,SMDPad,CuDef*%
%ADD12R,2.000000X1.000000*%
%TD*%
%TA.AperFunction,SMDPad,CuDef*%
%ADD13RotRect,2.000000X1.000000X225.000000*%
%TD*%
%TA.AperFunction,SMDPad,CuDef*%
%ADD14RotRect,2.000000X1.000000X45.000000*%
%TD*%
%TA.AperFunction,SMDPad,CuDef*%
%ADD15RotRect,2.000000X1.000000X135.000000*%
%TD*%
%TA.AperFunction,SMDPad,CuDef*%
%ADD16RotRect,2.000000X1.000000X315.000000*%
%TD*%
%TA.AperFunction,ViaPad*%
%ADD17C,0.800000*%
%TD*%
G04 APERTURE END LIST*
D10*
%TO.P,H4,1*%
%TO.N,N/C*%
X95640000Y-67590000D03*
%TD*%
%TO.P,H3,1*%
%TO.N,N/C*%
X41640000Y-67590000D03*
%TD*%
%TO.P,H2,1*%
%TO.N,N/C*%
X95640000Y-13590000D03*
%TD*%
%TO.P,H1,1*%
%TO.N,N/C*%
X41640000Y-13590000D03*
%TD*%
D11*
%TO.P,J190,1*%
%TO.N,N/C*%
X83244999Y-22835000D03*
%TD*%
D12*
%TO.P,J248,1*%
%TO.N,N/C*%
X50885000Y-58654999D03*
%TD*%
D11*
%TO.P,J150,1*%
%TO.N,N/C*%
X67344999Y-58345000D03*
%TD*%
%TO.P,J34,1*%
%TO.N,N/C*%
X88605000Y-61555000D03*
%TD*%
D12*
%TO.P,J212,1*%
%TO.N,N/C*%
X86395000Y-30994999D03*
%TD*%
%TO.P,J200,1*%
%TO.N,N/C*%
X86395000Y-45514999D03*
%TD*%
%TO.P,J224,1*%
%TO.N,N/C*%
X50885000Y-29615000D03*
%TD*%
%TO.P,J131,1*%
%TO.N,N/C*%
X89605000Y-58135000D03*
%TD*%
D11*
%TO.P,J45,1*%
%TO.N,N/C*%
X76505000Y-19625000D03*
%TD*%
D12*
%TO.P,J233,1*%
%TO.N,N/C*%
X50885000Y-40505000D03*
%TD*%
D11*
%TO.P,J178,1*%
%TO.N,N/C*%
X68725000Y-22835000D03*
%TD*%
%TO.P,J136,1*%
%TO.N,N/C*%
X84284999Y-58345000D03*
%TD*%
%TO.P,J185,1*%
%TO.N,N/C*%
X77195000Y-22835000D03*
%TD*%
D12*
%TO.P,J221,1*%
%TO.N,N/C*%
X50885000Y-25985000D03*
%TD*%
%TO.P,J226,1*%
%TO.N,N/C*%
X50885000Y-32035000D03*
%TD*%
%TO.P,J246,1*%
%TO.N,N/C*%
X50885000Y-56235000D03*
%TD*%
D11*
%TO.P,J175,1*%
%TO.N,N/C*%
X65095000Y-22835000D03*
%TD*%
%TO.P,J57,1*%
%TO.N,N/C*%
X61985001Y-19625000D03*
%TD*%
D12*
%TO.P,J232,1*%
%TO.N,N/C*%
X50885000Y-39295000D03*
%TD*%
%TO.P,J235,1*%
%TO.N,N/C*%
X50885000Y-42925000D03*
%TD*%
%TO.P,J242,1*%
%TO.N,N/C*%
X50885000Y-51394999D03*
%TD*%
D11*
%TO.P,J170,1*%
%TO.N,N/C*%
X59045000Y-22835000D03*
%TD*%
%TO.P,J67,1*%
%TO.N,N/C*%
X49885000Y-19625000D03*
%TD*%
%TO.P,J68,1*%
%TO.N,N/C*%
X48675000Y-19625000D03*
%TD*%
%TO.P,J4,1*%
%TO.N,N/C*%
X52305000Y-61555000D03*
%TD*%
%TO.P,J18,1*%
%TO.N,N/C*%
X69245000Y-61555000D03*
%TD*%
%TO.P,J172,1*%
%TO.N,N/C*%
X61465000Y-22835000D03*
%TD*%
%TO.P,J31,1*%
%TO.N,N/C*%
X84975000Y-61555000D03*
%TD*%
D12*
%TO.P,J96,1*%
%TO.N,N/C*%
X47675000Y-26675000D03*
%TD*%
%TO.P,J92,1*%
%TO.N,N/C*%
X47675000Y-31515000D03*
%TD*%
%TO.P,J130,1*%
%TO.N,N/C*%
X89605000Y-56925000D03*
%TD*%
D11*
%TO.P,J135,1*%
%TO.N,N/C*%
X85494999Y-58345000D03*
%TD*%
%TO.P,J23,1*%
%TO.N,N/C*%
X75294999Y-61555000D03*
%TD*%
D12*
%TO.P,J213,1*%
%TO.N,N/C*%
X86395000Y-29785000D03*
%TD*%
%TO.P,J205,1*%
%TO.N,N/C*%
X86395000Y-39465000D03*
%TD*%
%TO.P,J240,1*%
%TO.N,N/C*%
X50885000Y-48975000D03*
%TD*%
D11*
%TO.P,J138,1*%
%TO.N,N/C*%
X81864999Y-58345000D03*
%TD*%
%TO.P,J145,1*%
%TO.N,N/C*%
X73394999Y-58345000D03*
%TD*%
D12*
%TO.P,J81,1*%
%TO.N,N/C*%
X47675000Y-44825000D03*
%TD*%
D13*
%TO.P,J251,1*%
%TO.N,N/C*%
X53877893Y-55352107D03*
%TD*%
D11*
%TO.P,J153,1*%
%TO.N,N/C*%
X63714999Y-58345000D03*
%TD*%
D12*
%TO.P,J75,1*%
%TO.N,N/C*%
X47675000Y-52085000D03*
%TD*%
D11*
%TO.P,J148,1*%
%TO.N,N/C*%
X69764999Y-58345000D03*
%TD*%
D12*
%TO.P,J204,1*%
%TO.N,N/C*%
X86395000Y-40674999D03*
%TD*%
%TO.P,J209,1*%
%TO.N,N/C*%
X86395000Y-34624999D03*
%TD*%
%TO.P,J83,1*%
%TO.N,N/C*%
X47675000Y-42405001D03*
%TD*%
%TO.P,J206,1*%
%TO.N,N/C*%
X86395000Y-38254999D03*
%TD*%
D11*
%TO.P,J58,1*%
%TO.N,N/C*%
X60775000Y-19625000D03*
%TD*%
%TO.P,J173,1*%
%TO.N,N/C*%
X62674999Y-22835000D03*
%TD*%
D12*
%TO.P,J203,1*%
%TO.N,N/C*%
X86395000Y-41884999D03*
%TD*%
D11*
%TO.P,J143,1*%
%TO.N,N/C*%
X75814999Y-58345000D03*
%TD*%
%TO.P,J10,1*%
%TO.N,N/C*%
X59565000Y-61555000D03*
%TD*%
%TO.P,J163,1*%
%TO.N,N/C*%
X50575000Y-22835000D03*
%TD*%
%TO.P,J17,1*%
%TO.N,N/C*%
X68035000Y-61555000D03*
%TD*%
D12*
%TO.P,J245,1*%
%TO.N,N/C*%
X50885000Y-55025000D03*
%TD*%
%TO.P,J111,1*%
%TO.N,N/C*%
X89605000Y-33935000D03*
%TD*%
%TO.P,J82,1*%
%TO.N,N/C*%
X47675000Y-43615000D03*
%TD*%
D11*
%TO.P,J63,1*%
%TO.N,N/C*%
X54725001Y-19625000D03*
%TD*%
D12*
%TO.P,J100,1*%
%TO.N,N/C*%
X47675000Y-21835000D03*
%TD*%
D11*
%TO.P,J19,1*%
%TO.N,N/C*%
X70455000Y-61555000D03*
%TD*%
%TO.P,J22,1*%
%TO.N,N/C*%
X74085000Y-61555000D03*
%TD*%
D12*
%TO.P,J201,1*%
%TO.N,N/C*%
X86395000Y-44304999D03*
%TD*%
D11*
%TO.P,J179,1*%
%TO.N,N/C*%
X69935000Y-22835000D03*
%TD*%
D12*
%TO.P,J105,1*%
%TO.N,N/C*%
X89605000Y-26675000D03*
%TD*%
%TO.P,J103,1*%
%TO.N,N/C*%
X89605000Y-24255000D03*
%TD*%
%TO.P,J202,1*%
%TO.N,N/C*%
X86395000Y-43095000D03*
%TD*%
D11*
%TO.P,J33,1*%
%TO.N,N/C*%
X87395000Y-61555000D03*
%TD*%
D12*
%TO.P,J80,1*%
%TO.N,N/C*%
X47675000Y-46035001D03*
%TD*%
D11*
%TO.P,J59,1*%
%TO.N,N/C*%
X59565000Y-19625000D03*
%TD*%
%TO.P,J55,1*%
%TO.N,N/C*%
X64405000Y-19625000D03*
%TD*%
D12*
%TO.P,J97,1*%
%TO.N,N/C*%
X47675000Y-25465001D03*
%TD*%
%TO.P,J120,1*%
%TO.N,N/C*%
X89605000Y-44825000D03*
%TD*%
%TO.P,J199,1*%
%TO.N,N/C*%
X86395000Y-46724999D03*
%TD*%
%TO.P,J198,1*%
%TO.N,N/C*%
X86395000Y-47935000D03*
%TD*%
D11*
%TO.P,J156,1*%
%TO.N,N/C*%
X60084999Y-58345000D03*
%TD*%
D12*
%TO.P,J207,1*%
%TO.N,N/C*%
X86395000Y-37044999D03*
%TD*%
D11*
%TO.P,J152,1*%
%TO.N,N/C*%
X64924999Y-58345000D03*
%TD*%
%TO.P,J61,1*%
%TO.N,N/C*%
X57145000Y-19625000D03*
%TD*%
D12*
%TO.P,J117,1*%
%TO.N,N/C*%
X89605000Y-41195000D03*
%TD*%
D11*
%TO.P,J25,1*%
%TO.N,N/C*%
X77715000Y-61555000D03*
%TD*%
%TO.P,J182,1*%
%TO.N,N/C*%
X73565000Y-22835000D03*
%TD*%
%TO.P,J32,1*%
%TO.N,N/C*%
X86185000Y-61555000D03*
%TD*%
D12*
%TO.P,J78,1*%
%TO.N,N/C*%
X47675000Y-48455000D03*
%TD*%
%TO.P,J110,1*%
%TO.N,N/C*%
X89605000Y-32725000D03*
%TD*%
D11*
%TO.P,J140,1*%
%TO.N,N/C*%
X79445000Y-58345000D03*
%TD*%
%TO.P,J2,1*%
%TO.N,N/C*%
X49885000Y-61555000D03*
%TD*%
%TO.P,J6,1*%
%TO.N,N/C*%
X54725000Y-61555000D03*
%TD*%
D12*
%TO.P,J77,1*%
%TO.N,N/C*%
X47675000Y-49665000D03*
%TD*%
D11*
%TO.P,J44,1*%
%TO.N,N/C*%
X77715000Y-19625000D03*
%TD*%
%TO.P,J8,1*%
%TO.N,N/C*%
X57144999Y-61555000D03*
%TD*%
%TO.P,J160,1*%
%TO.N,N/C*%
X55244999Y-58345000D03*
%TD*%
D12*
%TO.P,J229,1*%
%TO.N,N/C*%
X50885000Y-35665000D03*
%TD*%
D11*
%TO.P,J159,1*%
%TO.N,N/C*%
X56454999Y-58345000D03*
%TD*%
D12*
%TO.P,J215,1*%
%TO.N,N/C*%
X86395000Y-27364999D03*
%TD*%
D11*
%TO.P,J30,1*%
%TO.N,N/C*%
X83765000Y-61555000D03*
%TD*%
D12*
%TO.P,J101,1*%
%TO.N,N/C*%
X89605000Y-21835000D03*
%TD*%
%TO.P,J127,1*%
%TO.N,N/C*%
X89605000Y-53295000D03*
%TD*%
D11*
%TO.P,J29,1*%
%TO.N,N/C*%
X82554999Y-61555000D03*
%TD*%
%TO.P,J62,1*%
%TO.N,N/C*%
X55935000Y-19625000D03*
%TD*%
D12*
%TO.P,J194,1*%
%TO.N,N/C*%
X86395000Y-52774999D03*
%TD*%
D11*
%TO.P,J54,1*%
%TO.N,N/C*%
X65615000Y-19625000D03*
%TD*%
%TO.P,J50,1*%
%TO.N,N/C*%
X70455000Y-19625000D03*
%TD*%
D14*
%TO.P,J250,1*%
%TO.N,N/C*%
X83402106Y-25827893D03*
%TD*%
D11*
%TO.P,J157,1*%
%TO.N,N/C*%
X58874999Y-58345000D03*
%TD*%
%TO.P,J167,1*%
%TO.N,N/C*%
X55415000Y-22835000D03*
%TD*%
D12*
%TO.P,J91,1*%
%TO.N,N/C*%
X47675000Y-32725001D03*
%TD*%
D11*
%TO.P,J181,1*%
%TO.N,N/C*%
X72355000Y-22835000D03*
%TD*%
%TO.P,J184,1*%
%TO.N,N/C*%
X75984999Y-22835000D03*
%TD*%
%TO.P,J183,1*%
%TO.N,N/C*%
X74775000Y-22835000D03*
%TD*%
%TO.P,J134,1*%
%TO.N,N/C*%
X86704999Y-58345000D03*
%TD*%
%TO.P,J142,1*%
%TO.N,N/C*%
X77024999Y-58345000D03*
%TD*%
%TO.P,J174,1*%
%TO.N,N/C*%
X63885000Y-22835000D03*
%TD*%
D12*
%TO.P,J76,1*%
%TO.N,N/C*%
X47675000Y-50875001D03*
%TD*%
%TO.P,J196,1*%
%TO.N,N/C*%
X86395000Y-50354999D03*
%TD*%
%TO.P,J116,1*%
%TO.N,N/C*%
X89605000Y-39985000D03*
%TD*%
D11*
%TO.P,J164,1*%
%TO.N,N/C*%
X51785000Y-22835000D03*
%TD*%
D15*
%TO.P,J249,1*%
%TO.N,N/C*%
X53877893Y-25827893D03*
%TD*%
D11*
%TO.P,J137,1*%
%TO.N,N/C*%
X83074999Y-58345000D03*
%TD*%
%TO.P,J189,1*%
%TO.N,N/C*%
X82035000Y-22835000D03*
%TD*%
D12*
%TO.P,J124,1*%
%TO.N,N/C*%
X89605000Y-49665000D03*
%TD*%
D11*
%TO.P,J169,1*%
%TO.N,N/C*%
X57834999Y-22835000D03*
%TD*%
D12*
%TO.P,J99,1*%
%TO.N,N/C*%
X47675000Y-23045000D03*
%TD*%
%TO.P,J86,1*%
%TO.N,N/C*%
X47675000Y-38775000D03*
%TD*%
D11*
%TO.P,J46,1*%
%TO.N,N/C*%
X75295001Y-19625000D03*
%TD*%
%TO.P,J39,1*%
%TO.N,N/C*%
X83765000Y-19625000D03*
%TD*%
D12*
%TO.P,J79,1*%
%TO.N,N/C*%
X47675000Y-47245000D03*
%TD*%
D11*
%TO.P,J48,1*%
%TO.N,N/C*%
X72875000Y-19625000D03*
%TD*%
D12*
%TO.P,J114,1*%
%TO.N,N/C*%
X89605000Y-37565000D03*
%TD*%
%TO.P,J109,1*%
%TO.N,N/C*%
X89605000Y-31515000D03*
%TD*%
D11*
%TO.P,J35,1*%
%TO.N,N/C*%
X88605000Y-19625000D03*
%TD*%
D12*
%TO.P,J89,1*%
%TO.N,N/C*%
X47675000Y-35145000D03*
%TD*%
%TO.P,J236,1*%
%TO.N,N/C*%
X50885000Y-44135000D03*
%TD*%
%TO.P,J119,1*%
%TO.N,N/C*%
X89605000Y-43615000D03*
%TD*%
%TO.P,J193,1*%
%TO.N,N/C*%
X86395000Y-53984999D03*
%TD*%
%TO.P,J104,1*%
%TO.N,N/C*%
X89605000Y-25465000D03*
%TD*%
D11*
%TO.P,J12,1*%
%TO.N,N/C*%
X61984999Y-61555000D03*
%TD*%
%TO.P,J165,1*%
%TO.N,N/C*%
X52995000Y-22835000D03*
%TD*%
%TO.P,J49,1*%
%TO.N,N/C*%
X71665001Y-19625000D03*
%TD*%
%TO.P,J171,1*%
%TO.N,N/C*%
X60255000Y-22835000D03*
%TD*%
%TO.P,J7,1*%
%TO.N,N/C*%
X55935000Y-61555000D03*
%TD*%
D12*
%TO.P,J87,1*%
%TO.N,N/C*%
X47675000Y-37565000D03*
%TD*%
%TO.P,J71,1*%
%TO.N,N/C*%
X47675000Y-56925000D03*
%TD*%
%TO.P,J115,1*%
%TO.N,N/C*%
X89605000Y-38774999D03*
%TD*%
D11*
%TO.P,J13,1*%
%TO.N,N/C*%
X63195000Y-61555000D03*
%TD*%
%TO.P,J188,1*%
%TO.N,N/C*%
X80825000Y-22835000D03*
%TD*%
%TO.P,J65,1*%
%TO.N,N/C*%
X52305000Y-19625000D03*
%TD*%
D12*
%TO.P,J217,1*%
%TO.N,N/C*%
X86395000Y-24944999D03*
%TD*%
%TO.P,J239,1*%
%TO.N,N/C*%
X50885000Y-47765000D03*
%TD*%
%TO.P,J210,1*%
%TO.N,N/C*%
X86395000Y-33414999D03*
%TD*%
D11*
%TO.P,J56,1*%
%TO.N,N/C*%
X63195000Y-19625000D03*
%TD*%
D12*
%TO.P,J95,1*%
%TO.N,N/C*%
X47675000Y-27885000D03*
%TD*%
%TO.P,J216,1*%
%TO.N,N/C*%
X86395000Y-26154999D03*
%TD*%
%TO.P,J122,1*%
%TO.N,N/C*%
X89605000Y-47245000D03*
%TD*%
D11*
%TO.P,J40,1*%
%TO.N,N/C*%
X82555000Y-19625000D03*
%TD*%
%TO.P,J176,1*%
%TO.N,N/C*%
X66304999Y-22835000D03*
%TD*%
D12*
%TO.P,J85,1*%
%TO.N,N/C*%
X47675000Y-39985000D03*
%TD*%
D11*
%TO.P,J47,1*%
%TO.N,N/C*%
X74085000Y-19625000D03*
%TD*%
D12*
%TO.P,J222,1*%
%TO.N,N/C*%
X50885000Y-27195000D03*
%TD*%
D11*
%TO.P,J64,1*%
%TO.N,N/C*%
X53515000Y-19625000D03*
%TD*%
%TO.P,J11,1*%
%TO.N,N/C*%
X60775000Y-61555000D03*
%TD*%
D12*
%TO.P,J84,1*%
%TO.N,N/C*%
X47675000Y-41195000D03*
%TD*%
D11*
%TO.P,J66,1*%
%TO.N,N/C*%
X51095000Y-19625000D03*
%TD*%
D12*
%TO.P,J227,1*%
%TO.N,N/C*%
X50885000Y-33244999D03*
%TD*%
%TO.P,J225,1*%
%TO.N,N/C*%
X50885000Y-30825000D03*
%TD*%
D11*
%TO.P,J24,1*%
%TO.N,N/C*%
X76505000Y-61555000D03*
%TD*%
%TO.P,J37,1*%
%TO.N,N/C*%
X86185000Y-19625000D03*
%TD*%
D12*
%TO.P,J113,1*%
%TO.N,N/C*%
X89605000Y-36355000D03*
%TD*%
D11*
%TO.P,J147,1*%
%TO.N,N/C*%
X70975000Y-58345000D03*
%TD*%
%TO.P,J5,1*%
%TO.N,N/C*%
X53515000Y-61555000D03*
%TD*%
D12*
%TO.P,J69,1*%
%TO.N,N/C*%
X47675000Y-59345000D03*
%TD*%
D11*
%TO.P,J38,1*%
%TO.N,N/C*%
X84975000Y-19625000D03*
%TD*%
D12*
%TO.P,J98,1*%
%TO.N,N/C*%
X47675000Y-24255000D03*
%TD*%
D11*
%TO.P,J139,1*%
%TO.N,N/C*%
X80654999Y-58345000D03*
%TD*%
D12*
%TO.P,J123,1*%
%TO.N,N/C*%
X89605000Y-48454999D03*
%TD*%
D11*
%TO.P,J168,1*%
%TO.N,N/C*%
X56625000Y-22835000D03*
%TD*%
%TO.P,J186,1*%
%TO.N,N/C*%
X78405000Y-22835000D03*
%TD*%
D12*
%TO.P,J228,1*%
%TO.N,N/C*%
X50885000Y-34455000D03*
%TD*%
D11*
%TO.P,J177,1*%
%TO.N,N/C*%
X67515000Y-22835000D03*
%TD*%
%TO.P,J20,1*%
%TO.N,N/C*%
X71665000Y-61555000D03*
%TD*%
%TO.P,J9,1*%
%TO.N,N/C*%
X58355000Y-61555000D03*
%TD*%
%TO.P,J154,1*%
%TO.N,N/C*%
X62504999Y-58345000D03*
%TD*%
%TO.P,J1,1*%
%TO.N,N/C*%
X48675000Y-61555000D03*
%TD*%
D12*
%TO.P,J231,1*%
%TO.N,N/C*%
X50885000Y-38084999D03*
%TD*%
%TO.P,J107,1*%
%TO.N,N/C*%
X89605000Y-29095000D03*
%TD*%
D11*
%TO.P,J146,1*%
%TO.N,N/C*%
X72184999Y-58345000D03*
%TD*%
%TO.P,J53,1*%
%TO.N,N/C*%
X66825000Y-19625000D03*
%TD*%
D12*
%TO.P,J197,1*%
%TO.N,N/C*%
X86395000Y-49144999D03*
%TD*%
D11*
%TO.P,J41,1*%
%TO.N,N/C*%
X81345000Y-19625000D03*
%TD*%
D12*
%TO.P,J128,1*%
%TO.N,N/C*%
X89605000Y-54505000D03*
%TD*%
%TO.P,J243,1*%
%TO.N,N/C*%
X50885000Y-52605000D03*
%TD*%
%TO.P,J238,1*%
%TO.N,N/C*%
X50885000Y-46555000D03*
%TD*%
D11*
%TO.P,J144,1*%
%TO.N,N/C*%
X74605000Y-58345000D03*
%TD*%
D12*
%TO.P,J241,1*%
%TO.N,N/C*%
X50885000Y-50185000D03*
%TD*%
D11*
%TO.P,J16,1*%
%TO.N,N/C*%
X66825000Y-61555000D03*
%TD*%
%TO.P,J158,1*%
%TO.N,N/C*%
X57664999Y-58345000D03*
%TD*%
%TO.P,J141,1*%
%TO.N,N/C*%
X78234999Y-58345000D03*
%TD*%
D12*
%TO.P,J94,1*%
%TO.N,N/C*%
X47675000Y-29095000D03*
%TD*%
%TO.P,J125,1*%
%TO.N,N/C*%
X89605000Y-50875000D03*
%TD*%
%TO.P,J219,1*%
%TO.N,N/C*%
X86395000Y-22525000D03*
%TD*%
%TO.P,J88,1*%
%TO.N,N/C*%
X47675000Y-36355000D03*
%TD*%
%TO.P,J73,1*%
%TO.N,N/C*%
X47675000Y-54505000D03*
%TD*%
%TO.P,J192,1*%
%TO.N,N/C*%
X86395000Y-55194999D03*
%TD*%
%TO.P,J230,1*%
%TO.N,N/C*%
X50885000Y-36875000D03*
%TD*%
%TO.P,J214,1*%
%TO.N,N/C*%
X86395000Y-28574999D03*
%TD*%
%TO.P,J112,1*%
%TO.N,N/C*%
X89605000Y-35144999D03*
%TD*%
%TO.P,J118,1*%
%TO.N,N/C*%
X89605000Y-42405000D03*
%TD*%
D11*
%TO.P,J28,1*%
%TO.N,N/C*%
X81345000Y-61555000D03*
%TD*%
D12*
%TO.P,J234,1*%
%TO.N,N/C*%
X50885000Y-41714999D03*
%TD*%
%TO.P,J121,1*%
%TO.N,N/C*%
X89605000Y-46035000D03*
%TD*%
%TO.P,J72,1*%
%TO.N,N/C*%
X47675000Y-55715000D03*
%TD*%
D11*
%TO.P,J15,1*%
%TO.N,N/C*%
X65614999Y-61555000D03*
%TD*%
%TO.P,J27,1*%
%TO.N,N/C*%
X80135000Y-61555000D03*
%TD*%
D12*
%TO.P,J70,1*%
%TO.N,N/C*%
X47675000Y-58135000D03*
%TD*%
D11*
%TO.P,J187,1*%
%TO.N,N/C*%
X79615000Y-22835000D03*
%TD*%
D12*
%TO.P,J244,1*%
%TO.N,N/C*%
X50885000Y-53815000D03*
%TD*%
%TO.P,J208,1*%
%TO.N,N/C*%
X86395000Y-35834999D03*
%TD*%
%TO.P,J106,1*%
%TO.N,N/C*%
X89605000Y-27885000D03*
%TD*%
D11*
%TO.P,J60,1*%
%TO.N,N/C*%
X58355000Y-19625000D03*
%TD*%
%TO.P,J180,1*%
%TO.N,N/C*%
X71145000Y-22835000D03*
%TD*%
D16*
%TO.P,J252,1*%
%TO.N,N/C*%
X83402106Y-55352107D03*
%TD*%
D11*
%TO.P,J42,1*%
%TO.N,N/C*%
X80135001Y-19625000D03*
%TD*%
%TO.P,J36,1*%
%TO.N,N/C*%
X87395000Y-19625000D03*
%TD*%
%TO.P,J3,1*%
%TO.N,N/C*%
X51095000Y-61555000D03*
%TD*%
D12*
%TO.P,J74,1*%
%TO.N,N/C*%
X47675000Y-53295000D03*
%TD*%
%TO.P,J223,1*%
%TO.N,N/C*%
X50885000Y-28405000D03*
%TD*%
%TO.P,J218,1*%
%TO.N,N/C*%
X86395000Y-23734999D03*
%TD*%
D11*
%TO.P,J14,1*%
%TO.N,N/C*%
X64405000Y-61555000D03*
%TD*%
D12*
%TO.P,J90,1*%
%TO.N,N/C*%
X47675000Y-33935000D03*
%TD*%
D11*
%TO.P,J52,1*%
%TO.N,N/C*%
X68035000Y-19625000D03*
%TD*%
D12*
%TO.P,J195,1*%
%TO.N,N/C*%
X86395000Y-51564999D03*
%TD*%
%TO.P,J102,1*%
%TO.N,N/C*%
X89605000Y-23045000D03*
%TD*%
%TO.P,J126,1*%
%TO.N,N/C*%
X89605000Y-52085000D03*
%TD*%
%TO.P,J93,1*%
%TO.N,N/C*%
X47675000Y-30305000D03*
%TD*%
D11*
%TO.P,J51,1*%
%TO.N,N/C*%
X69245000Y-19625000D03*
%TD*%
%TO.P,J26,1*%
%TO.N,N/C*%
X78925000Y-61555000D03*
%TD*%
%TO.P,J166,1*%
%TO.N,N/C*%
X54205000Y-22835000D03*
%TD*%
%TO.P,J43,1*%
%TO.N,N/C*%
X78925000Y-19625000D03*
%TD*%
D12*
%TO.P,J247,1*%
%TO.N,N/C*%
X50885000Y-57445000D03*
%TD*%
%TO.P,J129,1*%
%TO.N,N/C*%
X89605000Y-55714999D03*
%TD*%
%TO.P,J237,1*%
%TO.N,N/C*%
X50885000Y-45345000D03*
%TD*%
%TO.P,J211,1*%
%TO.N,N/C*%
X86395000Y-32204999D03*
%TD*%
D11*
%TO.P,J161,1*%
%TO.N,N/C*%
X54035000Y-58345000D03*
%TD*%
%TO.P,J155,1*%
%TO.N,N/C*%
X61295000Y-58345000D03*
%TD*%
%TO.P,J151,1*%
%TO.N,N/C*%
X66134999Y-58345000D03*
%TD*%
%TO.P,J149,1*%
%TO.N,N/C*%
X68554999Y-58345000D03*
%TD*%
D12*
%TO.P,J108,1*%
%TO.N,N/C*%
X89605000Y-30304999D03*
%TD*%
%TO.P,J132,1*%
%TO.N,N/C*%
X89605000Y-59345000D03*
%TD*%
D11*
%TO.P,J21,1*%
%TO.N,N/C*%
X72875000Y-61555000D03*
%TD*%
D17*
%TO.N,*%
X89635000Y-48455000D03*
X77715000Y-19595000D03*
X47645000Y-59345000D03*
X55415000Y-22865000D03*
X69935000Y-22865000D03*
X62505000Y-58315000D03*
X50915000Y-55025000D03*
X84285000Y-58315000D03*
X71665000Y-19595000D03*
X86365000Y-22525000D03*
X50915000Y-53815000D03*
X64405000Y-61585000D03*
X47645000Y-48455000D03*
X47645000Y-58135000D03*
X50915000Y-42925000D03*
X75985000Y-22865000D03*
X82555000Y-61585000D03*
X86365000Y-45515000D03*
X57835000Y-22865000D03*
X67515000Y-22865000D03*
X86185000Y-61585000D03*
X89635000Y-23045000D03*
X55935000Y-19595000D03*
X89635000Y-47245000D03*
X56455000Y-58315000D03*
X72355000Y-22865000D03*
X50915000Y-41715000D03*
X47645000Y-29095000D03*
X70975000Y-58315000D03*
X54725000Y-19595000D03*
X54725000Y-61585000D03*
X86365000Y-46725000D03*
X63195000Y-61585000D03*
X89635000Y-35145000D03*
X83765000Y-19595000D03*
X55245000Y-58315000D03*
X53515000Y-19595000D03*
X75815000Y-58315000D03*
X80825000Y-22865000D03*
X82035000Y-22865000D03*
X83075000Y-58315000D03*
X50915000Y-30825000D03*
X88605000Y-61585000D03*
X86185000Y-19595000D03*
X83765000Y-61585000D03*
X89635000Y-59345000D03*
X70455000Y-61585000D03*
X89635000Y-32725000D03*
X47645000Y-38775000D03*
X83245000Y-22865000D03*
X47645000Y-52085000D03*
X89635000Y-44825000D03*
X84975000Y-61585000D03*
X60255000Y-22865000D03*
X86365000Y-38255000D03*
X75295000Y-61585000D03*
X69245000Y-61585000D03*
X66305000Y-22865000D03*
X89635000Y-27885000D03*
X89635000Y-21835000D03*
X77025000Y-58315000D03*
X63715000Y-58315000D03*
X89635000Y-37565000D03*
X80135000Y-19595000D03*
X47645000Y-56925000D03*
X60085000Y-58315000D03*
X72875000Y-19595000D03*
X61985000Y-19595000D03*
X47645000Y-32725000D03*
X86365000Y-53985000D03*
X73565000Y-22865000D03*
X52305000Y-19595000D03*
X56625000Y-22865000D03*
X47645000Y-53295000D03*
X87395000Y-19595000D03*
X50915000Y-50185000D03*
X81345000Y-61585000D03*
X89635000Y-24255000D03*
X71145000Y-22865000D03*
X89635000Y-42405000D03*
X47645000Y-21835000D03*
X47645000Y-26675000D03*
X66825000Y-19595000D03*
X78925000Y-19595000D03*
X86365000Y-39465000D03*
X86365000Y-27365000D03*
X50915000Y-48975000D03*
X86365000Y-51565000D03*
X65095000Y-22865000D03*
X73395000Y-58315000D03*
X50915000Y-28405000D03*
X50915000Y-58655000D03*
X68725000Y-22865000D03*
X47645000Y-50875000D03*
X65615000Y-19595000D03*
X50915000Y-51395000D03*
X57665000Y-58315000D03*
X64925000Y-58315000D03*
X47645000Y-46035000D03*
X47645000Y-33935000D03*
X86365000Y-49145000D03*
X59045000Y-22865000D03*
X86365000Y-35835000D03*
X50915000Y-27195000D03*
X84975000Y-19595000D03*
X47645000Y-49665000D03*
X50915000Y-33245000D03*
X52995000Y-22865000D03*
X80135000Y-61585000D03*
X89635000Y-25465000D03*
X89635000Y-53295000D03*
X86365000Y-43095000D03*
X76505000Y-61585000D03*
X86365000Y-30995000D03*
X54205000Y-22865000D03*
X47645000Y-31515000D03*
X50575000Y-22865000D03*
X89635000Y-58135000D03*
X63885000Y-22865000D03*
X89635000Y-50875000D03*
X55935000Y-61585000D03*
X59565000Y-61585000D03*
X50915000Y-40505000D03*
X79615000Y-22865000D03*
X75295000Y-19595000D03*
X87395000Y-61585000D03*
X78235000Y-58315000D03*
X86365000Y-23735000D03*
X66135000Y-58315000D03*
X63195000Y-19595000D03*
X80655000Y-58315000D03*
X89635000Y-54505000D03*
X50915000Y-52605000D03*
X86365000Y-29785000D03*
X53877893Y-55352107D03*
X57145000Y-19595000D03*
X47645000Y-24255000D03*
X72875000Y-61585000D03*
X50915000Y-45345000D03*
X88605000Y-19595000D03*
X89635000Y-26675000D03*
X47645000Y-47245000D03*
X86365000Y-44305000D03*
X50915000Y-32035000D03*
X89635000Y-39985000D03*
X48675000Y-19595000D03*
X58355000Y-61585000D03*
X89635000Y-56925000D03*
X50915000Y-36875000D03*
X83325257Y-25904741D03*
X50915000Y-29615000D03*
X50915000Y-25985000D03*
X50915000Y-47765000D03*
X89635000Y-29095000D03*
X60775000Y-61585000D03*
X86365000Y-47935000D03*
X60775000Y-19595000D03*
X47645000Y-37565000D03*
X47645000Y-23045000D03*
X69245000Y-19595000D03*
X47645000Y-27885000D03*
X50915000Y-46555000D03*
X89635000Y-30305000D03*
X76505000Y-19595000D03*
X53515000Y-61585000D03*
X78405000Y-22865000D03*
X51095000Y-19595000D03*
X86365000Y-37045000D03*
X72185000Y-58315000D03*
X89635000Y-36355000D03*
X57145000Y-61585000D03*
X89635000Y-49665000D03*
X82555000Y-19595000D03*
X74085000Y-61585000D03*
X59565000Y-19595000D03*
X86365000Y-50355000D03*
X70455000Y-19595000D03*
X51785000Y-22865000D03*
X58355000Y-19595000D03*
X47645000Y-42405000D03*
X86365000Y-52775000D03*
X64405000Y-19595000D03*
X71665000Y-61585000D03*
X50915000Y-44135000D03*
X89635000Y-52085000D03*
X86365000Y-28575000D03*
X79445000Y-58315000D03*
X61985000Y-61585000D03*
X68035000Y-61585000D03*
X77195000Y-22865000D03*
X61295000Y-58315000D03*
X50915000Y-39295000D03*
X86365000Y-34625000D03*
X49885000Y-19595000D03*
X67345000Y-58315000D03*
X47645000Y-55715000D03*
X89635000Y-33935000D03*
X86365000Y-26155000D03*
X62675000Y-22865000D03*
X47645000Y-41195000D03*
X50915000Y-38085000D03*
X50915000Y-57445000D03*
X47645000Y-44825000D03*
X47645000Y-39985000D03*
X47645000Y-35145000D03*
X83402106Y-55352107D03*
X89635000Y-31515000D03*
X49885000Y-61585000D03*
X47645000Y-25465000D03*
X86365000Y-40675000D03*
X47645000Y-54505000D03*
X77715000Y-61585000D03*
X50915000Y-34455000D03*
X50915000Y-35665000D03*
X69765000Y-58315000D03*
X85495000Y-58315000D03*
X68555000Y-58315000D03*
X47645000Y-43615000D03*
X74775000Y-22865000D03*
X74605000Y-58315000D03*
X89635000Y-55715000D03*
X86365000Y-55195000D03*
X81345000Y-19595000D03*
X86365000Y-33415000D03*
X89635000Y-46035000D03*
X89635000Y-41195000D03*
X58875000Y-58315000D03*
X52305000Y-61585000D03*
X66825000Y-61585000D03*
X47645000Y-36355000D03*
X86365000Y-32205000D03*
X68035000Y-19595000D03*
X54035000Y-58315000D03*
X61465000Y-22865000D03*
X86365000Y-24945000D03*
X89635000Y-43615000D03*
X78925000Y-61585000D03*
X50915000Y-56235000D03*
X47645000Y-30305000D03*
X86365000Y-41885000D03*
X74085000Y-19595000D03*
X48675000Y-61585000D03*
X89635000Y-38775000D03*
X65615000Y-61585000D03*
X81865000Y-58315000D03*
X51095000Y-61585000D03*
X53877893Y-25827893D03*
X86705000Y-58315000D03*
%TD*%
M02*
