M48
; DRILL file {KiCad 6.0.11-2627ca5db0~126~ubuntu22.04.1} date Wed 17 Jan 2024 01:21:29 AM CST
; FORMAT={-:-/ absolute / metric / decimal}
; #@! TF.CreationDate,2024-01-17T01:21:29-06:00
; #@! TF.GenerationSoftware,Kicad,Pcbnew,6.0.11-2627ca5db0~126~ubuntu22.04.1
; #@! TF.FileFunction,Plated,1,2,PTH
FMAT,2
METRIC
; #@! TA.AperFunction,Plated,PTH,ViaDrill
T1C0.400
; #@! TA.AperFunction,Plated,PTH,ComponentDrill
T2C2.700
%
G90
G05
T1
X47.645Y-21.835
X47.645Y-23.045
X47.645Y-24.255
X47.645Y-25.465
X47.645Y-26.675
X47.645Y-27.885
X47.645Y-29.095
X47.645Y-30.305
X47.645Y-31.515
X47.645Y-32.725
X47.645Y-33.935
X47.645Y-35.145
X47.645Y-36.355
X47.645Y-37.565
X47.645Y-38.775
X47.645Y-39.985
X47.645Y-41.195
X47.645Y-42.405
X47.645Y-43.615
X47.645Y-44.825
X47.645Y-46.035
X47.645Y-47.245
X47.645Y-48.455
X47.645Y-49.665
X47.645Y-50.875
X47.645Y-52.085
X47.645Y-53.295
X47.645Y-54.505
X47.645Y-55.715
X47.645Y-56.925
X47.645Y-58.135
X47.645Y-59.345
X48.675Y-19.595
X48.675Y-61.585
X49.885Y-19.595
X49.885Y-61.585
X50.575Y-22.865
X50.915Y-25.985
X50.915Y-27.195
X50.915Y-28.405
X50.915Y-29.615
X50.915Y-30.825
X50.915Y-32.035
X50.915Y-33.245
X50.915Y-34.455
X50.915Y-35.665
X50.915Y-36.875
X50.915Y-38.085
X50.915Y-39.295
X50.915Y-40.505
X50.915Y-41.715
X50.915Y-42.925
X50.915Y-44.135
X50.915Y-45.345
X50.915Y-46.555
X50.915Y-47.765
X50.915Y-48.975
X50.915Y-50.185
X50.915Y-51.395
X50.915Y-52.605
X50.915Y-53.815
X50.915Y-55.025
X50.915Y-56.235
X50.915Y-57.445
X50.915Y-58.655
X51.095Y-19.595
X51.095Y-61.585
X51.785Y-22.865
X52.305Y-19.595
X52.305Y-61.585
X52.995Y-22.865
X53.515Y-19.595
X53.515Y-61.585
X53.878Y-25.828
X53.878Y-55.352
X54.035Y-58.315
X54.205Y-22.865
X54.725Y-19.595
X54.725Y-61.585
X55.245Y-58.315
X55.415Y-22.865
X55.935Y-19.595
X55.935Y-61.585
X56.455Y-58.315
X56.625Y-22.865
X57.145Y-19.595
X57.145Y-61.585
X57.665Y-58.315
X57.835Y-22.865
X58.355Y-19.595
X58.355Y-61.585
X58.875Y-58.315
X59.045Y-22.865
X59.565Y-19.595
X59.565Y-61.585
X60.085Y-58.315
X60.255Y-22.865
X60.775Y-19.595
X60.775Y-61.585
X61.295Y-58.315
X61.465Y-22.865
X61.985Y-19.595
X61.985Y-61.585
X62.505Y-58.315
X62.675Y-22.865
X63.195Y-19.595
X63.195Y-61.585
X63.715Y-58.315
X63.885Y-22.865
X64.405Y-19.595
X64.405Y-61.585
X64.925Y-58.315
X65.095Y-22.865
X65.615Y-19.595
X65.615Y-61.585
X66.135Y-58.315
X66.305Y-22.865
X66.825Y-19.595
X66.825Y-61.585
X67.345Y-58.315
X67.515Y-22.865
X68.035Y-19.595
X68.035Y-61.585
X68.555Y-58.315
X68.725Y-22.865
X69.245Y-19.595
X69.245Y-61.585
X69.765Y-58.315
X69.935Y-22.865
X70.455Y-19.595
X70.455Y-61.585
X70.975Y-58.315
X71.145Y-22.865
X71.665Y-19.595
X71.665Y-61.585
X72.185Y-58.315
X72.355Y-22.865
X72.875Y-19.595
X72.875Y-61.585
X73.395Y-58.315
X73.565Y-22.865
X74.085Y-19.595
X74.085Y-61.585
X74.605Y-58.315
X74.775Y-22.865
X75.295Y-19.595
X75.295Y-61.585
X75.815Y-58.315
X75.985Y-22.865
X76.505Y-19.595
X76.505Y-61.585
X77.025Y-58.315
X77.195Y-22.865
X77.715Y-19.595
X77.715Y-61.585
X78.235Y-58.315
X78.405Y-22.865
X78.925Y-19.595
X78.925Y-61.585
X79.445Y-58.315
X79.615Y-22.865
X80.135Y-19.595
X80.135Y-61.585
X80.655Y-58.315
X80.825Y-22.865
X81.345Y-19.595
X81.345Y-61.585
X81.865Y-58.315
X82.035Y-22.865
X82.555Y-19.595
X82.555Y-61.585
X83.075Y-58.315
X83.245Y-22.865
X83.325Y-25.905
X83.402Y-55.352
X83.765Y-19.595
X83.765Y-61.585
X84.285Y-58.315
X84.975Y-19.595
X84.975Y-61.585
X85.495Y-58.315
X86.185Y-19.595
X86.185Y-61.585
X86.365Y-22.525
X86.365Y-23.735
X86.365Y-24.945
X86.365Y-26.155
X86.365Y-27.365
X86.365Y-28.575
X86.365Y-29.785
X86.365Y-30.995
X86.365Y-32.205
X86.365Y-33.415
X86.365Y-34.625
X86.365Y-35.835
X86.365Y-37.045
X86.365Y-38.255
X86.365Y-39.465
X86.365Y-40.675
X86.365Y-41.885
X86.365Y-43.095
X86.365Y-44.305
X86.365Y-45.515
X86.365Y-46.725
X86.365Y-47.935
X86.365Y-49.145
X86.365Y-50.355
X86.365Y-51.565
X86.365Y-52.775
X86.365Y-53.985
X86.365Y-55.195
X86.705Y-58.315
X87.395Y-19.595
X87.395Y-61.585
X88.605Y-19.595
X88.605Y-61.585
X89.635Y-21.835
X89.635Y-23.045
X89.635Y-24.255
X89.635Y-25.465
X89.635Y-26.675
X89.635Y-27.885
X89.635Y-29.095
X89.635Y-30.305
X89.635Y-31.515
X89.635Y-32.725
X89.635Y-33.935
X89.635Y-35.145
X89.635Y-36.355
X89.635Y-37.565
X89.635Y-38.775
X89.635Y-39.985
X89.635Y-41.195
X89.635Y-42.405
X89.635Y-43.615
X89.635Y-44.825
X89.635Y-46.035
X89.635Y-47.245
X89.635Y-48.455
X89.635Y-49.665
X89.635Y-50.875
X89.635Y-52.085
X89.635Y-53.295
X89.635Y-54.505
X89.635Y-55.715
X89.635Y-56.925
X89.635Y-58.135
X89.635Y-59.345
T2
X41.64Y-13.59
X41.64Y-67.59
X95.64Y-13.59
X95.64Y-67.59
T0
M30
