%TF.GenerationSoftware,KiCad,Pcbnew,6.0.11-2627ca5db0~126~ubuntu22.04.1*%
%TF.CreationDate,2024-01-17T01:21:31-06:00*%
%TF.ProjectId,mea_breakout,6d65615f-6272-4656-916b-6f75742e6b69,1*%
%TF.SameCoordinates,Original*%
%TF.FileFunction,Soldermask,Bot*%
%TF.FilePolarity,Negative*%
%FSLAX46Y46*%
G04 Gerber Fmt 4.6, Leading zero omitted, Abs format (unit mm)*
G04 Created by KiCad (PCBNEW 6.0.11-2627ca5db0~126~ubuntu22.04.1) date 2024-01-17 01:21:31*
%MOMM*%
%LPD*%
G01*
G04 APERTURE LIST*
G04 Aperture macros list*
%AMRotRect*
0 Rectangle, with rotation*
0 The origin of the aperture is its center*
0 $1 length*
0 $2 width*
0 $3 Rotation angle, in degrees counterclockwise*
0 Add horizontal line*
21,1,$1,$2,0,0,$3*%
G04 Aperture macros list end*
%ADD10C,4.500000*%
%ADD11R,1.000000X2.000000*%
%ADD12R,2.000000X1.000000*%
%ADD13RotRect,2.000000X1.000000X225.000000*%
%ADD14RotRect,2.000000X1.000000X45.000000*%
%ADD15RotRect,2.000000X1.000000X135.000000*%
%ADD16RotRect,2.000000X1.000000X315.000000*%
G04 APERTURE END LIST*
D10*
%TO.C,H4*%
X95640000Y-67590000D03*
%TD*%
%TO.C,H3*%
X41640000Y-67590000D03*
%TD*%
%TO.C,H2*%
X95640000Y-13590000D03*
%TD*%
%TO.C,H1*%
X41640000Y-13590000D03*
%TD*%
D11*
%TO.C,J190*%
X83244999Y-22835000D03*
%TD*%
D12*
%TO.C,J248*%
X50885000Y-58654999D03*
%TD*%
D11*
%TO.C,J150*%
X67344999Y-58345000D03*
%TD*%
%TO.C,J34*%
X88605000Y-61555000D03*
%TD*%
D12*
%TO.C,J212*%
X86395000Y-30994999D03*
%TD*%
%TO.C,J200*%
X86395000Y-45514999D03*
%TD*%
%TO.C,J224*%
X50885000Y-29615000D03*
%TD*%
%TO.C,J131*%
X89605000Y-58135000D03*
%TD*%
D11*
%TO.C,J45*%
X76505000Y-19625000D03*
%TD*%
D12*
%TO.C,J233*%
X50885000Y-40505000D03*
%TD*%
D11*
%TO.C,J178*%
X68725000Y-22835000D03*
%TD*%
%TO.C,J136*%
X84284999Y-58345000D03*
%TD*%
%TO.C,J185*%
X77195000Y-22835000D03*
%TD*%
D12*
%TO.C,J221*%
X50885000Y-25985000D03*
%TD*%
%TO.C,J226*%
X50885000Y-32035000D03*
%TD*%
%TO.C,J246*%
X50885000Y-56235000D03*
%TD*%
D11*
%TO.C,J175*%
X65095000Y-22835000D03*
%TD*%
%TO.C,J57*%
X61985001Y-19625000D03*
%TD*%
D12*
%TO.C,J232*%
X50885000Y-39295000D03*
%TD*%
%TO.C,J235*%
X50885000Y-42925000D03*
%TD*%
%TO.C,J242*%
X50885000Y-51394999D03*
%TD*%
D11*
%TO.C,J170*%
X59045000Y-22835000D03*
%TD*%
%TO.C,J67*%
X49885000Y-19625000D03*
%TD*%
%TO.C,J68*%
X48675000Y-19625000D03*
%TD*%
%TO.C,J4*%
X52305000Y-61555000D03*
%TD*%
%TO.C,J18*%
X69245000Y-61555000D03*
%TD*%
%TO.C,J172*%
X61465000Y-22835000D03*
%TD*%
%TO.C,J31*%
X84975000Y-61555000D03*
%TD*%
D12*
%TO.C,J96*%
X47675000Y-26675000D03*
%TD*%
%TO.C,J92*%
X47675000Y-31515000D03*
%TD*%
%TO.C,J130*%
X89605000Y-56925000D03*
%TD*%
D11*
%TO.C,J135*%
X85494999Y-58345000D03*
%TD*%
%TO.C,J23*%
X75294999Y-61555000D03*
%TD*%
D12*
%TO.C,J213*%
X86395000Y-29785000D03*
%TD*%
%TO.C,J205*%
X86395000Y-39465000D03*
%TD*%
%TO.C,J240*%
X50885000Y-48975000D03*
%TD*%
D11*
%TO.C,J138*%
X81864999Y-58345000D03*
%TD*%
%TO.C,J145*%
X73394999Y-58345000D03*
%TD*%
D12*
%TO.C,J81*%
X47675000Y-44825000D03*
%TD*%
D13*
%TO.C,J251*%
X53877893Y-55352107D03*
%TD*%
D11*
%TO.C,J153*%
X63714999Y-58345000D03*
%TD*%
D12*
%TO.C,J75*%
X47675000Y-52085000D03*
%TD*%
D11*
%TO.C,J148*%
X69764999Y-58345000D03*
%TD*%
D12*
%TO.C,J204*%
X86395000Y-40674999D03*
%TD*%
%TO.C,J209*%
X86395000Y-34624999D03*
%TD*%
%TO.C,J83*%
X47675000Y-42405001D03*
%TD*%
%TO.C,J206*%
X86395000Y-38254999D03*
%TD*%
D11*
%TO.C,J58*%
X60775000Y-19625000D03*
%TD*%
%TO.C,J173*%
X62674999Y-22835000D03*
%TD*%
D12*
%TO.C,J203*%
X86395000Y-41884999D03*
%TD*%
D11*
%TO.C,J143*%
X75814999Y-58345000D03*
%TD*%
%TO.C,J10*%
X59565000Y-61555000D03*
%TD*%
%TO.C,J163*%
X50575000Y-22835000D03*
%TD*%
%TO.C,J17*%
X68035000Y-61555000D03*
%TD*%
D12*
%TO.C,J245*%
X50885000Y-55025000D03*
%TD*%
%TO.C,J111*%
X89605000Y-33935000D03*
%TD*%
%TO.C,J82*%
X47675000Y-43615000D03*
%TD*%
D11*
%TO.C,J63*%
X54725001Y-19625000D03*
%TD*%
D12*
%TO.C,J100*%
X47675000Y-21835000D03*
%TD*%
D11*
%TO.C,J19*%
X70455000Y-61555000D03*
%TD*%
%TO.C,J22*%
X74085000Y-61555000D03*
%TD*%
D12*
%TO.C,J201*%
X86395000Y-44304999D03*
%TD*%
D11*
%TO.C,J179*%
X69935000Y-22835000D03*
%TD*%
D12*
%TO.C,J105*%
X89605000Y-26675000D03*
%TD*%
%TO.C,J103*%
X89605000Y-24255000D03*
%TD*%
%TO.C,J202*%
X86395000Y-43095000D03*
%TD*%
D11*
%TO.C,J33*%
X87395000Y-61555000D03*
%TD*%
D12*
%TO.C,J80*%
X47675000Y-46035001D03*
%TD*%
D11*
%TO.C,J59*%
X59565000Y-19625000D03*
%TD*%
%TO.C,J55*%
X64405000Y-19625000D03*
%TD*%
D12*
%TO.C,J97*%
X47675000Y-25465001D03*
%TD*%
%TO.C,J120*%
X89605000Y-44825000D03*
%TD*%
%TO.C,J199*%
X86395000Y-46724999D03*
%TD*%
%TO.C,J198*%
X86395000Y-47935000D03*
%TD*%
D11*
%TO.C,J156*%
X60084999Y-58345000D03*
%TD*%
D12*
%TO.C,J207*%
X86395000Y-37044999D03*
%TD*%
D11*
%TO.C,J152*%
X64924999Y-58345000D03*
%TD*%
%TO.C,J61*%
X57145000Y-19625000D03*
%TD*%
D12*
%TO.C,J117*%
X89605000Y-41195000D03*
%TD*%
D11*
%TO.C,J25*%
X77715000Y-61555000D03*
%TD*%
%TO.C,J182*%
X73565000Y-22835000D03*
%TD*%
%TO.C,J32*%
X86185000Y-61555000D03*
%TD*%
D12*
%TO.C,J78*%
X47675000Y-48455000D03*
%TD*%
%TO.C,J110*%
X89605000Y-32725000D03*
%TD*%
D11*
%TO.C,J140*%
X79445000Y-58345000D03*
%TD*%
%TO.C,J2*%
X49885000Y-61555000D03*
%TD*%
%TO.C,J6*%
X54725000Y-61555000D03*
%TD*%
D12*
%TO.C,J77*%
X47675000Y-49665000D03*
%TD*%
D11*
%TO.C,J44*%
X77715000Y-19625000D03*
%TD*%
%TO.C,J8*%
X57144999Y-61555000D03*
%TD*%
%TO.C,J160*%
X55244999Y-58345000D03*
%TD*%
D12*
%TO.C,J229*%
X50885000Y-35665000D03*
%TD*%
D11*
%TO.C,J159*%
X56454999Y-58345000D03*
%TD*%
D12*
%TO.C,J215*%
X86395000Y-27364999D03*
%TD*%
D11*
%TO.C,J30*%
X83765000Y-61555000D03*
%TD*%
D12*
%TO.C,J101*%
X89605000Y-21835000D03*
%TD*%
%TO.C,J127*%
X89605000Y-53295000D03*
%TD*%
D11*
%TO.C,J29*%
X82554999Y-61555000D03*
%TD*%
%TO.C,J62*%
X55935000Y-19625000D03*
%TD*%
D12*
%TO.C,J194*%
X86395000Y-52774999D03*
%TD*%
D11*
%TO.C,J54*%
X65615000Y-19625000D03*
%TD*%
%TO.C,J50*%
X70455000Y-19625000D03*
%TD*%
D14*
%TO.C,J250*%
X83402106Y-25827893D03*
%TD*%
D11*
%TO.C,J157*%
X58874999Y-58345000D03*
%TD*%
%TO.C,J167*%
X55415000Y-22835000D03*
%TD*%
D12*
%TO.C,J91*%
X47675000Y-32725001D03*
%TD*%
D11*
%TO.C,J181*%
X72355000Y-22835000D03*
%TD*%
%TO.C,J184*%
X75984999Y-22835000D03*
%TD*%
%TO.C,J183*%
X74775000Y-22835000D03*
%TD*%
%TO.C,J134*%
X86704999Y-58345000D03*
%TD*%
%TO.C,J142*%
X77024999Y-58345000D03*
%TD*%
%TO.C,J174*%
X63885000Y-22835000D03*
%TD*%
D12*
%TO.C,J76*%
X47675000Y-50875001D03*
%TD*%
%TO.C,J196*%
X86395000Y-50354999D03*
%TD*%
%TO.C,J116*%
X89605000Y-39985000D03*
%TD*%
D11*
%TO.C,J164*%
X51785000Y-22835000D03*
%TD*%
D15*
%TO.C,J249*%
X53877893Y-25827893D03*
%TD*%
D11*
%TO.C,J137*%
X83074999Y-58345000D03*
%TD*%
%TO.C,J189*%
X82035000Y-22835000D03*
%TD*%
D12*
%TO.C,J124*%
X89605000Y-49665000D03*
%TD*%
D11*
%TO.C,J169*%
X57834999Y-22835000D03*
%TD*%
D12*
%TO.C,J99*%
X47675000Y-23045000D03*
%TD*%
%TO.C,J86*%
X47675000Y-38775000D03*
%TD*%
D11*
%TO.C,J46*%
X75295001Y-19625000D03*
%TD*%
%TO.C,J39*%
X83765000Y-19625000D03*
%TD*%
D12*
%TO.C,J79*%
X47675000Y-47245000D03*
%TD*%
D11*
%TO.C,J48*%
X72875000Y-19625000D03*
%TD*%
D12*
%TO.C,J114*%
X89605000Y-37565000D03*
%TD*%
%TO.C,J109*%
X89605000Y-31515000D03*
%TD*%
D11*
%TO.C,J35*%
X88605000Y-19625000D03*
%TD*%
D12*
%TO.C,J89*%
X47675000Y-35145000D03*
%TD*%
%TO.C,J236*%
X50885000Y-44135000D03*
%TD*%
%TO.C,J119*%
X89605000Y-43615000D03*
%TD*%
%TO.C,J193*%
X86395000Y-53984999D03*
%TD*%
%TO.C,J104*%
X89605000Y-25465000D03*
%TD*%
D11*
%TO.C,J12*%
X61984999Y-61555000D03*
%TD*%
%TO.C,J165*%
X52995000Y-22835000D03*
%TD*%
%TO.C,J49*%
X71665001Y-19625000D03*
%TD*%
%TO.C,J171*%
X60255000Y-22835000D03*
%TD*%
%TO.C,J7*%
X55935000Y-61555000D03*
%TD*%
D12*
%TO.C,J87*%
X47675000Y-37565000D03*
%TD*%
%TO.C,J71*%
X47675000Y-56925000D03*
%TD*%
%TO.C,J115*%
X89605000Y-38774999D03*
%TD*%
D11*
%TO.C,J13*%
X63195000Y-61555000D03*
%TD*%
%TO.C,J188*%
X80825000Y-22835000D03*
%TD*%
%TO.C,J65*%
X52305000Y-19625000D03*
%TD*%
D12*
%TO.C,J217*%
X86395000Y-24944999D03*
%TD*%
%TO.C,J239*%
X50885000Y-47765000D03*
%TD*%
%TO.C,J210*%
X86395000Y-33414999D03*
%TD*%
D11*
%TO.C,J56*%
X63195000Y-19625000D03*
%TD*%
D12*
%TO.C,J95*%
X47675000Y-27885000D03*
%TD*%
%TO.C,J216*%
X86395000Y-26154999D03*
%TD*%
%TO.C,J122*%
X89605000Y-47245000D03*
%TD*%
D11*
%TO.C,J40*%
X82555000Y-19625000D03*
%TD*%
%TO.C,J176*%
X66304999Y-22835000D03*
%TD*%
D12*
%TO.C,J85*%
X47675000Y-39985000D03*
%TD*%
D11*
%TO.C,J47*%
X74085000Y-19625000D03*
%TD*%
D12*
%TO.C,J222*%
X50885000Y-27195000D03*
%TD*%
D11*
%TO.C,J64*%
X53515000Y-19625000D03*
%TD*%
%TO.C,J11*%
X60775000Y-61555000D03*
%TD*%
D12*
%TO.C,J84*%
X47675000Y-41195000D03*
%TD*%
D11*
%TO.C,J66*%
X51095000Y-19625000D03*
%TD*%
D12*
%TO.C,J227*%
X50885000Y-33244999D03*
%TD*%
%TO.C,J225*%
X50885000Y-30825000D03*
%TD*%
D11*
%TO.C,J24*%
X76505000Y-61555000D03*
%TD*%
%TO.C,J37*%
X86185000Y-19625000D03*
%TD*%
D12*
%TO.C,J113*%
X89605000Y-36355000D03*
%TD*%
D11*
%TO.C,J147*%
X70975000Y-58345000D03*
%TD*%
%TO.C,J5*%
X53515000Y-61555000D03*
%TD*%
D12*
%TO.C,J69*%
X47675000Y-59345000D03*
%TD*%
D11*
%TO.C,J38*%
X84975000Y-19625000D03*
%TD*%
D12*
%TO.C,J98*%
X47675000Y-24255000D03*
%TD*%
D11*
%TO.C,J139*%
X80654999Y-58345000D03*
%TD*%
D12*
%TO.C,J123*%
X89605000Y-48454999D03*
%TD*%
D11*
%TO.C,J168*%
X56625000Y-22835000D03*
%TD*%
%TO.C,J186*%
X78405000Y-22835000D03*
%TD*%
D12*
%TO.C,J228*%
X50885000Y-34455000D03*
%TD*%
D11*
%TO.C,J177*%
X67515000Y-22835000D03*
%TD*%
%TO.C,J20*%
X71665000Y-61555000D03*
%TD*%
%TO.C,J9*%
X58355000Y-61555000D03*
%TD*%
%TO.C,J154*%
X62504999Y-58345000D03*
%TD*%
%TO.C,J1*%
X48675000Y-61555000D03*
%TD*%
D12*
%TO.C,J231*%
X50885000Y-38084999D03*
%TD*%
%TO.C,J107*%
X89605000Y-29095000D03*
%TD*%
D11*
%TO.C,J146*%
X72184999Y-58345000D03*
%TD*%
%TO.C,J53*%
X66825000Y-19625000D03*
%TD*%
D12*
%TO.C,J197*%
X86395000Y-49144999D03*
%TD*%
D11*
%TO.C,J41*%
X81345000Y-19625000D03*
%TD*%
D12*
%TO.C,J128*%
X89605000Y-54505000D03*
%TD*%
%TO.C,J243*%
X50885000Y-52605000D03*
%TD*%
%TO.C,J238*%
X50885000Y-46555000D03*
%TD*%
D11*
%TO.C,J144*%
X74605000Y-58345000D03*
%TD*%
D12*
%TO.C,J241*%
X50885000Y-50185000D03*
%TD*%
D11*
%TO.C,J16*%
X66825000Y-61555000D03*
%TD*%
%TO.C,J158*%
X57664999Y-58345000D03*
%TD*%
%TO.C,J141*%
X78234999Y-58345000D03*
%TD*%
D12*
%TO.C,J94*%
X47675000Y-29095000D03*
%TD*%
%TO.C,J125*%
X89605000Y-50875000D03*
%TD*%
%TO.C,J219*%
X86395000Y-22525000D03*
%TD*%
%TO.C,J88*%
X47675000Y-36355000D03*
%TD*%
%TO.C,J73*%
X47675000Y-54505000D03*
%TD*%
%TO.C,J192*%
X86395000Y-55194999D03*
%TD*%
%TO.C,J230*%
X50885000Y-36875000D03*
%TD*%
%TO.C,J214*%
X86395000Y-28574999D03*
%TD*%
%TO.C,J112*%
X89605000Y-35144999D03*
%TD*%
%TO.C,J118*%
X89605000Y-42405000D03*
%TD*%
D11*
%TO.C,J28*%
X81345000Y-61555000D03*
%TD*%
D12*
%TO.C,J234*%
X50885000Y-41714999D03*
%TD*%
%TO.C,J121*%
X89605000Y-46035000D03*
%TD*%
%TO.C,J72*%
X47675000Y-55715000D03*
%TD*%
D11*
%TO.C,J15*%
X65614999Y-61555000D03*
%TD*%
%TO.C,J27*%
X80135000Y-61555000D03*
%TD*%
D12*
%TO.C,J70*%
X47675000Y-58135000D03*
%TD*%
D11*
%TO.C,J187*%
X79615000Y-22835000D03*
%TD*%
D12*
%TO.C,J244*%
X50885000Y-53815000D03*
%TD*%
%TO.C,J208*%
X86395000Y-35834999D03*
%TD*%
%TO.C,J106*%
X89605000Y-27885000D03*
%TD*%
D11*
%TO.C,J60*%
X58355000Y-19625000D03*
%TD*%
%TO.C,J180*%
X71145000Y-22835000D03*
%TD*%
D16*
%TO.C,J252*%
X83402106Y-55352107D03*
%TD*%
D11*
%TO.C,J42*%
X80135001Y-19625000D03*
%TD*%
%TO.C,J36*%
X87395000Y-19625000D03*
%TD*%
%TO.C,J3*%
X51095000Y-61555000D03*
%TD*%
D12*
%TO.C,J74*%
X47675000Y-53295000D03*
%TD*%
%TO.C,J223*%
X50885000Y-28405000D03*
%TD*%
%TO.C,J218*%
X86395000Y-23734999D03*
%TD*%
D11*
%TO.C,J14*%
X64405000Y-61555000D03*
%TD*%
D12*
%TO.C,J90*%
X47675000Y-33935000D03*
%TD*%
D11*
%TO.C,J52*%
X68035000Y-19625000D03*
%TD*%
D12*
%TO.C,J195*%
X86395000Y-51564999D03*
%TD*%
%TO.C,J102*%
X89605000Y-23045000D03*
%TD*%
%TO.C,J126*%
X89605000Y-52085000D03*
%TD*%
%TO.C,J93*%
X47675000Y-30305000D03*
%TD*%
D11*
%TO.C,J51*%
X69245000Y-19625000D03*
%TD*%
%TO.C,J26*%
X78925000Y-61555000D03*
%TD*%
%TO.C,J166*%
X54205000Y-22835000D03*
%TD*%
%TO.C,J43*%
X78925000Y-19625000D03*
%TD*%
D12*
%TO.C,J247*%
X50885000Y-57445000D03*
%TD*%
%TO.C,J129*%
X89605000Y-55714999D03*
%TD*%
%TO.C,J237*%
X50885000Y-45345000D03*
%TD*%
%TO.C,J211*%
X86395000Y-32204999D03*
%TD*%
D11*
%TO.C,J161*%
X54035000Y-58345000D03*
%TD*%
%TO.C,J155*%
X61295000Y-58345000D03*
%TD*%
%TO.C,J151*%
X66134999Y-58345000D03*
%TD*%
%TO.C,J149*%
X68554999Y-58345000D03*
%TD*%
D12*
%TO.C,J108*%
X89605000Y-30304999D03*
%TD*%
%TO.C,J132*%
X89605000Y-59345000D03*
%TD*%
D11*
%TO.C,J21*%
X72875000Y-61555000D03*
%TD*%
M02*
