%TF.GenerationSoftware,KiCad,Pcbnew,6.0.11-2627ca5db0~126~ubuntu22.04.1*%
%TF.CreationDate,2024-01-17T01:21:31-06:00*%
%TF.ProjectId,mea_breakout,6d65615f-6272-4656-916b-6f75742e6b69,1*%
%TF.SameCoordinates,Original*%
%TF.FileFunction,Legend,Top*%
%TF.FilePolarity,Positive*%
%FSLAX46Y46*%
G04 Gerber Fmt 4.6, Leading zero omitted, Abs format (unit mm)*
G04 Created by KiCad (PCBNEW 6.0.11-2627ca5db0~126~ubuntu22.04.1) date 2024-01-17 01:21:31*
%MOMM*%
%LPD*%
G01*
G04 APERTURE LIST*
%ADD10C,0.150000*%
%ADD11C,0.127000*%
G04 APERTURE END LIST*
D10*
X62160515Y-11724076D02*
X62160515Y-10724076D01*
X62493848Y-11438362D01*
X62827181Y-10724076D01*
X62827181Y-11724076D01*
X63303372Y-11200267D02*
X63636705Y-11200267D01*
X63779562Y-11724076D02*
X63303372Y-11724076D01*
X63303372Y-10724076D01*
X63779562Y-10724076D01*
X64160515Y-11438362D02*
X64636705Y-11438362D01*
X64065277Y-11724076D02*
X64398610Y-10724076D01*
X64731943Y-11724076D01*
X66160515Y-11200267D02*
X66303372Y-11247886D01*
X66350991Y-11295505D01*
X66398610Y-11390743D01*
X66398610Y-11533600D01*
X66350991Y-11628838D01*
X66303372Y-11676457D01*
X66208134Y-11724076D01*
X65827181Y-11724076D01*
X65827181Y-10724076D01*
X66160515Y-10724076D01*
X66255753Y-10771696D01*
X66303372Y-10819315D01*
X66350991Y-10914553D01*
X66350991Y-11009791D01*
X66303372Y-11105029D01*
X66255753Y-11152648D01*
X66160515Y-11200267D01*
X65827181Y-11200267D01*
X67398610Y-11724076D02*
X67065277Y-11247886D01*
X66827181Y-11724076D02*
X66827181Y-10724076D01*
X67208134Y-10724076D01*
X67303372Y-10771696D01*
X67350991Y-10819315D01*
X67398610Y-10914553D01*
X67398610Y-11057410D01*
X67350991Y-11152648D01*
X67303372Y-11200267D01*
X67208134Y-11247886D01*
X66827181Y-11247886D01*
X67827181Y-11200267D02*
X68160515Y-11200267D01*
X68303372Y-11724076D02*
X67827181Y-11724076D01*
X67827181Y-10724076D01*
X68303372Y-10724076D01*
X68684324Y-11438362D02*
X69160515Y-11438362D01*
X68589086Y-11724076D02*
X68922420Y-10724076D01*
X69255753Y-11724076D01*
X69589086Y-11724076D02*
X69589086Y-10724076D01*
X70160515Y-11724076D02*
X69731943Y-11152648D01*
X70160515Y-10724076D02*
X69589086Y-11295505D01*
X70779562Y-10724076D02*
X70970039Y-10724076D01*
X71065277Y-10771696D01*
X71160515Y-10866934D01*
X71208134Y-11057410D01*
X71208134Y-11390743D01*
X71160515Y-11581219D01*
X71065277Y-11676457D01*
X70970039Y-11724076D01*
X70779562Y-11724076D01*
X70684324Y-11676457D01*
X70589086Y-11581219D01*
X70541467Y-11390743D01*
X70541467Y-11057410D01*
X70589086Y-10866934D01*
X70684324Y-10771696D01*
X70779562Y-10724076D01*
X71636705Y-10724076D02*
X71636705Y-11533600D01*
X71684324Y-11628838D01*
X71731943Y-11676457D01*
X71827181Y-11724076D01*
X72017658Y-11724076D01*
X72112896Y-11676457D01*
X72160515Y-11628838D01*
X72208134Y-11533600D01*
X72208134Y-10724076D01*
X72541467Y-10724076D02*
X73112896Y-10724076D01*
X72827181Y-11724076D02*
X72827181Y-10724076D01*
X74779562Y-11628838D02*
X74731943Y-11676457D01*
X74589086Y-11724076D01*
X74493848Y-11724076D01*
X74350991Y-11676457D01*
X74255753Y-11581219D01*
X74208134Y-11485981D01*
X74160515Y-11295505D01*
X74160515Y-11152648D01*
X74208134Y-10962172D01*
X74255753Y-10866934D01*
X74350991Y-10771696D01*
X74493848Y-10724076D01*
X74589086Y-10724076D01*
X74731943Y-10771696D01*
X74779562Y-10819315D01*
X75398610Y-10724076D02*
X75589086Y-10724076D01*
X75684324Y-10771696D01*
X75779562Y-10866934D01*
X75827181Y-11057410D01*
X75827181Y-11390743D01*
X75779562Y-11581219D01*
X75684324Y-11676457D01*
X75589086Y-11724076D01*
X75398610Y-11724076D01*
X75303372Y-11676457D01*
X75208134Y-11581219D01*
X75160515Y-11390743D01*
X75160515Y-11057410D01*
X75208134Y-10866934D01*
X75303372Y-10771696D01*
X75398610Y-10724076D01*
X76255753Y-11724076D02*
X76255753Y-10724076D01*
X76827181Y-11724076D01*
X76827181Y-10724076D01*
X77303372Y-11724076D02*
X77303372Y-10724076D01*
X77874800Y-11724076D01*
X77874800Y-10724076D01*
X78350991Y-11200267D02*
X78684324Y-11200267D01*
X78827181Y-11724076D02*
X78350991Y-11724076D01*
X78350991Y-10724076D01*
X78827181Y-10724076D01*
X79827181Y-11628838D02*
X79779562Y-11676457D01*
X79636705Y-11724076D01*
X79541467Y-11724076D01*
X79398610Y-11676457D01*
X79303372Y-11581219D01*
X79255753Y-11485981D01*
X79208134Y-11295505D01*
X79208134Y-11152648D01*
X79255753Y-10962172D01*
X79303372Y-10866934D01*
X79398610Y-10771696D01*
X79541467Y-10724076D01*
X79636705Y-10724076D01*
X79779562Y-10771696D01*
X79827181Y-10819315D01*
X80112896Y-10724076D02*
X80684324Y-10724076D01*
X80398610Y-11724076D02*
X80398610Y-10724076D01*
X81208134Y-10724076D02*
X81398610Y-10724076D01*
X81493848Y-10771696D01*
X81589086Y-10866934D01*
X81636705Y-11057410D01*
X81636705Y-11390743D01*
X81589086Y-11581219D01*
X81493848Y-11676457D01*
X81398610Y-11724076D01*
X81208134Y-11724076D01*
X81112896Y-11676457D01*
X81017658Y-11581219D01*
X80970039Y-11390743D01*
X80970039Y-11057410D01*
X81017658Y-10866934D01*
X81112896Y-10771696D01*
X81208134Y-10724076D01*
X82636705Y-11724076D02*
X82303372Y-11247886D01*
X82065277Y-11724076D02*
X82065277Y-10724076D01*
X82446229Y-10724076D01*
X82541467Y-10771696D01*
X82589086Y-10819315D01*
X82636705Y-10914553D01*
X82636705Y-11057410D01*
X82589086Y-11152648D01*
X82541467Y-11200267D01*
X82446229Y-11247886D01*
X82065277Y-11247886D01*
X62112896Y-13048362D02*
X62589086Y-13048362D01*
X62017658Y-13334076D02*
X62350991Y-12334076D01*
X62684324Y-13334076D01*
X63208134Y-12857886D02*
X63208134Y-13334076D01*
X62874800Y-12334076D02*
X63208134Y-12857886D01*
X63541467Y-12334076D01*
X63874800Y-13334076D02*
X63874800Y-12334076D01*
X64112896Y-12334076D01*
X64255753Y-12381696D01*
X64350991Y-12476934D01*
X64398610Y-12572172D01*
X64446229Y-12762648D01*
X64446229Y-12905505D01*
X64398610Y-13095981D01*
X64350991Y-13191219D01*
X64255753Y-13286457D01*
X64112896Y-13334076D01*
X63874800Y-13334076D01*
X64874800Y-13334076D02*
X64874800Y-12334076D01*
X65350991Y-13334076D02*
X65350991Y-12334076D01*
X65922420Y-13334076D01*
X65922420Y-12334076D01*
X67684324Y-12381696D02*
X67589086Y-12334076D01*
X67446229Y-12334076D01*
X67303372Y-12381696D01*
X67208134Y-12476934D01*
X67160515Y-12572172D01*
X67112896Y-12762648D01*
X67112896Y-12905505D01*
X67160515Y-13095981D01*
X67208134Y-13191219D01*
X67303372Y-13286457D01*
X67446229Y-13334076D01*
X67541467Y-13334076D01*
X67684324Y-13286457D01*
X67731943Y-13238838D01*
X67731943Y-12905505D01*
X67541467Y-12905505D01*
X68350991Y-12334076D02*
X68541467Y-12334076D01*
X68636705Y-12381696D01*
X68731943Y-12476934D01*
X68779562Y-12667410D01*
X68779562Y-13000743D01*
X68731943Y-13191219D01*
X68636705Y-13286457D01*
X68541467Y-13334076D01*
X68350991Y-13334076D01*
X68255753Y-13286457D01*
X68160515Y-13191219D01*
X68112896Y-13000743D01*
X68112896Y-12667410D01*
X68160515Y-12476934D01*
X68255753Y-12381696D01*
X68350991Y-12334076D01*
X69208134Y-13334076D02*
X69208134Y-12334076D01*
X69779562Y-13334076D02*
X69350991Y-12762648D01*
X69779562Y-12334076D02*
X69208134Y-12905505D01*
X70779562Y-13238838D02*
X70731943Y-13286457D01*
X70589086Y-13334076D01*
X70493848Y-13334076D01*
X70350991Y-13286457D01*
X70255753Y-13191219D01*
X70208134Y-13095981D01*
X70160515Y-12905505D01*
X70160515Y-12762648D01*
X70208134Y-12572172D01*
X70255753Y-12476934D01*
X70350991Y-12381696D01*
X70493848Y-12334076D01*
X70589086Y-12334076D01*
X70731943Y-12381696D01*
X70779562Y-12429315D01*
X71208134Y-12810267D02*
X71541467Y-12810267D01*
X71684324Y-13334076D02*
X71208134Y-13334076D01*
X71208134Y-12334076D01*
X71684324Y-12334076D01*
X62731943Y-14944076D02*
X62398610Y-14467886D01*
X62160515Y-14944076D02*
X62160515Y-13944076D01*
X62541467Y-13944076D01*
X62636705Y-13991696D01*
X62684324Y-14039315D01*
X62731943Y-14134553D01*
X62731943Y-14277410D01*
X62684324Y-14372648D01*
X62636705Y-14420267D01*
X62541467Y-14467886D01*
X62160515Y-14467886D01*
X63160515Y-14420267D02*
X63493848Y-14420267D01*
X63636705Y-14944076D02*
X63160515Y-14944076D01*
X63160515Y-13944076D01*
X63636705Y-13944076D01*
X63922420Y-13944076D02*
X64255753Y-14944076D01*
X64589086Y-13944076D01*
X64922420Y-14848838D02*
X64970039Y-14896457D01*
X64922420Y-14944076D01*
X64874800Y-14896457D01*
X64922420Y-14848838D01*
X64922420Y-14944076D01*
X66684324Y-14944076D02*
X66112896Y-14944076D01*
X66398610Y-14944076D02*
X66398610Y-13944076D01*
X66303372Y-14086934D01*
X66208134Y-14182172D01*
X66112896Y-14229791D01*
X55759047Y-68994761D02*
X55901904Y-69042380D01*
X56140000Y-69042380D01*
X56235238Y-68994761D01*
X56282857Y-68947142D01*
X56330476Y-68851904D01*
X56330476Y-68756666D01*
X56282857Y-68661428D01*
X56235238Y-68613809D01*
X56140000Y-68566190D01*
X55949523Y-68518571D01*
X55854285Y-68470952D01*
X55806666Y-68423333D01*
X55759047Y-68328095D01*
X55759047Y-68232857D01*
X55806666Y-68137619D01*
X55854285Y-68090000D01*
X55949523Y-68042380D01*
X56187619Y-68042380D01*
X56330476Y-68090000D01*
X56759047Y-69042380D02*
X56759047Y-68042380D01*
X57235238Y-68518571D02*
X57568571Y-68518571D01*
X57711428Y-69042380D02*
X57235238Y-69042380D01*
X57235238Y-68042380D01*
X57711428Y-68042380D01*
X58044761Y-68042380D02*
X58711428Y-68042380D01*
X58044761Y-69042380D01*
X58711428Y-69042380D01*
X59092380Y-68518571D02*
X59425714Y-68518571D01*
X59568571Y-69042380D02*
X59092380Y-69042380D01*
X59092380Y-68042380D01*
X59568571Y-68042380D01*
X60616190Y-68042380D02*
X61187619Y-68042380D01*
X60901904Y-69042380D02*
X60901904Y-68042380D01*
X61520952Y-69042380D02*
X61520952Y-68042380D01*
X61520952Y-68518571D02*
X62092380Y-68518571D01*
X62092380Y-69042380D02*
X62092380Y-68042380D01*
X62568571Y-68518571D02*
X62901904Y-68518571D01*
X63044761Y-69042380D02*
X62568571Y-69042380D01*
X62568571Y-68042380D01*
X63044761Y-68042380D01*
X64235238Y-69042380D02*
X64235238Y-68042380D01*
X64568571Y-68756666D01*
X64901904Y-68042380D01*
X64901904Y-69042380D01*
X65378095Y-68518571D02*
X65711428Y-68518571D01*
X65854285Y-69042380D02*
X65378095Y-69042380D01*
X65378095Y-68042380D01*
X65854285Y-68042380D01*
X66235238Y-68756666D02*
X66711428Y-68756666D01*
X66140000Y-69042380D02*
X66473333Y-68042380D01*
X66806666Y-69042380D01*
X67140000Y-69042380D02*
X67140000Y-68042380D01*
X67711428Y-69042380D01*
X67711428Y-68042380D01*
X68140000Y-68994761D02*
X68282857Y-69042380D01*
X68520952Y-69042380D01*
X68616190Y-68994761D01*
X68663809Y-68947142D01*
X68711428Y-68851904D01*
X68711428Y-68756666D01*
X68663809Y-68661428D01*
X68616190Y-68613809D01*
X68520952Y-68566190D01*
X68330476Y-68518571D01*
X68235238Y-68470952D01*
X68187619Y-68423333D01*
X68140000Y-68328095D01*
X68140000Y-68232857D01*
X68187619Y-68137619D01*
X68235238Y-68090000D01*
X68330476Y-68042380D01*
X68568571Y-68042380D01*
X68711428Y-68090000D01*
X70092380Y-68042380D02*
X70282857Y-68042380D01*
X70378095Y-68090000D01*
X70473333Y-68185238D01*
X70520952Y-68375714D01*
X70520952Y-68709047D01*
X70473333Y-68899523D01*
X70378095Y-68994761D01*
X70282857Y-69042380D01*
X70092380Y-69042380D01*
X69997142Y-68994761D01*
X69901904Y-68899523D01*
X69854285Y-68709047D01*
X69854285Y-68375714D01*
X69901904Y-68185238D01*
X69997142Y-68090000D01*
X70092380Y-68042380D01*
X71282857Y-68518571D02*
X70949523Y-68518571D01*
X70949523Y-69042380D02*
X70949523Y-68042380D01*
X71425714Y-68042380D01*
X73140000Y-69042380D02*
X72806666Y-68566190D01*
X72568571Y-69042380D02*
X72568571Y-68042380D01*
X72949523Y-68042380D01*
X73044761Y-68090000D01*
X73092380Y-68137619D01*
X73140000Y-68232857D01*
X73140000Y-68375714D01*
X73092380Y-68470952D01*
X73044761Y-68518571D01*
X72949523Y-68566190D01*
X72568571Y-68566190D01*
X73568571Y-68518571D02*
X73901904Y-68518571D01*
X74044761Y-69042380D02*
X73568571Y-69042380D01*
X73568571Y-68042380D01*
X74044761Y-68042380D01*
X74473333Y-69042380D02*
X74473333Y-68042380D01*
X74854285Y-68042380D01*
X74949523Y-68090000D01*
X74997142Y-68137619D01*
X75044761Y-68232857D01*
X75044761Y-68375714D01*
X74997142Y-68470952D01*
X74949523Y-68518571D01*
X74854285Y-68566190D01*
X74473333Y-68566190D01*
X75949523Y-69042380D02*
X75473333Y-69042380D01*
X75473333Y-68042380D01*
X76282857Y-69042380D02*
X76282857Y-68042380D01*
X77330476Y-68947142D02*
X77282857Y-68994761D01*
X77140000Y-69042380D01*
X77044761Y-69042380D01*
X76901904Y-68994761D01*
X76806666Y-68899523D01*
X76759047Y-68804285D01*
X76711428Y-68613809D01*
X76711428Y-68470952D01*
X76759047Y-68280476D01*
X76806666Y-68185238D01*
X76901904Y-68090000D01*
X77044761Y-68042380D01*
X77140000Y-68042380D01*
X77282857Y-68090000D01*
X77330476Y-68137619D01*
X77711428Y-68756666D02*
X78187619Y-68756666D01*
X77616190Y-69042380D02*
X77949523Y-68042380D01*
X78282857Y-69042380D01*
X78473333Y-68042380D02*
X79044761Y-68042380D01*
X78759047Y-69042380D02*
X78759047Y-68042380D01*
X79378095Y-69042380D02*
X79378095Y-68042380D01*
X80044761Y-68042380D02*
X80235238Y-68042380D01*
X80330476Y-68090000D01*
X80425714Y-68185238D01*
X80473333Y-68375714D01*
X80473333Y-68709047D01*
X80425714Y-68899523D01*
X80330476Y-68994761D01*
X80235238Y-69042380D01*
X80044761Y-69042380D01*
X79949523Y-68994761D01*
X79854285Y-68899523D01*
X79806666Y-68709047D01*
X79806666Y-68375714D01*
X79854285Y-68185238D01*
X79949523Y-68090000D01*
X80044761Y-68042380D01*
X80901904Y-69042380D02*
X80901904Y-68042380D01*
X81473333Y-69042380D01*
X81473333Y-68042380D01*
D11*
%TO.C,U221*%
X52475000Y-25485000D02*
X52475000Y-26485000D01*
%TO.C,U205*%
X84805000Y-39965000D02*
X84805000Y-38965000D01*
%TO.C,U28*%
X56435000Y-63145000D02*
X55435000Y-63145000D01*
%TO.C,U30*%
X54015000Y-63145000D02*
X53015000Y-63145000D01*
%TO.C,U142*%
X63215000Y-56755000D02*
X64215000Y-56755000D01*
%TO.C,U152*%
X75315000Y-56755000D02*
X76315000Y-56755000D01*
%TO.C,U39*%
X53015000Y-18035000D02*
X54015000Y-18035000D01*
%TO.C,U149*%
X71685000Y-56755000D02*
X72685000Y-56755000D01*
%TO.C,U34*%
X49175000Y-63145000D02*
X48175000Y-63145000D01*
%TO.C,U172*%
X72854999Y-24425000D02*
X71854999Y-24425000D01*
%TO.C,U2*%
X87895000Y-63145000D02*
X86895000Y-63145000D01*
%TO.C,U131*%
X91195000Y-57635000D02*
X91195000Y-58635000D01*
%TO.C,U235*%
X52475000Y-42425000D02*
X52475000Y-43425000D01*
%TO.C,U115*%
X91195000Y-38274999D02*
X91195000Y-39274999D01*
%TO.C,U192*%
X84805000Y-55694999D02*
X84805000Y-54694999D01*
%TO.C,U19*%
X67325000Y-63145000D02*
X66325000Y-63145000D01*
%TO.C,U173*%
X71645000Y-24425000D02*
X70645000Y-24425000D01*
%TO.C,U134*%
X53535000Y-56755000D02*
X54535000Y-56755000D01*
%TO.C,U184*%
X58335000Y-24425000D02*
X57335000Y-24425000D01*
%TO.C,U242*%
X52475000Y-50894999D02*
X52475000Y-51894999D01*
%TO.C,U122*%
X91195000Y-46745000D02*
X91195000Y-47745000D01*
%TO.C,U132*%
X91195000Y-58845000D02*
X91195000Y-59845000D01*
%TO.C,U35*%
X48175000Y-18035000D02*
X49175000Y-18035000D01*
%TO.C,U16*%
X70955000Y-63145000D02*
X69955000Y-63145000D01*
%TO.C,U89*%
X46085000Y-35645000D02*
X46085000Y-34645000D01*
%TO.C,U217*%
X84805000Y-25444999D02*
X84805000Y-24444999D01*
%TO.C,U146*%
X68055000Y-56755000D02*
X69055000Y-56755000D01*
%TO.C,U226*%
X52475000Y-31535000D02*
X52475000Y-32535000D01*
%TO.C,U176*%
X68015000Y-24425000D02*
X67015000Y-24425000D01*
%TO.C,U182*%
X60754999Y-24425000D02*
X59754999Y-24425000D01*
%TO.C,U106*%
X91195000Y-27385000D02*
X91195000Y-28385000D01*
%TO.C,U75*%
X46085000Y-52585000D02*
X46085000Y-51585000D01*
%TO.C,U169*%
X76485000Y-24425000D02*
X75485000Y-24425000D01*
%TO.C,U65*%
X84475000Y-18035000D02*
X85475000Y-18035000D01*
%TO.C,U25*%
X60065000Y-63145000D02*
X59065000Y-63145000D01*
%TO.C,U22*%
X63695000Y-63145000D02*
X62695000Y-63145000D01*
%TO.C,U70*%
X46085000Y-58635000D02*
X46085000Y-57635000D01*
%TO.C,U98*%
X46085000Y-24755000D02*
X46085000Y-23755000D01*
%TO.C,U139*%
X59585000Y-56755000D02*
X60585000Y-56755000D01*
%TO.C,U136*%
X55955000Y-56755000D02*
X56955000Y-56755000D01*
%TO.C,U51*%
X67535000Y-18035000D02*
X68535000Y-18035000D01*
%TO.C,U228*%
X52475000Y-33955000D02*
X52475000Y-34955000D01*
%TO.C,U79*%
X46085000Y-47745000D02*
X46085000Y-46745000D01*
%TO.C,U43*%
X57855000Y-18035000D02*
X58855000Y-18035000D01*
%TO.C,U56*%
X73585000Y-18035000D02*
X74585000Y-18035000D01*
%TO.C,U58*%
X76005000Y-18035000D02*
X77005000Y-18035000D01*
%TO.C,U110*%
X91195000Y-32225000D02*
X91195000Y-33225000D01*
%TO.C,U121*%
X91195000Y-45535000D02*
X91195000Y-46535000D01*
%TO.C,U96*%
X46085000Y-27175000D02*
X46085000Y-26175000D01*
%TO.C,U238*%
X52475000Y-46055000D02*
X52475000Y-47055000D01*
%TO.C,U71*%
X46085000Y-57425000D02*
X46085000Y-56425000D01*
%TO.C,U76*%
X46085000Y-51375001D02*
X46085000Y-50375001D01*
%TO.C,U251*%
X54562853Y-53960040D02*
X55269960Y-54667147D01*
%TO.C,U73*%
X46085000Y-55005000D02*
X46085000Y-54005000D01*
%TO.C,U239*%
X52475000Y-47265000D02*
X52475000Y-48265000D01*
%TO.C,U188*%
X53494999Y-24425000D02*
X52494999Y-24425000D01*
%TO.C,U252*%
X82010039Y-54667147D02*
X82717146Y-53960040D01*
%TO.C,U153*%
X76525000Y-56755000D02*
X77525000Y-56755000D01*
%TO.C,U244*%
X52475000Y-53315000D02*
X52475000Y-54315000D01*
%TO.C,U141*%
X62005000Y-56755000D02*
X63005000Y-56755000D01*
%TO.C,U103*%
X91195000Y-23755000D02*
X91195000Y-24755000D01*
%TO.C,G\u002A\u002A\u002A*%
G36*
X58025233Y-10336373D02*
G01*
X58018943Y-10366998D01*
X58007460Y-10408754D01*
X57992398Y-10456470D01*
X57975368Y-10504979D01*
X57957983Y-10549110D01*
X57945038Y-10577520D01*
X57873812Y-10698022D01*
X57790245Y-10799131D01*
X57694046Y-10881113D01*
X57584922Y-10944237D01*
X57513762Y-10972950D01*
X57473392Y-10985920D01*
X57444314Y-10991027D01*
X57416365Y-10988860D01*
X57381598Y-10980598D01*
X57280281Y-10964662D01*
X57172794Y-10967379D01*
X57064801Y-10987612D01*
X56961969Y-11024223D01*
X56869962Y-11076075D01*
X56856079Y-11086118D01*
X56831696Y-11103547D01*
X56816153Y-11113058D01*
X56814316Y-11113652D01*
X56809481Y-11103522D01*
X56803708Y-11078320D01*
X56802193Y-11069483D01*
X56783941Y-11023150D01*
X56746192Y-10977780D01*
X56692439Y-10936130D01*
X56626173Y-10900957D01*
X56558419Y-10877035D01*
X56541604Y-10871590D01*
X56540515Y-10867576D01*
X56557596Y-10863721D01*
X56593009Y-10859032D01*
X56656721Y-10855611D01*
X56726657Y-10858864D01*
X56794195Y-10867884D01*
X56850714Y-10881764D01*
X56866840Y-10887835D01*
X56893571Y-10897955D01*
X56908761Y-10901041D01*
X56910076Y-10900048D01*
X56905289Y-10886719D01*
X56893287Y-10860953D01*
X56887852Y-10850105D01*
X56857903Y-10806450D01*
X56812122Y-10758642D01*
X56755696Y-10712014D01*
X56748556Y-10706823D01*
X56719836Y-10686240D01*
X56777484Y-10693314D01*
X56849257Y-10712752D01*
X56919856Y-10751828D01*
X56961425Y-10785515D01*
X56984761Y-10805145D01*
X57001350Y-10810280D01*
X57020317Y-10803148D01*
X57024402Y-10800895D01*
X57057865Y-10773696D01*
X57093059Y-10731428D01*
X57124899Y-10681052D01*
X57147057Y-10632995D01*
X57161976Y-10598191D01*
X57177136Y-10571752D01*
X57183763Y-10564066D01*
X57209744Y-10551384D01*
X57254876Y-10538672D01*
X57315264Y-10526622D01*
X57387011Y-10515925D01*
X57466219Y-10507274D01*
X57531408Y-10502347D01*
X57636792Y-10492885D01*
X57725033Y-10477254D01*
X57801636Y-10453624D01*
X57872104Y-10420165D01*
X57941943Y-10375047D01*
X57964309Y-10358420D01*
X57994166Y-10337111D01*
X58016244Y-10324110D01*
X58024720Y-10322047D01*
X58025233Y-10336373D01*
G37*
G36*
X57096379Y-14623513D02*
G01*
X57180972Y-14653257D01*
X57280789Y-14693041D01*
X57377082Y-14719904D01*
X57479103Y-14735989D01*
X57565527Y-14742294D01*
X57707904Y-14748719D01*
X57649383Y-14782506D01*
X57592067Y-14822788D01*
X57531084Y-14877745D01*
X57472491Y-14941141D01*
X57422344Y-15006741D01*
X57404673Y-15034432D01*
X57383065Y-15072495D01*
X57367142Y-15103791D01*
X57359891Y-15122380D01*
X57359736Y-15123787D01*
X57355650Y-15132315D01*
X57341592Y-15135681D01*
X57314865Y-15133572D01*
X57272768Y-15125676D01*
X57212604Y-15111679D01*
X57175260Y-15102385D01*
X57080334Y-15077062D01*
X56999264Y-15051914D01*
X56923084Y-15023800D01*
X56842831Y-14989583D01*
X56809003Y-14974142D01*
X56711720Y-14934521D01*
X56627598Y-14912185D01*
X56554846Y-14906860D01*
X56491673Y-14918275D01*
X56477023Y-14923773D01*
X56454847Y-14932089D01*
X56445000Y-14932087D01*
X56448214Y-14921566D01*
X56465218Y-14898321D01*
X56496744Y-14860151D01*
X56499033Y-14857433D01*
X56579386Y-14777021D01*
X56672493Y-14709288D01*
X56773188Y-14657269D01*
X56876308Y-14623997D01*
X56906049Y-14618269D01*
X57004541Y-14611037D01*
X57096379Y-14623513D01*
G37*
G36*
X59320343Y-11133549D02*
G01*
X59345236Y-11156464D01*
X59378761Y-11190645D01*
X59417922Y-11232812D01*
X59459724Y-11279684D01*
X59501169Y-11327979D01*
X59539263Y-11374417D01*
X59565038Y-11407660D01*
X59600134Y-11457379D01*
X59634215Y-11510533D01*
X59661627Y-11558144D01*
X59669144Y-11572968D01*
X59713616Y-11642514D01*
X59779415Y-11709655D01*
X59866913Y-11774647D01*
X59976483Y-11837746D01*
X60108496Y-11899208D01*
X60193167Y-11933315D01*
X60229502Y-11948138D01*
X60255397Y-11960380D01*
X60265228Y-11967369D01*
X60254237Y-11973660D01*
X60223129Y-11981995D01*
X60174698Y-11991833D01*
X60111741Y-12002629D01*
X60037054Y-12013841D01*
X59999419Y-12019004D01*
X59938201Y-12025865D01*
X59865912Y-12031918D01*
X59787785Y-12036934D01*
X59709054Y-12040686D01*
X59634951Y-12042946D01*
X59570708Y-12043485D01*
X59521559Y-12042077D01*
X59504266Y-12040569D01*
X59370840Y-12021895D01*
X59256523Y-12000454D01*
X59157400Y-11974798D01*
X59069558Y-11943474D01*
X58989083Y-11905032D01*
X58912062Y-11858021D01*
X58834580Y-11800991D01*
X58814587Y-11784922D01*
X58771445Y-11752273D01*
X58714889Y-11713116D01*
X58649935Y-11670566D01*
X58581600Y-11627740D01*
X58514900Y-11587755D01*
X58454852Y-11553728D01*
X58406472Y-11528776D01*
X58391289Y-11521940D01*
X58345528Y-11502694D01*
X58506944Y-11465810D01*
X58671235Y-11423524D01*
X58825152Y-11374457D01*
X58965773Y-11319781D01*
X59090176Y-11260669D01*
X59195437Y-11198293D01*
X59224488Y-11177918D01*
X59260015Y-11152807D01*
X59288840Y-11134185D01*
X59305649Y-11125446D01*
X59307080Y-11125182D01*
X59320343Y-11133549D01*
G37*
G36*
X55416862Y-14463748D02*
G01*
X55438231Y-14482147D01*
X55444801Y-14489493D01*
X55465889Y-14514662D01*
X55496268Y-14551092D01*
X55530520Y-14592282D01*
X55542819Y-14607101D01*
X55611014Y-14689313D01*
X55582914Y-14717413D01*
X55554814Y-14745512D01*
X55482653Y-14659042D01*
X55451094Y-14622184D01*
X55424720Y-14593161D01*
X55407116Y-14575823D01*
X55402204Y-14572629D01*
X55388541Y-14579314D01*
X55365897Y-14595626D01*
X55362240Y-14598571D01*
X55330564Y-14624456D01*
X55399712Y-14707717D01*
X55429806Y-14744964D01*
X55453276Y-14775936D01*
X55466827Y-14796182D01*
X55468860Y-14801051D01*
X55461128Y-14815434D01*
X55444837Y-14832863D01*
X55431350Y-14843767D01*
X55420024Y-14845441D01*
X55405826Y-14835436D01*
X55383725Y-14811298D01*
X55371579Y-14797178D01*
X55340754Y-14761268D01*
X55311591Y-14727364D01*
X55294717Y-14707801D01*
X55267089Y-14675849D01*
X55215816Y-14720339D01*
X55164543Y-14764830D01*
X55237230Y-14853784D01*
X55270109Y-14894477D01*
X55290158Y-14921539D01*
X55299300Y-14939061D01*
X55299459Y-14951135D01*
X55292557Y-14961851D01*
X55289599Y-14965190D01*
X55269859Y-14982099D01*
X55256655Y-14987462D01*
X55244891Y-14978999D01*
X55221781Y-14956000D01*
X55190511Y-14921833D01*
X55154264Y-14879867D01*
X55148910Y-14873484D01*
X55113210Y-14829992D01*
X55083708Y-14792560D01*
X55063193Y-14764837D01*
X55054456Y-14750475D01*
X55054333Y-14749720D01*
X55062928Y-14739784D01*
X55086143Y-14718178D01*
X55120641Y-14687697D01*
X55163086Y-14651138D01*
X55210139Y-14611297D01*
X55258465Y-14570969D01*
X55304727Y-14532952D01*
X55345587Y-14500042D01*
X55377708Y-14475033D01*
X55397754Y-14460724D01*
X55401794Y-14458569D01*
X55416862Y-14463748D01*
G37*
G36*
X58284997Y-15467991D02*
G01*
X58291296Y-15482148D01*
X58293644Y-15505855D01*
X58292170Y-15523585D01*
X58284351Y-15534831D01*
X58265092Y-15542771D01*
X58229296Y-15550583D01*
X58218701Y-15552599D01*
X58180748Y-15560960D01*
X58153789Y-15569187D01*
X58143758Y-15575390D01*
X58145809Y-15590733D01*
X58151084Y-15620973D01*
X58155848Y-15646146D01*
X58168416Y-15711735D01*
X58180464Y-15776463D01*
X58191298Y-15836387D01*
X58200223Y-15887564D01*
X58206546Y-15926053D01*
X58209571Y-15947909D01*
X58209605Y-15951398D01*
X58197905Y-15954942D01*
X58172650Y-15960837D01*
X58169690Y-15961476D01*
X58140493Y-15964167D01*
X58127712Y-15955217D01*
X58127344Y-15954176D01*
X58122688Y-15934309D01*
X58114566Y-15893660D01*
X58103348Y-15834187D01*
X58089402Y-15757847D01*
X58073097Y-15666595D01*
X58072579Y-15663673D01*
X58058569Y-15584507D01*
X58006043Y-15591317D01*
X57968095Y-15597081D01*
X57936206Y-15603329D01*
X57928721Y-15605233D01*
X57910595Y-15606440D01*
X57900461Y-15592828D01*
X57895917Y-15575879D01*
X57891865Y-15549310D01*
X57892931Y-15534459D01*
X57893198Y-15534132D01*
X57906620Y-15529384D01*
X57935529Y-15522793D01*
X57960591Y-15518095D01*
X57998557Y-15511491D01*
X58051178Y-15502294D01*
X58110401Y-15491913D01*
X58149522Y-15485038D01*
X58201171Y-15476527D01*
X58244320Y-15470494D01*
X58274012Y-15467561D01*
X58284997Y-15467991D01*
G37*
G36*
X59108903Y-12575777D02*
G01*
X59110243Y-12577928D01*
X59117739Y-12596854D01*
X59128156Y-12631642D01*
X59139538Y-12675619D01*
X59142350Y-12687461D01*
X59152646Y-12748547D01*
X59159938Y-12826617D01*
X59164218Y-12915792D01*
X59165477Y-13010191D01*
X59163706Y-13103936D01*
X59158899Y-13191145D01*
X59151046Y-13265941D01*
X59143218Y-13310066D01*
X59091206Y-13494149D01*
X59021554Y-13664135D01*
X58933395Y-13821752D01*
X58825864Y-13968725D01*
X58794263Y-14005822D01*
X58661819Y-14139650D01*
X58516109Y-14254671D01*
X58357560Y-14350636D01*
X58186596Y-14427294D01*
X58003641Y-14484396D01*
X57966330Y-14493293D01*
X57912475Y-14502670D01*
X57842660Y-14510729D01*
X57763275Y-14517134D01*
X57680714Y-14521550D01*
X57601367Y-14523639D01*
X57531625Y-14523066D01*
X57477882Y-14519494D01*
X57475033Y-14519142D01*
X57289772Y-14484128D01*
X57112932Y-14428364D01*
X56945914Y-14352981D01*
X56790121Y-14259110D01*
X56646955Y-14147883D01*
X56517819Y-14020432D01*
X56404113Y-13877888D01*
X56307241Y-13721382D01*
X56228604Y-13552045D01*
X56208040Y-13496810D01*
X56193855Y-13453950D01*
X56184831Y-13421597D01*
X56182070Y-13404049D01*
X56183811Y-13402371D01*
X56194988Y-13419205D01*
X56195476Y-13423162D01*
X56200472Y-13438616D01*
X56213797Y-13469710D01*
X56233272Y-13511555D01*
X56251163Y-13548174D01*
X56342178Y-13705767D01*
X56451416Y-13851281D01*
X56576833Y-13982889D01*
X56716386Y-14098765D01*
X56868034Y-14197082D01*
X57029732Y-14276013D01*
X57091692Y-14299935D01*
X57167130Y-14326301D01*
X57231040Y-14346344D01*
X57288819Y-14360921D01*
X57345864Y-14370888D01*
X57407571Y-14377101D01*
X57479338Y-14380418D01*
X57566560Y-14381695D01*
X57607625Y-14381828D01*
X57690418Y-14381746D01*
X57754686Y-14381012D01*
X57804962Y-14379242D01*
X57845779Y-14376052D01*
X57881670Y-14371061D01*
X57917168Y-14363885D01*
X57956806Y-14354141D01*
X57967156Y-14351452D01*
X58136284Y-14298096D01*
X58295837Y-14228046D01*
X58408256Y-14166019D01*
X58465713Y-14129751D01*
X58518417Y-14091691D01*
X58571897Y-14047388D01*
X58631680Y-13992392D01*
X58669497Y-13955731D01*
X58797441Y-13816542D01*
X58903561Y-13671168D01*
X58988640Y-13517980D01*
X59053459Y-13355349D01*
X59098800Y-13181646D01*
X59124211Y-13008351D01*
X59128184Y-12943947D01*
X59129127Y-12869259D01*
X59127318Y-12790613D01*
X59123032Y-12714336D01*
X59116546Y-12646754D01*
X59108136Y-12594193D01*
X59105649Y-12583693D01*
X59103050Y-12569392D01*
X59108903Y-12575777D01*
G37*
G36*
X58289554Y-10496245D02*
G01*
X58396692Y-10517306D01*
X58504303Y-10558323D01*
X58609217Y-10618260D01*
X58651066Y-10648330D01*
X58744864Y-10717584D01*
X58826691Y-10772169D01*
X58900350Y-10814235D01*
X58969646Y-10845932D01*
X59038382Y-10869410D01*
X59046107Y-10871593D01*
X59118608Y-10888157D01*
X59179420Y-10892938D01*
X59236669Y-10885948D01*
X59285078Y-10871989D01*
X59319552Y-10860777D01*
X59343847Y-10854171D01*
X59351617Y-10853393D01*
X59347300Y-10863781D01*
X59332909Y-10888213D01*
X59311401Y-10921709D01*
X59307966Y-10926875D01*
X59249934Y-10999264D01*
X59174239Y-11068367D01*
X59079555Y-11135113D01*
X58964555Y-11200431D01*
X58827911Y-11265248D01*
X58818476Y-11269367D01*
X58756048Y-11295101D01*
X58684290Y-11322389D01*
X58606901Y-11350056D01*
X58527580Y-11376925D01*
X58450028Y-11401821D01*
X58377941Y-11423567D01*
X58315020Y-11440989D01*
X58264964Y-11452909D01*
X58231471Y-11458152D01*
X58224466Y-11458202D01*
X58205439Y-11453593D01*
X58172221Y-11442749D01*
X58132228Y-11428103D01*
X58012151Y-11387885D01*
X57890223Y-11359893D01*
X57766916Y-11342798D01*
X57637963Y-11329493D01*
X57731463Y-11241750D01*
X57844401Y-11124014D01*
X57935003Y-11003333D01*
X58003929Y-10878488D01*
X58051840Y-10748259D01*
X58079395Y-10611426D01*
X58081332Y-10594814D01*
X58087268Y-10555136D01*
X58094824Y-10525097D01*
X58101811Y-10511872D01*
X58119195Y-10506495D01*
X58151911Y-10500574D01*
X58186058Y-10496178D01*
X58289554Y-10496245D01*
G37*
G36*
X59376501Y-13494542D02*
G01*
X59400579Y-13558105D01*
X59432663Y-13631165D01*
X59469001Y-13706015D01*
X59505836Y-13774949D01*
X59539417Y-13830259D01*
X59541592Y-13833484D01*
X59567526Y-13867400D01*
X59603408Y-13909006D01*
X59642283Y-13950308D01*
X59649620Y-13957645D01*
X59721551Y-14028737D01*
X59665776Y-14107531D01*
X59632368Y-14152868D01*
X59590886Y-14206504D01*
X59548408Y-14259359D01*
X59532459Y-14278564D01*
X59472053Y-14353899D01*
X59422987Y-14424178D01*
X59382630Y-14494728D01*
X59348352Y-14570880D01*
X59317522Y-14657962D01*
X59287509Y-14761303D01*
X59279791Y-14790434D01*
X59264194Y-14848919D01*
X59252920Y-14887361D01*
X59244973Y-14908151D01*
X59239356Y-14913686D01*
X59235073Y-14906357D01*
X59233699Y-14901169D01*
X59225792Y-14869008D01*
X59215207Y-14827569D01*
X59210335Y-14808931D01*
X59181643Y-14682908D01*
X59160135Y-14552179D01*
X59146444Y-14422939D01*
X59141202Y-14301383D01*
X59145042Y-14193705D01*
X59146235Y-14181107D01*
X59156265Y-14107157D01*
X59169797Y-14042054D01*
X59185642Y-13990501D01*
X59202611Y-13957203D01*
X59202976Y-13956727D01*
X59217155Y-13930736D01*
X59234811Y-13886781D01*
X59254603Y-13829450D01*
X59275191Y-13763330D01*
X59295234Y-13693008D01*
X59313391Y-13623071D01*
X59328324Y-13558106D01*
X59338690Y-13502700D01*
X59341403Y-13483012D01*
X59349490Y-13413834D01*
X59376501Y-13494542D01*
G37*
G36*
X59442669Y-14899723D02*
G01*
X59458945Y-14919584D01*
X59474826Y-14949411D01*
X59470930Y-14967713D01*
X59446766Y-14975604D01*
X59434037Y-14976113D01*
X59378601Y-14986290D01*
X59325435Y-15013867D01*
X59296731Y-15038969D01*
X59273566Y-15079235D01*
X59268501Y-15125615D01*
X59278957Y-15174020D01*
X59302356Y-15220358D01*
X59336119Y-15260540D01*
X59377667Y-15290475D01*
X59424422Y-15306073D01*
X59464657Y-15305331D01*
X59505061Y-15288067D01*
X59544742Y-15255090D01*
X59576958Y-15212948D01*
X59591099Y-15182578D01*
X59605055Y-15151397D01*
X59620160Y-15142700D01*
X59639296Y-15155977D01*
X59652080Y-15171781D01*
X59677686Y-15206415D01*
X59649696Y-15250753D01*
X59599809Y-15313323D01*
X59542014Y-15358049D01*
X59479335Y-15383949D01*
X59414800Y-15390044D01*
X59351435Y-15375349D01*
X59318446Y-15358220D01*
X59261349Y-15310736D01*
X59218038Y-15251734D01*
X59191063Y-15186256D01*
X59182975Y-15119348D01*
X59185332Y-15094914D01*
X59205619Y-15037066D01*
X59244509Y-14983430D01*
X59297546Y-14938249D01*
X59360274Y-14905760D01*
X59395131Y-14895315D01*
X59424035Y-14891426D01*
X59442669Y-14899723D01*
G37*
G36*
X54631374Y-14020541D02*
G01*
X54629465Y-14013122D01*
X54640495Y-14007439D01*
X54669250Y-13993549D01*
X54712545Y-13972965D01*
X54732096Y-13963747D01*
X54927593Y-13963747D01*
X54945012Y-14005436D01*
X54965036Y-14044527D01*
X54987004Y-14073789D01*
X55006665Y-14087818D01*
X55010215Y-14088323D01*
X55028056Y-14083337D01*
X55043018Y-14076388D01*
X55060239Y-14057064D01*
X55061811Y-14024965D01*
X55047562Y-13978780D01*
X55023864Y-13929307D01*
X55013206Y-13931115D01*
X54988382Y-13939595D01*
X54974836Y-13944845D01*
X54927593Y-13963747D01*
X54732096Y-13963747D01*
X54767196Y-13947198D01*
X54830017Y-13917763D01*
X54843934Y-13911264D01*
X55054913Y-13812798D01*
X55096189Y-13901559D01*
X55116839Y-13951700D01*
X55133238Y-14002150D01*
X55142319Y-14043286D01*
X55142852Y-14047969D01*
X55144636Y-14084538D01*
X55139472Y-14107892D01*
X55124570Y-14127495D01*
X55117374Y-14134442D01*
X55088334Y-14154643D01*
X55053408Y-14161964D01*
X55035561Y-14162161D01*
X55003720Y-14162870D01*
X54988771Y-14168683D01*
X54984666Y-14182376D01*
X54984611Y-14185537D01*
X54974011Y-14223008D01*
X54945582Y-14257062D01*
X54908531Y-14279782D01*
X54874934Y-14291599D01*
X54847460Y-14293301D01*
X54817430Y-14287410D01*
X54783871Y-14273466D01*
X54753192Y-14247516D01*
X54722687Y-14206415D01*
X54689651Y-14147018D01*
X54680092Y-14127734D01*
X54658370Y-14082171D01*
X54658181Y-14081755D01*
X54741934Y-14081755D01*
X54754419Y-14110462D01*
X54780075Y-14153116D01*
X54782487Y-14156941D01*
X54812790Y-14191952D01*
X54846463Y-14204584D01*
X54885553Y-14195480D01*
X54893131Y-14191685D01*
X54911252Y-14171385D01*
X54915433Y-14154436D01*
X54911009Y-14127259D01*
X54899734Y-14092444D01*
X54884600Y-14056726D01*
X54868597Y-14026840D01*
X54854719Y-14009522D01*
X54850206Y-14007615D01*
X54831674Y-14012381D01*
X54801409Y-14024487D01*
X54784127Y-14032497D01*
X54756727Y-14047454D01*
X54742683Y-14062313D01*
X54741934Y-14081755D01*
X54658181Y-14081755D01*
X54641485Y-14044978D01*
X54631374Y-14020541D01*
G37*
G36*
X57288122Y-15523777D02*
G01*
X57312493Y-15526529D01*
X57353476Y-15529982D01*
X57404658Y-15533629D01*
X57443326Y-15536038D01*
X57567271Y-15543288D01*
X57567271Y-15623320D01*
X57446209Y-15615210D01*
X57325147Y-15607101D01*
X57325147Y-15653285D01*
X57326642Y-15683166D01*
X57335305Y-15697733D01*
X57357401Y-15704713D01*
X57368383Y-15706615D01*
X57404248Y-15710577D01*
X57450926Y-15713227D01*
X57483680Y-15713889D01*
X57555741Y-15714015D01*
X57555741Y-15796943D01*
X57313617Y-15780439D01*
X57313617Y-15919103D01*
X57420267Y-15927396D01*
X57467583Y-15931422D01*
X57505696Y-15935318D01*
X57529114Y-15938489D01*
X57533642Y-15939642D01*
X57536869Y-15952531D01*
X57535300Y-15978111D01*
X57535216Y-15978692D01*
X57532710Y-15992947D01*
X57527828Y-16002999D01*
X57517260Y-16009235D01*
X57497700Y-16012043D01*
X57465838Y-16011809D01*
X57418366Y-16008921D01*
X57351976Y-16003767D01*
X57333607Y-16002295D01*
X57287562Y-15997933D01*
X57250799Y-15993187D01*
X57228997Y-15988845D01*
X57225674Y-15987338D01*
X57224448Y-15974511D01*
X57224696Y-15942988D01*
X57226173Y-15897067D01*
X57228633Y-15841047D01*
X57231832Y-15779227D01*
X57235525Y-15715904D01*
X57239465Y-15655379D01*
X57243408Y-15601949D01*
X57247108Y-15559913D01*
X57250320Y-15533571D01*
X57251940Y-15527035D01*
X57265614Y-15522584D01*
X57288122Y-15523777D01*
G37*
G36*
X60322303Y-10838281D02*
G01*
X60341701Y-10864210D01*
X60368572Y-10902214D01*
X60400327Y-10948690D01*
X60409886Y-10962948D01*
X60497860Y-11094722D01*
X60470900Y-11115460D01*
X60448852Y-11130470D01*
X60435367Y-11136455D01*
X60425794Y-11127562D01*
X60406786Y-11103363D01*
X60381415Y-11067929D01*
X60361753Y-11038975D01*
X60296710Y-10941238D01*
X60262389Y-10961149D01*
X60237494Y-10978397D01*
X60223176Y-10993527D01*
X60222731Y-10994492D01*
X60226530Y-11009206D01*
X60241053Y-11038049D01*
X60263754Y-11076296D01*
X60281689Y-11103957D01*
X60345984Y-11199990D01*
X60320018Y-11219962D01*
X60297374Y-11233474D01*
X60282523Y-11236556D01*
X60271987Y-11226453D01*
X60252240Y-11202231D01*
X60226962Y-11168892D01*
X60199832Y-11131437D01*
X60174531Y-11094866D01*
X60154739Y-11064182D01*
X60150870Y-11057648D01*
X60140380Y-11052427D01*
X60119563Y-11058674D01*
X60086117Y-11077495D01*
X60037740Y-11109992D01*
X60029372Y-11115889D01*
X60030568Y-11128347D01*
X60043631Y-11155745D01*
X60066685Y-11194507D01*
X60086164Y-11224139D01*
X60154260Y-11324387D01*
X60127759Y-11345847D01*
X60105724Y-11361300D01*
X60091669Y-11367306D01*
X60082185Y-11358197D01*
X60062766Y-11333195D01*
X60035968Y-11295794D01*
X60004347Y-11249485D01*
X59993709Y-11233478D01*
X59958139Y-11178787D01*
X59934403Y-11139839D01*
X59921001Y-11113563D01*
X59916431Y-11096889D01*
X59919193Y-11086748D01*
X59920984Y-11084747D01*
X59937988Y-11071284D01*
X59969332Y-11048924D01*
X60011466Y-11019991D01*
X60060842Y-10986811D01*
X60113908Y-10951708D01*
X60167116Y-10917007D01*
X60216915Y-10885034D01*
X60259755Y-10858112D01*
X60292087Y-10838567D01*
X60310362Y-10828723D01*
X60312964Y-10828031D01*
X60322303Y-10838281D01*
G37*
G36*
X56050148Y-14060579D02*
G01*
X56095608Y-14062311D01*
X56130136Y-14066396D01*
X56159791Y-14073689D01*
X56190632Y-14085040D01*
X56204496Y-14090839D01*
X56249339Y-14113210D01*
X56301849Y-14144227D01*
X56351919Y-14177846D01*
X56360148Y-14183898D01*
X56462179Y-14257507D01*
X56572485Y-14332250D01*
X56684995Y-14404270D01*
X56793641Y-14469706D01*
X56892355Y-14524699D01*
X56912558Y-14535229D01*
X56973490Y-14566515D01*
X56898546Y-14573586D01*
X56781316Y-14594348D01*
X56674859Y-14634249D01*
X56575975Y-14694725D01*
X56514019Y-14745953D01*
X56450718Y-14803807D01*
X56354682Y-14738583D01*
X56238616Y-14654787D01*
X56133611Y-14569014D01*
X56042352Y-14483765D01*
X55967525Y-14401537D01*
X55914133Y-14328544D01*
X55870663Y-14270545D01*
X55821323Y-14228343D01*
X55761246Y-14199066D01*
X55685563Y-14179841D01*
X55653603Y-14174833D01*
X55590921Y-14166212D01*
X55636266Y-14142949D01*
X55714255Y-14106464D01*
X55785628Y-14081977D01*
X55858750Y-14067521D01*
X55941988Y-14061130D01*
X55987698Y-14060350D01*
X56050148Y-14060579D01*
G37*
G36*
X58780501Y-15288011D02*
G01*
X58786295Y-15294838D01*
X58799865Y-15322919D01*
X58792430Y-15343096D01*
X58778620Y-15351949D01*
X58770296Y-15357259D01*
X58766660Y-15365848D01*
X58768639Y-15381187D01*
X58777164Y-15406749D01*
X58793163Y-15446006D01*
X58817564Y-15502429D01*
X58820957Y-15510189D01*
X58847223Y-15569304D01*
X58866653Y-15610093D01*
X58881125Y-15635577D01*
X58892515Y-15648779D01*
X58902702Y-15652723D01*
X58908985Y-15651911D01*
X58938132Y-15653701D01*
X58958015Y-15671801D01*
X58962369Y-15689946D01*
X58951591Y-15705876D01*
X58918995Y-15726243D01*
X58876299Y-15746183D01*
X58835941Y-15763325D01*
X58804561Y-15776253D01*
X58787459Y-15782799D01*
X58785911Y-15783194D01*
X58778592Y-15774000D01*
X58768214Y-15753827D01*
X58757351Y-15727947D01*
X58757294Y-15716709D01*
X58768693Y-15714051D01*
X58772490Y-15714015D01*
X58787431Y-15710206D01*
X58793783Y-15697119D01*
X58791101Y-15672266D01*
X58778942Y-15633161D01*
X58756863Y-15577315D01*
X58741801Y-15541959D01*
X58717033Y-15485252D01*
X58699070Y-15446584D01*
X58685732Y-15422758D01*
X58674842Y-15410575D01*
X58664220Y-15406835D01*
X58651687Y-15408343D01*
X58650896Y-15408515D01*
X58626366Y-15409194D01*
X58611082Y-15393593D01*
X58607103Y-15385547D01*
X58601455Y-15370784D01*
X58602915Y-15359543D01*
X58615010Y-15348547D01*
X58641267Y-15334518D01*
X58682623Y-15315359D01*
X58726207Y-15295953D01*
X58753829Y-15285564D01*
X58770318Y-15283235D01*
X58780501Y-15288011D01*
G37*
G36*
X56538641Y-15330023D02*
G01*
X56552821Y-15335477D01*
X56568294Y-15341725D01*
X56619376Y-15360657D01*
X56638283Y-15482570D01*
X56647216Y-15541014D01*
X56655762Y-15598381D01*
X56662677Y-15646262D01*
X56665453Y-15666389D01*
X56673717Y-15728295D01*
X56718848Y-15597211D01*
X56737345Y-15543576D01*
X56753815Y-15495990D01*
X56766399Y-15459808D01*
X56773031Y-15440966D01*
X56781658Y-15424535D01*
X56795744Y-15422154D01*
X56817256Y-15429081D01*
X56841409Y-15441570D01*
X56852368Y-15453894D01*
X56852428Y-15454629D01*
X56848726Y-15469719D01*
X56838643Y-15501789D01*
X56823711Y-15546161D01*
X56805461Y-15598155D01*
X56805121Y-15599106D01*
X56783602Y-15659481D01*
X56762058Y-15720337D01*
X56743290Y-15773737D01*
X56732221Y-15805572D01*
X56717906Y-15843198D01*
X56704897Y-15870691D01*
X56695989Y-15882144D01*
X56695938Y-15882156D01*
X56678396Y-15880513D01*
X56650514Y-15873356D01*
X56648881Y-15872840D01*
X56625873Y-15862737D01*
X56613446Y-15846533D01*
X56606453Y-15816562D01*
X56605191Y-15807785D01*
X56593257Y-15722054D01*
X56582168Y-15644853D01*
X56572384Y-15579221D01*
X56564366Y-15528194D01*
X56558574Y-15494811D01*
X56556046Y-15483421D01*
X56550613Y-15487465D01*
X56539230Y-15510072D01*
X56523321Y-15547956D01*
X56504310Y-15597830D01*
X56493948Y-15626628D01*
X56473768Y-15683318D01*
X56456222Y-15731752D01*
X56442754Y-15768016D01*
X56434807Y-15788192D01*
X56433416Y-15790979D01*
X56421141Y-15790186D01*
X56396192Y-15783166D01*
X56392402Y-15781872D01*
X56366932Y-15769269D01*
X56361222Y-15754556D01*
X56362511Y-15750113D01*
X56368665Y-15733253D01*
X56380994Y-15698750D01*
X56398036Y-15650719D01*
X56418330Y-15593276D01*
X56432657Y-15552599D01*
X56459564Y-15475692D01*
X56479918Y-15417911D01*
X56495298Y-15376802D01*
X56507283Y-15349912D01*
X56517450Y-15334788D01*
X56527376Y-15328976D01*
X56538641Y-15330023D01*
G37*
G36*
X54877595Y-13106812D02*
G01*
X54884731Y-13131494D01*
X54885732Y-13136507D01*
X54888306Y-13160480D01*
X54882861Y-13179491D01*
X54865864Y-13200626D01*
X54842712Y-13222775D01*
X54808932Y-13253179D01*
X54776687Y-13281018D01*
X54760989Y-13293881D01*
X54741696Y-13311644D01*
X54734983Y-13323275D01*
X54735449Y-13324167D01*
X54748059Y-13330705D01*
X54776951Y-13343358D01*
X54816917Y-13359880D01*
X54836942Y-13367906D01*
X54882619Y-13386475D01*
X54911273Y-13400349D01*
X54927401Y-13413116D01*
X54935498Y-13428362D01*
X54940064Y-13449676D01*
X54940159Y-13450240D01*
X54944499Y-13478825D01*
X54946107Y-13495157D01*
X54945924Y-13496433D01*
X54935281Y-13493036D01*
X54907352Y-13482400D01*
X54866157Y-13466099D01*
X54815720Y-13445705D01*
X54805900Y-13441692D01*
X54743805Y-13416721D01*
X54697188Y-13399980D01*
X54660327Y-13390625D01*
X54627499Y-13387817D01*
X54592982Y-13390712D01*
X54551054Y-13398470D01*
X54535061Y-13401858D01*
X54496684Y-13409497D01*
X54468499Y-13414001D01*
X54456743Y-13414412D01*
X54452764Y-13401857D01*
X54447544Y-13375592D01*
X54446737Y-13370747D01*
X54440217Y-13330568D01*
X54534771Y-13315859D01*
X54629326Y-13301150D01*
X54746190Y-13198958D01*
X54789659Y-13161414D01*
X54826965Y-13130074D01*
X54854691Y-13107743D01*
X54869424Y-13097222D01*
X54870665Y-13096766D01*
X54877595Y-13106812D01*
G37*
G36*
X57809331Y-10908731D02*
G01*
X57801945Y-10969988D01*
X57778734Y-11033432D01*
X57742079Y-11097842D01*
X57714526Y-11135545D01*
X57676564Y-11181042D01*
X57633021Y-11229194D01*
X57588721Y-11274859D01*
X57548490Y-11312898D01*
X57517153Y-11338168D01*
X57515387Y-11339346D01*
X57495245Y-11346689D01*
X57457621Y-11355436D01*
X57407954Y-11364476D01*
X57353503Y-11372461D01*
X57240118Y-11389899D01*
X57142708Y-11411371D01*
X57054281Y-11438824D01*
X56967846Y-11474208D01*
X56937858Y-11488299D01*
X56825828Y-11552109D01*
X56728625Y-11627309D01*
X56649087Y-11711449D01*
X56603673Y-11777333D01*
X56596425Y-11784985D01*
X56588197Y-11780542D01*
X56576833Y-11761073D01*
X56560183Y-11723649D01*
X56554838Y-11710896D01*
X56516208Y-11606897D01*
X56492765Y-11516037D01*
X56483659Y-11434885D01*
X56483476Y-11422162D01*
X56489739Y-11352877D01*
X56509750Y-11298983D01*
X56545343Y-11256130D01*
X56557716Y-11245999D01*
X56584150Y-11228541D01*
X56612052Y-11217865D01*
X56649235Y-11211749D01*
X56688649Y-11208777D01*
X56736395Y-11204517D01*
X56777123Y-11196345D01*
X56819380Y-11181829D01*
X56871710Y-11158541D01*
X56881252Y-11153999D01*
X56971227Y-11114659D01*
X57055683Y-11086649D01*
X57141393Y-11068588D01*
X57235133Y-11059094D01*
X57343677Y-11056787D01*
X57357422Y-11056920D01*
X57529236Y-11059033D01*
X57610166Y-11011767D01*
X57658936Y-10981617D01*
X57709176Y-10947904D01*
X57750054Y-10917898D01*
X57750246Y-10917747D01*
X57809395Y-10870992D01*
X57809331Y-10908731D01*
G37*
G36*
X54709701Y-12381507D02*
G01*
X54774974Y-12407125D01*
X54827816Y-12447970D01*
X54846452Y-12471093D01*
X54861319Y-12496072D01*
X54870002Y-12521925D01*
X54874068Y-12556024D01*
X54875078Y-12605737D01*
X54875078Y-12605953D01*
X54870096Y-12680579D01*
X54855009Y-12734667D01*
X54829609Y-12768504D01*
X54793687Y-12782380D01*
X54751134Y-12777757D01*
X54735554Y-12771583D01*
X54733447Y-12761681D01*
X54745642Y-12742910D01*
X54759478Y-12726072D01*
X54790111Y-12676235D01*
X54804898Y-12621946D01*
X54803298Y-12569220D01*
X54784770Y-12524075D01*
X54778410Y-12515806D01*
X54738462Y-12484953D01*
X54687062Y-12467374D01*
X54630498Y-12462911D01*
X54575058Y-12471412D01*
X54527030Y-12492720D01*
X54495297Y-12522779D01*
X54481353Y-12558735D01*
X54477388Y-12606141D01*
X54483128Y-12655792D01*
X54498299Y-12698484D01*
X54500657Y-12702566D01*
X54516470Y-12733410D01*
X54515318Y-12749878D01*
X54495599Y-12754791D01*
X54471950Y-12753111D01*
X54442631Y-12746198D01*
X54423372Y-12730616D01*
X54410988Y-12701694D01*
X54402298Y-12654765D01*
X54401655Y-12650001D01*
X54400318Y-12571642D01*
X54417269Y-12503155D01*
X54451121Y-12446902D01*
X54500483Y-12405242D01*
X54559687Y-12381521D01*
X54636453Y-12372508D01*
X54709701Y-12381507D01*
G37*
G36*
X59057985Y-9783707D02*
G01*
X59086703Y-9795451D01*
X59127980Y-9814804D01*
X59177984Y-9840026D01*
X59198012Y-9850540D01*
X59342792Y-9927346D01*
X59325230Y-9961307D01*
X59311011Y-9984396D01*
X59299979Y-9994998D01*
X59299317Y-9995076D01*
X59286139Y-9989859D01*
X59257641Y-9976012D01*
X59218736Y-9955971D01*
X59194686Y-9943192D01*
X59152170Y-9920805D01*
X59117377Y-9903303D01*
X59095208Y-9893111D01*
X59090171Y-9891501D01*
X59081335Y-9900493D01*
X59068215Y-9921939D01*
X59055111Y-9947539D01*
X59046321Y-9968996D01*
X59045465Y-9977788D01*
X59056475Y-9984021D01*
X59083124Y-9998426D01*
X59120644Y-10018435D01*
X59141079Y-10029258D01*
X59183055Y-10051851D01*
X59217276Y-10071031D01*
X59238552Y-10083855D01*
X59242516Y-10086766D01*
X59244707Y-10102233D01*
X59237581Y-10125933D01*
X59225494Y-10147527D01*
X59213064Y-10156684D01*
X59198854Y-10151468D01*
X59169496Y-10137449D01*
X59129972Y-10117073D01*
X59104494Y-10103383D01*
X59061844Y-10081567D01*
X59026686Y-10066256D01*
X59003810Y-10059393D01*
X58997967Y-10060146D01*
X58987629Y-10075309D01*
X58970633Y-10103235D01*
X58958594Y-10123990D01*
X58927964Y-10177769D01*
X59022992Y-10226336D01*
X59075654Y-10253417D01*
X59110657Y-10272698D01*
X59130827Y-10286968D01*
X59138993Y-10299013D01*
X59137979Y-10311620D01*
X59130614Y-10327575D01*
X59128950Y-10330790D01*
X59114849Y-10353321D01*
X59103896Y-10362982D01*
X59103312Y-10362972D01*
X59090676Y-10357258D01*
X59061769Y-10342440D01*
X59020502Y-10320572D01*
X58970785Y-10293707D01*
X58954295Y-10284700D01*
X58813629Y-10207676D01*
X58925853Y-9998282D01*
X58959991Y-9934892D01*
X58990687Y-9878471D01*
X59016203Y-9832169D01*
X59034797Y-9799137D01*
X59044731Y-9782527D01*
X59045654Y-9781312D01*
X59057985Y-9783707D01*
G37*
G36*
X60508905Y-12402492D02*
G01*
X60472210Y-12392618D01*
X60452023Y-12382631D01*
X60442300Y-12367594D01*
X60437221Y-12343954D01*
X60435259Y-12312658D01*
X60442523Y-12301241D01*
X60443122Y-12301215D01*
X60458707Y-12303980D01*
X60491802Y-12311518D01*
X60537625Y-12322694D01*
X60591397Y-12336373D01*
X60594076Y-12337068D01*
X60660595Y-12354218D01*
X60731509Y-12372309D01*
X60797044Y-12388854D01*
X60835950Y-12398549D01*
X60939718Y-12424177D01*
X60943148Y-12475935D01*
X60946578Y-12527692D01*
X60715609Y-12639283D01*
X60648466Y-12671600D01*
X60588465Y-12700243D01*
X60538651Y-12723779D01*
X60502067Y-12740775D01*
X60481756Y-12749796D01*
X60478702Y-12750874D01*
X60475006Y-12740625D01*
X60472928Y-12714977D01*
X60472763Y-12704020D01*
X60474072Y-12676407D01*
X60481535Y-12659197D01*
X60500462Y-12645723D01*
X60530140Y-12631960D01*
X60563447Y-12616065D01*
X60580581Y-12602174D01*
X60586910Y-12584063D01*
X60587789Y-12565125D01*
X60586288Y-12526304D01*
X60582220Y-12481687D01*
X60580851Y-12470895D01*
X60580724Y-12469968D01*
X60656885Y-12469968D01*
X60661121Y-12512583D01*
X60664217Y-12529227D01*
X60671195Y-12564117D01*
X60749469Y-12527786D01*
X60785853Y-12509636D01*
X60811107Y-12494570D01*
X60820669Y-12485377D01*
X60820317Y-12484508D01*
X60805663Y-12477926D01*
X60776370Y-12468737D01*
X60755242Y-12463098D01*
X60717816Y-12453662D01*
X60687347Y-12445900D01*
X60677416Y-12443327D01*
X60662269Y-12447191D01*
X60656885Y-12469968D01*
X60580724Y-12469968D01*
X60573641Y-12418292D01*
X60508905Y-12402492D01*
G37*
G36*
X55299696Y-11895853D02*
G01*
X55396819Y-11955013D01*
X55487300Y-11996550D01*
X55569186Y-12019681D01*
X55620492Y-12024501D01*
X55676987Y-12024501D01*
X55657660Y-12061973D01*
X55614765Y-12129745D01*
X55559349Y-12195272D01*
X55513671Y-12237437D01*
X55448090Y-12291143D01*
X55397488Y-12335609D01*
X55358419Y-12375461D01*
X55327438Y-12415327D01*
X55301100Y-12459834D01*
X55275961Y-12513610D01*
X55248575Y-12581282D01*
X55238726Y-12606753D01*
X55232958Y-12613139D01*
X55226175Y-12602022D01*
X55217482Y-12571347D01*
X55211115Y-12543339D01*
X55188373Y-12418169D01*
X55175021Y-12298035D01*
X55170985Y-12185916D01*
X55176190Y-12084789D01*
X55190561Y-11997633D01*
X55214025Y-11927426D01*
X55227206Y-11902677D01*
X55251595Y-11863215D01*
X55299696Y-11895853D01*
G37*
G36*
X60533438Y-13069287D02*
G01*
X60591491Y-13076416D01*
X60601056Y-13077723D01*
X60668170Y-13086931D01*
X60740731Y-13096808D01*
X60807703Y-13105855D01*
X60838832Y-13110023D01*
X60945482Y-13124236D01*
X60945482Y-13161705D01*
X60942974Y-13189105D01*
X60936893Y-13204437D01*
X60936453Y-13204753D01*
X60922938Y-13205057D01*
X60891292Y-13202776D01*
X60846227Y-13198461D01*
X60792459Y-13192662D01*
X60734701Y-13185929D01*
X60677666Y-13178813D01*
X60626069Y-13171863D01*
X60584623Y-13165629D01*
X60558043Y-13160661D01*
X60557525Y-13160537D01*
X60543717Y-13159434D01*
X60534552Y-13167418D01*
X60527430Y-13189131D01*
X60520053Y-13227494D01*
X60513336Y-13269732D01*
X60508732Y-13305687D01*
X60507353Y-13324480D01*
X60502585Y-13360737D01*
X60485840Y-13379556D01*
X60453455Y-13385009D01*
X60452891Y-13385009D01*
X60426270Y-13383369D01*
X60417093Y-13375591D01*
X60419359Y-13359068D01*
X60423465Y-13337104D01*
X60429073Y-13298291D01*
X60435349Y-13248720D01*
X60439810Y-13209813D01*
X60446099Y-13157965D01*
X60452539Y-13114173D01*
X60458269Y-13083830D01*
X60461628Y-13073069D01*
X60471601Y-13067717D01*
X60494506Y-13066422D01*
X60533438Y-13069287D01*
G37*
G36*
X58991575Y-11971873D02*
G01*
X59023236Y-11984901D01*
X59044524Y-11994220D01*
X59154592Y-12034613D01*
X59279871Y-12066513D01*
X59413733Y-12088833D01*
X59549552Y-12100484D01*
X59680700Y-12100380D01*
X59688742Y-12099950D01*
X59748882Y-12096582D01*
X59805011Y-12093541D01*
X59850713Y-12091167D01*
X59878876Y-12089830D01*
X59924888Y-12087915D01*
X59950659Y-12178183D01*
X59981600Y-12296323D01*
X60003190Y-12403517D01*
X60017104Y-12509070D01*
X60022620Y-12577928D01*
X60027324Y-12640309D01*
X60033109Y-12686022D01*
X60041295Y-12721458D01*
X60053203Y-12753007D01*
X60062980Y-12773312D01*
X60099307Y-12830879D01*
X60150884Y-12893828D01*
X60212645Y-12956632D01*
X60279523Y-13013767D01*
X60292439Y-13023561D01*
X60326272Y-13049147D01*
X60343281Y-13064082D01*
X60345397Y-13071125D01*
X60334553Y-13073039D01*
X60327028Y-13072987D01*
X60302630Y-13069853D01*
X60262061Y-13061924D01*
X60211398Y-13050472D01*
X60167226Y-13039512D01*
X60011872Y-12993750D01*
X59864443Y-12939243D01*
X59727200Y-12877307D01*
X59602405Y-12809261D01*
X59492321Y-12736421D01*
X59399209Y-12660104D01*
X59325331Y-12581627D01*
X59286705Y-12526828D01*
X59262594Y-12480897D01*
X59241647Y-12430569D01*
X59232758Y-12402642D01*
X59213972Y-12345782D01*
X59186043Y-12280285D01*
X59151729Y-12211048D01*
X59113786Y-12142967D01*
X59074973Y-12080940D01*
X59038048Y-12029863D01*
X59005768Y-11994633D01*
X59000478Y-11990206D01*
X58981848Y-11974676D01*
X58978330Y-11968515D01*
X58991575Y-11971873D01*
G37*
G36*
X58461394Y-14615949D02*
G01*
X58452874Y-14626572D01*
X58423585Y-14668788D01*
X58393446Y-14728673D01*
X58364399Y-14801010D01*
X58338388Y-14880577D01*
X58317354Y-14962155D01*
X58306117Y-15020876D01*
X58299393Y-15059449D01*
X58293316Y-15087870D01*
X58289467Y-15099431D01*
X58267768Y-15110418D01*
X58227131Y-15121343D01*
X58171676Y-15131727D01*
X58105520Y-15141088D01*
X58032783Y-15148946D01*
X57957582Y-15154819D01*
X57884035Y-15158228D01*
X57816262Y-15158691D01*
X57789105Y-15157827D01*
X57732356Y-15155642D01*
X57690537Y-15156081D01*
X57655568Y-15160280D01*
X57619368Y-15169376D01*
X57573857Y-15184505D01*
X57556999Y-15190454D01*
X57504649Y-15210429D01*
X57455357Y-15231686D01*
X57416737Y-15250844D01*
X57404230Y-15258298D01*
X57378170Y-15274212D01*
X57362155Y-15281427D01*
X57359736Y-15280763D01*
X57364714Y-15268216D01*
X57378151Y-15239886D01*
X57397799Y-15200411D01*
X57414165Y-15168398D01*
X57459748Y-15087661D01*
X57511304Y-15008918D01*
X57565000Y-14937366D01*
X57617005Y-14878200D01*
X57652577Y-14845094D01*
X57698526Y-14812106D01*
X57749772Y-14782640D01*
X57799672Y-14759933D01*
X57841584Y-14747227D01*
X57856520Y-14745631D01*
X57880464Y-14743368D01*
X57922106Y-14737276D01*
X57976574Y-14728244D01*
X58038996Y-14717163D01*
X58104498Y-14704923D01*
X58168209Y-14692414D01*
X58225254Y-14680526D01*
X58270763Y-14670151D01*
X58273966Y-14669361D01*
X58325532Y-14655261D01*
X58379940Y-14638436D01*
X58408539Y-14628607D01*
X58443078Y-14616379D01*
X58459540Y-14612213D01*
X58461394Y-14615949D01*
G37*
G36*
X59321175Y-12680009D02*
G01*
X59343861Y-12697743D01*
X59375922Y-12724266D01*
X59395031Y-12740524D01*
X59500779Y-12824349D01*
X59615473Y-12902941D01*
X59733474Y-12972953D01*
X59849144Y-13031039D01*
X59956808Y-13073842D01*
X60003590Y-13091842D01*
X60028843Y-13107552D01*
X60034453Y-13118499D01*
X60030482Y-13156009D01*
X60020363Y-13208021D01*
X60005969Y-13267417D01*
X59989179Y-13327081D01*
X59971868Y-13379897D01*
X59955913Y-13418747D01*
X59954637Y-13421259D01*
X59933181Y-13470886D01*
X59914895Y-13527504D01*
X59907444Y-13559616D01*
X59902450Y-13600163D01*
X59898641Y-13656802D01*
X59896082Y-13723703D01*
X59894835Y-13795032D01*
X59894962Y-13864958D01*
X59896527Y-13927650D01*
X59899593Y-13977276D01*
X59902684Y-14001221D01*
X59906081Y-14027900D01*
X59904693Y-14041686D01*
X59903738Y-14042204D01*
X59893574Y-14034541D01*
X59870256Y-14013511D01*
X59836936Y-13982054D01*
X59796766Y-13943110D01*
X59783226Y-13929789D01*
X59661752Y-13803275D01*
X59561367Y-13684128D01*
X59481611Y-13571516D01*
X59422021Y-13464605D01*
X59382135Y-13362562D01*
X59361491Y-13264553D01*
X59359628Y-13169747D01*
X59359913Y-13166283D01*
X59362194Y-13109923D01*
X59361120Y-13040693D01*
X59357186Y-12964939D01*
X59350884Y-12889007D01*
X59342709Y-12819242D01*
X59333153Y-12761991D01*
X59326322Y-12734118D01*
X59317095Y-12701420D01*
X59312091Y-12679469D01*
X59311863Y-12674250D01*
X59321175Y-12680009D01*
G37*
G36*
X55801140Y-15073554D02*
G01*
X55835829Y-15025370D01*
X55863836Y-14987267D01*
X55883002Y-14962182D01*
X55891167Y-14953054D01*
X55891184Y-14953053D01*
X55902767Y-14959057D01*
X55927999Y-14974845D01*
X55961560Y-14997084D01*
X55963723Y-14998550D01*
X56025877Y-15046291D01*
X56070599Y-15092693D01*
X56095773Y-15135465D01*
X56098540Y-15144406D01*
X56098119Y-15186042D01*
X56080081Y-15227923D01*
X56049112Y-15264436D01*
X56009898Y-15289970D01*
X55969518Y-15298945D01*
X55943195Y-15301589D01*
X55930308Y-15308072D01*
X55930049Y-15309253D01*
X55931165Y-15324437D01*
X55934174Y-15357193D01*
X55938572Y-15402157D01*
X55942145Y-15437435D01*
X55946802Y-15486831D01*
X55949799Y-15526891D01*
X55950810Y-15552606D01*
X55950137Y-15559414D01*
X55939098Y-15556086D01*
X55916078Y-15542893D01*
X55904391Y-15535222D01*
X55862750Y-15506926D01*
X55854586Y-15391776D01*
X55850358Y-15338562D01*
X55845836Y-15303449D01*
X55839674Y-15281502D01*
X55830522Y-15267789D01*
X55818057Y-15258040D01*
X55797283Y-15246006D01*
X55787345Y-15243258D01*
X55779847Y-15253725D01*
X55762288Y-15277745D01*
X55738316Y-15310329D01*
X55735833Y-15313695D01*
X55686668Y-15380328D01*
X55652229Y-15355806D01*
X55629128Y-15334216D01*
X55627904Y-15318129D01*
X55628004Y-15317997D01*
X55637639Y-15304692D01*
X55658243Y-15275747D01*
X55687531Y-15234388D01*
X55723216Y-15183844D01*
X55728359Y-15176542D01*
X55844051Y-15176542D01*
X55845190Y-15183965D01*
X55866632Y-15199162D01*
X55897266Y-15215098D01*
X55926608Y-15226759D01*
X55940836Y-15229696D01*
X55960407Y-15222357D01*
X55984072Y-15204697D01*
X56003061Y-15180367D01*
X56010757Y-15157929D01*
X56002319Y-15137257D01*
X55981669Y-15111121D01*
X55955803Y-15086603D01*
X55931719Y-15070786D01*
X55922268Y-15068350D01*
X55907755Y-15077020D01*
X55888335Y-15098686D01*
X55868349Y-15126837D01*
X55852141Y-15154960D01*
X55844051Y-15176542D01*
X55728359Y-15176542D01*
X55761930Y-15128881D01*
X55801140Y-15073554D01*
G37*
G36*
X59084130Y-14152344D02*
G01*
X59076877Y-14183180D01*
X59071824Y-14231925D01*
X59068984Y-14293531D01*
X59068369Y-14362951D01*
X59069994Y-14435139D01*
X59073870Y-14505048D01*
X59080010Y-14567630D01*
X59083007Y-14588866D01*
X59091427Y-14643987D01*
X59096048Y-14680720D01*
X59096852Y-14703426D01*
X59093819Y-14716465D01*
X59086931Y-14724196D01*
X59082408Y-14727204D01*
X59035669Y-14755093D01*
X58980517Y-14786502D01*
X58921877Y-14818792D01*
X58864670Y-14849325D01*
X58813821Y-14875462D01*
X58774253Y-14894565D01*
X58754931Y-14902693D01*
X58645457Y-14950871D01*
X58553038Y-15010460D01*
X58478873Y-15080270D01*
X58424162Y-15159111D01*
X58390104Y-15245793D01*
X58384655Y-15270121D01*
X58381713Y-15276710D01*
X58379691Y-15262228D01*
X58378674Y-15228647D01*
X58378744Y-15177940D01*
X58379281Y-15143294D01*
X58387525Y-15003870D01*
X58406961Y-14882251D01*
X58438395Y-14775654D01*
X58482633Y-14681295D01*
X58536164Y-14601842D01*
X58555869Y-14577431D01*
X58574604Y-14556828D01*
X58595858Y-14537296D01*
X58623122Y-14516096D01*
X58659885Y-14490489D01*
X58709637Y-14457737D01*
X58766363Y-14421196D01*
X58862835Y-14351074D01*
X58959928Y-14264953D01*
X58984652Y-14240411D01*
X59023264Y-14202055D01*
X59054483Y-14172751D01*
X59075734Y-14154778D01*
X59084444Y-14150415D01*
X59084130Y-14152344D01*
G37*
G36*
X59728725Y-10209084D02*
G01*
X59752139Y-10226160D01*
X59764613Y-10236661D01*
X59804711Y-10271867D01*
X59758256Y-10450797D01*
X59742532Y-10511732D01*
X59729085Y-10564553D01*
X59718894Y-10605355D01*
X59712938Y-10630234D01*
X59711801Y-10635988D01*
X59718911Y-10631015D01*
X59737899Y-10612380D01*
X59765258Y-10583594D01*
X59778097Y-10569655D01*
X59816668Y-10527558D01*
X59856642Y-10484148D01*
X59889995Y-10448139D01*
X59892870Y-10445053D01*
X59941347Y-10393044D01*
X59970665Y-10422100D01*
X59999984Y-10451157D01*
X59838446Y-10629636D01*
X59789747Y-10683123D01*
X59746062Y-10730501D01*
X59709813Y-10769191D01*
X59683421Y-10796616D01*
X59669309Y-10810199D01*
X59667862Y-10811180D01*
X59654881Y-10805621D01*
X59633891Y-10787998D01*
X59627809Y-10781880D01*
X59596800Y-10749513D01*
X59647541Y-10548219D01*
X59663644Y-10483750D01*
X59677390Y-10427582D01*
X59687928Y-10383292D01*
X59694405Y-10354458D01*
X59696041Y-10344650D01*
X59687994Y-10351945D01*
X59667261Y-10373564D01*
X59636523Y-10406635D01*
X59598462Y-10448290D01*
X59574890Y-10474359D01*
X59532900Y-10519975D01*
X59495491Y-10558762D01*
X59465671Y-10587747D01*
X59446442Y-10603953D01*
X59441556Y-10606344D01*
X59423570Y-10598479D01*
X59406459Y-10583501D01*
X59392907Y-10564273D01*
X59396084Y-10548619D01*
X59401790Y-10540886D01*
X59421673Y-10517504D01*
X59451826Y-10483495D01*
X59489356Y-10441977D01*
X59531367Y-10396069D01*
X59574965Y-10348892D01*
X59617255Y-10303564D01*
X59655343Y-10263204D01*
X59686334Y-10230932D01*
X59707333Y-10209867D01*
X59715276Y-10203071D01*
X59728725Y-10209084D01*
G37*
G36*
X59896855Y-14360609D02*
G01*
X59924002Y-14372886D01*
X59945958Y-14390427D01*
X59953530Y-14405391D01*
X59944349Y-14416787D01*
X59920414Y-14433696D01*
X59899367Y-14445745D01*
X59856142Y-14474946D01*
X59822714Y-14509648D01*
X59801055Y-14545822D01*
X59793141Y-14579438D01*
X59800948Y-14606464D01*
X59814811Y-14618285D01*
X59834341Y-14626929D01*
X59851523Y-14627439D01*
X59871493Y-14617673D01*
X59899384Y-14595487D01*
X59925733Y-14572000D01*
X59981139Y-14526505D01*
X60027561Y-14500029D01*
X60068161Y-14491993D01*
X60106103Y-14501815D01*
X60144549Y-14528916D01*
X60147218Y-14531332D01*
X60173602Y-14558199D01*
X60186294Y-14582132D01*
X60190135Y-14613921D01*
X60190285Y-14627356D01*
X60179557Y-14688721D01*
X60149320Y-14750374D01*
X60102493Y-14807248D01*
X60070962Y-14834475D01*
X60035505Y-14859538D01*
X60010306Y-14869940D01*
X59988571Y-14866546D01*
X59963511Y-14850220D01*
X59961245Y-14848449D01*
X59937639Y-14827178D01*
X59934315Y-14812837D01*
X59952131Y-14800676D01*
X59971224Y-14793205D01*
X60016923Y-14770439D01*
X60056465Y-14739367D01*
X60087523Y-14703751D01*
X60107774Y-14667357D01*
X60114890Y-14633948D01*
X60106548Y-14607289D01*
X60093040Y-14596037D01*
X60075675Y-14587989D01*
X60060319Y-14586541D01*
X60042209Y-14593696D01*
X60016581Y-14611459D01*
X59978672Y-14641831D01*
X59972909Y-14646550D01*
X59920631Y-14686211D01*
X59878636Y-14709545D01*
X59842450Y-14717941D01*
X59807598Y-14712792D01*
X59786777Y-14704407D01*
X59743615Y-14672787D01*
X59718932Y-14629383D01*
X59713444Y-14577118D01*
X59727872Y-14518917D01*
X59736540Y-14500052D01*
X59760728Y-14462192D01*
X59793508Y-14423001D01*
X59828984Y-14388530D01*
X59861260Y-14364832D01*
X59873900Y-14359055D01*
X59896855Y-14360609D01*
G37*
G36*
X55922108Y-11661880D02*
G01*
X55932280Y-11774746D01*
X55937500Y-11872668D01*
X55937913Y-11963191D01*
X55933669Y-12053861D01*
X55930543Y-12093679D01*
X55917539Y-12213297D01*
X55899998Y-12316288D01*
X55876398Y-12408891D01*
X55845217Y-12497340D01*
X55815148Y-12566399D01*
X55780315Y-12647875D01*
X55758684Y-12717414D01*
X55749145Y-12781159D01*
X55750589Y-12845253D01*
X55756788Y-12889432D01*
X55769766Y-12939418D01*
X55791720Y-13000434D01*
X55819519Y-13065547D01*
X55850033Y-13127826D01*
X55880134Y-13180339D01*
X55901839Y-13210691D01*
X55919640Y-13234963D01*
X55921962Y-13245962D01*
X55911247Y-13244921D01*
X55889936Y-13233076D01*
X55860472Y-13211663D01*
X55825298Y-13181918D01*
X55802121Y-13160248D01*
X55732805Y-13079087D01*
X55679812Y-12985216D01*
X55642346Y-12876796D01*
X55619609Y-12751989D01*
X55617800Y-12735514D01*
X55612201Y-12686072D01*
X55606647Y-12645750D01*
X55601905Y-12619709D01*
X55599529Y-12612782D01*
X55589388Y-12617676D01*
X55568547Y-12636199D01*
X55541321Y-12664476D01*
X55538485Y-12667610D01*
X55474566Y-12755030D01*
X55424099Y-12859132D01*
X55388011Y-12977236D01*
X55367233Y-13106661D01*
X55362883Y-13174542D01*
X55360625Y-13220923D01*
X55357512Y-13257113D01*
X55354050Y-13278032D01*
X55352237Y-13281192D01*
X55344743Y-13271382D01*
X55331198Y-13245310D01*
X55314202Y-13208088D01*
X55309724Y-13197651D01*
X55276586Y-13113530D01*
X55254372Y-13040839D01*
X55241350Y-12971732D01*
X55235787Y-12898364D01*
X55235257Y-12860407D01*
X55239583Y-12774004D01*
X55253871Y-12698878D01*
X55280335Y-12630032D01*
X55321190Y-12562475D01*
X55378654Y-12491211D01*
X55417772Y-12449010D01*
X55534865Y-12316388D01*
X55641202Y-12174510D01*
X55734202Y-12027526D01*
X55811281Y-11879588D01*
X55869859Y-11734847D01*
X55878700Y-11707999D01*
X55915016Y-11593267D01*
X55922108Y-11661880D01*
G37*
G36*
X60270003Y-11660340D02*
G01*
X60306179Y-11646922D01*
X60307557Y-11646443D01*
X60343202Y-11633957D01*
X60394462Y-11615881D01*
X60455232Y-11594373D01*
X60519408Y-11571591D01*
X60538248Y-11564889D01*
X60701736Y-11506701D01*
X60737136Y-11599405D01*
X60762445Y-11678671D01*
X60771527Y-11742719D01*
X60764167Y-11792928D01*
X60740148Y-11830676D01*
X60699254Y-11857343D01*
X60696457Y-11858538D01*
X60636283Y-11873460D01*
X60580627Y-11865889D01*
X60560919Y-11857310D01*
X60535111Y-11847246D01*
X60517845Y-11846458D01*
X60517424Y-11846691D01*
X60506946Y-11859736D01*
X60490177Y-11887216D01*
X60473110Y-11918691D01*
X60440791Y-11979088D01*
X60413797Y-12024832D01*
X60393350Y-12054067D01*
X60380667Y-12064939D01*
X60377921Y-12063536D01*
X60370796Y-12046655D01*
X60360590Y-12017736D01*
X60358118Y-12010186D01*
X60352440Y-11989829D01*
X60351509Y-11971975D01*
X60356932Y-11951494D01*
X60370311Y-11923253D01*
X60393254Y-11882121D01*
X60404028Y-11863403D01*
X60432941Y-11811127D01*
X60450208Y-11773855D01*
X60457375Y-11747678D01*
X60456555Y-11730714D01*
X60450346Y-11713093D01*
X60439850Y-11704508D01*
X60420556Y-11704818D01*
X60387954Y-11713884D01*
X60349167Y-11727380D01*
X60305528Y-11741364D01*
X60277863Y-11744238D01*
X60261269Y-11734685D01*
X60250841Y-11711387D01*
X60247842Y-11700151D01*
X60245318Y-11682922D01*
X60245570Y-11682413D01*
X60524824Y-11682413D01*
X60532970Y-11708914D01*
X60548200Y-11738881D01*
X60567013Y-11764919D01*
X60578929Y-11775841D01*
X60602020Y-11790093D01*
X60620346Y-11792182D01*
X60645698Y-11782896D01*
X60650710Y-11780627D01*
X60674770Y-11763765D01*
X60686278Y-11747111D01*
X60687988Y-11722386D01*
X60683053Y-11689685D01*
X60673676Y-11656731D01*
X60662056Y-11631249D01*
X60650394Y-11620961D01*
X60650339Y-11620960D01*
X60629768Y-11625212D01*
X60597664Y-11635646D01*
X60563374Y-11648784D01*
X60536250Y-11661143D01*
X60527265Y-11666772D01*
X60524824Y-11682413D01*
X60245570Y-11682413D01*
X60251211Y-11670996D01*
X60270003Y-11660340D01*
G37*
G36*
X58465171Y-9554341D02*
G01*
X58539403Y-9587272D01*
X58561569Y-9600856D01*
X58588422Y-9620904D01*
X58598949Y-9637838D01*
X58597491Y-9658773D01*
X58597326Y-9659462D01*
X58587161Y-9698637D01*
X58578430Y-9717898D01*
X58567419Y-9719812D01*
X58550419Y-9706943D01*
X58541162Y-9698280D01*
X58490466Y-9656385D01*
X58442088Y-9631321D01*
X58388248Y-9619192D01*
X58381972Y-9618511D01*
X58323726Y-9620478D01*
X58278344Y-9640320D01*
X58243862Y-9679429D01*
X58220272Y-9733024D01*
X58206657Y-9801391D01*
X58212462Y-9860401D01*
X58236856Y-9908202D01*
X58279008Y-9942938D01*
X58321648Y-9959270D01*
X58373135Y-9970240D01*
X58407107Y-9971769D01*
X58427348Y-9963250D01*
X58437645Y-9944074D01*
X58438509Y-9940502D01*
X58445181Y-9911958D01*
X58449776Y-9894698D01*
X58442415Y-9882952D01*
X58416657Y-9871348D01*
X58405576Y-9868186D01*
X58372593Y-9859537D01*
X58348518Y-9852852D01*
X58344071Y-9851486D01*
X58336495Y-9838787D01*
X58337325Y-9815780D01*
X58344802Y-9792854D01*
X58356060Y-9780756D01*
X58371357Y-9781397D01*
X58402089Y-9786432D01*
X58441554Y-9794372D01*
X58483048Y-9803731D01*
X58519869Y-9813020D01*
X58545312Y-9820752D01*
X58552727Y-9824398D01*
X58551634Y-9836460D01*
X58546042Y-9865738D01*
X58536987Y-9907059D01*
X58531307Y-9931365D01*
X58518801Y-9981009D01*
X58508517Y-10012596D01*
X58498266Y-10030700D01*
X58485853Y-10039898D01*
X58477992Y-10042631D01*
X58418323Y-10050839D01*
X58350671Y-10046970D01*
X58287879Y-10032197D01*
X58219889Y-10002325D01*
X58171140Y-9964976D01*
X58138168Y-9916707D01*
X58120191Y-9865438D01*
X58114515Y-9806892D01*
X58122495Y-9741516D01*
X58141954Y-9677071D01*
X58170712Y-9621316D01*
X58197719Y-9589285D01*
X58251787Y-9555282D01*
X58317176Y-9538213D01*
X58389699Y-9537943D01*
X58465171Y-9554341D01*
G37*
G36*
X55546505Y-11010937D02*
G01*
X55582958Y-10919799D01*
X55597488Y-10890536D01*
X55601530Y-10877717D01*
X55595380Y-10877404D01*
X55585779Y-10882189D01*
X55566894Y-10899975D01*
X55547262Y-10929664D01*
X55541936Y-10940271D01*
X55526895Y-10968271D01*
X55513944Y-10984727D01*
X55510335Y-10986528D01*
X55505876Y-10976062D01*
X55504192Y-10947480D01*
X55504951Y-10905513D01*
X55507822Y-10854895D01*
X55510828Y-10819644D01*
X55837811Y-10819644D01*
X55843576Y-10825409D01*
X55849341Y-10819644D01*
X55843576Y-10813879D01*
X55837811Y-10819644D01*
X55510828Y-10819644D01*
X55512472Y-10800357D01*
X55518570Y-10746632D01*
X55525783Y-10698453D01*
X55532975Y-10663666D01*
X55558241Y-10580617D01*
X55590960Y-10507579D01*
X55634736Y-10438368D01*
X55693169Y-10366801D01*
X55727417Y-10329864D01*
X55806376Y-10238669D01*
X55863834Y-10151853D01*
X55900452Y-10067431D01*
X55916893Y-9983418D01*
X55913820Y-9897830D01*
X55896598Y-9823123D01*
X55882777Y-9767591D01*
X55881748Y-9729589D01*
X55893590Y-9707406D01*
X55902361Y-9702419D01*
X55931872Y-9702046D01*
X55960745Y-9724228D01*
X55972402Y-9739700D01*
X55981766Y-9757757D01*
X55987872Y-9781850D01*
X55991322Y-9816777D01*
X55992715Y-9867335D01*
X55992822Y-9903030D01*
X55991014Y-9973761D01*
X55984591Y-10032758D01*
X55971592Y-10085507D01*
X55950061Y-10137493D01*
X55918039Y-10194203D01*
X55873567Y-10261123D01*
X55856125Y-10285958D01*
X55820837Y-10336914D01*
X55787962Y-10386424D01*
X55761292Y-10428653D01*
X55745213Y-10456604D01*
X55729115Y-10498745D01*
X55720024Y-10545042D01*
X55718493Y-10588269D01*
X55725074Y-10621200D01*
X55731826Y-10631798D01*
X55742359Y-10637666D01*
X55745549Y-10623423D01*
X55745573Y-10620607D01*
X55751889Y-10585476D01*
X55769438Y-10536468D01*
X55796120Y-10478521D01*
X55829834Y-10416574D01*
X55838558Y-10401957D01*
X55878907Y-10340076D01*
X55926659Y-10275725D01*
X55983651Y-10206853D01*
X56051719Y-10131408D01*
X56132699Y-10047340D01*
X56228427Y-9952596D01*
X56316295Y-9868276D01*
X56402043Y-9781159D01*
X56466812Y-9702233D01*
X56510887Y-9630768D01*
X56534554Y-9566037D01*
X56538098Y-9507311D01*
X56521806Y-9453860D01*
X56494367Y-9414051D01*
X56460394Y-9381571D01*
X56421217Y-9358089D01*
X56371958Y-9341791D01*
X56307737Y-9330866D01*
X56257107Y-9325902D01*
X56186485Y-9318666D01*
X56134987Y-9309077D01*
X56098696Y-9295750D01*
X56073697Y-9277296D01*
X56057677Y-9255271D01*
X56046941Y-9231675D01*
X56050184Y-9215097D01*
X56061724Y-9200730D01*
X56099600Y-9175786D01*
X56152641Y-9167957D01*
X56220913Y-9177251D01*
X56304483Y-9203676D01*
X56386062Y-9238885D01*
X56477498Y-9288579D01*
X56546927Y-9341075D01*
X56595343Y-9397540D01*
X56623740Y-9459142D01*
X56633111Y-9527048D01*
X56633109Y-9529072D01*
X56631608Y-9558145D01*
X56626377Y-9586905D01*
X56615919Y-9618814D01*
X56598740Y-9657331D01*
X56573343Y-9705916D01*
X56538232Y-9768029D01*
X56505728Y-9823700D01*
X56457928Y-9904455D01*
X56418716Y-9968921D01*
X56385247Y-10020835D01*
X56354677Y-10063935D01*
X56324162Y-10101958D01*
X56290857Y-10138641D01*
X56251919Y-10177723D01*
X56204503Y-10222940D01*
X56195348Y-10231550D01*
X56161792Y-10266473D01*
X56133452Y-10301997D01*
X56116915Y-10329553D01*
X56103136Y-10384436D01*
X56101238Y-10449048D01*
X56110904Y-10513547D01*
X56124092Y-10552710D01*
X56147634Y-10605931D01*
X56234499Y-10561508D01*
X56350651Y-10512605D01*
X56463461Y-10486124D01*
X56572264Y-10481982D01*
X56676391Y-10500094D01*
X56775177Y-10540377D01*
X56867956Y-10602746D01*
X56917089Y-10647339D01*
X56943347Y-10674985D01*
X56960577Y-10695844D01*
X56965019Y-10705131D01*
X56952584Y-10704003D01*
X56924022Y-10696595D01*
X56884915Y-10684400D01*
X56874551Y-10680917D01*
X56785281Y-10655791D01*
X56694433Y-10639709D01*
X56608480Y-10633377D01*
X56533896Y-10637500D01*
X56512300Y-10641404D01*
X56443122Y-10656797D01*
X56500771Y-10665010D01*
X56546392Y-10674336D01*
X56591580Y-10687857D01*
X56604538Y-10692889D01*
X56638455Y-10710304D01*
X56681048Y-10736224D01*
X56725901Y-10766261D01*
X56766596Y-10796025D01*
X56796714Y-10821130D01*
X56805696Y-10830435D01*
X56812033Y-10840300D01*
X56804984Y-10840898D01*
X56781316Y-10831949D01*
X56770500Y-10827363D01*
X56665024Y-10789465D01*
X56564092Y-10769228D01*
X56483476Y-10764588D01*
X56392807Y-10771602D01*
X56317505Y-10793798D01*
X56254407Y-10832632D01*
X56200347Y-10889564D01*
X56194173Y-10897879D01*
X56158477Y-10958763D01*
X56143573Y-11012924D01*
X56149093Y-11059020D01*
X56174670Y-11095709D01*
X56219938Y-11121651D01*
X56258234Y-11131841D01*
X56303941Y-11140205D01*
X56286000Y-11112516D01*
X56262630Y-11061251D01*
X56261085Y-11010464D01*
X56271055Y-10976462D01*
X56292591Y-10935821D01*
X56321411Y-10909355D01*
X56362074Y-10894671D01*
X56419144Y-10889376D01*
X56437357Y-10889243D01*
X56487939Y-10891014D01*
X56525514Y-10897261D01*
X56560032Y-10910267D01*
X56584979Y-10923118D01*
X56627736Y-10950787D01*
X56669349Y-10984469D01*
X56687956Y-11002873D01*
X56729786Y-11049173D01*
X56650687Y-11063772D01*
X56571532Y-11088798D01*
X56506729Y-11131369D01*
X56457615Y-11190276D01*
X56425529Y-11264311D01*
X56424456Y-11268163D01*
X56417087Y-11315750D01*
X56415046Y-11379724D01*
X56417914Y-11454142D01*
X56425269Y-11533059D01*
X56436692Y-11610530D01*
X56451762Y-11680612D01*
X56454283Y-11690015D01*
X56484507Y-11799424D01*
X56446520Y-11830638D01*
X56371524Y-11880691D01*
X56291472Y-11913438D01*
X56210556Y-11927959D01*
X56132967Y-11923334D01*
X56086396Y-11909664D01*
X56050348Y-11893207D01*
X56021517Y-11876664D01*
X56011865Y-11869134D01*
X56004806Y-11859805D01*
X56009527Y-11854502D01*
X56029741Y-11852120D01*
X56069159Y-11851556D01*
X56070949Y-11851555D01*
X56134377Y-11848333D01*
X56182274Y-11837221D01*
X56221446Y-11816053D01*
X56245263Y-11796055D01*
X56268779Y-11769892D01*
X56290854Y-11739189D01*
X56306339Y-11711708D01*
X56310530Y-11697702D01*
X56300628Y-11697083D01*
X56275749Y-11701593D01*
X56263648Y-11704491D01*
X56209816Y-11709261D01*
X56157828Y-11698504D01*
X56115949Y-11674211D01*
X56108850Y-11667179D01*
X56095093Y-11650430D01*
X56098618Y-11644662D01*
X56114862Y-11644020D01*
X56154052Y-11636019D01*
X56198624Y-11615522D01*
X56239243Y-11587785D01*
X56266089Y-11558855D01*
X56279658Y-11529830D01*
X56283218Y-11498299D01*
X56276103Y-11459680D01*
X56257650Y-11409391D01*
X56238044Y-11365677D01*
X56195554Y-11284010D01*
X56154266Y-11223631D01*
X56112929Y-11182902D01*
X56086063Y-11166481D01*
X56042747Y-11153109D01*
X56001963Y-11157873D01*
X55957710Y-11181778D01*
X55946769Y-11189815D01*
X55915701Y-11216766D01*
X55902279Y-11235951D01*
X55907078Y-11245710D01*
X55927678Y-11245015D01*
X55961182Y-11244991D01*
X55993462Y-11253093D01*
X56028052Y-11267384D01*
X55981933Y-11274740D01*
X55931810Y-11287102D01*
X55892784Y-11309104D01*
X55855511Y-11346255D01*
X55850563Y-11352174D01*
X55827840Y-11382054D01*
X55821917Y-11397512D01*
X55833074Y-11400213D01*
X55857459Y-11393283D01*
X55901242Y-11388790D01*
X55918579Y-11393597D01*
X55934933Y-11401101D01*
X55934820Y-11406290D01*
X55915772Y-11411915D01*
X55898794Y-11415662D01*
X55847662Y-11437421D01*
X55796743Y-11478989D01*
X55749109Y-11537292D01*
X55710247Y-11604254D01*
X55691198Y-11643198D01*
X55676256Y-11673691D01*
X55668155Y-11690156D01*
X55667596Y-11691276D01*
X55671566Y-11704107D01*
X55685955Y-11725159D01*
X55714181Y-11746621D01*
X55758596Y-11758496D01*
X55764159Y-11759247D01*
X55820516Y-11766355D01*
X55770069Y-11782389D01*
X55738192Y-11790751D01*
X55709970Y-11792178D01*
X55675512Y-11786465D01*
X55649007Y-11779860D01*
X55610025Y-11770172D01*
X55586303Y-11767001D01*
X55570906Y-11770604D01*
X55556902Y-11781239D01*
X55554590Y-11783367D01*
X55532358Y-11799689D01*
X55516712Y-11805436D01*
X55507251Y-11811338D01*
X55512742Y-11825911D01*
X55529348Y-11844459D01*
X55553232Y-11862282D01*
X55570271Y-11871017D01*
X55603674Y-11881156D01*
X55640272Y-11882542D01*
X55678272Y-11877882D01*
X55712355Y-11873717D01*
X55733956Y-11873675D01*
X55738417Y-11876866D01*
X55718729Y-11892071D01*
X55683319Y-11905879D01*
X55639508Y-11916132D01*
X55594622Y-11920675D01*
X55589470Y-11920734D01*
X55520170Y-11912186D01*
X55451568Y-11885474D01*
X55379819Y-11838994D01*
X55364219Y-11826754D01*
X55326559Y-11797260D01*
X55290666Y-11770564D01*
X55267089Y-11754289D01*
X55228140Y-11724106D01*
X55208360Y-11693811D01*
X55204042Y-11668168D01*
X55211781Y-11639284D01*
X55231719Y-11604542D01*
X55258025Y-11572460D01*
X55283370Y-11552324D01*
X55295875Y-11546925D01*
X55299039Y-11552276D01*
X55293447Y-11572815D01*
X55288118Y-11588516D01*
X55279243Y-11627429D01*
X55285416Y-11648916D01*
X55306621Y-11652944D01*
X55317442Y-11650271D01*
X55337413Y-11637478D01*
X55367412Y-11610567D01*
X55403478Y-11573755D01*
X55441652Y-11531257D01*
X55477975Y-11487290D01*
X55506512Y-11448937D01*
X55526238Y-11418939D01*
X55535272Y-11396472D01*
X55535481Y-11371635D01*
X55528737Y-11334527D01*
X55528410Y-11332946D01*
X55516894Y-11227587D01*
X55518112Y-11206553D01*
X55662726Y-11206553D01*
X55712797Y-11172791D01*
X55747184Y-11152353D01*
X55778478Y-11138244D01*
X55790468Y-11134988D01*
X55802536Y-11132324D01*
X55810517Y-11125794D01*
X55815340Y-11111254D01*
X55817932Y-11084561D01*
X55819223Y-11041571D01*
X55819787Y-11004120D01*
X55821292Y-10950145D01*
X55824022Y-10902993D01*
X55827558Y-10868514D01*
X55830583Y-10854233D01*
X55831686Y-10844799D01*
X55820052Y-10854113D01*
X55809449Y-10865763D01*
X55785833Y-10898797D01*
X55758284Y-10946350D01*
X55729927Y-11001887D01*
X55703886Y-11058871D01*
X55683285Y-11110767D01*
X55671249Y-11151039D01*
X55670130Y-11157220D01*
X55662726Y-11206553D01*
X55518112Y-11206553D01*
X55523255Y-11117757D01*
X55546505Y-11010937D01*
G37*
G36*
X55590863Y-12780624D02*
G01*
X55595535Y-12803495D01*
X55595687Y-12811295D01*
X55599015Y-12841136D01*
X55607824Y-12884439D01*
X55620349Y-12932772D01*
X55623044Y-12941965D01*
X55638681Y-12991795D01*
X55656245Y-13042461D01*
X55676925Y-13096761D01*
X55701912Y-13157495D01*
X55732395Y-13227460D01*
X55769564Y-13309455D01*
X55814609Y-13406277D01*
X55868720Y-13520727D01*
X55872716Y-13529131D01*
X55918096Y-13614719D01*
X55975598Y-13708322D01*
X56040173Y-13802563D01*
X56106772Y-13890065D01*
X56168858Y-13961870D01*
X56254895Y-14053328D01*
X56199269Y-14028722D01*
X56127954Y-14007094D01*
X56042250Y-13997064D01*
X55947407Y-13998141D01*
X55848672Y-14009834D01*
X55751295Y-14031654D01*
X55660524Y-14063110D01*
X55617807Y-14083044D01*
X55595101Y-14093963D01*
X55584416Y-14097481D01*
X55584294Y-14097267D01*
X55587105Y-14085347D01*
X55594229Y-14057837D01*
X55601452Y-14030675D01*
X55615780Y-13941299D01*
X55615514Y-13836231D01*
X55600905Y-13717426D01*
X55572204Y-13586838D01*
X55529661Y-13446421D01*
X55524654Y-13431911D01*
X55486189Y-13294303D01*
X55469458Y-13164337D01*
X55474460Y-13042031D01*
X55501195Y-12927403D01*
X55537000Y-12843595D01*
X55561671Y-12800633D01*
X55579600Y-12779656D01*
X55590863Y-12780624D01*
G37*
G36*
X56685068Y-9782209D02*
G01*
X56688795Y-9801744D01*
X56692944Y-9836863D01*
X56695291Y-9862676D01*
X56707407Y-9962034D01*
X56725786Y-10039957D01*
X56750890Y-10097330D01*
X56783181Y-10135037D01*
X56823119Y-10153962D01*
X56848838Y-10156684D01*
X56909918Y-10146849D01*
X56958885Y-10117686D01*
X56995371Y-10069713D01*
X57019009Y-10003447D01*
X57029429Y-9919405D01*
X57029876Y-9902210D01*
X57031138Y-9801949D01*
X57069578Y-9846806D01*
X57103879Y-9880440D01*
X57145377Y-9912748D01*
X57161816Y-9923289D01*
X57191985Y-9939337D01*
X57220168Y-9948867D01*
X57254185Y-9953507D01*
X57301853Y-9954886D01*
X57313617Y-9954914D01*
X57366339Y-9953816D01*
X57405728Y-9949158D01*
X57441459Y-9938896D01*
X57483209Y-9920986D01*
X57490566Y-9917524D01*
X57537082Y-9893483D01*
X57582037Y-9866932D01*
X57614510Y-9844494D01*
X57641699Y-9825272D01*
X57655730Y-9821989D01*
X57656961Y-9835700D01*
X57645750Y-9867463D01*
X57632399Y-9897349D01*
X57589072Y-9965704D01*
X57528597Y-10020860D01*
X57450380Y-10063108D01*
X57353827Y-10092739D01*
X57238346Y-10110046D01*
X57192555Y-10113287D01*
X57134906Y-10116330D01*
X57204084Y-10150920D01*
X57288690Y-10180782D01*
X57381828Y-10191557D01*
X57479642Y-10183603D01*
X57578271Y-10157280D01*
X57673858Y-10112946D01*
X57685451Y-10106125D01*
X57721225Y-10085558D01*
X57741678Y-10076972D01*
X57750456Y-10079229D01*
X57751634Y-10085465D01*
X57744103Y-10118920D01*
X57724542Y-10161757D01*
X57697041Y-10206869D01*
X57665687Y-10247145D01*
X57648862Y-10264141D01*
X57598097Y-10303584D01*
X57541566Y-10334015D01*
X57475160Y-10356795D01*
X57394771Y-10373283D01*
X57296291Y-10384837D01*
X57279828Y-10386218D01*
X57220632Y-10391600D01*
X57178820Y-10397427D01*
X57148738Y-10405053D01*
X57124727Y-10415830D01*
X57105830Y-10427807D01*
X57070073Y-10460712D01*
X57040370Y-10501811D01*
X57036280Y-10509628D01*
X57020682Y-10538723D01*
X57008230Y-10556474D01*
X57004168Y-10559139D01*
X56993031Y-10550555D01*
X56972016Y-10529438D01*
X56951789Y-10507228D01*
X56908621Y-10467760D01*
X56853518Y-10430983D01*
X56830915Y-10418958D01*
X56798097Y-10403329D01*
X56770960Y-10392799D01*
X56743607Y-10386370D01*
X56710143Y-10383046D01*
X56664668Y-10381831D01*
X56610492Y-10381715D01*
X56545277Y-10382431D01*
X56496400Y-10384948D01*
X56457159Y-10390140D01*
X56420853Y-10398877D01*
X56382710Y-10411349D01*
X56340315Y-10425814D01*
X56314686Y-10432618D01*
X56301029Y-10432280D01*
X56294550Y-10425317D01*
X56292977Y-10421055D01*
X56292903Y-10393024D01*
X56303462Y-10354234D01*
X56321771Y-10312611D01*
X56344949Y-10276082D01*
X56346317Y-10274367D01*
X56372046Y-10249019D01*
X56408366Y-10220702D01*
X56433155Y-10204356D01*
X56501060Y-10153920D01*
X56555778Y-10091153D01*
X56597247Y-10020711D01*
X56618896Y-9972666D01*
X56641457Y-9914957D01*
X56661887Y-9856120D01*
X56677144Y-9804688D01*
X56682357Y-9781968D01*
X56685068Y-9782209D01*
G37*
G36*
X56702541Y-9747379D02*
G01*
X56696776Y-9753144D01*
X56691011Y-9747379D01*
X56696776Y-9741614D01*
X56702541Y-9747379D01*
G37*
%TO.C,U144*%
X65634999Y-56755000D02*
X66634999Y-56755000D01*
%TO.C,U108*%
X91195000Y-29804999D02*
X91195000Y-30804999D01*
%TO.C,U105*%
X91195000Y-26175000D02*
X91195000Y-27175000D01*
%TO.C,U7*%
X81845000Y-63145000D02*
X80845000Y-63145000D01*
%TO.C,U189*%
X52284999Y-24425000D02*
X51284999Y-24425000D01*
%TO.C,U208*%
X84805000Y-36334999D02*
X84805000Y-35334999D01*
%TO.C,U44*%
X59065000Y-18035000D02*
X60065000Y-18035000D01*
%TO.C,U113*%
X91195000Y-35855000D02*
X91195000Y-36855000D01*
%TO.C,U17*%
X69745000Y-63145000D02*
X68745000Y-63145000D01*
%TO.C,U14*%
X73375000Y-63145000D02*
X72375000Y-63145000D01*
%TO.C,U117*%
X91195000Y-40695000D02*
X91195000Y-41695000D01*
%TO.C,U81*%
X46085000Y-45325000D02*
X46085000Y-44325000D01*
%TO.C,U178*%
X65594999Y-24425000D02*
X64594999Y-24425000D01*
%TO.C,U5*%
X84265000Y-63145000D02*
X83265000Y-63145000D01*
%TO.C,U33*%
X50385000Y-63145000D02*
X49385000Y-63145000D01*
%TO.C,U60*%
X78425000Y-18035000D02*
X79425000Y-18035000D01*
%TO.C,U84*%
X46085000Y-41695000D02*
X46085000Y-40695000D01*
%TO.C,U150*%
X72895000Y-56755000D02*
X73895000Y-56755000D01*
%TO.C,U48*%
X63905000Y-18035000D02*
X64905000Y-18035000D01*
%TO.C,U123*%
X91195000Y-47954999D02*
X91195000Y-48954999D01*
%TO.C,U24*%
X61275000Y-63145000D02*
X60275000Y-63145000D01*
%TO.C,U237*%
X52475000Y-44845000D02*
X52475000Y-45845000D01*
%TO.C,U12*%
X75795001Y-63145000D02*
X74795001Y-63145000D01*
%TO.C,U223*%
X52475000Y-27905000D02*
X52475000Y-28905000D01*
%TO.C,U20*%
X66115000Y-63145000D02*
X65115000Y-63145000D01*
%TO.C,U209*%
X84805000Y-35124999D02*
X84805000Y-34124999D01*
%TO.C,U91*%
X46085000Y-33225001D02*
X46085000Y-32225001D01*
%TO.C,U211*%
X84805000Y-32704999D02*
X84805000Y-31704999D01*
%TO.C,U202*%
X84805000Y-43595000D02*
X84805000Y-42595000D01*
%TO.C,U167*%
X78904999Y-24425000D02*
X77904999Y-24425000D01*
%TO.C,U78*%
X46085000Y-48955000D02*
X46085000Y-47955000D01*
%TO.C,U145*%
X66845000Y-56755000D02*
X67845000Y-56755000D01*
%TO.C,U212*%
X84805000Y-31494999D02*
X84805000Y-30494999D01*
%TO.C,U93*%
X46085000Y-30805000D02*
X46085000Y-29805000D01*
%TO.C,U219*%
X84805000Y-23025000D02*
X84805000Y-22025000D01*
%TO.C,U49*%
X65114999Y-18035000D02*
X66114999Y-18035000D01*
%TO.C,U177*%
X66804999Y-24425000D02*
X65804999Y-24425000D01*
%TO.C,U174*%
X70434999Y-24425000D02*
X69434999Y-24425000D01*
%TO.C,U3*%
X86685000Y-63145000D02*
X85685000Y-63145000D01*
%TO.C,U160*%
X84995000Y-56755000D02*
X85995000Y-56755000D01*
%TO.C,U116*%
X91195000Y-39485000D02*
X91195000Y-40485000D01*
%TO.C,U124*%
X91195000Y-49165000D02*
X91195000Y-50165000D01*
%TO.C,U224*%
X52475000Y-29115000D02*
X52475000Y-30115000D01*
%TO.C,U227*%
X52475000Y-32744999D02*
X52475000Y-33744999D01*
%TO.C,U61*%
X79635000Y-18035000D02*
X80635000Y-18035000D01*
%TO.C,U107*%
X91195000Y-28595000D02*
X91195000Y-29595000D01*
%TO.C,U59*%
X77215000Y-18035000D02*
X78215000Y-18035000D01*
%TO.C,U233*%
X52475000Y-40005000D02*
X52475000Y-41005000D01*
%TO.C,U109*%
X91195000Y-31015000D02*
X91195000Y-32015000D01*
%TO.C,U151*%
X74105000Y-56755000D02*
X75105000Y-56755000D01*
%TO.C,U165*%
X81324999Y-24425000D02*
X80324999Y-24425000D01*
%TO.C,U148*%
X70475000Y-56755000D02*
X71475000Y-56755000D01*
%TO.C,U11*%
X77005000Y-63145000D02*
X76005000Y-63145000D01*
%TO.C,U97*%
X46085000Y-25965001D02*
X46085000Y-24965001D01*
%TO.C,U218*%
X84805000Y-24234999D02*
X84805000Y-23234999D01*
%TO.C,U120*%
X91195000Y-44325000D02*
X91195000Y-45325000D01*
%TO.C,U180*%
X63174999Y-24425000D02*
X62174999Y-24425000D01*
%TO.C,U135*%
X54745000Y-56755000D02*
X55745000Y-56755000D01*
%TO.C,U156*%
X80155000Y-56755000D02*
X81155000Y-56755000D01*
%TO.C,U112*%
X91195000Y-34644999D02*
X91195000Y-35644999D01*
%TO.C,U1*%
X89105000Y-63145000D02*
X88105000Y-63145000D01*
%TO.C,U137*%
X57165000Y-56755000D02*
X58165000Y-56755000D01*
%TO.C,U38*%
X51805000Y-18035000D02*
X52805000Y-18035000D01*
%TO.C,U164*%
X82534999Y-24425000D02*
X81534999Y-24425000D01*
%TO.C,U118*%
X91195000Y-41905000D02*
X91195000Y-42905000D01*
%TO.C,U161*%
X86204999Y-56755000D02*
X87204999Y-56755000D01*
%TO.C,U159*%
X83785000Y-56755000D02*
X84785000Y-56755000D01*
%TO.C,U231*%
X52475000Y-37584999D02*
X52475000Y-38584999D01*
%TO.C,U67*%
X86895000Y-18035000D02*
X87895000Y-18035000D01*
%TO.C,U83*%
X46085000Y-42905001D02*
X46085000Y-41905001D01*
%TO.C,U128*%
X91195000Y-54005000D02*
X91195000Y-55005000D01*
%TO.C,U170*%
X75274999Y-24425000D02*
X74274999Y-24425000D01*
%TO.C,U168*%
X77694999Y-24425000D02*
X76694999Y-24425000D01*
%TO.C,U92*%
X46085000Y-32015000D02*
X46085000Y-31015000D01*
%TO.C,U154*%
X77735000Y-56755000D02*
X78735000Y-56755000D01*
%TO.C,U216*%
X84805000Y-26654999D02*
X84805000Y-25654999D01*
%TO.C,U88*%
X46085000Y-36855000D02*
X46085000Y-35855000D01*
%TO.C,U99*%
X46085000Y-23545000D02*
X46085000Y-22545000D01*
%TO.C,U240*%
X52475000Y-48475000D02*
X52475000Y-49475000D01*
%TO.C,U68*%
X88105000Y-18035000D02*
X89105000Y-18035000D01*
%TO.C,U102*%
X91195000Y-22545000D02*
X91195000Y-23545000D01*
%TO.C,U53*%
X69955000Y-18035000D02*
X70955000Y-18035000D01*
%TO.C,U41*%
X55435000Y-18035000D02*
X56435000Y-18035000D01*
%TO.C,U45*%
X60275000Y-18035000D02*
X61275000Y-18035000D01*
%TO.C,U138*%
X58375000Y-56755000D02*
X59375000Y-56755000D01*
%TO.C,U90*%
X46085000Y-34435000D02*
X46085000Y-33435000D01*
%TO.C,U10*%
X78215000Y-63145000D02*
X77215000Y-63145000D01*
%TO.C,U87*%
X46085000Y-38065000D02*
X46085000Y-37065000D01*
%TO.C,U197*%
X84805000Y-49644999D02*
X84805000Y-48644999D01*
%TO.C,U8*%
X80635001Y-63145000D02*
X79635001Y-63145000D01*
%TO.C,U74*%
X46085000Y-53795000D02*
X46085000Y-52795000D01*
%TO.C,U86*%
X46085000Y-39275000D02*
X46085000Y-38275000D01*
%TO.C,U229*%
X52475000Y-35165000D02*
X52475000Y-36165000D01*
%TO.C,U166*%
X80114999Y-24425000D02*
X79114999Y-24425000D01*
%TO.C,U94*%
X46085000Y-29595000D02*
X46085000Y-28595000D01*
%TO.C,U52*%
X68745000Y-18035000D02*
X69745000Y-18035000D01*
%TO.C,U46*%
X61484999Y-18035000D02*
X62484999Y-18035000D01*
%TO.C,U234*%
X52475000Y-41214999D02*
X52475000Y-42214999D01*
%TO.C,U147*%
X69264999Y-56755000D02*
X70264999Y-56755000D01*
%TO.C,U179*%
X64384999Y-24425000D02*
X63384999Y-24425000D01*
%TO.C,U85*%
X46085000Y-40485000D02*
X46085000Y-39485000D01*
%TO.C,U63*%
X82054999Y-18035000D02*
X83054999Y-18035000D01*
%TO.C,U42*%
X56644999Y-18035000D02*
X57644999Y-18035000D01*
%TO.C,U200*%
X84805000Y-46014999D02*
X84805000Y-45014999D01*
%TO.C,U206*%
X84805000Y-38754999D02*
X84805000Y-37754999D01*
%TO.C,U13*%
X74585000Y-63145000D02*
X73585000Y-63145000D01*
%TO.C,U100*%
X46085000Y-22335000D02*
X46085000Y-21335000D01*
%TO.C,U47*%
X62695000Y-18035000D02*
X63695000Y-18035000D01*
%TO.C,U9*%
X79425000Y-63145000D02*
X78425000Y-63145000D01*
%TO.C,U163*%
X83744999Y-24425000D02*
X82744999Y-24425000D01*
%TO.C,U50*%
X66325000Y-18035000D02*
X67325000Y-18035000D01*
%TO.C,U125*%
X91195000Y-50375000D02*
X91195000Y-51375000D01*
%TO.C,U222*%
X52475000Y-26695000D02*
X52475000Y-27695000D01*
%TO.C,U66*%
X85685000Y-18035000D02*
X86685000Y-18035000D01*
%TO.C,U82*%
X46085000Y-44115000D02*
X46085000Y-43115000D01*
%TO.C,U6*%
X83055000Y-63145000D02*
X82055000Y-63145000D01*
%TO.C,U62*%
X80845000Y-18035000D02*
X81845000Y-18035000D01*
%TO.C,U104*%
X91195000Y-24965000D02*
X91195000Y-25965000D01*
%TO.C,U247*%
X52475000Y-56945000D02*
X52475000Y-57945000D01*
%TO.C,U72*%
X46085000Y-56215000D02*
X46085000Y-55215000D01*
%TO.C,U26*%
X58855000Y-63145000D02*
X57855000Y-63145000D01*
%TO.C,U214*%
X84805000Y-29074999D02*
X84805000Y-28074999D01*
%TO.C,U210*%
X84805000Y-33914999D02*
X84805000Y-32914999D01*
%TO.C,U196*%
X84805000Y-50854999D02*
X84805000Y-49854999D01*
%TO.C,U249*%
X55269960Y-26512853D02*
X54562853Y-27219960D01*
%TO.C,U232*%
X52475000Y-38795000D02*
X52475000Y-39795000D01*
%TO.C,U225*%
X52475000Y-30325000D02*
X52475000Y-31325000D01*
%TO.C,U64*%
X83265000Y-18035000D02*
X84265000Y-18035000D01*
%TO.C,U204*%
X84805000Y-41174999D02*
X84805000Y-40174999D01*
%TO.C,U171*%
X74064999Y-24425000D02*
X73064999Y-24425000D01*
%TO.C,U143*%
X64425000Y-56755000D02*
X65425000Y-56755000D01*
%TO.C,U80*%
X46085000Y-46535001D02*
X46085000Y-45535001D01*
%TO.C,U207*%
X84805000Y-37544999D02*
X84805000Y-36544999D01*
%TO.C,U250*%
X82717146Y-27219960D02*
X82010039Y-26512853D01*
%TO.C,U40*%
X54225000Y-18035000D02*
X55225000Y-18035000D01*
%TO.C,U95*%
X46085000Y-28385000D02*
X46085000Y-27385000D01*
%TO.C,U246*%
X52475000Y-55735000D02*
X52475000Y-56735000D01*
%TO.C,U111*%
X91195000Y-33435000D02*
X91195000Y-34435000D01*
%TO.C,U175*%
X69224999Y-24425000D02*
X68224999Y-24425000D01*
%TO.C,U241*%
X52475000Y-49685000D02*
X52475000Y-50685000D01*
%TO.C,U155*%
X78944999Y-56755000D02*
X79944999Y-56755000D01*
%TO.C,U119*%
X91195000Y-43115000D02*
X91195000Y-44115000D01*
%TO.C,U181*%
X61964999Y-24425000D02*
X60964999Y-24425000D01*
%TO.C,U29*%
X55225001Y-63145000D02*
X54225001Y-63145000D01*
%TO.C,U248*%
X52475000Y-58154999D02*
X52475000Y-59154999D01*
%TO.C,U198*%
X84805000Y-48435000D02*
X84805000Y-47435000D01*
%TO.C,U101*%
X91195000Y-21335000D02*
X91195000Y-22335000D01*
%TO.C,U129*%
X91195000Y-55214999D02*
X91195000Y-56214999D01*
%TO.C,U31*%
X52805000Y-63145000D02*
X51805000Y-63145000D01*
%TO.C,U27*%
X57645000Y-63145000D02*
X56645000Y-63145000D01*
%TO.C,U193*%
X84805000Y-54484999D02*
X84805000Y-53484999D01*
%TO.C,U57*%
X74794999Y-18035000D02*
X75794999Y-18035000D01*
%TO.C,U69*%
X46085000Y-59845000D02*
X46085000Y-58845000D01*
%TO.C,U187*%
X54704999Y-24425000D02*
X53704999Y-24425000D01*
%TO.C,U37*%
X50595000Y-18035000D02*
X51595000Y-18035000D01*
%TO.C,U55*%
X72375000Y-18035000D02*
X73375000Y-18035000D01*
%TO.C,U4*%
X85475000Y-63145000D02*
X84475000Y-63145000D01*
%TO.C,U114*%
X91195000Y-37065000D02*
X91195000Y-38065000D01*
%TO.C,U230*%
X52475000Y-36375000D02*
X52475000Y-37375000D01*
%TO.C,U77*%
X46085000Y-50165000D02*
X46085000Y-49165000D01*
%TO.C,U126*%
X91195000Y-51585000D02*
X91195000Y-52585000D01*
%TO.C,U130*%
X91195000Y-56425000D02*
X91195000Y-57425000D01*
%TO.C,U186*%
X55914999Y-24425000D02*
X54914999Y-24425000D01*
%TO.C,U243*%
X52475000Y-52105000D02*
X52475000Y-53105000D01*
%TO.C,U185*%
X57124999Y-24425000D02*
X56124999Y-24425000D01*
%TO.C,U194*%
X84805000Y-53274999D02*
X84805000Y-52274999D01*
%TO.C,U32*%
X51595000Y-63145000D02*
X50595000Y-63145000D01*
%TO.C,U15*%
X72165001Y-63145000D02*
X71165001Y-63145000D01*
%TO.C,U158*%
X82575000Y-56755000D02*
X83575000Y-56755000D01*
%TO.C,U190*%
X51075000Y-24425000D02*
X50075000Y-24425000D01*
%TO.C,U183*%
X59544999Y-24425000D02*
X58544999Y-24425000D01*
%TO.C,U157*%
X81365000Y-56755000D02*
X82365000Y-56755000D01*
%TO.C,U54*%
X71165000Y-18035000D02*
X72165000Y-18035000D01*
%TO.C,U127*%
X91195000Y-52795000D02*
X91195000Y-53795000D01*
%TO.C,U201*%
X84805000Y-44804999D02*
X84805000Y-43804999D01*
%TO.C,U21*%
X64905000Y-63145000D02*
X63905000Y-63145000D01*
%TO.C,U245*%
X52475000Y-54525000D02*
X52475000Y-55525000D01*
%TO.C,U199*%
X84805000Y-47224999D02*
X84805000Y-46224999D01*
%TO.C,U195*%
X84805000Y-52064999D02*
X84805000Y-51064999D01*
%TO.C,U140*%
X60794999Y-56755000D02*
X61794999Y-56755000D01*
%TO.C,U36*%
X49385000Y-18035000D02*
X50385000Y-18035000D01*
%TO.C,U18*%
X68535000Y-63145000D02*
X67535000Y-63145000D01*
%TO.C,U236*%
X52475000Y-43635000D02*
X52475000Y-44635000D01*
%TO.C,U215*%
X84805000Y-27864999D02*
X84805000Y-26864999D01*
%TO.C,U203*%
X84805000Y-42384999D02*
X84805000Y-41384999D01*
%TO.C,U23*%
X62485001Y-63145000D02*
X61485001Y-63145000D01*
%TO.C,U213*%
X84805000Y-30285000D02*
X84805000Y-29285000D01*
%TD*%
M02*
