%TF.GenerationSoftware,KiCad,Pcbnew,6.0.11-2627ca5db0~126~ubuntu22.04.1*%
%TF.CreationDate,2024-01-28T01:11:03-06:00*%
%TF.ProjectId,mp_highdriver_carrier,6d705f68-6967-4686-9472-697665725f63,rev?*%
%TF.SameCoordinates,Original*%
%TF.FileFunction,Legend,Top*%
%TF.FilePolarity,Positive*%
%FSLAX46Y46*%
G04 Gerber Fmt 4.6, Leading zero omitted, Abs format (unit mm)*
G04 Created by KiCad (PCBNEW 6.0.11-2627ca5db0~126~ubuntu22.04.1) date 2024-01-28 01:11:03*
%MOMM*%
%LPD*%
G01*
G04 APERTURE LIST*
%ADD10C,0.150000*%
%ADD11C,0.062500*%
%ADD12C,0.120000*%
G04 APERTURE END LIST*
D10*
X147266666Y-115885714D02*
X147266666Y-115409523D01*
X147552380Y-115980952D02*
X146552380Y-115647619D01*
X147552380Y-115314285D01*
X147457142Y-114409523D02*
X147504761Y-114457142D01*
X147552380Y-114600000D01*
X147552380Y-114695238D01*
X147504761Y-114838095D01*
X147409523Y-114933333D01*
X147314285Y-114980952D01*
X147123809Y-115028571D01*
X146980952Y-115028571D01*
X146790476Y-114980952D01*
X146695238Y-114933333D01*
X146600000Y-114838095D01*
X146552380Y-114695238D01*
X146552380Y-114600000D01*
X146600000Y-114457142D01*
X146647619Y-114409523D01*
X147457142Y-113409523D02*
X147504761Y-113457142D01*
X147552380Y-113600000D01*
X147552380Y-113695238D01*
X147504761Y-113838095D01*
X147409523Y-113933333D01*
X147314285Y-113980952D01*
X147123809Y-114028571D01*
X146980952Y-114028571D01*
X146790476Y-113980952D01*
X146695238Y-113933333D01*
X146600000Y-113838095D01*
X146552380Y-113695238D01*
X146552380Y-113600000D01*
X146600000Y-113457142D01*
X146647619Y-113409523D01*
X147028571Y-112980952D02*
X147028571Y-112647619D01*
X147552380Y-112504761D02*
X147552380Y-112980952D01*
X146552380Y-112980952D01*
X146552380Y-112504761D01*
X147552380Y-111600000D02*
X147552380Y-112076190D01*
X146552380Y-112076190D01*
X147028571Y-111266666D02*
X147028571Y-110933333D01*
X147552380Y-110790476D02*
X147552380Y-111266666D01*
X146552380Y-111266666D01*
X146552380Y-110790476D01*
X147552380Y-109790476D02*
X147076190Y-110123809D01*
X147552380Y-110361904D02*
X146552380Y-110361904D01*
X146552380Y-109980952D01*
X146600000Y-109885714D01*
X146647619Y-109838095D01*
X146742857Y-109790476D01*
X146885714Y-109790476D01*
X146980952Y-109838095D01*
X147028571Y-109885714D01*
X147076190Y-109980952D01*
X147076190Y-110361904D01*
X147266666Y-109409523D02*
X147266666Y-108933333D01*
X147552380Y-109504761D02*
X146552380Y-109171428D01*
X147552380Y-108838095D01*
X146552380Y-108647619D02*
X146552380Y-108076190D01*
X147552380Y-108361904D02*
X146552380Y-108361904D01*
X147028571Y-107742857D02*
X147028571Y-107409523D01*
X147552380Y-107266666D02*
X147552380Y-107742857D01*
X146552380Y-107742857D01*
X146552380Y-107266666D01*
X146552380Y-105885714D02*
X146552380Y-105695238D01*
X146600000Y-105600000D01*
X146695238Y-105504761D01*
X146885714Y-105457142D01*
X147219047Y-105457142D01*
X147409523Y-105504761D01*
X147504761Y-105600000D01*
X147552380Y-105695238D01*
X147552380Y-105885714D01*
X147504761Y-105980952D01*
X147409523Y-106076190D01*
X147219047Y-106123809D01*
X146885714Y-106123809D01*
X146695238Y-106076190D01*
X146600000Y-105980952D01*
X146552380Y-105885714D01*
X147552380Y-104457142D02*
X147076190Y-104790476D01*
X147552380Y-105028571D02*
X146552380Y-105028571D01*
X146552380Y-104647619D01*
X146600000Y-104552380D01*
X146647619Y-104504761D01*
X146742857Y-104457142D01*
X146885714Y-104457142D01*
X146980952Y-104504761D01*
X147028571Y-104552380D01*
X147076190Y-104647619D01*
X147076190Y-105028571D01*
X147552380Y-103266666D02*
X146552380Y-103266666D01*
X146552380Y-103028571D01*
X146600000Y-102885714D01*
X146695238Y-102790476D01*
X146790476Y-102742857D01*
X146980952Y-102695238D01*
X147123809Y-102695238D01*
X147314285Y-102742857D01*
X147409523Y-102790476D01*
X147504761Y-102885714D01*
X147552380Y-103028571D01*
X147552380Y-103266666D01*
X147552380Y-102266666D02*
X146552380Y-102266666D01*
X147028571Y-101790476D02*
X147028571Y-101457142D01*
X147552380Y-101314285D02*
X147552380Y-101790476D01*
X146552380Y-101790476D01*
X146552380Y-101314285D01*
X145808333Y-90836904D02*
X145808333Y-90241666D01*
X146165476Y-90955952D02*
X144915476Y-90539285D01*
X146165476Y-90122619D01*
X146165476Y-89705952D02*
X144915476Y-89705952D01*
X145808333Y-89289285D01*
X144915476Y-88872619D01*
X146165476Y-88872619D01*
X146165476Y-88277380D02*
X144915476Y-88277380D01*
X144915476Y-87801190D01*
X144975000Y-87682142D01*
X145034523Y-87622619D01*
X145153571Y-87563095D01*
X145332142Y-87563095D01*
X145451190Y-87622619D01*
X145510714Y-87682142D01*
X145570238Y-87801190D01*
X145570238Y-88277380D01*
D11*
X159792857Y-109462380D02*
X159864285Y-109486190D01*
X159983333Y-109486190D01*
X160030952Y-109462380D01*
X160054761Y-109438571D01*
X160078571Y-109390952D01*
X160078571Y-109343333D01*
X160054761Y-109295714D01*
X160030952Y-109271904D01*
X159983333Y-109248095D01*
X159888095Y-109224285D01*
X159840476Y-109200476D01*
X159816666Y-109176666D01*
X159792857Y-109129047D01*
X159792857Y-109081428D01*
X159816666Y-109033809D01*
X159840476Y-109010000D01*
X159888095Y-108986190D01*
X160007142Y-108986190D01*
X160078571Y-109010000D01*
X160292857Y-109486190D02*
X160292857Y-108986190D01*
X160411904Y-108986190D01*
X160483333Y-109010000D01*
X160530952Y-109057619D01*
X160554761Y-109105238D01*
X160578571Y-109200476D01*
X160578571Y-109271904D01*
X160554761Y-109367142D01*
X160530952Y-109414761D01*
X160483333Y-109462380D01*
X160411904Y-109486190D01*
X160292857Y-109486190D01*
X160769047Y-109343333D02*
X161007142Y-109343333D01*
X160721428Y-109486190D02*
X160888095Y-108986190D01*
X161054761Y-109486190D01*
X159590476Y-106735714D02*
X159614285Y-106711904D01*
X159661904Y-106688095D01*
X159757142Y-106735714D01*
X159804761Y-106711904D01*
X159828571Y-106688095D01*
X160304761Y-106926190D02*
X160138095Y-106688095D01*
X160019047Y-106926190D02*
X160019047Y-106426190D01*
X160209523Y-106426190D01*
X160257142Y-106450000D01*
X160280952Y-106473809D01*
X160304761Y-106521428D01*
X160304761Y-106592857D01*
X160280952Y-106640476D01*
X160257142Y-106664285D01*
X160209523Y-106688095D01*
X160019047Y-106688095D01*
X160495238Y-106902380D02*
X160566666Y-106926190D01*
X160685714Y-106926190D01*
X160733333Y-106902380D01*
X160757142Y-106878571D01*
X160780952Y-106830952D01*
X160780952Y-106783333D01*
X160757142Y-106735714D01*
X160733333Y-106711904D01*
X160685714Y-106688095D01*
X160590476Y-106664285D01*
X160542857Y-106640476D01*
X160519047Y-106616666D01*
X160495238Y-106569047D01*
X160495238Y-106521428D01*
X160519047Y-106473809D01*
X160542857Y-106450000D01*
X160590476Y-106426190D01*
X160709523Y-106426190D01*
X160780952Y-106450000D01*
X160923809Y-106426190D02*
X161209523Y-106426190D01*
X161066666Y-106926190D02*
X161066666Y-106426190D01*
X159804761Y-112002380D02*
X159876190Y-112026190D01*
X159995238Y-112026190D01*
X160042857Y-112002380D01*
X160066666Y-111978571D01*
X160090476Y-111930952D01*
X160090476Y-111883333D01*
X160066666Y-111835714D01*
X160042857Y-111811904D01*
X159995238Y-111788095D01*
X159900000Y-111764285D01*
X159852380Y-111740476D01*
X159828571Y-111716666D01*
X159804761Y-111669047D01*
X159804761Y-111621428D01*
X159828571Y-111573809D01*
X159852380Y-111550000D01*
X159900000Y-111526190D01*
X160019047Y-111526190D01*
X160090476Y-111550000D01*
X160590476Y-111978571D02*
X160566666Y-112002380D01*
X160495238Y-112026190D01*
X160447619Y-112026190D01*
X160376190Y-112002380D01*
X160328571Y-111954761D01*
X160304761Y-111907142D01*
X160280952Y-111811904D01*
X160280952Y-111740476D01*
X160304761Y-111645238D01*
X160328571Y-111597619D01*
X160376190Y-111550000D01*
X160447619Y-111526190D01*
X160495238Y-111526190D01*
X160566666Y-111550000D01*
X160590476Y-111573809D01*
X161042857Y-112026190D02*
X160804761Y-112026190D01*
X160804761Y-111526190D01*
D10*
X147575000Y-90252380D02*
X147515476Y-90371428D01*
X147515476Y-90550000D01*
X147575000Y-90728571D01*
X147694047Y-90847619D01*
X147813095Y-90907142D01*
X148051190Y-90966666D01*
X148229761Y-90966666D01*
X148467857Y-90907142D01*
X148586904Y-90847619D01*
X148705952Y-90728571D01*
X148765476Y-90550000D01*
X148765476Y-90430952D01*
X148705952Y-90252380D01*
X148646428Y-90192857D01*
X148229761Y-90192857D01*
X148229761Y-90430952D01*
X148765476Y-89657142D02*
X147515476Y-89657142D01*
X148765476Y-88942857D01*
X147515476Y-88942857D01*
X148765476Y-88347619D02*
X147515476Y-88347619D01*
X147515476Y-88050000D01*
X147575000Y-87871428D01*
X147694047Y-87752380D01*
X147813095Y-87692857D01*
X148051190Y-87633333D01*
X148229761Y-87633333D01*
X148467857Y-87692857D01*
X148586904Y-87752380D01*
X148705952Y-87871428D01*
X148765476Y-88050000D01*
X148765476Y-88347619D01*
D11*
X160045238Y-97580833D02*
X160283333Y-97580833D01*
X159997619Y-97723690D02*
X160164285Y-97223690D01*
X160330952Y-97723690D01*
X160497619Y-97723690D02*
X160497619Y-97223690D01*
X160664285Y-97580833D01*
X160830952Y-97223690D01*
X160830952Y-97723690D01*
X161069047Y-97723690D02*
X161069047Y-97223690D01*
X161259523Y-97223690D01*
X161307142Y-97247500D01*
X161330952Y-97271309D01*
X161354761Y-97318928D01*
X161354761Y-97390357D01*
X161330952Y-97437976D01*
X161307142Y-97461785D01*
X161259523Y-97485595D01*
X161069047Y-97485595D01*
X159795238Y-98528690D02*
X159795238Y-98028690D01*
X159961904Y-98385833D01*
X160128571Y-98028690D01*
X160128571Y-98528690D01*
X160461904Y-98028690D02*
X160557142Y-98028690D01*
X160604761Y-98052500D01*
X160652380Y-98100119D01*
X160676190Y-98195357D01*
X160676190Y-98362023D01*
X160652380Y-98457261D01*
X160604761Y-98504880D01*
X160557142Y-98528690D01*
X160461904Y-98528690D01*
X160414285Y-98504880D01*
X160366666Y-98457261D01*
X160342857Y-98362023D01*
X160342857Y-98195357D01*
X160366666Y-98100119D01*
X160414285Y-98052500D01*
X160461904Y-98028690D01*
X160890476Y-98528690D02*
X160890476Y-98028690D01*
X161009523Y-98028690D01*
X161080952Y-98052500D01*
X161128571Y-98100119D01*
X161152380Y-98147738D01*
X161176190Y-98242976D01*
X161176190Y-98314404D01*
X161152380Y-98409642D01*
X161128571Y-98457261D01*
X161080952Y-98504880D01*
X161009523Y-98528690D01*
X160890476Y-98528690D01*
X161390476Y-98266785D02*
X161557142Y-98266785D01*
X161628571Y-98528690D02*
X161390476Y-98528690D01*
X161390476Y-98028690D01*
X161628571Y-98028690D01*
X160211904Y-103023690D02*
X160211904Y-102523690D01*
X160426190Y-102571309D02*
X160450000Y-102547500D01*
X160497619Y-102523690D01*
X160616666Y-102523690D01*
X160664285Y-102547500D01*
X160688095Y-102571309D01*
X160711904Y-102618928D01*
X160711904Y-102666547D01*
X160688095Y-102737976D01*
X160402380Y-103023690D01*
X160711904Y-103023690D01*
X161211904Y-102976071D02*
X161188095Y-102999880D01*
X161116666Y-103023690D01*
X161069047Y-103023690D01*
X160997619Y-102999880D01*
X160950000Y-102952261D01*
X160926190Y-102904642D01*
X160902380Y-102809404D01*
X160902380Y-102737976D01*
X160926190Y-102642738D01*
X160950000Y-102595119D01*
X160997619Y-102547500D01*
X161069047Y-102523690D01*
X161116666Y-102523690D01*
X161188095Y-102547500D01*
X161211904Y-102571309D01*
X159795238Y-103828690D02*
X159795238Y-103328690D01*
X159961904Y-103685833D01*
X160128571Y-103328690D01*
X160128571Y-103828690D01*
X160461904Y-103328690D02*
X160557142Y-103328690D01*
X160604761Y-103352500D01*
X160652380Y-103400119D01*
X160676190Y-103495357D01*
X160676190Y-103662023D01*
X160652380Y-103757261D01*
X160604761Y-103804880D01*
X160557142Y-103828690D01*
X160461904Y-103828690D01*
X160414285Y-103804880D01*
X160366666Y-103757261D01*
X160342857Y-103662023D01*
X160342857Y-103495357D01*
X160366666Y-103400119D01*
X160414285Y-103352500D01*
X160461904Y-103328690D01*
X160890476Y-103828690D02*
X160890476Y-103328690D01*
X161009523Y-103328690D01*
X161080952Y-103352500D01*
X161128571Y-103400119D01*
X161152380Y-103447738D01*
X161176190Y-103542976D01*
X161176190Y-103614404D01*
X161152380Y-103709642D01*
X161128571Y-103757261D01*
X161080952Y-103804880D01*
X161009523Y-103828690D01*
X160890476Y-103828690D01*
X161390476Y-103566785D02*
X161557142Y-103566785D01*
X161628571Y-103828690D02*
X161390476Y-103828690D01*
X161390476Y-103328690D01*
X161628571Y-103328690D01*
D10*
X143246428Y-90244047D02*
X143305952Y-90303571D01*
X143365476Y-90482142D01*
X143365476Y-90601190D01*
X143305952Y-90779761D01*
X143186904Y-90898809D01*
X143067857Y-90958333D01*
X142829761Y-91017857D01*
X142651190Y-91017857D01*
X142413095Y-90958333D01*
X142294047Y-90898809D01*
X142175000Y-90779761D01*
X142115476Y-90601190D01*
X142115476Y-90482142D01*
X142175000Y-90303571D01*
X142234523Y-90244047D01*
X143365476Y-89113095D02*
X143365476Y-89708333D01*
X142115476Y-89708333D01*
X143365476Y-88696428D02*
X142115476Y-88696428D01*
X143365476Y-87982142D02*
X142651190Y-88517857D01*
X142115476Y-87982142D02*
X142829761Y-88696428D01*
D11*
X134102380Y-106376071D02*
X134078571Y-106399880D01*
X134007142Y-106423690D01*
X133959523Y-106423690D01*
X133888095Y-106399880D01*
X133840476Y-106352261D01*
X133816666Y-106304642D01*
X133792857Y-106209404D01*
X133792857Y-106137976D01*
X133816666Y-106042738D01*
X133840476Y-105995119D01*
X133888095Y-105947500D01*
X133959523Y-105923690D01*
X134007142Y-105923690D01*
X134078571Y-105947500D01*
X134102380Y-105971309D01*
X134554761Y-106423690D02*
X134316666Y-106423690D01*
X134316666Y-105923690D01*
X134721428Y-106423690D02*
X134721428Y-105923690D01*
X135007142Y-106423690D02*
X134792857Y-106137976D01*
X135007142Y-105923690D02*
X134721428Y-106209404D01*
X133078571Y-107228690D02*
X133078571Y-106728690D01*
X133245238Y-107085833D01*
X133411904Y-106728690D01*
X133411904Y-107228690D01*
X133626190Y-107085833D02*
X133864285Y-107085833D01*
X133578571Y-107228690D02*
X133745238Y-106728690D01*
X133911904Y-107228690D01*
X134078571Y-107228690D02*
X134078571Y-106728690D01*
X134364285Y-107228690D01*
X134364285Y-106728690D01*
X134602380Y-106728690D02*
X134602380Y-107133452D01*
X134626190Y-107181071D01*
X134650000Y-107204880D01*
X134697619Y-107228690D01*
X134792857Y-107228690D01*
X134840476Y-107204880D01*
X134864285Y-107181071D01*
X134888095Y-107133452D01*
X134888095Y-106728690D01*
X135102380Y-107085833D02*
X135340476Y-107085833D01*
X135054761Y-107228690D02*
X135221428Y-106728690D01*
X135388095Y-107228690D01*
X135792857Y-107228690D02*
X135554761Y-107228690D01*
X135554761Y-106728690D01*
D10*
X150015476Y-90966666D02*
X151265476Y-90550000D01*
X150015476Y-90133333D01*
X151265476Y-89716666D02*
X150015476Y-89716666D01*
X150015476Y-89419047D01*
X150075000Y-89240476D01*
X150194047Y-89121428D01*
X150313095Y-89061904D01*
X150551190Y-89002380D01*
X150729761Y-89002380D01*
X150967857Y-89061904D01*
X151086904Y-89121428D01*
X151205952Y-89240476D01*
X151265476Y-89419047D01*
X151265476Y-89716666D01*
X151265476Y-88466666D02*
X150015476Y-88466666D01*
X150015476Y-88169047D01*
X150075000Y-87990476D01*
X150194047Y-87871428D01*
X150313095Y-87811904D01*
X150551190Y-87752380D01*
X150729761Y-87752380D01*
X150967857Y-87811904D01*
X151086904Y-87871428D01*
X151205952Y-87990476D01*
X151265476Y-88169047D01*
X151265476Y-88466666D01*
D11*
X134102380Y-111976071D02*
X134078571Y-111999880D01*
X134007142Y-112023690D01*
X133959523Y-112023690D01*
X133888095Y-111999880D01*
X133840476Y-111952261D01*
X133816666Y-111904642D01*
X133792857Y-111809404D01*
X133792857Y-111737976D01*
X133816666Y-111642738D01*
X133840476Y-111595119D01*
X133888095Y-111547500D01*
X133959523Y-111523690D01*
X134007142Y-111523690D01*
X134078571Y-111547500D01*
X134102380Y-111571309D01*
X134554761Y-112023690D02*
X134316666Y-112023690D01*
X134316666Y-111523690D01*
X134721428Y-112023690D02*
X134721428Y-111523690D01*
X135007142Y-112023690D02*
X134792857Y-111737976D01*
X135007142Y-111523690D02*
X134721428Y-111809404D01*
X133566666Y-112685833D02*
X133804761Y-112685833D01*
X133519047Y-112828690D02*
X133685714Y-112328690D01*
X133852380Y-112828690D01*
X134019047Y-112328690D02*
X134019047Y-112733452D01*
X134042857Y-112781071D01*
X134066666Y-112804880D01*
X134114285Y-112828690D01*
X134209523Y-112828690D01*
X134257142Y-112804880D01*
X134280952Y-112781071D01*
X134304761Y-112733452D01*
X134304761Y-112328690D01*
X134471428Y-112328690D02*
X134757142Y-112328690D01*
X134614285Y-112828690D02*
X134614285Y-112328690D01*
X135019047Y-112328690D02*
X135114285Y-112328690D01*
X135161904Y-112352500D01*
X135209523Y-112400119D01*
X135233333Y-112495357D01*
X135233333Y-112662023D01*
X135209523Y-112757261D01*
X135161904Y-112804880D01*
X135114285Y-112828690D01*
X135019047Y-112828690D01*
X134971428Y-112804880D01*
X134923809Y-112757261D01*
X134900000Y-112662023D01*
X134900000Y-112495357D01*
X134923809Y-112400119D01*
X134971428Y-112352500D01*
X135019047Y-112328690D01*
D10*
%TO.C,J2*%
X141246308Y-122902379D02*
X141246308Y-123616665D01*
X141198689Y-123759522D01*
X141103451Y-123854760D01*
X140960594Y-123902379D01*
X140865356Y-123902379D01*
X141674879Y-122997618D02*
X141722499Y-122949999D01*
X141817737Y-122902379D01*
X142055832Y-122902379D01*
X142151070Y-122949999D01*
X142198689Y-122997618D01*
X142246308Y-123092856D01*
X142246308Y-123188094D01*
X142198689Y-123330951D01*
X141627260Y-123902379D01*
X142246308Y-123902379D01*
%TO.C,R1*%
X155152380Y-113266666D02*
X154676190Y-113600000D01*
X155152380Y-113838095D02*
X154152380Y-113838095D01*
X154152380Y-113457142D01*
X154200000Y-113361904D01*
X154247619Y-113314285D01*
X154342857Y-113266666D01*
X154485714Y-113266666D01*
X154580952Y-113314285D01*
X154628571Y-113361904D01*
X154676190Y-113457142D01*
X154676190Y-113838095D01*
X155152380Y-112314285D02*
X155152380Y-112885714D01*
X155152380Y-112600000D02*
X154152380Y-112600000D01*
X154295238Y-112695238D01*
X154390476Y-112790476D01*
X154438095Y-112885714D01*
%TO.C,J5*%
X157306666Y-113622380D02*
X157306666Y-114336666D01*
X157259047Y-114479523D01*
X157163809Y-114574761D01*
X157020952Y-114622380D01*
X156925714Y-114622380D01*
X158259047Y-113622380D02*
X157782857Y-113622380D01*
X157735238Y-114098571D01*
X157782857Y-114050952D01*
X157878095Y-114003333D01*
X158116190Y-114003333D01*
X158211428Y-114050952D01*
X158259047Y-114098571D01*
X158306666Y-114193809D01*
X158306666Y-114431904D01*
X158259047Y-114527142D01*
X158211428Y-114574761D01*
X158116190Y-114622380D01*
X157878095Y-114622380D01*
X157782857Y-114574761D01*
X157735238Y-114527142D01*
%TO.C,J3*%
X152522380Y-93453333D02*
X153236666Y-93453333D01*
X153379523Y-93500952D01*
X153474761Y-93596190D01*
X153522380Y-93739047D01*
X153522380Y-93834285D01*
X152522380Y-93072380D02*
X152522380Y-92453333D01*
X152903333Y-92786666D01*
X152903333Y-92643809D01*
X152950952Y-92548571D01*
X152998571Y-92500952D01*
X153093809Y-92453333D01*
X153331904Y-92453333D01*
X153427142Y-92500952D01*
X153474761Y-92548571D01*
X153522380Y-92643809D01*
X153522380Y-92929523D01*
X153474761Y-93024761D01*
X153427142Y-93072380D01*
%TO.C,JP1*%
X137026666Y-113527380D02*
X137026666Y-114241666D01*
X136979047Y-114384523D01*
X136883809Y-114479761D01*
X136740952Y-114527380D01*
X136645714Y-114527380D01*
X137502857Y-114527380D02*
X137502857Y-113527380D01*
X137883809Y-113527380D01*
X137979047Y-113575000D01*
X138026666Y-113622619D01*
X138074285Y-113717857D01*
X138074285Y-113860714D01*
X138026666Y-113955952D01*
X137979047Y-114003571D01*
X137883809Y-114051190D01*
X137502857Y-114051190D01*
X139026666Y-114527380D02*
X138455238Y-114527380D01*
X138740952Y-114527380D02*
X138740952Y-113527380D01*
X138645714Y-113670238D01*
X138550476Y-113765476D01*
X138455238Y-113813095D01*
%TO.C,R2*%
X155082380Y-106766666D02*
X154606190Y-107100000D01*
X155082380Y-107338095D02*
X154082380Y-107338095D01*
X154082380Y-106957142D01*
X154130000Y-106861904D01*
X154177619Y-106814285D01*
X154272857Y-106766666D01*
X154415714Y-106766666D01*
X154510952Y-106814285D01*
X154558571Y-106861904D01*
X154606190Y-106957142D01*
X154606190Y-107338095D01*
X154177619Y-106385714D02*
X154130000Y-106338095D01*
X154082380Y-106242857D01*
X154082380Y-106004761D01*
X154130000Y-105909523D01*
X154177619Y-105861904D01*
X154272857Y-105814285D01*
X154368095Y-105814285D01*
X154510952Y-105861904D01*
X155082380Y-106433333D01*
X155082380Y-105814285D01*
%TO.C,J4*%
X150436666Y-95732380D02*
X150436666Y-96446666D01*
X150389047Y-96589523D01*
X150293809Y-96684761D01*
X150150952Y-96732380D01*
X150055714Y-96732380D01*
X151341428Y-96065714D02*
X151341428Y-96732380D01*
X151103333Y-95684761D02*
X150865238Y-96399047D01*
X151484285Y-96399047D01*
%TO.C,J1*%
X142806666Y-95612380D02*
X142806666Y-96326666D01*
X142759047Y-96469523D01*
X142663809Y-96564761D01*
X142520952Y-96612380D01*
X142425714Y-96612380D01*
X143806666Y-96612380D02*
X143235238Y-96612380D01*
X143520952Y-96612380D02*
X143520952Y-95612380D01*
X143425714Y-95755238D01*
X143330476Y-95850476D01*
X143235238Y-95898095D01*
%TO.C,JP2*%
X156806666Y-94667380D02*
X156806666Y-95381666D01*
X156759047Y-95524523D01*
X156663809Y-95619761D01*
X156520952Y-95667380D01*
X156425714Y-95667380D01*
X157282857Y-95667380D02*
X157282857Y-94667380D01*
X157663809Y-94667380D01*
X157759047Y-94715000D01*
X157806666Y-94762619D01*
X157854285Y-94857857D01*
X157854285Y-95000714D01*
X157806666Y-95095952D01*
X157759047Y-95143571D01*
X157663809Y-95191190D01*
X157282857Y-95191190D01*
X158235238Y-94762619D02*
X158282857Y-94715000D01*
X158378095Y-94667380D01*
X158616190Y-94667380D01*
X158711428Y-94715000D01*
X158759047Y-94762619D01*
X158806666Y-94857857D01*
X158806666Y-94953095D01*
X158759047Y-95095952D01*
X158187619Y-95667380D01*
X158806666Y-95667380D01*
%TO.C,G\u002A\u002A\u002A*%
G36*
X136688385Y-102539414D02*
G01*
X136726995Y-102543004D01*
X136772023Y-102546633D01*
X136826057Y-102550495D01*
X136891686Y-102554785D01*
X136899451Y-102555274D01*
X136931327Y-102557525D01*
X136957701Y-102559855D01*
X136975305Y-102561947D01*
X136980760Y-102563153D01*
X136983810Y-102571803D01*
X136983107Y-102582177D01*
X136980722Y-102601374D01*
X136979590Y-102620528D01*
X136978179Y-102635099D01*
X136972011Y-102640879D01*
X136956749Y-102641020D01*
X136951915Y-102640622D01*
X136911957Y-102637297D01*
X136870521Y-102634050D01*
X136830141Y-102631057D01*
X136793350Y-102628493D01*
X136762682Y-102626532D01*
X136740670Y-102625350D01*
X136729849Y-102625121D01*
X136729171Y-102625249D01*
X136727955Y-102632791D01*
X136726055Y-102650979D01*
X136723862Y-102676029D01*
X136723659Y-102678552D01*
X136719541Y-102730064D01*
X136771504Y-102734475D01*
X136802561Y-102736954D01*
X136841521Y-102739840D01*
X136881842Y-102742654D01*
X136898330Y-102743746D01*
X136973192Y-102748606D01*
X136968885Y-102770138D01*
X136965639Y-102792633D01*
X136964579Y-102809830D01*
X136964579Y-102827990D01*
X136886787Y-102823244D01*
X136848088Y-102820730D01*
X136808589Y-102817912D01*
X136774301Y-102815227D01*
X136760149Y-102813995D01*
X136711303Y-102809492D01*
X136711042Y-102844905D01*
X136710078Y-102873906D01*
X136707937Y-102906803D01*
X136706668Y-102920894D01*
X136702555Y-102961471D01*
X136737684Y-102965807D01*
X136759244Y-102967976D01*
X136790744Y-102970528D01*
X136827667Y-102973121D01*
X136859650Y-102975084D01*
X136893589Y-102977433D01*
X136921943Y-102980187D01*
X136941761Y-102983002D01*
X136950094Y-102985539D01*
X136950106Y-102985557D01*
X136951724Y-102995435D01*
X136951869Y-103014565D01*
X136951217Y-103027969D01*
X136948248Y-103052677D01*
X136943336Y-103064001D01*
X136936001Y-103062954D01*
X136935030Y-103062131D01*
X136927064Y-103060713D01*
X136907502Y-103058807D01*
X136879200Y-103056652D01*
X136845018Y-103054489D01*
X136841559Y-103054291D01*
X136804725Y-103052099D01*
X136771306Y-103049917D01*
X136744980Y-103047998D01*
X136729429Y-103046595D01*
X136709495Y-103044806D01*
X136682826Y-103043110D01*
X136667919Y-103042402D01*
X136638869Y-103040887D01*
X136621577Y-103037284D01*
X136613354Y-103028635D01*
X136611512Y-103011981D01*
X136613363Y-102984363D01*
X136613513Y-102982529D01*
X136617042Y-102938967D01*
X136619989Y-102901324D01*
X136622653Y-102865462D01*
X136625333Y-102827244D01*
X136628329Y-102782533D01*
X136631630Y-102731969D01*
X136634542Y-102688479D01*
X136637489Y-102646932D01*
X136640211Y-102610849D01*
X136642445Y-102583750D01*
X136643373Y-102573935D01*
X136647376Y-102535303D01*
X136688385Y-102539414D01*
G37*
G36*
X137749880Y-102473276D02*
G01*
X137751865Y-102480773D01*
X137755534Y-102498092D01*
X137758411Y-102512734D01*
X137762236Y-102534630D01*
X137762140Y-102546242D01*
X137757027Y-102551483D01*
X137746820Y-102554066D01*
X137731223Y-102557086D01*
X137705992Y-102561942D01*
X137675704Y-102567754D01*
X137664707Y-102569861D01*
X137634559Y-102575871D01*
X137615933Y-102580700D01*
X137606104Y-102585696D01*
X137602343Y-102592206D01*
X137601905Y-102600894D01*
X137603344Y-102612979D01*
X137607126Y-102637149D01*
X137612884Y-102671273D01*
X137620251Y-102713219D01*
X137628860Y-102760855D01*
X137636902Y-102804334D01*
X137646023Y-102854203D01*
X137653907Y-102899358D01*
X137660246Y-102937862D01*
X137664731Y-102967778D01*
X137667056Y-102987169D01*
X137667042Y-102994027D01*
X137657966Y-102997659D01*
X137639205Y-103001531D01*
X137623000Y-103003804D01*
X137583297Y-103008417D01*
X137547115Y-102805072D01*
X137536489Y-102745734D01*
X137527924Y-102699142D01*
X137521041Y-102663777D01*
X137515460Y-102638119D01*
X137510803Y-102620648D01*
X137506690Y-102609845D01*
X137502743Y-102604189D01*
X137498581Y-102602162D01*
X137496459Y-102602031D01*
X137483308Y-102603421D01*
X137459858Y-102606906D01*
X137430026Y-102611879D01*
X137411765Y-102615129D01*
X137341544Y-102627923D01*
X137335267Y-102591299D01*
X137332085Y-102569597D01*
X137330828Y-102554244D01*
X137331201Y-102550124D01*
X137338817Y-102547023D01*
X137357551Y-102542340D01*
X137384233Y-102536810D01*
X137404081Y-102533156D01*
X137434869Y-102527715D01*
X137475943Y-102520410D01*
X137523342Y-102511947D01*
X137573110Y-102503033D01*
X137611651Y-102496110D01*
X137654146Y-102488565D01*
X137691408Y-102482141D01*
X137721235Y-102477202D01*
X137741428Y-102474112D01*
X137749784Y-102473235D01*
X137749880Y-102473276D01*
G37*
G36*
X135892949Y-102335924D02*
G01*
X135907519Y-102341593D01*
X135925484Y-102349126D01*
X135928270Y-102350244D01*
X135969257Y-102366528D01*
X135981366Y-102449747D01*
X135992197Y-102524122D01*
X136001144Y-102585403D01*
X136008391Y-102634821D01*
X136014126Y-102673607D01*
X136018534Y-102702992D01*
X136021801Y-102724207D01*
X136024112Y-102738482D01*
X136025654Y-102747047D01*
X136026611Y-102751134D01*
X136026982Y-102751948D01*
X136029776Y-102745972D01*
X136036634Y-102728178D01*
X136046874Y-102700423D01*
X136059819Y-102664563D01*
X136074788Y-102622455D01*
X136085236Y-102592746D01*
X136101215Y-102547274D01*
X136115627Y-102506550D01*
X136127784Y-102472500D01*
X136136994Y-102447049D01*
X136142568Y-102432125D01*
X136143903Y-102428993D01*
X136151984Y-102429108D01*
X136168120Y-102433974D01*
X136187549Y-102441619D01*
X136205509Y-102450073D01*
X136217238Y-102457361D01*
X136219311Y-102460222D01*
X136217019Y-102469157D01*
X136210537Y-102489473D01*
X136200545Y-102519264D01*
X136187720Y-102556622D01*
X136172745Y-102599640D01*
X136156297Y-102646409D01*
X136139056Y-102695022D01*
X136121702Y-102743572D01*
X136104915Y-102790151D01*
X136089373Y-102832851D01*
X136075758Y-102869766D01*
X136064747Y-102898986D01*
X136057021Y-102918606D01*
X136053259Y-102926716D01*
X136053091Y-102926825D01*
X136044652Y-102924299D01*
X136026923Y-102918319D01*
X136010015Y-102912399D01*
X135988171Y-102904278D01*
X135972483Y-102897762D01*
X135967348Y-102894985D01*
X135965631Y-102891711D01*
X135963552Y-102884121D01*
X135960859Y-102870707D01*
X135957303Y-102849961D01*
X135952633Y-102820374D01*
X135946599Y-102780439D01*
X135938951Y-102728647D01*
X135933089Y-102688551D01*
X135923433Y-102622974D01*
X135915519Y-102570729D01*
X135909174Y-102530803D01*
X135904224Y-102502181D01*
X135900497Y-102483849D01*
X135897817Y-102474795D01*
X135896306Y-102473557D01*
X135893196Y-102480891D01*
X135885957Y-102500014D01*
X135875269Y-102529065D01*
X135861812Y-102566182D01*
X135846268Y-102609503D01*
X135832423Y-102648399D01*
X135815675Y-102695418D01*
X135800462Y-102737757D01*
X135787462Y-102773555D01*
X135777356Y-102800952D01*
X135770821Y-102818087D01*
X135768604Y-102823177D01*
X135760567Y-102822821D01*
X135744270Y-102818443D01*
X135724730Y-102811793D01*
X135706961Y-102804618D01*
X135695978Y-102798667D01*
X135694795Y-102797446D01*
X135696325Y-102789556D01*
X135702232Y-102769667D01*
X135711977Y-102739397D01*
X135725021Y-102700359D01*
X135740828Y-102654169D01*
X135758859Y-102602443D01*
X135773469Y-102561129D01*
X135795978Y-102497564D01*
X135814183Y-102446354D01*
X135828937Y-102406334D01*
X135841099Y-102376339D01*
X135851522Y-102355202D01*
X135861063Y-102341757D01*
X135870577Y-102334840D01*
X135880921Y-102333284D01*
X135892949Y-102335924D01*
G37*
G36*
X138295084Y-102302493D02*
G01*
X138304054Y-102321448D01*
X138309641Y-102334199D01*
X138310562Y-102336990D01*
X138304533Y-102341022D01*
X138289391Y-102348012D01*
X138282134Y-102351003D01*
X138253705Y-102362378D01*
X138306605Y-102483855D01*
X138325059Y-102526177D01*
X138342954Y-102567117D01*
X138358911Y-102603527D01*
X138371550Y-102632258D01*
X138378195Y-102647260D01*
X138396885Y-102689188D01*
X138419342Y-102677575D01*
X138437862Y-102669610D01*
X138450258Y-102670489D01*
X138460299Y-102681948D01*
X138469502Y-102700637D01*
X138482890Y-102730541D01*
X138389920Y-102771056D01*
X138355838Y-102785704D01*
X138326350Y-102797995D01*
X138304061Y-102806871D01*
X138291570Y-102811277D01*
X138290069Y-102811571D01*
X138283446Y-102805471D01*
X138274860Y-102790113D01*
X138271415Y-102782148D01*
X138263987Y-102757791D01*
X138265685Y-102743801D01*
X138276637Y-102739209D01*
X138277042Y-102739206D01*
X138289820Y-102735217D01*
X138299232Y-102729593D01*
X138302415Y-102725827D01*
X138303656Y-102719600D01*
X138302512Y-102709730D01*
X138298537Y-102695037D01*
X138291287Y-102674341D01*
X138280316Y-102646462D01*
X138265181Y-102610218D01*
X138245436Y-102564430D01*
X138220636Y-102507916D01*
X138190337Y-102439497D01*
X138187675Y-102433503D01*
X138172425Y-102399167D01*
X138146536Y-102409984D01*
X138129374Y-102416903D01*
X138119016Y-102420606D01*
X138118059Y-102420801D01*
X138112179Y-102414755D01*
X138104364Y-102400071D01*
X138096758Y-102381932D01*
X138091507Y-102365523D01*
X138090757Y-102356026D01*
X138091073Y-102355596D01*
X138099613Y-102350795D01*
X138118839Y-102341524D01*
X138146131Y-102329005D01*
X138178867Y-102314457D01*
X138188346Y-102310319D01*
X138279606Y-102270634D01*
X138295084Y-102302493D01*
G37*
G36*
X135069495Y-102089365D02*
G01*
X135098195Y-102047941D01*
X135124925Y-102009675D01*
X135148543Y-101976235D01*
X135167905Y-101949287D01*
X135181871Y-101930499D01*
X135187603Y-101923348D01*
X135194151Y-101926052D01*
X135209633Y-101935858D01*
X135231579Y-101950958D01*
X135257519Y-101969545D01*
X135284980Y-101989812D01*
X135311493Y-102009950D01*
X135334586Y-102028153D01*
X135351790Y-102042612D01*
X135356237Y-102046718D01*
X135387024Y-102084628D01*
X135404020Y-102124880D01*
X135407072Y-102166316D01*
X135396028Y-102207780D01*
X135380932Y-102234615D01*
X135349860Y-102267650D01*
X135311070Y-102289073D01*
X135266873Y-102297669D01*
X135261046Y-102297781D01*
X135226471Y-102297781D01*
X135230508Y-102335773D01*
X135232797Y-102358567D01*
X135235894Y-102391119D01*
X135239364Y-102428769D01*
X135242217Y-102460602D01*
X135245523Y-102496056D01*
X135248769Y-102527466D01*
X135251572Y-102551309D01*
X135253469Y-102563722D01*
X135254858Y-102574177D01*
X135251832Y-102578021D01*
X135242553Y-102574675D01*
X135225183Y-102563562D01*
X135203119Y-102547892D01*
X135180695Y-102531028D01*
X135167575Y-102518326D01*
X135160993Y-102505961D01*
X135158181Y-102490110D01*
X135157745Y-102485174D01*
X135156015Y-102464506D01*
X135153399Y-102434094D01*
X135150300Y-102398613D01*
X135148105Y-102373764D01*
X135145225Y-102340329D01*
X135142907Y-102311518D01*
X135141421Y-102290828D01*
X135141014Y-102282483D01*
X135135623Y-102273013D01*
X135122444Y-102259564D01*
X135105925Y-102245886D01*
X135090514Y-102235728D01*
X135081877Y-102232653D01*
X135076448Y-102238249D01*
X135064526Y-102253539D01*
X135047798Y-102276278D01*
X135027949Y-102304219D01*
X135025128Y-102308258D01*
X134972441Y-102383863D01*
X134941301Y-102362438D01*
X134922794Y-102349016D01*
X134909624Y-102338191D01*
X134906040Y-102334345D01*
X134909379Y-102327686D01*
X134919886Y-102310845D01*
X134936420Y-102285491D01*
X134957837Y-102253289D01*
X134982995Y-102215909D01*
X135010753Y-102175016D01*
X135022960Y-102157159D01*
X135132074Y-102157159D01*
X135134364Y-102166501D01*
X135148742Y-102179979D01*
X135157402Y-102186077D01*
X135189237Y-102206388D01*
X135212815Y-102218849D01*
X135231365Y-102224416D01*
X135248115Y-102224043D01*
X135266295Y-102218686D01*
X135266861Y-102218472D01*
X135284848Y-102206453D01*
X135301504Y-102186965D01*
X135313861Y-102164711D01*
X135318949Y-102144396D01*
X135318111Y-102137254D01*
X135305676Y-102114450D01*
X135282373Y-102088661D01*
X135250666Y-102062539D01*
X135244884Y-102058441D01*
X135214905Y-102037640D01*
X135176138Y-102093092D01*
X135158556Y-102118347D01*
X135143879Y-102139626D01*
X135134277Y-102153773D01*
X135132074Y-102157159D01*
X135022960Y-102157159D01*
X135039967Y-102132279D01*
X135069495Y-102089365D01*
G37*
G36*
X138998093Y-101879002D02*
G01*
X139016882Y-101903138D01*
X139029303Y-101923136D01*
X139033891Y-101936440D01*
X139032898Y-101939681D01*
X139024241Y-101942159D01*
X139005461Y-101944856D01*
X138984289Y-101946880D01*
X138932953Y-101956296D01*
X138886818Y-101975335D01*
X138848237Y-102002458D01*
X138819564Y-102036123D01*
X138806486Y-102063224D01*
X138800468Y-102101751D01*
X138806281Y-102143029D01*
X138822251Y-102184596D01*
X138846707Y-102223992D01*
X138877978Y-102258756D01*
X138914389Y-102286428D01*
X138954270Y-102304547D01*
X138973534Y-102309031D01*
X139007106Y-102307956D01*
X139043883Y-102296040D01*
X139079742Y-102274925D01*
X139098174Y-102259419D01*
X139114492Y-102240596D01*
X139131092Y-102216411D01*
X139145405Y-102191261D01*
X139154864Y-102169544D01*
X139157229Y-102158294D01*
X139161385Y-102145310D01*
X139168114Y-102134535D01*
X139175694Y-102126194D01*
X139182350Y-102126377D01*
X139192391Y-102136204D01*
X139197560Y-102142197D01*
X139217422Y-102165983D01*
X139228821Y-102182455D01*
X139232876Y-102195146D01*
X139230705Y-102207589D01*
X139223428Y-102223317D01*
X139223324Y-102223521D01*
X139190774Y-102275177D01*
X139150652Y-102319256D01*
X139104984Y-102354593D01*
X139055795Y-102380026D01*
X139005113Y-102394393D01*
X138954963Y-102396529D01*
X138929280Y-102392302D01*
X138880340Y-102373394D01*
X138833422Y-102342177D01*
X138790760Y-102300815D01*
X138754584Y-102251469D01*
X138727217Y-102196530D01*
X138717621Y-102158234D01*
X138714664Y-102113859D01*
X138718356Y-102069994D01*
X138727021Y-102037269D01*
X138752921Y-101990063D01*
X138790925Y-101947175D01*
X138838888Y-101910397D01*
X138894663Y-101881521D01*
X138927724Y-101869707D01*
X138977424Y-101854611D01*
X138998093Y-101879002D01*
G37*
G36*
X138610450Y-101045076D02*
G01*
X138607047Y-101062014D01*
X138601708Y-101085874D01*
X138601333Y-101087482D01*
X138597166Y-101109792D01*
X138594029Y-101137595D01*
X138591813Y-101172913D01*
X138590408Y-101217771D01*
X138589703Y-101274190D01*
X138589587Y-101302767D01*
X138589644Y-101359943D01*
X138590210Y-101405533D01*
X138591467Y-101442425D01*
X138593599Y-101473501D01*
X138596789Y-101501647D01*
X138601220Y-101529748D01*
X138605448Y-101552425D01*
X138612260Y-101586842D01*
X138618462Y-101617205D01*
X138623326Y-101640002D01*
X138625943Y-101651100D01*
X138626279Y-101659154D01*
X138621274Y-101667580D01*
X138608949Y-101678198D01*
X138587325Y-101692831D01*
X138566275Y-101706020D01*
X138507558Y-101741069D01*
X138446160Y-101775589D01*
X138384443Y-101808403D01*
X138324773Y-101838335D01*
X138269513Y-101864209D01*
X138221027Y-101884850D01*
X138181677Y-101899081D01*
X138173069Y-101901632D01*
X138154817Y-101908974D01*
X138129589Y-101921988D01*
X138102304Y-101938099D01*
X138097442Y-101941202D01*
X138031601Y-101990111D01*
X137974024Y-102045698D01*
X137926028Y-102106147D01*
X137888926Y-102169643D01*
X137864035Y-102234370D01*
X137855117Y-102275622D01*
X137851778Y-102296444D01*
X137849655Y-102303815D01*
X137848287Y-102298657D01*
X137847672Y-102290545D01*
X137846670Y-102263323D01*
X137846213Y-102227150D01*
X137846254Y-102185716D01*
X137846744Y-102142712D01*
X137847635Y-102101830D01*
X137848878Y-102066759D01*
X137850425Y-102041193D01*
X137851022Y-102035233D01*
X137868327Y-101921288D01*
X137891770Y-101819383D01*
X137921799Y-101728251D01*
X137958858Y-101646625D01*
X138003394Y-101573239D01*
X138023224Y-101546139D01*
X138049949Y-101514911D01*
X138081437Y-101485260D01*
X138120100Y-101455243D01*
X138168353Y-101422919D01*
X138202376Y-101401930D01*
X138240746Y-101377945D01*
X138282841Y-101350251D01*
X138322447Y-101322993D01*
X138343126Y-101308056D01*
X138381297Y-101278049D01*
X138422587Y-101242714D01*
X138464443Y-101204504D01*
X138504317Y-101165870D01*
X138539657Y-101129265D01*
X138567914Y-101097139D01*
X138582800Y-101077639D01*
X138596681Y-101057797D01*
X138606915Y-101043752D01*
X138611195Y-101038636D01*
X138610450Y-101045076D01*
G37*
G36*
X137939051Y-101561033D02*
G01*
X137932208Y-101573449D01*
X137919832Y-101593495D01*
X137908944Y-101610308D01*
X137872118Y-101674493D01*
X137838792Y-101748822D01*
X137810811Y-101829060D01*
X137804985Y-101849120D01*
X137799348Y-101871694D01*
X137792475Y-101902720D01*
X137784996Y-101938904D01*
X137777544Y-101976951D01*
X137770750Y-102013566D01*
X137765244Y-102045454D01*
X137761658Y-102069319D01*
X137760590Y-102080886D01*
X137753792Y-102085421D01*
X137734815Y-102091663D01*
X137705789Y-102099134D01*
X137668844Y-102107358D01*
X137626108Y-102115857D01*
X137579711Y-102124156D01*
X137536260Y-102131108D01*
X137502197Y-102135729D01*
X137467784Y-102139201D01*
X137430312Y-102141652D01*
X137387070Y-102143208D01*
X137335348Y-102143994D01*
X137272437Y-102144138D01*
X137257656Y-102144099D01*
X137069508Y-102143476D01*
X136989907Y-102170883D01*
X136929849Y-102192853D01*
X136876520Y-102214927D01*
X136831963Y-102236162D01*
X136798221Y-102255613D01*
X136783946Y-102266093D01*
X136761765Y-102284757D01*
X136769213Y-102265170D01*
X136775222Y-102251527D01*
X136786378Y-102228104D01*
X136801184Y-102197977D01*
X136818144Y-102164226D01*
X136821363Y-102157899D01*
X136876058Y-102059118D01*
X136933575Y-101971460D01*
X136993391Y-101895438D01*
X137054981Y-101831563D01*
X137117823Y-101780351D01*
X137181393Y-101742312D01*
X137245167Y-101717961D01*
X137277530Y-101710989D01*
X137379809Y-101694422D01*
X137470160Y-101678933D01*
X137551046Y-101664057D01*
X137624928Y-101649331D01*
X137694269Y-101634291D01*
X137735263Y-101624795D01*
X137779135Y-101613691D01*
X137822687Y-101601425D01*
X137863179Y-101588891D01*
X137897871Y-101576979D01*
X137924022Y-101566582D01*
X137938893Y-101558593D01*
X137939090Y-101558437D01*
X137939051Y-101561033D01*
G37*
G36*
X136445083Y-101565611D02*
G01*
X136483415Y-101572886D01*
X136519556Y-101585043D01*
X136544103Y-101596041D01*
X136588827Y-101615603D01*
X136643255Y-101636128D01*
X136702830Y-101656108D01*
X136762997Y-101674038D01*
X136819199Y-101688408D01*
X136831805Y-101691205D01*
X136870657Y-101698716D01*
X136907146Y-101703712D01*
X136946068Y-101706621D01*
X136992217Y-101707872D01*
X137019721Y-101708009D01*
X137129136Y-101708009D01*
X137092755Y-101727900D01*
X137028516Y-101769253D01*
X136962962Y-101823527D01*
X136925660Y-101859721D01*
X136898191Y-101890383D01*
X136868025Y-101928283D01*
X136837524Y-101970022D01*
X136809054Y-102012197D01*
X136784979Y-102051408D01*
X136767662Y-102084254D01*
X136764450Y-102091596D01*
X136754063Y-102111575D01*
X136743873Y-102122434D01*
X136740249Y-102123457D01*
X136729080Y-102121742D01*
X136707137Y-102117547D01*
X136677771Y-102111538D01*
X136649793Y-102105566D01*
X136510125Y-102071507D01*
X136380340Y-102031872D01*
X136256490Y-101985352D01*
X136162447Y-101943904D01*
X136094932Y-101914775D01*
X136034738Y-101894579D01*
X135978537Y-101882449D01*
X135923002Y-101877517D01*
X135907027Y-101877308D01*
X135856188Y-101881054D01*
X135815646Y-101892524D01*
X135783031Y-101912438D01*
X135778448Y-101916403D01*
X135770051Y-101922779D01*
X135769683Y-101919833D01*
X135776021Y-101909292D01*
X135787742Y-101892880D01*
X135803524Y-101872323D01*
X135822044Y-101849347D01*
X135841979Y-101825676D01*
X135862008Y-101803037D01*
X135879840Y-101784133D01*
X135958872Y-101712586D01*
X136041511Y-101654843D01*
X136127562Y-101610997D01*
X136216832Y-101581140D01*
X136309127Y-101565363D01*
X136345861Y-101563047D01*
X136400565Y-101562553D01*
X136445083Y-101565611D01*
G37*
G36*
X134781369Y-101517460D02*
G01*
X134890208Y-101648025D01*
X134861824Y-101672318D01*
X134844908Y-101686166D01*
X134832598Y-101695092D01*
X134828996Y-101696883D01*
X134823142Y-101691679D01*
X134809731Y-101677094D01*
X134790364Y-101654954D01*
X134766644Y-101627083D01*
X134746701Y-101603200D01*
X134717748Y-101569102D01*
X134693428Y-101542144D01*
X134674932Y-101523562D01*
X134663453Y-101514591D01*
X134660689Y-101514113D01*
X134646696Y-101523948D01*
X134629151Y-101538180D01*
X134611650Y-101553618D01*
X134597789Y-101567067D01*
X134591166Y-101575334D01*
X134591018Y-101575970D01*
X134595446Y-101583270D01*
X134607690Y-101599613D01*
X134626192Y-101623015D01*
X134649393Y-101651490D01*
X134667001Y-101672671D01*
X134692454Y-101703363D01*
X134714235Y-101730219D01*
X134730799Y-101751286D01*
X134740599Y-101764609D01*
X134742610Y-101768252D01*
X134737208Y-101775180D01*
X134723785Y-101787595D01*
X134713000Y-101796558D01*
X134683764Y-101819978D01*
X134606636Y-101726422D01*
X134580717Y-101695375D01*
X134557777Y-101668633D01*
X134539456Y-101648053D01*
X134527397Y-101635490D01*
X134523475Y-101632446D01*
X134515673Y-101636577D01*
X134500145Y-101647745D01*
X134479882Y-101663499D01*
X134457873Y-101681387D01*
X134437110Y-101698957D01*
X134420583Y-101713758D01*
X134411282Y-101723338D01*
X134410249Y-101725265D01*
X134414713Y-101732037D01*
X134426964Y-101747910D01*
X134445445Y-101770932D01*
X134468596Y-101799155D01*
X134486089Y-101820175D01*
X134511518Y-101850824D01*
X134533326Y-101877612D01*
X134549956Y-101898582D01*
X134559848Y-101911780D01*
X134561929Y-101915308D01*
X134556974Y-101922581D01*
X134544701Y-101934889D01*
X134529321Y-101948516D01*
X134515044Y-101959748D01*
X134506083Y-101964869D01*
X134505710Y-101964904D01*
X134499743Y-101959603D01*
X134485929Y-101944760D01*
X134465670Y-101921963D01*
X134440370Y-101892801D01*
X134411431Y-101858864D01*
X134397613Y-101842479D01*
X134367562Y-101806507D01*
X134340788Y-101774047D01*
X134318663Y-101746795D01*
X134302559Y-101726447D01*
X134293847Y-101714700D01*
X134292712Y-101712703D01*
X134297601Y-101706505D01*
X134312400Y-101692218D01*
X134335848Y-101670955D01*
X134366685Y-101643828D01*
X134403648Y-101611950D01*
X134445476Y-101576432D01*
X134481617Y-101546125D01*
X134672530Y-101386896D01*
X134781369Y-101517460D01*
G37*
G36*
X138923472Y-100374520D02*
G01*
X138954175Y-100457437D01*
X138991329Y-100542265D01*
X139032539Y-100624010D01*
X139075413Y-100697681D01*
X139086909Y-100715457D01*
X139116752Y-100756242D01*
X139154739Y-100801636D01*
X139197423Y-100847581D01*
X139209592Y-100859839D01*
X139288320Y-100937936D01*
X139254060Y-100986477D01*
X139215981Y-101038734D01*
X139170049Y-101098912D01*
X139118315Y-101164378D01*
X139062833Y-101232500D01*
X139052578Y-101244875D01*
X139008686Y-101299575D01*
X138972894Y-101349104D01*
X138943117Y-101397218D01*
X138917267Y-101447672D01*
X138893258Y-101504222D01*
X138869002Y-101570623D01*
X138864850Y-101582733D01*
X138853974Y-101616427D01*
X138842050Y-101656271D01*
X138829790Y-101699541D01*
X138817907Y-101743513D01*
X138807115Y-101785462D01*
X138798126Y-101822663D01*
X138791653Y-101852392D01*
X138788409Y-101871924D01*
X138788169Y-101875779D01*
X138785613Y-101890123D01*
X138781860Y-101895584D01*
X138778184Y-101890229D01*
X138771910Y-101872956D01*
X138763707Y-101845944D01*
X138754245Y-101811376D01*
X138745893Y-101778418D01*
X138713799Y-101633187D01*
X138689792Y-101493089D01*
X138674324Y-101360870D01*
X138672011Y-101331713D01*
X138667341Y-101233692D01*
X138668530Y-101146505D01*
X138675930Y-101067597D01*
X138689897Y-100994417D01*
X138710784Y-100924413D01*
X138737720Y-100857724D01*
X138773088Y-100772554D01*
X138805773Y-100680221D01*
X138834610Y-100584815D01*
X138858430Y-100490424D01*
X138876067Y-100401138D01*
X138883915Y-100345574D01*
X138891556Y-100278467D01*
X138923472Y-100374520D01*
G37*
G36*
X139477622Y-101288919D02*
G01*
X139493023Y-101299557D01*
X139510883Y-101313449D01*
X139527288Y-101327457D01*
X139538323Y-101338441D01*
X139540761Y-101342530D01*
X139534709Y-101348637D01*
X139518780Y-101358573D01*
X139496315Y-101370272D01*
X139494413Y-101371185D01*
X139456227Y-101393614D01*
X139422590Y-101421313D01*
X139395093Y-101452070D01*
X139375325Y-101483674D01*
X139364873Y-101513914D01*
X139365329Y-101540577D01*
X139367768Y-101547413D01*
X139383894Y-101567952D01*
X139406702Y-101578829D01*
X139427908Y-101578572D01*
X139440702Y-101572053D01*
X139461168Y-101557950D01*
X139486305Y-101538454D01*
X139508833Y-101519512D01*
X139548037Y-101486647D01*
X139580002Y-101463251D01*
X139607136Y-101448004D01*
X139631850Y-101439588D01*
X139656552Y-101436684D01*
X139660234Y-101436642D01*
X139697012Y-101441346D01*
X139728195Y-101456714D01*
X139756015Y-101482688D01*
X139781000Y-101521207D01*
X139792572Y-101563840D01*
X139790887Y-101609662D01*
X139776097Y-101657745D01*
X139748359Y-101707165D01*
X139710811Y-101753800D01*
X139687300Y-101777136D01*
X139661171Y-101799829D01*
X139635415Y-101819624D01*
X139613022Y-101834264D01*
X139596982Y-101841495D01*
X139594056Y-101841884D01*
X139584966Y-101837909D01*
X139568167Y-101827547D01*
X139549692Y-101814747D01*
X139530700Y-101799726D01*
X139517992Y-101787256D01*
X139514410Y-101780517D01*
X139521790Y-101774525D01*
X139539066Y-101765671D01*
X139562174Y-101756000D01*
X139599859Y-101736945D01*
X139636372Y-101710245D01*
X139668528Y-101678976D01*
X139693144Y-101646214D01*
X139706657Y-101616463D01*
X139710921Y-101583085D01*
X139703949Y-101556888D01*
X139686230Y-101539231D01*
X139677445Y-101535272D01*
X139661082Y-101531576D01*
X139644780Y-101533323D01*
X139626263Y-101541672D01*
X139603253Y-101557780D01*
X139573473Y-101582805D01*
X139559548Y-101595218D01*
X139516340Y-101631276D01*
X139478906Y-101655987D01*
X139445434Y-101670326D01*
X139414110Y-101675271D01*
X139411025Y-101675286D01*
X139378783Y-101668747D01*
X139346112Y-101651714D01*
X139316764Y-101627275D01*
X139294489Y-101598519D01*
X139283315Y-101570122D01*
X139281238Y-101520268D01*
X139293434Y-101469795D01*
X139319739Y-101419136D01*
X139357549Y-101371345D01*
X139379452Y-101349494D01*
X139404159Y-101327633D01*
X139428676Y-101308098D01*
X139450009Y-101293224D01*
X139465165Y-101285349D01*
X139468597Y-101284676D01*
X139477622Y-101288919D01*
G37*
G36*
X135360351Y-100967309D02*
G01*
X135419973Y-100974568D01*
X135476199Y-100988210D01*
X135531648Y-101009203D01*
X135588940Y-101038510D01*
X135650692Y-101077098D01*
X135709052Y-101118214D01*
X135831825Y-101205695D01*
X135953140Y-101287263D01*
X136070872Y-101361566D01*
X136182901Y-101427255D01*
X136262281Y-101470252D01*
X136343748Y-101512625D01*
X136276058Y-101516886D01*
X136185343Y-101529626D01*
X136095408Y-101555825D01*
X136008333Y-101594528D01*
X135926195Y-101644781D01*
X135851074Y-101705627D01*
X135837765Y-101718307D01*
X135817160Y-101738067D01*
X135800587Y-101753227D01*
X135790627Y-101761454D01*
X135789056Y-101762283D01*
X135782086Y-101758445D01*
X135765249Y-101747842D01*
X135740652Y-101731839D01*
X135710403Y-101711800D01*
X135689289Y-101697649D01*
X135584960Y-101624008D01*
X135489896Y-101549929D01*
X135405049Y-101476286D01*
X135331374Y-101403953D01*
X135269823Y-101333802D01*
X135224977Y-101272326D01*
X135196261Y-101230041D01*
X135171429Y-101198074D01*
X135147865Y-101173813D01*
X135122953Y-101154645D01*
X135094075Y-101137957D01*
X135086716Y-101134253D01*
X135047551Y-101117102D01*
X135008363Y-101105092D01*
X134963790Y-101096819D01*
X134927514Y-101092597D01*
X134902257Y-101089950D01*
X134883520Y-101087626D01*
X134875119Y-101086101D01*
X134875018Y-101086038D01*
X134880181Y-101082378D01*
X134895546Y-101073991D01*
X134918261Y-101062406D01*
X134929292Y-101056961D01*
X135009525Y-101020932D01*
X135084043Y-100994745D01*
X135156744Y-100977422D01*
X135231529Y-100967987D01*
X135294715Y-100965469D01*
X135360351Y-100967309D01*
G37*
G36*
X138624690Y-99348287D02*
G01*
X138628307Y-99358482D01*
X138633722Y-99376599D01*
X138640373Y-99400600D01*
X138647695Y-99428442D01*
X138655125Y-99458085D01*
X138662101Y-99487487D01*
X138668060Y-99514608D01*
X138668817Y-99518285D01*
X138692036Y-99668028D01*
X138701018Y-99818560D01*
X138695890Y-99968872D01*
X138676776Y-100117955D01*
X138643802Y-100264800D01*
X138597092Y-100408399D01*
X138542612Y-100535702D01*
X138470663Y-100671323D01*
X138390104Y-100795708D01*
X138300082Y-100909841D01*
X138199744Y-101014704D01*
X138088237Y-101111279D01*
X137967035Y-101199007D01*
X137858300Y-101264582D01*
X137742129Y-101322388D01*
X137621049Y-101371587D01*
X137497588Y-101411339D01*
X137374275Y-101440804D01*
X137253637Y-101459144D01*
X137165579Y-101465117D01*
X137131738Y-101466090D01*
X137098217Y-101467095D01*
X137071719Y-101467928D01*
X137069508Y-101468001D01*
X137046883Y-101468040D01*
X137014740Y-101467184D01*
X136977996Y-101465593D01*
X136952926Y-101464176D01*
X136808335Y-101447980D01*
X136665077Y-101417904D01*
X136524465Y-101374544D01*
X136387812Y-101318494D01*
X136256431Y-101250347D01*
X136131635Y-101170697D01*
X136014736Y-101080140D01*
X135927788Y-101000241D01*
X135823050Y-100886521D01*
X135730099Y-100765008D01*
X135649398Y-100636443D01*
X135581415Y-100501565D01*
X135528304Y-100366109D01*
X135514500Y-100324365D01*
X135504899Y-100293011D01*
X135499550Y-100272594D01*
X135498503Y-100263662D01*
X135501810Y-100266763D01*
X135509521Y-100282444D01*
X135521686Y-100311254D01*
X135523712Y-100316279D01*
X135585136Y-100450151D01*
X135658855Y-100577319D01*
X135743987Y-100697059D01*
X135839645Y-100808643D01*
X135944944Y-100911347D01*
X136059000Y-101004443D01*
X136180928Y-101087207D01*
X136309844Y-101158911D01*
X136444861Y-101218831D01*
X136585096Y-101266239D01*
X136721269Y-101298821D01*
X136762318Y-101306603D01*
X136795372Y-101312416D01*
X136824092Y-101316648D01*
X136852138Y-101319686D01*
X136883171Y-101321916D01*
X136920854Y-101323724D01*
X136968846Y-101325498D01*
X136976344Y-101325757D01*
X137129988Y-101324407D01*
X137278949Y-101309487D01*
X137424029Y-101280824D01*
X137566031Y-101238240D01*
X137705756Y-101181561D01*
X137764209Y-101153382D01*
X137897915Y-101077968D01*
X138022477Y-100991589D01*
X138137457Y-100894843D01*
X138242418Y-100788328D01*
X138336922Y-100672639D01*
X138420533Y-100548375D01*
X138492812Y-100416132D01*
X138553323Y-100276507D01*
X138601627Y-100130097D01*
X138637288Y-99977499D01*
X138641107Y-99956473D01*
X138646320Y-99916738D01*
X138650289Y-99866039D01*
X138653014Y-99807410D01*
X138654494Y-99743887D01*
X138654729Y-99678502D01*
X138653719Y-99614291D01*
X138651462Y-99554287D01*
X138647960Y-99501525D01*
X138643212Y-99459039D01*
X138641165Y-99446671D01*
X138635220Y-99414706D01*
X138629968Y-99386349D01*
X138626193Y-99365842D01*
X138625101Y-99359834D01*
X138623433Y-99348058D01*
X138624690Y-99348287D01*
G37*
G36*
X133853044Y-100956947D02*
G01*
X133844330Y-100937300D01*
X133839551Y-100923859D01*
X133839307Y-100920333D01*
X133846411Y-100916826D01*
X133864620Y-100908195D01*
X133891905Y-100895391D01*
X133926235Y-100879367D01*
X133947600Y-100869434D01*
X134158317Y-100869434D01*
X134159053Y-100876325D01*
X134165471Y-100892204D01*
X134175789Y-100913658D01*
X134188226Y-100937273D01*
X134201001Y-100959637D01*
X134212334Y-100977335D01*
X134218944Y-100985625D01*
X134235218Y-100998289D01*
X134251789Y-101000800D01*
X134259954Y-100999558D01*
X134280885Y-100992249D01*
X134296372Y-100982508D01*
X134305515Y-100967833D01*
X134306603Y-100946489D01*
X134299416Y-100916935D01*
X134283737Y-100877631D01*
X134280489Y-100870472D01*
X134258073Y-100821711D01*
X134209260Y-100845075D01*
X134185530Y-100856430D01*
X134167537Y-100865035D01*
X134158666Y-100869269D01*
X134158317Y-100869434D01*
X133947600Y-100869434D01*
X133965580Y-100861075D01*
X133972300Y-100857957D01*
X134019370Y-100836097D01*
X134068482Y-100813236D01*
X134115647Y-100791235D01*
X134156879Y-100771953D01*
X134183078Y-100759658D01*
X134223244Y-100740593D01*
X134252381Y-100727306D01*
X134272845Y-100720067D01*
X134286993Y-100719150D01*
X134297180Y-100724825D01*
X134305762Y-100737365D01*
X134315095Y-100757041D01*
X134323646Y-100775872D01*
X134349377Y-100832216D01*
X134368880Y-100877596D01*
X134382625Y-100913877D01*
X134391081Y-100942925D01*
X134394718Y-100966606D01*
X134394006Y-100986785D01*
X134389413Y-101005329D01*
X134384482Y-101017584D01*
X134363721Y-101047170D01*
X134333854Y-101068496D01*
X134298553Y-101080095D01*
X134261488Y-101080506D01*
X134240520Y-101074998D01*
X134228381Y-101071382D01*
X134223168Y-101075232D01*
X134221953Y-101089684D01*
X134221931Y-101094898D01*
X134215096Y-101128343D01*
X134196401Y-101159563D01*
X134168458Y-101186358D01*
X134133880Y-101206527D01*
X134095280Y-101217868D01*
X134073951Y-101219548D01*
X134054703Y-101216293D01*
X134029627Y-101207927D01*
X134012859Y-101200479D01*
X133987502Y-101185269D01*
X133965360Y-101165557D01*
X133944588Y-101138992D01*
X133923345Y-101103223D01*
X133900177Y-101056727D01*
X133884778Y-101024051D01*
X133869605Y-100991917D01*
X133858813Y-100969113D01*
X133948955Y-100969113D01*
X133950710Y-100976467D01*
X133958015Y-100993768D01*
X133969611Y-101018191D01*
X133980049Y-101038870D01*
X134002068Y-101078247D01*
X134020924Y-101104731D01*
X134036767Y-101119015D01*
X134055460Y-101129000D01*
X134070651Y-101131649D01*
X134088030Y-101126874D01*
X134106817Y-101117909D01*
X134131984Y-101100113D01*
X134144063Y-101078011D01*
X134144394Y-101050034D01*
X134139692Y-101031985D01*
X134130912Y-101007650D01*
X134119584Y-100980368D01*
X134107237Y-100953476D01*
X134095399Y-100930314D01*
X134085600Y-100914219D01*
X134079576Y-100908516D01*
X134070335Y-100911410D01*
X134051828Y-100919063D01*
X134027737Y-100929766D01*
X134001743Y-100941811D01*
X133977528Y-100953490D01*
X133958774Y-100963095D01*
X133949163Y-100968919D01*
X133948955Y-100969113D01*
X133858813Y-100969113D01*
X133857089Y-100965469D01*
X133853044Y-100956947D01*
G37*
G36*
X134865240Y-99596427D02*
G01*
X134866009Y-99610682D01*
X134866013Y-99613740D01*
X134869265Y-99648481D01*
X134878580Y-99694282D01*
X134893328Y-99749370D01*
X134912880Y-99811973D01*
X134936606Y-99880316D01*
X134963876Y-99952628D01*
X134994061Y-100027136D01*
X135026531Y-100102066D01*
X135060657Y-100175645D01*
X135078513Y-100212116D01*
X135097072Y-100250480D01*
X135116109Y-100291812D01*
X135132936Y-100330185D01*
X135141588Y-100351172D01*
X135167808Y-100409405D01*
X135202785Y-100475066D01*
X135244783Y-100545615D01*
X135292066Y-100618513D01*
X135342899Y-100691221D01*
X135395545Y-100761199D01*
X135448268Y-100825907D01*
X135499331Y-100882806D01*
X135518271Y-100902182D01*
X135573881Y-100957494D01*
X135530848Y-100940009D01*
X135477441Y-100920901D01*
X135425323Y-100908258D01*
X135369517Y-100901192D01*
X135305046Y-100898814D01*
X135300192Y-100898800D01*
X135197635Y-100904581D01*
X135096596Y-100921644D01*
X135000346Y-100949251D01*
X134913850Y-100985812D01*
X134888873Y-100998199D01*
X134874378Y-101004452D01*
X134867954Y-101005007D01*
X134867191Y-101000303D01*
X134868764Y-100994002D01*
X134882771Y-100934774D01*
X134891199Y-100874179D01*
X134894720Y-100806811D01*
X134894920Y-100783078D01*
X134893204Y-100717281D01*
X134887775Y-100652616D01*
X134878148Y-100586676D01*
X134863840Y-100517052D01*
X134844369Y-100441335D01*
X134819249Y-100357117D01*
X134793689Y-100278807D01*
X134778360Y-100231173D01*
X134764489Y-100184165D01*
X134753064Y-100141403D01*
X134745076Y-100106502D01*
X134742403Y-100091260D01*
X134737648Y-100037004D01*
X134737098Y-99975485D01*
X134740475Y-99912144D01*
X134747500Y-99852423D01*
X134757084Y-99804818D01*
X134767071Y-99772565D01*
X134780979Y-99735814D01*
X134797279Y-99697843D01*
X134814442Y-99661925D01*
X134830939Y-99631338D01*
X134845241Y-99609355D01*
X134851761Y-99601989D01*
X134861346Y-99594235D01*
X134865240Y-99596427D01*
G37*
G36*
X138862220Y-99491668D02*
G01*
X138880102Y-99506480D01*
X138897142Y-99521813D01*
X138986608Y-99599108D01*
X139083508Y-99672709D01*
X139185179Y-99740989D01*
X139288961Y-99802317D01*
X139392191Y-99855065D01*
X139492207Y-99897603D01*
X139537143Y-99913539D01*
X139570086Y-99924415D01*
X139597592Y-99933509D01*
X139616998Y-99939940D01*
X139625642Y-99942827D01*
X139625830Y-99942893D01*
X139625751Y-99950008D01*
X139623218Y-99968459D01*
X139618759Y-99995423D01*
X139612899Y-100028074D01*
X139606165Y-100063586D01*
X139599085Y-100099135D01*
X139592186Y-100131895D01*
X139585994Y-100159042D01*
X139584104Y-100166642D01*
X139573710Y-100200438D01*
X139558973Y-100239953D01*
X139542548Y-100278238D01*
X139537090Y-100289662D01*
X139513615Y-100341640D01*
X139496733Y-100390814D01*
X139484808Y-100442925D01*
X139476269Y-100503137D01*
X139472975Y-100544497D01*
X139470900Y-100596212D01*
X139470039Y-100654221D01*
X139470387Y-100714457D01*
X139471937Y-100772858D01*
X139474685Y-100825358D01*
X139476728Y-100850488D01*
X139480432Y-100890063D01*
X139481805Y-100916916D01*
X139479431Y-100931572D01*
X139471890Y-100934559D01*
X139457767Y-100926402D01*
X139435643Y-100907628D01*
X139404100Y-100878764D01*
X139403086Y-100877832D01*
X139313926Y-100791591D01*
X139230104Y-100701859D01*
X139153094Y-100610504D01*
X139084370Y-100519395D01*
X139025405Y-100430402D01*
X138977673Y-100345391D01*
X138968556Y-100326844D01*
X138951989Y-100291285D01*
X138938527Y-100259545D01*
X138927824Y-100229513D01*
X138919535Y-100199081D01*
X138913316Y-100166137D01*
X138908820Y-100128573D01*
X138905704Y-100084278D01*
X138903620Y-100031143D01*
X138902226Y-99967057D01*
X138901505Y-99916984D01*
X138899968Y-99833814D01*
X138897483Y-99763076D01*
X138893802Y-99702742D01*
X138888674Y-99650789D01*
X138881849Y-99605190D01*
X138873078Y-99563919D01*
X138862110Y-99524953D01*
X138848695Y-99486264D01*
X138848171Y-99484873D01*
X138850936Y-99483983D01*
X138862220Y-99491668D01*
G37*
G36*
X134100864Y-99941590D02*
G01*
X134105524Y-99958616D01*
X134110087Y-99980788D01*
X134118354Y-100026500D01*
X134032339Y-100103121D01*
X134003585Y-100129366D01*
X133979639Y-100152440D01*
X133962191Y-100170614D01*
X133952929Y-100182161D01*
X133952075Y-100185272D01*
X133960508Y-100189762D01*
X133979923Y-100198463D01*
X134007830Y-100210304D01*
X134041734Y-100224218D01*
X134060067Y-100231583D01*
X134162307Y-100272363D01*
X134167066Y-100308237D01*
X134170660Y-100331409D01*
X134174390Y-100349567D01*
X134175956Y-100354878D01*
X134176463Y-100363867D01*
X134173886Y-100365096D01*
X134165656Y-100362320D01*
X134146027Y-100354848D01*
X134116997Y-100343466D01*
X134080560Y-100328959D01*
X134038714Y-100312113D01*
X134017100Y-100303350D01*
X133866516Y-100242153D01*
X133761708Y-100260480D01*
X133724624Y-100266934D01*
X133692934Y-100272393D01*
X133669210Y-100276417D01*
X133656026Y-100278567D01*
X133654225Y-100278807D01*
X133651601Y-100272409D01*
X133648148Y-100256306D01*
X133646766Y-100248052D01*
X133642996Y-100225953D01*
X133639470Y-100208631D01*
X133638663Y-100205443D01*
X133639295Y-100200068D01*
X133645881Y-100195321D01*
X133660487Y-100190533D01*
X133685180Y-100185036D01*
X133722025Y-100178162D01*
X133724220Y-100177771D01*
X133760284Y-100171136D01*
X133792764Y-100164767D01*
X133818100Y-100159388D01*
X133832724Y-100155723D01*
X133843745Y-100149197D01*
X133863603Y-100134419D01*
X133890444Y-100112892D01*
X133922414Y-100086118D01*
X133957658Y-100055601D01*
X133972704Y-100042284D01*
X134007725Y-100011256D01*
X134039130Y-99983750D01*
X134065318Y-99961143D01*
X134084691Y-99944810D01*
X134095649Y-99936124D01*
X134097439Y-99935075D01*
X134100864Y-99941590D01*
G37*
G36*
X135493164Y-100237800D02*
G01*
X135494030Y-100246388D01*
X135493164Y-100247449D01*
X135488862Y-100246456D01*
X135488340Y-100242625D01*
X135490987Y-100236668D01*
X135493164Y-100237800D01*
G37*
G36*
X140112231Y-99905623D02*
G01*
X140140811Y-99909578D01*
X140178292Y-99914628D01*
X140222629Y-99920509D01*
X140271777Y-99926959D01*
X140323692Y-99933715D01*
X140376331Y-99940514D01*
X140427649Y-99947094D01*
X140475603Y-99953192D01*
X140518147Y-99958546D01*
X140553238Y-99962891D01*
X140578831Y-99965967D01*
X140592884Y-99967509D01*
X140594756Y-99967639D01*
X140599634Y-99972512D01*
X140600875Y-99988320D01*
X140599463Y-100009249D01*
X140596556Y-100032639D01*
X140593218Y-100049808D01*
X140590940Y-100055793D01*
X140582537Y-100056646D01*
X140562458Y-100055668D01*
X140533354Y-100053072D01*
X140497877Y-100049071D01*
X140481502Y-100046995D01*
X140434084Y-100040789D01*
X140382248Y-100034003D01*
X140332222Y-100027452D01*
X140290232Y-100021953D01*
X140289736Y-100021888D01*
X140253108Y-100017034D01*
X140219270Y-100012448D01*
X140192203Y-100008676D01*
X140176870Y-100006420D01*
X140150842Y-100002326D01*
X140146142Y-100051920D01*
X140143339Y-100079347D01*
X140140607Y-100102590D01*
X140138640Y-100115986D01*
X140136426Y-100130605D01*
X140133474Y-100154139D01*
X140130856Y-100177496D01*
X140127016Y-100211390D01*
X140122552Y-100233144D01*
X140115109Y-100244991D01*
X140102334Y-100249160D01*
X140081874Y-100247882D01*
X140059978Y-100244678D01*
X140044066Y-100238233D01*
X140040078Y-100229480D01*
X140040996Y-100218711D01*
X140043549Y-100196072D01*
X140047437Y-100164038D01*
X140052359Y-100125081D01*
X140058016Y-100081675D01*
X140058094Y-100081087D01*
X140063890Y-100036789D01*
X140069094Y-99996103D01*
X140073371Y-99961729D01*
X140076384Y-99936371D01*
X140077783Y-99922929D01*
X140079522Y-99909624D01*
X140084739Y-99903891D01*
X140097497Y-99903688D01*
X140112231Y-99905623D01*
G37*
G36*
X135215671Y-98339087D02*
G01*
X135219292Y-98362489D01*
X135222640Y-98396661D01*
X135225619Y-98439751D01*
X135228133Y-98489908D01*
X135230088Y-98545280D01*
X135231386Y-98604015D01*
X135231931Y-98664263D01*
X135231764Y-98712112D01*
X135229491Y-98819738D01*
X135224614Y-98915077D01*
X135216759Y-99000142D01*
X135205557Y-99076945D01*
X135190634Y-99147498D01*
X135171620Y-99213815D01*
X135148142Y-99277908D01*
X135119829Y-99341790D01*
X135112845Y-99356157D01*
X135087470Y-99408825D01*
X135068404Y-99451882D01*
X135054722Y-99488252D01*
X135045499Y-99520860D01*
X135039809Y-99552629D01*
X135036726Y-99586484D01*
X135036125Y-99598579D01*
X135036412Y-99659912D01*
X135043365Y-99717618D01*
X135057899Y-99777950D01*
X135066234Y-99804818D01*
X135085645Y-99856765D01*
X135110444Y-99911848D01*
X135138655Y-99966406D01*
X135168303Y-100016779D01*
X135197413Y-100059309D01*
X135215624Y-100081585D01*
X135226223Y-100095372D01*
X135225685Y-100100600D01*
X135214495Y-100097337D01*
X135193138Y-100085650D01*
X135178377Y-100076397D01*
X135107400Y-100022041D01*
X135045934Y-99957187D01*
X134994324Y-99882543D01*
X134952916Y-99798812D01*
X134922058Y-99706700D01*
X134902094Y-99606913D01*
X134893372Y-99500157D01*
X134893256Y-99495523D01*
X134891847Y-99459200D01*
X134889579Y-99431600D01*
X134886675Y-99414789D01*
X134884100Y-99410494D01*
X134876471Y-99415382D01*
X134861183Y-99428710D01*
X134840513Y-99448394D01*
X134818622Y-99470407D01*
X134785422Y-99506611D01*
X134759569Y-99540327D01*
X134736711Y-99577593D01*
X134723492Y-99602473D01*
X134679153Y-99704582D01*
X134646893Y-99814084D01*
X134626642Y-99931280D01*
X134618468Y-100049738D01*
X134617500Y-100084229D01*
X134616380Y-100112782D01*
X134615236Y-100132673D01*
X134614200Y-100141180D01*
X134614077Y-100141308D01*
X134610245Y-100135209D01*
X134601691Y-100118739D01*
X134589809Y-100094643D01*
X134580041Y-100074250D01*
X134538499Y-99974242D01*
X134508763Y-99875171D01*
X134490918Y-99778191D01*
X134485055Y-99684457D01*
X134491260Y-99595121D01*
X134509622Y-99511337D01*
X134532390Y-99450695D01*
X134549154Y-99416319D01*
X134567718Y-99384168D01*
X134589806Y-99351936D01*
X134617146Y-99317317D01*
X134651461Y-99278008D01*
X134694479Y-99231703D01*
X134703135Y-99222598D01*
X134820276Y-99089715D01*
X134926539Y-98948490D01*
X135020914Y-98800382D01*
X135102394Y-98646847D01*
X135104059Y-98643365D01*
X135122907Y-98601318D01*
X135142142Y-98553928D01*
X135160625Y-98504462D01*
X135177216Y-98456187D01*
X135190775Y-98412371D01*
X135200162Y-98376282D01*
X135203511Y-98358334D01*
X135206893Y-98339442D01*
X135210341Y-98329036D01*
X135211875Y-98328306D01*
X135215671Y-98339087D01*
G37*
G36*
X138504169Y-98733183D02*
G01*
X138519736Y-98740681D01*
X138527310Y-98744499D01*
X138569627Y-98763433D01*
X138623156Y-98783234D01*
X138684749Y-98802983D01*
X138751254Y-98821757D01*
X138819524Y-98838637D01*
X138886408Y-98852701D01*
X138914807Y-98857797D01*
X138958317Y-98863302D01*
X139013224Y-98867403D01*
X139076520Y-98870109D01*
X139145201Y-98871431D01*
X139216257Y-98871380D01*
X139286684Y-98869967D01*
X139353474Y-98867203D01*
X139413621Y-98863099D01*
X139464118Y-98857664D01*
X139476887Y-98855784D01*
X139503468Y-98851551D01*
X139518143Y-98901233D01*
X139549426Y-99012740D01*
X139574199Y-99113983D01*
X139592912Y-99207386D01*
X139606017Y-99295375D01*
X139613965Y-99380372D01*
X139616377Y-99428879D01*
X139619129Y-99476493D01*
X139623680Y-99515764D01*
X139629687Y-99543905D01*
X139630937Y-99547687D01*
X139657990Y-99605640D01*
X139698188Y-99666298D01*
X139750680Y-99728680D01*
X139814616Y-99791805D01*
X139889145Y-99854692D01*
X139913439Y-99873364D01*
X139936492Y-99890764D01*
X139954804Y-99904683D01*
X139965545Y-99912964D01*
X139967110Y-99914235D01*
X139964321Y-99916362D01*
X139951336Y-99916303D01*
X139932210Y-99914403D01*
X139910997Y-99911010D01*
X139898967Y-99908405D01*
X139796303Y-99882641D01*
X139705729Y-99858396D01*
X139625042Y-99834909D01*
X139552037Y-99811421D01*
X139484513Y-99787170D01*
X139420266Y-99761395D01*
X139357094Y-99733335D01*
X139292793Y-99702230D01*
X139273012Y-99692221D01*
X139199402Y-99652207D01*
X139127235Y-99608389D01*
X139058751Y-99562383D01*
X138996191Y-99515808D01*
X138941793Y-99470281D01*
X138897798Y-99427419D01*
X138882810Y-99410420D01*
X138835749Y-99346770D01*
X138799781Y-99282761D01*
X138776161Y-99220672D01*
X138774118Y-99213078D01*
X138753772Y-99148683D01*
X138723237Y-99074591D01*
X138682689Y-98991214D01*
X138671349Y-98969611D01*
X138634680Y-98904387D01*
X138599596Y-98850175D01*
X138564031Y-98803980D01*
X138534854Y-98771821D01*
X138516415Y-98752572D01*
X138503030Y-98738043D01*
X138496917Y-98730661D01*
X138496834Y-98730203D01*
X138504169Y-98733183D01*
G37*
G36*
X133842043Y-99168589D02*
G01*
X133898893Y-99171354D01*
X133945229Y-99179518D01*
X133984335Y-99194115D01*
X134019494Y-99216174D01*
X134035506Y-99229339D01*
X134069841Y-99268870D01*
X134093550Y-99316459D01*
X134106415Y-99370108D01*
X134108221Y-99427819D01*
X134098748Y-99487594D01*
X134077781Y-99547437D01*
X134071517Y-99560588D01*
X134052496Y-99598579D01*
X134006743Y-99598579D01*
X133978935Y-99597489D01*
X133963047Y-99593876D01*
X133956918Y-99587965D01*
X133958966Y-99576598D01*
X133968955Y-99558837D01*
X133978701Y-99545798D01*
X134006569Y-99505322D01*
X134023526Y-99463375D01*
X134030130Y-99431626D01*
X134030482Y-99386334D01*
X134018083Y-99346243D01*
X133994035Y-99312363D01*
X133959438Y-99285700D01*
X133915394Y-99267262D01*
X133863004Y-99258059D01*
X133839550Y-99257188D01*
X133786457Y-99262615D01*
X133742826Y-99278575D01*
X133709179Y-99304584D01*
X133686037Y-99340161D01*
X133673920Y-99384824D01*
X133672145Y-99412162D01*
X133675362Y-99447325D01*
X133684165Y-99484024D01*
X133696907Y-99516965D01*
X133711942Y-99540855D01*
X133712278Y-99541230D01*
X133722120Y-99557054D01*
X133718711Y-99567644D01*
X133702415Y-99572672D01*
X133677834Y-99572247D01*
X133650374Y-99569323D01*
X133633449Y-99565172D01*
X133623192Y-99557121D01*
X133615736Y-99542494D01*
X133609420Y-99524921D01*
X133600488Y-99487714D01*
X133595901Y-99443136D01*
X133595586Y-99395922D01*
X133599471Y-99350803D01*
X133607481Y-99312514D01*
X133612947Y-99297551D01*
X133638590Y-99255619D01*
X133674566Y-99218184D01*
X133716739Y-99189364D01*
X133726260Y-99184671D01*
X133744951Y-99177040D01*
X133763552Y-99172186D01*
X133786054Y-99169553D01*
X133816449Y-99168587D01*
X133842043Y-99168589D01*
G37*
G36*
X140203036Y-99222262D02*
G01*
X140200254Y-99214184D01*
X140191629Y-99210636D01*
X140172252Y-99204798D01*
X140145469Y-99197640D01*
X140128655Y-99193456D01*
X140096975Y-99185661D01*
X140076475Y-99178911D01*
X140064390Y-99170377D01*
X140057952Y-99157234D01*
X140054398Y-99136654D01*
X140052011Y-99115108D01*
X140048574Y-99083917D01*
X140071463Y-99088862D01*
X140084863Y-99092033D01*
X140109985Y-99098233D01*
X140144534Y-99106887D01*
X140186217Y-99117418D01*
X140232738Y-99129249D01*
X140260790Y-99136418D01*
X140313239Y-99149831D01*
X140366050Y-99163309D01*
X140415931Y-99176015D01*
X140459587Y-99187110D01*
X140493725Y-99195755D01*
X140503212Y-99198146D01*
X140535103Y-99206689D01*
X140562050Y-99214871D01*
X140580750Y-99221633D01*
X140587447Y-99225201D01*
X140592319Y-99236124D01*
X140596931Y-99256848D01*
X140600057Y-99280780D01*
X140604415Y-99328422D01*
X140515822Y-99370694D01*
X140437583Y-99408042D01*
X140371127Y-99439804D01*
X140315158Y-99466601D01*
X140268386Y-99489054D01*
X140229516Y-99507784D01*
X140197255Y-99523411D01*
X140170311Y-99536558D01*
X140163795Y-99539755D01*
X140137229Y-99552713D01*
X140116108Y-99562836D01*
X140103390Y-99568717D01*
X140101052Y-99569633D01*
X140099369Y-99563058D01*
X140096831Y-99545839D01*
X140094049Y-99522268D01*
X140091844Y-99497803D01*
X140091003Y-99479800D01*
X140091664Y-99472323D01*
X140098977Y-99468380D01*
X140116479Y-99459862D01*
X140141192Y-99448200D01*
X140158708Y-99440075D01*
X140223065Y-99410407D01*
X140218420Y-99361573D01*
X140215084Y-99326476D01*
X140211450Y-99288233D01*
X140209310Y-99265702D01*
X140206945Y-99245815D01*
X140287988Y-99245815D01*
X140289228Y-99253038D01*
X140291643Y-99268556D01*
X140294595Y-99292945D01*
X140297178Y-99318166D01*
X140300265Y-99342612D01*
X140304007Y-99360131D01*
X140307607Y-99367009D01*
X140307679Y-99367012D01*
X140316092Y-99364099D01*
X140334984Y-99356118D01*
X140361759Y-99344207D01*
X140393820Y-99329503D01*
X140402114Y-99325637D01*
X140490612Y-99284262D01*
X140397411Y-99260701D01*
X140355442Y-99250151D01*
X140325560Y-99243013D01*
X140305819Y-99239148D01*
X140294273Y-99238418D01*
X140288978Y-99240687D01*
X140287988Y-99245815D01*
X140206945Y-99245815D01*
X140206361Y-99240906D01*
X140203036Y-99222262D01*
G37*
G36*
X134565690Y-98662239D02*
G01*
X134629338Y-98702517D01*
X134694251Y-98736535D01*
X134758144Y-98763444D01*
X134818728Y-98782392D01*
X134873718Y-98792527D01*
X134917831Y-98793298D01*
X134959570Y-98789513D01*
X134938899Y-98830462D01*
X134894796Y-98902599D01*
X134837912Y-98970444D01*
X134769679Y-99032433D01*
X134721112Y-99068046D01*
X134692430Y-99088754D01*
X134664840Y-99111020D01*
X134643309Y-99130778D01*
X134639348Y-99134967D01*
X134602906Y-99181336D01*
X134567439Y-99237451D01*
X134535465Y-99298666D01*
X134509501Y-99360335D01*
X134497587Y-99396551D01*
X134490423Y-99420607D01*
X134485872Y-99432275D01*
X134482744Y-99433137D01*
X134479854Y-99424772D01*
X134478996Y-99421286D01*
X134473435Y-99398405D01*
X134467421Y-99374026D01*
X134462465Y-99351224D01*
X134456129Y-99317909D01*
X134449054Y-99277898D01*
X134441879Y-99235010D01*
X134435244Y-99193061D01*
X134429790Y-99155871D01*
X134426373Y-99129208D01*
X134423346Y-99091479D01*
X134421580Y-99045732D01*
X134421005Y-98995150D01*
X134421553Y-98942916D01*
X134423156Y-98892215D01*
X134425745Y-98846230D01*
X134429252Y-98808144D01*
X134433608Y-98781141D01*
X134433886Y-98779978D01*
X134445761Y-98739683D01*
X134460940Y-98699860D01*
X134477504Y-98664988D01*
X134493534Y-98639547D01*
X134494633Y-98638178D01*
X134507798Y-98622136D01*
X134565690Y-98662239D01*
G37*
G36*
X139902458Y-98394276D02*
G01*
X139939444Y-98380891D01*
X139982511Y-98365407D01*
X140029804Y-98348483D01*
X140079469Y-98330780D01*
X140129650Y-98312955D01*
X140178494Y-98295669D01*
X140224145Y-98279579D01*
X140264751Y-98265347D01*
X140298455Y-98253629D01*
X140323405Y-98245087D01*
X140337744Y-98240378D01*
X140340494Y-98239673D01*
X140345773Y-98250016D01*
X140354077Y-98271238D01*
X140364426Y-98300312D01*
X140375837Y-98334209D01*
X140387331Y-98369901D01*
X140397927Y-98404360D01*
X140406643Y-98434559D01*
X140412498Y-98457468D01*
X140414400Y-98467821D01*
X140412715Y-98513693D01*
X140398588Y-98554179D01*
X140373550Y-98587656D01*
X140339133Y-98612505D01*
X140296868Y-98627105D01*
X140260790Y-98630353D01*
X140215339Y-98625013D01*
X140179495Y-98609660D01*
X140164935Y-98598230D01*
X140152813Y-98588499D01*
X140145910Y-98585960D01*
X140145812Y-98586048D01*
X140141543Y-98593033D01*
X140131380Y-98610649D01*
X140116469Y-98636881D01*
X140097954Y-98669715D01*
X140076981Y-98707136D01*
X140076222Y-98708494D01*
X140051238Y-98753102D01*
X140032324Y-98786490D01*
X140018541Y-98810102D01*
X140008954Y-98825382D01*
X140002625Y-98833774D01*
X139998617Y-98836722D01*
X139995993Y-98835670D01*
X139994826Y-98833953D01*
X139990978Y-98824464D01*
X139984145Y-98805256D01*
X139975768Y-98780388D01*
X139975323Y-98779034D01*
X139959287Y-98730173D01*
X140024193Y-98617715D01*
X140089100Y-98505256D01*
X140077253Y-98474045D01*
X140069465Y-98454911D01*
X140063407Y-98442452D01*
X140061787Y-98440258D01*
X140054002Y-98441577D01*
X140035269Y-98447013D01*
X140008243Y-98455736D01*
X139975578Y-98466917D01*
X139969111Y-98469196D01*
X139933818Y-98481058D01*
X139904671Y-98489638D01*
X139884064Y-98494303D01*
X139874394Y-98494421D01*
X139874190Y-98494245D01*
X139869261Y-98485041D01*
X139862363Y-98468052D01*
X139855146Y-98447986D01*
X139849257Y-98429550D01*
X139846345Y-98417452D01*
X139846523Y-98415250D01*
X139854143Y-98412115D01*
X139864970Y-98408062D01*
X140142713Y-98408062D01*
X140143692Y-98415605D01*
X140148732Y-98432850D01*
X140156278Y-98454768D01*
X140172828Y-98489315D01*
X140193820Y-98517026D01*
X140216897Y-98535429D01*
X140239565Y-98542055D01*
X140258866Y-98539223D01*
X140280810Y-98532367D01*
X140281786Y-98531965D01*
X140307669Y-98515427D01*
X140324506Y-98492868D01*
X140329536Y-98471470D01*
X140327297Y-98456428D01*
X140321556Y-98433682D01*
X140313777Y-98407871D01*
X140305425Y-98383632D01*
X140297965Y-98365602D01*
X140294076Y-98359179D01*
X140286157Y-98359716D01*
X140268129Y-98364122D01*
X140243468Y-98371275D01*
X140215648Y-98380051D01*
X140188146Y-98389329D01*
X140164436Y-98397987D01*
X140147996Y-98404901D01*
X140142713Y-98408062D01*
X139864970Y-98408062D01*
X139873406Y-98404904D01*
X139902458Y-98394276D01*
G37*
G36*
X138946880Y-97931117D02*
G01*
X139030078Y-98020401D01*
X139101639Y-98106053D01*
X139161082Y-98187443D01*
X139207930Y-98263944D01*
X139223347Y-98293672D01*
X139244386Y-98334437D01*
X139263723Y-98366078D01*
X139284445Y-98393126D01*
X139308952Y-98419429D01*
X139365919Y-98469495D01*
X139437076Y-98519694D01*
X139522141Y-98569844D01*
X139602271Y-98610895D01*
X139643423Y-98630301D01*
X139687095Y-98650055D01*
X139731001Y-98669210D01*
X139772854Y-98686820D01*
X139810367Y-98701939D01*
X139841253Y-98713621D01*
X139863224Y-98720918D01*
X139873094Y-98722967D01*
X139880565Y-98727217D01*
X139880875Y-98728862D01*
X139874092Y-98732433D01*
X139855240Y-98737703D01*
X139826567Y-98744245D01*
X139790320Y-98751630D01*
X139748748Y-98759431D01*
X139704096Y-98767221D01*
X139658613Y-98774573D01*
X139614546Y-98781059D01*
X139587798Y-98784599D01*
X139551252Y-98789214D01*
X139517588Y-98793531D01*
X139490755Y-98797038D01*
X139475633Y-98799092D01*
X139459979Y-98800360D01*
X139432382Y-98801616D01*
X139395374Y-98802821D01*
X139351485Y-98803935D01*
X139303245Y-98804920D01*
X139253186Y-98805735D01*
X139203837Y-98806341D01*
X139157730Y-98806700D01*
X139117394Y-98806771D01*
X139085362Y-98806515D01*
X139064163Y-98805894D01*
X139059536Y-98805560D01*
X138970495Y-98795786D01*
X138893133Y-98785179D01*
X138824663Y-98773230D01*
X138762295Y-98759428D01*
X138703240Y-98743262D01*
X138680493Y-98736203D01*
X138582761Y-98699707D01*
X138491103Y-98655147D01*
X138408056Y-98603933D01*
X138336160Y-98547479D01*
X138328142Y-98540179D01*
X138300298Y-98516892D01*
X138261915Y-98488397D01*
X138215301Y-98456142D01*
X138162767Y-98421578D01*
X138106624Y-98386153D01*
X138049181Y-98351318D01*
X137992748Y-98318521D01*
X137939636Y-98289212D01*
X137892155Y-98264841D01*
X137880021Y-98259022D01*
X137852126Y-98245412D01*
X137837281Y-98236147D01*
X137835234Y-98229872D01*
X137845729Y-98225234D01*
X137868515Y-98220880D01*
X137872756Y-98220203D01*
X137906905Y-98213907D01*
X137951573Y-98204353D01*
X138003398Y-98192368D01*
X138059015Y-98178782D01*
X138115059Y-98164422D01*
X138168169Y-98150119D01*
X138214978Y-98136700D01*
X138229256Y-98132364D01*
X138365074Y-98086603D01*
X138487896Y-98037242D01*
X138598873Y-97983728D01*
X138699157Y-97925512D01*
X138783977Y-97866557D01*
X138841294Y-97823114D01*
X138946880Y-97931117D01*
G37*
G36*
X134799811Y-97793579D02*
G01*
X134823037Y-97702931D01*
X134858215Y-97614731D01*
X134862727Y-97605424D01*
X134874080Y-97581356D01*
X134881863Y-97562754D01*
X134884709Y-97552951D01*
X134884533Y-97552303D01*
X134877020Y-97553980D01*
X134863715Y-97564681D01*
X134847147Y-97581587D01*
X134829843Y-97601879D01*
X134814332Y-97622740D01*
X134803142Y-97641349D01*
X134801494Y-97644899D01*
X134792161Y-97664842D01*
X134784593Y-97677921D01*
X134781523Y-97680915D01*
X134779328Y-97674125D01*
X134778411Y-97655396D01*
X134778628Y-97627194D01*
X134779833Y-97591982D01*
X134781878Y-97552226D01*
X134784619Y-97510390D01*
X134787908Y-97468938D01*
X134791600Y-97430335D01*
X134795550Y-97397045D01*
X134799610Y-97371533D01*
X134799966Y-97369747D01*
X134819338Y-97289389D01*
X134843288Y-97219310D01*
X134873642Y-97156135D01*
X134912228Y-97096489D01*
X134960872Y-97036998D01*
X135005555Y-96989949D01*
X135057444Y-96936018D01*
X135099148Y-96887871D01*
X135132342Y-96842997D01*
X135158699Y-96798883D01*
X135179894Y-96753018D01*
X135197601Y-96702890D01*
X135198230Y-96700862D01*
X135214351Y-96629700D01*
X135219285Y-96559069D01*
X135213106Y-96491745D01*
X135195888Y-96430503D01*
X135190657Y-96418190D01*
X135181172Y-96389015D01*
X135177680Y-96359350D01*
X135180277Y-96333773D01*
X135188543Y-96317358D01*
X135208046Y-96307150D01*
X135231495Y-96309423D01*
X135252361Y-96321128D01*
X135267696Y-96335816D01*
X135279160Y-96353933D01*
X135287382Y-96377803D01*
X135292992Y-96409753D01*
X135296618Y-96452110D01*
X135298386Y-96491303D01*
X135298992Y-96558243D01*
X135295238Y-96617330D01*
X135286207Y-96671245D01*
X135270985Y-96722668D01*
X135248657Y-96774281D01*
X135218309Y-96828764D01*
X135179024Y-96888798D01*
X135147670Y-96932883D01*
X135107827Y-96988416D01*
X135076150Y-97034596D01*
X135051583Y-97073225D01*
X135033071Y-97106104D01*
X135019561Y-97135035D01*
X135009997Y-97161822D01*
X135006658Y-97173816D01*
X134999173Y-97212639D01*
X134999485Y-97245255D01*
X135008005Y-97277904D01*
X135014586Y-97294173D01*
X135027039Y-97322710D01*
X135036451Y-97275673D01*
X135051339Y-97219483D01*
X135074290Y-97160966D01*
X135106034Y-97098815D01*
X135147299Y-97031720D01*
X135198813Y-96958375D01*
X135250871Y-96890558D01*
X135277274Y-96859120D01*
X135313266Y-96819126D01*
X135357711Y-96771741D01*
X135409473Y-96718125D01*
X135467416Y-96659442D01*
X135530403Y-96596854D01*
X135597298Y-96531524D01*
X135666965Y-96464614D01*
X135670162Y-96461571D01*
X135731159Y-96400816D01*
X135780474Y-96345457D01*
X135819161Y-96294013D01*
X135848275Y-96245007D01*
X135868869Y-96196959D01*
X135876494Y-96172112D01*
X135884476Y-96133454D01*
X135884922Y-96100536D01*
X135877705Y-96066667D01*
X135874281Y-96056063D01*
X135854405Y-96017805D01*
X135823032Y-95981677D01*
X135783137Y-95949991D01*
X135737695Y-95925060D01*
X135689681Y-95909196D01*
X135683764Y-95907988D01*
X135662409Y-95904986D01*
X135630884Y-95901859D01*
X135593481Y-95898981D01*
X135555523Y-95896778D01*
X135499728Y-95892599D01*
X135456049Y-95885607D01*
X135422284Y-95875125D01*
X135396235Y-95860472D01*
X135376008Y-95841334D01*
X135361099Y-95815734D01*
X135359354Y-95791812D01*
X135369473Y-95770723D01*
X135390157Y-95753622D01*
X135420107Y-95741663D01*
X135458023Y-95735999D01*
X135493669Y-95736819D01*
X135535830Y-95744068D01*
X135586511Y-95758105D01*
X135642295Y-95777533D01*
X135699766Y-95800952D01*
X135755509Y-95826966D01*
X135806107Y-95854176D01*
X135848144Y-95881184D01*
X135850346Y-95882787D01*
X135902222Y-95928023D01*
X135942167Y-95978252D01*
X135969606Y-96032213D01*
X135983962Y-96088643D01*
X135984659Y-96146281D01*
X135981056Y-96169048D01*
X135975331Y-96192204D01*
X135967295Y-96215407D01*
X135955687Y-96241343D01*
X135939248Y-96272696D01*
X135916719Y-96312154D01*
X135903270Y-96334932D01*
X135887941Y-96360746D01*
X135867111Y-96395871D01*
X135842647Y-96437159D01*
X135816414Y-96481461D01*
X135790277Y-96525630D01*
X135789083Y-96527649D01*
X135747622Y-96596052D01*
X135710316Y-96653566D01*
X135675372Y-96702499D01*
X135640995Y-96745156D01*
X135605393Y-96783845D01*
X135566773Y-96820871D01*
X135548369Y-96837224D01*
X135499713Y-96882397D01*
X135462886Y-96923600D01*
X135436636Y-96963054D01*
X135419711Y-97002980D01*
X135410856Y-97045597D01*
X135408739Y-97084683D01*
X135411404Y-97117038D01*
X135418546Y-97154705D01*
X135428878Y-97193128D01*
X135441117Y-97227748D01*
X135453979Y-97254008D01*
X135458168Y-97260098D01*
X135471377Y-97277086D01*
X135512081Y-97251048D01*
X135566286Y-97220617D01*
X135629108Y-97192329D01*
X135694697Y-97168681D01*
X135727143Y-97159261D01*
X135771669Y-97150419D01*
X135823699Y-97144687D01*
X135878586Y-97142189D01*
X135931678Y-97143048D01*
X135978327Y-97147389D01*
X136002129Y-97151921D01*
X136076742Y-97176816D01*
X136150898Y-97213654D01*
X136221164Y-97260211D01*
X136284108Y-97314266D01*
X136328197Y-97363062D01*
X136348703Y-97388941D01*
X136254532Y-97356981D01*
X136157294Y-97327992D01*
X136064880Y-97308452D01*
X135979597Y-97298824D01*
X135960936Y-97298052D01*
X135917438Y-97299366D01*
X135872120Y-97304892D01*
X135829841Y-97313759D01*
X135795461Y-97325094D01*
X135786409Y-97329368D01*
X135776216Y-97335171D01*
X135775285Y-97338036D01*
X135785378Y-97338710D01*
X135806744Y-97338003D01*
X135848118Y-97338774D01*
X135887396Y-97345476D01*
X135929231Y-97359232D01*
X135970896Y-97377603D01*
X136006085Y-97396425D01*
X136045489Y-97420738D01*
X136085250Y-97447854D01*
X136121512Y-97475088D01*
X136150417Y-97499754D01*
X136160001Y-97509304D01*
X136167207Y-97517446D01*
X136168600Y-97521301D01*
X136162348Y-97520586D01*
X136146619Y-97515021D01*
X136119581Y-97504324D01*
X136114625Y-97502335D01*
X136033891Y-97473194D01*
X135959505Y-97453612D01*
X135887727Y-97442771D01*
X135828454Y-97439832D01*
X135770626Y-97441374D01*
X135722001Y-97447622D01*
X135677786Y-97459593D01*
X135633189Y-97478302D01*
X135622912Y-97483393D01*
X135584771Y-97508286D01*
X135547112Y-97542698D01*
X135512622Y-97583213D01*
X135483992Y-97626414D01*
X135463911Y-97668883D01*
X135456702Y-97694559D01*
X135455924Y-97722480D01*
X135461588Y-97753325D01*
X135472109Y-97780452D01*
X135479967Y-97792041D01*
X135505845Y-97812097D01*
X135541990Y-97827627D01*
X135584494Y-97837020D01*
X135590816Y-97837763D01*
X135635578Y-97842442D01*
X135616938Y-97817761D01*
X135594543Y-97777398D01*
X135585008Y-97734769D01*
X135587811Y-97692384D01*
X135602433Y-97652751D01*
X135628351Y-97618376D01*
X135663727Y-97592465D01*
X135692875Y-97582386D01*
X135731559Y-97576664D01*
X135775522Y-97575280D01*
X135820503Y-97578218D01*
X135862244Y-97585460D01*
X135888050Y-97593388D01*
X135943827Y-97620572D01*
X135996330Y-97656453D01*
X136040620Y-97697520D01*
X136050320Y-97708783D01*
X136083642Y-97749662D01*
X136033840Y-97755185D01*
X135963165Y-97768684D01*
X135902564Y-97792522D01*
X135851753Y-97826930D01*
X135810446Y-97872140D01*
X135778359Y-97928384D01*
X135760272Y-97977610D01*
X135748947Y-98032758D01*
X135744167Y-98098464D01*
X135745718Y-98172491D01*
X135753384Y-98252601D01*
X135766950Y-98336557D01*
X135786201Y-98422119D01*
X135810922Y-98507052D01*
X135811302Y-98508216D01*
X135817691Y-98529204D01*
X135818836Y-98541923D01*
X135814164Y-98551804D01*
X135805694Y-98561487D01*
X135783606Y-98581366D01*
X135752700Y-98604128D01*
X135717412Y-98626837D01*
X135682176Y-98646555D01*
X135664354Y-98655093D01*
X135606697Y-98675433D01*
X135547665Y-98686925D01*
X135491863Y-98688824D01*
X135470249Y-98686542D01*
X135441167Y-98680632D01*
X135411925Y-98672617D01*
X135403655Y-98669817D01*
X135386180Y-98662116D01*
X135363742Y-98650471D01*
X135339781Y-98636915D01*
X135317738Y-98623481D01*
X135301056Y-98612202D01*
X135293174Y-98605110D01*
X135292955Y-98604417D01*
X135299170Y-98603989D01*
X135314635Y-98606565D01*
X135320092Y-98607773D01*
X135376114Y-98614693D01*
X135433427Y-98610842D01*
X135488406Y-98597038D01*
X135537425Y-98574099D01*
X135567479Y-98551951D01*
X135584430Y-98534248D01*
X135602063Y-98511897D01*
X135618411Y-98488005D01*
X135631505Y-98465677D01*
X135639378Y-98448019D01*
X135640062Y-98438136D01*
X135639794Y-98437821D01*
X135631304Y-98437568D01*
X135613744Y-98441072D01*
X135600826Y-98444628D01*
X135549275Y-98453812D01*
X135500945Y-98449878D01*
X135457451Y-98433102D01*
X135432704Y-98415589D01*
X135405417Y-98392001D01*
X135443362Y-98383863D01*
X135470763Y-98376995D01*
X135496706Y-98368921D01*
X135506096Y-98365368D01*
X135534607Y-98348755D01*
X135563688Y-98324179D01*
X135588961Y-98295990D01*
X135606045Y-98268533D01*
X135607727Y-98264495D01*
X135612912Y-98249787D01*
X135615079Y-98237407D01*
X135613782Y-98223559D01*
X135608575Y-98204445D01*
X135599012Y-98176269D01*
X135596527Y-98169182D01*
X135567332Y-98094999D01*
X135534882Y-98028643D01*
X135500107Y-97971520D01*
X135463933Y-97925036D01*
X135427291Y-97890599D01*
X135402013Y-97874491D01*
X135367235Y-97859893D01*
X135337768Y-97855332D01*
X135308915Y-97860390D01*
X135296264Y-97865108D01*
X135278529Y-97875525D01*
X135255246Y-97893103D01*
X135230192Y-97914510D01*
X135207141Y-97936414D01*
X135189870Y-97955484D01*
X135183713Y-97964437D01*
X135180535Y-97972053D01*
X135184606Y-97973103D01*
X135198673Y-97967881D01*
X135202193Y-97966417D01*
X135239831Y-97957012D01*
X135276941Y-97959066D01*
X135305619Y-97970295D01*
X135320713Y-97980002D01*
X135328739Y-97986146D01*
X135329137Y-97986783D01*
X135322606Y-97988128D01*
X135305830Y-97989281D01*
X135291146Y-97989775D01*
X135241354Y-97997885D01*
X135195650Y-98019537D01*
X135154971Y-98054146D01*
X135125248Y-98093002D01*
X135111442Y-98115775D01*
X135106180Y-98128172D01*
X135109536Y-98131547D01*
X135121583Y-98127259D01*
X135126951Y-98124656D01*
X135160872Y-98112714D01*
X135194226Y-98109654D01*
X135222143Y-98115864D01*
X135224238Y-98116899D01*
X135244553Y-98127543D01*
X135216290Y-98132750D01*
X135163444Y-98149712D01*
X135113809Y-98180023D01*
X135068355Y-98222734D01*
X135028048Y-98276893D01*
X134993859Y-98341552D01*
X134987148Y-98357355D01*
X134975602Y-98383754D01*
X134964458Y-98405977D01*
X134955978Y-98419538D01*
X134955445Y-98420156D01*
X134948003Y-98436820D01*
X134953930Y-98456197D01*
X134973458Y-98478929D01*
X134978360Y-98483361D01*
X135012599Y-98504315D01*
X135051385Y-98511905D01*
X135086424Y-98507531D01*
X135115662Y-98499773D01*
X135098695Y-98513583D01*
X135066768Y-98530810D01*
X135025610Y-98539234D01*
X134977543Y-98538769D01*
X134924889Y-98529330D01*
X134897088Y-98521056D01*
X134855600Y-98507050D01*
X134828217Y-98531789D01*
X134809573Y-98546180D01*
X134792787Y-98555101D01*
X134786382Y-98556528D01*
X134774798Y-98559011D01*
X134773684Y-98567328D01*
X134783302Y-98582779D01*
X134794407Y-98596098D01*
X134824706Y-98620068D01*
X134864476Y-98635254D01*
X134911422Y-98641294D01*
X134963243Y-98637826D01*
X135003175Y-98628985D01*
X135022915Y-98624390D01*
X135029466Y-98625663D01*
X135022840Y-98632726D01*
X135003043Y-98645506D01*
X135001056Y-98646676D01*
X134965471Y-98664907D01*
X134931621Y-98675494D01*
X134893042Y-98680156D01*
X134872739Y-98680775D01*
X134812918Y-98675411D01*
X134753675Y-98657572D01*
X134693949Y-98626774D01*
X134632677Y-98582531D01*
X134604823Y-98558562D01*
X134581822Y-98538713D01*
X134562082Y-98523259D01*
X134548494Y-98514391D01*
X134544827Y-98513109D01*
X134530601Y-98508164D01*
X134511161Y-98495575D01*
X134490685Y-98478707D01*
X134473350Y-98460928D01*
X134464639Y-98448483D01*
X134455139Y-98422850D01*
X134455901Y-98398586D01*
X134467110Y-98370121D01*
X134467247Y-98369851D01*
X134476899Y-98355386D01*
X134492713Y-98336050D01*
X134511902Y-98314763D01*
X134531677Y-98294447D01*
X134549249Y-98278022D01*
X134561830Y-98268409D01*
X134565379Y-98267069D01*
X134564776Y-98272846D01*
X134558799Y-98287715D01*
X134552231Y-98301442D01*
X134535704Y-98339923D01*
X134528838Y-98370094D01*
X134531609Y-98391246D01*
X134543992Y-98402671D01*
X134555891Y-98404562D01*
X134569350Y-98399115D01*
X134589850Y-98384016D01*
X134615668Y-98361132D01*
X134645080Y-98332327D01*
X134676362Y-98299468D01*
X134707791Y-98264419D01*
X134737642Y-98229047D01*
X134764192Y-98195216D01*
X134785718Y-98164792D01*
X134800256Y-98140119D01*
X134808848Y-98122029D01*
X134812841Y-98108251D01*
X134812518Y-98093533D01*
X134808159Y-98072625D01*
X134804635Y-98058525D01*
X134790333Y-97973544D01*
X134789571Y-97928798D01*
X134945605Y-97928798D01*
X134977341Y-97899545D01*
X134999160Y-97881054D01*
X135020956Y-97865124D01*
X135032168Y-97858351D01*
X135055106Y-97849113D01*
X135081465Y-97841930D01*
X135085460Y-97841174D01*
X135104392Y-97837094D01*
X135112762Y-97831010D01*
X135114341Y-97818902D01*
X135113874Y-97810891D01*
X135109813Y-97731368D01*
X135110027Y-97663916D01*
X135114664Y-97606732D01*
X135123871Y-97558016D01*
X135137796Y-97515964D01*
X135138025Y-97515413D01*
X135144258Y-97498817D01*
X135146550Y-97489180D01*
X135146350Y-97488480D01*
X135141589Y-97493113D01*
X135130298Y-97507257D01*
X135114280Y-97528586D01*
X135099248Y-97549291D01*
X135064699Y-97601539D01*
X135032493Y-97657845D01*
X135003745Y-97715614D01*
X134979569Y-97772246D01*
X134961080Y-97825146D01*
X134949393Y-97871715D01*
X134945605Y-97907325D01*
X134945605Y-97928798D01*
X134789571Y-97928798D01*
X134788817Y-97884506D01*
X134799811Y-97793579D01*
G37*
G36*
X137245811Y-97571544D02*
G01*
X137246179Y-97588645D01*
X137243443Y-97613234D01*
X137238082Y-97642107D01*
X137230573Y-97672062D01*
X137221939Y-97698467D01*
X137194079Y-97757867D01*
X137154419Y-97820796D01*
X137104519Y-97885223D01*
X137045940Y-97949116D01*
X136986411Y-98005077D01*
X136960186Y-98027759D01*
X136936687Y-98047554D01*
X136918786Y-98062073D01*
X136910306Y-98068363D01*
X136896579Y-98073205D01*
X136872838Y-98077889D01*
X136843523Y-98081596D01*
X136834323Y-98082393D01*
X136695999Y-98098196D01*
X136566059Y-98123528D01*
X136445082Y-98158152D01*
X136333652Y-98201830D01*
X136232350Y-98254325D01*
X136141758Y-98315399D01*
X136062458Y-98384814D01*
X136042486Y-98405574D01*
X136017697Y-98433991D01*
X135993383Y-98464626D01*
X135973730Y-98492124D01*
X135969008Y-98499552D01*
X135955836Y-98520726D01*
X135945772Y-98535952D01*
X135940924Y-98542046D01*
X135940871Y-98542055D01*
X135937232Y-98535852D01*
X135929108Y-98519011D01*
X135917744Y-98494187D01*
X135905833Y-98467345D01*
X135868352Y-98373196D01*
X135841855Y-98287227D01*
X135826277Y-98209633D01*
X135821554Y-98140606D01*
X135827621Y-98080343D01*
X135844414Y-98029037D01*
X135871869Y-97986882D01*
X135909921Y-97954073D01*
X135958504Y-97930805D01*
X136017556Y-97917271D01*
X136087011Y-97913667D01*
X136089544Y-97913721D01*
X136122285Y-97913882D01*
X136144874Y-97912064D01*
X136161576Y-97907591D01*
X136176382Y-97899956D01*
X136264342Y-97852726D01*
X136361682Y-97812826D01*
X136464626Y-97781555D01*
X136569397Y-97760210D01*
X136591901Y-97757030D01*
X136618365Y-97754794D01*
X136654594Y-97753369D01*
X136697104Y-97752719D01*
X136742414Y-97752812D01*
X136787043Y-97753614D01*
X136827507Y-97755092D01*
X136860324Y-97757213D01*
X136881360Y-97759813D01*
X136900932Y-97762857D01*
X136916889Y-97762489D01*
X136934115Y-97757731D01*
X136957490Y-97747606D01*
X136968594Y-97742342D01*
X137007932Y-97721570D01*
X137054278Y-97693987D01*
X137103623Y-97662170D01*
X137151961Y-97628696D01*
X137191984Y-97598738D01*
X137213526Y-97582537D01*
X137231038Y-97570618D01*
X137241175Y-97565236D01*
X137241861Y-97565132D01*
X137245811Y-97571544D01*
G37*
G36*
X137713553Y-97157080D02*
G01*
X137757013Y-97157926D01*
X137790669Y-97160000D01*
X137819180Y-97163894D01*
X137847202Y-97170199D01*
X137871694Y-97177165D01*
X137950421Y-97205304D01*
X138025527Y-97241780D01*
X138100215Y-97288337D01*
X138167592Y-97338602D01*
X138254984Y-97403654D01*
X138342603Y-97459873D01*
X138428599Y-97506247D01*
X138511118Y-97541760D01*
X138576570Y-97562503D01*
X138615723Y-97571746D01*
X138648403Y-97576854D01*
X138681679Y-97578580D01*
X138720038Y-97577783D01*
X138756670Y-97575732D01*
X138783925Y-97572320D01*
X138806895Y-97566471D01*
X138830673Y-97557108D01*
X138841680Y-97552078D01*
X138866411Y-97540690D01*
X138880558Y-97535150D01*
X138886601Y-97535080D01*
X138887023Y-97540105D01*
X138885609Y-97545410D01*
X138871702Y-97577422D01*
X138847671Y-97615486D01*
X138815181Y-97657260D01*
X138775900Y-97700404D01*
X138773696Y-97702648D01*
X138708033Y-97761693D01*
X138628499Y-97819886D01*
X138535687Y-97876917D01*
X138430188Y-97932476D01*
X138312595Y-97986255D01*
X138183499Y-98037943D01*
X138043493Y-98087232D01*
X138028131Y-98092273D01*
X137991483Y-98103864D01*
X137949165Y-98116673D01*
X137903488Y-98130061D01*
X137856764Y-98143391D01*
X137811304Y-98156024D01*
X137769419Y-98167321D01*
X137733422Y-98176644D01*
X137705623Y-98183355D01*
X137688334Y-98186815D01*
X137684608Y-98187142D01*
X137673381Y-98183750D01*
X137659280Y-98177050D01*
X137631683Y-98164338D01*
X137592877Y-98149644D01*
X137545835Y-98133866D01*
X137493531Y-98117902D01*
X137438940Y-98102652D01*
X137385034Y-98089013D01*
X137334788Y-98077884D01*
X137324066Y-98075775D01*
X137290291Y-98070107D01*
X137250420Y-98064650D01*
X137207732Y-98059715D01*
X137165506Y-98055615D01*
X137127022Y-98052661D01*
X137095560Y-98051164D01*
X137074398Y-98051436D01*
X137071413Y-98051770D01*
X137048854Y-98055081D01*
X137073654Y-98033545D01*
X137140358Y-97974278D01*
X137197084Y-97920705D01*
X137245942Y-97870565D01*
X137289045Y-97821594D01*
X137328503Y-97771531D01*
X137361981Y-97724642D01*
X137409769Y-97648009D01*
X137451312Y-97567593D01*
X137485175Y-97486723D01*
X137509919Y-97408726D01*
X137521439Y-97355274D01*
X137525985Y-97327777D01*
X137529974Y-97303639D01*
X137532201Y-97290146D01*
X137533852Y-97273442D01*
X137535143Y-97248205D01*
X137535722Y-97224364D01*
X137536260Y-97176674D01*
X137577870Y-97166473D01*
X137609255Y-97161323D01*
X137652127Y-97158110D01*
X137703605Y-97157032D01*
X137713553Y-97157080D01*
G37*
G36*
X139930168Y-97517874D02*
G01*
X139942749Y-97535149D01*
X139960932Y-97561019D01*
X139983511Y-97593757D01*
X140009280Y-97631633D01*
X140026296Y-97656890D01*
X140057914Y-97704420D01*
X140081735Y-97741293D01*
X140098397Y-97768612D01*
X140108538Y-97787481D01*
X140112796Y-97799004D01*
X140111807Y-97804285D01*
X140111545Y-97804457D01*
X140099666Y-97812249D01*
X140082229Y-97824664D01*
X140076639Y-97828791D01*
X140060431Y-97838983D01*
X140049034Y-97842721D01*
X140046813Y-97841944D01*
X140041366Y-97834356D01*
X140029380Y-97816805D01*
X140012284Y-97791409D01*
X139991508Y-97760288D01*
X139974848Y-97735189D01*
X139952500Y-97701484D01*
X139933020Y-97672190D01*
X139917774Y-97649351D01*
X139908126Y-97635015D01*
X139905389Y-97631079D01*
X139898683Y-97633395D01*
X139883045Y-97642053D01*
X139861555Y-97655320D01*
X139856247Y-97658751D01*
X139809477Y-97689222D01*
X139881359Y-97797069D01*
X139904426Y-97831852D01*
X139924423Y-97862337D01*
X139940071Y-97886547D01*
X139950091Y-97902506D01*
X139953240Y-97908186D01*
X139947910Y-97913633D01*
X139934660Y-97923640D01*
X139917605Y-97935433D01*
X139900857Y-97946240D01*
X139888530Y-97953286D01*
X139884657Y-97954432D01*
X139880291Y-97947988D01*
X139869289Y-97931501D01*
X139853000Y-97907001D01*
X139832772Y-97876515D01*
X139815848Y-97850972D01*
X139793230Y-97816944D01*
X139773188Y-97787037D01*
X139757169Y-97763388D01*
X139746618Y-97748135D01*
X139743208Y-97743541D01*
X139735353Y-97744852D01*
X139718320Y-97753099D01*
X139694754Y-97766869D01*
X139671778Y-97781715D01*
X139605902Y-97826010D01*
X139751804Y-98044164D01*
X139735398Y-98056115D01*
X139716447Y-98069458D01*
X139700432Y-98080267D01*
X139681873Y-98092468D01*
X139585989Y-97948474D01*
X139559128Y-97907880D01*
X139535171Y-97871187D01*
X139515228Y-97840135D01*
X139500408Y-97816462D01*
X139491821Y-97801909D01*
X139490106Y-97798141D01*
X139495909Y-97792428D01*
X139512210Y-97780050D01*
X139537349Y-97762105D01*
X139569664Y-97739691D01*
X139607494Y-97713907D01*
X139649178Y-97685852D01*
X139693055Y-97656624D01*
X139737465Y-97627321D01*
X139780745Y-97599043D01*
X139821236Y-97572887D01*
X139857275Y-97549953D01*
X139887202Y-97531339D01*
X139909356Y-97518143D01*
X139922076Y-97511464D01*
X139924396Y-97510921D01*
X139930168Y-97517874D01*
G37*
G36*
X137478302Y-96962725D02*
G01*
X137476238Y-96975317D01*
X137470831Y-96998307D01*
X137463030Y-97028272D01*
X137453786Y-97061788D01*
X137444049Y-97095431D01*
X137434767Y-97125779D01*
X137426890Y-97149407D01*
X137425374Y-97153540D01*
X137379767Y-97256567D01*
X137324142Y-97350963D01*
X137259299Y-97435939D01*
X137186040Y-97510705D01*
X137105165Y-97574471D01*
X137017474Y-97626449D01*
X136923769Y-97665847D01*
X136897346Y-97674283D01*
X136848205Y-97688940D01*
X136785181Y-97672506D01*
X136716082Y-97659752D01*
X136640090Y-97654776D01*
X136562482Y-97657522D01*
X136488536Y-97667937D01*
X136454797Y-97675944D01*
X136397591Y-97694610D01*
X136338417Y-97718975D01*
X136281958Y-97746831D01*
X136232900Y-97775970D01*
X136213340Y-97789776D01*
X136193544Y-97804388D01*
X136178633Y-97814706D01*
X136172039Y-97818408D01*
X136169885Y-97811956D01*
X136168573Y-97795732D01*
X136168409Y-97787653D01*
X136161100Y-97745105D01*
X136140147Y-97704345D01*
X136106338Y-97666089D01*
X136060460Y-97631054D01*
X136003304Y-97599957D01*
X135935656Y-97573514D01*
X135931190Y-97572062D01*
X135905276Y-97562928D01*
X135886787Y-97554838D01*
X135878316Y-97549011D01*
X135878618Y-97547344D01*
X135888409Y-97545537D01*
X135909985Y-97543912D01*
X135940657Y-97542599D01*
X135977736Y-97541728D01*
X136000612Y-97541478D01*
X136067612Y-97542414D01*
X136122881Y-97546448D01*
X136168912Y-97554006D01*
X136208197Y-97565513D01*
X136243230Y-97581393D01*
X136247036Y-97583484D01*
X136265652Y-97593667D01*
X136278215Y-97600121D01*
X136281139Y-97601314D01*
X136281487Y-97595406D01*
X136277210Y-97580367D01*
X136269711Y-97560224D01*
X136260393Y-97539003D01*
X136257113Y-97532362D01*
X136230833Y-97492058D01*
X136193561Y-97450713D01*
X136148189Y-97411382D01*
X136130074Y-97398056D01*
X136079460Y-97362511D01*
X136107732Y-97362597D01*
X136160162Y-97369142D01*
X136215152Y-97387522D01*
X136269468Y-97416309D01*
X136319877Y-97454075D01*
X136324692Y-97458394D01*
X136345511Y-97475634D01*
X136364082Y-97487969D01*
X136376430Y-97492766D01*
X136376545Y-97492767D01*
X136393964Y-97487515D01*
X136416640Y-97473607D01*
X136440951Y-97453816D01*
X136463275Y-97430918D01*
X136472439Y-97419338D01*
X136496112Y-97381563D01*
X136521024Y-97332482D01*
X136545712Y-97275005D01*
X136548217Y-97268637D01*
X136563669Y-97229037D01*
X136617585Y-97212104D01*
X136666841Y-97198023D01*
X136716808Y-97186822D01*
X136770295Y-97178116D01*
X136830110Y-97171516D01*
X136899061Y-97166635D01*
X136970267Y-97163426D01*
X137012022Y-97161123D01*
X137054082Y-97157447D01*
X137091475Y-97152911D01*
X137118615Y-97148165D01*
X137200645Y-97123724D01*
X137283912Y-97087877D01*
X137364286Y-97042663D01*
X137435717Y-96991671D01*
X137455891Y-96976067D01*
X137470896Y-96965682D01*
X137478049Y-96962338D01*
X137478302Y-96962725D01*
G37*
G36*
X134786402Y-97691770D02*
G01*
X134782784Y-97695388D01*
X134779166Y-97691770D01*
X134782784Y-97688152D01*
X134786402Y-97691770D01*
G37*
G36*
X139293689Y-96839306D02*
G01*
X139308430Y-96851584D01*
X139328049Y-96869025D01*
X139333909Y-96874397D01*
X139376714Y-96913894D01*
X139325315Y-97114532D01*
X139312185Y-97166005D01*
X139300387Y-97212678D01*
X139290359Y-97252785D01*
X139282539Y-97284558D01*
X139277366Y-97306228D01*
X139275278Y-97316029D01*
X139275273Y-97316415D01*
X139280271Y-97311621D01*
X139293607Y-97297485D01*
X139313962Y-97275443D01*
X139340016Y-97246932D01*
X139370448Y-97213387D01*
X139396032Y-97185034D01*
X139429286Y-97148404D01*
X139459589Y-97115609D01*
X139485540Y-97088118D01*
X139505735Y-97067402D01*
X139518773Y-97054932D01*
X139523011Y-97051876D01*
X139531908Y-97056387D01*
X139546735Y-97068561D01*
X139558349Y-97079772D01*
X139586109Y-97108202D01*
X139410975Y-97300485D01*
X139370569Y-97344697D01*
X139333182Y-97385318D01*
X139299939Y-97421148D01*
X139271962Y-97450988D01*
X139250375Y-97473641D01*
X139236302Y-97487907D01*
X139230908Y-97492599D01*
X139223533Y-97487877D01*
X139209043Y-97475688D01*
X139191418Y-97459464D01*
X139156861Y-97426496D01*
X139211527Y-97212407D01*
X139225075Y-97158912D01*
X139237270Y-97109924D01*
X139247691Y-97067203D01*
X139255915Y-97032506D01*
X139261523Y-97007593D01*
X139264093Y-96994222D01*
X139264175Y-96992493D01*
X139259017Y-96996099D01*
X139245466Y-97009188D01*
X139224773Y-97030454D01*
X139198188Y-97058587D01*
X139166960Y-97092280D01*
X139132340Y-97130224D01*
X139128372Y-97134608D01*
X138994587Y-97282548D01*
X138963943Y-97252473D01*
X138946948Y-97234720D01*
X138939451Y-97223147D01*
X138939831Y-97214674D01*
X138942145Y-97211044D01*
X138951561Y-97199850D01*
X138968716Y-97180341D01*
X138992259Y-97153990D01*
X139020839Y-97122274D01*
X139053107Y-97086669D01*
X139087712Y-97048649D01*
X139123305Y-97009690D01*
X139158534Y-96971268D01*
X139192051Y-96934857D01*
X139222505Y-96901933D01*
X139248546Y-96873972D01*
X139268823Y-96852449D01*
X139281987Y-96838839D01*
X139286651Y-96834575D01*
X139293689Y-96839306D01*
G37*
G36*
X136048198Y-96352496D02*
G01*
X136048927Y-96369409D01*
X136049647Y-96396010D01*
X136050283Y-96429906D01*
X136050502Y-96445356D01*
X136053554Y-96522928D01*
X136060763Y-96588543D01*
X136072489Y-96644208D01*
X136089090Y-96691934D01*
X136097858Y-96710595D01*
X136117741Y-96745017D01*
X136137755Y-96767778D01*
X136161295Y-96781314D01*
X136191756Y-96788063D01*
X136207730Y-96789480D01*
X136254716Y-96788471D01*
X136293320Y-96778103D01*
X136326986Y-96757361D01*
X136332474Y-96752724D01*
X136363078Y-96717492D01*
X136385902Y-96672042D01*
X136401153Y-96615698D01*
X136409041Y-96547786D01*
X136410326Y-96500872D01*
X136410318Y-96417154D01*
X136452767Y-96462533D01*
X136504481Y-96511189D01*
X136557061Y-96546679D01*
X136612843Y-96570235D01*
X136674159Y-96583089D01*
X136683021Y-96584075D01*
X136744089Y-96583655D01*
X136810450Y-96571156D01*
X136880468Y-96547206D01*
X136952511Y-96512434D01*
X137024942Y-96467468D01*
X137067177Y-96436426D01*
X137086556Y-96421323D01*
X137079188Y-96448683D01*
X137054738Y-96512500D01*
X137017978Y-96571206D01*
X136970799Y-96622505D01*
X136915087Y-96664099D01*
X136891243Y-96677300D01*
X136839212Y-96700385D01*
X136785658Y-96717437D01*
X136727029Y-96729259D01*
X136659771Y-96736656D01*
X136618154Y-96739114D01*
X136514152Y-96743793D01*
X136560263Y-96771162D01*
X136609954Y-96797396D01*
X136658096Y-96815169D01*
X136709171Y-96825608D01*
X136767660Y-96829839D01*
X136794522Y-96830043D01*
X136871538Y-96825404D01*
X136943204Y-96811878D01*
X137013047Y-96788403D01*
X137084593Y-96753922D01*
X137124012Y-96731064D01*
X137148332Y-96716529D01*
X137167402Y-96705677D01*
X137178326Y-96700132D01*
X137179799Y-96699786D01*
X137179064Y-96707069D01*
X137175377Y-96724258D01*
X137170814Y-96742643D01*
X137148459Y-96805342D01*
X137115814Y-96859763D01*
X137072050Y-96906775D01*
X137016340Y-96947250D01*
X136947857Y-96982056D01*
X136940036Y-96985357D01*
X136887023Y-97004282D01*
X136829296Y-97018566D01*
X136763932Y-97028759D01*
X136688008Y-97035409D01*
X136667808Y-97036544D01*
X136622327Y-97039265D01*
X136588262Y-97042413D01*
X136562560Y-97046451D01*
X136542164Y-97051838D01*
X136526697Y-97057831D01*
X136478773Y-97086413D01*
X136439864Y-97126025D01*
X136409647Y-97177029D01*
X136400144Y-97200101D01*
X136389280Y-97229458D01*
X136327770Y-97166691D01*
X136270490Y-97115249D01*
X136210567Y-97075989D01*
X136145926Y-97048087D01*
X136074495Y-97030719D01*
X135994200Y-97023060D01*
X135964937Y-97022522D01*
X135870252Y-97028636D01*
X135772858Y-97046714D01*
X135676783Y-97075912D01*
X135638799Y-97090864D01*
X135628182Y-97089996D01*
X135622227Y-97078181D01*
X135620696Y-97058090D01*
X135623346Y-97032392D01*
X135629937Y-97003757D01*
X135640228Y-96974855D01*
X135651251Y-96952843D01*
X135675004Y-96920931D01*
X135707748Y-96888414D01*
X135744818Y-96859490D01*
X135774861Y-96841554D01*
X135805349Y-96821919D01*
X135839215Y-96793136D01*
X135872905Y-96758764D01*
X135902867Y-96722361D01*
X135921374Y-96694830D01*
X135952266Y-96636219D01*
X135981610Y-96568231D01*
X136007371Y-96495953D01*
X136024400Y-96437035D01*
X136032889Y-96403939D01*
X136040083Y-96376044D01*
X136045219Y-96356299D01*
X136047531Y-96347664D01*
X136048198Y-96352496D01*
G37*
G36*
X138584954Y-96390451D02*
G01*
X138601016Y-96397737D01*
X138624747Y-96409918D01*
X138657941Y-96427681D01*
X138694095Y-96447225D01*
X138730988Y-96467170D01*
X138772619Y-96489667D01*
X138810995Y-96510399D01*
X138817115Y-96513704D01*
X138843610Y-96528048D01*
X138864780Y-96539579D01*
X138877772Y-96546738D01*
X138880451Y-96548285D01*
X138878276Y-96554786D01*
X138870764Y-96570229D01*
X138862164Y-96586432D01*
X138842049Y-96623214D01*
X138730080Y-96562605D01*
X138693523Y-96542944D01*
X138661396Y-96525909D01*
X138635846Y-96512618D01*
X138619018Y-96504190D01*
X138613169Y-96501683D01*
X138607634Y-96507444D01*
X138597592Y-96522937D01*
X138585079Y-96544985D01*
X138583320Y-96548274D01*
X138569871Y-96575801D01*
X138564424Y-96593063D01*
X138566513Y-96601533D01*
X138566554Y-96601565D01*
X138575435Y-96606999D01*
X138594766Y-96617923D01*
X138622210Y-96633043D01*
X138655430Y-96651070D01*
X138679622Y-96664059D01*
X138714822Y-96682928D01*
X138745277Y-96699342D01*
X138768817Y-96712124D01*
X138783271Y-96720098D01*
X138786820Y-96722187D01*
X138784986Y-96729112D01*
X138777905Y-96744964D01*
X138769743Y-96761206D01*
X138750398Y-96798203D01*
X138698728Y-96770119D01*
X138644110Y-96740499D01*
X138600990Y-96717284D01*
X138568201Y-96699868D01*
X138544579Y-96687649D01*
X138528956Y-96680022D01*
X138520169Y-96676385D01*
X138517109Y-96676051D01*
X138512254Y-96683720D01*
X138502771Y-96700498D01*
X138490337Y-96723232D01*
X138476633Y-96748772D01*
X138463335Y-96773965D01*
X138452123Y-96795661D01*
X138444675Y-96810709D01*
X138442585Y-96815969D01*
X138449247Y-96819570D01*
X138466589Y-96828881D01*
X138492527Y-96842785D01*
X138524979Y-96860165D01*
X138556602Y-96877091D01*
X138593051Y-96896644D01*
X138624818Y-96913778D01*
X138649807Y-96927355D01*
X138665920Y-96936237D01*
X138671081Y-96939252D01*
X138669327Y-96946138D01*
X138662643Y-96961107D01*
X138653259Y-96979664D01*
X138643404Y-96997316D01*
X138638069Y-97005785D01*
X138630542Y-97009424D01*
X138616276Y-97004957D01*
X138603166Y-96998045D01*
X138585955Y-96988512D01*
X138559313Y-96974043D01*
X138526610Y-96956457D01*
X138491216Y-96937573D01*
X138483988Y-96933735D01*
X138447510Y-96914324D01*
X138412114Y-96895382D01*
X138381505Y-96878900D01*
X138359394Y-96866869D01*
X138356897Y-96865492D01*
X138320013Y-96845103D01*
X138436499Y-96628006D01*
X138464402Y-96576043D01*
X138490405Y-96527696D01*
X138513648Y-96484560D01*
X138533268Y-96448232D01*
X138548404Y-96420308D01*
X138558195Y-96402382D01*
X138561467Y-96396533D01*
X138564816Y-96391102D01*
X138568649Y-96387820D01*
X138574763Y-96387374D01*
X138584954Y-96390451D01*
G37*
G36*
X137858337Y-96128443D02*
G01*
X137915482Y-96139310D01*
X137973099Y-96158723D01*
X138026949Y-96185267D01*
X138071046Y-96216042D01*
X138091568Y-96233310D01*
X138080277Y-96280503D01*
X138073485Y-96304296D01*
X138066549Y-96321254D01*
X138060986Y-96327696D01*
X138051889Y-96322865D01*
X138036831Y-96310405D01*
X138024381Y-96298367D01*
X137981858Y-96261865D01*
X137934827Y-96233722D01*
X137886350Y-96215252D01*
X137839488Y-96207772D01*
X137815950Y-96208764D01*
X137772617Y-96221110D01*
X137735128Y-96245596D01*
X137704574Y-96280694D01*
X137682045Y-96324874D01*
X137668629Y-96376607D01*
X137665198Y-96420298D01*
X137670789Y-96469702D01*
X137688405Y-96511188D01*
X137718293Y-96545244D01*
X137733829Y-96556956D01*
X137775768Y-96578077D01*
X137824289Y-96591088D01*
X137873024Y-96594349D01*
X137877734Y-96594071D01*
X137908796Y-96591827D01*
X137921365Y-96545114D01*
X137928096Y-96515124D01*
X137928765Y-96497832D01*
X137926492Y-96493803D01*
X137916290Y-96490207D01*
X137895839Y-96484760D01*
X137869071Y-96478489D01*
X137861530Y-96476843D01*
X137834981Y-96470807D01*
X137814917Y-96465617D01*
X137804671Y-96462156D01*
X137804009Y-96461573D01*
X137806169Y-96443358D01*
X137811582Y-96422031D01*
X137818649Y-96402280D01*
X137825771Y-96388792D01*
X137829926Y-96385588D01*
X137841322Y-96387220D01*
X137862926Y-96391611D01*
X137891603Y-96398003D01*
X137924216Y-96405636D01*
X137957629Y-96413753D01*
X137988703Y-96421593D01*
X138014304Y-96428399D01*
X138031294Y-96433413D01*
X138036517Y-96435556D01*
X138036267Y-96443464D01*
X138033025Y-96462465D01*
X138027474Y-96489655D01*
X138020301Y-96522131D01*
X138012189Y-96556988D01*
X138003823Y-96591323D01*
X137995889Y-96622230D01*
X137989071Y-96646805D01*
X137984054Y-96662145D01*
X137982262Y-96665644D01*
X137973773Y-96667504D01*
X137953825Y-96669418D01*
X137925431Y-96671156D01*
X137892834Y-96672453D01*
X137843735Y-96672931D01*
X137805818Y-96670842D01*
X137775986Y-96665977D01*
X137768584Y-96664068D01*
X137712118Y-96642449D01*
X137662734Y-96612079D01*
X137622443Y-96574659D01*
X137593256Y-96531889D01*
X137582704Y-96506822D01*
X137572289Y-96455919D01*
X137571529Y-96399090D01*
X137579796Y-96340597D01*
X137596463Y-96284699D01*
X137620903Y-96235656D01*
X137623153Y-96232190D01*
X137660163Y-96189027D01*
X137706418Y-96156538D01*
X137760655Y-96135447D01*
X137805903Y-96127535D01*
X137858337Y-96128443D01*
G37*
%TO.C,J2*%
X141725413Y-131549575D02*
X152474589Y-131549575D01*
X141725413Y-131549575D02*
X141725413Y-130549587D01*
X141725413Y-130549587D02*
X142225432Y-130549587D01*
X142225432Y-130549587D02*
X142225432Y-126050000D01*
X142225432Y-126050000D02*
X142755014Y-126050000D01*
X142755014Y-126050000D02*
X142755014Y-124050004D01*
X142755014Y-124050004D02*
X145799999Y-124050004D01*
X149949999Y-124050004D02*
X151444987Y-124050004D01*
X151444987Y-126050000D02*
X151444987Y-124050004D01*
X151444987Y-126050000D02*
X151974569Y-126050000D01*
X151974569Y-130549587D02*
X151974569Y-126050000D01*
X151974569Y-130549587D02*
X152474589Y-130549587D01*
X152474589Y-131549575D02*
X152474589Y-130549587D01*
D12*
%TO.C,R1*%
X154240000Y-108783641D02*
X154240000Y-108476359D01*
X155000000Y-108783641D02*
X155000000Y-108476359D01*
%TO.C,J5*%
X158980000Y-110420000D02*
X156320000Y-110420000D01*
X158980000Y-113020000D02*
X157650000Y-113020000D01*
X158980000Y-105280000D02*
X156320000Y-105280000D01*
X158980000Y-110420000D02*
X158980000Y-105280000D01*
X156320000Y-110420000D02*
X156320000Y-105280000D01*
X158980000Y-111690000D02*
X158980000Y-113020000D01*
%TO.C,J3*%
X149470000Y-94450000D02*
X141790000Y-94450000D01*
X149470000Y-91790000D02*
X149470000Y-94450000D01*
X150740000Y-91790000D02*
X152070000Y-91790000D01*
X152070000Y-91790000D02*
X152070000Y-93120000D01*
X149470000Y-91790000D02*
X141790000Y-91790000D01*
X141790000Y-91790000D02*
X141790000Y-94450000D01*
%TO.C,JP1*%
X139190000Y-110475000D02*
X136530000Y-110475000D01*
X139190000Y-105335000D02*
X136530000Y-105335000D01*
X139190000Y-113075000D02*
X137860000Y-113075000D01*
X139190000Y-111745000D02*
X139190000Y-113075000D01*
X139190000Y-110475000D02*
X139190000Y-105335000D01*
X136530000Y-110475000D02*
X136530000Y-105335000D01*
%TO.C,R2*%
X154250000Y-111353641D02*
X154250000Y-111046359D01*
X155010000Y-111353641D02*
X155010000Y-111046359D01*
%TO.C,J4*%
X152100000Y-100320000D02*
X152100000Y-120700000D01*
X149440000Y-120700000D02*
X152100000Y-120700000D01*
X150770000Y-97720000D02*
X152100000Y-97720000D01*
X152100000Y-97720000D02*
X152100000Y-99050000D01*
X149440000Y-100320000D02*
X152100000Y-100320000D01*
X149440000Y-100320000D02*
X149440000Y-120700000D01*
%TO.C,J1*%
X141820000Y-120700000D02*
X141820000Y-119370000D01*
X141820000Y-118100000D02*
X141820000Y-97720000D01*
X144480000Y-118100000D02*
X141820000Y-118100000D01*
X143150000Y-120700000D02*
X141820000Y-120700000D01*
X144480000Y-118100000D02*
X144480000Y-97720000D01*
X144480000Y-97720000D02*
X141820000Y-97720000D01*
%TO.C,JP2*%
X156340000Y-98920000D02*
X159000000Y-98920000D01*
X159000000Y-98920000D02*
X159000000Y-104060000D01*
X156340000Y-97650000D02*
X156340000Y-96320000D01*
X156340000Y-104060000D02*
X159000000Y-104060000D01*
X156340000Y-98920000D02*
X156340000Y-104060000D01*
X156340000Y-96320000D02*
X157670000Y-96320000D01*
%TD*%
M02*
