%TF.GenerationSoftware,KiCad,Pcbnew,6.0.11-2627ca5db0~126~ubuntu22.04.1*%
%TF.CreationDate,2023-12-15T21:44:52-06:00*%
%TF.ProjectId,xem7310_carrier,78656d37-3331-4305-9f63-617272696572,rev?*%
%TF.SameCoordinates,Original*%
%TF.FileFunction,Copper,L4,Bot*%
%TF.FilePolarity,Positive*%
%FSLAX46Y46*%
G04 Gerber Fmt 4.6, Leading zero omitted, Abs format (unit mm)*
G04 Created by KiCad (PCBNEW 6.0.11-2627ca5db0~126~ubuntu22.04.1) date 2023-12-15 21:44:52*
%MOMM*%
%LPD*%
G01*
G04 APERTURE LIST*
%TA.AperFunction,ComponentPad*%
%ADD10C,4.700000*%
%TD*%
%TA.AperFunction,ViaPad*%
%ADD11C,0.800000*%
%TD*%
%TA.AperFunction,Conductor*%
%ADD12C,0.200000*%
%TD*%
%TA.AperFunction,Conductor*%
%ADD13C,0.500000*%
%TD*%
%TA.AperFunction,Conductor*%
%ADD14C,0.300000*%
%TD*%
%TA.AperFunction,Conductor*%
%ADD15C,0.250000*%
%TD*%
G04 APERTURE END LIST*
D10*
%TO.P,H2,1,1*%
%TO.N,unconnected-(H2-Pad1)*%
X134200000Y-142300000D03*
%TD*%
%TO.P,H4,1,1*%
%TO.N,unconnected-(H4-Pad1)*%
X178200000Y-142300000D03*
%TD*%
%TO.P,H1,1,1*%
%TO.N,unconnected-(H1-Pad1)*%
X134200000Y-73300000D03*
%TD*%
%TO.P,H3,1,1*%
%TO.N,unconnected-(H3-Pad1)*%
X178200000Y-73300000D03*
%TD*%
D11*
%TO.N,+3.3V*%
X131000000Y-104200000D03*
X110750000Y-111950000D03*
%TO.N,Net-(MC1-Pad32)*%
X117700000Y-118450000D03*
X130700000Y-119700000D03*
X121550000Y-118500000D03*
X141500000Y-120750000D03*
%TO.N,Net-(MC1-Pad34)*%
X117700000Y-120000000D03*
X121400000Y-120050000D03*
X130650000Y-122300000D03*
X141500000Y-123250000D03*
%TO.N,Net-(MC1-Pad38)*%
X141500000Y-126000000D03*
X130800000Y-124850000D03*
%TO.N,Net-(MC1-Pad40)*%
X141500000Y-128500000D03*
X123450000Y-128350000D03*
X130950000Y-127350000D03*
X126300000Y-128350000D03*
%TO.N,/SCK_A*%
X125610000Y-110630000D03*
X127830000Y-110620000D03*
%TO.N,/MOSI_A1*%
X122590000Y-111830000D03*
X130760000Y-110985500D03*
%TO.N,/MISO_A2*%
X130220000Y-106110000D03*
X130450000Y-113800000D03*
%TO.N,/MOSI1-*%
X123325001Y-105627266D03*
X112010000Y-106005000D03*
%TO.N,/SCLK+*%
X119901232Y-105601232D03*
X112018768Y-104571232D03*
%TO.N,/MOSI1+*%
X112010000Y-107055000D03*
X122275001Y-105627266D03*
%TO.N,/SCLK-*%
X119158768Y-104858768D03*
X112761232Y-103828768D03*
%TO.N,/MISO1-*%
X111848768Y-108378768D03*
X129778640Y-107150010D03*
%TO.N,/CS+*%
X117774724Y-108848735D03*
X121008768Y-108698768D03*
%TO.N,/MISO1+*%
X130521104Y-107892474D03*
X112591232Y-109121232D03*
%TO.N,/CS-*%
X121600000Y-109655500D03*
X117774724Y-109898735D03*
%TD*%
D12*
%TO.N,/CS-*%
X118074723Y-109598736D02*
X117774724Y-109898735D01*
X121169463Y-109598736D02*
X118074723Y-109598736D01*
X121600000Y-109655500D02*
X121226227Y-109655500D01*
X121226227Y-109655500D02*
X121169463Y-109598736D01*
D13*
%TO.N,+3.3V*%
X110450000Y-101700000D02*
X110450000Y-111650000D01*
X113350000Y-101700000D02*
X110450000Y-101700000D01*
X129778768Y-102978768D02*
X114628768Y-102978768D01*
X114628768Y-102978768D02*
X113350000Y-101700000D01*
X131000000Y-104200000D02*
X129778768Y-102978768D01*
X110450000Y-111650000D02*
X110750000Y-111950000D01*
%TO.N,Net-(MC1-Pad32)*%
X130700000Y-119700000D02*
X131750000Y-120750000D01*
D14*
X121500000Y-118450000D02*
X121550000Y-118500000D01*
X117700000Y-118450000D02*
X121500000Y-118450000D01*
D13*
X131750000Y-120750000D02*
X141500000Y-120750000D01*
D14*
%TO.N,Net-(MC1-Pad34)*%
X117700000Y-120000000D02*
X121350000Y-120000000D01*
D13*
X130650000Y-122300000D02*
X131600000Y-123250000D01*
X131600000Y-123250000D02*
X141500000Y-123250000D01*
D14*
X121350000Y-120000000D02*
X121400000Y-120050000D01*
D13*
%TO.N,Net-(MC1-Pad38)*%
X131950000Y-126000000D02*
X141500000Y-126000000D01*
X130800000Y-124850000D02*
X131950000Y-126000000D01*
%TO.N,Net-(MC1-Pad40)*%
X140350000Y-127350000D02*
X141500000Y-128500000D01*
X130950000Y-127350000D02*
X140350000Y-127350000D01*
D14*
X123450000Y-128350000D02*
X126300000Y-128350000D01*
D15*
%TO.N,/SCK_A*%
X125610000Y-110630000D02*
X127820000Y-110630000D01*
X127820000Y-110630000D02*
X127830000Y-110620000D01*
%TO.N,/MOSI_A1*%
X130760000Y-110985500D02*
X129915500Y-111830000D01*
X129915500Y-111830000D02*
X122590000Y-111830000D01*
%TO.N,/MISO_A2*%
X131740000Y-112330000D02*
X131740000Y-112510000D01*
X131740000Y-112510000D02*
X130450000Y-113800000D01*
X130220000Y-106110000D02*
X131740000Y-107630000D01*
X131740000Y-107630000D02*
X131740000Y-112330000D01*
D12*
%TO.N,/MOSI1-*%
X121275001Y-105406799D02*
X120376801Y-106304999D01*
X121860787Y-104627266D02*
X121275001Y-105213052D01*
X121275001Y-105213052D02*
X121275001Y-105406799D01*
X123325001Y-105627266D02*
X123275001Y-105577266D01*
X122689215Y-104627266D02*
X121860787Y-104627266D01*
X123275001Y-105577266D02*
X123275001Y-105213052D01*
X123275001Y-105213052D02*
X122689215Y-104627266D01*
X120376801Y-106304999D02*
X112309999Y-106304999D01*
X112309999Y-106304999D02*
X112010000Y-106005000D01*
%TO.N,/SCLK+*%
X119901232Y-105601232D02*
X113473033Y-105601232D01*
X113473033Y-105601232D02*
X112443033Y-104571232D01*
X112443033Y-104571232D02*
X112018768Y-104571232D01*
%TO.N,/MOSI1+*%
X120563199Y-106755001D02*
X112309999Y-106755001D01*
X122275001Y-105627266D02*
X121690934Y-105627266D01*
X112309999Y-106755001D02*
X112010000Y-107055000D01*
X121690934Y-105627266D02*
X120563199Y-106755001D01*
%TO.N,/SCLK-*%
X113659430Y-105151231D02*
X112761232Y-104253033D01*
X119158768Y-104858768D02*
X118866305Y-105151231D01*
X112761232Y-104253033D02*
X112761232Y-103828768D01*
X118866305Y-105151231D02*
X113659430Y-105151231D01*
%TO.N,/MISO1-*%
X112273033Y-108378768D02*
X111848768Y-108378768D01*
X112456802Y-108194999D02*
X112273033Y-108378768D01*
X129778640Y-107150010D02*
X129486177Y-107442473D01*
X112386801Y-108194999D02*
X112456802Y-108194999D01*
X113139327Y-107442473D02*
X112386801Y-108194999D01*
X129486177Y-107442473D02*
X113139327Y-107442473D01*
%TO.N,/CS+*%
X121008768Y-109123033D02*
X121008768Y-108698768D01*
X118074723Y-109148734D02*
X120983067Y-109148734D01*
X117774724Y-108848735D02*
X118074723Y-109148734D01*
X120983067Y-109148734D02*
X121008768Y-109123033D01*
%TO.N,/MISO1+*%
X112591232Y-108696967D02*
X112591232Y-109121232D01*
X112573199Y-108645001D02*
X112643198Y-108645001D01*
X130521104Y-107892474D02*
X113325726Y-107892474D01*
X112643198Y-108645001D02*
X112591232Y-108696967D01*
X113325726Y-107892474D02*
X112573199Y-108645001D01*
%TD*%
M02*
