M48
; DRILL file {KiCad 6.0.11-2627ca5db0~126~ubuntu22.04.1} date Fri 15 Dec 2023 09:44:45 PM CST
; FORMAT={-:-/ absolute / inch / decimal}
; #@! TF.CreationDate,2023-12-15T21:44:45-06:00
; #@! TF.GenerationSoftware,Kicad,Pcbnew,6.0.11-2627ca5db0~126~ubuntu22.04.1
; #@! TF.FileFunction,Plated,1,4,PTH
FMAT,2
INCH
; #@! TA.AperFunction,Plated,PTH,ViaDrill
T1C0.0118
; #@! TA.AperFunction,Plated,PTH,ViaDrill
T2C0.0157
; #@! TA.AperFunction,Plated,PTH,ComponentDrill
T3C0.1063
%
G90
G05
T1
X5.5551Y-4.1024
T2
X4.3602Y-4.4075
X4.4035Y-4.2669
X4.4098Y-4.1734
X4.4098Y-4.2148
X4.4102Y-4.117
X4.4232Y-4.5433
X4.4327Y-4.2961
X4.4394Y-4.0877
X4.4902Y-5.0965
X4.5498Y-4.5579
X4.5669Y-4.3228
X4.5738Y-3.9368
X4.5984Y-4.1024
X4.6211Y-3.7833
X4.6339Y-4.6634
X4.6339Y-4.7244
X4.6358Y-3.8976
X4.6368Y-4.2854
X4.6368Y-4.3267
X4.6913Y-4.1283
X4.7205Y-4.1575
X4.7641Y-4.2795
X4.7795Y-4.7264
X4.7854Y-4.6654
X4.7874Y-4.3171
X4.814Y-4.1586
X4.8264Y-4.4028
X4.8478Y-4.5148
X4.8553Y-4.1586
X4.8602Y-5.0531
X4.9291Y-3.8858
X4.9453Y-4.3555
X4.9498Y-4.5159
X4.9724Y-5.0531
X5.0098Y-3.935
X5.0327Y-4.3551
X5.0909Y-4.4957
X5.1094Y-4.2185
X5.1268Y-4.1776
X5.1358Y-4.4803
X5.1386Y-4.2477
X5.1437Y-4.815
X5.1457Y-4.7126
X5.148Y-4.3695
X5.1496Y-4.9154
X5.1555Y-5.0138
X5.1575Y-4.1024
X5.2992Y-4.2913
X5.5709Y-4.7539
X5.5709Y-4.8524
X5.5709Y-4.9606
X5.5709Y-5.0591
T3
X5.2835Y-2.8858
X5.2835Y-5.6024
X7.0157Y-2.8858
X7.0157Y-5.6024
T0
M30
