%TF.GenerationSoftware,KiCad,Pcbnew,6.0.11-2627ca5db0~126~ubuntu22.04.1*%
%TF.CreationDate,2024-01-28T01:11:03-06:00*%
%TF.ProjectId,mp_highdriver_carrier,6d705f68-6967-4686-9472-697665725f63,rev?*%
%TF.SameCoordinates,Original*%
%TF.FileFunction,Copper,L1,Top*%
%TF.FilePolarity,Positive*%
%FSLAX46Y46*%
G04 Gerber Fmt 4.6, Leading zero omitted, Abs format (unit mm)*
G04 Created by KiCad (PCBNEW 6.0.11-2627ca5db0~126~ubuntu22.04.1) date 2024-01-28 01:11:03*
%MOMM*%
%LPD*%
G01*
G04 APERTURE LIST*
G04 Aperture macros list*
%AMRoundRect*
0 Rectangle with rounded corners*
0 $1 Rounding radius*
0 $2 $3 $4 $5 $6 $7 $8 $9 X,Y pos of 4 corners*
0 Add a 4 corners polygon primitive as box body*
4,1,4,$2,$3,$4,$5,$6,$7,$8,$9,$2,$3,0*
0 Add four circle primitives for the rounded corners*
1,1,$1+$1,$2,$3*
1,1,$1+$1,$4,$5*
1,1,$1+$1,$6,$7*
1,1,$1+$1,$8,$9*
0 Add four rect primitives between the rounded corners*
20,1,$1+$1,$2,$3,$4,$5,0*
20,1,$1+$1,$4,$5,$6,$7,0*
20,1,$1+$1,$6,$7,$8,$9,0*
20,1,$1+$1,$8,$9,$2,$3,0*%
G04 Aperture macros list end*
%TA.AperFunction,ComponentPad*%
%ADD10C,1.300000*%
%TD*%
%TA.AperFunction,ComponentPad*%
%ADD11R,1.300000X1.300000*%
%TD*%
%TA.AperFunction,SMDPad,CuDef*%
%ADD12RoundRect,0.135000X0.185000X-0.135000X0.185000X0.135000X-0.185000X0.135000X-0.185000X-0.135000X0*%
%TD*%
%TA.AperFunction,ComponentPad*%
%ADD13C,5.400000*%
%TD*%
%TA.AperFunction,ComponentPad*%
%ADD14C,1.700000*%
%TD*%
%TA.AperFunction,ComponentPad*%
%ADD15O,1.700000X1.700000*%
%TD*%
%TA.AperFunction,ComponentPad*%
%ADD16R,1.700000X1.700000*%
%TD*%
%TA.AperFunction,ViaPad*%
%ADD17C,0.800000*%
%TD*%
%TA.AperFunction,Conductor*%
%ADD18C,0.500000*%
%TD*%
%TA.AperFunction,Conductor*%
%ADD19C,0.250000*%
%TD*%
G04 APERTURE END LIST*
D10*
%TO.P,J2,4,4*%
%TO.N,/P2-*%
X149124999Y-124700000D03*
D11*
%TO.P,J2,1,1*%
%TO.N,/P1-*%
X145374999Y-129700000D03*
D10*
%TO.P,J2,2,2*%
%TO.N,/P1+*%
X146624999Y-124700000D03*
%TO.P,J2,3,3*%
%TO.N,/P2+*%
X147874999Y-129700000D03*
%TD*%
D12*
%TO.P,R1,1*%
%TO.N,/SDA*%
X154620000Y-109140000D03*
%TO.P,R1,2*%
%TO.N,VDD*%
X154620000Y-108120000D03*
%TD*%
D13*
%TO.P,H4,1,1*%
%TO.N,unconnected-(H4-Pad1)*%
X136050000Y-90100000D03*
%TD*%
D14*
%TO.P,J5,1,Pin_1*%
%TO.N,/SCL*%
X157650000Y-111690000D03*
D15*
%TO.P,J5,2,Pin_2*%
%TO.N,/SDA*%
X157650000Y-109150000D03*
%TO.P,J5,3,Pin_3*%
%TO.N,Net-(J5-Pad3)*%
X157650000Y-106610000D03*
%TD*%
D14*
%TO.P,J3,1,Pin_1*%
%TO.N,VDD*%
X150740000Y-93120000D03*
D15*
%TO.P,J3,2,Pin_2*%
%TO.N,GND*%
X148200000Y-93120000D03*
%TO.P,J3,3,Pin_3*%
%TO.N,/AMP*%
X145660000Y-93120000D03*
%TO.P,J3,4,Pin_4*%
%TO.N,Net-(J3-Pad4)*%
X143120000Y-93120000D03*
%TD*%
D13*
%TO.P,H2,1,1*%
%TO.N,unconnected-(H2-Pad1)*%
X158800000Y-128300000D03*
%TD*%
D14*
%TO.P,JP1,1,A*%
%TO.N,/CLK_INT*%
X137860000Y-111745000D03*
D15*
%TO.P,JP1,2,C*%
%TO.N,/CLK*%
X137860000Y-109205000D03*
%TO.P,JP1,3,B*%
%TO.N,Net-(J3-Pad4)*%
X137860000Y-106665000D03*
%TD*%
D13*
%TO.P,H3,1,1*%
%TO.N,unconnected-(H3-Pad1)*%
X136050000Y-128300000D03*
%TD*%
D12*
%TO.P,R2,1*%
%TO.N,/SCL*%
X154630000Y-111710000D03*
%TO.P,R2,2*%
%TO.N,VDD*%
X154630000Y-110690000D03*
%TD*%
D16*
%TO.P,J4,1,Pin_1*%
%TO.N,unconnected-(J4-Pad1)*%
X150770000Y-99050000D03*
D15*
%TO.P,J4,2,Pin_2*%
%TO.N,unconnected-(J4-Pad2)*%
X150770000Y-101590000D03*
%TO.P,J4,3,Pin_3*%
%TO.N,VDD*%
X150770000Y-104130000D03*
%TO.P,J4,4,Pin_4*%
%TO.N,/{slash}RST*%
X150770000Y-106670000D03*
%TO.P,J4,5,Pin_5*%
%TO.N,/SDA*%
X150770000Y-109210000D03*
%TO.P,J4,6,Pin_6*%
%TO.N,/SCL*%
X150770000Y-111750000D03*
%TO.P,J4,7,Pin_7*%
%TO.N,GND*%
X150770000Y-114290000D03*
%TO.P,J4,8,Pin_8*%
%TO.N,/P2+*%
X150770000Y-116830000D03*
%TO.P,J4,9,Pin_9*%
%TO.N,/P2-*%
X150770000Y-119370000D03*
%TD*%
D13*
%TO.P,H1,1,1*%
%TO.N,unconnected-(H1-Pad1)*%
X158950000Y-90100000D03*
%TD*%
D16*
%TO.P,J1,1,Pin_1*%
%TO.N,/P1-*%
X143150000Y-119370000D03*
D15*
%TO.P,J1,2,Pin_2*%
%TO.N,/P1+*%
X143150000Y-116830000D03*
%TO.P,J1,3,Pin_3*%
%TO.N,GND*%
X143150000Y-114290000D03*
%TO.P,J1,4,Pin_4*%
%TO.N,/AMP*%
X143150000Y-111750000D03*
%TO.P,J1,5,Pin_5*%
%TO.N,/CLK_INT*%
X143150000Y-109210000D03*
%TO.P,J1,6,Pin_6*%
%TO.N,/CLK*%
X143150000Y-106670000D03*
%TO.P,J1,7,Pin_7*%
%TO.N,GND*%
X143150000Y-104130000D03*
%TO.P,J1,8,Pin_8*%
%TO.N,unconnected-(J1-Pad8)*%
X143150000Y-101590000D03*
%TO.P,J1,9,Pin_9*%
%TO.N,unconnected-(J1-Pad9)*%
X143150000Y-99050000D03*
%TD*%
D16*
%TO.P,JP2,1,A*%
%TO.N,VDD*%
X157670000Y-97650000D03*
D15*
%TO.P,JP2,2,C*%
%TO.N,/{slash}RST*%
X157670000Y-100190000D03*
%TO.P,JP2,3,B*%
%TO.N,Net-(J5-Pad3)*%
X157670000Y-102730000D03*
%TD*%
D17*
%TO.N,/AMP*%
X145900000Y-103000000D03*
X145900000Y-105400000D03*
%TO.N,VDD*%
X153270000Y-110360000D03*
X153290000Y-107810000D03*
%TO.N,/{slash}RST*%
X152180000Y-106930000D03*
X154020000Y-105080000D03*
%TD*%
D18*
%TO.N,/P2+*%
X147874999Y-129700000D02*
X147874999Y-119725001D01*
X147874999Y-119725001D02*
X150770000Y-116830000D01*
%TO.N,/P2-*%
X149124999Y-124700000D02*
X149124999Y-121015001D01*
X149124999Y-121015001D02*
X150770000Y-119370000D01*
%TO.N,/P1-*%
X145374999Y-129700000D02*
X145374999Y-121594999D01*
X145374999Y-121594999D02*
X143150000Y-119370000D01*
%TO.N,/P1+*%
X146624999Y-124700000D02*
X146624999Y-120304999D01*
X146624999Y-120304999D02*
X143150000Y-116830000D01*
D19*
%TO.N,/AMP*%
X145900000Y-103000000D02*
X145660000Y-102760000D01*
X145780000Y-109120000D02*
X145900000Y-109000000D01*
X145900000Y-109000000D02*
X145900000Y-105400000D01*
X145660000Y-102760000D02*
X145660000Y-93120000D01*
%TO.N,/CLK_INT*%
X137860000Y-111745000D02*
X140615000Y-111745000D01*
X140615000Y-111745000D02*
X143150000Y-109210000D01*
%TO.N,/CLK*%
X137860000Y-109205000D02*
X140615000Y-109205000D01*
X140615000Y-109205000D02*
X143150000Y-106670000D01*
D18*
%TO.N,GND*%
X146960000Y-110480000D02*
X143150000Y-114290000D01*
X148200000Y-93120000D02*
X148200000Y-104140000D01*
X148190000Y-104130000D02*
X148200000Y-104140000D01*
X148200000Y-109240000D02*
X146960000Y-110480000D01*
X150770000Y-114290000D02*
X146960000Y-110480000D01*
X143150000Y-104130000D02*
X148190000Y-104130000D01*
X148200000Y-104140000D02*
X148200000Y-109240000D01*
D19*
%TO.N,/AMP*%
X143150000Y-111750000D02*
X145780000Y-109120000D01*
%TO.N,/CLK_INT*%
X143145000Y-109205000D02*
X143150000Y-109210000D01*
D18*
%TO.N,VDD*%
X150770000Y-104130000D02*
X152070000Y-102830000D01*
D19*
X153600000Y-110690000D02*
X153270000Y-110360000D01*
X153140000Y-93120000D02*
X157670000Y-97650000D01*
X153290000Y-107810000D02*
X153290000Y-106650000D01*
D18*
X152070000Y-94450000D02*
X150740000Y-93120000D01*
D19*
X153290000Y-106650000D02*
X150770000Y-104130000D01*
X154620000Y-108120000D02*
X153600000Y-108120000D01*
D18*
X152070000Y-102830000D02*
X152070000Y-94450000D01*
D19*
X154630000Y-110690000D02*
X153600000Y-110690000D01*
X153600000Y-108120000D02*
X153290000Y-107810000D01*
X150740000Y-93120000D02*
X153140000Y-93120000D01*
%TO.N,Net-(J3-Pad4)*%
X137860000Y-98380000D02*
X143120000Y-93120000D01*
X137860000Y-106665000D02*
X137860000Y-98380000D01*
%TO.N,/{slash}RST*%
X151920000Y-106670000D02*
X152180000Y-106930000D01*
X150770000Y-106670000D02*
X151920000Y-106670000D01*
X154020000Y-103840000D02*
X157670000Y-100190000D01*
X154020000Y-105080000D02*
X154020000Y-103840000D01*
%TO.N,/SDA*%
X150770000Y-109210000D02*
X157590000Y-109210000D01*
X157590000Y-109210000D02*
X157650000Y-109150000D01*
%TO.N,/SCL*%
X150770000Y-111750000D02*
X157590000Y-111750000D01*
X157590000Y-111750000D02*
X157650000Y-111690000D01*
%TO.N,Net-(J5-Pad3)*%
X157670000Y-102730000D02*
X157670000Y-106590000D01*
X157670000Y-106590000D02*
X157650000Y-106610000D01*
X157680000Y-106580000D02*
X157650000Y-106610000D01*
%TD*%
M02*
